<svg style="position: absolute; width: 0; height: 0;" width="0" height="0" version="1.1" xmlns="http://www.w3.org/2000/svg" xmlns:xlink="http://www.w3.org/1999/xlink"><defs><symbol id=".null" viewBox="0 -272 1000 1000"><path d=""></path></symbol><symbol id="nonmarkingreturn" viewBox="0 -272 1000 1000"><path d=""></path></symbol><symbol id="space" viewBox="0 -272 1000 1000"><path d=""></path></symbol><symbol id="exclam" viewBox="0 -272 1000 1000"><path d="M103 0 l29 523 l92 6 l-20 -518 l-101 -11 ZM122 617 l-30 52 l10 59 l130 0 l12 -113 l-122 2 Z"></path></symbol><symbol id="quotedbl" viewBox="0 -272 1000 1000"><path d="M42 565 l11 206 l78 0 l4 -186 l-93 -20 ZM177 597 l27 174 l48 27 l24 -207 l-99 6 Z"></path></symbol><symbol id="numbersign" viewBox="0 -272 1000 1000"><path d="M789 354 l-12 -132 l-138 0 l70 -222 l-107 0 l-41 191 l-199 0 l41 -191 l-107 0 l33 163 l-171 0 l0 105 l149 0 l-106 178 l-175 0 l0 104 l121 -34 l-9 224 l107 0 l41 -190 l199 0 l-41 190 l107 0 l18 -164 l179 -26 l0 -104 l-134 0 l32 -150 l143 58 ZM507 446 l-199 0 l-9 -86 l240 -64 l-32 150 Z"></path></symbol><symbol id="dollar" viewBox="0 -272 1000 1000"><path d="M314 309 l0 -220 q40 7 67 33 q27 26 33 64 l123 0 q-9 -82 -69.5 -131 q-60.5 -49 -153.5 -56 l0 -86 l-34 0 l0 85 q-69 0 -122 24 q-112 51 -112 166 q0 69 33 110 q33 41 76 59.5 q43 18.5 125 43.5 l-10 257 q-48 -8 -81 -49 q-33 -41 -19 -92 l-122 0 q7 86 72 139.5 q65 53.5 160 61.5 l0 82 l34 0 l0 -80 l2 0 q77 0 130 -27 q106 -54 106 -168 q0 -120 -104 -168 q-44 -20 -115 -42 l-19 -6 ZM280 298 q-51 -18 -88 -12 q-24 4 -46.5 -38.5 q-22.5 -42.5 -16.5 -66.5 q16 -66 61 -84 q22 -10 90 -11 l0 212 ZM314 412 q56 19 86 44.5 q30 25.5 30 71.5 q0 50 -34 88.5 q-34 38.5 -84 38.5 l2 -243 Z"></path></symbol><symbol id="percent" viewBox="0 -272 1000 1000"><path d="M183 -9 q-67 0 -109.5 41.5 q-42.5 41.5 -42.5 112.5 q0 71 42.5 112 q42.5 41 109.5 41 q67 0 109 -41 q42 -41 42 -112 q0 -71 -42 -112.5 q-42 -41.5 -109 -41.5 ZM495 0 l-400 707 l112 0 l399 -707 l-111 0 ZM107 197 q-20 -22 -20 -60 q0 -38 20 -61 q20 -23 53 -23 q18 0 61 13 q43 13 53 24 q20 23 20 61 q0 37 -20.5 60 q-20.5 23 -53.5 23 q-18 0 -61 -13 q-43 -13 -52 -24 ZM519 409 q-66 0 -108.5 41.5 q-42.5 41.5 -42.5 111.5 q0 71 42.5 112.5 q42.5 41.5 108.5 41.5 q67 0 109.5 -41.5 q42.5 -41.5 42.5 -112.5 q0 -71 -42.5 -112 q-42.5 -41 -109.5 -41 ZM416 559 q0 -37 20 -60 q20 -23 53 -23 q96 0 107 12 q20 23 20 60 q1 38 -20 61 q-10 11 -49 22.5 q-39 11.5 -58 11.5 q-33 0 -53 -23 q-20 -23 -20 -61 Z"></path></symbol><symbol id="ampersand" viewBox="0 -272 1000 1000"><path d="M350 77 q41 0 64 24 q1 1 7.5 7.5 q6.5 6.5 9.5 9.5 q3 3 9 10 q6 7 9.5 11.5 q3.5 4.5 7 11 q3.5 6.5 5.5 12.5 q2 6 2 12 q0 2 -6 4.5 q-6 2.5 -12 7.5 q-6 5 -6 13 l108 0 q0 -5 5 -33.5 q5 -28.5 1 -41.5 q-4 -20 -16 -40 q-12 -20 -24 -32 q-12 -12 -32 -30 q-46 -42 -134 -42 q-59 0 -102 23 q-38 20 -61.5 55.5 q-23.5 35.5 -23.5 82.5 q0 64 50 126 l13 18 l-7 0 q-51 0 -93 24 q-80 46 -97.5 122 q-17.5 76 33.5 167 q18 32 25.5 43.5 q7.5 11.5 25.5 31 q18 19.5 41 26.5 q23 7 56 7 q167 0 213 -127 q9 -25 10 -35 l153 168 l96 -19 l-368 -447 q-22 -27 -32.5 -47 q-10.5 -20 -10.5 -47 q0 -34 22.5 -55 q22.5 -21 58.5 -21 ZM251 604 q-50 0 -85 -32 q-12 -11 -18.5 -41.5 q-6.5 -30.5 -15.5 -44.5 q-19 -31 -20.5 -57 q-1.5 -26 13 -41.5 q14.5 -15.5 39.5 -22.5 q25 -7 61 -1 q36 6 75 24 q27 14 46 44 q17 27 17 61 q0 49 -31.5 80 q-31.5 31 -80.5 31 Z"></path></symbol><symbol id="quotesingle" viewBox="0 -272 1000 1000"><path d="M42 592 l13 206 l70 -21 l20 -185 l-103 0 Z"></path></symbol><symbol id="parenleft" viewBox="0 -272 1000 1000"><path d="M305 -185 q-87 68 -177 252.5 q-90 184.5 -90 334.5 q0 193 73.5 343.5 q73.5 150.5 193.5 244.5 l111 0 l0 -11 q-137 -113 -210.5 -234.5 q-73.5 -121.5 -100.5 -293.5 q-10 -61 -10.5 -114.5 q-0.5 -53.5 8.5 -96 q9 -42.5 23 -79 q14 -36.5 35 -67.5 q21 -31 43.5 -57.5 q22.5 -26.5 51 -53 q28.5 -26.5 54 -49.5 q25.5 -23 55 -52 q29.5 -29 51.5 -55 l0 -12 l-111 0 Z"></path></symbol><symbol id="parenright" viewBox="0 -272 1000 1000"><path d="M247 805 q42 -86 74.5 -200 q32.5 -114 32.5 -203 q0 -192 -73.5 -343.5 q-73.5 -151.5 -193.5 -243.5 l-111 0 l0 12 q22 8 50 13.5 q28 5.5 42.5 9 q14.5 3.5 34 14.5 q19.5 11 30.5 31.5 q11 20.5 26 58 q15 37.5 27 97.5 q12 60 26.5 145.5 q14.5 85.5 30.5 205.5 q23 168 -50.5 313.5 q-73.5 145.5 -216.5 263.5 l0 11 l111 0 q50 -39 69 -55.5 q19 -16.5 43 -48.5 q24 -32 48 -81 Z"></path></symbol><symbol id="asterisk" viewBox="0 -272 1000 1000"><path d="M251 504 l46 -144 l-94 0 l21 146 l-117 -90 l-45 81 l149 57 l-150 44 l48 85 l116 -73 l-12 98 l84 28 l-38 -122 l130 67 l46 -83 l-137 -50 l137 -51 l-45 -80 l-139 87 Z"></path></symbol><symbol id="plus" viewBox="0 -272 1000 1000"><path d="M541 309 l-200 0 l0 -203 l-111 0 l27 196 l-226 7 l28 111 l171 -6 l0 202 q5 0 37.5 -1 q32.5 -1 53.5 -1 l20 -200 l200 0 l0 -105 Z"></path></symbol><symbol id="comma" viewBox="0 -272 1000 1000"><path d="M150 -74.75 q0 -42 -11 -70 l-108 0 l0 110 l58 0 l0 9 q0 11 -12 44 q-5 13 -37 13 l0 46 q6 0 16 0.5 q10 0.5 13.5 0 q3.5 -0.5 10 -1.5 q6.5 -1 12.5 -5.5 q6 -4.5 14.5 -11 q8.5 -6.5 21.5 -18.5 q10 -9 15.5 -32.5 q5.5 -23.5 6 -39 q0.5 -15.5 0.5 -44.5 Z"></path></symbol><symbol id="hyphen" viewBox="0 -272 1000 1000"><path d="M34 329 l-16 120 l428 -24 l-2 -124 l-410 28 Z"></path></symbol><symbol id="period" viewBox="0 -272 1000 1000"><path d="M14 -21 l4 176 l141 -21 l0 -126 l-145 -29 Z"></path></symbol><symbol id="slash" viewBox="0 -272 1000 1000"><path d="M345 -153 q-54 98 -98 210 q-63 162 -134 461 q-69 294 -114 426 l111 0 l272 -1120 l-37 23 Z"></path></symbol><symbol id="zero" viewBox="0 -272 1000 1000"><path d="M52 356 q0 -168 60 -263 q60 -95 200 -95 q140 0 200 95.5 q60 95.5 60 262.5 q0 168 -60 264 q-60 96 -200 96 q-140 0 -200 -95.5 q-60 -95.5 -60 -264.5 ZM429 572 q41 -63 52.5 -121 q11.5 -58 11.5 -135 q0 -120 -30 -184 q-30 -64 -116 -64 q-41 0 -88.5 34 q-47.5 34 -63.5 69 q-30 64 -30 185 q0 122 30 187 q30 65 117 65 q4 0 17.5 0 q13.5 0 17.5 0 q4 0 15 -0.5 q11 -0.5 14.5 -1.5 q3.5 -1 11.5 -2.5 q8 -1.5 12 -4 q4 -2.5 10 -6.5 q6 -4 10.5 -9 q4.5 -5 8.5 -12 Z"></path></symbol><symbol id="one" viewBox="0 -272 1000 1000"><path d="M169 83 l-16 218 l-30 126 l-4 279 l120 0 l0 -706 l-226 0 l50 83 l106 0 Z"></path></symbol><symbol id="two" viewBox="0 -272 1000 1000"><path d="M40 617.93 l0 89 q59 -1 163.5 5 q104.5 6 163 7 q58.5 1 163.5 -12 l-32 -80 l-303 -18 q78 -48 151 -114.5 q73 -66.5 120.5 -145.5 q47.5 -79 47.5 -156 q0 -20 -16 -58 q-16 -38 -32 -44 q-10 -4 -25.5 17 q-15.5 21 -22.5 15 q-7 -8 -4.5 -22.5 q2.5 -14.5 4 -29 q1.5 -14.5 -3.5 -14.5 q-9 0 -14.5 -3.5 q-5.5 -3.5 -7 -7.5 q-1.5 -4 -5 -11 q-3.5 -7 -7.5 -12 q-12 -14 -36.5 -24.5 q-24.5 -10.5 -49.5 -10.5 q-105 0 -172.5 64 q-67.5 64 -74.5 185 l111 0 q4 -73 35 -112 q20 -26 55 -46.5 q35 -20.5 58 -5.5 q19 12 28.5 11.5 q9.5 -0.5 12.5 -7 q3 -6.5 6 -9 q3 -2.5 9 4.5 q13 15 24 58.5 q11 43.5 11 71.5 q0 91 -97.5 197.5 q-97.5 106.5 -259.5 217.5 Z"></path></symbol><symbol id="three" viewBox="0 -272 1000 1000"><path d="M387 64 q3 -2 7 -5 q18 -16 -14 -39 q-38 -27 -80 -27 q-111 0 -174 57.5 q-63 57.5 -70 161.5 l112 0 q7 -60 42 -91.5 q35 -31.5 87 -31.5 q10 0 37 -3 q27 -3 45 -2 q18 1 27 9 q9 8 9.5 25 q0.5 17 -3 41.5 q-3.5 24.5 -3.5 34.5 q0 113 -163 111 l-27 0 l0 94 l27 0 q26 0 36 1 q10 1 20.5 4.5 q10.5 3.5 21.5 6.5 q45 10 88.5 43.5 q43.5 33.5 43.5 62.5 q0 24 -17 65 q-17 41 -33 57 q-24 23 -55 26 q-31 3 -61 -11 q-30 -14 -51.5 -28.5 q-21.5 -14.5 -37.5 -30.5 q-37 -35 -43 -95 l-113 0 q10 113 79 170.5 q69 57.5 182 57.5 q110 0 169 -55.5 q59 -55.5 59 -144.5 q0 -73 -41.5 -114.5 q-41.5 -41.5 -114.5 -62.5 l0 -5 q68 -9 105.5 -53.5 q37.5 -44.5 37.5 -111.5 q0 -24 -1 -37 q-1 -13 -7 -31 q-6 -18 -17 -28 q-25 -21 -51 -26.5 q-26 -5.5 -37.5 -2.5 q-11.5 3 -20.5 8 Z"></path></symbol><symbol id="four" viewBox="0 -272 1000 1000"><path d="M412 557 l-19 155 l115 0 l-36 -191 l135 39 l0 -100 l-99 0 l0 -460 l-122 0 q-38 64 -165.5 224 q-127.5 160 -168.5 237 q-12 23 -14.5 34 q-2.5 11 -0.5 22.5 q2 11.5 -2 42.5 l377 -3 ZM448 503 l-295 -43 l248 -324 l47 367 Z"></path></symbol><symbol id="five" viewBox="0 -272 1000 1000"><path d="M329 330 q64 0 102.5 25 q38.5 25 74.5 90 q33 59 6 111.5 q-27 52.5 -94 64.5 q-99 18 -157 -21 q-58 -39 -68 -99 l-112 0 q6 99 75 157.5 q69 58.5 178 58.5 q118 0 180 -68.5 q62 -68.5 62 -179.5 q0 -106 -57.5 -168 q-57.5 -62 -161.5 -62 q-53 0 -97 18.5 q-44 18.5 -68 49.5 l-60 -196 l409 -14 l0 -101 l-425 15 q-14 1 -19.5 2 q-5.5 1 -9 4 q-3.5 3 -2 9.5 q1.5 6.5 1 17.5 q-0.5 11 -0.5 27 q-2 40 0.5 166 q2.5 126 0.5 166 l111 0 q16 -33 50.5 -53 q34.5 -20 80.5 -20 Z"></path></symbol><symbol id="six" viewBox="0 -272 1000 1000"><path d="M187 94 q25 -40 68 -53 q43 -13 84 -1 q41 12 70 40 q15 15 20.5 34.5 q5.5 19.5 7 50 q1.5 30.5 2.5 39.5 l108 0 q-9 -93 -64.5 -152 q-55.5 -59 -159.5 -59 q-139 0 -200 94 q-61 94 -61 284 q0 166 57 261 q57 95 210 95 q79 0 133 -31.5 q54 -31.5 81 -85 q27 -53.5 27 -121.5 q0 -113 -59 -175 q-59 -62 -163 -62 q-68 0 -118 32 q-50 32 -65 86 l-1 -34 q-6 -196 23 -242 ZM331 664 q-54 0 -84.5 -7.5 q-30.5 -7.5 -47 -32 q-16.5 -24.5 -20.5 -56 q-4 -31.5 -4 -92.5 q0 -65 44 -100 q44 -35 103 -35 q65 0 103 38 q38 38 38 109 q0 56 -42.5 116 q-42.5 60 -89.5 60 Z"></path></symbol><symbol id="seven" viewBox="0 -272 1000 1000"><path d="M481 0 l-466 0 l0 99 q14 -3 77 -24 q63 -21 127.5 -27.5 q64.5 -6.5 181.5 -2.5 l-303 665 l120 0 l265 -605 l-2 -105 Z"></path></symbol><symbol id="eight" viewBox="0 -272 1000 1000"><path d="M191 333 q-139 44 -139 181 q0 104 73.5 161 q73.5 57 189.5 57 q116 0 190 -57 q74 -57 74 -161 q0 -137 -139 -181 q121 -38 121 -161 q0 -52 -29 -95 q-29 -45 -85.5 -70 q-56.5 -25 -131.5 -25 q-78 0 -133 26 q-51 24 -81.5 65 q-30.5 41 -30.5 99 q0 123 121 161 ZM286 55 q28 0 66.5 17 q38.5 17 59.5 34 q36 30 36 84 q0 55 -36.5 84 q-36.5 29 -96.5 29 q-61 0 -97 -29 q-21 -19 -42.5 -50 q-21.5 -31 -21.5 -55 q0 -55 36.5 -84.5 q36.5 -29.5 95.5 -29.5 ZM163 508 q25 -125 152 -125 q68 0 132.5 48.5 q64.5 48.5 64.5 109.5 q0 61 -53.5 96.5 q-53.5 35.5 -124.5 35.5 q-74 0 -130 -46 q-56 -46 -41 -119 Z"></path></symbol><symbol id="nine" viewBox="0 -272 1000 1000"><path d="M198 611 q-9 -9 -13 -23 q-4 -14 -5.5 -38.5 q-1.5 -24.5 -2.5 -34.5 l-108 0 q3 28 13 52.5 q10 24.5 29.5 56 q19.5 31.5 26.5 43.5 q18 36 59.5 48 q41.5 12 104.5 12 q136 0 194.5 -98 q58.5 -98 58.5 -285 q0 -165 -57.5 -258.5 q-57.5 -93.5 -210.5 -93.5 q-79 0 -133 31.5 q-54 31.5 -81 85.5 q-27 54 -27 122 q0 112 59 174.5 q59 62.5 163 62.5 q67 0 117.5 -32.5 q50.5 -32.5 66.5 -86.5 l6 36 q5 104 2.5 166 q-2.5 62 -42.5 88 q-40 26 -146 26 q-13 0 -24.5 -6 q-11.5 -6 -18 -13 q-6.5 -7 -16.5 -18.5 q-10 -11.5 -15 -16.5 ZM420 115 q32 37 33 93.5 q1 56.5 -33 108.5 q-21 31 -54.5 46.5 q-33.5 15.5 -71.5 15.5 q-65 0 -102.5 -38 q-37.5 -38 -37.5 -109 q0 -67 37.5 -104 q37.5 -37 99.5 -37 q6 0 21 0 q15 0 22.5 0 q7.5 0 20 0.5 q12.5 0.5 20.5 2 q8 1.5 17 4 q9 2.5 16 7 q7 4.5 12 10.5 Z"></path></symbol><symbol id="colon" viewBox="0 -272 1000 1000"><path d="M68 4 l-22 109 l132 35 l-3 -161 l-107 17 ZM46 411 l-12 139 l141 -13 l-23 -133 l-106 7 Z"></path></symbol><symbol id="semicolon" viewBox="0 -272 1000 1000"><path d="M207 422.25 q0 -42 -11 -70 l-108 0 l0 110 l58 0 l0 9 q0 11 -12 44 q-5 13 -37 13 l0 46 q6 0 16 0.5 q10 0.5 13.5 0 q3.5 -0.5 10 -1.5 q6.5 -1 12.5 -5.5 q6 -4.5 14.5 -11 q8.5 -6.5 21.5 -18.5 q10 -9 15.5 -32.5 q5.5 -23.5 6 -39 q0.5 -15.5 0.5 -44.5 ZM69 -144.75 l4 176 l141 -21 l0 -126 l-145 -29 Z"></path></symbol><symbol id="less" viewBox="0 -272 1000 1000"><path d="M405 565 l-252 -220 q4 -3 35.5 -24 q31.5 -21 55 -39.5 q23.5 -18.5 68.5 -64.5 q45 -46 93 -106 l-144 0 l-230 228 l240 250 l134 -24 Z"></path></symbol><symbol id="equal" viewBox="0 -272 1000 1000"><path d="M31 197 l76 107 l438 4 l18 -111 l-532 0 ZM31 422 l14 104 l518 0 l-50 -122 l-482 18 Z"></path></symbol><symbol id="greater" viewBox="0 -272 1000 1000"><path d="M31 140.49 q51 50 124.5 141.5 q73.5 91.5 83.5 102.5 l-208 210 l143 0 l231 -226 l-180 -164 q-40 -41 -72 -57 q-32 -16 -49.5 -11.5 q-17.5 4.5 -37 6.5 q-19.5 2 -35.5 -2 Z"></path></symbol><symbol id="question" viewBox="0 -272 1000 1000"><path d="M258 -12 q-72 0 -125 26.5 q-53 26.5 -81 73 q-28 46.5 -27 106.5 l109 0 q-28 -24 -29.5 -50.5 q-1.5 -26.5 16.5 -40.5 q33 -31 87 -31 q27 0 70 12.5 q43 12.5 57 27.5 q30 29 30 81 q0 77 -50 105 q-4 3 -21 13 q-17 10 -27 15.5 q-10 5.5 -27 13 q-17 7.5 -33.5 11 q-16.5 3.5 -32.5 3.5 l-48 0 l4 159 l108 0 l-16 -119 q139 -2 192 -46 q64 -52 64 -156 q0 -96 -60 -150 q-60 -54 -160 -54 ZM132 606 l-26 134 l144 -12 l-14 -138 l-104 16 Z"></path></symbol><symbol id="at" viewBox="0 -272 1000 1000"><path d="M829 391 q0 -7 2 -25 l19 -121 q3 -24 3 -45 q0 -66 -28 -117 q-28 -50 -81 -78 q-53 -28 -126 -28 q-29 0 -36.5 0 q-7.5 0 -32.5 2 q-25 2 -36.5 6 q-11.5 4 -26.5 13 q-15 9 -24 21 q-7 10 -11 37 q-4 27 -17 44 q-8 10 -45.5 44.5 q-37.5 34.5 -47.5 45.5 q-7 9 -12.5 16.5 q-5.5 7.5 -8.5 15.5 q-3 8 -5 13.5 q-2 5.5 -2.5 15.5 q-0.5 10 -0.5 15 q0 5 0 19 q0 14 0 21 q0 71 27 125 q26 52 73 83.5 q47 31.5 112 31.5 q139 0 211 -132 q2 132 141 132 q70 0 132 -47 q60 -45 97 -126 q37 -81 37 -179 q0 -140 -58 -243 q-59 -101 -171 -156.5 q-112 -55.5 -267 -55.5 q-172 0 -308 72 q-131 69 -211 196.5 q-80 127.5 -80 299.5 q0 155 61 264 q60 109 176 167 q116 58 280 60 l22 -95 q-254 -1 -353 -93 q-26 -24 -42 -55.5 q-16 -31.5 -22.5 -76 q-6.5 -44.5 -8 -77 q-1.5 -32.5 -1.5 -94.5 q0 -134 55 -242 q55 -107 161.5 -169.5 q106.5 -62.5 254.5 -62.5 q127 0 216 46 q44 22 78.5 48 q34.5 26 63.5 62 q29 36 45 84 q16 48 16 105 q0 67 -29.5 136 q-29.5 69 -67.5 103 q-32 29 -69 29 q-54 0 -54 -55 ZM562 446 q-62 0 -100.5 -41.5 q-38.5 -41.5 -38.5 -112.5 q0 -28 -1 -59.5 q-1 -31.5 -3 -42.5 q-2 -11 2.5 -29.5 q4.5 -18.5 6.5 -23 q2 -4.5 19 -20 q17 -15.5 30.5 -24 q13.5 -8.5 49.5 -32.5 q15 -10 36.5 3.5 q21.5 13.5 35.5 13.5 q66 0 104 39 q38 39 38 108 q0 68 -24.5 118.5 q-24.5 50.5 -65.5 76.5 q-41 26 -89 26 Z"></path></symbol><symbol id="A" viewBox="0 -272 1000 1000"><path d="M472 535 q33 33 68 147 q3 9 4 13 l122 0 l-259 -695 l-110 4 l-167 447 l-28 14 l-86 230 l122 0 q2 -11 6 -53 q4 -42 10.5 -65.5 q6.5 -23.5 19.5 -39.5 l298 -2 ZM224 454 l117 -330 l123 299 l-240 31 Z"></path></symbol><symbol id="B" viewBox="0 -272 1000 1000"><path d="M437 336.86 q57 -14 92 -55.5 q35 -41.5 35 -108.5 q0 -83 -56 -130 q-28 -24 -110 -36 q-82 -12 -136 -3 l-172 28 l-21 669 l281 0 q112 0 171 -51.5 q59 -51.5 59 -139.5 q0 -64 -39.5 -112 q-39.5 -48 -103.5 -61 ZM183 87.86 l137 0 q59 0 106 8 q17 3 28.5 11 q11.5 8 17 17 q5.5 9 8.5 23.5 q3 14.5 3 23.5 q0 9 -0.5 24 q-0.5 15 -0.5 19 q0 50 -32 78 q-32 28 -92 28 l-175 -21 l0 -211 ZM506 478.86 q0 67 -38 102 q-38 35 -112 35 l-173 -9 l5 -201 l138 -24 q30 -7 78.5 -3.5 q48.5 3.5 65.5 17.5 q36 30 36 83 Z"></path></symbol><symbol id="C" viewBox="0 -272 1000 1000"><path d="M384 -6 q-100 0 -177 46 q-77 46 -119 127.5 q-42 81.5 -42 186.5 q0 117 24 173.5 q24 56.5 100 121.5 q32 28 96.5 46 q64.5 18 117.5 18 q130 0 216 -65.5 q86 -65.5 116 -178.5 l-121 0 q-25 63 -79.5 100.5 q-54.5 37.5 -133.5 37.5 q-63 0 -112.5 -31 q-49.5 -31 -77.5 -89 q-6 -11 -20.5 -32.5 q-14.5 -21.5 -22 -40 q-7.5 -18.5 -7.5 -41.5 q0 -8 -0.5 -31.5 q-0.5 -23.5 0 -36.5 q0.5 -13 1.5 -32.5 q1 -19.5 4.5 -34 q3.5 -14.5 8.5 -25.5 q27 -54 82 -94.5 q55 -40.5 127 -50.5 q72 -10 145 39 q26 18 55 60.5 q29 42.5 43 77.5 l108 -6 q-30 -113 -116 -179 q-86 -66 -216 -66 Z"></path></symbol><symbol id="D" viewBox="0 -272 1000 1000"><path d="M675 333 q0 -73 -15 -108 q-15 -35 -57 -39 q-8 -1 2 -7 q22 -15 18 -25 q-13 -32 -51 -73 q-38 -41 -68 -56 q-83 -44 -199 -44 l-236 0 l-20 725 l256 -19 q135 -10 199 -44 q84 -44 127.5 -123.5 q43.5 -79.5 43.5 -186.5 ZM296 584 l-113 0 l-31 -510 l113 0 q64 0 128 20.5 q64 20.5 98 53.5 q68 66 68 185 q0 119 -68 185 q-68 66 -195 66 Z"></path></symbol><symbol id="E" viewBox="0 -272 1000 1000"><path d="M473 92 l0 -92 l-371 19 l-33 687 l404 0 l0 -93 l-327 38 l14 -198 l283 -59 l0 -88 l-260 0 l-29 -217 l319 3 Z"></path></symbol><symbol id="F" viewBox="0 -272 1000 1000"><path d="M69 1 l0 706 l81 0 l0 -307 l283 0 l0 -88 l-250 0 l-27 -238 l330 19 l-70 -93 l-347 1 Z"></path></symbol><symbol id="G" viewBox="0 -272 1000 1000"><path d="M713 224 q-27 -106 -111 -168.5 q-84 -62.5 -210 -62.5 q-103 0 -182 46 q-75 43 -119.5 124 q-44.5 81 -44.5 189 q0 105 43 187 q42 78 120 125.5 q78 47.5 184 47.5 q92 0 163 -38 q68 -36 113 -98.5 q45 -62.5 58 -144.5 l0 -109 l-355 0 l0 84 l259 0 q8 83 -30.5 143.5 q-38.5 60.5 -126.5 60.5 q-11 0 -26 -1 q-128 -6 -170 -30 q-55 -30 -85 -88 q-30 -58 -30 -139 q0 -43 8.5 -97 q8.5 -54 22.5 -81 q26 -51 85.5 -80.5 q59.5 -29.5 132.5 -29.5 q71 0 123 50.5 q52 50.5 58 109.5 l120 0 Z"></path></symbol><symbol id="H" viewBox="0 -272 1000 1000"><path d="M515 1 l0 296 l-375 -1 l0 -296 l-71 1 l0 706 l129 -19 l0 -317 l317 19 l0 317 l115 0 l0 -706 l-115 0 Z"></path></symbol><symbol id="I" viewBox="0 -272 1000 1000"><path d="M69 -16 l-14 737 l128 -31 l-4 -721 l-110 15 Z"></path></symbol><symbol id="J" viewBox="0 -272 1000 1000"><path d="M325 -5 l0 512 q0 81 -17 114.5 q-17 33.5 -81 33.5 q-24 0 -55 -17.5 q-31 -17.5 -44 -34.5 q-13 -16 -24 -53 q-11 -37 -11 -65 l-72 -3 q0 108 58 167 q58 59 160 59 q94 0 147 -53 q56 -56 53 -148 l-16 -514 l-98 2 Z"></path></symbol><symbol id="K" viewBox="0 -272 1000 1000"><path d="M601 -39 l-138 0 l-271 336 q4 -130 -2.5 -206.5 q-6.5 -76.5 -18.5 -100.5 q-12 -24 -31 -27 l-71 -2 l0 706 l89 15 l25 -342 l269 366 l149 -39 l-311 -357 l311 -349 Z"></path></symbol><symbol id="L" viewBox="0 -272 1000 1000"><path d="M157 625 q0 -56 1 -152 q1 -96 2 -166 q1 -70 1 -141.5 q0 -71.5 -1 -112 q-1 -40.5 -3 -45.5 l-88 -8 l0 706 l358 0 l0 -89 l-270 8 Z"></path></symbol><symbol id="M" viewBox="0 -272 1000 1000"><path d="M663 -12 l-225 607 l-231 -607 l-138 0 l0 695 l101 12 l-2 -574 l217 562 l100 0 l227 -522 l6 522 l83 0 q13 -438 7 -572 q-2 -42 -5.5 -66.5 q-3.5 -24.5 -11.5 -35 q-8 -10.5 -13 -12.5 q-5 -2 -18 -4 l-97 -5 Z"></path></symbol><symbol id="N" viewBox="0 -272 1000 1000"><path d="M640 -26 l-62 0 l-2 659 l-393 -659 l-114 0 l0 705 l114 0 l0 -521 l379 547 l78 -26 l0 -705 Z"></path></symbol><symbol id="O" viewBox="0 -272 1000 1000"><path d="M396 -8 q-99 0 -178.5 46 q-79.5 46 -125.5 128.5 q-46 82.5 -46 186.5 q0 104 46 186.5 q46 82.5 125.5 129 q79.5 46.5 178.5 46.5 q98 0 177.5 -46.5 q79.5 -46.5 125 -129 q45.5 -82.5 45.5 -186.5 q0 -104 -45.5 -186.5 q-45.5 -82.5 -125 -128.5 q-79.5 -46 -177.5 -46 ZM384 59 q46 0 91.5 26 q45.5 26 79.5 71 q34 45 54 99.5 q20 54.5 18 116.5 q-2 62 -29 116 q-30 58 -82.5 89 q-52.5 31 -119.5 31 q-68 0 -121 -31 q-53 -31 -83 -89 q-15 -30 -28.5 -83.5 q-13.5 -53.5 -13.5 -90.5 q0 -77 30 -135 q30 -58 83 -89 q53 -31 121 -31 Z"></path></symbol><symbol id="P" viewBox="0 -272 1000 1000"><path d="M183 435 q102 24 173 12.5 q71 -11.5 135 -70.5 q63 -57 63 -157 q0 -101 -62 -159 q-56 -53 -206 -61 q-10 0 -69.5 2 q-59.5 2 -60.5 2 q-44 1 -63.5 7 q-19.5 6 -22.5 13 q-3 7 -4 26 l3 659 l114 0 l0 -274 ZM438 220 q0 180 -282 147 l0 -245 l141 -25 q62 -11 107 32 q34 31 34 91 Z"></path></symbol><symbol id="Q" viewBox="0 -272 1000 1000"><path d="M759 696 l-175 -178 q74 -47 117 -128 q43 -81 43 -181 q0 -104 -46 -186 q-47 -86 -129 -126 q-82 -40 -210 -40 q-80 0 -143 55 q-63 55 -106 131 q-46 83 -46 186 q0 4 0 20 q0 16 0 19.5 q0 3.5 0 16.5 q0 13 1 17 q1 4 1.5 15.5 q0.5 11.5 2 16.5 q1.5 5 4 14.5 q2.5 9.5 5 16 q2.5 6.5 6 14.5 q3.5 8 8.5 16 q46 83 125.5 129.5 q79.5 46.5 178.5 46.5 q50 0 96 -12 l149 147 l118 -10 ZM396 464 q-92 0 -168 -64.5 q-76 -64.5 -76 -149.5 q0 -9 -2 -51.5 q-2 -42.5 0 -68 q2 -25.5 11 -42.5 q13 -26 47 -55 q34 -29 67 -48 q53 -31 121 -31 q67 0 119.5 31 q52.5 31 82.5 89 q30 60 39 112 q9 52 2 87 q-7 35 -29.5 68.5 q-22.5 33.5 -43 51.5 q-20.5 18 -50.5 40 q-44 31 -120 31 Z"></path></symbol><symbol id="R" viewBox="0 -272 1000 1000"><path d="M568 694 l-185 -287 q48 -8 89 -42 q41 -34 63 -78.5 q22 -44.5 19.5 -97 q-2.5 -52.5 -36.5 -94.5 q-37 -46 -82.5 -76 q-45.5 -30 -117.5 -31 l-252 -3 l3 709 l107 15 l7 -297 l119 29 l154 268 l112 -15 ZM156 69 l153 17 q41 5 65 11.5 q24 6.5 40 20.5 q33 33 33 91 q0 122 -138 122 l-126 0 l-27 -262 Z"></path></symbol><symbol id="S" viewBox="0 -272 1000 1000"><path d="M533 520 q0 -47 -31 -83.5 q-31 -36.5 -72 -57.5 q-42 -21 -108 -42 q-42 -13 -84 -31 q-30 -14 -50 -38 q-22 -25 -30.5 -59.5 q-8.5 -34.5 1 -69.5 q9.5 -35 36.5 -57 q29 -25 77 -25 q101 0 123 124 l123 0 q-9 -84 -72.5 -136 q-63.5 -52 -171.5 -52 q-68 0 -120 23.5 q-52 23.5 -80 66.5 q-28 43 -28 100 q0 65 29 105 q29 40 70.5 61 q41.5 21 107.5 42 q54 18 85 32 q31 14 52 38.5 q21 24.5 21 62.5 q0 44 -28.5 72 q-28.5 28 -80.5 28 q-58 0 -92.5 -33 q-34.5 -33 -39.5 -79 l-122 0 q5 60 39 106 q34 46 91 71.5 q57 25.5 129 25.5 q74 0 125 -27 q51 -27 76 -71.5 q25 -44.5 25 -96.5 Z"></path></symbol><symbol id="T" viewBox="0 -272 1000 1000"><path d="M15 -41 l0 92 l213 41 l0 614 l98 -41 l-6 -454 q2 -128 -24 -181 l227 21 l0 -92 l-508 0 Z"></path></symbol><symbol id="U" viewBox="0 -272 1000 1000"><path d="M64 -13.85 l0 419 q0 145 74 219 q42 43 79 62.5 q37 19.5 93 19.5 q144 0 220.5 -78 q76.5 -78 76.5 -223 l0 -419 q-69 -2 -89 23 q-20 25 -18 93 l-7 303 q-2 96 -41 140 q-42 46 -116 46 q-10 0 -37.5 1 q-27.5 1 -42 1 q-14.5 0 -32.5 -5 q-18 -5 -28 -16 q-42 -46 -42 -140 l0 -419 l-90 -27 Z"></path></symbol><symbol id="V" viewBox="0 -272 1000 1000"><path d="M16 0 l254 706 l146 0 l255 -706 l-124 0 q-8 36 -27.5 85.5 q-19.5 49.5 -35.5 86.5 q-16 37 -26.5 84.5 q-10.5 47.5 -7.5 89.5 l-84 241 l-226 -587 l-124 0 Z"></path></symbol><symbol id="W" viewBox="0 -272 1000 1000"><path d="M838 -23 l-97 587 l-64 -166 q-4 -39 -12 -80.5 q-8 -41.5 -15.5 -72.5 q-7.5 -31 -21.5 -75 q-14 -44 -21.5 -65.5 q-7.5 -21.5 -24 -67.5 q-16.5 -46 -21.5 -60 l-154 127 l-127 447 l-122 -574 l-125 0 l172 717 l144 -11 l149 -546 l149 546 l144 23 l172 -729 l-125 0 Z"></path></symbol><symbol id="X" viewBox="0 -272 1000 1000"><path d="M608 694 l-227 -352 l297 -480 l-137 70 l-223 312 l-166 -256 l-136 0 l224 346 l-273 498 l185 -138 l151 -261 l180 324 l125 -63 Z"></path></symbol><symbol id="Y" viewBox="0 -272 1000 1000"><path d="M488 0 l-178 308 l-56 -96 q-3 -46 -21 -84.5 q-18 -38.5 -45.5 -79.5 q-27.5 -41 -39.5 -67 l-132 0 l236 449 l0 257 l110 19 l5 -276 l235 -449 l-114 19 Z"></path></symbol><symbol id="Z" viewBox="0 -272 1000 1000"><path d="M507 58 l0 -89 l-455 25 l-14 84 l340 -16 l-344 546 l-4 98 l482 -31 l22 -81 l-365 -12 l338 -524 Z"></path></symbol><symbol id="bracketleft" viewBox="0 -272 1000 1000"><path d="M90 -176 l0 1120 l229 0 l-2 -50 l-121 0 l7 -543 q2 -78 -6 -161.5 q-8 -83.5 -17.5 -133.5 q-9.5 -50 -27.5 -140 l167 1 l0 -93 l-229 0 Z"></path></symbol><symbol id="backslash" viewBox="0 -272 1000 1000"><path d="M521 944 l-201 -872 q-1 -8 -5.5 -33 q-4.5 -25 -6.5 -34.5 q-2 -9.5 -6.5 -31.5 q-4.5 -22 -8 -32 q-3.5 -10 -10.5 -28 q-7 -18 -14 -26.5 q-7 -8.5 -17.5 -21 q-10.5 -12.5 -22 -18.5 q-11.5 -6 -26.5 -11 q-15 -5 -33 -7 l-60 -5 l300 1120 l111 0 Z"></path></symbol><symbol id="bracketright" viewBox="0 -272 1000 1000"><path d="M276 944 l0 -1120 l-229 0 l-2 53 l137 29 l2 973 l-137 -29 l0 94 l229 0 Z"></path></symbol><symbol id="asciicircum" viewBox="0 -272 1000 1000"><path d="M147 696 q19 -34 33.5 -108.5 q14.5 -74.5 38 -127 q23.5 -52.5 73.5 -68.5 l34 -108 l176 412 l114 0 l-237 -528 l-109 0 l-237 528 l114 0 Z"></path></symbol><symbol id="underscore" viewBox="0 -272 1000 1000"><path d="M99 -147 l-55 120 l487 -9 l71 -102 l-503 -9 Z"></path></symbol><symbol id="grave" viewBox="0 -272 1000 1000"><path d="M26 594 l0 89 l221 113 l0 -80 l-221 -122 Z"></path></symbol><symbol id="a" viewBox="0 -272 1000 1000"><path d="M418 11 q-29 -20 -77 -30 q-48 -10 -86 1 q-219 76 -214 274 q2 91 32 151 q32 64 88.5 98 q56.5 34 128.5 34 q75 0 128 -37 q53 -37 75 -98 l-10 154 l124 -26 l16 -558 l-130 7 l0 128 q-22 -61 -75 -98 ZM179 122 q21 -23 63 -35.5 q42 -12.5 83 -12.5 q48 0 86 22.5 q38 22.5 60 64 q22 41.5 22 95.5 q0 55 -22 96 q-22 41 -60 63.5 q-38 22.5 -86 22.5 q-9 0 -31.5 0.5 q-22.5 0.5 -32 0 q-9.5 -0.5 -28.5 -1.5 q-19 -1 -28 -3.5 q-9 -2.5 -24.5 -7 q-15.5 -4.5 -23 -12 q-7.5 -7.5 -17 -18.5 q-9.5 -11 -14 -25 q-4.5 -14 -8 -33.5 q-3.5 -19.5 -3.5 -43.5 q0 -41 20 -94 q20 -53 44 -78 Z"></path></symbol><symbol id="b" viewBox="0 -272 1000 1000"><path d="M526 202 q-50 -30 -141 -30 q-75 0 -128 37 q-53 37 -74 98 l0 -317 l-93 4 l-21 736 l95 10 l19 -138 q21 61 74 98 q53 37 128 37 q37 0 81 -11 q44 -11 72 -28 q43 -26 69.5 -98 q26.5 -72 26.5 -146 q0 -102 -23.5 -158.5 q-23.5 -56.5 -84.5 -93.5 ZM264 294 q119 -70 222 -6 q74 46 74 150 q0 40 -23.5 93 q-23.5 53 -48.5 79 q-41 43 -81 56 q-40 13 -73 4 q-33 -9 -78 -36 q-30 -18 -52 -74.5 q-22 -56.5 -22 -105.5 q0 -54 22 -95.5 q22 -41.5 60 -64.5 Z"></path></symbol><symbol id="c" viewBox="0 -272 1000 1000"><path d="M314 -8.08 q-83 0 -148.5 36 q-65.5 36 -72.5 104 q-2 21 11 47 q3 5 3 6 q0 3 -6 -1 q-29 -17 -40 4 q-11 21 -11 70 q0 119 26 167 q63 115 238 132 q95 9 177 -57 q70 -57 87 -154 l-121 0 q-10 52 -48.5 82 q-38.5 30 -96.5 30 q-66 0 -110 -47 q-44 -47 -44 -137 q0 -6 1.5 -25.5 q1.5 -19.5 2 -32 q0.5 -12.5 -1.5 -28.5 q-7 -33 -3 -60 q7 -36 28 -26 q40 15 54.5 12.5 q14.5 -2.5 35.5 -13 q21 -10.5 37 -10.5 q58 0 96.5 29.5 q38.5 29.5 48.5 81.5 l121 0 q-17 -97 -87 -153.5 q-70 -56.5 -177 -56.5 Z"></path></symbol><symbol id="d" viewBox="0 -272 1000 1000"><path d="M492 710 l115 34 l-26 -778 l-89 4 l0 317 q-21 -61 -74 -98 q-48 -31 -129 -31 q-81 0 -127 28 q-57 34 -89 98 q-32 64 -32 150 q0 56 13 102 q3 9 20 16 q17 7 21 14 q3 6 -0.5 28.5 q-3.5 22.5 0.5 27.5 q32 43 82 69 q50 26 113 26 q75 0 128 -37 q53 -37 74 -98 l0 128 ZM156 254 q45 -48 121 -48 q66 0 115 37.5 q49 37.5 79 94.5 q22 42 22 96 q0 55 -22 96 q-46 86 -146 86 q-11 0 -36.5 1.5 q-25.5 1.5 -37.5 1 q-12 -0.5 -28.5 -6 q-16.5 -5.5 -27.5 -16.5 q-25 -27 -46.5 -66 q-21.5 -39 -35 -86.5 q-13.5 -47.5 -4 -98.5 q9.5 -51 46.5 -91 Z"></path></symbol><symbol id="e" viewBox="0 -272 1000 1000"><path d="M577 295 q4 -21 4 -49 q0 -72 -32.5 -130.5 q-32.5 -58.5 -93 -92 q-60.5 -33.5 -141.5 -33.5 q-80 0 -142 34 q-31 18 -61.5 57 q-30.5 39 -52.5 92 q-22 53 -19 120.5 q3 67.5 37 129.5 q35 64 96 98 q29 16 94 26.5 q65 10.5 110 10.5 q78 0 131.5 -60.5 q53.5 -60.5 68.5 -141.5 l-122 0 q-9 48 -48.5 77 q-39.5 29 -96.5 29 q-76 0 -105 -39.5 q-29 -39.5 -32 -126.5 l405 -1 ZM466 243 l-308 21 q5 -107 44 -142 q45 -41 112 -41 q42 0 77.5 17.5 q35.5 17.5 56 54 q20.5 36.5 18.5 90.5 Z"></path></symbol><symbol id="f" viewBox="0 -272 1000 1000"><path d="M205 214.64 q0 -1 0 -13 q0 -12 0 -17 q0 -5 1 -17 q1 -12 3 -19.5 q2 -7.5 5 -17 q3 -9.5 8 -17 q5 -7.5 12 -13.5 q59 -49 92 0 l0 -100 q-118 -6 -177 44.5 q-59 50.5 -59 151.5 l0 18 l-75 0 l0 98 l75 0 l0 453 l115 0 l1 -261 q1 -38 -3.5 -71.5 q-4.5 -33.5 -15 -77.5 q-10.5 -44 -13.5 -61 l121 0 l31 -80 l-121 0 Z"></path></symbol><symbol id="g" viewBox="0 -272 1000 1000"><path d="M290 -270 q-72 0 -128 34 q-34 20 -77.5 110 q-43.5 90 -43.5 138 q0 87 32 151 q32 64 88.5 98 q56.5 34 128.5 34 q75 0 128 -37 q53 -37 75 -98 q3 48 5 94.5 q2 46.5 -7 89 q-9 42.5 -26 74.5 q-17 32 -51 51 q-34 19 -82 19 q-62 0 -102 -27 q-6 -4 -10.5 -9.5 q-4.5 -5.5 -9 -14.5 q-4.5 -9 -8 -15.5 q-3.5 -6.5 -7 -18 q-3.5 -11.5 -5 -16.5 q-1.5 -5 -5 -18 q-3.5 -13 -4.5 -15 l-113 0 q18 94 89.5 149 q71.5 55 187.5 55 q81 0 140 -34 q59 -34 91 -94 q32 -61 31 -136 l-9 -538 l-105 -19 l0 128 q-22 -61 -75 -98 q-53 -37 -128 -37 ZM158 -160 q21 -23 41 -36.5 q20 -13.5 39.5 -16.5 q19.5 -3 34.5 -3 q15 0 35.5 9.5 q20.5 9.5 33 16 q12.5 6.5 35.5 21.5 q23 15 34 21 q38 23 60 64.5 q22 41.5 22 95.5 q0 55 -22 96 q-22 41 -60 63.5 q-38 22.5 -86 22.5 q-76 0 -121 -48 q-31 -33 -61.5 -84 q-30.5 -51 -30.5 -88 q1 -86 46 -134 Z"></path></symbol><symbol id="h" viewBox="0 -272 1000 1000"><path d="M377 162 q-68 0 -120 34 q-26 17 -60 61 q-34 44 -45 75 l0 -310 l-83 -40 l0 740 l117 18 l-3 -311 q-1 -83 41 -127 q24 -26 67.5 -51 q43.5 -25 74.5 -25 q40 0 68.5 15.5 q28.5 15.5 44 39 q15.5 23.5 22.5 61 q7 37.5 7 72 q0 34.5 -5 82 q-5 47.5 -11 81 q-6 33.5 -14.5 79 q-8.5 45.5 -11.5 66.5 l123 0 l0 -321 q0 -115 -58 -177 q-58 -62 -154 -62 Z"></path></symbol><symbol id="i" viewBox="0 -272 1000 1000"><path d="M126 -30 q-22 0 -38.5 20.5 q-16.5 20.5 -20.5 45.5 q-4 25 11 45.5 q15 20.5 48 20.5 q34 0 49.5 -9.5 q15.5 -9.5 15.5 -37.5 q0 -33 -18 -59 q-18 -26 -47 -26 ZM69 197 l2 581 l112 -30 l2 -528 l-116 -23 Z"></path></symbol><symbol id="j" viewBox="0 -272 1000 1000"><path d="M131 -129.38 q32 0 52.5 -17.5 q20.5 -17.5 20.5 -47.5 q0 -22 -32.5 -36 q-32.5 -14 -40.5 -31 q-2 -3 -22.5 8.5 q-20.5 11.5 -38.5 29.5 q-18 18 -13 29 q11 23 18 34 q7 11 21.5 21 q14.5 10 34.5 10 ZM-29 778.62 l54 0 q164 0 164 -163 l0 -650 l-115 0 q0 7 0 86.5 q0 79.5 1.5 158.5 q1.5 79 4.5 117 q2 19 5 27 q3 8 6.5 8.5 q3.5 0.5 7.5 0 q4 -0.5 7 4 q3 4.5 4 17.5 q8 81 -3 181 q-11 100 -39 125 q-15 15 -48 15 l-39 0 l-10 73 Z"></path></symbol><symbol id="k" viewBox="0 -272 1000 1000"><path d="M522 712 l-220 -304 l214 -247 l-137 0 l-165 245 l-31 -434 l-114 0 l-15 768 l129 -28 l25 -250 l173 250 l141 0 Z"></path></symbol><symbol id="l" viewBox="0 -272 1000 1000"><path d="M69 -31 l0 740 l107 31 l8 -738 l-115 -33 Z"></path></symbol><symbol id="m" viewBox="0 -272 1000 1000"><path d="M880 18.26 q-126 -74 -242 3 q-53 35 -77 97 q-27 -75 -71.5 -110.5 q-44.5 -35.5 -121.5 -21.5 q-4 1 -29.5 5 q-25.5 4 -34 6 q-8.5 2 -24 7.5 q-15.5 5.5 -27.5 13.5 q-49 32 -70 92 l0 -115 l-114 0 l5 569 l148 -18 l0 -293 q0 -64 44.5 -120 q44.5 -56 92.5 -56 q63 0 99 39 q49 55 36 112 q-37 104 -30 318 l114 16 l0 -309 q0 -98 40 -141 q29 -31 57.5 -47.5 q28.5 -16.5 68 -15 q39.5 1.5 82.5 28.5 q20 14 27.5 41.5 q7.5 27.5 8.5 70.5 l4 370 l107 -14 l0 -321 q0 -58 -28.5 -122 q-28.5 -64 -64.5 -85 Z"></path></symbol><symbol id="n" viewBox="0 -272 1000 1000"><path d="M377 -18.34 q-68 0 -120 34 q-52 34 -74 96 l0 -121 l-139 7 l25 544 l111 18 l3 -311 q1 -85 41 -127 q20 -22 36 -34 q16 -12 39.5 -20.5 q23.5 -8.5 53 -3.5 q29.5 5 65.5 24 q32 16 50 50.5 q18 34.5 18 73.5 l0 298 q1 31 13 42 q12 11 26 7.5 q14 -3.5 34.5 -10.5 q20.5 -7 29.5 -7 l0 -321 q0 -115 -58 -177 q-58 -62 -154 -62 Z"></path></symbol><symbol id="o" viewBox="0 -272 1000 1000"><path d="M465 29.13 q-29 -16 -55 -24 q-26 -8 -43 -11 q-17 -3 -41.5 2 q-24.5 5 -35.5 8.5 q-11 3.5 -42.5 16.5 q-31.5 13 -45.5 18 q-31 12 -65 48.5 q-34 36.5 -55 73.5 q-35 62 -37.5 129.5 q-2.5 67.5 33.5 136.5 q36 65 99.5 99 q63.5 34 143.5 34 q80 0 144 -34 q64 -34 100 -98 q36 -64 36 -151 q0 -86 -36 -150 q-36 -64 -100 -98 ZM142 243.13 q4 -54 63 -101.5 q59 -47.5 116 -47.5 q44 0 81 20 q37 20 59.5 61.5 q22.5 41.5 22.5 101.5 q0 61 -22.5 102 q-22.5 41 -59.5 61 q-37 20 -81 20 q-44 0 -81 -20 q-11 -6 -25.5 -18.5 q-14.5 -12.5 -34 -36 q-19.5 -23.5 -30.5 -61 q-11 -37.5 -8 -81.5 Z"></path></symbol><symbol id="p" viewBox="0 -272 1000 1000"><path d="M514 -238 q-65 -34 -129 -34 q-75 0 -128 37 q-53 37 -74 98 l0 -128 l-94 7 l-21 777 l99 39 l16 -400 q21 61 74 98 q62 43 128 37 q53 -5 111.5 -28.5 q58.5 -23.5 93.5 -71.5 q47 -63 51.5 -153 q4.5 -90 -31 -168 q-35.5 -78 -96.5 -110 ZM264 -150 q37 -21 64.5 -33.5 q27.5 -12.5 63.5 -21 q36 -8.5 68.5 2.5 q32.5 11 60.5 40 q46 50 46 134 q0 87 -66.5 153.5 q-66.5 66.5 -150.5 66.5 q-48 0 -86 -22.5 q-38 -22.5 -60 -63.5 q-22 -41 -22 -96 q0 -54 22 -95.5 q22 -41.5 60 -64.5 Z"></path></symbol><symbol id="q" viewBox="0 -272 1000 1000"><path d="M298 -262 q-73 0 -131 35 q-37 23 -68 81 q-31 58 -44.5 104.5 q-13.5 46.5 -13.5 62.5 q0 56 43 139 q43 83 83 107 q59 35 131 35 q69 0 119 -34 q50 -34 76 -94 l0 383 l115 -35 l-1 -778 l-114 0 l0 115 q-25 -57 -75 -89 q-50 -32 -120 -32 ZM205 -113 q47 -49 120 -49 q46 0 84 21.5 q38 21.5 61 62.5 q23 41 23 97 q0 57 -23 98 q-23 41 -61 62.5 q-38 21.5 -84 21.5 q-74 0 -121 -47 q-44 -45 -63.5 -74 q-19.5 -29 -19 -60 q0.5 -31 20 -59.5 q19.5 -28.5 63.5 -73.5 Z"></path></symbol><symbol id="r" viewBox="0 -272 1000 1000"><path d="M263 29.71 q-16 15 -31 29.5 q-15 14.5 -21 20 q-6 5.5 -13 14 q-7 8.5 -15 21.5 l0 -108 l-96 5 l-18 482 q15 4 22.5 13.5 q7.5 9.5 6.5 19.5 q-1 10 -1 19.5 q0 9.5 1 12.5 q1 3 11 -1 l62 0 l12 -279 q4 -87 45 -121 q23 -17 35 -25 q12 -8 30 -13.5 q18 -5.5 37.5 -4 q19.5 1.5 52.5 6.5 l0 -124 q-36 0 -71 9 q-35 9 -49 23 Z"></path></symbol><symbol id="s" viewBox="0 -272 1000 1000"><path d="M477 174.95 q-14 -89 -53.5 -128 q-39.5 -39 -139.5 -52 q-45 -6 -99 6.5 q-54 12.5 -81 35.5 q-23 19 -30 31.5 q-7 12.5 -14 44.5 q-1 5 -2 8 q-7 40 -0.5 68.5 q6.5 28.5 20.5 45.5 q27 32 64.5 46 q37.5 14 97.5 28 q36 8 50 11.5 q14 3.5 34.5 12.5 q20.5 9 34.5 22 q18 17 18 46 q0 41 -38.5 62.5 q-38.5 21.5 -92.5 21.5 q-57 0 -92 -28 q-35 -28 -40 -73 l-68 -8 q13 86 76.5 134 q63.5 48 166.5 48 q89 0 141.5 -43 q52.5 -43 52.5 -112 q0 -56 -27.5 -88.5 q-27.5 -32.5 -66 -47.5 q-38.5 -15 -100.5 -29 q-17 -4 -47 -8 q-30 -4 -49.5 -7.5 q-19.5 -3.5 -40.5 -11.5 q-21 -8 -31.5 -23 q-10.5 -15 -10.5 -38 q0 -35 23.5 -55.5 q23.5 -20.5 66.5 -20.5 q32 0 74 8 q42 8 56 21 q32 27 39 72 l108 0 Z"></path></symbol><symbol id="t" viewBox="0 -272 1000 1000"><path d="M310 632 q-66 0 -93.5 -16 q-27.5 -16 -27.5 -52 q0 -14 10 -52 q10 -38 10 -48 l3 -229 l133 0 l0 -97 l-133 0 l27 -138 l-142 1 l0 137 l-79 0 l0 97 l107 -23 q-14 24 -20.5 62.5 q-6.5 38.5 -7.5 67.5 q-1 29 -0.5 85 q0.5 56 0.5 78 q0 99 45.5 141.5 q45.5 42.5 133.5 42.5 l70 0 l19 -57 l-55 0 Z"></path></symbol><symbol id="u" viewBox="0 -272 1000 1000"><path d="M462 -14 l0 292 q0 84 -41 128 q-33 35 -125 55 q-33 8 -72.5 1 q-39.5 -7 -35.5 -25 q2 -9 -8 -22 q-10 -13 -12 -24 q-4 -3 -1 -48.5 q3 -45.5 3 -48.5 l0 -308 l-118 35 l4 285 q2 117 58 177 q58 62 154 62 q69 0 121 -33.5 q52 -33.5 73 -94.5 l0 134 l115 -14 l1 -540 l-116 -11 Z"></path></symbol><symbol id="v" viewBox="0 -272 1000 1000"><path d="M137 0 l-122 0 l95 250 q152 103 151 301 l102 0 l188 -517 l-100 -34 l-156 433 l-158 -433 Z"></path></symbol><symbol id="w" viewBox="0 -272 1000 1000"><path d="M733 -44 l-105 446 l-140 -446 l-70 0 q-10 63 -76 81 l-116 358 q-15 11 -22 11 q-10 -1 6 -41 l-85 -409 l-125 25 l163 526 l127 -58 l136 -368 l136 470 l126 -44 l153 -551 l-108 0 Z"></path></symbol><symbol id="x" viewBox="0 -272 1000 1000"><path d="M524 522 l-189 -273 l182 -278 l-126 0 l-117 190 l-132 -190 l-129 0 l209 220 l-207 331 l129 29 l156 -268 l95 239 l129 0 Z"></path></symbol><symbol id="y" viewBox="0 -272 1000 1000"><path d="M207 -82 q-10 3 -19 4 q-5 -24 -13 -48.5 q-8 -24.5 -21 -50.5 q-13 -26 -33 -42.5 q-20 -16.5 -44 -18.5 q1 -14 4 -24 l-75 0 l232 538 l-119 275 l139 -30 l165 -402 q-23 1 -27 -36 q-5 -51 21 -94 q28 -49 64 -11 l98 -240 l-127 0 l-153 405 l-92 -225 Z"></path></symbol><symbol id="z" viewBox="0 -272 1000 1000"><path d="M424 88 l-58 -111 l-356 32 l22 84 l261 0 l-201 246 q7 35 -12.5 58.5 q-19.5 23.5 -55.5 25.5 l36 108 l378 40 l-4 -119 l-286 -31 l276 -333 Z"></path></symbol><symbol id="braceleft" viewBox="0 -272 1000 1000"><path d="M144 373 l0 -2 q58 -12 86 -50.5 q28 -38.5 28 -96.5 q0 -30 -10 -88 q-12 -64 -12 -111 q0 -87 38 -146.5 q38 -59.5 91 -85.5 l0 -10 l-108 0 q-24 12 -53 41.5 q-29 29.5 -51.5 81.5 q-22.5 52 -22.5 124 q0 42 12 108 q11 55 11 89 q0 44 -21.5 77 q-21.5 33 -83.5 45 l0 46 q105 21 105 122 q0 34 -11 89 q-12 66 -12 108 q0 72 22.5 124 q22.5 52 51.5 81.5 q29 29.5 53 41.5 l108 0 l0 -10 q-53 -26 -91 -85.5 q-38 -59.5 -38 -146.5 q0 -47 12 -111 q10 -58 10 -88 q0 -58 -28.5 -96.5 q-28.5 -38.5 -85.5 -50.5 Z"></path></symbol><symbol id="bar" viewBox="0 -272 1000 1000"><path d="M169 -113 l-115 0 l0 915 l115 0 l0 -915 Z"></path></symbol><symbol id="braceright" viewBox="0 -272 1000 1000"><path d="M259 371 l0 2 q-58 12 -86 48 q-28 36 -28 90 q0 31 10 87 q4 25 7.5 54 q3.5 29 3.5 58 q0 58 -18.5 107 q-18.5 49 -48 83.5 q-29.5 34.5 -61.5 50.5 l0 10 l108 0 q24 -13 52.5 -42 q28.5 -29 51 -81.5 q22.5 -52.5 22.5 -123.5 q0 -42 -12 -108 q-10 -60 -10 -89 q0 -44 22 -78.5 q22 -34.5 82 -43.5 l0 -46 q-104 -18 -104 -122 q0 -29 10 -89 q12 -66 12 -108 q0 -71 -22.5 -123.5 q-22.5 -52.5 -51 -81.5 q-28.5 -29 -52.5 -42 l-108 0 l0 10 q32 16 61.5 50.5 q29.5 34.5 48 83.5 q18.5 49 18.5 107 q0 29 -3.5 57.5 q-3.5 28.5 -7.5 53.5 q-10 58 -10 88 q0 54 28 90 q28 36 86 48 Z"></path></symbol><symbol id="asciitilde" viewBox="0 -272 1000 1000"><path d="M188 234 q-62 0 -102.5 43 q-40.5 43 -54.5 128 l87 0 q13 -68 63 -68 q18 0 35.5 7.5 q17.5 7.5 41.5 22.5 q30 18 53.5 27.5 q23.5 9.5 52.5 9.5 q62 0 103 -43 q41 -43 55 -128 l-89 0 q-11 68 -62 68 q-18 0 -35 -7.5 q-17 -7.5 -41 -21.5 q-33 -19 -56 -28.5 q-23 -9.5 -51 -9.5 Z"></path></symbol><symbol id="Euro" viewBox="0 -272 1000 1000"><path d="M436 607 q-72 0 -126 -39.5 q-54 -39.5 -78 -109.5 l223 0 l0 -56 l-236 0 q-3 -23 -3 -48 q0 -14 2 -40 l237 0 l0 -57 l-225 0 q22 -74 77.5 -115.5 q55.5 -41.5 128.5 -41.5 q79 0 133.5 37.5 q54.5 37.5 78.5 101.5 l121 0 q-30 -113 -115.5 -179 q-85.5 -66 -215.5 -66 q-127 0 -214.5 71.5 q-87.5 71.5 -114.5 191.5 l-91 0 l0 57 l83 0 q-2 26 -2 40 q0 16 2 48 l-83 0 l0 56 l93 0 q28 117 115 186 q87 69 212 69 q130 0 215.5 -65.5 q85.5 -65.5 115.5 -178.5 l-121 0 q-24 63 -79 100.5 q-55 37.5 -133 37.5 Z"></path></symbol><symbol id="florin" viewBox="0 -272 1000 1000"><path d="M349 -119 l9 -99 q-109 0 -167.5 44 q-58.5 44 -68.5 138 l-4 39 l-67 0 l-9 96 l66 0 l-56 519 q-4 31 -17 43 q-13 12 -40 12 l-32 0 l-9 99 l31 0 q82 0 127.5 -36 q45.5 -36 54.5 -118 l55 -519 l112 0 l9 -96 l-111 0 l4 -39 q4 -43 32.5 -63 q28.5 -20 80.5 -20 Z"></path></symbol><symbol id="ellipsis" viewBox="0 -272 1000 1000"><path d="M14 296 l4 176 l141 -21 l0 -126 l-145 -29 ZM426 296 l4 176 l141 -21 l0 -126 l-145 -29 ZM220 296 l4 176 l141 -21 l0 -126 l-145 -29 Z"></path></symbol><symbol id="dagger" viewBox="0 -272 1000 1000"><path d="M39 551 l196 -8 l-11 240 l114 0 l-11 -240 l196 8 l0 -88 l-196 8 l12 -537 l-114 0 l10 537 l-196 -8 l0 88 Z"></path></symbol><symbol id="perthousand" viewBox="0 -272 1000 1000"><path d="M183 -9 q-67 0 -109.5 41.5 q-42.5 41.5 -42.5 112.5 q0 71 42.5 112 q42.5 41 109.5 41 q67 0 109 -41 q42 -41 42 -112 q0 -71 -42 -112.5 q-42 -41.5 -109 -41.5 ZM495 0 l-400 707 l112 0 l399 -707 l-111 0 ZM109 145 q0 -38 20 -61 q20 -23 53 -23 q33 0 53.5 23 q20.5 23 20.5 61 q0 37 -20.5 60 q-20.5 23 -53.5 23 q-33 0 -53 -22.5 q-20 -22.5 -20 -60.5 ZM519 409 q-66 0 -108.5 41.5 q-42.5 41.5 -42.5 111.5 q0 71 42.5 112.5 q42.5 41.5 108.5 41.5 q67 0 109.5 -41.5 q42.5 -41.5 42.5 -112.5 q0 -71 -42.5 -112 q-42.5 -41 -109.5 -41 ZM861 409 q-67 0 -110 41.5 q-43 41.5 -43 111.5 q0 71 43 112.5 q43 41.5 110 41.5 q66 0 108.5 -41.5 q42.5 -41.5 42.5 -112.5 q0 -70 -42.5 -111.5 q-42.5 -41.5 -108.5 -41.5 ZM446 562 q0 -37 20 -60 q20 -23 53 -23 q33 0 53.5 23 q20.5 23 20.5 60 q0 38 -20.5 61 q-20.5 23 -53.5 23 q-33 0 -53 -23 q-20 -23 -20 -61 ZM787 562 q0 -37 20 -60 q20 -23 53 -23 q33 0 53.5 23 q20.5 23 20.5 60 q0 38 -20.5 61 q-20.5 23 -53.5 23 q-33 0 -53 -23 q-20 -23 -20 -61 Z"></path></symbol><symbol id="quoteleft" viewBox="0 -272 1000 1000"><path d="M39 704 q0 44 15 100 l103 0 l0 -97 l-54 0 l0 -21 q0 -30 11.5 -44.5 q11.5 -14.5 37.5 -14.5 l0 -47 q-55 0 -84 32.5 q-29 32.5 -29 91.5 Z"></path></symbol><symbol id="quoteright" viewBox="0 -272 1000 1000"><path d="M157 680 q0 -53 -14 -100 l-103 0 l0 97 l54 0 l0 21 q0 29 -12 43.5 q-12 14.5 -37 14.5 l0 48 q55 0 83.5 -32 q28.5 -32 28.5 -92 Z"></path></symbol><symbol id="quotedblleft" viewBox="0 -272 1000 1000"><path d="M39 704 q0 44 15 100 l103 0 l0 -97 l-54 0 l0 -21 q0 -30 11.5 -44.5 q11.5 -14.5 37.5 -14.5 l0 -47 q-55 0 -84 32.5 q-29 32.5 -29 91.5 ZM191 704 q0 48 14 100 l103 0 l0 -97 l-54 0 l0 -21 q0 -59 49 -59 l0 -47 q-55 0 -83.5 32.5 q-28.5 32.5 -28.5 91.5 Z"></path></symbol><symbol id="quotedblright" viewBox="0 -272 1000 1000"><path d="M157 680 q0 -53 -14 -100 l-103 0 l0 97 l54 0 l0 21 q0 29 -12 43.5 q-12 14.5 -37 14.5 l0 48 q55 0 83.5 -32 q28.5 -32 28.5 -92 ZM309 680 q0 -45 -15 -100 l-103 0 l0 97 l54 0 l0 21 q0 30 -11.5 44 q-11.5 14 -37.5 14 l0 48 q55 0 84 -32 q29 -32 29 -92 Z"></path></symbol><symbol id="bullet" viewBox="0 -272 1000 1000"><path d="M63 335 q0 55 38 92.5 q38 37.5 93 37.5 q55 0 93 -37.5 q38 -37.5 38 -92.5 q0 -56 -38 -94 q-38 -38 -93 -38 q-55 0 -93 38.5 q-38 38.5 -38 93.5 Z"></path></symbol><symbol id="endash" viewBox="0 -272 1000 1000"><path d="M47 314 l0 96 l535 0 l0 -96 l-535 0 Z"></path></symbol><symbol id="emdash" viewBox="0 -272 1000 1000"><path d="M47 314 l0 96 l751 0 l0 -96 l-751 0 Z"></path></symbol><symbol id="tilde" viewBox="0 -272 1000 1000"><path d="M129 608 q-89 0 -108 117 l61 0 q6 -47 43 -47 q13 0 22.5 4.5 q9.5 4.5 28.5 15.5 q20 13 36.5 20 q16.5 7 37.5 7 q43 0 71.5 -29 q28.5 -29 36.5 -87 l-60 0 q-4 23 -15.5 35 q-11.5 12 -28.5 12 q-14 0 -26.5 -5.5 q-12.5 -5.5 -27.5 -16.5 q-22 -13 -36.5 -19.5 q-14.5 -6.5 -34.5 -6.5 Z"></path></symbol><symbol id="trademark" viewBox="0 -272 1000 1000"><path d="M30 425 l97 0 l0 281 l83 0 l0 -281 l95 0 l0 -70 l-275 0 l0 70 ZM674 355 l-110 255 l-101 -255 l-110 0 l0 351 l74 0 l0 -249 l105 249 l59 0 l105 -241 l2 241 l77 0 l0 -351 l-101 0 Z"></path></symbol><symbol id="yen" viewBox="0 -272 1000 1000"><path d="M615 0 l-130 0 l-162 344 l-162 -344 l-132 0 l163 310 l-127 0 l0 77 l167 0 l33 62 l0 8 l-200 0 l0 78 l200 0 l0 171 l115 0 l0 -171 l200 0 l0 -78 l-200 0 l0 -8 l32 -62 l168 0 l0 -77 l-127 0 l162 -310 Z"></path></symbol><symbol id="brokenbar" viewBox="0 -272 1000 1000"><path d="M896 556.75 q-39 -10 -70 2 q-29 10 -39.5 34 q-10.5 24 1.5 55 q5 11 14 17.5 q9 6.5 19 9 q10 2.5 19 3.5 q9 1 15.5 1 q6.5 0 6.5 0 q6 7 6.5 23 q0.5 16 -6.5 22 q-7 7 -18 8 q-15 2 -27 -6.5 q-12 -8.5 -15 -31.5 l-19 2 l-18 2 q5 35 29.5 53 q24.5 18 54.5 14 q23 -3 40 -18 q18 -18 17.5 -46 q-0.5 -28 -17.5 -44 q-17 -16 -33.5 -19 q-16.5 -3 -22 1 q-5.5 4 -11.5 -3 q-15 -34 17 -46 q21 -8 47 -1 l5 -16 l5 -16 ZM501 699.75 l-112 -143 l-30 0 l0 177 l30 0 l0 -143 l112 143 l31 0 l0 -177 l-31 0 l0 143 ZM202 591.75 q16 -17 36.5 -17 q20.5 0 36 17 q15.5 17 15.5 42 q0 25 -15.5 42 q-15.5 17 -36 17 q-20.5 0 -36.5 -17 q-16 -17 -16 -42 q0 -25 16 -42 ZM175.5 698.25 q25.5 27.5 63 27.5 q37.5 0 63 -27.5 q25.5 -27.5 25.5 -64.5 q0 -37 -25.5 -64.5 q-25.5 -27.5 -63 -27.5 q-37.5 0 -63 27.5 q-25.5 27.5 -25.5 64.5 q0 37 25.5 64.5 ZM19 713.75 l31 0 l0 -67 l81 0 l0 -28 l-81 0 l0 -50 l81 0 l0 -30 l-81 0 l-31 0 l0 30 l0 145 ZM639 751.75 l46 0 l0 -153 l77 0 l0 -36 l-77 0 l-46 0 l-77 0 l0 36 l77 0 l0 153 ZM1207 151.75 q-1 -1 -9 -17.5 q-8 -16.5 -17.5 -31.5 q-9.5 -15 -30.5 -26.5 q-21 -11.5 -48 -7.5 q-30 0 -55 8.5 q-25 8.5 -42.5 20.5 q-17.5 12 -31.5 33.5 q-14 21.5 -23 40 q-9 18.5 -15 47 q-6 28.5 -9 48.5 q-3 20 -4.5 51 q-1.5 31 -1.5 47 q0 16 0 44 q0 12 0 18 q0 146 73 175 q29 11 58.5 4 q29.5 -7 56 -26 q26.5 -19 45.5 -43 q19 -24 28 -47 l-23 -9 l-23 -9 q-14 35 -56.5 64.5 q-42.5 29.5 -67.5 19.5 q-16 -7 -28.5 -36.5 q-12.5 -29.5 -12.5 -92.5 q0 -40 0.5 -61.5 q0.5 -21.5 3 -59 q2.5 -37.5 7 -59 q4.5 -21.5 14.5 -49.5 q10 -28 24 -43 q14 -15 35.5 -25.5 q21.5 -10.5 49.5 -10.5 q17 0 28 6 q11 6 15 13.5 q4 7.5 10.5 23 q6.5 15.5 11.5 24.5 l19 -17 l19 -17 ZM667 460.75 q17 -112 41 -299 q21 73 34 102 q5 9 15.5 12.5 q10.5 3.5 19.5 -1.5 q6 -3 9 -9 l68 -107 l-12 357 l25 1 l25 1 l15 -450 q0 -13 -10 -21 q-9 -7 -20 -4.5 q-11 2.5 -16 11.5 q-4 6 -90 143 q-3 -7 -8.5 -32 q-5.5 -25 -11.5 -47.5 q-6 -22.5 -14.5 -45.5 q-8.5 -23 -21 -34 q-12.5 -11 -27.5 -5 q-13 6 -17 23 q-1 9 -9 71 q-8 62 -20.5 156.5 q-12.5 94.5 -24.5 169.5 l25 4 l25 4 ZM466 117.75 q-16 40 -26.5 88.5 q-10.5 48.5 -18 104.5 q-7.5 56 -11.5 72 l25 5 l25 5 q3 -20 11 -73 q31 -8 76 -9 q-12 75 -20 134 l25 3 l25 3 q10 -80 42 -266 l-25 -4 l-25 -4 q-12 72 -14 84 q-42 -2 -75 4 q14 -81 32 -129 l-23 -9 l-23 -9 ZM386 98.75 q-59 -72 -130 -77 q-74 -6 -123 63 q-49 69 -58 196 q-2 35 18.5 66.5 q20.5 31.5 51 51.5 q30.5 20 61.5 32 q31 12 53 12 q28 0 50 -9 q22 -9 37 -27 q15 -18 23.5 -33 q8.5 -15 17.5 -36 l-23 -10 l-23 -10 q-17 40 -33.5 57.5 q-16.5 17.5 -48.5 17.5 q-33 0 -84.5 -37.5 q-51.5 -37.5 -49.5 -70.5 q8 -115 45 -166 q37 -51 82 -47 q50 3 96 59 l19 -16 l19 -16 Z"></path></symbol><symbol id="section" viewBox="0 -272 1000 1000"><path d="M404 430 q68 -20 101 -61.5 q33 -41.5 33 -94.5 q0 -69 -49.5 -110.5 q-49.5 -41.5 -140.5 -73.5 q-89 -32 -124.5 -59.5 q-35.5 -27.5 -35.5 -66.5 q0 -35 24 -52 q24 -17 66 -17 q53 0 81.5 29.5 q28.5 29.5 31.5 74.5 l113 0 q-9 -86 -68 -136.5 q-59 -50.5 -156 -50.5 q-98 0 -153 43.5 q-55 43.5 -55 113.5 q0 91 107 149 q-69 16 -103 59 q-34 43 -34 97 q0 69 49 111 q49 42 140 73 q90 33 125.5 60 q35.5 27 35.5 65 q0 35 -24 53 q-24 18 -64 18 q-54 0 -82 -28.5 q-28 -28.5 -33 -75.5 l-114 0 q10 85 69.5 135.5 q59.5 50.5 157.5 50.5 q97 0 151.5 -43.5 q54.5 -43.5 54.5 -114.5 q0 -47 -27.5 -84 q-27.5 -37 -76.5 -64 ZM164 274 q0 -44 33 -73.5 q33 -29.5 92 -29.5 q61 0 94.5 28.5 q33.5 28.5 33.5 74.5 q0 44 -33.5 74 q-33.5 30 -92.5 30 q-60 0 -93.5 -28.5 q-33.5 -28.5 -33.5 -75.5 Z"></path></symbol><symbol id="dieresis" viewBox="0 -272 1000 1000"><path d="M753 242 q-1 -27 -24 -44.5 q-23 -17.5 -50.5 -23.5 q-27.5 -6 -57.5 -6 q-12 0 -22 2 q-43 12 -58.5 54 q-15.5 42 -3.5 86 q11 43 45 69 q34 26 82 13 q94 -25 89 -150 ZM674 265 q5 25 -17 29 q-15 2 -21 -15.5 q-6 -17.5 -1.5 -38 q4.5 -20.5 16.5 -27.5 q8 -4 18 -6 q4 -1 9 0 q12 0 28.5 13 q16.5 13 16.5 23 q2 57 -15 84 q-17 27 -52 36 q-34 9 -57.5 -8.5 q-23.5 -17.5 -32.5 -52.5 q-9 -35 2 -65 q11 -30 38 -37 q7 -2 17 -3 q-15 15 -20 45 q-5 30 8.5 56 q13.5 26 45.5 26 q8 0 15 -4 q45 -22 26 -66 l-24 11 ZM145 604 q16 -13 29 -30.5 q13 -17.5 22.5 -25.5 q9.5 -8 24.5 -9 q8 0 15.5 8 q7.5 8 13 18.5 q5.5 10.5 19 20.5 q13.5 10 33.5 13 q22 2 39 -7.5 q17 -9.5 29.5 -21 q12.5 -11.5 21.5 -11.5 q10 0 22 9.5 q12 9.5 29 18.5 q17 9 38 8 q22 -1 38.5 -10 q16.5 -9 25 -19 q8.5 -10 19.5 -18.5 q11 -8.5 24 -8.5 q6 0 12.5 6.5 q6.5 6.5 18 20 q11.5 13.5 18.5 21.5 l11 -11 l11 -11 q-1 -1 -14 -18.5 q-13 -17.5 -27 -28 q-14 -10.5 -30 -9.5 q-22 0 -39 9 q-17 9 -25.5 19 q-8.5 10 -20 18.5 q-11.5 8.5 -24.5 9.5 q-10 1 -21.5 -8.5 q-11.5 -9.5 -28 -19 q-16.5 -9.5 -37.5 -8.5 q-23 1 -39.5 11.5 q-16.5 10.5 -27 20 q-10.5 9.5 -19.5 8.5 q-7 -1 -15.5 -11 q-8.5 -10 -16 -21 q-7.5 -11 -22.5 -20 q-15 -9 -33 -8 q-23 1 -39.5 13.5 q-16.5 12.5 -31 32 q-14.5 19.5 -21.5 25.5 l9 12 l9 12 ZM261 230 q-1 -27 -24 -44.5 q-23 -17.5 -50.5 -23.5 q-27.5 -6 -57.5 -6 q-12 0 -22 2 q-43 12 -58.5 54 q-15.5 42 -3.5 86 q11 43 45 69 q34 26 82 13 q94 -25 89 -150 ZM182 253 q5 25 -17 29 q-15 2 -21 -15.5 q-6 -17.5 -1.5 -38 q4.5 -20.5 16.5 -27.5 q8 -4 18 -6 q4 -1 9 0 q12 0 28.5 13 q16.5 13 16.5 23 q2 57 -15 84 q-17 27 -52 36 q-34 9 -57.5 -8.5 q-23.5 -17.5 -32.5 -52.5 q-9 -35 2 -65 q11 -30 38 -37 q7 -2 17 -3 q-15 15 -20 45 q-5 30 8.5 56 q13.5 26 45.5 26 q8 0 15 -4 q45 -22 26 -66 l-24 11 Z"></path></symbol><symbol id="copyright" viewBox="0 -272 1000 1000"><path d="M394 -2 q102 0 181 45 q79 45 123 126 q44 81 44 184 q0 104 -44 185 q-44 81 -123 126.5 q-79 45.5 -181 45.5 q-102 0 -181 -45.5 q-79 -45.5 -123 -127 q-44 -81.5 -44 -184.5 q0 -103 44 -184 q44 -81 123 -126 q79 -45 181 -45 ZM394 38 q-93 0 -162 39.5 q-69 39.5 -106 111 q-37 71.5 -37 164.5 q0 92 37 164 q37 72 106.5 112.5 q69.5 40.5 161.5 40.5 q92 0 161.5 -40.5 q69.5 -40.5 106.5 -112.5 q37 -72 37 -164 q0 -93 -37 -164.5 q-37 -71.5 -106 -111 q-69 -39.5 -162 -39.5 ZM398 124 q-62 0 -112 27 q-50 27 -79 79 q-29 52 -29 123 q0 72 29 124 q29 52 79 79.5 q50 27.5 112 27.5 q76 0 133.5 -44.5 q57.5 -44.5 73.5 -122.5 l-97 0 q-13 42 -44 65 q-31 23 -71 23 q-53 0 -88.5 -39.5 q-35.5 -39.5 -35.5 -111.5 q0 -73 35.5 -112.5 q35.5 -39.5 88.5 -39.5 q40 0 71 23.5 q31 23.5 44 64.5 l97 0 q-16 -77 -73.5 -121.5 q-57.5 -44.5 -133.5 -44.5 Z"></path></symbol><symbol id="logicalnot" viewBox="0 -272 1000 1000"><path d="M41 208 l0 88 l539 0 l0 139 l114 0 l0 -227 l-653 0 Z"></path></symbol><symbol id="uni00AD" viewBox="0 -272 1000 1000"><path d="M-9 314 l0 96 l412 0 l0 -96 l-412 0 Z"></path></symbol><symbol id="registered" viewBox="0 -272 1000 1000"><path d="M402 -2 q-105 0 -186 44.5 q-81 44.5 -125.5 125.5 q-44.5 81 -44.5 186 q0 103 45 184.5 q45 81.5 126 127 q81 45.5 185 45.5 q104 0 184.5 -45.5 q80.5 -45.5 125 -127 q44.5 -81.5 44.5 -184.5 q0 -105 -44.5 -186 q-44.5 -81 -125 -125.5 q-80.5 -44.5 -184.5 -44.5 ZM402 666 q-95 0 -166 -39 q-71 -39 -109 -109.5 q-38 -70.5 -38 -163.5 q0 -95 38 -166.5 q38 -71.5 109 -110.5 q71 -39 166 -39 q94 0 164.5 39 q70.5 39 108.5 110.5 q38 71.5 38 166.5 q0 93 -38 163.5 q-38 70.5 -108.5 109.5 q-70.5 39 -164.5 39 ZM578 251 q0 -56 -38.5 -91.5 q-38.5 -35.5 -116.5 -35.5 l-162 0 l0 439 l74 0 l0 -184 l51 0 l114 184 l81 0 l-119 -187 q57 -9 86.5 -42 q29.5 -33 29.5 -83 ZM335 191 l81 0 q46 0 66.5 17.5 q20.5 17.5 20.5 51.5 q0 70 -87 70 l-81 0 l0 -139 Z"></path></symbol><symbol id="macron" viewBox="0 -272 1000 1000"><path d="M26 642 l0 78 l366 0 l0 -78 l-366 0 Z"></path></symbol><symbol id="degree" viewBox="0 -272 1000 1000"><path d="M211 347 q-84 0 -134 47.5 q-50 47.5 -50 128.5 q0 81 51.5 130 q51.5 49 134.5 49 q83 0 132.5 -48.5 q49.5 -48.5 49.5 -130.5 q0 -81 -50 -128.5 q-50 -47.5 -134 -47.5 ZM212 410 q41 0 67 30 q26 30 26 84 q0 55 -25.5 84 q-25.5 29 -66.5 29 q-42 0 -69 -29.5 q-27 -29.5 -27 -83.5 q0 -54 26.5 -84 q26.5 -30 68.5 -30 Z"></path></symbol><symbol id="plusminus" viewBox="0 -272 1000 1000"><path d="M541 357 l0 -104 l-200 0 l0 -160 l-111 0 l0 160 l-199 0 l0 104 l199 0 l0 172 l-199 0 l0 104 l510 0 l0 -104 l-200 0 l0 -172 l200 0 Z"></path></symbol><symbol id="acute" viewBox="0 -272 1000 1000"><path d="M247 594 l-221 122 l0 80 l221 -113 l0 -89 Z"></path></symbol><symbol id="mu" viewBox="0 -272 1000 1000"><path d="M486 -262 l0 292 q0 82 -39 124.5 q-39 42.5 -104 42.5 q-68 0 -108.5 -44 q-40.5 -44 -40.5 -128 l0 -287 l-114 0 l0 813 l114 0 l0 -305 q18 27 47 39 q29 12 62 12 q65 0 113.5 -32 q48.5 -32 69.5 -91 l0 115 l115 0 l0 -551 l-115 0 Z"></path></symbol><symbol id="paragraph" viewBox="0 -272 1000 1000"><path d="M545 0 l-287 0 q-117 0 -177 58 q-60 58 -60 149 q0 90 59.5 148 q59.5 58 177.5 58 l15 0 l0 282 l93 0 l0 -608 l85 0 l0 608 l94 0 l0 -695 Z"></path></symbol><symbol id="multiply" viewBox="0 -272 1000 1000"><path d="M491 517 l-157 -157 l151 -151 l-74 -73 l-150 151 l-152 -152 l-77 76 l153 152 l-154 155 l74 73 l154 -154 l156 155 l76 -75 Z"></path></symbol><symbol id="eacute" viewBox="0 -272 1000 1000"><path d="M577 522 q4 -21 4 -49 q0 -72 -32.5 -130.5 q-32.5 -58.5 -93 -92 q-60.5 -33.5 -141.5 -33.5 q-80 0 -142 34 q-31 18 -61.5 57 q-30.5 39 -52.5 92 q-22 53 -19 120.5 q3 67.5 37 129.5 q35 64 96 98 q29 16 94 26.5 q65 10.5 110 10.5 q78 0 131.5 -60.5 q53.5 -60.5 68.5 -141.5 l-122 0 q-9 48 -48.5 77 q-39.5 29 -96.5 29 q-76 0 -105 -39.5 q-29 -39.5 -32 -126.5 l405 -1 ZM466 470 l-308 21 q5 -107 44 -142 q45 -41 112 -41 q42 0 77.5 17.5 q35.5 17.5 56 54 q20.5 36.5 18.5 90.5 ZM425 -10 l-221 122 l0 80 l221 -113 l0 -89 Z"></path></symbol><symbol id="divide" viewBox="0 -272 1000 1000"><path d="M220 77 l0 126 l130 0 l0 -126 l-130 0 ZM31 312 l0 104 l510 0 l0 -104 l-510 0 ZM220 523 l0 125 l130 0 l0 -125 l-130 0 Z"></path></symbol><symbol id="uni30A1" viewBox="0 -272 1000 1000"><path d="M42 466 q52 0 97 -39.5 q45 -39.5 71.5 -95.5 q26.5 -56 36.5 -116 l10 1 q2 0 4 0 q46 0 84 -43 q38 -43 55.5 -92 q17.5 -49 17.5 -82 q0 -29 -31.5 -47 q-31.5 -18 -79 -23 q-47.5 -5 -102.5 -7 q-55 -2 -102 0 q-47 2 -78 -2 l-4 40 l-4 40 q52 5 170 8.5 q118 3.5 148 9.5 q-9 34 -35 74 q-26 40 -39 44 l-5 -1 l0 -38 l-80 0 l0 40 q0 99 -49 171 q-49 72 -85 78 l0 40 l0 40 Z"></path></symbol><symbol id="uni30A2" viewBox="0 -272 1000 1000"><path d="M53 50.32 q99 -36 227.5 -46.5 q128.5 -10.5 289.5 -6.5 q-6 46 -25 113 q-19 67 -44 117 q-53 108 -99 85 q2 -28 1 -55 l-40 1 l-40 1 q4 99 -31 191 q-35 92 -104.5 160.5 q-69.5 68.5 -158.5 91.5 l10 39 l10 39 q133 -35 223 -141.5 q90 -106.5 119 -245.5 q30 9 59 0 q29 -9 51.5 -31 q22.5 -22 39.5 -46 q17 -24 32 -53 q36 -72 57.5 -157 q21.5 -85 21.5 -133 q0 -1 0 -1 l1 -3 q0 -3 -0.5 -9 q-0.5 -6 -1.5 -13 l-38 -29 q-185 -6 -327 3.5 q-142 9.5 -261 52.5 l14 38 l14 38 Z"></path></symbol><symbol id="uni30A3" viewBox="0 -272 1000 1000"><path d="M324 -13 l0 9 q0 35 -35 67 q-35 32 -88.5 54.5 q-53.5 22.5 -102.5 37.5 q-49 15 -92 23 l7 39 l8 40 q115 -22 176 -47 l-3 260 l40 0 l40 1 l4 -301 q126 -76 126 -174 l0 -9 l-40 0 l-40 0 Z"></path></symbol><symbol id="uni30A4" viewBox="0 -272 1000 1000"><path d="M597 -13 l-4 13 q-52 73 -146.5 144.5 q-94.5 71.5 -207.5 119 q-113 47.5 -204 47.5 l-18 0 l0 40 l0 40 l18 0 q135 0 294 -78 q1 49 4 225.5 q3 176.5 5 247.5 l40 -1 l40 -1 q-9 -344 -10 -515 q80 -49 146.5 -108.5 q66.5 -59.5 107.5 -120.5 q3 -4 5 -9 l6 -18 l-38 -13 l-38 -13 Z"></path></symbol><symbol id="uni30A5" viewBox="0 -272 1000 1000"><path d="M192 516 q39 -3 84 -29 q94 -55 175 -183 q81 -129 81 -221 q0 -110 -222 -119 l-1 -64 l-80 0 l1 63 q-64 0 -124 5 l-49 0 q-15 0 -27.5 11.5 q-12.5 11.5 -12.5 27.5 l-3 192 l80 2 l2 -153 l12 0 q2 0 3 0 q58 -5 120 -5 q63 0 117 8.5 q54 8.5 79 17.5 q25 9 25 14 q0 52 -48.5 136 q-48.5 84 -112.5 149 q-64 65 -105 68 q6 80 6 80 Z"></path></symbol><symbol id="uni30A6" viewBox="0 -272 1000 1000"><path d="M588 98 q-6 128 -36 231.5 q-30 103.5 -74.5 172 q-44.5 68.5 -104.5 117.5 q-60 49 -122 74 q-62 25 -131 35 l-40 2 q1 23 16 37.5 q15 14.5 30 18 q15 3.5 28 3.5 q12 -1 29 -3.5 q17 -2.5 20 -2.5 q10 4 20 3 q65 -7 124 -31 q174 -72 262 -283 q74 -180 59 -378 q0 -3 0.5 -16 q0.5 -13 0 -18 q-0.5 -5 -2.5 -14.5 q-2 -9.5 -6 -17 q-4 -7.5 -11 -14.5 q-9 -9 -19 -14 q-10 -5 -16.5 -6 q-6.5 -1 -17.5 -2 q-11 -1 -15 -2 q-77 -13 -195 -13 l0 -71 l-96 0 l0 72 q-156 5 -163 5 q0 0 -67 -3 q-16 0 -29 11.5 q-13 11.5 -13 28.5 l0 174 l80 0 l0 -131 q17 0 29 0 q29 0 127 -3.5 q98 -3.5 176.5 -2 q78.5 1.5 136.5 11.5 q1 0 21 3 q0 8 0 23 q0 1 0 2 q0 1 0 1 Z"></path></symbol><symbol id="uni30A7" viewBox="0 -272 1000 1000"><path d="M417 -19 q-4 0 -107 6 l-154 6 l-119 -3 q0 13 -1 40 q-1 27 -1 40 l120 3 q1 0 3 0 l57 -2 l3 318 l-195 3 q1 13 1 40 q0 27 1 40 l459 -6 q-1 -13 -1 -40 q0 -27 -1 -40 l-184 2 l-3 -320 l19 -1 q12 -1 33.5 -2.5 q21.5 -1.5 38.5 -2.5 q17 -1 31 -1 l51 0 q0 -80 0 -80 l-51 0 Z"></path></symbol><symbol id="uni30FB" viewBox="0 -272 1000 1000"><path d="M37 269 l0 126 l129 0 l0 -126 l-129 0 Z"></path></symbol><symbol id="uni30FC" viewBox="0 -272 1000 1000"><path d="M31 329 l-16 120 l631 -14 l-2 -124 l-613 18 Z"></path></symbol><symbol id="uni3099" viewBox="0 -272 1000 1000"><path d="M219 765 l-49 -160 l-65 0 l62 160 l52 0 ZM133 765 l-59 -160 l-65 0 l72 160 l52 0 Z"></path></symbol><symbol id="uni309A" viewBox="0 -272 1000 1000"><path d="M42.5 658 q-22.5 22 -22.5 56.5 q0 34.5 22.5 56 q22.5 21.5 56.5 21.5 q34 0 56.5 -22 q22.5 -22 22.5 -56 q0 -34 -22.5 -56 q-22.5 -22 -56.5 -22 q-34 0 -56.5 22 ZM99 687 q12 0 19.5 7 q7.5 7 7.5 20 q0 13 -7.5 20.5 q-7.5 7.5 -19.5 7.5 q-12 0 -19.5 -7.5 q-7.5 -7.5 -7.5 -20.5 q0 -27 27 -27 Z"></path></symbol><symbol id="uni3001" viewBox="0 -272 1000 1000"><path d="M285 150 l-192 -204 l-60 63 l156 159 l96 -18 Z"></path></symbol><symbol id="uni3002" viewBox="0 -272 1000 1000"><path d="M126 -16 q-48 0 -79 31 q-31 31 -31 79.5 q0 48.5 31 79 q31 30.5 79 30.5 q48 0 79 -30.5 q31 -30.5 31 -79.5 q0 -48 -31 -79 q-31 -31 -79 -31 ZM126 34 q26 0 42 17 q16 17 16 43 q0 27 -16 43.5 q-16 16.5 -42 16.5 q-26 0 -42 -16.5 q-16 -16.5 -16 -43.5 q0 -27 16 -43.5 q16 -16.5 42 -16.5 Z"></path></symbol><symbol id="uni30A8" viewBox="0 -272 1000 1000"><path d="M42 86.03 q88 -12 159 -14 q71 -2 160 3 l-10 587 q-172 2 -330 14 l3 40 l3 40 q63 -5 127.5 -8 q64.5 -3 151.5 -4.5 q87 -1.5 124.5 -1.5 q37.5 0 151 0 q113.5 0 127.5 0 l12 0 l0 -40 l0 -40 l-12 0 q-24 0 -126.5 0 q-102.5 0 -151.5 0 l10 -583 q22 2 68 4.5 q46 2.5 75 4 q29 1.5 67 5.5 q38 4 67 10 l8 -39 l8 -39 q-334 -67 -702 -19 l5 40 l5 40 Z"></path></symbol><symbol id="uni30A9" viewBox="0 -272 1000 1000"><path d="M88 148 q14 -1 82 2 q68 3 97 3 q-34 59 -111.5 122 q-77.5 63 -144.5 91 l15 37 l16 37 q72 -30 150.5 -90.5 q78.5 -60.5 118.5 -125.5 l3 305 l40 0 l40 0 l-3 -374 q25 0 70.5 0 q45.5 0 58.5 1 l4 -40 l3 -40 q-6 -1 -62 -1 q-56 0 -73 0 l1 -75 l-40 0 l-40 0 l-1 73 q-30 0 -82.5 -2 q-52.5 -2 -90.5 -3 q-38 -1 -55 0 l2 40 l2 40 Z"></path></symbol><symbol id="uni30AA" viewBox="0 -272 1000 1000"><path d="M798 22 l-6 0 q-72 0 -214 -3 q-2 -32 -4 -66 l0 -5 l-40 0 l-40 0 l0 6 q0 1 0 2 q2 32 4 62 q-49 -1 -133.5 -3 q-84.5 -2 -148.5 -3 q-64 -1 -110 -2 l-1 40 l-1 40 q35 1 352 7 q-97 119 -197.5 208.5 q-100.5 89.5 -251.5 198.5 l23 32 l23 32 q149 -106 251.5 -196.5 q102.5 -90.5 199.5 -206.5 q3 97 3 296 q0 199 2 301 l40 -1 l40 -1 q-2 -133 -2 -325.5 q0 -192.5 -6 -334.5 q139 2 211 2 l6 0 l0 -40 l0 -40 Z"></path></symbol><symbol id="uni30AB" viewBox="0 -272 1000 1000"><path d="M188 4.46 q8 46 5 110 q-83 -2 -123 -3 l-1 40 l-1 40 q40 1 119 2 q-16 154 -66 304 q-50 150 -110 211 l28 28 l28 28 q32 -31 61 -80 q29 -49 51.5 -106 q22.5 -57 41 -122 q18.5 -65 31 -131 q12.5 -66 17.5 -130 q160 3 290 0 q9 185 3 291.5 q-6 106.5 -23 149 q-17 42.5 -54 56.5 q-28 -40 -33 -47 l-33 23 l-33 23 q59 83 123 76 q48 -6 86 -66 q39 -61 46.5 -197.5 q7.5 -136.5 -4.5 -351.5 q-1 -15 -13 -26.5 q-12 -11.5 -28 -11.5 q-148 5 -322 1 q2 -69 -6 -123 l-40 6 l-40 6 Z"></path></symbol><symbol id="uni30AC" viewBox="0 -272 1000 1000"><path d="M188 67.46 q8 46 5 110 q-83 -2 -123 -3 l-1 40 l-1 40 q40 1 119 2 q-16 154 -66 304 q-50 150 -110 211 l28 28 l28 28 q32 -31 61 -80 q29 -49 51.5 -106 q22.5 -57 41 -122 q18.5 -65 31 -131 q12.5 -66 17.5 -130 q160 3 290 0 q9 185 3 291.5 q-6 106.5 -23 149 q-17 42.5 -54 56.5 q-28 -40 -33 -47 l-33 23 l-33 23 q59 83 123 76 q48 -6 86 -66 q39 -61 46.5 -197.5 q7.5 -136.5 -4.5 -351.5 q-1 -15 -13 -26.5 q-12 -11.5 -28 -11.5 q-148 5 -322 1 q2 -69 -6 -123 l-40 6 l-40 6 ZM658 152.46 l-49 -160 l-65 0 l62 160 l52 0 ZM572 152.46 l-59 -160 l-65 0 l72 160 l52 0 Z"></path></symbol><symbol id="uni30AD" viewBox="0 -272 1000 1000"><path d="M197 -1 q24 78 54 165 q-103 39 -211 63 l9 39 l9 39 q111 -24 219 -65 q27 75 70 190 q-41 18 -87 36 q-29 10 -104.5 42 q-75.5 32 -146.5 56 l13 38 l13 38 q74 -25 152 -58 q78 -33 101 -42 q46 -17 87 -35 q67 179 99 275 l38 -12 l38 -13 q-34 -101 -102 -285 q27 -14 52.5 -28.5 q25.5 -14.5 56 -34 q30.5 -19.5 49 -31.5 q18.5 -12 58.5 -38.5 q40 -26.5 58 -38.5 l-22 -33 l-22 -33 q-13 8 -67.5 44.5 q-54.5 36.5 -72 47.5 q-17.5 11 -53 32.5 q-35.5 21.5 -66.5 37.5 q-41 -113 -67 -185 q45 -20 215 -100 l-17 -36 l-17 -36 q-166 78 -208 96 q-29 -84 -52 -159 l-38 12 l-38 12 Z"></path></symbol><symbol id="uni30AE" viewBox="0 -272 1000 1000"><path d="M197 59 q24 78 54 165 q-103 39 -211 63 l9 39 l9 39 q111 -24 219 -65 q27 75 70 190 q-41 18 -87 36 q-29 10 -104.5 42 q-75.5 32 -146.5 56 l13 38 l13 38 q74 -25 152 -58 q78 -33 101 -42 q46 -17 87 -35 q67 179 99 275 l38 -12 l38 -13 q-34 -101 -102 -285 q27 -14 52.5 -28.5 q25.5 -14.5 56 -34 q30.5 -19.5 49 -31.5 q18.5 -12 58.5 -38.5 q40 -26.5 58 -38.5 l-22 -33 l-22 -33 q-13 8 -67.5 44.5 q-54.5 36.5 -72 47.5 q-17.5 11 -53 32.5 q-35.5 21.5 -66.5 37.5 q-41 -113 -67 -185 q45 -20 215 -100 l-17 -36 l-17 -36 q-166 78 -208 96 q-29 -84 -52 -159 l-38 12 l-38 12 ZM720 135 l-49 -160 l-64 0 l62 160 l51 0 ZM634 135 l-58 -160 l-66 0 l73 160 l51 0 Z"></path></symbol><symbol id="uni30AF" viewBox="0 -272 1000 1000"><path d="M51 227 q89 -44 159 -119 q253 0 347 3 q43 1 48 11 q0 1 0 12 q0 78 -18 158 q-18 80 -54 153.5 q-36 73.5 -86 131.5 q-50 58 -119 93.5 q-69 35.5 -148 38.5 l-96 28 q2 2 21.5 18.5 q19.5 16.5 34.5 25 q15 8.5 28 8.5 q101 0 187.5 -41.5 q86.5 -41.5 145.5 -109 q59 -67.5 101.5 -153.5 q42.5 -86 62.5 -175.5 q20 -89.5 20 -175.5 q0 -33 -11 -52 q-28 -48 -115 -51 q-98 -3 -287 -3 q0 -1 1 -2 l36 -72 l-36 -18 l-36 -18 l-35 70 q-71 111 -187 167 l18 36 l18 36 Z"></path></symbol><symbol id="uni30B0" viewBox="0 -272 1000 1000"><path d="M51 282 q89 -44 159 -119 q253 0 347 3 q43 1 48 11 q0 1 0 12 q0 78 -18 158 q-18 80 -54 153.5 q-36 73.5 -86 131.5 q-50 58 -119 93.5 q-69 35.5 -148 38.5 l-96 28 q2 2 21.5 18.5 q19.5 16.5 34.5 25 q15 8.5 28 8.5 q101 0 187.5 -41.5 q86.5 -41.5 145.5 -109 q59 -67.5 101.5 -153.5 q42.5 -86 62.5 -175.5 q20 -89.5 20 -175.5 q0 -33 -11 -52 q-28 -48 -115 -51 q-98 -3 -287 -3 q0 -1 1 -2 l36 -72 l-36 -18 l-36 -18 l-35 70 q-71 111 -187 167 l18 36 l18 36 ZM815 27 l-127 -109 l-54 35 l137 102 l44 -28 ZM743 73 l-136 -103 l-55 34 l147 97 l44 -28 Z"></path></symbol><symbol id="uni30B1" viewBox="0 -272 1000 1000"><path d="M172 -91 q-7 79 -52.5 161.5 q-45.5 82.5 -108.5 110.5 l17 37 l16 36 l27 -12 q24 -10 57 -42 q33 -32 49 -56 q139 -7 224 -6 q34 0 123 2 q-4 144 -57 269 q-53 125 -147.5 205.5 q-94.5 80.5 -211.5 91.5 l4 40 l4 40 l96 -9 q2 0 5 -1 q77 -17 145.5 -68.5 q68.5 -51.5 121.5 -131 q53 -79.5 85 -192 q32 -112.5 35 -242.5 q13 0 60.5 0 q47.5 0 60.5 0 l1 -40 l2 -40 q-96 -4 -327 -4 q-103 0 -182 4 q26 -67 33 -146 l-40 -4 l-40 -3 Z"></path></symbol><symbol id="uni30B2" viewBox="0 -272 1000 1000"><path d="M172 -58 q-7 79 -52.5 161.5 q-45.5 82.5 -108.5 110.5 l17 37 l16 36 l27 -12 q24 -10 57 -42 q33 -32 49 -56 q139 -7 224 -6 q34 0 123 2 q-4 144 -57 269 q-53 125 -147.5 205.5 q-94.5 80.5 -211.5 91.5 l4 40 l4 40 l96 -9 q2 0 5 -1 q77 -17 145.5 -68.5 q68.5 -51.5 121.5 -131 q53 -79.5 85 -192 q32 -112.5 35 -242.5 q13 0 60.5 0 q47.5 0 60.5 0 l1 -40 l2 -40 q-96 -4 -327 -4 q-103 0 -182 4 q26 -67 33 -146 l-40 -4 l-40 -3 ZM709 69 l-49 -160 l-64 0 l61 160 l52 0 ZM623 69 l-59 -160 l-65 0 l72 160 l52 0 Z"></path></symbol><symbol id="uni30B3" viewBox="0 -272 1000 1000"><path d="M28 63.69 q73 -8 294.5 1 q221.5 9 315.5 20 q5 49 5.5 108.5 q0.5 59.5 -1 126.5 q-1.5 67 -1.5 82 q0 44 0 67 q-1 140 -13 163 q-7 14 -35 19 q-46 8 -117.5 8.5 q-71.5 0.5 -137.5 -3.5 q-66 -4 -154.5 -8.5 q-88.5 -4.5 -150.5 -3.5 l0 40 l0 40 q60 -1 147 3.5 q87 4.5 153.5 9 q66.5 4.5 143 3.5 q76.5 -1 130.5 -11 q21 -3 38 -11 q55 -23 68 -102 q8 -44 8 -214 q0 -8 2 -87.5 q2 -79.5 0.5 -146 q-1.5 -66.5 -8.5 -122.5 q-6 -48 -94 -61 q-81 -12 -216 -13.5 q-135 -1.5 -236 3 q-101 4.5 -149 9.5 l4 40 l4 40 Z"></path></symbol><symbol id="uni30B4" viewBox="0 -272 1000 1000"><path d="M28 240.82 q62 -6 181.5 -3 q119.5 3 246 10 q126.5 7 182.5 14 q5 49 5.5 108.5 q0.5 59.5 -1 126.5 q-1.5 67 -1.5 82 q0 44 0 67 q-1 140 -13 163 q-7 14 -35 19 q-46 8 -117.5 8.5 q-71.5 0.5 -137.5 -3.5 q-66 -4 -154.5 -8.5 q-88.5 -4.5 -150.5 -3.5 l0 40 l0 40 q60 -1 147 3.5 q87 4.5 153.5 9 q66.5 4.5 143 3.5 q76.5 -1 130.5 -11 q28 -5 48 -14.5 q20 -9.5 32.5 -30.5 q12.5 -21 19.5 -38.5 q7 -17.5 10 -57.5 q3 -40 3.5 -67 q0.5 -27 0.5 -87 q0 -21 0 -32 q0 -8 2 -87.5 q2 -79.5 0.5 -146 q-1.5 -66.5 -8.5 -122.5 q-6 -48 -94 -61 q-81 -12 -216 -13.5 q-135 -1.5 -236 3 q-101 4.5 -149 9.5 l4 40 l4 40 ZM808 64.82 l-139 -94 l-50 41 l148 86 l41 -33 ZM741 118.82 l-147 -87 l-50 41 l156 78 l41 -32 Z"></path></symbol><symbol id="uni30B5" viewBox="0 -272 1000 1000"><path d="M77 -109 l0 6 q0 38 1 77 q-26 0 -51 0 l-9 0 l0 40 l0 40 l9 0 q26 0 54 0 q0 16 1.5 124.5 q1.5 108.5 2.5 126.5 l40 -2 l40 -2 q-1 -18 -2 -123.5 q-1 -105.5 -2 -120.5 q57 2 118 5.5 q61 3.5 144.5 10 q83.5 6.5 121.5 8.5 q3 65 3 104 q0 153 -30 254.5 q-30 101.5 -85 158 q-55 56.5 -144 90.5 l14 37 l14 37 q158 -60 234.5 -198 q76.5 -138 76.5 -379 q0 -40 -3 -99 q55 3 68 4 l3 -40 l3 -40 q-14 -1 -78 -4 q-2 -48 -2 -82 l0 -9 l-40 0 l-40 0 l0 9 q0 33 2 77 q-330 -23 -383 -24 q-1 -41 -1 -80 l0 -6 l-40 0 l-40 0 Z"></path></symbol><symbol id="uni30B6" viewBox="0 -272 1000 1000"><path d="M77 -25 l0 6 q0 38 1 77 q-26 0 -51 0 l-9 0 l0 40 l0 40 l9 0 q26 0 54 0 q0 16 1.5 124.5 q1.5 108.5 2.5 126.5 l40 -2 l40 -2 q-1 -18 -2 -123.5 q-1 -105.5 -2 -120.5 q57 2 118 5.5 q61 3.5 144.5 10 q83.5 6.5 121.5 8.5 q3 65 3 104 q0 153 -30 254.5 q-30 101.5 -85 158 q-55 56.5 -144 90.5 l14 37 l14 37 q158 -60 234.5 -198 q76.5 -138 76.5 -379 q0 -40 -3 -99 q55 3 68 4 l3 -40 l3 -40 q-14 -1 -78 -4 q-2 -48 -2 -82 l0 -9 l-40 0 l-40 0 l0 9 q0 33 2 77 q-330 -23 -383 -24 q-1 -41 -1 -80 l0 -6 l-40 0 l-40 0 ZM805 51 l-49 -160 l-64 0 l61 160 l52 0 ZM719 51 l-59 -160 l-65 0 l72 160 l52 0 Z"></path></symbol><symbol id="uni30B7" viewBox="0 -272 1000 1000"><path d="M398 141.18 q-27 -13 -107.5 -18.5 q-80.5 -5.5 -163.5 -6.5 q-83 -1 -97 -3 l-6 39 l-6 40 q23 3 105.5 6 q82.5 3 156 6.5 q73.5 3.5 83.5 8.5 l17 -36 l18 -36 ZM33 -17.82 q43 2 173 -1 q130 -3 171 3 l5 -40 l5 -39 q-49 -8 -182.5 -4.5 q-133.5 3.5 -166.5 1.5 l-2 40 l-3 40 ZM611 21.18 l0 6 q0 17 -1 34 q-3 93 -22 180 q-19 87 -59.5 169 q-40.5 82 -98.5 142 q-58 60 -145 94.5 q-87 34.5 -194 30.5 l-1 40 l-1 40 q90 3 169 -17.5 q79 -20.5 138.5 -58.5 q59.5 -38 108 -92.5 q48.5 -54.5 81.5 -116.5 q33 -62 56 -132.5 q23 -70.5 34.5 -138.5 q11.5 -68 13.5 -137 q1 -18 1 -37 l0 -6 l-40 0 l-40 0 Z"></path></symbol><symbol id="uni30B8" viewBox="0 -272 1000 1000"><path d="M398 224.62 q-27 -13 -107.5 -18.5 q-80.5 -5.5 -163.5 -6.5 q-83 -1 -97 -3 l-6 39 l-6 40 q23 3 105.5 6 q82.5 3 156 6.5 q73.5 3.5 83.5 8.5 l17 -36 l18 -36 ZM33 65.62 q43 2 173 -1 q130 -3 171 3 l5 -40 l5 -39 q-49 -8 -182.5 -4.5 q-133.5 3.5 -166.5 1.5 l-2 40 l-3 40 ZM611 104.62 l0 6 q0 17 -1 34 q-3 93 -22 180 q-19 87 -59.5 169 q-40.5 82 -98.5 142 q-58 60 -145 94.5 q-87 34.5 -194 30.5 l-1 40 l-1 40 q90 3 169 -17.5 q79 -20.5 138.5 -58.5 q59.5 -38 108 -92.5 q48.5 -54.5 81.5 -116.5 q33 -62 56 -132.5 q23 -70.5 34.5 -138.5 q11.5 -68 13.5 -137 q1 -18 1 -37 l0 -6 l-40 0 l-40 0 ZM675 58.62 l-49 -159 l-65 0 l62 159 l52 0 ZM589 58.62 l-59 -159 l-66 0 l73 159 l52 0 Z"></path></symbol><symbol id="uni30B9" viewBox="0 -272 1000 1000"><path d="M4 756.6 q65 48 220 -76 q112 -89 175 -151 q24 37 59 68.5 q35 31.5 80.5 57 q45.5 25.5 80 42 q34.5 16.5 86.5 38.5 l16 -37 l15 -37 q-215 -89 -280 -192 q173 -198 173 -435 q0 -30 -11 -52 q-11 -22 -26.5 -33 q-15.5 -11 -38 -17.5 q-22.5 -6.5 -39 -8 q-16.5 -1.5 -36.5 -1.5 q-5 0 -14 0 q-9 0 -13 0 l-405 0 l0 80 l405 0 q5 0 14 0 q9 0 13 0 q49 0 60 5 q11 5 11 27 q0 56 -11 108.5 q-11 52.5 -28 96 q-17 43.5 -46.5 88 q-29.5 44.5 -58 79 q-28.5 34.5 -70.5 74.5 q-42 40 -77 69.5 q-35 29.5 -84 68.5 q-27 21 -70 43 q-43 22 -62 25 l-38 70 Z"></path></symbol><symbol id="uni30BA" viewBox="0 -272 1000 1000"><path d="M4 814.48 q17 13 41.5 12.5 q24.5 -0.5 47.5 -9 q23 -8.5 50 -24 q27 -15.5 45 -28 q18 -12.5 36 -27.5 q112 -89 175 -151 q24 37 59 68.5 q35 31.5 80.5 57 q45.5 25.5 80 42 q34.5 16.5 86.5 38.5 l16 -37 l15 -37 q-215 -89 -280 -192 q173 -198 173 -435 q0 -30 -11 -52 q-11 -22 -26.5 -33 q-15.5 -11 -38 -17.5 q-22.5 -6.5 -39 -8 q-16.5 -1.5 -36.5 -1.5 q-5 0 -14 0 q-9 0 -13 0 l-405 0 l0 80 l405 0 q5 0 14 0 q9 0 13 0 q49 0 60 5 q11 5 11 27 q0 56 -11 108.5 q-11 52.5 -28 96 q-17 43.5 -46.5 88 q-29.5 44.5 -58 79 q-28.5 34.5 -70.5 74.5 q-42 40 -77 69.5 q-35 29.5 -84 68.5 q-27 21 -70 43 q-43 22 -62 25 l-38 70 ZM814 83.48 l-49 -160 l-64 0 l61 160 l52 0 ZM728 83.48 l-59 -160 l-65 0 l72 160 l52 0 Z"></path></symbol><symbol id="uni30BB" viewBox="0 -272 1000 1000"><path d="M98 -19 l0 262 q-46 26 -86 51 l21 34 l21 34 q21 -13 44 -27 l0 221 q0 6 0 12 q0 32 6 56 q6 24 16 41.5 q10 17.5 29 29.5 q19 12 39 19 q20 7 52 11 q32 4 62.5 5 q30.5 1 75.5 1 q139 0 244 3 l1 -40 l1 -40 q-105 -3 -246 -3 q-5 0 -15 0 q-139 0 -162 -10 q-23 -10 -23 -70 q0 -2 0 -3 q0 -5 0 -12 l0 -265 q45 -24 162 -82 q117 -58 187 -96 q-10 34 -25 80.5 q-15 46.5 -16 49.5 l-30 114 l39 10 l39 10 q0 -1 13.5 -48 q13.5 -47 29.5 -106 q16 -59 26 -99 q18 -69 13 -96.5 q-5 -27.5 -40 -27.5 q-11 0 -20 5 q-62 36 -127 69.5 q-65 33.5 -139.5 70 q-74.5 36.5 -111.5 55.5 l0 -219 l-40 0 l-40 0 Z"></path></symbol><symbol id="uni30BC" viewBox="0 -272 1000 1000"><path d="M98 143 l0 262 q-46 26 -86 51 l21 34 l21 34 q21 -13 44 -27 l0 221 q0 6 0 12 q0 32 6 56 q6 24 16 41.5 q10 17.5 29 29.5 q19 12 39 19 q20 7 52 11 q32 4 62.5 5 q30.5 1 75.5 1 q139 0 244 3 l1 -40 l1 -40 q-105 -3 -246 -3 q-5 0 -15 0 q-139 0 -162 -10 q-23 -10 -23 -70 q0 -2 0 -3 q0 -5 0 -12 l0 -265 q45 -24 162 -82 q117 -58 187 -96 q-10 34 -25 80.5 q-15 46.5 -16 49.5 l-30 114 l39 10 l39 10 q0 -1 13.5 -48 q13.5 -47 29.5 -106 q16 -59 26 -99 q18 -69 13 -96.5 q-5 -27.5 -40 -27.5 q-11 0 -20 5 q-62 36 -127 69.5 q-65 33.5 -139.5 70 q-74.5 36.5 -111.5 55.5 l0 -219 l-40 0 l-40 0 ZM628 141 l-49 -160 l-64 0 l61 160 l52 0 ZM542 141 l-59 -160 l-65 0 l72 160 l52 0 Z"></path></symbol><symbol id="uni30BD" viewBox="0 -272 1000 1000"><path d="M14 -41 q16 34 34.5 111 q18.5 77 28.5 144 l39 -5 l40 -6 q-27 -187 -69 -278 l-37 17 l-36 17 ZM563 49 q-1 12 -4 48.5 q-3 36.5 -5.5 57 q-2.5 20.5 -6.5 48.5 q-4 28 -10 46 q-18 67 -33 111 q-15 44 -36 88.5 q-21 44.5 -46 76.5 q-25 32 -60 62.5 q-35 30.5 -82 57.5 q-41 24 -68.5 28.5 q-27.5 4.5 -88.5 -0.5 l-3 40 l-3 40 q68 5 111 -2.5 q43 -7.5 92 -35.5 q53 -31 94.5 -68 q41.5 -37 71 -75 q29.5 -38 53.5 -88.5 q24 -50.5 40.5 -98 q16.5 -47.5 35.5 -114.5 q6 -24 11 -55 q5 -31 7.5 -53.5 q2.5 -22.5 5.5 -58 q3 -35.5 4 -47.5 l-40 -4 l-40 -4 Z"></path></symbol><symbol id="uni30BE" viewBox="0 -272 1000 1000"><path d="M14 16 q16 34 34.5 111 q18.5 77 28.5 144 l39 -5 l40 -6 q-27 -187 -69 -278 l-37 17 l-36 17 ZM563 106 q-1 12 -4 48.5 q-3 36.5 -5.5 57 q-2.5 20.5 -6.5 48.5 q-4 28 -10 46 q-18 67 -33 111 q-15 44 -36 88.5 q-21 44.5 -46 76.5 q-25 32 -60 62.5 q-35 30.5 -82 57.5 q-41 24 -68.5 28.5 q-27.5 4.5 -88.5 -0.5 l-3 40 l-3 40 q68 5 111 -2.5 q43 -7.5 92 -35.5 q53 -31 94.5 -68 q41.5 -37 71 -75 q29.5 -38 53.5 -88.5 q24 -50.5 40.5 -98 q16.5 -47.5 35.5 -114.5 q6 -24 11 -55 q5 -31 7.5 -53.5 q2.5 -22.5 5.5 -58 q3 -35.5 4 -47.5 l-40 -4 l-40 -4 ZM633 84 l-49 -159 l-65 0 l62 159 l52 0 ZM547 84 l-59 -159 l-65 0 l72 159 l52 0 Z"></path></symbol><symbol id="uni30BF" viewBox="0 -272 1000 1000"><path d="M240 -116 q-4 7 -16 34 q-12 27 -16.5 36.5 q-4.5 9.5 -17 34 q-12.5 24.5 -19 35.5 q-6.5 11 -19.5 32 q-13 21 -22.5 32.5 q-9.5 11.5 -24 27.5 q-14.5 16 -27.5 25 q-13 9 -29.5 18.5 q-16.5 9.5 -34.5 15.5 l13 38 l13 38 q4 -2 17 -5.5 q13 -3.5 22 -7 q9 -3.5 16 -7.5 q75 -53 136 -153 q86 -2 159 -2 q222 0 242 1 q-6 224 -86 366 q-67 -63 -150 -118 q-83 -55 -164 -91 l-16 36 l-16 36 q76 35 156.5 90 q80.5 55 143.5 115 q-70 87 -160.5 141.5 q-90.5 54.5 -157.5 52.5 q-25 -1 -47 -6 l-10 39 l-9 39 q34 8 73 8 q82 0 183.5 -60 q101.5 -60 181.5 -155 q21 26 36 51 l34 -21 l34 -21 q-22 -37 -56 -76 q52 -83 81 -199.5 q29 -116.5 29 -255.5 l0 -9 q0 -15 -11 -27 q-11 -12 -26 -13 q-35 -3 -81.5 -3.5 q-46.5 -0.5 -120.5 0 q-74 0.5 -83 0.5 q-60 0 -115 1 q10 -21 37 -79 l-36 -17 l-36 -17 Z"></path></symbol><symbol id="uni30C0" viewBox="0 -272 1000 1000"><path d="M240 -55 q-4 7 -16 34 q-12 27 -16.5 36.5 q-4.5 9.5 -17 34 q-12.5 24.5 -19 35.5 q-6.5 11 -19.5 32 q-13 21 -22.5 32.5 q-9.5 11.5 -24 27.5 q-14.5 16 -27.5 25 q-13 9 -29.5 18.5 q-16.5 9.5 -34.5 15.5 l13 38 l13 38 q4 -2 17 -5.5 q13 -3.5 22 -7 q9 -3.5 16 -7.5 q75 -53 136 -153 q86 -2 159 -2 q222 0 242 1 q-6 224 -86 366 q-67 -63 -150 -118 q-83 -55 -164 -91 l-16 36 l-16 36 q76 35 156.5 90 q80.5 55 143.5 115 q-70 87 -160.5 141.5 q-90.5 54.5 -157.5 52.5 q-25 -1 -47 -6 l-10 39 l-9 39 q34 8 73 8 q82 0 183.5 -60 q101.5 -60 181.5 -155 q21 26 36 51 l34 -21 l34 -21 q-22 -37 -56 -76 q52 -83 81 -199.5 q29 -116.5 29 -255.5 l0 -9 q0 -15 -11 -27 q-11 -12 -26 -13 q-35 -3 -81.5 -3.5 q-46.5 -0.5 -120.5 0 q-74 0.5 -83 0.5 q-60 0 -115 1 q10 -21 37 -79 l-36 -17 l-36 -17 ZM855 -8 l-127 -108 l-55 34 l138 102 l44 -28 ZM782 38 l-135 -103 l-55 35 l147 96 l43 -28 Z"></path></symbol><symbol id="uni30C1" viewBox="0 -272 1000 1000"><path d="M687 -105 q-43 34 -98 59.5 q-55 25.5 -104.5 40 q-49.5 14.5 -124 26 q-74.5 11.5 -126.5 16 q-52 4.5 -143 11.5 l3 40 l3 40 q195 -14 281 -28 q1 75 1 80 q0 77 -5 140 l-353 -8 l-1 40 l-1 40 l348 8 q-38 302 -201 302 q-19 0 -29 -9 l-28 28 l-28 28 q32 33 85 33 q241 0 283 -380 l341 8 l1 -40 l1 -40 l-337 -8 q4 -58 4 -142 q0 -21 -0.5 -53.5 q-0.5 -32.5 -0.5 -42.5 q167 -38 279 -127 l-25 -31 l-25 -31 Z"></path></symbol><symbol id="uni30C2" viewBox="0 -272 1000 1000"><path d="M687 9 q-43 34 -98 59.5 q-55 25.5 -104.5 40 q-49.5 14.5 -124 26 q-74.5 11.5 -126.5 16 q-52 4.5 -143 11.5 l3 40 l3 40 q195 -14 281 -28 q1 75 1 80 q0 77 -5 140 l-353 -8 l-1 40 l-1 40 l348 8 q-38 302 -201 302 q-19 0 -29 -9 l-28 28 l-28 28 q32 33 85 33 q241 0 283 -380 l341 8 l1 -40 l1 -40 l-337 -8 q4 -58 4 -142 q0 -21 -0.5 -53.5 q-0.5 -32.5 -0.5 -42.5 q167 -38 279 -127 l-25 -31 l-25 -31 ZM891 54 l-49 -159 l-64 0 l62 159 l51 0 ZM805 54 l-58 -159 l-66 0 l73 159 l51 0 Z"></path></symbol><symbol id="uni30C3" viewBox="0 -272 1000 1000"><path d="M401 52 q0 71 -15 130 q-15 59 -39 100 q-24 41 -58 73 q-34 32 -68 50.5 q-34 18.5 -74 31.5 l-43 9 q3 13 8 39 q5 26 8 39 l45 -9 q58 -12 113 -47.5 q55 -35.5 101 -91.5 q46 -56 74 -140.5 q28 -84.5 28 -183.5 l0 -9 q-80 0 -80 0 l0 9 ZM151 -25 q0 189 0 190 q13 -1 40 -1.5 q27 -0.5 40 -0.5 l0 -188 l-80 0 ZM19 158 l80 0 l3 -186 l-80 0 l-3 186 Z"></path></symbol><symbol id="uni30C4" viewBox="0 -272 1000 1000"><path d="M14 -103 l3 291 l40 0 l40 0 l-3 -291 l-40 0 l-40 0 ZM206 -106 l3 288 l40 0 l40 0 l-3 -288 l-40 0 l-40 0 ZM608 14 l0 6 q0 102 -14.5 185 q-14.5 83 -41.5 142.5 q-27 59.5 -53.5 98.5 q-26.5 39 -62.5 78 q-67 70 -138 101.5 q-71 31.5 -187 41.5 l3 40 l3 40 q127 -11 214.5 -49.5 q87.5 -38.5 162.5 -119.5 q40 -42 70.5 -88 q30.5 -46 60.5 -112.5 q30 -66.5 46.5 -158 q16.5 -91.5 16.5 -199.5 l0 -6 l-40 0 l-40 0 Z"></path></symbol><symbol id="uni30C5" viewBox="0 -272 1000 1000"><path d="M14 -25 l3 291 l40 0 l40 0 l-3 -291 l-40 0 l-40 0 ZM206 -28 l3 288 l40 0 l40 0 l-3 -288 l-40 0 l-40 0 ZM608 92 l0 6 q0 102 -14.5 185 q-14.5 83 -41.5 142.5 q-27 59.5 -53.5 98.5 q-26.5 39 -62.5 78 q-67 70 -138 101.5 q-71 31.5 -187 41.5 l3 40 l3 40 q127 -11 214.5 -49.5 q87.5 -38.5 162.5 -119.5 q40 -42 70.5 -88 q30.5 -46 60.5 -112.5 q30 -66.5 46.5 -158 q16.5 -91.5 16.5 -199.5 l0 -6 l-40 0 l-40 0 ZM682 53 l-49 -159 l-64 0 l61 159 l52 0 ZM596 53 l-59 -159 l-65 0 l72 159 l52 0 Z"></path></symbol><symbol id="uni30C6" viewBox="0 -272 1000 1000"><path d="M522 -105 q-63 0 -179.5 3 q-116.5 3 -163.5 3 l-70 3 l2 40 l2 40 l68 -3 q47 0 163.5 -3 q116.5 -3 177.5 -3 l0 -40 l0 -40 ZM582 186 q-66 0 -260 7 q-194 7 -299 2 l-2 40 l-2 40 q111 5 285 -1 q-3 54 -17.5 119.5 q-14.5 65.5 -37 126.5 q-22.5 61 -55.5 104 q-33 43 -68 48 l2 19 l2 20 l5 40 q54 -6 98 -45.5 q44 -39.5 70.5 -93.5 q26.5 -54 45 -120.5 q18.5 -66.5 26.5 -120.5 q8 -54 10 -100 q125 -5 197 -5 l0 -40 l0 -40 Z"></path></symbol><symbol id="uni30C7" viewBox="0 -272 1000 1000"><path d="M522 18 q-63 0 -179.5 3 q-116.5 3 -163.5 3 l-70 3 l2 40 l2 40 l68 -3 q47 0 163.5 -3 q116.5 -3 177.5 -3 l0 -40 l0 -40 ZM582 309 q-66 0 -260 7 q-194 7 -299 2 l-2 40 l-2 40 q111 5 285 -1 q-3 54 -17.5 119.5 q-14.5 65.5 -37 126.5 q-22.5 61 -55.5 104 q-33 43 -68 48 l2 19 l2 20 l5 40 q54 -6 98 -45.5 q44 -39.5 70.5 -93.5 q26.5 -54 45 -120.5 q18.5 -66.5 26.5 -120.5 q8 -54 10 -100 q125 -5 197 -5 l0 -40 l0 -40 ZM705 55 l-49 -160 l-64 0 l61 160 l52 0 ZM619 55 l-59 -160 l-65 0 l72 160 l52 0 Z"></path></symbol><symbol id="uni30C8" viewBox="0 -272 1000 1000"><path d="M17 -25 q0 84 4.5 352 q4.5 268 1.5 425 l40 1 l40 1 q3 -162 -1 -394 q82 31 271 117 l41 21 l18 -36 l18 -36 l-43 -21 q-3 -2 -49 -23.5 q-46 -21.5 -85.5 -40 q-39.5 -18.5 -90.5 -39 q-51 -20.5 -82 -28.5 q-3 -164 -3 -299 l-40 0 l-40 0 Z"></path></symbol><symbol id="uni30C9" viewBox="0 -272 1000 1000"><path d="M17 -25 q0 84 4.5 352 q4.5 268 1.5 425 l40 1 l40 1 q3 -162 -1 -394 q82 31 271 117 l41 21 l18 -36 l18 -36 l-43 -21 q-3 -2 -49 -23.5 q-46 -21.5 -85.5 -40 q-39.5 -18.5 -90.5 -39 q-51 -20.5 -82 -28.5 q-3 -164 -3 -299 l-40 0 l-40 0 ZM445 138 l-49 -160 l-64 0 l61 160 l52 0 ZM359 138 l-59 -160 l-65 0 l72 160 l52 0 Z"></path></symbol><symbol id="uni30CA" viewBox="0 -272 1000 1000"><path d="M43 747.45 q50 3 101 -10.5 q51 -13.5 97.5 -42.5 q46.5 -29 83 -78 q36.5 -49 53.5 -111 q26 -94 35.5 -166 q9.5 -72 11.5 -198 l319 4 l0 -40 l0 -40 l-319 -4 q4 -73 5 -141 l-40 -1 l-40 -1 q-1 68 -5 142 l-330 -4 l0 40 l0 40 l329 4 q0 186 -43 344 q-17 62 -59.5 106 q-42.5 44 -92.5 62 q-50 18 -101 16 l-3 39 l-2 40 Z"></path></symbol><symbol id="uni30CB" viewBox="0 -272 1000 1000"><path d="M664 630.1 l-311 0 q-64 -2 -170 5 q-106 7 -156 4 l-2 40 l-2 40 q59 3 165.5 -4 q106.5 -7 162.5 -5 l313 0 l0 -40 l0 -40 ZM568 24.1 q-39 0 -66 1.5 q-27 1.5 -53.5 4 q-26.5 2.5 -37.5 3.5 q-41 0 -88.5 -3 q-47.5 -3 -105.5 -8 q-58 -5 -90 -7 l-3 40 l-3 40 q31 2 90 7 q59 5 108 8 q49 3 93 3 q1 0 3 0 q16 -1 41.5 -3.5 q25.5 -2.5 49.5 -4 q24 -1.5 62 -1.5 l0 -40 l0 -40 Z"></path></symbol><symbol id="uni30CC" viewBox="0 -272 1000 1000"><path d="M99 -12 q184 3 469 3 q8 0 16 -1 q8 -1 14.5 -2 q6.5 -1 7.5 -1 q6 16 6 51 q0 139 -124 327 q-164 -159 -375 -222 l-11 38 l-11 38 q198 60 350 211 q-47 61 -94 107 q-47 46 -84 66 q-58 33 -97.5 49.5 q-39.5 16.5 -59 20.5 q-19.5 4 -62.5 9 q-9 2 -15 9 q-6 7 -10.5 21.5 q-4.5 14.5 -6.5 22 q-2 7.5 -6 28.5 q42 -5 61.5 -8.5 q19.5 -3.5 63 -13 q43.5 -9.5 86 -26.5 q42.5 -17 86.5 -42 q91 -52 195 -181 q21 24 59.5 76 q38.5 52 53.5 70 l31 -25 l31 -25 q-12 -15 -56.5 -74.5 q-44.5 -59.5 -70.5 -87.5 q66 -96 106 -196.5 q40 -100.5 40 -191.5 q0 -48 -9.5 -77.5 q-9.5 -29.5 -36.5 -44.5 q-17 -9 -38 -9 q-12 0 -25 2 q-13 2 -15 2 q-14 0 -34.5 2 q-20.5 2 -66.5 1 l-366 -6 l-1 40 l-1 40 Z"></path></symbol><symbol id="uni30CD" viewBox="0 -272 1000 1000"><path d="M70 477 q10 -5 48 -23.5 q38 -18.5 98.5 -48 q60.5 -29.5 112.5 -56.5 q0 16 0 27 l-7 396 l80 1 l7 -395 q0 -17 0 -46 q167 82 329 147 q5 -12 15 -37 q10 -25 15 -37 q-47 -19 -145.5 -67 q-98.5 -48 -145.5 -70 q185 -109 187 -161 q1 -12 -18.5 -29 q-19.5 -17 -25.5 -17 q-101 -4 -210 -5 l-4 -76 q-13 1 -39.5 3 q-26.5 2 -40.5 3 l3 69 q-153 -1 -223 -3 q0 13 -1 40 q-1 27 -1 40 q73 2 207.5 3 q134.5 1 214.5 3 q-65 41 -179.5 103 q-114.5 62 -211.5 112.5 q-97 50.5 -111 58.5 q-4 2 -10 9 l28 28 l2 2 l2 2 l2 2 l3 3 l2 2 q-11 -11 3 3 l14 14 Z"></path></symbol><symbol id="uni30CE" viewBox="0 -272 1000 1000"><path d="M640 -78.79 q-20 131 -79.5 255.5 q-59.5 124.5 -146 224.5 q-86.5 100 -189.5 178.5 q-103 78.5 -215 132.5 q0 3 2.5 19.5 q2.5 16.5 4.5 20.5 q7 14 24 17.5 q17 3.5 33 -2.5 q168 -54 306.5 -179.5 q138.5 -125.5 224.5 -293.5 q86 -168 113 -356 l-78 -17 Z"></path></symbol><symbol id="uni30CF" viewBox="0 -272 1000 1000"><path d="M470 22 q44 39 79 116 q35 77 55.5 171.5 q20.5 94.5 32 183.5 q11.5 89 15.5 179 l40 -5 l40 -5 q-25 -535 -208 -700 l-27 30 l-27 30 ZM216 25 l0 66 q0 95 -9 174.5 q-9 79.5 -31 156.5 q-22 77 -63.5 136.5 q-41.5 59.5 -101.5 95.5 l13 38 l13 38 q51 -25 91 -61 q40 -36 67 -74.5 q27 -38.5 46.5 -89.5 q19.5 -51 30 -95.5 q10.5 -44.5 16 -105 q5.5 -60.5 7 -105.5 q1.5 -45 1.5 -108 l0 -66 l-40 0 l-40 0 Z"></path></symbol><symbol id="uni30D1" viewBox="0 -272 1000 1000"><path d="M470 88 q44 39 79 116 q35 77 55.5 171.5 q20.5 94.5 32 183.5 q11.5 89 15.5 179 l40 -5 l40 -5 q-25 -535 -208 -700 l-27 30 l-27 30 ZM216 91 l0 66 q0 95 -9 174.5 q-9 79.5 -31 156.5 q-22 77 -63.5 136.5 q-41.5 59.5 -101.5 95.5 l13 38 l13 38 q51 -25 91 -61 q40 -36 67 -74.5 q27 -38.5 46.5 -89.5 q19.5 -51 30 -95.5 q10.5 -44.5 16 -105 q5.5 -60.5 7 -105.5 q1.5 -45 1.5 -108 l0 -66 l-40 0 l-40 0 ZM620.5 -16 q-22.5 22 -22.5 56.5 q0 34.5 22.5 56 q22.5 21.5 56.5 21.5 q34 0 56.5 -22 q22.5 -22 22.5 -55 q0 -35 -22.5 -57 q-22.5 -22 -56.5 -22 q-34 0 -56.5 22 ZM677 13 q12 0 19.5 7.5 q7.5 7.5 7.5 20.5 q0 12 -7.5 19.5 q-7.5 7.5 -19.5 7.5 q-12 0 -19.5 -7.5 q-7.5 -7.5 -7.5 -19.5 q0 -28 27 -28 Z"></path></symbol><symbol id="uni30D2" viewBox="0 -272 1000 1000"><path d="M20 -43 q1 42 0.5 202 q-0.5 160 -0.5 202 q0 110 12 218 q5 38 19 65 q14 27 36.5 41.5 q22.5 14.5 47 22.5 q24.5 8 55 9.5 q30.5 1.5 56 1 q25.5 -0.5 54.5 -2 q29 -1.5 46 -0.5 q72 4 178 8.5 q106 4.5 140 6.5 q11 0 29.5 1 q18.5 1 30.5 2 l2 -40 l2 -40 q-11 0 -29.5 -1 q-18.5 -1 -30.5 -2 q-35 -2 -140.5 -6.5 q-105.5 -4.5 -177.5 -8.5 q-45 -3 -81.5 -1.5 q-36.5 1.5 -64 1.5 q-27.5 0 -47 -4 q-19.5 -4 -31 -19 q-11.5 -15 -14.5 -44 q-12 -99 -12 -204 q43 -31 97 -59.5 q54 -28.5 124 -56.5 q70 -28 118 -46 q48 -18 133 -47 q85 -29 113 -39 l-13 -38 l-13 -38 q-26 9 -128.5 44.5 q-102.5 35.5 -156 55.5 q-53.5 20 -135 56 q-81.5 36 -139.5 72 q1 -216 0 -312 l-40 0 l-40 0 Z"></path></symbol><symbol id="uni30D3" viewBox="0 -272 1000 1000"><path d="M20 65 q1 42 0.5 202 q-0.5 160 -0.5 202 q0 110 12 218 q5 38 19 65 q14 27 36.5 41.5 q22.5 14.5 47 22.5 q24.5 8 55 9.5 q30.5 1.5 56 1 q25.5 -0.5 54.5 -2 q29 -1.5 46 -0.5 q72 4 178 8.5 q106 4.5 140 6.5 q11 0 29.5 1 q18.5 1 30.5 2 l2 -40 l2 -40 q-11 0 -29.5 -1 q-18.5 -1 -30.5 -2 q-35 -2 -140.5 -6.5 q-105.5 -4.5 -177.5 -8.5 q-45 -3 -81.5 -1.5 q-36.5 1.5 -64 1.5 q-27.5 0 -47 -4 q-19.5 -4 -31 -19 q-11.5 -15 -14.5 -44 q-12 -99 -12 -204 q43 -31 97 -59.5 q54 -28.5 124 -56.5 q70 -28 118 -46 q48 -18 133 -47 q85 -29 113 -39 l-13 -38 l-13 -38 q-26 9 -128.5 44.5 q-102.5 35.5 -156 55.5 q-53.5 20 -135 56 q-81.5 36 -139.5 72 q1 -215 0 -312 l-40 0 l-40 0 ZM718 117 l-49 -160 l-64 0 l61 160 l52 0 ZM632 117 l-59 -160 l-65 0 l72 160 l52 0 Z"></path></symbol><symbol id="uni30D4" viewBox="0 -272 1000 1000"><path d="M20 53 q1 42 0.5 202 q-0.5 160 -0.5 202 q0 110 12 218 q5 38 19 65 q14 27 36.5 41.5 q22.5 14.5 47 22.5 q24.5 8 55 9.5 q30.5 1.5 56 1 q25.5 -0.5 54.5 -2 q29 -1.5 46 -0.5 q72 4 178 8.5 q106 4.5 140 6.5 q11 0 29.5 1 q18.5 1 30.5 2 l2 -40 l2 -40 q-11 0 -29.5 -1 q-18.5 -1 -30.5 -2 q-35 -2 -140.5 -6.5 q-105.5 -4.5 -177.5 -8.5 q-45 -3 -81.5 -1.5 q-36.5 1.5 -64 1.5 q-27.5 0 -47 -4 q-19.5 -4 -31 -19 q-11.5 -15 -14.5 -44 q-12 -99 -12 -204 q43 -31 97 -59.5 q54 -28.5 124 -56.5 q70 -28 118 -46 q48 -18 133 -47 q85 -29 113 -39 l-13 -38 l-13 -38 q-26 9 -128.5 44.5 q-102.5 35.5 -156 55.5 q-53.5 20 -135 56 q-81.5 36 -139.5 72 q1 -215 0 -312 l-40 0 l-40 0 ZM595.5 -21 q-22.5 22 -22.5 56 q0 34 22.5 56 q22.5 22 56.5 22 q33 0 55.5 -22 q22.5 -22 22.5 -56 q0 -34 -22.5 -56 q-22.5 -22 -56 -22 q-33.5 0 -56 22 ZM652 7 q12 0 19 7.5 q7 7.5 7 20.5 q0 12 -7.5 19.5 q-7.5 7.5 -18.5 7.5 q-13 0 -20 -7 q-7 -7 -7 -20 q0 -28 27 -28 Z"></path></symbol><symbol id="uni30D5" viewBox="0 -272 1000 1000"><path d="M96 723.7 q39 22 70.5 33 q31.5 11 44 12.5 q12.5 1.5 44.5 2.5 q105 4 190 -45 q85 -49 138 -129.5 q53 -80.5 90 -189 q37 -108.5 52.5 -213 q15.5 -104.5 18.5 -212.5 q1 -20 -9 -34.5 q-10 -14.5 -22.5 -21 q-12.5 -6.5 -35.5 -10 q-23 -3.5 -38.5 -3.5 q-15.5 0 -41 1 q-25.5 1 -33.5 1 q-78 0 -255 -7.5 q-177 -7.5 -270 -7.5 l-18 0 l0 40 l0 40 l18 0 q90 0 267 7.5 q177 7.5 258 7.5 l84 0 q4 0 10 0 q-6 113 -26.5 216 q-20.5 103 -56.5 195.5 q-36 92.5 -93.5 162 q-57.5 69.5 -130.5 103.5 q-24 11 -38.5 16.5 q-14.5 5.5 -38 11 q-23.5 5.5 -48.5 3.5 q-25 -2 -54 -11 l-76 31 Z"></path></symbol><symbol id="uni30D6" viewBox="0 -272 1000 1000"><path d="M96 723.7 q39 22 70.5 33 q31.5 11 44 12.5 q12.5 1.5 44.5 2.5 q105 4 190 -45 q85 -49 138 -129.5 q53 -80.5 90 -189 q37 -108.5 52.5 -213 q15.5 -104.5 18.5 -212.5 q1 -20 -9 -34.5 q-10 -14.5 -22.5 -21 q-12.5 -6.5 -35.5 -10 q-23 -3.5 -38.5 -3.5 q-15.5 0 -41 1 q-25.5 1 -33.5 1 q-78 0 -255 -7.5 q-177 -7.5 -270 -7.5 l-18 0 l0 40 l0 40 l18 0 q90 0 267 7.5 q177 7.5 258 7.5 l84 0 q4 0 10 0 q-6 113 -26.5 216 q-20.5 103 -56.5 195.5 q-36 92.5 -93.5 162 q-57.5 69.5 -130.5 103.5 q-24 11 -38.5 16.5 q-14.5 5.5 -38 11 q-23.5 5.5 -48.5 3.5 q-25 -2 -54 -11 l-76 31 ZM800 771.7 l-49 -160 l-64 0 l61 160 l52 0 ZM714 771.7 l-59 -160 l-65 0 l72 160 l52 0 Z"></path></symbol><symbol id="uni30D7" viewBox="0 -272 1000 1000"><path d="M96 723.7 q39 22 70.5 33 q31.5 11 44 12.5 q12.5 1.5 44.5 2.5 q105 4 190 -45 q85 -49 138 -129.5 q53 -80.5 90 -189 q37 -108.5 52.5 -213 q15.5 -104.5 18.5 -212.5 q1 -20 -9 -34.5 q-10 -14.5 -22.5 -21 q-12.5 -6.5 -35.5 -10 q-23 -3.5 -38.5 -3.5 q-15.5 0 -41 1 q-25.5 1 -33.5 1 q-78 0 -255 -7.5 q-177 -7.5 -270 -7.5 l-18 0 l0 40 l0 40 l18 0 q90 0 267 7.5 q177 7.5 258 7.5 l84 0 q4 0 10 0 q-6 113 -26.5 216 q-20.5 103 -56.5 195.5 q-36 92.5 -93.5 162 q-57.5 69.5 -130.5 103.5 q-24 11 -38.5 16.5 q-14.5 5.5 -38 11 q-23.5 5.5 -48.5 3.5 q-25 -2 -54 -11 l-76 31 ZM594.5 630.7 q-22.5 22 -22.5 56 q0 34 22.5 56 q22.5 22 56.5 22 q33 0 55.5 -22 q22.5 -22 22.5 -56 q0 -34 -22.5 -56 q-22.5 -22 -56 -22 q-33.5 0 -56 22 ZM651 658.7 q12 0 19 7.5 q7 7.5 7 20.5 q0 13 -7.5 20 q-7.5 7 -18.5 7 q-13 0 -20 -7 q-7 -7 -7 -20 q0 -28 27 -28 Z"></path></symbol><symbol id="uni30D8" viewBox="0 -272 1000 1000"><path d="M83 370 q16 -30 36 -74 q20 -44 28 -59 q10 -21 36.5 -63.5 q26.5 -42.5 41.5 -56.5 q34 14 104 100 q70 86 135 183 q65 97 137 203 q72 106 99 141 l11 16 l33 -22 l33 -22 l-12 -18 q-1 -2 -2 -3 q-17 -22 -57.5 -84.5 q-40.5 -62.5 -84.5 -133 q-44 -70.5 -100.5 -151 q-56.5 -80.5 -107.5 -144 q-51 -63.5 -103.5 -105.5 q-52.5 -42 -90.5 -42 q-16 0 -31.5 8 q-15.5 8 -29 22 q-13.5 14 -25 29.5 q-11.5 15.5 -22 34 q-10.5 18.5 -17 31.5 q-6.5 13 -12.5 26.5 q-6 13.5 -7 14.5 q-9 19 -28.5 62 q-19.5 43 -33.5 69 l35 19 l35 19 Z"></path></symbol><symbol id="uni30D9" viewBox="0 -272 1000 1000"><path d="M83 370 q16 -30 36 -74 q20 -44 28 -59 q10 -21 36.5 -63.5 q26.5 -42.5 41.5 -56.5 q34 14 104 100 q70 86 135 183 q65 97 137 203 q72 106 99 141 l11 16 l33 -22 l33 -22 l-12 -18 q-1 -2 -2 -3 q-17 -22 -57.5 -84.5 q-40.5 -62.5 -84.5 -133 q-44 -70.5 -100.5 -151 q-56.5 -80.5 -107.5 -144 q-51 -63.5 -103.5 -105.5 q-52.5 -42 -90.5 -42 q-16 0 -31.5 8 q-15.5 8 -29 22 q-13.5 14 -25 29.5 q-11.5 15.5 -22 34 q-10.5 18.5 -17 31.5 q-6.5 13 -12.5 26.5 q-6 13.5 -7 14.5 q-9 19 -28.5 62 q-19.5 43 -33.5 69 l35 19 l35 19 ZM727 193 l-93 -139 l-62 18 l106 135 l49 -14 ZM645 217 l-102 -136 l-63 19 l115 132 l50 -15 Z"></path></symbol><symbol id="uni30DA" viewBox="0 -272 1000 1000"><path d="M83 370 q16 -30 36 -74 q20 -44 28 -59 q10 -21 36.5 -63.5 q26.5 -42.5 41.5 -56.5 q34 14 104 100 q70 86 135 183 q65 97 137 203 q72 106 99 141 l11 16 l33 -22 l33 -22 l-12 -18 q-1 -2 -2 -3 q-17 -22 -57.5 -84.5 q-40.5 -62.5 -84.5 -133 q-44 -70.5 -100.5 -151 q-56.5 -80.5 -107.5 -144 q-51 -63.5 -103.5 -105.5 q-52.5 -42 -90.5 -42 q-16 0 -31.5 8 q-15.5 8 -29 22 q-13.5 14 -25 29.5 q-11.5 15.5 -22 34 q-10.5 18.5 -17 31.5 q-6.5 13 -12.5 26.5 q-6 13.5 -7 14.5 q-9 19 -28.5 62 q-19.5 43 -33.5 69 l35 19 l35 19 ZM550.5 89 q-22.5 22 -22.5 56 q0 34 22.5 56 q22.5 22 56.5 22 q33 0 55.5 -22 q22.5 -22 22.5 -56 q0 -34 -22.5 -56 q-22.5 -22 -56 -22 q-33.5 0 -56 22 ZM607 117 q12 0 19 7.5 q7 7.5 7 20.5 q0 13 -7.5 20 q-7.5 7 -18.5 7 q-13 0 -20 -7 q-7 -7 -7 -20 q0 -28 27 -28 Z"></path></symbol><symbol id="uni30DB" viewBox="0 -272 1000 1000"><path d="M729 21 q-22 0 -131 0 q-109 0 -133 0 q0 -34 0 -65 l-40 0 l-40 0 q0 31 0 66 q-18 0 -60 1.5 q-42 1.5 -64.5 2 q-22.5 0.5 -56.5 -0.5 q-34 -1 -63 -4 l-4 40 l-4 40 q32 3 69 4 q37 1 59 0.5 q22 -0.5 66.5 -2 q44.5 -1.5 58.5 -1.5 q2 514 5 662 l40 -1 l40 -1 q-3 -146 -5 -661 q29 0 86 2.5 q57 2.5 103 2 q46 -0.5 84 -4.5 l-5 -40 l-5 -40 ZM292 150 q-132 137 -276 264 l26 30 l27 30 q146 -129 281 -269 l-29 -28 l-29 -27 ZM511 216 q71 51 146 131 q75 80 127 171 l35 -19 l35 -20 q-57 -101 -137.5 -186.5 q-80.5 -85.5 -159.5 -141.5 l-23 33 l-23 32 Z"></path></symbol><symbol id="uni30DC" viewBox="0 -272 1000 1000"><path d="M729 150 q-22 0 -131 0 q-109 0 -133 0 q0 -34 0 -65 l-40 0 l-40 0 q0 31 0 66 q-18 0 -60 1.5 q-42 1.5 -64.5 2 q-22.5 0.5 -56.5 -0.5 q-34 -1 -63 -4 l-4 40 l-4 40 q32 3 69 4 q37 1 59 0.5 q22 -0.5 66.5 -2 q44.5 -1.5 58.5 -1.5 q2 514 5 662 l40 -1 l40 -1 q-3 -146 -5 -661 q29 0 86 2.5 q57 2.5 103 2 q46 -0.5 84 -4.5 l-5 -40 l-5 -40 ZM292 279 q-132 137 -276 264 l26 30 l27 30 q146 -129 281 -269 l-29 -28 l-29 -27 ZM511 345 q71 51 146 131 q75 80 127 171 l35 -19 l35 -20 q-57 -101 -137.5 -186.5 q-80.5 -85.5 -159.5 -141.5 l-23 33 l-23 32 ZM795 115 l-49 -159 l-64 0 l61 159 l52 0 ZM709 115 l-59 -159 l-65 0 l72 159 l52 0 Z"></path></symbol><symbol id="uni30DD" viewBox="0 -272 1000 1000"><path d="M729 141 q-22 0 -131 0 q-109 0 -133 0 q0 -34 0 -65 l-40 0 l-40 0 q0 31 0 66 q-18 0 -60 1.5 q-42 1.5 -64.5 2 q-22.5 0.5 -56.5 -0.5 q-34 -1 -63 -4 l-4 40 l-4 40 q32 3 69 4 q37 1 59 0.5 q22 -0.5 66.5 -2 q44.5 -1.5 58.5 -1.5 q2 514 5 662 l40 -1 l40 -1 q-3 -146 -5 -661 q29 0 86 2.5 q57 2.5 103 2 q46 -0.5 84 -4.5 l-5 -40 l-5 -40 ZM292 270 q-132 137 -276 264 l26 30 l27 30 q146 -129 281 -269 l-29 -28 l-29 -27 ZM511 336 q71 51 146 131 q75 80 127 171 l35 -19 l35 -20 q-57 -101 -137.5 -186.5 q-80.5 -85.5 -159.5 -141.5 l-23 33 l-23 32 ZM705.5 -22 q-22.5 22 -22.5 56 q0 34 22.5 56 q22.5 22 56.5 22 q33 0 55.5 -22 q22.5 -22 22.5 -56 q0 -34 -22.5 -56 q-22.5 -22 -56 -22 q-33.5 0 -56 22 ZM762 6 q12 0 19 7.5 q7 7.5 7 20.5 q0 12 -7.5 19.5 q-7.5 7.5 -18.5 7.5 q-13 0 -20 -7 q-7 -7 -7 -20 q0 -28 27 -28 Z"></path></symbol><symbol id="uni30DE" viewBox="0 -272 1000 1000"><path d="M21 45 q113 9 228.5 12 q115.5 3 206.5 2.5 q91 -0.5 213 0.5 q52 0 64 12 q1 1 -0.5 9 q-1.5 8 -8 24 q-6.5 16 -16.5 34 q-47 87 -138.5 181.5 q-91.5 94.5 -188.5 168.5 q-93 -85 -164 -153 l-28 29 l-28 29 q59 56 184.5 171 q125.5 115 223.5 212 l28 -28 l28 -28 q-93 -94 -184 -177 q102 -78 194 -174.5 q92 -96.5 144 -192.5 q1 -2 4 -7 q10 -19 15.5 -30.5 q5.5 -11.5 12 -31.5 q6.5 -20 4.5 -38.5 q-2 -18.5 -12 -36.5 q-12 -21 -36 -34 q-34 -19 -98 -19 q-443 -4 -636 -15 l-6 40 l-6 40 Z"></path></symbol><symbol id="uni30DF" viewBox="0 -272 1000 1000"><path d="M15 478 q153 35 333.5 122.5 q180.5 87.5 272.5 173.5 l27 -30 l27 -29 q-100 -93 -288.5 -185 q-188.5 -92 -353.5 -130 l-9 39 l-9 39 ZM158 250 q130 24 239 78 q109 54 167 137 l33 -23 l33 -23 q-37 -53 -90.5 -96 q-53.5 -43 -115.5 -72 q-62 -29 -123.5 -48 q-61.5 -19 -128.5 -31 l-7 39 l-7 39 ZM80 -11 q418 73 592 275 l30 -26 l30 -26 q-57 -67 -133 -119.5 q-76 -52.5 -162.5 -87 q-86.5 -34.5 -167.5 -56.5 q-81 -22 -175 -38 l-7 39 l-7 39 Z"></path></symbol><symbol id="uni30E0" viewBox="0 -272 1000 1000"><path d="M315 -60.23 q-161 331 -290 698 q-16 44 1 79 q15 31 46 43 q31 12 65.5 6.5 q34.5 -5.5 69.5 -22.5 q44 -22 114.5 -53.5 q70.5 -31.5 123.5 -54 q53 -22.5 123.5 -52.5 q70.5 -30 83.5 -35 q94 118 152 185 l30 -26 l30 -26 q-55 -66 -154.5 -190 q-99.5 -124 -157.5 -191 l-30 26 l-30 26 q47 56 108 131 q-328 139 -429 188 q-26 13 -44.5 15 q-18.5 2 -22.5 0 q-4 -2 -6 -4 q-2 -6 2 -19 q128 -362 287 -688 l-36 -18 l-36 -18 Z"></path></symbol><symbol id="uni30E1" viewBox="0 -272 1000 1000"><path d="M239 240.2 q114 74 187 131 q-129 160 -346 319 l-59 47 l45 36 q8 6 20 4.5 q12 -1.5 21 -8.5 q250 -180 383 -344 q84 75 140 155 l33 -23 l33 -23 q-64 -90 -158 -174 q61 -88 94 -204 q33 -116 25 -221 l-80 6 q7 86 -21.5 187.5 q-28.5 101.5 -81.5 178.5 q-74 -58 -191 -135 l-22 34 l-22 34 Z"></path></symbol><symbol id="uni30E2" viewBox="0 -272 1000 1000"><path d="M102 54.77 q66 1 159 -1 q3 80 -3 236 q-198 -5 -239 -6 l-1 40 l-1 40 q43 1 239 6 q-4 137 1 229 q0 7 1 14 q8 75 57.5 119.5 q49.5 44.5 134.5 35.5 l298 -8 l-1 -40 l-1 -40 l-300 8 q-2 0 -4 0 q-53 6 -76 -13.5 q-23 -19.5 -28 -68.5 q-1 -6 -1 -11 q-5 -87 -1 -223 q242 6 417 19 l3 -40 l3 -40 q-177 -13 -420 -19 q5 -154 2 -240 q167 -2 325 9 l3 -40 l3 -40 q-115 -8 -208 -9 q-93 -1 -194 1.5 q-101 2.5 -168 1.5 l0 40 l0 40 Z"></path></symbol><symbol id="uni30E3" viewBox="0 -272 1000 1000"><path d="M294 439 q-41 -81 -109 -291 q73 -47 152 -79 q-29 70 -51 111 l35 19 l35 19 q26 -48 86 -193 l0 -15 q0 -15 -10 -30.5 q-10 -15.5 -30 -15.5 q-6 0 -11 2 q-121 36 -231 104 q-25 -78 -32 -99 l-38 12 l-38 12 q4 12 38 122 q-43 32 -81 68 l27 29 l27 29 q26 -23 53 -46 q63 193 107 278 l35 -18 l36 -18 Z"></path></symbol><symbol id="uni30E4" viewBox="0 -272 1000 1000"><path d="M523 45.01 q-17 110 -95 269 l78 66 q27 -56 55.5 -151.5 q28.5 -95.5 41.5 -182.5 q8 -50 -31 -81 q-22 -17 -53 -18 q-107 -1 -335 186 q-34 -61 -52 -94 l-35 19 l-35 19 q17 31 59 109 q-31 27 -49 44 q-18 17 -35 35.5 q-17 18.5 -28 28.5 l29 29 l28 28 q6 -6 17 -17.5 q11 -11.5 15 -15 q4 -3.5 14 -12.5 q10 -9 21.5 -19 q11.5 -10 29.5 -25 q176 325 244 520 l38 -13 l38 -13 q-44 -126 -107 -255.5 q-63 -129.5 -150 -290.5 q104 -82 185.5 -134.5 q81.5 -52.5 109.5 -47.5 q4 8 2 17 Z"></path></symbol><symbol id="uni30E5" viewBox="0 -272 1000 1000"><path d="M93 87.29 q6 0 12.5 -0.5 q6.5 -0.5 7.5 0.5 q52 4 166 -7.5 q114 -11.5 144 -10.5 q0 5 -2 12 q-24 84 -165 369 l-238 -1 l0 40 l0 40 l546 3 l0 -40 l0 -40 l-219 -1 q127 -258 152 -348 q18 -63 -21 -96 q-12 -11 -28 -15 q-8 -3 -17 -3 q-46 -2 -159 10 q-113 12 -151 8 q-2 0 -28 0 l0 40 l0 40 Z"></path></symbol><symbol id="uni30E6" viewBox="0 -272 1000 1000"><path d="M99 72.53 q472 -9 608 11 q-4 16 -19 44 q-251 456 -335 567 l-340 -1 l-1 40 l-1 40 l820 12 l1 -40 l1 -40 l-384 -9 q41 -61 105 -170.5 q64 -109.5 109 -190 q45 -80.5 95 -170.5 q15 -27 22.5 -45 q7.5 -18 7.5 -42.5 q0 -24.5 -13 -42.5 q-9 -13 -24 -21 q-30 -17 -99 -25 q-69 -8 -173 -7.5 q-104 0.5 -169 2.5 q-65 2 -169 7 q-21 1 -30 1 l-6 40 l-6 40 Z"></path></symbol><symbol id="uni30E7" viewBox="0 -272 1000 1000"><path d="M8 50.63 q25 3 103 6 q78 3 162 7.5 q84 4.5 133 11.5 q4 0 12 12 q8 12 10 23 q-4 70 -6 113 q-19 1 -101.5 3 q-82.5 2 -137.5 3 q-30 0 -73.5 -1.5 q-43.5 -1.5 -60.5 -1.5 l-1 40 l-1 40 q15 0 60 1.5 q45 1.5 76 1.5 q42 0 79.5 -1 q37.5 -1 81.5 -2.5 q44 -1.5 74 -1.5 q-1 26 -2 60 q0 4 0 12 q-1 28 -1.5 39 q-0.5 11 -5 25.5 q-4.5 14.5 -8 18 q-3.5 3.5 -17 8.5 q-13.5 5 -26 5.5 q-12.5 0.5 -39.5 2.5 q-124 8 -305 -3 l-2 40 l-2 40 q185 11 313 3 q50 -3 82.5 -15.5 q32.5 -12.5 52 -37 q19.5 -24.5 28 -56.5 q8.5 -32 10.5 -80 q4 -118 12 -254 q0 -10 -3.5 -25.5 q-3.5 -15.5 -12 -36 q-8.5 -20.5 -28.5 -36 q-20 -15.5 -48 -19.5 q-69 -9 -227 -16 q-158 -7 -173 -8 l-4 39 l-4 40 Z"></path></symbol><symbol id="uni30E8" viewBox="0 -272 1000 1000"><path d="M27 731.58 q21 1 61.5 4 q40.5 3 74 4.5 q33.5 1.5 64.5 1.5 l66 0 q36 0 111 2 q75 2 113 2 q78 0 121.5 -17.5 q43.5 -17.5 61 -54.5 q17.5 -37 20 -94 q2.5 -57 0 -135.5 q-2.5 -78.5 1.5 -180.5 q4 -60 1.5 -107 q-2.5 -47 -14.5 -81.5 q-12 -34.5 -43.5 -55.5 q-31.5 -21 -86.5 -29 q-46 -6 -122 -6.5 q-76 -0.5 -141 2 q-65 2.5 -158.5 7.5 q-93.5 5 -136.5 6 l1 40 l1 40 q44 -1 138 -5.5 q94 -4.5 158 -7 q64 -2.5 136.5 -2.5 q72.5 0 113.5 6 q14 2 22 3 q8 1 17 4 q9 3 14 4.5 q5 1.5 10 7.5 q5 6 7 9 q2 3 4 14.5 q2 11.5 2.5 17.5 q0.5 6 0.5 23.5 q0 17.5 -0.5 28.5 q-0.5 11 -1.5 37 q-1 26 -2 40 q-1 28 -2 55 q-39 0 -136 4.5 q-97 4.5 -134 4.5 q-1 0 -176 -3 l-135 -3 l-1 40 l-1 40 l135 3 q177 3 178 3 q41 0 138 -4.5 q97 -4.5 132 -4.5 q0 37 1 77.5 q1 40.5 3 62 q2 21.5 1 46 q-1 24.5 -1.5 35 q-0.5 10.5 -7.5 22.5 q-7 12 -13.5 16 q-6.5 4 -23.5 7.5 q-17 3.5 -33.5 4 q-16.5 0.5 -47.5 0.5 q-36 0 -111 -2 q-75 -2 -113 -2 l-66 0 q-29 0 -61 -1.5 q-32 -1.5 -72 -4.5 q-40 -3 -63 -4 l-2 40 l-2 40 Z"></path></symbol><symbol id="uni30E9" viewBox="0 -272 1000 1000"><path d="M258 736 q45 6 66.5 9 q21.5 3 58.5 3 q37 0 66 -6 q105 -24 175.5 -108 q70.5 -84 102.5 -200 q22 -78 25 -159 q1 -36 -22.5 -46 q-23.5 -10 -93.5 -13 q-124 -6 -326 -2 q-125 2 -293 -10 l-6 80 q174 13 299 10 q260 4 304 4 q43 0 57 1 q-11 135 -72 235.5 q-61 100.5 -162 127.5 q-10 3 -21 4.5 q-11 1.5 -20 2 q-9 0.5 -22 0 q-13 -0.5 -20 -1 q-7 -0.5 -21.5 -2 q-14.5 -1.5 -20.5 -2.5 q-6 -1 -22 -3.5 q-16 -2.5 -20 -3.5 q-6 40 -12 80 ZM117 28 q18 1 115 4 q97 3 136.5 4 q39.5 1 138 3 q98.5 2 118.5 -1 l-1 -40 l-1 -40 q-17 3 -115.5 1 q-98.5 -2 -136.5 -3 q-38 -1 -136 -4 q-98 -3 -116 -4 l-1 40 l-1 40 Z"></path></symbol><symbol id="uni30EA" viewBox="0 -272 1000 1000"><path d="M22 -99 l3 342 l40 0 l40 0 l-3 -342 l-40 0 l-40 0 ZM385 -90 l0 9 q0 88 1.5 216.5 q1.5 128.5 1.5 215.5 q0 1 0 3 q0 2 0 2 q-5 67 -36.5 135.5 q-31.5 68.5 -81.5 118.5 q-50 50 -103 59 l7 39 l7 40 q92 -16 158 -77.5 q66 -61.5 97.5 -152.5 q31.5 -91 31.5 -203 q0 -68 -1.5 -189 q-1.5 -121 -1.5 -207 l0 -9 l-40 0 l-40 0 Z"></path></symbol><symbol id="uni30EB" viewBox="0 -272 1000 1000"><path d="M465 -82 l-11 778 q0 21 16 32 q16 11 32 8 q155 -30 244.5 -159 q89.5 -129 102.5 -365 l-40 -2 l-40 -2 q-7 132 -39.5 224.5 q-32.5 92.5 -80 141 q-47.5 48.5 -114.5 71.5 l10 -726 l-40 -1 l-40 0 ZM223 -88 l0 6 q0 101 -4.5 186.5 q-4.5 85.5 -18 182 q-13.5 96.5 -36.5 173 q-23 76.5 -61.5 148 q-38.5 71.5 -90.5 119.5 l27 29 l27 29 q61 -56 105.5 -136.5 q44.5 -80.5 69 -163 q24.5 -82.5 39.5 -187 q15 -104.5 19 -190 q4 -85.5 4 -190.5 l0 -6 l-40 0 l-40 0 Z"></path></symbol><symbol id="uni30EC" viewBox="0 -272 1000 1000"><path d="M20 -40.3 l0 781 q0 19 15 30.5 q15 11.5 30 9.5 q56 -8 98 -16.5 q42 -8.5 95 -25.5 q53 -17 92.5 -39 q39.5 -22 83 -59 q43.5 -37 75.5 -84 q32 -47 60 -114.5 q28 -67.5 46 -150.5 l-39 -8 l-39 -8 q-15 69 -36.5 125.5 q-21.5 56.5 -46 97 q-24.5 40.5 -57.5 71.5 q-33 31 -64 51 q-31 20 -72.5 35 q-41.5 15 -77 23 q-35.5 8 -83.5 16 l0 -735 l-40 0 l-40 0 Z"></path></symbol><symbol id="uni30ED" viewBox="0 -272 1000 1000"><path d="M296 734.87 q22 -1 72.5 3 q50.5 4 98.5 8 q48 4 104.5 0.5 q56.5 -3.5 98 -16 q41.5 -12.5 70.5 -46 q29 -33.5 30 -86.5 q1 -23 3 -91 q2 -68 2.5 -107 q0.5 -39 1.5 -97 q1 -58 0 -106.5 q-1 -48.5 -3 -91.5 q-2 -33 -16 -58 q-14 -25 -33.5 -38.5 q-19.5 -13.5 -48 -22.5 q-28.5 -9 -53 -11.5 q-24.5 -2.5 -54.5 -3.5 q-52 -1 -148.5 0.5 q-96.5 1.5 -145.5 -0.5 q-27 -3 -55.5 -1.5 q-28.5 1.5 -55 4 q-26.5 2.5 -50.5 15 q-24 12.5 -42.5 31.5 q-18.5 19 -30 53 q-11.5 34 -13.5 81 q-7 195 -4 396 q0 1 0 3 q5 57 21.5 95 q16.5 38 41 56.5 q24.5 18.5 57 27 q32.5 8.5 70 7 q37.5 -1.5 79.5 -3.5 q2 0 3 0 ZM292 654.87 q-19 1 -51 4 q-40 1 -64.5 2.5 q-24.5 1.5 -39 -10 q-14.5 -11.5 -22 -34.5 q-7.5 -23 -11.5 -70 q-3 -199 4 -391 q2 -61 18 -84.5 q16 -23.5 51.5 -23.5 q35.5 0 95.5 3 q51 2 148.5 0.5 q97.5 -1.5 145.5 -0.5 q4 0 12 0 q27 1 39 1.5 q12 0.5 29.5 3.5 q17.5 3 25 9 q7.5 6 14 17 q6.5 11 7.5 27 q2 41 3 88.5 q1 47.5 0 105.5 q-1 58 -1.5 95 q-0.5 37 -2.5 106.5 q-2 69.5 -3 91.5 q-1 31 -24.5 46.5 q-23.5 15.5 -62.5 17.5 q-39 2 -90 0.5 q-51 -1.5 -107.5 -5.5 q-56.5 -4 -113.5 0 Z"></path></symbol><symbol id="uni30EE" viewBox="0 -272 1000 1000"><path d="M96 183.81 q1 -90 6 -122 q3 -22 78 -24.5 q75 -2.5 184 6 q109 8.5 122 8.5 q4 0 6.5 0.5 q2.5 0.5 4.5 2 q2 1.5 3 3 q1 1.5 1.5 4.5 q0.5 3 0.5 6 q0 3 -0.5 8 q-0.5 5 -1 10 q-0.5 5 -1 12.5 q-0.5 7.5 -1.5 14.5 q-12 143 -78 252 q-34 55 -83.5 84 q-49.5 29 -120.5 40 l6 40 l6 40 q179 -29 260 -162 q101 -166 90 -381 q-1 -28 -28 -42 q-23 -12 -90 -16 q-294 -17 -374 3 q-23 6 -36 17 q-21 19 -28 62 q-5 38 -6 134 l40 0 l40 0 Z"></path></symbol><symbol id="uni30EF" viewBox="0 -272 1000 1000"><path d="M89 112.89 l5 -129 q17 0 117 -1 q100 -1 154.5 -1 q54.5 0 132 2.5 q77.5 2.5 122.5 8.5 q11 1 16 4 q0 0 0 76 q0 112 -24 210 q-24 98 -64 169 q-40 71 -94 125 q-54 54 -113 85.5 q-59 31.5 -121 42.5 l-78 0 l0 40 l0 40 l81 0 q95 0 185 -57 q90 -57 157.5 -152 q67.5 -95 109 -227.5 q41.5 -132.5 41.5 -275.5 q0 -8 2 -28.5 q2 -20.5 2 -34 q0 -13.5 -5 -32 q-5 -18.5 -17 -32.5 q-22 -27 -68 -33 q-66 -8 -161.5 -10.5 q-95.5 -2.5 -241 -0.5 q-145.5 2 -151.5 2 l-21 0 q-16 0 -27.5 11.5 q-11.5 11.5 -12.5 27.5 l-6 168 l40 1 l40 1 Z"></path></symbol><symbol id="uni30F0" viewBox="0 -272 1000 1000"><path d="M107 253 l6 0 q36 0 83 0 q2 122 5 219 q-102 -1 -189 -2 l-1 40 l-1 40 q7 0 433 0 q-5 157 -5 225 l40 0 l40 0 q0 -65 5 -225 q10 0 69.5 1.5 q59.5 1.5 69.5 1.5 l21 0 l0 -40 l0 -40 l-21 0 q-9 0 -68 -1.5 q-59 -1.5 -69 -1.5 q1 -21 1 -40 q1 -65 1 -181 q12 0 79 0.5 q67 0.5 81 0.5 l-1 -40 l-1 -40 q-14 0 -80 -0.5 q-66 -0.5 -78 -0.5 q1 -111 3 -187 l-40 -2 l-40 -1 q-3 79 -3 192 q-256 2 -334 2 l-6 0 l0 40 l0 40 ZM447 251 q0 114 -1 178 q0 19 -1 41 q-39 0 -80.5 1.5 q-41.5 1.5 -83.5 0.5 q-3 -97 -5 -219 q47 1 92 -0.5 q45 -1.5 79 -1.5 Z"></path></symbol><symbol id="uni30F1" viewBox="0 -272 1000 1000"><path d="M107 73.55 q56 -7 124.5 -7.5 q68.5 -0.5 123.5 2.5 q55 3 133 7.5 q78 4.5 131 6.5 q-21 40 -67.5 93 q-46.5 53 -95.5 98 l-33 0 l-40 0 q0 86 -1 215.5 q-1 129.5 -2 200.5 q-261 1 -362 -2 l-1 40 l-2 40 q23 1 83.5 2 q60.5 1 215 2.5 q154.5 1.5 330.5 1.5 q10 0 65.5 -1.5 q55.5 -1.5 63.5 -1.5 l2 -40 l2 -40 q-16 -1 -73 1 q-57 2 -60 2 q-95 0 -184 -2 q1 -70 1.5 -176.5 q0.5 -106.5 0.5 -148.5 l4 4 q32 -26 66 -57 q34 -31 79 -79 q45 -48 73 -99 q28 -51 28 -93 q0 -14 -11.5 -27 q-11.5 -13 -28.5 -13 l-12 0 q-58 0 -139.5 -4.5 q-81.5 -4.5 -142.5 -9 q-61 -4.5 -138.5 -4 q-77.5 0.5 -142.5 8.5 l5 40 l5 40 Z"></path></symbol><symbol id="uni30F2" viewBox="0 -272 1000 1000"><path d="M594 365.17 q-39 166 -168 255 q-129 89 -308 86 q-1 2 0 11.5 q1 9.5 8 22.5 q7 13 17 17 q75 27 143.5 19 q68.5 -8 126.5 -38.5 q58 -30.5 106 -80 q48 -49.5 82 -105 q34 -55.5 55 -114.5 q10 -28 16 -55 q25 -105 62 -439 q1 -16 -10 -29.5 q-11 -13.5 -28 -14.5 l-673 -16 l-4 80 l630 14 q-22 189 -27 224 l-43 0 q-68 -2 -234.5 -12 q-166.5 -10 -241.5 -12 l-1 40 l-1 40 q72 1 238 11.5 q166 10.5 240 12.5 l31 0 q-9 53 -16 83 Z"></path></symbol><symbol id="uni30F3" viewBox="0 -272 1000 1000"><path d="M21 -79 q190 17 308 38 l0 -84 q-10 -1 -308 -34 l0 40 l0 40 ZM728 -53 l0 15 q0 111 -18 205 q-18 94 -49.5 164 q-31.5 70 -78.5 126.5 q-47 56.5 -101 95 q-54 38.5 -121.5 67.5 q-67.5 29 -135.5 45.5 q-68 16.5 -148 27.5 l6 39 l5 40 q721 -96 721 -810 l0 -15 l-40 0 l-40 0 Z"></path></symbol><symbol id="uni30F4" viewBox="0 -272 1000 1000"><path d="M588 210 q-6 128 -36 231.5 q-30 103.5 -74.5 172 q-44.5 68.5 -104.5 117.5 q-60 49 -122 74 q-62 25 -131 35 l-40 2 q1 23 16 37.5 q15 14.5 30 18 q15 3.5 28 3.5 q12 -1 29 -3.5 q17 -2.5 20 -2.5 q10 4 20 3 q82 -9 152 -44.5 q70 -35.5 119.5 -89.5 q49.5 -54 86.5 -121.5 q37 -67.5 57 -142.5 q20 -75 27.5 -149.5 q7.5 -74.5 2.5 -144.5 q0 -3 0.5 -16 q0.5 -13 0 -18 q-0.5 -5 -2.5 -14.5 q-2 -9.5 -6 -17 q-4 -7.5 -11 -14.5 q-9 -9 -19 -14 q-10 -5 -16.5 -6 q-6.5 -1 -17.5 -2 q-11 -1 -15 -2 q-77 -13 -195 -13 l0 -71 l-96 0 l0 72 q-156 5 -163 5 q0 0 -67 -3 q-16 0 -29 11.5 q-13 11.5 -13 28.5 l0 174 l80 0 l0 -131 q17 0 29 0 q29 0 127 -3.5 q98 -3.5 176.5 -2 q78.5 1.5 136.5 11.5 q1 0 21 3 q0 8 0 23 q0 1 0 2 q0 1 0 1 ZM712 66 l-49 -160 l-65 0 l62 160 l52 0 ZM626 66 l-59 -160 l-65 0 l72 160 l52 0 Z"></path></symbol><symbol id="integral" viewBox="0 -272 1000 1000"><path d="M300 -218 q-158 0 -174 148 l-90 841 q-4 32 -13 43.5 q-9 11.5 -33 11.5 l-23 0 l-9 99 l21 0 q77 0 119.5 -36 q42.5 -36 51.5 -118 l90 -841 q4 -27 16 -38 q12 -11 33 -11 l20 0 l9 -99 l-18 0 Z"></path></symbol></defs></svg>