
<svg xmlns="http://www.w3.org/2000/svg" viewBox="30.67 27 210.67 140" preserveAspectRatio="none">


<path style="fill:#010101; stroke:none;" d="M100 27L99 31L100 31L102 27L100 27z"></path>

<path style="fill:#010101; stroke:none;" d="M137 31L138 32L137 31z"></path>
<path style="fill:#010101; stroke:none;" d="M198.333 31.6667L198.667 32.3333L198.333 31.6667M136 32L137 33L136 32M188 32L189 33L188 32z"></path>
<path style="fill:#010101; stroke:none;" d="M190 32L191 33L190 32z"></path>
<path style="fill:#010101; stroke:none;" d="M64 33L64 35L66 35L66 33L64 33M134 33L133 35L135 35L134 33M191 33L192 34L191 33M117 34L118 35L117 34M139 34L140 35L139 34M184 34L183 36L185 36L184 34z"></path>
<path style="fill:#010101; stroke:none;" d="M185 34L187 37L187 34L185 34z"></path>
<path style="fill:#010101; stroke:none;" d="M192.667 34.3333L193.333 34.6667L192.667 34.3333z"></path>

<path style="fill:#010101; stroke:none;" d="M83 35L85 40L83 35M106 35L107 36L106 35M122 36L122 37L126 38L126 37L125 35L122 36M143 35L144 36L143 35M152 35L151 38L152 35M154 35L157 37L157 36L154 35M159 35L162 37L159 35M164 35L165 36L164 35M201 35L202 36L201 35z"></path>
<path style="fill:#010101; stroke:none;" d="M65 36L66 37L65 36z"></path>
<path style="fill:#010101; stroke:none;" d="M72 36L73 37L72 36M103 36L104 37L103 36M132 36L133 37L132 36z"></path>
<path style="fill:#010101; stroke:none;" d="M137 36L140 38L137 36z"></path>
<path style="fill:#010101; stroke:none;" d="M167 36L167 38L169 36L167 36z"></path>

<path style="fill:#010101; stroke:none;" d="M181.667 36.3333L182.333 36.6667L181.667 36.3333z"></path>
<path style="fill:#010101; stroke:none;" d="M185 36C183.766 41.118 181.84 43.8188 177 46L177 45L182 40C175.024 38.6562 173.627 44.2145 169 48L164 41L163 41L162 44L158 43L158 39L156 39L152 45L152 46L151 50L150 45L146 48L149 47L149 54L146 55L146 56L150 55L148 77L148 124L147 147L147 148L151 146L152 153C156.375 152.681 160.759 153.215 162 158L165 156L168 158C171.641 155.066 175.367 158.378 179 160L184 156L186 160L186 155L192 156L193 155L192 153L198 153L198 157L203 159L203 156L209 158L209 157L208 142L210 145L220 141L219 138L218 138L213 143L215 140L211 140L215 134L215 133L208 135L206 130L210 129L208 125L209 125L209 128L210 128L209 120L210 120L210 123L211 123L214 116L218 118C215.84 122.233 215.698 127.243 220 130L221 124L218 124L219 111L218 111L218 115L217 115L218 105L215 106L215 102L210 97L209 97L207 99L209 96C207.313 92.3801 206.056 90.2463 210 88L210 91L211 91L218 81L218 80L214 81L219 75L219 74L216 72L218 73L218 72L218 69L219 71L220 71C219.107 67.2236 219.258 61.9865 215 61L215 55L216 58L217 58L214 55L215 51L212 52L213 46L209 52L206 51L205 55L206 55L210 52L211 55L205 56L206 58L205 58L202 51L199 52L200 47L199 47L199 50L198 50L197 48L197 50L196 46L196 45L194 42L193 42L193 45L185 36z"></path>
<path style="fill:#010101; stroke:none;" d="M190 36L191 37L190 36M192 36L193 40L190 41L190 42L196 36L192 36z"></path>
<path style="fill:#010101; stroke:none;" d="M197 36L198 37L197 36z"></path>
<path style="fill:#010101; stroke:none;" d="M214 36L215 37L214 36z"></path>
<path style="fill:#010101; stroke:none;" d="M66 37L72 42L72 46L67 45L67 44L69 43L63 38L64 42L58 41L63 49L60 48L61 51L53 45L59 55L52 55L55 64L45 67L45 68L47 71C52.159 71.6412 55.7424 80.2833 56 85L45 80L46 83L43 80L46 79L42 76L48 102L45 111L48 115L41 133L44 131L42 135L46 134L46 126L50 133L48 129L47 129C47 132.113 47.7533 136.45 44 137L43 140L46 141L46 142L42 138L41 138L41 142L37 145L41 143L40 145L41 145L42 145L41 142L41 153L42 153L47 142L48 142L48 148L47 148L47 146L46 146L47 150L44 149L44 150L44 151L46 154L53 152L53 151L50 151L55 144L56 152L59 151L61 158L63 153L72 160L81 160L83 155L84 155C85.1758 159.139 88.2671 158.203 92 158L92 157L88 157L96 152L97 153L96 156L102 157L107 152L108 152L112 160L111 163L121 162L125 157L126 157L129 160L132 154L129 156L131 149L133 151L136 148L136 151L137 151L142 149L140 153L147 155L148 155L146 150L149 149L147 147L148 123L148 79L150 55L146 56L146 55L149 54L149 47L145 47L136 50L141 45L136 46L139 41C126.725 36.8107 112.773 37.992 100 39L100 40L103 40L102 43L113 43C109.103 47.3294 104.723 48.7499 99 49L100 53L104 53L104 56L107 54L106 57L94 57L100 55L100 54L94 54L94 53L96 53L96 52L87 50L87 49L91 48L91 47C86.8395 46.9508 84.1119 46.83 82 43L81 43L80 46L66 37z"></path>
<path style="fill:#010101; stroke:none;" d="M101 37L102 38L101 37z"></path>
<path style="fill:#010101; stroke:none;" d="M140 37L141 38L140 37z"></path>
<path style="fill:#010101; stroke:none;" d="M141 37L141 38L146 38L141 37M155 38L155 39L158 39L161 43L155 38M165 37L166 38L165 37z"></path>
<path style="fill:#010101; stroke:none;" d="M170 37L168 39L168 44L169 44L172 40L171 42L175 40L175 39L172 40L170 37z"></path>

<path style="fill:#010101; stroke:none;" d="M59 38L56 40L56 41L60 39L59 38M65 38L67 40L65 38M81.3333 38.6667L81.6667 39.3333L81.3333 38.6667M91 38L91 39L95 40L95 39L91 38M136 38L137 39L136 38z"></path>
<path style="fill:#010101; stroke:none;" d="M149 38L150 39L149 38M162 38L163 39L162 38M179.667 38.3333L180.333 38.6667L179.667 38.3333M184 38L185 39L184 38z"></path>
<path style="fill:#010101; stroke:none;" d="M188.333 38.6667L188.667 39.3333L188.333 38.6667z"></path>
<path style="fill:#010101; stroke:none;" d="M190 38L189 42L190 42L190 38z"></path>
<path style="fill:#010101; stroke:none;" d="M218 38L218 42L219 42L218 38M87 39L88 40L87 39z"></path>
<path style="fill:#010101; stroke:none;" d="M140 39L143 42L140 39z"></path>
<path style="fill:#010101; stroke:none;" d="M145 39L146 40L145 39z"></path>
<path style="fill:#010101; stroke:none;" d="M163 39L162 43L163 43L163 39z"></path>
<path style="fill:#010101; stroke:none;" d="M165.333 39.6667L165.667 40.3333L165.333 39.6667z"></path>
<path style="fill:#010101; stroke:none;" d="M177 39L178 40L177 39M181 39L182 40L181 39M183 39L183 42L184 42L183 39M219 39L219 50L220 50L221 39L219 39z"></path>
<path style="fill:#010101; stroke:none;" d="M60 40L61 41L60 40M89 40L92 42L92 41L89 40z"></path>
<path style="fill:#010101; stroke:none;" d="M138.667 40.3333L139.333 40.6667L138.667 40.3333z"></path>
<path style="fill:#010101; stroke:none;" d="M145 40L144 43C148.479 43.7138 149.677 45.8277 151 50L154 46L151 45L151 44L155 45L155 44L145 40z"></path>
<path style="fill:#010101; stroke:none;" d="M153.667 40.3333L154.333 40.6667L153.667 40.3333M160 40L161 41L160 40z"></path>
<path style="fill:#010101; stroke:none;" d="M175 40L176 41L175 40z"></path>

<path style="fill:#010101; stroke:none;" d="M197 40L198 41L197 40M74 41L75 42L74 41z"></path>
<path style="fill:#010101; stroke:none;" d="M76 41L79 43L79 42L76 41M95 41L96 42L95 41z"></path>
<path style="fill:#010101; stroke:none;" d="M99 41L100 42L99 41z"></path>

<path style="fill:#010101; stroke:none;" d="M143.667 41.3333L144.333 41.6667L143.667 41.3333z"></path>
<path style="fill:#010101; stroke:none;" d="M150.667 41.3333L151.333 41.6667L150.667 41.3333z"></path>
<path style="fill:#010101; stroke:none;" d="M173 41L174 42L173 41M193 41L194 42L193 41M196 41L196 44L197 44L196 41z"></path>
<path style="fill:#010101; stroke:none;" d="M220 41L221 42L220 41z"></path>
<path style="fill:#010101; stroke:none;" d="M55 42L58 45L55 42M83 45L84 45L86 43L83 45z"></path>

<path style="fill:#010101; stroke:none;" d="M134 42L135 43L134 42z"></path>
<path style="fill:#010101; stroke:none;" d="M155 42L156 43L155 42z"></path>
<path style="fill:#010101; stroke:none;" d="M180 42L181 43L180 42z"></path>
<path style="fill:#010101; stroke:none;" d="M181 42L182 43L181 42z"></path>
<path style="fill:#010101; stroke:none;" d="M197 42L198 43L197 42M221 42L222 43L221 42M52 43L51 45L53 45L52 43z"></path>
<path style="fill:#010101; stroke:none;" d="M91 43L92 44L91 43z"></path>
<path style="fill:#010101; stroke:none;" d="M96 43L97 44L96 43z"></path>

<path style="fill:#010101; stroke:none;" d="M138 43L139 44L138 43M143 43L144 44L143 43z"></path>
<path style="fill:#010101; stroke:none;" d="M161 43L162 44L161 43M164 43L165 44L164 43M166 43L167 44L166 43M172 43L172 46L173 46L172 43M180.333 43.6667L180.667 44.3333L180.333 43.6667M182 43L183 44L182 43z"></path>

<path style="fill:#010101; stroke:none;" d="M186.333 43.6667L186.667 44.3333L186.333 43.6667z"></path>
<path style="fill:#010101; stroke:none;" d="M187 43L188 44L187 43z"></path>
<path style="fill:#010101; stroke:none;" d="M190.667 43.3333L191.333 43.6667L190.667 43.3333z"></path>
<path style="fill:#010101; stroke:none;" d="M199 43L200 44L199 43M212 43L213 44L212 43M217 43L218 44L217 43z"></path>

<path style="fill:#010101; stroke:none;" d="M93 44L95 46L93 44M100 44L101 45L100 44M103.667 44.3333L104.333 44.6667L103.667 44.3333z"></path>

<path style="fill:#010101; stroke:none;" d="M167 44L168 45L167 44z"></path>
<path style="fill:#010101; stroke:none;" d="M171 44L172 45L171 44z"></path>
<path style="fill:#010101; stroke:none;" d="M178 44L177 46L179 46L178 44z"></path>

<path style="fill:#010101; stroke:none;" d="M192 44L193 45L192 44M195 44L196 45L195 44z"></path>
<path style="fill:#010101; stroke:none;" d="M197 44L198 45L197 44z"></path>
<path style="fill:#010101; stroke:none;" d="M211.333 44.6667L211.667 45.3333L211.333 44.6667z"></path>
<path style="fill:#010101; stroke:none;" d="M218 44L219 45L218 44z"></path>
<path style="fill:#010101; stroke:none;" d="M136 45L137 46L136 45M139 45L140 46L139 45z"></path>
<path style="fill:#010101; stroke:none;" d="M146 45L147 46L146 45M148 45L149 46L148 45M170 45L169 48C171.158 47.0224 171.501 46.8117 170 45M185 45L186 46L185 45z"></path>
<path style="fill:#010101; stroke:none;" d="M196.333 45.6667L196.667 46.3333L196.333 45.6667z"></path>
<path style="fill:#010101; stroke:none;" d="M198 45L198 50L199 50L198 45M215 45L215 48L216 48L215 45z"></path>
<path style="fill:#010101; stroke:none;" d="M216.333 45.6667L216.667 46.3333L216.333 45.6667M221 45L222 46L221 45M51 46L51 48L53 48L51 46M58 46L59 47L58 46M60 46L61 47L60 46z"></path>
<path style="fill:#010101; stroke:none;" d="M91 46L92 47L91 46z"></path>
<path style="fill:#010101; stroke:none;" d="M107 46L108 47L107 46z"></path>
<path style="fill:#010101; stroke:none;" d="M147 46L148 47L147 46M175.667 46.3333L176.333 46.6667L175.667 46.3333z"></path>
<path style="fill:#010101; stroke:none;" d="M194.333 46.6667L194.667 47.3333L194.333 46.6667z"></path>
<path style="fill:#010101; stroke:none;" d="M195.333 46.6667L195.667 47.3333L195.333 46.6667z"></path>
<path style="fill:#010101; stroke:none;" d="M214 46L215 47L214 46z"></path>
<path style="fill:#010101; stroke:none;" d="M48 47L49 48L48 47z"></path>

<path style="fill:#010101; stroke:none;" d="M202 47L201 51L202 51L202 47M213 47L214 48L213 47z"></path>
<path style="fill:#010101; stroke:none;" d="M214 47L212 52L214 47z"></path>
<path style="fill:#010101; stroke:none;" d="M217 47L217 50L218 50L217 47M221 47L222 48L221 47z"></path>

<path style="fill:#010101; stroke:none;" d="M138 48L139 49L138 48z"></path>
<path style="fill:#010101; stroke:none;" d="M214 48L215 49L214 48z"></path>
<path style="fill:#010101; stroke:none;" d="M51 49L53 53L52 50L55 51L51 49M90.6667 49.3333L91.3333 49.6667L90.6667 49.3333M93 49L95 51L93 49z"></path>

<path style="fill:#010101; stroke:none;" d="M149 49L150 50L149 49M196 49L197 50L196 49z"></path>
<path style="fill:#010101; stroke:none;" d="M202 49L202 53L203 53L202 49z"></path>
<path style="fill:#010101; stroke:none;" d="M204 49L204 51L206 51L204 49M206 49L206 50L209 50L206 49z"></path>
<path style="fill:#010101; stroke:none;" d="M214.333 49.6667L214.667 50.3333L214.333 49.6667z"></path>
<path style="fill:#010101; stroke:none;" d="M215.333 49.6667L215.667 50.3333L215.333 49.6667M220 49L221 50L220 49z"></path>
<path style="fill:#010101; stroke:none;" d="M97 50L96 52L97 50z"></path>
<path style="fill:#010101; stroke:none;" d="M199.333 50.6667L199.667 51.3333L199.333 50.6667z"></path>
<path style="fill:#010101; stroke:none;" d="M208 50L209 51L208 50z"></path>
<path style="fill:#010101; stroke:none;" d="M219 50L220 51L219 50M143 51L144 52L143 51z"></path>
<path style="fill:#010101; stroke:none;" d="M200 51L201 52L200 51M203 51L203 53L205 53L203 51z"></path>
<path style="fill:#010101; stroke:none;" d="M207.667 51.3333L208.333 51.6667L207.667 51.3333M219.333 51.6667L219.667 52.3333L219.333 51.6667z"></path>
<path style="fill:#010101; stroke:none;" d="M54 52L55 53L54 52z"></path>
<path style="fill:#010101; stroke:none;" d="M146 52L147 53L146 52z"></path>
<path style="fill:#010101; stroke:none;" d="M205 52L206 53L205 52M209 52L210 53L209 52z"></path>
<path style="fill:#010101; stroke:none;" d="M218 52L218 55L220 54L220 53L218 52z"></path>
<path style="fill:#010101; stroke:none;" d="M43 53L44 54L43 53z"></path>
<path style="fill:#010101; stroke:none;" d="M204.333 53.6667L204.667 54.3333L204.333 53.6667M206.667 53.3333L207.333 53.6667L206.667 53.3333z"></path>
<path style="fill:#010101; stroke:none;" d="M209 53L210 54L209 53z"></path>
<path style="fill:#010101; stroke:none;" d="M211 53L212 54L211 53M214.333 53.6667L214.667 54.3333L214.333 53.6667z"></path>
<path style="fill:#010101; stroke:none;" d="M215 53L216 54L215 53z"></path>
<path style="fill:#010101; stroke:none;" d="M220 53L221 54L220 53z"></path>
<path style="fill:#010101; stroke:none;" d="M206 54L207 55L206 54z"></path>

<path style="fill:#010101; stroke:none;" d="M208 54L209 55L208 54z"></path>

<path style="fill:#010101; stroke:none;" d="M210 54L211 55L210 54z"></path>
<path style="fill:#010101; stroke:none;" d="M216 54L217 55L216 54z"></path>
<path style="fill:#010101; stroke:none;" d="M221 54L220 56L221 54z"></path>
<path style="fill:#010101; stroke:none;" d="M204.333 55.6667L204.667 56.3333L204.333 55.6667M208 55L209 56L208 55z"></path>
<path style="fill:#010101; stroke:none;" d="M213 55L214 56L213 55M215 55L215 61L218 62L219 59L215 55z"></path>
<path style="fill:#010101; stroke:none;" d="M218 55L218 61L219 61L218 55z"></path>
<path style="fill:#010101; stroke:none;" d="M98 56L99 57L98 56z"></path>
<path style="fill:#010101; stroke:none;" d="M206 56L206 57L209 57L206 56M211 56L210 58L211 56z"></path>
<path style="fill:#010101; stroke:none;" d="M42.3333 57.6667L42.6667 58.3333L42.3333 57.6667M45.3333 57.6667L45.6667 58.3333L45.3333 57.6667M49 57L50 62L51 62L49 57z"></path>
<path style="fill:#010101; stroke:none;" d="M145 57L146 58L145 57z"></path>
<path style="fill:#010101; stroke:none;" d="M149 57L150 58L149 57z"></path>
<path style="fill:#010101; stroke:none;" d="M204.667 57.3333L205.333 57.6667L204.667 57.3333M213 57L212 79L213 79L213 76L216 74L214 75L214 74L216 72L216 71L216 64L213 57z"></path>
<path style="fill:#010101; stroke:none;" d="M219.333 57.6667L219.667 58.3333L219.333 57.6667z"></path>
<path style="fill:#010101; stroke:none;" d="M220 58L221 59L220 58z"></path>
<path style="fill:#010101; stroke:none;" d="M44 59L47 63L44 59M217 59L218 60L217 59z"></path>
<path style="fill:#010101; stroke:none;" d="M48 60L48 63L49 63L48 60z"></path>
<path style="fill:#010101; stroke:none;" d="M219 60L218 63L219 60z"></path>
<path style="fill:#010101; stroke:none;" d="M43 61L46 64L43 61z"></path>

<path style="fill:#010101; stroke:none;" d="M222 61L221 63L223 63L222 61M226 61L226 65L227 65L226 61z"></path>

<path style="fill:#010101; stroke:none;" d="M216 62L216 70L217 70L216 62z"></path>
<path style="fill:#010101; stroke:none;" d="M47 63L48 64L47 63z"></path>
<path style="fill:#010101; stroke:none;" d="M44 64L47 66L47 65L44 64M220.333 65.6667L220.667 66.3333L220.333 65.6667M43 66L44 67L43 66z"></path>
<path style="fill:#010101; stroke:none;" d="M208 66L209 83L210 83L208 66M218.333 66.6667L218.667 67.3333L218.333 66.6667z"></path>
<path style="fill:#010101; stroke:none;" d="M219 66L220 67L219 66z"></path>

<path style="fill:#010101; stroke:none;" d="M46 68L47 69L46 68M216 68L217 69L216 68z"></path>
<path style="fill:#010101; stroke:none;" d="M220 68L221 69L220 68z"></path>

<path style="fill:#010101; stroke:none;" d="M45 69L46 70L45 69z"></path>
<path style="fill:#010101; stroke:none;" d="M47 69L48 70L47 69z"></path>
<path style="fill:#010101; stroke:none;" d="M218 69L217 72L218 69z"></path>
<path style="fill:#010101; stroke:none;" d="M43 70L44 71L43 70z"></path>
<path style="fill:#010101; stroke:none;" d="M48 70L49 71L48 70z"></path>
<path style="fill:#010101; stroke:none;" d="M40 71L43 75L40 71z"></path>
<path style="fill:#010101; stroke:none;" d="M45 71L46 72L45 71z"></path>
<path style="fill:#010101; stroke:none;" d="M46 71L45 72L48 74L46 71M49 71L50 72L49 71M214 71L215 72L214 71z"></path>
<path style="fill:#010101; stroke:none;" d="M219 71L220 72L219 71z"></path>
<path style="fill:#010101; stroke:none;" d="M38 72L37 75L38 72z"></path>
<path style="fill:#010101; stroke:none;" d="M47 72L48 73L47 72z"></path>
<path style="fill:#010101; stroke:none;" d="M216.333 72.6667L216.667 73.3333L216.333 72.6667z"></path>
<path style="fill:#010101; stroke:none;" d="M218 72L219 73L218 72z"></path>
<path style="fill:#010101; stroke:none;" d="M220 72L221 73L220 72z"></path>
<path style="fill:#010101; stroke:none;" d="M44 73L44 74L47 74L44 73M48 73L47 74L52 78L52 77L48 73M217 73L218 74L217 73M220.667 73.3333L221.333 73.6667L220.667 73.3333M38 74L38 75L41 76L38 74z"></path>
<path style="fill:#010101; stroke:none;" d="M210 74L210 77L211 77L210 74M219 74L216 75L215 80L216 80L219 74z"></path>
<path style="fill:#010101; stroke:none;" d="M220 74L221 75L220 74z"></path>
<path style="fill:#010101; stroke:none;" d="M220 76L224 75L220 76M32 75L33 76L32 75M35 75L36 76L35 75z"></path>
<path style="fill:#010101; stroke:none;" d="M38 75L43 80L38 75z"></path>
<path style="fill:#010101; stroke:none;" d="M39 75L40 76L39 75z"></path>
<path style="fill:#010101; stroke:none;" d="M44.6667 75.3333L45.3333 75.6667L44.6667 75.3333z"></path>
<path style="fill:#010101; stroke:none;" d="M49 75L50 76L49 75z"></path>
<path style="fill:#010101; stroke:none;" d="M219 75L220 76L219 75z"></path>
<path style="fill:#010101; stroke:none;" d="M228 75L229 76L228 75M37 76L38 77L37 76z"></path>
<path style="fill:#010101; stroke:none;" d="M38 76L39 77L38 76z"></path>
<path style="fill:#010101; stroke:none;" d="M47 76L48 77L47 76z"></path>
<path style="fill:#010101; stroke:none;" d="M50 76L51 77L50 76z"></path>
<path style="fill:#010101; stroke:none;" d="M52 76L53 77L52 76z"></path>
<path style="fill:#010101; stroke:none;" d="M218 76L216 80L217 80L218 76z"></path>
<path style="fill:#010101; stroke:none;" d="M226 76L228 78L226 76M36.3333 77.6667L36.6667 78.3333L36.3333 77.6667z"></path>
<path style="fill:#010101; stroke:none;" d="M39 77L40 78L39 77z"></path>
<path style="fill:#010101; stroke:none;" d="M218 77L219 78L218 77M220 77L220 78L224 79L224 78L220 77M49 78L50 79L49 78M53 78L51 79C52.3571 81.4164 54.2392 80.3721 53 78M217 78L218 79L217 78M219 78L220 83L221 83L219 78M34 79L35 80L34 79M38.6667 79.3333L39.3333 79.6667L38.6667 79.3333z"></path>
<path style="fill:#010101; stroke:none;" d="M44 79L46 83L44 79z"></path>
<path style="fill:#010101; stroke:none;" d="M214 79L215 80L214 79z"></path>
<path style="fill:#010101; stroke:none;" d="M227 79L228 80L227 79z"></path>

<path style="fill:#010101; stroke:none;" d="M221 80L223 82L223 80L221 80M41 81L42 82L41 81z"></path>
<path style="fill:#010101; stroke:none;" d="M212 81L213 88L214 88C214.959 84.6982 215.054 82.8568 212 81z"></path>

<path style="fill:#010101; stroke:none;" d="M217 81L219 83L219 81L217 81z"></path>
<path style="fill:#010101; stroke:none;" d="M225 81L229 85L230 82L225 81M217 82L217 85L218 85L217 82M42 83L43 84L42 83z"></path>
<path style="fill:#010101; stroke:none;" d="M46 83L48 85L48 83L46 83M213 83L214 84L213 83z"></path>
<path style="fill:#010101; stroke:none;" d="M221 83L218 85L218 86C221.507 87.3795 223.332 87.8685 226 85L224 87L223 87L221 83M44 84L45 85L44 84z"></path>
<path style="fill:#010101; stroke:none;" d="M206 84L207 85L206 84M209 84L208 87L209 87L209 84M215 84L216 85L215 84z"></path>
<path style="fill:#010101; stroke:none;" d="M216.333 84.6667L216.667 85.3333L216.333 84.6667M223 85L224 86L223 85z"></path>
<path style="fill:#010101; stroke:none;" d="M48 86L49 87L48 86z"></path>

<path style="fill:#010101; stroke:none;" d="M227 86L228 87L227 86z"></path>
<path style="fill:#010101; stroke:none;" d="M206 87L207 88L206 87z"></path>
<path style="fill:#010101; stroke:none;" d="M215 87L216 88L215 87z"></path>
<path style="fill:#010101; stroke:none;" d="M43 88L44 89L43 88z"></path>
<path style="fill:#010101; stroke:none;" d="M45 88L46 89L45 88z"></path>
<path style="fill:#010101; stroke:none;" d="M207 94L208 94L210 89C206.367 88.1821 206.345 91.1324 207 94z"></path>
<path style="fill:#010101; stroke:none;" d="M214.333 88.6667L214.667 89.3333L214.333 88.6667M31 89L31 92L32 92L31 89M207 89L207 93L208 93L209 89L207 89z"></path>
<path style="fill:#010101; stroke:none;" d="M210 89L212 91L212 89L210 89M215 89L217 91L215 89z"></path>
<path style="fill:#010101; stroke:none;" d="M216 89L217 90L216 89z"></path>
<path style="fill:#010101; stroke:none;" d="M217 89L218 90L217 89M222 89L220 94L224 96L224 92C226.437 92.0282 226.303 91.444 226 89L225 89L226 91L225 91L222 89M42 90L43 96L44 96L46 92L44 93L45 90L42 90z"></path>
<path style="fill:#010101; stroke:none;" d="M211 91L211 92L216 94L213 90L211 91z"></path>
<path style="fill:#010101; stroke:none;" d="M215 90L216 91L215 90z"></path>

<path style="fill:#010101; stroke:none;" d="M208 91L209 92L208 91z"></path>
<path style="fill:#010101; stroke:none;" d="M212 91L213 92L212 91z"></path>
<path style="fill:#010101; stroke:none;" d="M216 91L217 92L216 91z"></path>
<path style="fill:#010101; stroke:none;" d="M48 92L49 93L48 92z"></path>

<path style="fill:#010101; stroke:none;" d="M213 92L214 93L213 92z"></path>
<path style="fill:#010101; stroke:none;" d="M217.333 92.6667L217.667 93.3333L217.333 92.6667z"></path>
<path style="fill:#010101; stroke:none;" d="M208 93L209 94L208 93z"></path>
<path style="fill:#010101; stroke:none;" d="M212 93L211 96L212 93z"></path>
<path style="fill:#010101; stroke:none;" d="M214 93L215 94L214 93z"></path>
<path style="fill:#010101; stroke:none;" d="M209 94L210 98L211 98L209 94z"></path>
<path style="fill:#010101; stroke:none;" d="M215 94L216 95L215 94M218 94L218 97L219 97L218 94z"></path>
<path style="fill:#010101; stroke:none;" d="M229 94L230 95L229 94z"></path>
<path style="fill:#010101; stroke:none;" d="M209.333 95.6667L209.667 96.3333L209.333 95.6667z"></path>
<path style="fill:#010101; stroke:none;" d="M213.667 95.3333L214.333 95.6667L213.667 95.3333z"></path>
<path style="fill:#010101; stroke:none;" d="M215.667 95.3333L216.333 95.6667L215.667 95.3333z"></path>
<path style="fill:#010101; stroke:none;" d="M220.333 95.6667L220.667 96.3333L220.333 95.6667z"></path>
<path style="fill:#010101; stroke:none;" d="M229 95L230 96L229 95z"></path>
<path style="fill:#010101; stroke:none;" d="M45 96L45 99L46 99L45 96z"></path>

<path style="fill:#010101; stroke:none;" d="M206 96L208 99L206 96z"></path>

<path style="fill:#010101; stroke:none;" d="M208 96L209 97L208 96M226 96L226 97L230 99L226 96M39.3333 97.6667L39.6667 98.3333L39.3333 97.6667M207 97L208 98L207 97z"></path>
<path style="fill:#010101; stroke:none;" d="M212 97L213 98L212 97z"></path>
<path style="fill:#010101; stroke:none;" d="M213 97L212 102L216 100L213 97M218 97L216 106L219 106L218 97z"></path>
<path style="fill:#010101; stroke:none;" d="M222 97L224 101L222 97M225.333 97.6667L225.667 98.3333L225.333 97.6667z"></path>
<path style="fill:#010101; stroke:none;" d="M43 98L43 100L45 100L43 98z"></path>
<path style="fill:#010101; stroke:none;" d="M51 98L52 99L51 98z"></path>
<path style="fill:#010101; stroke:none;" d="M211 98L212 99L211 98z"></path>
<path style="fill:#010101; stroke:none;" d="M38 99L37 101L38 99z"></path>
<path style="fill:#010101; stroke:none;" d="M48 99L49 100L48 99z"></path>

<path style="fill:#010101; stroke:none;" d="M210 99L211 100L210 99z"></path>
<path style="fill:#010101; stroke:none;" d="M214 99L215 100L214 99M229.333 99.6667L229.667 100.333L229.333 99.6667z"></path>
<path style="fill:#010101; stroke:none;" d="M40 109L42 108L45 111L45 110L43 109L46 100C39.7367 100.907 38.3613 102.851 40 109z"></path>

<path style="fill:#010101; stroke:none;" d="M51 100L52 101L51 100z"></path>
<path style="fill:#010101; stroke:none;" d="M214 100L215 106L216 106L214 100z"></path>

<path style="fill:#010101; stroke:none;" d="M47 101L48 102L47 101z"></path>
<path style="fill:#010101; stroke:none;" d="M208.667 101.333L209.333 101.667L208.667 101.333z"></path>
<path style="fill:#010101; stroke:none;" d="M225 101L225 105L226 105L225 101z"></path>
<path style="fill:#010101; stroke:none;" d="M229 101L230 102L229 101z"></path>
<path style="fill:#010101; stroke:none;" d="M213 102L214 103L213 102z"></path>
<path style="fill:#010101; stroke:none;" d="M231 102L232 103L231 102z"></path>
<path style="fill:#010101; stroke:none;" d="M47 103L47 106L48 106L47 103z"></path>
<path style="fill:#010101; stroke:none;" d="M208 103L209 104L208 103M210 103L211 104L210 103z"></path>
<path style="fill:#010101; stroke:none;" d="M45 104L45 107L46 107L45 104z"></path>

<path style="fill:#010101; stroke:none;" d="M212 104L213 105L212 104z"></path>
<path style="fill:#010101; stroke:none;" d="M37 105L38 106L37 105M221 105L222 106L221 105M36 106L37 107L36 106z"></path>
<path style="fill:#010101; stroke:none;" d="M217 106L218 107L217 106z"></path>
<path style="fill:#010101; stroke:none;" d="M35 107L36 108L35 107M38 107L39 108L38 107z"></path>
<path style="fill:#010101; stroke:none;" d="M215 107L212 115L208 114L207 120L209 116L210 116L211 118L214 116L216 111L215 107z"></path>
<path style="fill:#010101; stroke:none;" d="M229.333 107.667L229.667 108.333L229.333 107.667M231 107L232 108L231 107M222 108L223 109L222 108M233 108L234 109L233 108M35 109L36 110L35 109z"></path>

<path style="fill:#010101; stroke:none;" d="M217 109L217 115L218 115L217 109z"></path>
<path style="fill:#010101; stroke:none;" d="M218.333 109.667L218.667 110.333L218.333 109.667M223.333 109.667L223.667 110.333L223.333 109.667M227.333 110.667L227.667 111.333L227.333 110.667z"></path>
<path style="fill:#010101; stroke:none;" d="M35 111L36 112L35 111z"></path>
<path style="fill:#010101; stroke:none;" d="M39 111L40 112L39 111z"></path>
<path style="fill:#010101; stroke:none;" d="M46 111L47 112L46 111M48 111L49 112L48 111z"></path>
<path style="fill:#010101; stroke:none;" d="M38 112L39 113L38 112z"></path>
<path style="fill:#010101; stroke:none;" d="M45 112L36 123L38 120L35 122L35 123L37 134L40 128L44 129L48 115L45 112M47 112L48 113L47 112z"></path>
<path style="fill:#010101; stroke:none;" d="M224 112L225 113L224 112M232.667 112.333L233.333 112.667L232.667 112.333z"></path>
<path style="fill:#010101; stroke:none;" d="M39 113L40 114L39 113z"></path>
<path style="fill:#010101; stroke:none;" d="M41 113L42 114L41 113z"></path>
<path style="fill:#010101; stroke:none;" d="M43 113L42 116L43 113z"></path>
<path style="fill:#010101; stroke:none;" d="M215.333 113.667L215.667 114.333L215.333 113.667z"></path>
<path style="fill:#010101; stroke:none;" d="M227 113L228 125L229 125L227 113z"></path>
<path style="fill:#010101; stroke:none;" d="M223 114L223 122L224 122L226 115L223 114z"></path>

<path style="fill:#010101; stroke:none;" d="M49.3333 116.667L49.6667 117.333L49.3333 116.667z"></path>
<path style="fill:#010101; stroke:none;" d="M206 116L208 119L208 116L206 116M214 116L215 123L216 123L214 116M218.333 116.667L218.667 117.333L218.333 116.667M41 117L42 118L41 117z"></path>
<path style="fill:#010101; stroke:none;" d="M212 117L211 123L210 123L210 120L209 120L210 128L209 128L209 125L208 125L210 129L208 135L211 135L212 117M215 117L216 118L215 117M204 118L205 119L204 118z"></path>
<path style="fill:#010101; stroke:none;" d="M205 118L206 119L205 118M213 118L214 119L213 118z"></path>
<path style="fill:#010101; stroke:none;" d="M216 118L216 120L218 120L218 118L216 118z"></path>
<path style="fill:#010101; stroke:none;" d="M36 119L37 120L36 119z"></path>
<path style="fill:#010101; stroke:none;" d="M38.3333 119.667L38.6667 120.333L38.3333 119.667M40 119L41 120L40 119z"></path>
<path style="fill:#010101; stroke:none;" d="M197 119L198 120L197 119z"></path>
<path style="fill:#010101; stroke:none;" d="M221 119L222 120L221 119M197 120L198 124L197 120z"></path>
<path style="fill:#010101; stroke:none;" d="M212 120L213 121L212 120z"></path>
<path style="fill:#010101; stroke:none;" d="M218 120L218 124L219 124L218 120z"></path>
<path style="fill:#010101; stroke:none;" d="M34 121L35 122L34 121z"></path>
<path style="fill:#010101; stroke:none;" d="M195 121L196 122L195 121z"></path>

<path style="fill:#010101; stroke:none;" d="M207 121L206 123L208 123L207 121M212.333 121.667L212.667 122.333L212.333 121.667z"></path>
<path style="fill:#010101; stroke:none;" d="M36 122L37 123L36 122z"></path>
<path style="fill:#010101; stroke:none;" d="M37 122L38 123L37 122z"></path>
<path style="fill:#010101; stroke:none;" d="M47 122L48 123L47 122z"></path>
<path style="fill:#010101; stroke:none;" d="M199 122L201 126L199 122z"></path>
<path style="fill:#010101; stroke:none;" d="M240.667 122.333L241.333 122.667L240.667 122.333z"></path>
<path style="fill:#010101; stroke:none;" d="M35 123L36 124L35 123z"></path>

<path style="fill:#010101; stroke:none;" d="M214 123L215 124L214 123z"></path>
<path style="fill:#010101; stroke:none;" d="M220 123L221 124L220 123z"></path>
<path style="fill:#010101; stroke:none;" d="M221 123L222 124L221 123z"></path>
<path style="fill:#010101; stroke:none;" d="M226 123L227 130L226 123z"></path>
<path style="fill:#010101; stroke:none;" d="M34 124L31 125L34 128L34 124z"></path>
<path style="fill:#010101; stroke:none;" d="M36.3333 124.667L36.6667 125.333L36.3333 124.667M192 124L193 125L192 124z"></path>
<path style="fill:#010101; stroke:none;" d="M198 124L199 125L198 124M201 124L202 125L201 124z"></path>

<path style="fill:#010101; stroke:none;" d="M205 124L205 127L206 127L205 124z"></path>
<path style="fill:#010101; stroke:none;" d="M206 124L207 125L206 124z"></path>
<path style="fill:#010101; stroke:none;" d="M207 124L208 125L207 124z"></path>
<path style="fill:#010101; stroke:none;" d="M211 124L212 125L211 124z"></path>
<path style="fill:#010101; stroke:none;" d="M216 124L217 125L216 124z"></path>

<path style="fill:#010101; stroke:none;" d="M211 125L211 133L212 133L211 125z"></path>
<path style="fill:#010101; stroke:none;" d="M213 125L215 127L213 125z"></path>
<path style="fill:#010101; stroke:none;" d="M218.333 125.667L218.667 126.333L218.333 125.667z"></path>
<path style="fill:#010101; stroke:none;" d="M222 125L223 126L222 125M35 126L36 127L35 126z"></path>
<path style="fill:#010101; stroke:none;" d="M46 126L47 127L46 126z"></path>

<path style="fill:#010101; stroke:none;" d="M220 126L219 129L220 129L220 126z"></path>
<path style="fill:#010101; stroke:none;" d="M37.3333 127.667L37.6667 128.333L37.3333 127.667z"></path>
<path style="fill:#010101; stroke:none;" d="M44 127L45 128L44 127z"></path>

<path style="fill:#010101; stroke:none;" d="M190 127L193 131L193 130L193 129L190 127z"></path>
<path style="fill:#010101; stroke:none;" d="M199 127L201 129L199 127z"></path>
<path style="fill:#010101; stroke:none;" d="M212 127L213 128L212 127z"></path>
<path style="fill:#010101; stroke:none;" d="M220 127L221 128L220 127z"></path>
<path style="fill:#010101; stroke:none;" d="M223 127L224 128L223 127z"></path>
<path style="fill:#010101; stroke:none;" d="M228.667 127.333L229.333 127.667L228.667 127.333M40.6667 128.333L41.3333 128.667L40.6667 128.333z"></path>
<path style="fill:#010101; stroke:none;" d="M48 128L50 133L48 128z"></path>
<path style="fill:#010101; stroke:none;" d="M189 128L190 129L189 128M203 129L203 130L206 130L206 129L203 129z"></path>
<path style="fill:#010101; stroke:none;" d="M35 129L36 130L35 129M41.3333 129.667L41.6667 130.333L41.3333 129.667z"></path>

<path style="fill:#010101; stroke:none;" d="M193.333 129.667L193.667 130.333L193.333 129.667M217 129L217 134L218 134L217 129z"></path>
<path style="fill:#010101; stroke:none;" d="M222 129L224 132L222 129z"></path>
<path style="fill:#010101; stroke:none;" d="M188 130L189 131L188 130z"></path>
<path style="fill:#010101; stroke:none;" d="M190 130L191 131L190 130z"></path>
<path style="fill:#010101; stroke:none;" d="M206.333 130.667L206.667 131.333L206.333 130.667M218 130L221 132L218 130z"></path>
<path style="fill:#010101; stroke:none;" d="M232 130L234 133L232 130M35 131L36 132L35 131z"></path>
<path style="fill:#010101; stroke:none;" d="M39 131L40 132L39 131z"></path>
<path style="fill:#010101; stroke:none;" d="M43 131L41 134L43 131z"></path>

<path style="fill:#010101; stroke:none;" d="M215 131L215 134L216 134L215 131z"></path>
<path style="fill:#010101; stroke:none;" d="M218 131L218 134L219 134L218 131z"></path>
<path style="fill:#010101; stroke:none;" d="M227 131L228 132L227 131M183 132L183 135L184 135L183 132z"></path>
<path style="fill:#010101; stroke:none;" d="M209 132L210 133L209 132z"></path>
<path style="fill:#010101; stroke:none;" d="M212 132L213 133L212 132M225 132L226 133L225 132z"></path>
<path style="fill:#010101; stroke:none;" d="M227 132L227 140L228 140L227 132z"></path>
<path style="fill:#010101; stroke:none;" d="M231 132L232 136L233 136L231 132M36 133L39 135L39 134L36 133M208 133L209 134L208 133z"></path>
<path style="fill:#010101; stroke:none;" d="M213 133L214 134L213 133z"></path>
<path style="fill:#010101; stroke:none;" d="M220 133L220 136L221 136L220 133z"></path>
<path style="fill:#010101; stroke:none;" d="M37 134L38 135L37 134z"></path>
<path style="fill:#010101; stroke:none;" d="M40 134L41 135L40 134z"></path>
<path style="fill:#010101; stroke:none;" d="M41 134L42 135L41 134z"></path>
<path style="fill:#010101; stroke:none;" d="M44 134L44 137L45 137L44 134z"></path>
<path style="fill:#010101; stroke:none;" d="M214 134L215 135L214 134z"></path>
<path style="fill:#010101; stroke:none;" d="M217 134L218 135L217 134z"></path>
<path style="fill:#010101; stroke:none;" d="M224 134L226 136L224 134M33 135L33 137L35 135L33 135M39 135L41 137L39 135z"></path>
<path style="fill:#010101; stroke:none;" d="M199 135L200 136L199 135M209 135L211 137L209 135z"></path>
<path style="fill:#010101; stroke:none;" d="M212 135L213 136L212 135M216 135L217 136L216 135M228 135L229 136L228 135z"></path>
<path style="fill:#010101; stroke:none;" d="M217.333 136.667L217.667 137.333L217.333 136.667z"></path>
<path style="fill:#010101; stroke:none;" d="M220 136L222 139L220 136z"></path>
<path style="fill:#010101; stroke:none;" d="M231 136L232 137L231 136M30.6667 137.333L31.3333 137.667L30.6667 137.333z"></path>
<path style="fill:#010101; stroke:none;" d="M211 137L211 140L212 140L211 137z"></path>
<path style="fill:#010101; stroke:none;" d="M219 137L219 140L221 139L221 138L219 137M221 137L222 138L221 137M226 137L226 140L227 140L226 137M228 137L229 138L228 137z"></path>
<path style="fill:#010101; stroke:none;" d="M233 137L234 138L233 137M39 138L40 139L39 138z"></path>
<path style="fill:#010101; stroke:none;" d="M212.333 138.667L212.667 139.333L212.333 138.667z"></path>
<path style="fill:#010101; stroke:none;" d="M231 138L232 139L231 138z"></path>
<path style="fill:#010101; stroke:none;" d="M41 139L42 140L41 139z"></path>
<path style="fill:#010101; stroke:none;" d="M199 139L199 140L207 143C205.657 138.954 202.935 139.047 199 139z"></path>
<path style="fill:#010101; stroke:none;" d="M214 139L215 140L214 139M221 139L222 140L221 139M228 139L229 140L228 139z"></path>
<path style="fill:#010101; stroke:none;" d="M40.3333 140.667L40.6667 141.333L40.3333 140.667M43 140L44 141L43 140z"></path>

<path style="fill:#010101; stroke:none;" d="M213 140L214 141L213 140z"></path>
<path style="fill:#010101; stroke:none;" d="M215 140L216 141L215 140z"></path>
<path style="fill:#010101; stroke:none;" d="M216 140L217 141L216 140z"></path>
<path style="fill:#010101; stroke:none;" d="M229 140L229 144L230 144L229 140z"></path>
<path style="fill:#010101; stroke:none;" d="M45 141L46 142L45 141z"></path>
<path style="fill:#010101; stroke:none;" d="M198.667 141.333L199.333 141.667L198.667 141.333z"></path>

<path style="fill:#010101; stroke:none;" d="M217 141L210 145L208 142L207 157L209 154L214 152L215 152L215 156L211 155L211 161L212 161L216 157L215 148L218 142L219 142L219 145L220 145L220 141L217 141z"></path>
<path style="fill:#010101; stroke:none;" d="M220.333 141.667L220.667 142.333L220.333 141.667z"></path>
<path style="fill:#010101; stroke:none;" d="M226 141L227 142L226 141z"></path>
<path style="fill:#010101; stroke:none;" d="M41 142L42 145L39 143L35 156C41.5132 156.529 45.7537 146.321 41 142M47 142L47 148L48 148L47 142z"></path>
<path style="fill:#010101; stroke:none;" d="M196 142L197 143L196 142z"></path>
<path style="fill:#010101; stroke:none;" d="M213 142L214 143L213 142M215 142L216 143L215 142z"></path>
<path style="fill:#010101; stroke:none;" d="M218 142L219 143L218 142z"></path>
<path style="fill:#010101; stroke:none;" d="M223 142L223 145L224 145L223 142z"></path>
<path style="fill:#010101; stroke:none;" d="M33 143L33 146L34 146L33 143z"></path>

<path style="fill:#010101; stroke:none;" d="M218 143L219 144L218 143z"></path>
<path style="fill:#010101; stroke:none;" d="M220 143L219 152L220 152L220 143z"></path>
<path style="fill:#010101; stroke:none;" d="M225.667 143.333L226.333 143.667L225.667 143.333z"></path>
<path style="fill:#010101; stroke:none;" d="M217.333 144.667L217.667 145.333L217.333 144.667z"></path>

<path style="fill:#010101; stroke:none;" d="M221 144L221 147L222 147L221 144z"></path>
<path style="fill:#010101; stroke:none;" d="M35 146L35 150L36 150L35 146z"></path>
<path style="fill:#010101; stroke:none;" d="M36 146L36 150L37 150L36 146z"></path>
<path style="fill:#010101; stroke:none;" d="M50 146L51 147L50 146z"></path>
<path style="fill:#010101; stroke:none;" d="M150.333 146.667L150.667 147.333L150.333 146.667z"></path>
<path style="fill:#010101; stroke:none;" d="M212 146L213 147L212 146M215 146L214 148L215 146z"></path>
<path style="fill:#010101; stroke:none;" d="M217.333 146.667L217.667 147.333L217.333 146.667z"></path>
<path style="fill:#010101; stroke:none;" d="M139 147L140 148L139 147z"></path>
<path style="fill:#010101; stroke:none;" d="M154 147L155 148L154 147z"></path>
<path style="fill:#010101; stroke:none;" d="M202 147L202 150L204 147L202 147z"></path>
<path style="fill:#010101; stroke:none;" d="M46.3333 148.667L46.6667 149.333L46.3333 148.667z"></path>
<path style="fill:#010101; stroke:none;" d="M52.6667 148.333L53.3333 148.667L52.6667 148.333z"></path>
<path style="fill:#010101; stroke:none;" d="M145 148L146 149L145 148z"></path>
<path style="fill:#010101; stroke:none;" d="M149 148L150 149L149 148z"></path>
<path style="fill:#010101; stroke:none;" d="M152 148L153 149L152 148z"></path>
<path style="fill:#010101; stroke:none;" d="M198 150L201 149L198 150z"></path>
<path style="fill:#010101; stroke:none;" d="M215 148L216 150L217 150L218 148L215 148z"></path>

<path style="fill:#010101; stroke:none;" d="M141 149L142 150L141 149M147.333 149.667L147.667 150.333L147.333 149.667z"></path>
<path style="fill:#010101; stroke:none;" d="M151 149C149.446 151.21 149.726 151.586 152 153L151 149M157.667 149.333L158.333 149.667L157.667 149.333z"></path>
<path style="fill:#010101; stroke:none;" d="M212 149L212 153L213 153L212 149M214.333 149.667L214.667 150.333L214.333 149.667z"></path>
<path style="fill:#010101; stroke:none;" d="M216 153L217 153L220 150L216 153M221 149L222 150L221 149z"></path>
<path style="fill:#010101; stroke:none;" d="M54 150L55 151L54 150z"></path>
<path style="fill:#010101; stroke:none;" d="M138 150L139 151L138 150z"></path>
<path style="fill:#010101; stroke:none;" d="M144.333 150.667L144.667 151.333L144.333 150.667z"></path>

<path style="fill:#010101; stroke:none;" d="M154 150L155 151L154 150z"></path>
<path style="fill:#010101; stroke:none;" d="M218 150L219 151L218 150z"></path>
<path style="fill:#010101; stroke:none;" d="M220.333 150.667L220.667 151.333L220.333 150.667M35 151L36 152L35 151z"></path>
<path style="fill:#010101; stroke:none;" d="M36 151L37 152L36 151z"></path>
<path style="fill:#010101; stroke:none;" d="M46 151L45 153L47 153L46 151z"></path>
<path style="fill:#010101; stroke:none;" d="M133 151L132 154L134 153L133 156L134 156L136 151L135 151L134 153L133 151M172.667 151.333L173.333 151.667L172.667 151.333z"></path>
<path style="fill:#010101; stroke:none;" d="M217 151L218 152L217 151M221.333 151.667L221.667 152.333L221.333 151.667M33 152L32 154L33 152z"></path>
<path style="fill:#010101; stroke:none;" d="M35 152L35 155L36 155L35 152z"></path>
<path style="fill:#010101; stroke:none;" d="M48 152L47 155L48 152z"></path>

<path style="fill:#010101; stroke:none;" d="M141 152L142 153L141 152z"></path>
<path style="fill:#010101; stroke:none;" d="M153.667 152.333L154.333 152.667L153.667 152.333M156 152L157 153L156 152M160 152L161 153L160 152z"></path>
<path style="fill:#010101; stroke:none;" d="M214 152L209 156L215 156L214 152z"></path>
<path style="fill:#010101; stroke:none;" d="M34.3333 153.667L34.6667 154.333L34.3333 153.667z"></path>
<path style="fill:#010101; stroke:none;" d="M50 153L50 154L53 154L50 153M55 153L56 154L55 153M130 153L131 154L130 153z"></path>
<path style="fill:#010101; stroke:none;" d="M152 153L153 154L152 153M157 153L158 154L157 153M159 153L160 154L159 153M192 153C191.658 156.807 190.398 159.657 194 162L194 161L194 155L199 156L199 155L192 153z"></path>
<path style="fill:#010101; stroke:none;" d="M197 153L198 154L197 153z"></path>
<path style="fill:#010101; stroke:none;" d="M216.333 153.667L216.667 154.333L216.333 153.667z"></path>
<path style="fill:#010101; stroke:none;" d="M220 153L221 154L220 153M33 154L33 157L34 157L33 154z"></path>
<path style="fill:#010101; stroke:none;" d="M41.3333 154.667L41.6667 155.333L41.3333 154.667M43 154L42 160L43 160L43 154z"></path>
<path style="fill:#010101; stroke:none;" d="M45 154L46 155L45 154z"></path>
<path style="fill:#010101; stroke:none;" d="M48 154L46 159L48 154z"></path>
<path style="fill:#010101; stroke:none;" d="M94 154L92 155L92 156L94 154M107 154L108 155L107 154M153 154L153 158L154 158L157 154L153 154z"></path>
<path style="fill:#010101; stroke:none;" d="M160 154L160 156L162 156L160 154z"></path>
<path style="fill:#010101; stroke:none;" d="M206 154L205 156L206 154z"></path>
<path style="fill:#010101; stroke:none;" d="M53 155L53 157L55 157L53 155M64 155L64 157L66 157L64 155M100 155L101 156L100 155M144 155L144 156L148 157L148 156L144 155M149 155L151 157L149 155z"></path>
<path style="fill:#010101; stroke:none;" d="M186 155L189 159L186 155M190 155L191 156L190 155z"></path>
<path style="fill:#010101; stroke:none;" d="M194 155L196 157L194 155z"></path>

<path style="fill:#010101; stroke:none;" d="M216.333 155.667L216.667 156.333L216.333 155.667z"></path>
<path style="fill:#010101; stroke:none;" d="M38 156L39 157L38 156z"></path>
<path style="fill:#010101; stroke:none;" d="M39.6667 156.333L40.3333 156.667L39.6667 156.333z"></path>
<path style="fill:#010101; stroke:none;" d="M44 156L44 159L45 159L44 156z"></path>
<path style="fill:#010101; stroke:none;" d="M47 156L48 157L47 156z"></path>
<path style="fill:#010101; stroke:none;" d="M105 156L107 159L105 156M136 156L137 157L136 156z"></path>
<path style="fill:#010101; stroke:none;" d="M162 156L163 157L162 156M165 156L166 157L165 156M168.333 156.667L168.667 157.333L168.333 156.667M170 156L170 157L174 158L170 156M180 156L180 157L184 158L180 156z"></path>
<path style="fill:#010101; stroke:none;" d="M194 156L194 160L195 160L194 156M203.667 156.333L204.333 156.667L203.667 156.333z"></path>
<path style="fill:#010101; stroke:none;" d="M209 156L210 159L211 159L211 156L209 156z"></path>
<path style="fill:#010101; stroke:none;" d="M212 156L213 157L212 156z"></path>

<path style="fill:#010101; stroke:none;" d="M57 157L58 158L57 157z"></path>
<path style="fill:#010101; stroke:none;" d="M97 157L97 160L98 160L99 157L97 157z"></path>
<path style="fill:#010101; stroke:none;" d="M101 157L99 158L99 159L101 157z"></path>
<path style="fill:#010101; stroke:none;" d="M107 157L108 161L109 161L107 157z"></path>
<path style="fill:#010101; stroke:none;" d="M132 157C130.435 159.203 129.556 161.789 127 160L126 161L128 165L129 165L132 157z"></path>
<path style="fill:#010101; stroke:none;" d="M134 157L135 158L134 157z"></path>
<path style="fill:#010101; stroke:none;" d="M152.333 157.667L152.667 158.333L152.333 157.667z"></path>
<path style="fill:#010101; stroke:none;" d="M157.667 157.333L158.333 157.667L157.667 157.333z"></path>
<path style="fill:#010101; stroke:none;" d="M161 157L162 158L161 157M179.333 157.667L179.667 158.333L179.333 157.667M195 159L197 161C200.09 160.89 200.155 162.525 199 165L203 160C200.608 157.529 197.54 156.033 195 159z"></path>

<path style="fill:#010101; stroke:none;" d="M206.333 157.667L206.667 158.333L206.333 157.667z"></path>

<path style="fill:#010101; stroke:none;" d="M213 157L214 158L213 157z"></path>
<path style="fill:#010101; stroke:none;" d="M214 157L216 159L214 157z"></path>
<path style="fill:#010101; stroke:none;" d="M215 157L216 158L215 157z"></path>
<path style="fill:#010101; stroke:none;" d="M217.333 157.667L217.667 158.333L217.333 157.667M37 158L37 159L40 159L37 158M52 160L55 159L52 160M94 158L95 159L94 158z"></path>

<path style="fill:#010101; stroke:none;" d="M102 158L103 159L102 158M182.333 158.667L182.667 159.333L182.333 158.667z"></path>
<path style="fill:#010101; stroke:none;" d="M185 158L186 159L185 158z"></path>
<path style="fill:#010101; stroke:none;" d="M192 158L194 163L197 158L196 158L195 161L192 158z"></path>

<path style="fill:#010101; stroke:none;" d="M208 158L208 161L209 161L208 158z"></path>
<path style="fill:#010101; stroke:none;" d="M212.333 158.667L212.667 159.333L212.333 158.667z"></path>
<path style="fill:#010101; stroke:none;" d="M40 159L41 160L40 159z"></path>
<path style="fill:#010101; stroke:none;" d="M48 159L49 160L48 159z"></path>
<path style="fill:#010101; stroke:none;" d="M56 159L57 160L56 159z"></path>
<path style="fill:#010101; stroke:none;" d="M90 159L91 160L90 159z"></path>
<path style="fill:#010101; stroke:none;" d="M101 159L102 160L101 159M126 159L127 160L126 159M164 159L165 160L164 159M170 159L171 160L170 159M173.667 159.333L174.333 159.667L173.667 159.333z"></path>
<path style="fill:#010101; stroke:none;" d="M183.333 159.667L183.667 160.333L183.333 159.667z"></path>
<path style="fill:#010101; stroke:none;" d="M192.333 159.667L192.667 160.333L192.333 159.667z"></path>

<path style="fill:#010101; stroke:none;" d="M199 159L200 160L199 159z"></path>
<path style="fill:#010101; stroke:none;" d="M207 159L208 160L207 159z"></path>
<path style="fill:#010101; stroke:none;" d="M209 159L207 165L208 165L210 164L212 162L212 161L209 159z"></path>
<path style="fill:#010101; stroke:none;" d="M213 159L214 160L213 159z"></path>
<path style="fill:#010101; stroke:none;" d="M41 160L42 161L41 160z"></path>
<path style="fill:#010101; stroke:none;" d="M71 160L72 161L71 160z"></path>
<path style="fill:#010101; stroke:none;" d="M76 160L77 161L76 160M78 160L79 161L78 160M104.333 160.667L104.667 161.333L104.333 160.667M152 160L153 161L152 160z"></path>

<path style="fill:#010101; stroke:none;" d="M178 160L179 161L178 160M195 160L196 161L195 160z"></path>
<path style="fill:#010101; stroke:none;" d="M198 160L199 161L198 160z"></path>
<path style="fill:#010101; stroke:none;" d="M203 160L205 162L203 160z"></path>
<path style="fill:#010101; stroke:none;" d="M209 160L210 161L209 160z"></path>
<path style="fill:#010101; stroke:none;" d="M212 160L213 161L212 160z"></path>
<path style="fill:#010101; stroke:none;" d="M50 161L51 162L50 161M107 161L108 162L107 161M122 161L122 164L123 164L122 161M176.333 161.667L176.667 162.333L176.333 161.667M184 161L185 162L184 161z"></path>
<path style="fill:#010101; stroke:none;" d="M186 161L187 162L186 161z"></path>
<path style="fill:#010101; stroke:none;" d="M194 161L195 162L194 161M197.667 161.333L198.333 161.667L197.667 161.333z"></path>
<path style="fill:#010101; stroke:none;" d="M201 161L202 162L201 161z"></path>
<path style="fill:#010101; stroke:none;" d="M80 162L81 163L80 162z"></path>
<path style="fill:#010101; stroke:none;" d="M82 162L83 163L82 162z"></path>
<path style="fill:#010101; stroke:none;" d="M114 162L115 163L114 162z"></path>
<path style="fill:#010101; stroke:none;" d="M117 162L118 163L117 162z"></path>
<path style="fill:#010101; stroke:none;" d="M179 162L180 163L179 162z"></path>
<path style="fill:#010101; stroke:none;" d="M182 162L183 163L182 162M196 162L197 163L196 162z"></path>
<path style="fill:#010101; stroke:none;" d="M199 162L199 164L201 162L199 162z"></path>
<path style="fill:#010101; stroke:none;" d="M202 162L203 163L202 162z"></path>
<path style="fill:#010101; stroke:none;" d="M207 162L208 163L207 162M210.667 162.333L211.333 162.667L210.667 162.333z"></path>
<path style="fill:#010101; stroke:none;" d="M120 163L120 166L121 166L120 163M125 163L126 164L125 163M127 163L128 164L127 163z"></path>

<path style="fill:#010101; stroke:none;" d="M188 163L189 164L188 163z"></path>
<path style="fill:#010101; stroke:none;" d="M193 163L194 164L193 163z"></path>
<path style="fill:#010101; stroke:none;" d="M208 163L209 164L208 163z"></path>
<path style="fill:#010101; stroke:none;" d="M117 164L118 165L117 164z"></path>
<path style="fill:#010101; stroke:none;" d="M123.667 164.333L124.333 164.667L123.667 164.333z"></path>
<path style="fill:#010101; stroke:none;" d="M181.667 164.333L182.333 164.667L181.667 164.333M189.333 164.667L189.667 165.333L189.333 164.667M201 164L200 166L201 164z"></path>
<path style="fill:#010101; stroke:none;" d="M208 164L209 165L208 164z"></path>

<path style="fill:#010101; stroke:none;" d="M118 165L119 166L118 165z"></path>
<path style="fill:#010101; stroke:none;" d="M125 165L126 166L125 165M130 165L131 166L130 165M187 165L186 167L188 167L187 165M197 165L198 166L197 165M122.667 166.333L123.333 166.667L122.667 166.333M194 166L195 167L194 166z"></path>

</svg>
