<?xml version="1.0" standalone="no"?><!DOCTYPE svg PUBLIC "-//W3C//DTD SVG 1.1//EN" "http://www.w3.org/Graphics/SVG/1.1/DTD/svg11.dtd" ><svg xmlns="http://www.w3.org/2000/svg"><metadata></metadata><defs><font id="ParaTypeLtd: PT Mono: 2012" horiz-adv-x="600"><font-face font-family="PT Mono" font-weight="400" font-stretch="normal" units-per-em="1000" panose-1="2 6 5 9 2 2 5 2 2 4" ascent="885" descent="-235" x-height="4" bbox="-36 -235 728 915" underline-thickness="50" underline-position="-75" unicode-range="U+0020-fb02" /><missing-glyph horiz-adv-x="600" d="M10 700 l580 0 l0 -700 l-580 0 l0 700 ZM495 630 l-195 -217 l-195 217 l-50 -50 l197 -220 l-197 -220 l50 -50 l195 217 l195 -217 l50 50 l-198 220 l198 220 l-50 50 Z" /><glyph glyph-name="space" unicode=" " d="" /><glyph glyph-name="exclam" unicode="!" d="M259 700 l83 0 l0 -347 l-17 -176 l-49 0 l-17 176 l0 347 ZM242 46 q0 27 15.5 42.5 q15.5 15.5 41.5 15.5 q27 0 43 -15.5 q16 -15.5 16 -42.5 q0 -26 -16 -42 q-16 -16 -43 -16 q-26 0 -41.5 16 q-15.5 16 -15.5 42 Z" /><glyph glyph-name="quotedbl" unicode="&quot;" d="M359 700 l88 0 l-31 -303 l-57 0 l0 303 ZM152 700 l88 0 l-31 -303 l-57 0 l0 303 Z" /><glyph glyph-name="numbersign" unicode="#" d="M342 225 l-145 0 l-39 -167 l-69 0 l39 167 l-98 0 l14 64 l99 0 l31 131 l-94 0 l14 64 l95 0 l38 158 l69 0 l-38 -158 l145 0 l38 158 l69 0 l-38 -158 l97 0 l-16 -64 l-96 0 l-31 -131 l93 0 l-16 -64 l-92 0 l-39 -167 l-69 0 l39 167 ZM212 289 l145 0 l31 131 l-145 0 l-31 -131 Z" /><glyph glyph-name="dollar" unicode="$" d="M263 -12 q-55 1 -97.5 9.5 q-42.5 8.5 -68.5 22.5 l27 73 q20 -12 54.5 -21.5 q34.5 -9.5 84.5 -11.5 l0 270 q-30 15 -59.5 32 q-29.5 17 -52.5 40.5 q-23 23.5 -37 55.5 q-14 32 -14 76 q0 72 40.5 118 q40.5 46 122.5 57 l0 91 l68 0 l0 -88 q51 -2 83.5 -9.5 q32.5 -7.5 58.5 -19.5 l-24 -70 q-20 10 -48 17.5 q-28 7.5 -70 9.5 l0 -247 q31 -16 62 -34.5 q31 -18.5 55.5 -42.5 q24.5 -24 39.5 -56 q15 -32 15 -75 q0 -78 -43.5 -128.5 q-43.5 -50.5 -128.5 -64.5 l0 -92 l-68 0 l0 88 ZM420 178 q0 24 -8.5 43 q-8.5 19 -22.5 34 q-14 15 -33 27 q-19 12 -41 23 l0 -243 q46 8 75.5 36 q29.5 28 29.5 80 ZM183 539 q0 -43 27.5 -70 q27.5 -27 68.5 -49 l0 219 q-53 -6 -74.5 -35 q-21.5 -29 -21.5 -65 Z" /><glyph glyph-name="percent" unicode="%" d="M28 542 q0 47 11.5 79.5 q11.5 32.5 29.5 52.5 q18 20 41 29 q23 9 46 9 q23 0 46 -8 q23 -8 41 -27.5 q18 -19.5 29.5 -52 q11.5 -32.5 11.5 -82.5 q0 -49 -11.5 -81.5 q-11.5 -32.5 -29.5 -52 q-18 -19.5 -41 -27.5 q-23 -8 -46 -8 q-23 0 -46 8 q-23 8 -41 27.5 q-18 19.5 -29.5 52 q-11.5 32.5 -11.5 81.5 ZM98 542 q0 -59 18.5 -82.5 q18.5 -23.5 39.5 -23.5 q11 0 21.5 4.5 q10.5 4.5 18.5 16.5 q8 12 13 32.5 q5 20.5 5 52.5 q0 31 -5 51.5 q-5 20.5 -13 33 q-8 12.5 -18.5 17.5 q-10.5 5 -21.5 5 q-23 0 -40.5 -23.5 q-17.5 -23.5 -17.5 -83.5 ZM315 169 q0 47 11.5 79.5 q11.5 32.5 29.5 52.5 q18 20 41 29 q23 9 46 9 q23 0 46 -8 q23 -8 41 -27.5 q18 -19.5 29.5 -52 q11.5 -32.5 11.5 -82.5 q0 -49 -11.5 -81.5 q-11.5 -32.5 -29.5 -52 q-18 -19.5 -41 -27.5 q-23 -8 -46 -8 q-23 0 -46 8 q-23 8 -41 27.5 q-18 19.5 -29.5 52 q-11.5 32.5 -11.5 81.5 ZM385 169 q0 -59 18.5 -82.5 q18.5 -23.5 39.5 -23.5 q11 0 21.5 4 q10.5 4 18.5 15.5 q8 11.5 13 32.5 q5 21 5 54 q0 31 -5 51.5 q-5 20.5 -13 33 q-8 12.5 -18.5 17.5 q-10.5 5 -21.5 5 q-11 0 -21.5 -5 q-10.5 -5 -18.5 -17 q-8 -12 -13 -32.5 q-5 -20.5 -5 -52.5 ZM442 718 l57 -29 l-348 -703 l-57 26 l348 706 Z" /><glyph glyph-name="ampersand" unicode="&amp;" d="M30 207 q0 66 37 126 q37 60 103 101 q-24 36 -41.5 72 q-17.5 36 -17.5 78 q0 24 8 47 q8 23 25.5 41 q17.5 18 45 29 q27.5 11 66.5 11 q41 0 69 -10.5 q28 -10.5 45 -27.5 q17 -17 24.5 -38 q7.5 -21 7.5 -43 q0 -42 -32.5 -86.5 q-32.5 -44.5 -102.5 -85.5 q16 -29 37.5 -59.5 q21.5 -30.5 45.5 -60.5 q24 -30 49 -59.5 q25 -29.5 50 -54.5 q11 16 19.5 39 q8.5 23 14 48 q5.5 25 8 50 q2.5 25 2.5 46 l71 0 q-3 -63 -20 -125.5 q-17 -62.5 -50 -105.5 q14 -17 32 -33.5 q18 -16.5 43 -32.5 l0 -85 q-53 26 -121 93 q-18 -18 -36.5 -34.5 q-18.5 -16.5 -41.5 -29.5 q-23 -13 -52.5 -21 q-29.5 -8 -68.5 -8 q-41 0 -80 13.5 q-39 13.5 -70 40.5 q-31 27 -50 68 q-19 41 -19 97 ZM401 131 q-29 29 -57 63 q-28 34 -53.5 68 q-25.5 34 -47 65.5 q-21.5 31.5 -36.5 55.5 q-54 -41 -75.5 -83 q-21.5 -42 -21.5 -90 q0 -39 14.5 -67.5 q14.5 -28.5 36.5 -47.5 q22 -19 48.5 -28 q26.5 -9 51.5 -9 q50 0 83.5 22.5 q33.5 22.5 56.5 50.5 ZM189 584 q0 -30 12.5 -59.5 q12.5 -29.5 32.5 -58.5 q53 34 73.5 62 q20.5 28 20.5 49 q0 32 -15.5 52 q-15.5 20 -53.5 20 q-36 0 -53 -18 q-17 -18 -17 -47 Z" /><glyph glyph-name="quotesingle" unicode="&#39;" d="M261 700 l88 0 l-31 -303 l-57 0 l0 303 Z" /><glyph glyph-name="parenleft" unicode="(" d="M432 -212 q-67 17 -125.5 50.5 q-58.5 33.5 -102 87.5 q-43.5 54 -69 132 q-25.5 78 -25.5 185 q0 106 26 185.5 q26 79.5 70 135 q44 55.5 102.5 89 q58.5 33.5 123.5 47.5 l25 -63 q-59 -17 -108 -44.5 q-49 -27.5 -84.5 -73 q-35.5 -45.5 -55 -113 q-19.5 -67.5 -19.5 -163.5 q0 -97 23.5 -165.5 q23.5 -68.5 62 -114 q38.5 -45.5 86 -71 q47.5 -25.5 95.5 -35.5 l-25 -69 Z" /><glyph glyph-name="parenright" unicode=")" d="M143 -143 q48 10 95.5 35.5 q47.5 25.5 86 71 q38.5 45.5 62 114 q23.5 68.5 23.5 165.5 q0 96 -19.5 163.5 q-19.5 67.5 -55 113 q-35.5 45.5 -84.5 73 q-49 27.5 -108 44.5 l25 63 q65 -14 123.5 -47.5 q58.5 -33.5 102.5 -89 q44 -55.5 70 -135 q26 -79.5 26 -185.5 q0 -107 -25.5 -185 q-25.5 -78 -69 -132 q-43.5 -54 -102 -87.5 q-58.5 -33.5 -125.5 -50.5 l-25 69 Z" /><glyph glyph-name="asterisk" unicode="*" d="M213 714 l89 -175 l86 176 l69 -37 l-121 -169 l203 15 l0 -81 l-197 16 l116 -161 l-67 -39 l-93 179 l-88 -179 l-72 39 l121 161 l-198 -16 l0 81 l198 -17 l-115 168 l69 39 Z" /><glyph glyph-name="plus" unicode="+" d="M48 374 l216 0 l0 221 l72 0 l0 -221 l216 0 l0 -72 l-216 0 l0 -221 l-72 0 l0 221 l-216 0 l0 72 Z" /><glyph glyph-name="comma" unicode="," d="M229 55 q0 30 19.5 48.5 q19.5 18.5 50.5 18.5 q38 0 59 -26.5 q21 -26.5 21 -74.5 q0 -39 -13 -68.5 q-13 -29.5 -32.5 -50 q-19.5 -20.5 -42 -33 q-22.5 -12.5 -41.5 -18.5 l-25 39 q36 14 62 40 q26 26 26 63 q-14 -3 -22 -3 q-29 0 -45.5 16.5 q-16.5 16.5 -16.5 48.5 Z" /><glyph glyph-name="hyphen" unicode="-" d="M129 325 l342 0 l0 -74 l-342 0 l0 74 Z" /><glyph glyph-name="period" unicode="." d="M233 55 q0 32 18 49.5 q18 17.5 48 17.5 q32 0 50 -17.5 q18 -17.5 18 -49.5 q0 -29 -18 -48 q-18 -19 -50 -19 q-30 0 -48 19 q-18 19 -18 48 Z" /><glyph glyph-name="slash" unicode="/" d="M451 712 l63 -28 l-365 -824 l-63 28 l365 824 Z" /><glyph glyph-name="zero" unicode="0" d="M55 350 q0 85 15 152.5 q15 67.5 45 114 q30 46.5 76 71 q46 24.5 109 24.5 q67 0 113.5 -24 q46.5 -24 75.5 -70 q29 -46 42 -113.5 q13 -67.5 13 -154.5 q0 -85 -15 -152.5 q-15 -67.5 -45 -114 q-30 -46.5 -76 -71 q-46 -24.5 -109 -24.5 q-66 0 -112.5 26.5 q-46.5 26.5 -76 74.5 q-29.5 48 -42.5 114.5 q-13 66.5 -13 146.5 ZM462 350 q0 53 -6 101 l-297 -271 q17 -57 51 -91 q34 -34 89 -34 q88 0 125.5 73 q37.5 73 37.5 222 ZM138 350 q0 -25 1.5 -48 q1.5 -23 3.5 -45 l298 270 q-17 54 -50.5 86 q-33.5 32 -90.5 32 q-89 0 -125.5 -73.5 q-36.5 -73.5 -36.5 -221.5 Z" /><glyph glyph-name="one" unicode="1" d="M127 72 l157 0 l0 526 l-160 -112 l-39 57 l220 157 l56 0 l0 -628 l154 0 l0 -72 l-388 0 l0 72 Z" /><glyph glyph-name="two" unicode="2" d="M500 523 q0 -92 -87 -205 q-87 -113 -243 -246 l352 0 l0 -72 l-444 0 l0 72 q19 18 52 47 q33 29 71 64.5 q38 35.5 77.5 76.5 q39.5 41 71.5 84 q32 43 52 86 q20 43 20 83 q0 60 -31.5 94.5 q-31.5 34.5 -94.5 34.5 q-54 0 -91 -12 q-37 -12 -67 -35 l-34 55 q45 32 95.5 47 q50.5 15 110.5 15 q94 0 142 -51 q48 -51 48 -138 Z" /><glyph glyph-name="three" unicode="3" d="M248 57 q40 0 73.5 10.5 q33.5 10.5 58.5 29.5 q25 19 39 46 q14 27 14 60 q0 69 -48.5 98.5 q-48.5 29.5 -130.5 29.5 l-64 0 l0 48 l197 249 l-299 0 l0 72 l395 0 l0 -72 l-197 -231 l16 0 q46 0 84 -13 q38 -13 66 -37 q28 -24 43.5 -58 q15.5 -34 15.5 -77 q0 -54 -21 -96 q-21 -42 -57 -70.5 q-36 -28.5 -84.5 -43 q-48.5 -14.5 -103.5 -14.5 q-51 0 -88.5 7.5 q-37.5 7.5 -68.5 18.5 l20 70 q26 -12 61 -19.5 q35 -7.5 79 -7.5 Z" /><glyph glyph-name="four" unicode="4" d="M580 218 l-135 0 l0 -218 l-78 0 l0 218 l-323 0 l0 58 l335 424 l66 0 l0 -416 l135 0 l0 -66 ZM367 575 l-231 -291 l231 0 l0 291 Z" /><glyph glyph-name="five" unicode="5" d="M256 58 q38 0 70 9.5 q32 9.5 54.5 29 q22.5 19.5 35 48.5 q12.5 29 12.5 68 q0 72 -51.5 109.5 q-51.5 37.5 -140.5 37.5 l-94 -5 l0 345 l343 0 l0 -72 l-268 0 l0 -203 l50 2 q111 0 175 -54 q64 -54 64 -154 q0 -56 -19.5 -99 q-19.5 -43 -53.5 -72.5 q-34 -29.5 -80.5 -44.5 q-46.5 -15 -101.5 -15 q-30 0 -57 4.5 q-27 4.5 -49 11 q-22 6.5 -38.5 14 q-16.5 7.5 -23.5 13.5 l32 65 q17 -10 52 -24 q35 -14 89 -14 Z" /><glyph glyph-name="six" unicode="6" d="M539 211 q0 -43 -15.5 -83 q-15.5 -40 -45.5 -71 q-30 -31 -74 -50 q-44 -19 -102 -19 q-54 0 -98 17 q-44 17 -76 48.5 q-32 31.5 -49.5 77.5 q-17.5 46 -17.5 103 q0 94 27.5 178 q27.5 84 77 148 q49.5 64 118 104 q68.5 40 150.5 48 l14 -64 q-63 -8 -115.5 -37 q-52.5 -29 -91.5 -72 q-39 -43 -63.5 -95 q-24.5 -52 -31.5 -106 q8 13 23.5 27 q15.5 14 37 24.5 q21.5 10.5 48 17.5 q26.5 7 57.5 7 q53 0 95 -14.5 q42 -14.5 71.5 -41 q29.5 -26.5 45 -64 q15.5 -37.5 15.5 -83.5 ZM457 203 q0 70 -39 107 q-39 37 -120 37 q-29 0 -54 -7 q-25 -7 -45 -18.5 q-20 -11.5 -35 -26.5 q-15 -15 -23 -30 q-2 -14 -2 -22 q0 -8 0 -19 q0 -30 10 -60.5 q10 -30.5 30.5 -54.5 q20.5 -24 51.5 -39 q31 -15 73 -15 q34 0 62 12 q28 12 48.5 32 q20.5 20 31.5 47 q11 27 11 57 Z" /><glyph glyph-name="seven" unicode="7" d="M124 0 l306 628 l-361 0 l0 72 l442 0 l0 -65 l-305 -635 l-82 0 Z" /><glyph glyph-name="eight" unicode="8" d="M75 170 q0 121 147 195 q-28 15 -52 31 q-24 16 -41.5 36 q-17.5 20 -27.5 46 q-10 26 -10 60 q0 37 15 69 q15 32 43 55 q28 23 68 36.5 q40 13.5 89 13.5 q46 0 83.5 -12 q37.5 -12 64 -33.5 q26.5 -21.5 40.5 -50.5 q14 -29 14 -62 q0 -57 -28.5 -104.5 q-28.5 -47.5 -91.5 -86.5 q29 -15 54 -32 q25 -17 43.5 -38 q18.5 -21 29 -47.5 q10.5 -26.5 10.5 -60.5 q0 -42 -15 -78.5 q-15 -36.5 -44.5 -62.5 q-29.5 -26 -72.5 -41 q-43 -15 -100 -15 q-53 0 -94 15 q-41 15 -68.5 40 q-27.5 25 -41.5 58 q-14 33 -14 69 ZM446 180 q0 29 -13.5 51.5 q-13.5 22.5 -36 40.5 q-22.5 18 -51.5 33 q-29 15 -60 30 q-72 -35 -102.5 -77 q-30.5 -42 -30.5 -79 q0 -25 9.5 -47.5 q9.5 -22.5 28 -39.5 q18.5 -17 46 -27 q27.5 -10 63.5 -10 q29 0 55.5 8 q26.5 8 47 23.5 q20.5 15.5 32.5 39 q12 23.5 12 54.5 ZM169 541 q0 -28 13 -50 q13 -22 34.5 -39.5 q21.5 -17.5 49.5 -32 q28 -14.5 59 -28.5 q53 35 79.5 70 q26.5 35 26.5 77 q0 25 -10.5 44.5 q-10.5 19.5 -28 33.5 q-17.5 14 -40.5 21.5 q-23 7.5 -48 7.5 q-32 0 -57 -9 q-25 -9 -42 -24 q-17 -15 -26.5 -33.5 q-9.5 -18.5 -9.5 -37.5 Z" /><glyph glyph-name="nine" unicode="9" d="M61 489 q0 46 15 86.5 q15 40.5 45.5 71 q30.5 30.5 75.5 48 q45 17.5 105 17.5 q56 0 100 -18 q44 -18 74.5 -50.5 q30.5 -32.5 46.5 -79 q16 -46.5 16 -103.5 q0 -112 -28 -197 q-28 -85 -78 -144 q-50 -59 -118.5 -92 q-68.5 -33 -148.5 -40 l-15 63 q66 7 118 32 q52 25 90 64 q38 39 62 90 q24 51 33 109 q-16 -17 -32.5 -28.5 q-16.5 -11.5 -36.5 -18.5 q-20 -7 -44 -10 q-24 -3 -55 -3 q-46 0 -87 14 q-41 14 -71.5 40.5 q-30.5 26.5 -48.5 64 q-18 37.5 -18 84.5 ZM143 497 q0 -72 43.5 -108 q43.5 -36 115.5 -36 q57 0 98.5 17.5 q41.5 17.5 58.5 43.5 q2 14 2 22.5 q0 8.5 0 19.5 q0 35 -9.5 69 q-9.5 34 -29.5 61 q-20 27 -51.5 43.5 q-31.5 16.5 -75.5 16.5 q-72 0 -112 -39 q-40 -39 -40 -110 Z" /><glyph glyph-name="less" unicode="&lt;" d="M45 305 l0 29 l471 287 l38 -62 l-397 -235 l398 -231 l-38 -60 l-472 272 Z" /><glyph glyph-name="greater" unicode="&gt;" d="M83 33 l-38 60 l398 231 l-397 235 l38 62 l471 -287 l0 -29 l-472 -272 Z" /><glyph glyph-name="question" unicode="?" d="M232 177 q-1 5 -1 11 q0 6 0 11 q0 42 15.5 72 q15.5 30 38.5 53.5 q23 23.5 49.5 42.5 q26.5 19 49.5 40.5 q23 21.5 38.5 47.5 q15.5 26 15.5 62 q0 19 -9 41 q-9 22 -27.5 41 q-18.5 19 -48 31 q-29.5 12 -70.5 12 q-33 0 -59.5 -8 q-26.5 -8 -48 -20 q-21.5 -12 -39 -26.5 q-17.5 -14.5 -31.5 -27.5 l-51 46 q42 53 108.5 79.5 q66.5 26.5 152.5 26.5 q52 0 91 -17 q39 -17 64.5 -43.5 q25.5 -26.5 38 -59 q12.5 -32.5 12.5 -63.5 q0 -48 -16.5 -80.5 q-16.5 -32.5 -41.5 -58 q-25 -25.5 -53.5 -46 q-28.5 -20.5 -53.5 -44 q-25 -23.5 -41.5 -52.5 q-16.5 -29 -16.5 -71 l-66 0 ZM212 46 q0 27 15.5 42.5 q15.5 15.5 41.5 15.5 q27 0 43 -15.5 q16 -15.5 16 -42.5 q0 -26 -16 -42 q-16 -16 -43 -16 q-26 0 -41.5 16 q-15.5 16 -15.5 42 Z" /><glyph glyph-name="at" unicode="@" d="M527 327 q0 -38 -2 -81 q-2 -43 -3 -86 q0 -50 6 -95 l67 0 l0 -65 l-133 0 l-9 75 l-5 0 q-6 -9 -15 -23 q-9 -14 -24.5 -27.5 q-15.5 -13.5 -40.5 -23.5 q-25 -10 -63 -10 q-32 0 -59.5 10 q-27.5 10 -47.5 28.5 q-20 18.5 -31.5 44.5 q-11.5 26 -11.5 59 q0 51 22 85 q22 34 61 52 q39 18 92.5 21 q53.5 3 116.5 -8 q3 50 -1 86.5 q-4 36.5 -18 60 q-14 23.5 -39.5 35 q-25.5 11.5 -65.5 11.5 q-42 0 -83.5 -21 q-41.5 -21 -73.5 -61.5 q-32 -40.5 -52 -99 q-20 -58.5 -20 -132.5 q0 -79 21.5 -137 q21.5 -58 57.5 -96 q36 -38 83.5 -56.5 q47.5 -18.5 100.5 -18.5 q22 0 47.5 5.5 q25.5 5.5 50 15.5 q24.5 10 46 24.5 q21.5 14.5 37.5 32.5 l41 -53 q-42 -45 -101.5 -68.5 q-59.5 -23.5 -128.5 -23.5 q-58 0 -116 19.5 q-58 19.5 -105 63 q-47 43.5 -76.5 114 q-29.5 70.5 -29.5 172.5 q0 99 28 171.5 q28 72.5 73 120.5 q45 48 102 71.5 q57 23.5 115 23.5 q52 0 88 -13 q36 -13 58 -39.5 q22 -26.5 31.5 -67 q9.5 -40.5 9.5 -96.5 ZM325 58 q28 0 49 9 q21 9 35 23 q14 14 23 30.5 q9 16.5 15 31.5 l0 70 q-47 9 -85.5 9 q-38.5 0 -66.5 -9.5 q-28 -9.5 -43 -29.5 q-15 -20 -15 -52 q0 -33 21.5 -57.5 q21.5 -24.5 66.5 -24.5 Z" /><glyph glyph-name="A" unicode="A" d="M431 194 l-269 0 l-64 -194 l-82 0 l234 700 l98 0 l236 -700 l-87 0 l-66 194 ZM188 266 l220 0 l-103 329 l-12 0 l-105 -329 Z" /><glyph glyph-name="B" unicode="B" d="M522 540 q0 -25 -8 -51 q-8 -26 -24 -48.5 q-16 -22.5 -41 -39.5 q-25 -17 -59 -26 l0 -4 q30 -5 57.5 -17 q27.5 -12 48.5 -33 q21 -21 34 -51 q13 -30 13 -71 q0 -54 -22.5 -93.5 q-22.5 -39.5 -59 -64.5 q-36.5 -25 -83.5 -37 q-47 -12 -96 -12 q-17 0 -40 0 q-23 0 -48 1.5 q-25 1.5 -50 4 q-25 2.5 -44 7.5 l0 689 q37 6 86 10 q49 4 107 4 q39 0 79.5 -6.5 q40.5 -6.5 73.5 -25 q33 -18.5 54.5 -51.5 q21.5 -33 21.5 -85 ZM290 64 q32 0 62 8 q30 8 53 24 q23 16 36.5 40 q13.5 24 13.5 57 q0 41 -16.5 66 q-16.5 25 -43 39 q-26.5 14 -59.5 19 q-33 5 -66 5 l-87 0 l0 -251 q7 -2 20 -3 q13 -1 28 -2 q15 -1 31 -1.5 q16 -0.5 28 -0.5 ZM235 392 q17 0 41 1 q24 1 40 3 q24 8 45 19.5 q21 11.5 37.5 27.5 q16.5 16 26 36 q9.5 20 9.5 44 q0 33 -12.5 55 q-12.5 22 -33.5 35 q-21 13 -48 18 q-27 5 -55 5 q-33 0 -60.5 -1.5 q-27.5 -1.5 -41.5 -4.5 l0 -238 l52 0 Z" /><glyph glyph-name="C" unicode="C" d="M458 624 q-17 7 -37.5 10.5 q-20.5 3.5 -49.5 3.5 q-41 0 -80.5 -15 q-39.5 -15 -70 -49 q-30.5 -34 -49 -89 q-18.5 -55 -18.5 -135 q0 -72 16.5 -126 q16.5 -54 46 -90 q29.5 -36 71 -54 q41.5 -18 92.5 -18 q26 0 48.5 4.5 q22.5 4.5 41.5 12.5 l0 100 l74 0 l0 -135 l1 -2 q-30 -23 -76 -38.5 q-46 -15.5 -112 -15.5 q-63 0 -116.5 21.5 q-53.5 21.5 -92.5 65.5 q-39 44 -60.5 112.5 q-21.5 68.5 -21.5 162.5 q0 98 24 166.5 q24 68.5 65 112 q41 43.5 95.5 63.5 q54.5 20 116.5 20 q34 0 59 -2.5 q25 -2.5 44 -7 q19 -4.5 33.5 -11.5 q14.5 -7 28.5 -16 l1 0 l0 -158 l-74 0 l0 107 Z" /><glyph glyph-name="D" unicode="D" d="M80 700 q38 5 79.5 6.5 q41.5 1.5 70.5 1.5 q91 0 152.5 -26 q61.5 -26 99 -72.5 q37.5 -46.5 54 -111.5 q16.5 -65 16.5 -143 q0 -71 -15 -136.5 q-15 -65.5 -52 -116 q-37 -50.5 -99.5 -81 q-62.5 -30.5 -156.5 -30.5 q-13 0 -34 0.5 q-21 0.5 -43 2 q-22 1.5 -42 2.5 q-20 1 -30 3 l0 701 ZM234 634 q-14 0 -35.5 -1 q-21.5 -1 -35.5 -4 l0 -560 q5 -1 14.5 -1.5 q9.5 -0.5 19.5 -1 q10 -0.5 19.5 -1 q9.5 -0.5 15.5 -0.5 q73 0 118.5 24 q45.5 24 70.5 64.5 q25 40.5 34 93 q9 52.5 9 108.5 q0 49 -8 98.5 q-8 49.5 -32.5 89.5 q-24.5 40 -70 65.5 q-45.5 25.5 -119.5 25.5 Z" /><glyph glyph-name="E" unicode="E" d="M107 700 l411 0 l0 -74 l-328 0 l0 -229 l303 0 l0 -74 l-303 0 l0 -249 l333 0 l0 -74 l-416 0 l0 700 Z" /><glyph glyph-name="F" unicode="F" d="M117 700 l401 0 l0 -74 l-318 0 l0 -239 l298 0 l0 -74 l-298 0 l0 -313 l-83 0 l0 700 Z" /><glyph glyph-name="G" unicode="G" d="M437 631 q-34 7 -83 7 q-42 0 -80.5 -14.5 q-38.5 -14.5 -68 -48.5 q-29.5 -34 -47 -89 q-17.5 -55 -17.5 -136 q0 -148 54.5 -218 q54.5 -70 157.5 -70 q64 0 109 25 l0 195 l-144 0 l0 67 l215 0 l0 -308 q-16 -12 -38.5 -22 q-22.5 -10 -48 -17 q-25.5 -7 -53 -10.5 q-27.5 -3.5 -53.5 -3.5 q-67 0 -120 21.5 q-53 21.5 -90 66 q-37 44.5 -57 113 q-20 68.5 -20 161.5 q0 97 25 166 q25 69 66 112.5 q41 43.5 94 63.5 q53 20 109 20 q60 0 99 -6.5 q39 -6.5 66 -17.5 l-1 -4 l0 -167 l-74 0 l0 114 Z" /><glyph glyph-name="H" unicode="H" d="M457 321 l-314 0 l0 -321 l-83 0 l0 700 l83 0 l0 -305 l314 0 l0 305 l83 0 l0 -700 l-83 0 l0 321 Z" /><glyph glyph-name="I" unicode="I" d="M60 700 l480 0 l0 -74 l-199 0 l0 -552 l199 0 l0 -74 l-480 0 l0 74 l198 0 l0 552 l-198 0 l0 74 Z" /><glyph glyph-name="J" unicode="J" d="M97 700 l396 0 l0 -452 q0 -126 -60 -192 q-60 -66 -173 -66 q-29 0 -57 5 q-28 5 -52 13.5 q-24 8.5 -41.5 18.5 q-17.5 10 -25.5 19 l36 66 q11 -7 24.5 -15 q13.5 -8 30 -15.5 q16.5 -7.5 37 -12.5 q20.5 -5 46.5 -5 q75 0 113.5 47 q38.5 47 38.5 152 l0 363 l-313 0 l0 74 Z" /><glyph glyph-name="K" unicode="K" d="M245 324 l-77 0 l0 -324 l-83 0 l0 700 l83 0 l0 -312 l75 0 l225 312 l96 0 l-247 -333 l278 -367 l-105 0 l-245 324 Z" /><glyph glyph-name="L" unicode="L" d="M90 700 l83 0 l0 -626 l283 0 l0 174 l74 0 l0 -248 l-440 0 l0 700 Z" /><glyph glyph-name="M" unicode="M" d="M457 465 l10 95 l-5 0 l-48 -86 l-102 -171 l-25 0 l-107 172 l-46 85 l-5 0 l12 -94 l0 -466 l-81 0 l0 700 l77 0 l166 -266 l2 0 l160 266 l75 0 l0 -700 l-83 0 l0 465 Z" /><glyph glyph-name="N" unicode="N" d="M196 438 l-54 101 l-4 0 l10 -101 l0 -438 l-78 0 l0 700 l54 0 l282 -436 l52 -96 l5 0 l-11 96 l0 436 l78 0 l0 -700 l-54 0 l-280 438 Z" /><glyph glyph-name="O" unicode="O" d="M48 350 q0 174 61.5 268 q61.5 94 189.5 94 q70 0 118.5 -26 q48.5 -26 78.5 -73.5 q30 -47.5 43 -114 q13 -66.5 13 -148.5 q0 -174 -61.5 -268 q-61.5 -94 -191.5 -94 q-69 0 -117 26 q-48 26 -78 73.5 q-30 47.5 -43 114 q-13 66.5 -13 148.5 ZM136 350 q0 -58 7.5 -110 q7.5 -52 26.5 -91.5 q19 -39.5 50 -63 q31 -23.5 79 -23.5 q86 0 125.5 70 q39.5 70 39.5 218 q0 57 -7.5 109.5 q-7.5 52.5 -26.5 92 q-19 39.5 -51 63 q-32 23.5 -80 23.5 q-85 0 -124 -70.5 q-39 -70.5 -39 -217.5 Z" /><glyph glyph-name="P" unicode="P" d="M100 693 q38 9 82 12 q44 3 87 3 q46 0 93.5 -9 q47.5 -9 86.5 -33 q39 -24 63.5 -66 q24.5 -42 24.5 -107 q0 -64 -23 -108 q-23 -44 -61 -71.5 q-38 -27.5 -87 -39.5 q-49 -12 -101 -12 q-5 0 -16.5 0 q-11.5 0 -24 0.5 q-12.5 0.5 -24.5 1.5 q-12 1 -17 2 l0 -266 l-83 0 l0 693 ZM271 636 q-26 0 -50 -1 q-24 -1 -38 -5 l0 -290 q5 -2 16 -2.5 q11 -0.5 23 -1 q12 -0.5 23 -0.5 q11 0 16 0 q34 0 67.5 6.5 q33.5 6.5 60.5 23.5 q27 17 43.5 48 q16.5 31 16.5 79 q0 41 -15.5 68.5 q-15.5 27.5 -41 44 q-25.5 16.5 -57.5 23.5 q-32 7 -64 7 Z" /><glyph glyph-name="Q" unicode="Q" d="M48 350 q0 174 61.5 268 q61.5 94 189.5 94 q70 0 118.5 -26 q48.5 -26 78.5 -73.5 q30 -47.5 43 -114 q13 -66.5 13 -148.5 q0 -161 -51 -252.5 q-51 -91.5 -160 -106.5 q9 -35 33.5 -52.5 q24.5 -17.5 62.5 -17.5 q43 0 77 22 l22 -61 q-14 -16 -43.5 -25.5 q-29.5 -9.5 -61.5 -9.5 q-27 0 -55.5 7.5 q-28.5 7.5 -53.5 24.5 q-25 17 -43.5 44.5 q-18.5 27.5 -24.5 68.5 q-57 8 -96 36.5 q-39 28.5 -63.5 75 q-24.5 46.5 -35.5 109 q-11 62.5 -11 137.5 ZM136 350 q0 -58 7.5 -110 q7.5 -52 26.5 -91.5 q19 -39.5 50 -63 q31 -23.5 79 -23.5 q86 0 125.5 70 q39.5 70 39.5 218 q0 57 -7.5 109.5 q-7.5 52.5 -26.5 92 q-19 39.5 -51 63 q-32 23.5 -80 23.5 q-85 0 -124 -70.5 q-39 -70.5 -39 -217.5 Z" /><glyph glyph-name="R" unicode="R" d="M100 693 q38 7 87.5 11 q49.5 4 90.5 4 q46 0 87.5 -10 q41.5 -10 73 -33 q31.5 -23 50.5 -60 q19 -37 19 -90 q0 -41 -13.5 -72.5 q-13.5 -31.5 -33 -54 q-19.5 -22.5 -40.5 -36.5 q-21 -14 -36 -20 l185 -332 l-97 0 l-165 308 l-125 0 l0 -308 l-83 0 l0 693 ZM280 636 q-13 0 -27 0 q-14 0 -27 -1 q-13 -1 -24.5 -2 q-11.5 -1 -18.5 -3 l0 -258 l78 0 q69 0 114 34 q45 34 45 106 q0 54 -37 89 q-37 35 -103 35 Z" /><glyph glyph-name="S" unicode="S" d="M150 99 q30 -16 67.5 -26.5 q37.5 -10.5 75.5 -10.5 q33 0 62 6.5 q29 6.5 50.5 21 q21.5 14.5 34 36.5 q12.5 22 12.5 52 q0 41 -27.5 67 q-27.5 26 -68.5 46 q-41 20 -89 39 q-48 19 -89 45 q-41 26 -68.5 63.5 q-27.5 37.5 -27.5 95.5 q0 41 16.5 74 q16.5 33 46.5 56 q30 23 72.5 35.5 q42.5 12.5 94.5 12.5 q60 0 109 -8.5 q49 -8.5 78 -22.5 l2 1 l0 -2 l1 0 l-1 -3 l0 -160 l-74 0 l0 107 q-25 6 -55 10 q-30 4 -64 4 q-33 0 -59.5 -8 q-26.5 -8 -45 -21.5 q-18.5 -13.5 -28.5 -31.5 q-10 -18 -10 -38 q0 -39 27.5 -65 q27.5 -26 68.5 -46.5 q41 -20.5 89 -40.5 q48 -20 89 -46.5 q41 -26.5 68.5 -63.5 q27.5 -37 27.5 -92 q0 -45 -16.5 -81 q-16.5 -36 -47 -62 q-30.5 -26 -75 -40 q-44.5 -14 -100.5 -14 q-38 0 -72 6 q-34 6 -62.5 15 q-28.5 9 -51 19 q-22.5 10 -35.5 17 l1 3 l0 162 l74 0 l0 -111 Z" /><glyph glyph-name="T" unicode="T" d="M40 700 l520 0 l0 -183 l-74 0 l0 109 l-145 0 l0 -552 l110 0 l0 -74 l-303 0 l0 74 l110 0 l0 552 l-144 0 l0 -109 l-74 0 l0 183 Z" /><glyph glyph-name="U" unicode="U" d="M460 700 l80 0 l0 -467 q0 -63 -16.5 -109 q-16.5 -46 -46.5 -75.5 q-30 -29.5 -73 -43.5 q-43 -14 -95 -14 q-124 0 -186.5 56 q-62.5 56 -62.5 170 l0 483 l83 0 l0 -444 q0 -53 10.5 -89.5 q10.5 -36.5 31 -59 q20.5 -22.5 52 -32.5 q31.5 -10 73.5 -10 q81 0 115.5 44.5 q34.5 44.5 34.5 146.5 l0 444 Z" /><glyph glyph-name="V" unicode="V" d="M302 103 l11 0 l190 597 l83 0 l-235 -700 l-97 0 l-240 700 l91 0 l197 -597 Z" /><glyph glyph-name="W" unicode="W" d="M173 201 l5 -65 l7 0 l14 71 l74 273 l66 0 l69 -271 l18 -74 l5 0 l6 68 l74 497 l74 0 l-108 -700 l-83 0 l-81 284 l-10 68 l-3 0 l-11 -69 l-81 -283 l-84 0 l-109 700 l79 0 l79 -499 Z" /><glyph glyph-name="X" unicode="X" d="M251 356 l-211 344 l100 0 l140 -237 l25 -47 l24 47 l149 237 l92 0 l-219 -337 l229 -363 l-97 0 l-157 251 l-27 50 l-26 -50 l-160 -251 l-93 0 l231 356 Z" /><glyph glyph-name="Y" unicode="Y" d="M259 268 l-250 432 l97 0 l200 -346 l1 0 l195 346 l89 0 l-249 -431 l0 -269 l-83 0 l0 268 Z" /><glyph glyph-name="Z" unicode="Z" d="M55 75 l395 551 l-395 0 l0 74 l490 0 l0 -75 l-397 -551 l397 0 l0 -74 l-490 0 l0 75 Z" /><glyph glyph-name="bracketleft" unicode="[" d="M149 700 l341 0 l0 -70 l-263 0 l0 -790 l263 0 l0 -70 l-341 0 l0 930 Z" /><glyph glyph-name="backslash" unicode="\" d="M518 -111 l-66 -29 l-370 824 l67 28 l369 -823 Z" /><glyph glyph-name="bracketright" unicode="]" d="M451 -230 l-342 0 l0 70 l264 0 l0 790 l-264 0 l0 70 l342 0 l0 -930 Z" /><glyph glyph-name="asciicircum" unicode="^" d="M294 711 l29 0 l244 -410 l-82 0 l-180 308 l-187 -308 l-83 0 l259 410 Z" /><glyph glyph-name="underscore" unicode="_" d="M56 -135 l488 0 l0 -70 l-488 0 l0 70 Z" /><glyph glyph-name="grave" unicode="`" d="M370 571 l-55 0 l-119 149 l109 0 l65 -149 Z" /><glyph glyph-name="a" unicode="a" d="M108 461 q43 25 97 36 q54 11 106 11 q51 0 83.5 -16 q32.5 -16 51 -41.5 q18.5 -25.5 25 -58 q6.5 -32.5 6.5 -65.5 q0 -38 -2 -81 q-2 -43 -3 -86 q0 -50 6 -95 l67 0 l0 -65 l-133 0 l-9 75 l-5 0 q-6 -9 -18 -23 q-12 -14 -31.5 -27.5 q-19.5 -13.5 -47.5 -23.5 q-28 -10 -66 -10 q-74 0 -117 38 q-43 38 -43 104 q0 51 22.5 85 q22.5 34 64.5 52 q42 18 101.5 21 q59.5 3 133.5 -8 q5 46 1.5 76.5 q-3.5 30.5 -16 48.5 q-12.5 18 -35 25.5 q-22.5 7.5 -55.5 7.5 q-45 0 -86 -12.5 q-41 -12.5 -73 -25.5 l-25 58 ZM255 58 q28 0 52 9 q24 9 42 23 q18 14 30 30.5 q12 16.5 18 31.5 l0 70 q-52 9 -96 9 q-44 0 -76 -9.5 q-32 -9.5 -50 -29.5 q-18 -20 -18 -52 q0 -33 22.5 -57.5 q22.5 -24.5 75.5 -24.5 Z" /><glyph glyph-name="b" unicode="b" d="M2 700 l160 0 l0 -257 l5 0 q26 33 67 51 q41 18 89 18 q220 0 220 -254 q0 -129 -71 -197.5 q-71 -68.5 -202 -68.5 q-62 0 -112 12 q-50 12 -73 28 l0 601 l-83 0 l0 67 ZM313 445 q-60 0 -97 -34 q-37 -34 -54 -96 l0 -230 q23 -12 55 -19 q32 -7 67 -7 q40 0 72.5 11.5 q32.5 11.5 55.5 36 q23 24.5 35.5 62.5 q12.5 38 12.5 90 q0 38 -8 72 q-8 34 -25.5 59.5 q-17.5 25.5 -45.5 40 q-28 14.5 -68 14.5 Z" /><glyph glyph-name="c" unicode="c" d="M439 423 q-23 8 -49.5 13.5 q-26.5 5.5 -52.5 5.5 q-98 0 -146 -46 q-48 -46 -48 -146 q0 -44 14 -78.5 q14 -34.5 40 -58.5 q26 -24 62.5 -37 q36.5 -13 80.5 -13 q47 0 91.5 16 q44.5 16 74.5 42 l35 -58 q-14 -12 -35 -25 q-21 -13 -48.5 -24.5 q-27.5 -11.5 -61 -18.5 q-33.5 -7 -72.5 -7 q-65 0 -114.5 18.5 q-49.5 18.5 -82.5 53 q-33 34.5 -50 83 q-17 48.5 -17 107.5 q0 63 17.5 112 q17.5 49 50.5 82 q33 33 80 50.5 q47 17.5 105 17.5 q74 0 120.5 -13 q46.5 -13 78.5 -29 l-1 -3 l0 -139 l-72 0 l0 95 Z" /><glyph glyph-name="d" unicode="d" d="M349 700 l162 0 l0 -529 q0 -9 1 -22.5 q1 -13.5 2.5 -28.5 q1.5 -15 3.5 -29.5 q2 -14.5 4 -25.5 l67 0 l0 -65 l-133 0 l-10 77 l-4 0 q-22 -38 -65.5 -63.5 q-43.5 -25.5 -100.5 -25.5 q-113 0 -166.5 63.5 q-53.5 63.5 -53.5 197.5 q0 63 18 111.5 q18 48.5 51.5 81 q33.5 32.5 80.5 49.5 q47 17 105 17 q21 0 37.5 -1 q16.5 -1 30.5 -3 q14 -2 26.5 -5.5 q12.5 -3.5 27.5 -7.5 l0 142 l-84 0 l0 67 ZM289 55 q61 0 96 31.5 q35 31.5 48 94.5 l0 232 q-22 15 -49.5 22 q-27.5 7 -72.5 7 q-80 0 -126 -46.5 q-46 -46.5 -46 -146.5 q0 -41 7.5 -76.5 q7.5 -35.5 25 -61.5 q17.5 -26 46.5 -41 q29 -15 71 -15 Z" /><glyph glyph-name="e" unicode="e" d="M529 63 q-18 -16 -42.5 -30 q-24.5 -14 -53.5 -24 q-29 -10 -60.5 -15.5 q-31.5 -5.5 -63.5 -5.5 q-60 0 -106 18.5 q-46 18.5 -77 53 q-31 34.5 -47 82.5 q-16 48 -16 108 q0 63 17.5 112 q17.5 49 50.5 82 q33 33 80 50.5 q47 17.5 105 17.5 q42 0 83 -11 q41 -11 72.5 -41.5 q31.5 -30.5 48.5 -84 q17 -53.5 12 -138.5 l-387 0 q0 -90 48.5 -134.5 q48.5 -44.5 129.5 -44.5 q27 0 53.5 6.5 q26.5 6.5 50.5 15.5 q24 9 42.5 20 q18.5 11 28.5 20 l31 -57 ZM318 446 q-33 0 -62.5 -7 q-29.5 -7 -52 -23.5 q-22.5 -16.5 -37 -43 q-14.5 -26.5 -18.5 -65.5 l311 0 q-5 66 -42.5 102.5 q-37.5 36.5 -98.5 36.5 Z" /><glyph glyph-name="f" unicode="f" d="M88 0 l0 67 l119 0 l0 366 l-119 0 l0 67 l119 0 l0 28 q0 94 49 136 q49 42 140 42 q33 0 59 -4 q26 -4 56 -16 l-18 -65 q-26 11 -50 14.5 q-24 3.5 -44 3.5 q-66 0 -90 -32.5 q-24 -32.5 -24 -106.5 l207 0 l0 -67 l-207 0 l0 -366 l207 0 l0 -67 l-404 0 Z" /><glyph glyph-name="g" unicode="g" d="M524 -25 q0 -47 -18 -82.5 q-18 -35.5 -49.5 -58.5 q-31.5 -23 -73.5 -34.5 q-42 -11.5 -91 -11.5 q-59 0 -103 12 q-44 12 -76 31 l38 71 q9 -8 23.5 -15.5 q14.5 -7.5 33.5 -14 q19 -6.5 40.5 -10.5 q21.5 -4 42.5 -4 q44 0 73.5 8 q29.5 8 47.5 25 q18 17 26 44 q8 27 8 66 l0 56 l-4 0 q-23 -33 -59 -51 q-36 -18 -93 -18 q-114 0 -167.5 63.5 q-53.5 63.5 -53.5 197.5 q0 128 68 193.5 q68 65.5 202 65.5 q62 0 105.5 -8.5 q43.5 -8.5 79.5 -21.5 l0 -503 ZM301 55 q61 0 96 31.5 q35 31.5 49 96.5 l0 237 q-44 21 -123 21 q-80 0 -126 -47 q-46 -47 -46 -144 q0 -43 8 -78.5 q8 -35.5 25.5 -61.5 q17.5 -26 46 -40.5 q28.5 -14.5 70.5 -14.5 Z" /><glyph glyph-name="h" unicode="h" d="M4 700 l156 0 l0 -262 l5 0 q31 35 72 54.5 q41 19.5 102 19.5 q48 0 83.5 -10 q35.5 -10 58 -35 q22.5 -25 33.5 -68.5 q11 -43.5 11 -110.5 l0 -288 l-78 0 l0 273 q0 43 -5 75 q-5 32 -19.5 53.5 q-14.5 21.5 -39.5 32.5 q-25 11 -64 11 q-27 0 -53 -9.5 q-26 -9.5 -47.5 -26 q-21.5 -16.5 -37 -40 q-15.5 -23.5 -21.5 -51.5 l0 -318 l-77 0 l0 633 l-79 0 l0 67 Z" /><glyph glyph-name="i" unicode="i" d="M105 0 l0 67 l174 0 l0 366 l-174 0 l0 67 l254 0 l0 -433 l170 0 l0 -67 l-424 0 ZM252 642 q0 27 18 46.5 q18 19.5 46 19.5 q29 0 48.5 -19.5 q19.5 -19.5 19.5 -46.5 q0 -26 -19.5 -44 q-19.5 -18 -48.5 -18 q-28 0 -46 18 q-18 18 -18 44 Z" /><glyph glyph-name="j" unicode="j" d="M336 433 l-242 0 l0 67 l322 0 l0 -512 q0 -101 -51.5 -150.5 q-51.5 -49.5 -142.5 -49.5 q-27 0 -52.5 7 q-25.5 7 -47.5 16.5 q-22 9.5 -38.5 19.5 q-16.5 10 -24.5 16 l33 65 q27 -20 61.5 -35 q34.5 -15 71.5 -15 q60 0 85.5 37.5 q25.5 37.5 25.5 103.5 l0 430 ZM294 642 q0 27 18 46.5 q18 19.5 46 19.5 q29 0 48.5 -19.5 q19.5 -19.5 19.5 -46.5 q0 -26 -19.5 -44 q-19.5 -18 -48.5 -18 q-28 0 -46 18 q-18 18 -18 44 Z" /><glyph glyph-name="k" unicode="k" d="M24 700 l162 0 l0 -414 l55 0 l197 214 l94 0 l-221 -237 l182 -196 l65 0 l0 -67 l-103 0 l-214 226 l-55 0 l0 -226 l-77 0 l0 633 l-85 0 l0 67 Z" /><glyph glyph-name="l" unicode="l" d="M119 700 l166 0 l0 -532 q0 -61 20.5 -86 q20.5 -25 60.5 -25 q28 0 53.5 10 q25.5 10 56.5 34 l36 -55 q-16 -14 -35 -25 q-19 -11 -39 -18.5 q-20 -7.5 -40 -11.5 q-20 -4 -37 -4 q-37 0 -66 9.5 q-29 9.5 -48.5 30.5 q-19.5 21 -29.5 55.5 q-10 34.5 -10 85.5 l0 465 l-88 0 l0 67 Z" /><glyph glyph-name="m" unicode="m" d="M262 0 l0 333 q0 21 -1.5 40.5 q-1.5 19.5 -7 35 q-5.5 15.5 -16 24.5 q-10.5 9 -27.5 9 q-34 0 -57.5 -28 q-23.5 -28 -35.5 -70 l0 -344 l-76 0 l0 500 l52 0 l15 -61 l4 0 q10 15 19.5 28.5 q9.5 13.5 22 23.5 q12.5 10 29.5 15.5 q17 5.5 43 5.5 q15 0 31 -4.5 q16 -4.5 29.5 -14 q13.5 -9.5 23.5 -25.5 q10 -16 13 -39 q23 39 51.5 61 q28.5 22 78.5 22 q33 0 53.5 -11 q20.5 -11 32 -31.5 q11.5 -20.5 16 -49 q4.5 -28.5 4.5 -63.5 l0 -357 l-76 0 l0 340 q0 21 -2 39.5 q-2 18.5 -7.5 32.5 q-5.5 14 -15 22 q-9.5 8 -25.5 8 q-35 0 -59 -28 q-24 -28 -36 -80 l0 -334 l-76 0 Z" /><glyph glyph-name="n" unicode="n" d="M93 325 q0 9 -0.5 23.5 q-0.5 14.5 -1.5 30 q-1 15.5 -2.5 30.5 q-1.5 15 -3.5 26 l-67 0 l0 65 l134 0 l9 -81 l5 0 q10 17 26.5 33.5 q16.5 16.5 38.5 30 q22 13.5 49 21.5 q27 8 57 8 q46 0 81.5 -10 q35.5 -10 59 -35.5 q23.5 -25.5 35.5 -69 q12 -43.5 12 -110.5 l0 -287 l-78 0 l0 272 q0 83 -27 125 q-27 42 -98 42 q-26 0 -50.5 -10.5 q-24.5 -10.5 -44.5 -27.5 q-20 -17 -35 -39.5 q-15 -22.5 -22 -47.5 l0 -314 l-77 0 l0 325 Z" /><glyph glyph-name="o" unicode="o" d="M57 250 q0 121 63 191.5 q63 70.5 180 70.5 q63 0 108.5 -20.5 q45.5 -20.5 75.5 -55.5 q30 -35 44.5 -83 q14.5 -48 14.5 -103 q0 -60 -16 -108.5 q-16 -48.5 -47 -82.5 q-31 -34 -76.5 -52.5 q-45.5 -18.5 -103.5 -18.5 q-62 0 -108 20.5 q-46 20.5 -76 55.5 q-30 35 -44.5 83 q-14.5 48 -14.5 103 ZM140 250 q0 -35 8.5 -70 q8.5 -35 27.5 -63 q19 -28 49.5 -45 q30.5 -17 74.5 -17 q80 0 120.5 49.5 q40.5 49.5 40.5 145.5 q0 36 -8.5 70.5 q-8.5 34.5 -28 62.5 q-19.5 28 -50 45 q-30.5 17 -74.5 17 q-80 0 -120 -49 q-40 -49 -40 -146 Z" /><glyph glyph-name="p" unicode="p" d="M96 325 q0 9 -0.5 23.5 q-0.5 14.5 -1.5 30 q-1 15.5 -2.5 30.5 q-1.5 15 -3.5 26 l-67 0 l0 65 l133 0 l10 -70 l5 0 q27 35 68.5 58.5 q41.5 23.5 101.5 23.5 q107 0 161 -59 q54 -59 54 -193 q0 -63 -18.5 -113.5 q-18.5 -50.5 -52.5 -85.5 q-34 -35 -82 -54 q-48 -19 -106 -19 q-21 0 -37.5 1.5 q-16.5 1.5 -30 4 q-13.5 2.5 -26.5 6.5 q-13 4 -28 10 l0 -210 l-77 0 l0 525 ZM326 439 q-30 0 -56.5 -11 q-26.5 -11 -47 -29 q-20.5 -18 -33.5 -40 q-13 -22 -16 -44 l0 -228 q22 -15 49.5 -23.5 q27.5 -8.5 72.5 -8.5 q80 0 128 52.5 q48 52.5 48 153.5 q0 85 -33.5 131.5 q-33.5 46.5 -111.5 46.5 Z" /><glyph glyph-name="q" unicode="q" d="M515 -200 l-78 0 l0 256 l-4 0 q-23 -33 -59 -50.5 q-36 -17.5 -93 -17.5 q-114 0 -167.5 63.5 q-53.5 63.5 -53.5 197.5 q0 128 68 193.5 q68 65.5 202 65.5 q59 0 110 -10 q51 -10 75 -21 l0 -677 ZM293 55 q119 0 144 125 l0 241 q-22 11 -52.5 15.5 q-30.5 4.5 -69.5 4.5 q-80 0 -126 -46 q-46 -46 -46 -145 q0 -43 7.5 -78.5 q7.5 -35.5 25.5 -61.5 q18 -26 46.5 -40.5 q28.5 -14.5 70.5 -14.5 Z" /><glyph glyph-name="r" unicode="r" d="M66 0 l0 67 l135 0 l0 366 l-135 0 l0 67 l187 0 l16 -65 l5 0 q34 31 76 53 q42 22 100 22 q34 0 54.5 -13 q20.5 -13 32 -38 q11.5 -25 15.5 -60.5 q4 -35.5 4 -80.5 l-70 -1 q0 64 -12.5 94 q-12.5 30 -45.5 30 q-31 0 -56 -9 q-25 -9 -43.5 -22 q-18.5 -13 -31.5 -26 q-13 -13 -19 -22 l0 -295 l192 0 l0 -67 l-404 0 Z" /><glyph glyph-name="s" unicode="s" d="M438 135 q0 32 -25 49.5 q-25 17.5 -62 28 q-37 10.5 -80.5 19.5 q-43.5 9 -80.5 24 q-37 15 -62 40.5 q-25 25.5 -25 71.5 q0 38 16.5 65 q16.5 27 43.5 44.5 q27 17.5 63 26 q36 8.5 75 8.5 q70 0 120.5 -17.5 q50.5 -17.5 80.5 -36.5 l-32 -63 q-33 18 -71.5 34.5 q-38.5 16.5 -96.5 16.5 q-22 0 -43.5 -4.5 q-21.5 -4.5 -39 -13.5 q-17.5 -9 -28 -23.5 q-10.5 -14.5 -10.5 -35.5 q0 -26 25 -40 q25 -14 62 -23.5 q37 -9.5 80.5 -18 q43.5 -8.5 80.5 -24.5 q37 -16 62 -43 q25 -27 25 -73 q0 -69 -54.5 -114 q-54.5 -45 -163.5 -45 q-33 0 -65 6 q-32 6 -60 16 q-28 10 -51 22.5 q-23 12.5 -38 25.5 l40 65 q12 -12 32 -24.5 q20 -12.5 44 -22.5 q24 -10 51.5 -16 q27.5 -6 55.5 -6 q27 0 50.5 4.5 q23.5 4.5 41.5 14 q18 9.5 28.5 25 q10.5 15.5 10.5 37.5 Z" /><glyph glyph-name="t" unicode="t" d="M31 500 l119 0 l0 99 l78 22 l0 -121 l267 0 l0 -67 l-267 0 l0 -236 q0 -73 35.5 -108 q35.5 -35 101.5 -35 q45 0 78.5 17 q33.5 17 60.5 37 l26 -59 q-35 -28 -83.5 -45 q-48.5 -17 -99.5 -17 q-40 0 -75.5 11.5 q-35.5 11.5 -62.5 35.5 q-27 24 -43 61.5 q-16 37.5 -16 89.5 l0 248 l-119 0 l0 67 Z" /><glyph glyph-name="u" unicode="u" d="M363 500 l142 0 l0 -341 q0 -49 6 -94 l67 0 l0 -65 l-133 0 l-3 85 l-4 0 q-26 -43 -69 -70 q-43 -27 -104 -27 q-46 0 -78.5 10.5 q-32.5 10.5 -53.5 36.5 q-21 26 -31 69.5 q-10 43.5 -10 108.5 l0 220 l-67 0 l0 67 l145 0 l0 -271 q0 -41 3.5 -73.5 q3.5 -32.5 14.5 -55 q11 -22.5 32.5 -34 q21.5 -11.5 57.5 -11.5 q52 0 90.5 34 q38.5 34 58.5 85 l0 259 l-64 0 l0 67 Z" /><glyph glyph-name="v" unicode="v" d="M302 97 l11 0 l157 403 l87 0 l-211 -500 l-88 0 l-215 500 l92 0 l167 -403 Z" /><glyph glyph-name="w" unicode="w" d="M339 390 l100 -278 l7 0 l71 388 l73 0 l-98 -500 l-89 0 l-96 276 l-3 0 l-100 -276 l-89 0 l-105 500 l77 0 l81 -390 l6 0 l97 280 l68 0 Z" /><glyph glyph-name="x" unicode="x" d="M253 256 l-193 244 l100 0 l144 -188 l148 188 l90 0 l-193 -240 l205 -260 l-96 0 l-159 205 l-162 -205 l-91 0 l207 256 Z" /><glyph glyph-name="y" unicode="y" d="M311 77 l38 0 l124 423 l81 0 l-139 -449 q-11 -35 -22.5 -79.5 q-11.5 -44.5 -32.5 -83.5 q-21 -39 -57 -66 q-36 -27 -94 -27 q-13 0 -27.5 3 q-14.5 3 -28.5 7.5 q-14 4.5 -26 10.5 q-12 6 -18 12 l28 72 q6 -5 16.5 -10 q10.5 -5 23 -8.5 q12.5 -3.5 24.5 -6 q12 -2.5 20 -2.5 q75 0 102 127 l-67 0 l-210 500 l90 0 l175 -423 Z" /><glyph glyph-name="z" unicode="z" d="M84 67 l339 366 l-339 0 l0 67 l432 0 l0 -67 l-342 -366 l342 0 l0 -67 l-432 0 l0 67 Z" /><glyph glyph-name="braceleft" unicode="{" d="M220 32 q0 43 -14.5 74.5 q-14.5 31.5 -36 52.5 q-21.5 21 -46 31 q-24.5 10 -43.5 10 l0 70 q19 0 43.5 8.5 q24.5 8.5 46 28 q21.5 19.5 36 50.5 q14.5 31 14.5 77 l0 102 q0 36 11.5 66 q11.5 30 32 52 q20.5 22 49 34.5 q28.5 12.5 62.5 12.5 l145 0 l0 -70 l-110 0 q-63 0 -87.5 -30 q-24.5 -30 -24.5 -89 l0 -97 q0 -41 -15 -73 q-15 -32 -36 -53.5 q-21 -21.5 -43 -34 q-22 -12.5 -36 -14.5 l0 -6 q13 -2 35 -15.5 q22 -13.5 43 -37 q21 -23.5 36.5 -55.5 q15.5 -32 15.5 -71 l0 -96 q0 -61 26 -90 q26 -29 87 -29 l109 0 l0 -70 l-145 0 q-70 0 -112.5 41.5 q-42.5 41.5 -42.5 122.5 l0 98 Z" /><glyph glyph-name="bar" unicode="|" d="M266 700 l68 0 l0 -830 l-68 0 l0 830 Z" /><glyph glyph-name="braceright" unicode="}" d="M380 -66 q0 -81 -42.5 -122.5 q-42.5 -41.5 -112.5 -41.5 l-145 0 l0 70 l109 0 q61 0 87 29 q26 29 26 90 l0 96 q0 39 15 71 q15 32 36 55.5 q21 23.5 43 37 q22 13.5 36 15.5 l0 6 q-14 2 -36 14.5 q-22 12.5 -43 34 q-21 21.5 -36 53.5 q-15 32 -15 73 l0 97 q0 59 -24.5 89 q-24.5 30 -87.5 30 l-110 0 l0 70 l145 0 q34 0 62.5 -12.5 q28.5 -12.5 49 -34.5 q20.5 -22 32 -52 q11.5 -30 11.5 -66 l0 -102 q0 -46 14.5 -77 q14.5 -31 36 -50.5 q21.5 -19.5 46 -28 q24.5 -8.5 43.5 -8.5 l0 -70 q-19 0 -43.5 -10 q-24.5 -10 -46 -31 q-21.5 -21 -36 -52.5 q-14.5 -31.5 -14.5 -74.5 l0 -98 Z" /><glyph glyph-name="asciitilde" unicode="~" d="M78 361 q43 33 78 46 q35 13 64 13 q28 0 52 -8.5 q24 -8.5 46 -19 q22 -10.5 43 -19 q21 -8.5 44 -8.5 q19 0 39 8 q20 8 43 28 l34 -61 q-38 -26 -68.5 -36.5 q-30.5 -10.5 -55.5 -10.5 q-27 0 -49.5 8.5 q-22.5 8.5 -43 19 q-20.5 10.5 -41 19 q-20.5 8.5 -44.5 8.5 q-23 0 -49 -10.5 q-26 -10.5 -58 -36.5 l-34 60 Z" /><glyph glyph-name="uni00A0" unicode=" " d="" /><glyph glyph-name="exclamdown" unicode="¡" d="M341 -200 l-83 0 l0 347 l17 176 l49 0 l17 -176 l0 -347 ZM242 453 q0 27 15.5 42.5 q15.5 15.5 41.5 15.5 q27 0 43 -15.5 q16 -15.5 16 -42.5 q0 -26 -16 -42 q-16 -16 -43 -16 q-26 0 -41.5 16 q-15.5 16 -15.5 42 Z" /><glyph glyph-name="cent" unicode="¢" d="M517 29 q-12 -9 -30 -16 q-18 -7 -38 -12 q-20 -5 -41.5 -7.5 q-21.5 -2.5 -40.5 -2.5 l0 -91 l-71 0 l0 90 q-100 10 -156.5 79.5 q-56.5 69.5 -56.5 180.5 q0 57 17 102.5 q17 45.5 46 78.5 q29 33 67.5 52.5 q38.5 19.5 82.5 25.5 l0 91 l71 0 l0 -89 q44 0 81.5 -11.5 q37.5 -11.5 59.5 -22.5 l-23 -68 q-10 5 -24.5 10.5 q-14.5 5.5 -31.5 10.5 q-17 5 -35 8 q-18 3 -34 3 l0 -383 q16 0 35 2.5 q19 2.5 38 7 q19 4.5 34.5 10.5 q15.5 6 23.5 12 l26 -61 ZM166 250 q0 -33 8.5 -65 q8.5 -32 26 -58 q17.5 -26 43.5 -43.5 q26 -17.5 62 -21.5 l0 377 q-62 -8 -101 -56 q-39 -48 -39 -133 Z" /><glyph glyph-name="sterling" unicode="£" d="M77 383 l66 0 q-12 27 -20 57.5 q-8 30.5 -8 72.5 q0 98 56 148.5 q56 50.5 153 50.5 q61 0 106 -9 q45 -9 74 -23 l-26 -71 q-23 11 -61.5 20 q-38.5 9 -93.5 9 q-60 0 -92.5 -32.5 q-32.5 -32.5 -32.5 -87.5 q0 -42 10 -73.5 q10 -31.5 24 -61.5 l161 0 l0 -70 l-131 0 q8 -23 13 -48 q5 -25 5 -55 q0 -15 -2 -31 q-2 -16 -8 -33.5 q-6 -17.5 -18 -35.5 q-12 -18 -32 -36 l303 0 l0 -74 l-446 0 l0 72 q32 0 54.5 11.5 q22.5 11.5 37 30 q14.5 18.5 21.5 42 q7 23.5 7 47.5 q0 33 -6.5 59.5 q-6.5 26.5 -16.5 50.5 l-97 0 l0 70 Z" /><glyph glyph-name="currency" unicode="¤" d="M97 596 l107 -106 q39 27 95 27 q53 0 95 -28 l108 107 l49 -49 l-106 -108 q26 -41 26 -94 q0 -53 -26 -94 l106 -108 l-49 -48 l-106 105 q-41 -26 -97 -26 q-57 0 -97 27 l-105 -106 l-49 48 l105 107 q-25 41 -25 95 q0 26 7 50 q7 24 19 45 l-106 107 l49 49 ZM197 345 q0 -45 28.5 -75 q28.5 -30 73.5 -30 q45 0 74 30 q29 30 29 75 q0 45 -29 75.5 q-29 30.5 -74 30.5 q-45 0 -73.5 -30.5 q-28.5 -30.5 -28.5 -75.5 Z" /><glyph glyph-name="yen" unicode="¥" d="M137 328 l94 0 l-203 372 l97 0 l179 -340 l5 0 l173 340 l89 0 l-203 -372 l96 0 l0 -60 l-122 0 l0 -71 l122 0 l0 -60 l-122 0 l0 -137 l-83 0 l0 137 l-122 0 l0 60 l122 0 l0 71 l-122 0 l0 60 Z" /><glyph glyph-name="brokenbar" unicode="¦" d="M266 206 l68 0 l0 -336 l-68 0 l0 336 ZM334 364 l-68 0 l0 336 l68 0 l0 -336 Z" /><glyph glyph-name="section" unicode="§" d="M108 353 q0 15 4.5 33 q4.5 18 15 36 q10.5 18 27.5 35 q17 17 43 30 q-20 14 -36.5 36 q-16.5 22 -16.5 63 q0 56 41.5 91 q41.5 35 115.5 35 q54 0 91.5 -9 q37.5 -9 64.5 -22 l-19 -67 q-24 11 -57 19.5 q-33 8.5 -69 8.5 q-45 0 -66.5 -16 q-21.5 -16 -21.5 -43 q0 -26 19.5 -40.5 q19.5 -14.5 49.5 -25.5 q30 -11 64 -22 q34 -11 64 -28.5 q30 -17.5 49.5 -46 q19.5 -28.5 19.5 -73.5 q0 -31 -18 -67.5 q-18 -36.5 -72 -66.5 q27 -16 40 -37 q13 -21 13 -62 q0 -31 -12 -54.5 q-12 -23.5 -33.5 -39.5 q-21.5 -16 -50.5 -24 q-29 -8 -62 -8 q-56 0 -92 9.5 q-36 9.5 -64 23.5 l20 65 q23 -11 55.5 -19.5 q32.5 -8.5 70.5 -8.5 q42 0 65 13.5 q23 13.5 23 45.5 q0 26 -19.5 41 q-19.5 15 -49.5 26 q-30 11 -64 22 q-34 11 -64 28.5 q-30 17.5 -49.5 45.5 q-19.5 28 -19.5 73 ZM411 345 q0 25 -13 41 q-13 16 -34.5 27.5 q-21.5 11.5 -48.5 20 q-27 8.5 -54 18.5 q-29 -13 -51 -37 q-22 -24 -22 -60 q0 -25 13 -41 q13 -16 33.5 -27.5 q20.5 -11.5 47 -19.5 q26.5 -8 53.5 -18 q14 6 27.5 16 q13.5 10 24.5 22.5 q11 12.5 17.5 27 q6.5 14.5 6.5 30.5 Z" /><glyph glyph-name="dieresis" unicode="¨" d="M131 645 q0 26 15.5 42.5 q15.5 16.5 41.5 16.5 q25 0 41 -16.5 q16 -16.5 16 -42.5 q0 -24 -16 -40.5 q-16 -16.5 -41 -16.5 q-26 0 -41.5 16.5 q-15.5 16.5 -15.5 40.5 ZM354 645 q0 26 15.5 42.5 q15.5 16.5 40.5 16.5 q26 0 42.5 -16.5 q16.5 -16.5 16.5 -42.5 q0 -24 -16.5 -40.5 q-16.5 -16.5 -42.5 -16.5 q-25 0 -40.5 16.5 q-15.5 16.5 -15.5 40.5 Z" /><glyph glyph-name="copyright" unicode="©" d="M43 295 q0 60 20.5 107.5 q20.5 47.5 55.5 80.5 q35 33 81.5 50.5 q46.5 17.5 99.5 17.5 q52 0 99 -17.5 q47 -17.5 81.5 -50.5 q34.5 -33 55 -80.5 q20.5 -47.5 20.5 -107.5 q0 -60 -20.5 -107.5 q-20.5 -47.5 -55 -80.5 q-34.5 -33 -81.5 -50.5 q-47 -17.5 -99 -17.5 q-59 0 -106 17.5 q-47 17.5 -81 50.5 q-34 33 -52 80.5 q-18 47.5 -18 107.5 ZM96 295 q0 -50 15.5 -89 q15.5 -39 43 -65.5 q27.5 -26.5 65 -40 q37.5 -13.5 80.5 -13.5 q43 0 80 13.5 q37 13.5 64.5 40 q27.5 26.5 43 65.5 q15.5 39 15.5 89 q0 50 -15.5 88.5 q-15.5 38.5 -43 65 q-27.5 26.5 -64.5 40.5 q-37 14 -80 14 q-43 0 -80.5 -14 q-37.5 -14 -65 -40.5 q-27.5 -26.5 -43 -65 q-15.5 -38.5 -15.5 -88.5 ZM386 177 q-34 -20 -86 -20 q-59 0 -90 37 q-31 37 -31 101 q0 66 33 102 q33 36 88 36 q26 0 42.5 -5 q16.5 -5 38.5 -15 l-19 -51 q-33 15 -55 15 q-63 0 -63 -82 q0 -42 18.5 -62 q18.5 -20 50.5 -20 q18 0 32 3.5 q14 3.5 26 10.5 l15 -50 Z" /><glyph glyph-name="ordfeminine" unicode="ª" d="M175 677 q25 13 66 22 q41 9 91 9 q62 0 85 -26 q23 -26 23 -75 q0 -38 -1.5 -73 q-1.5 -35 -1.5 -67 q0 -24 1.5 -46 q1.5 -22 6.5 -41 l-55 0 l-13 46 l-4 0 q-13 -17 -37 -33.5 q-24 -16.5 -67 -16.5 q-52 0 -83 25.5 q-31 25.5 -31 69.5 q0 31 15 52 q15 21 40.5 34 q25.5 13 60 19 q34.5 6 74.5 6 q7 0 13.5 -0.5 q6.5 -0.5 13.5 -0.5 q1 6 1 11.5 q0 5.5 0 10.5 q0 27 -12 38 q-12 11 -46 11 q-40 0 -73 -7.5 q-33 -7.5 -52 -17.5 l-15 50 ZM280 432 q21 0 36.5 5 q15.5 5 26.5 13.5 q11 8.5 18 18 q7 9.5 11 18.5 l0 42 q-11 1 -21 1 q-10 0 -21 0 q-21 0 -40 -2 q-19 -2 -33.5 -8 q-14.5 -6 -23 -16.5 q-8.5 -10.5 -8.5 -27.5 q0 -20 14.5 -32 q14.5 -12 40.5 -12 Z" /><glyph glyph-name="guillemotleft" unicode="«" d="M50 264 l195 254 l58 -48 l-156 -202 l163 -199 l-57 -49 l-203 244 ZM290 264 l195 254 l58 -48 l-156 -202 l163 -199 l-57 -49 l-203 244 Z" /><glyph glyph-name="logicalnot" unicode="¬" d="M88 392 l424 0 l0 -192 l-72 0 l0 120 l-352 0 l0 72 Z" /><glyph glyph-name="registered" unicode="®" d="M35 451 q0 64 21 113.5 q21 49.5 57.5 83 q36.5 33.5 84.5 51 q48 17.5 102 17.5 q55 0 103.5 -17.5 q48.5 -17.5 84.5 -51 q36 -33.5 56.5 -83 q20.5 -49.5 20.5 -113.5 q0 -64 -21 -113.5 q-21 -49.5 -57.5 -83 q-36.5 -33.5 -84.5 -51 q-48 -17.5 -102 -17.5 q-56 0 -104 17.5 q-48 17.5 -84 51 q-36 33.5 -56.5 83 q-20.5 49.5 -20.5 113.5 ZM98 451 q0 -52 16 -90.5 q16 -38.5 43.5 -64 q27.5 -25.5 64.5 -38.5 q37 -13 78 -13 q43 0 80 12.5 q37 12.5 64 38 q27 25.5 42.5 64 q15.5 38.5 15.5 91.5 q0 52 -16 90.5 q-16 38.5 -43.5 64 q-27.5 25.5 -64 38.5 q-36.5 13 -78.5 13 q-44 0 -81 -13 q-37 -13 -64 -38.5 q-27 -25.5 -42 -64 q-15 -38.5 -15 -90.5 ZM197 581 q16 5 45 7.5 q29 2.5 55 2.5 q42 0 72 -17.5 q30 -17.5 30 -60.5 q0 -16 -5.5 -27.5 q-5.5 -11.5 -13.5 -20 q-8 -8.5 -17.5 -13.5 q-9.5 -5 -18.5 -7 l86 -123 l-61 0 l-78 104 l-42 0 l0 -104 l-52 0 l0 259 ZM286 546 q-11 0 -21 -0.5 q-10 -0.5 -16 -3.5 l0 -74 l34 0 q61 0 61 43 q0 35 -58 35 Z" /><glyph glyph-name="macron" unicode="¯" d="M152 643 l296 0 l0 -62 l-296 0 l0 62 Z" /><glyph glyph-name="degree" unicode="°" d="M159 571 q0 31 11 57 q11 26 30 44.5 q19 18.5 45 29 q26 10.5 55 10.5 q29 0 55 -9.5 q26 -9.5 45 -28 q19 -18.5 30 -44.5 q11 -26 11 -59 q0 -33 -11 -59 q-11 -26 -30 -44.5 q-19 -18.5 -45 -28 q-26 -9.5 -55 -9.5 q-29 0 -55 9.5 q-26 9.5 -45 28 q-19 18.5 -30 44.5 q-11 26 -11 59 ZM222 571 q0 -38 23.5 -59.5 q23.5 -21.5 54.5 -21.5 q31 0 54.5 21.5 q23.5 21.5 23.5 59.5 q0 38 -23.5 59.5 q-23.5 21.5 -54.5 21.5 q-31 0 -54.5 -21.5 q-23.5 -21.5 -23.5 -59.5 Z" /><glyph glyph-name="plusminus" unicode="±" d="M88 493 l176 0 l0 181 l72 0 l0 -181 l176 0 l0 -72 l-176 0 l0 -120 l-72 0 l0 120 l-176 0 l0 72 ZM88 250 l424 0 l0 -72 l-424 0 l0 72 Z" /><glyph glyph-name="acute" unicode="´" d="M261 720 l109 0 l-119 -149 l-55 0 l65 149 Z" /><glyph glyph-name="mu" unicode="µ&#x3bc;" d="M432 74 l-4 0 q-20 -35 -61.5 -60.5 q-41.5 -25.5 -101.5 -25.5 q-31 0 -57 8 q-26 8 -44 30 l-5 0 l5 -93 l0 -133 l-80 0 l0 700 l80 0 l0 -283 q0 -79 24.5 -119 q24.5 -40 85.5 -40 q55 0 93 32.5 q38 32.5 53 85.5 l0 324 l80 0 l0 -337 q0 -39 2.5 -60.5 q2.5 -21.5 4.5 -37.5 l64 0 l0 -65 l-128 0 l-11 74 Z" /><glyph glyph-name="paragraph" unicode="¶" d="M418 700 l68 0 l0 -830 l-68 0 l0 830 ZM262 310 q-32 0 -59 16.5 q-27 16.5 -46.5 44 q-19.5 27.5 -31 63 q-11.5 35.5 -11.5 72.5 q0 37 11.5 72 q11.5 35 33.5 62 q22 27 54 43.5 q32 16.5 72 16.5 l45 0 l0 -830 l-68 0 l0 440 Z" /><glyph glyph-name="cedilla" unicode="¸" d="M328 0 l-24 -43 q42 -8 60.5 -26 q18.5 -18 18.5 -49 q0 -39 -32 -64.5 q-32 -25.5 -90 -25.5 q-11 0 -22 1 q-11 1 -23 3 l9 39 q6 -1 11 -1 q5 0 10 0 q22 0 34.5 4 q12.5 4 19 9.5 q6.5 5.5 8 12.5 q1.5 7 1.5 13 q0 28 -86 37 l48 90 l57 0 Z" /><glyph glyph-name="ordmasculine" unicode="º" d="M145 542 q0 45 12 77 q12 32 32.5 53 q20.5 21 49 30.5 q28.5 9.5 61.5 9.5 q33 0 61.5 -9 q28.5 -9 49 -29 q20.5 -20 32.5 -52.5 q12 -32.5 12 -79.5 q0 -47 -12 -79.5 q-12 -32.5 -32.5 -52.5 q-20.5 -20 -49 -29 q-28.5 -9 -61.5 -9 q-33 0 -61.5 9 q-28.5 9 -49 29 q-20.5 20 -32.5 52.5 q-12 32.5 -12 79.5 ZM219 542 q0 -60 21.5 -86 q21.5 -26 59.5 -26 q19 0 34 5.5 q15 5.5 25.5 18 q10.5 12.5 16 34 q5.5 21.5 5.5 54.5 q0 33 -5.5 54.5 q-5.5 21.5 -16 34 q-10.5 12.5 -25.5 18 q-15 5.5 -34 5.5 q-38 0 -59.5 -23.5 q-21.5 -23.5 -21.5 -88.5 Z" /><glyph glyph-name="guillemotright" unicode="»" d="M347 20 l-57 49 l163 199 l-156 202 l58 48 l195 -254 l-203 -244 ZM107 20 l-57 49 l163 199 l-156 202 l58 48 l195 -254 l-203 -244 Z" /><glyph glyph-name="onequarter" unicode="¼" d="M432 713 l47 -20 l-308 -705 l-48 22 l309 703 ZM549 97 l-51 0 l0 -97 l-58 0 l0 97 l-135 0 l0 41 l144 288 l49 0 l0 -276 l51 0 l0 -53 ZM440 307 l-72 -157 l72 0 l0 157 ZM135 617 l-68 -59 l-32 37 l118 105 l40 0 l0 -420 l-58 0 l0 337 Z" /><glyph glyph-name="onehalf" unicode="½" d="M420 713 l47 -20 l-308 -705 l-48 22 l309 703 ZM548 318 q0 -67 -33 -130.5 q-33 -63.5 -84 -131.5 l129 0 l0 -56 l-198 0 l0 48 q19 22 41 52 q22 30 41 64.5 q19 34.5 32 71.5 q13 37 13 73 q0 29 -11.5 45.5 q-11.5 16.5 -29.5 16.5 q-18 0 -35 -5.5 q-17 -5.5 -28 -14.5 l-18 48 q17 14 41.5 21 q24.5 7 42.5 7 q97 0 97 -109 ZM135 617 l-68 -59 l-32 37 l118 105 l40 0 l0 -420 l-58 0 l0 337 Z" /><glyph glyph-name="threequarters" unicode="¾" d="M440 713 l47 -20 l-308 -705 l-48 22 l309 703 ZM115 329 q31 0 45.5 21 q14.5 21 14.5 58 q0 32 -14 52 q-14 20 -47 20 l-35 0 l0 33 l75 131 l-107 0 l0 56 l175 0 l0 -42 l-77 -131 l0 -3 q45 1 67 -30.5 q22 -31.5 22 -85.5 q0 -61 -32 -98 q-32 -37 -81 -37 q-23 0 -42.5 5 q-19.5 5 -34.5 13 l13 53 q24 -15 58 -15 ZM549 97 l-51 0 l0 -97 l-58 0 l0 97 l-135 0 l0 41 l144 288 l49 0 l0 -276 l51 0 l0 -53 ZM440 307 l-72 -157 l72 0 l0 157 Z" /><glyph glyph-name="questiondown" unicode="¿" d="M273 454 q0 27 15.5 42.5 q15.5 15.5 41.5 15.5 q27 0 43 -15.5 q16 -15.5 16 -42.5 q0 -26 -16 -42 q-16 -16 -43 -16 q-26 0 -41.5 16 q-15.5 16 -15.5 42 ZM368 323 q1 -5 1 -11 q0 -6 0 -11 q0 -42 -15.5 -72 q-15.5 -30 -38.5 -53.5 q-23 -23.5 -49.5 -42.5 q-26.5 -19 -49.5 -40.5 q-23 -21.5 -38.5 -47.5 q-15.5 -26 -15.5 -62 q0 -20 8.5 -41.5 q8.5 -21.5 27.5 -40.5 q19 -19 48.5 -31 q29.5 -12 70.5 -12 q33 0 59.5 7.5 q26.5 7.5 48 19.5 q21.5 12 39 26.5 q17.5 14.5 31.5 28.5 l51 -46 q-42 -53 -98 -79.5 q-56 -26.5 -144 -26.5 q-60 0 -102.5 17 q-42.5 17 -69.5 43.5 q-27 26.5 -40 59 q-13 32.5 -13 63.5 q0 47 16.5 80 q16.5 33 41.5 58.5 q25 25.5 53.5 46 q28.5 20.5 53.5 44 q25 23.5 41.5 52.5 q16.5 29 16.5 71 l66 0 Z" /><glyph glyph-name="Aring" unicode="Å" d="M195 768 q0 37 25 61 q25 24 80 24 q50 0 78 -21.5 q28 -21.5 28 -63.5 q0 -32 -20 -53.5 q-20 -21.5 -59 -27.5 l257 -687 l-87 0 l-72 194 l-258 0 l-70 -194 l-82 0 l256 687 q-38 6 -57 27.5 q-19 21.5 -19 53.5 ZM194 266 l206 0 l-103 288 l-1 0 l-102 -288 ZM256 768 q0 -17 10.5 -28.5 q10.5 -11.5 33.5 -11.5 q22 0 33.5 11 q11.5 11 11.5 29 q0 19 -11 30.5 q-11 11.5 -34 11.5 q-22 0 -33 -11.5 q-11 -11.5 -11 -30.5 Z" /><glyph glyph-name="AE" unicode="Æ" d="M304 552 l-21 -66 l-82 -223 l105 0 l0 289 l-2 0 ZM306 191 l-130 0 l-73 -191 l-83 0 l274 700 l272 0 l0 -75 l-180 0 l0 -228 l163 0 l0 -75 l-163 0 l0 -247 l183 0 l0 -75 l-263 0 l0 191 Z" /><glyph glyph-name="Ccedilla" unicode="Ç" d="M458 624 q-17 7 -37.5 10.5 q-20.5 3.5 -49.5 3.5 q-41 0 -80.5 -15 q-39.5 -15 -70 -49 q-30.5 -34 -49 -89 q-18.5 -55 -18.5 -135 q0 -72 16.5 -126 q16.5 -54 46 -90 q29.5 -36 71 -54 q41.5 -18 92.5 -18 q26 0 48.5 4.5 q22.5 4.5 41.5 12.5 l0 100 l74 0 l0 -135 l1 -2 q-30 -23 -76 -39 q-33 -10 -76 -14 l-18 -32 q42 -8 60.5 -26 q18.5 -18 18.5 -49 q0 -39 -32 -64.5 q-32 -25.5 -90 -25.5 q-11 0 -22 1 q-11 1 -23 3 l9 39 q6 -1 11 -1 l10 0 q22 0 34.5 4 q12.5 4 19 9.5 q6.5 5.5 8 12.5 q1.5 7 1.5 13 q0 28 -86 37 l41 79 q-50 3 -95 20 q-53 22 -92 66 q-39 44 -60.5 112.5 q-21.5 68.5 -21.5 162.5 q0 98 24 166.5 q24 68.5 65 112 q41 43.5 95.5 63.5 q54.5 20 116.5 20 q34 0 59 -2.5 q25 -2.5 44 -7 q19 -4.5 33.5 -11.5 q14.5 -7 28.5 -16 l1 0 l0 -158 l-74 0 l0 107 Z" /><glyph glyph-name="Eth" unicode="Ð" d="M9 392 l90 0 l0 308 q38 5 86.5 6.5 q48.5 1.5 90.5 1.5 q84 0 142.5 -26 q58.5 -26 95 -72.5 q36.5 -46.5 52.5 -111.5 q16 -65 16 -143 q0 -71 -15 -136.5 q-15 -65.5 -51.5 -116 q-36.5 -50.5 -97.5 -81 q-61 -30.5 -152 -30.5 q-16 0 -40 0.5 q-24 0.5 -49 2 q-25 1.5 -46.5 2.5 q-21.5 1 -31.5 3 l0 333 l-90 0 l0 60 ZM278 634 q-26 0 -54 -1 q-28 -1 -42 -4 l0 -237 l137 0 l0 -60 l-137 0 l0 -263 q5 -1 17 -1.5 q12 -0.5 25.5 -1 q13.5 -0.5 26 -1 q12.5 -0.5 17.5 -0.5 q70 0 114.5 24 q44.5 24 69 64.5 q24.5 40.5 33.5 93 q9 52.5 9 108.5 q0 49 -8 98.5 q-8 49.5 -31.5 89.5 q-23.5 40 -65.5 65.5 q-42 25.5 -111 25.5 Z" /><glyph glyph-name="multiply" unicode="×" d="M174 517 l126 -127 l127 127 l51 -53 l-126 -126 l126 -127 l-51 -52 l-127 128 l-127 -128 l-52 51 l128 129 l-126 125 l51 53 Z" /><glyph glyph-name="Oslash" unicode="Ø" d="M80 91 q-34 48 -50 113 q-16 65 -16 146 q0 175 74 268.5 q74 93.5 211 93.5 q57 0 101 -15 q44 -15 78 -44 l42 60 l52 -35 l-51 -72 q33 -48 49 -112.5 q16 -64.5 16 -143.5 q0 -175 -74.5 -268.5 q-74.5 -93.5 -212.5 -93.5 q-107 0 -175 56 l-39 -56 l-52 36 l47 67 ZM102 350 q0 -51 8.5 -96 q8.5 -45 26.5 -83 l290 411 q-23 26 -54.5 41 q-31.5 15 -73.5 15 q-92 0 -144.5 -70.5 q-52.5 -70.5 -52.5 -217.5 ZM498 350 q0 48 -8.5 93 q-8.5 45 -25.5 82 l-290 -411 q23 -25 54 -38.5 q31 -13.5 71 -13.5 q93 0 146 70.5 q53 70.5 53 217.5 Z" /><glyph glyph-name="Thorn" unicode="Þ" d="M91 700 l83 0 l0 -75 q10 1 24 1.5 q14 0.5 29 1 q15 0.5 28.5 0.5 q13.5 0 24.5 0 q46 0 93.5 -9 q47.5 -9 86.5 -33 q39 -24 63.5 -66 q24.5 -42 24.5 -107 q0 -64 -23 -108 q-23 -44 -61 -71.5 q-38 -27.5 -87 -40 q-49 -12.5 -101 -12.5 q-5 0 -19.5 0 q-14.5 0 -31 0.5 q-16.5 0.5 -31.5 1.5 q-15 1 -20 2 l0 -185 l-83 0 l0 700 ZM282 556 q-13 0 -28.5 0 q-15.5 0 -31 -1 q-15.5 -1 -28.5 -2 q-13 -1 -20 -3 l0 -290 q5 -2 19 -2.5 q14 -0.5 30 -1.5 q16 -1 30 -1 q14 0 19 0 q34 0 67.5 6.5 q33.5 6.5 60.5 24 q27 17.5 43.5 48.5 q16.5 31 16.5 79 q0 41 -15.5 68.5 q-15.5 27.5 -41 44 q-25.5 16.5 -57.5 23.5 q-32 7 -64 7 Z" /><glyph glyph-name="germandbls" unicode="ß" d="M399 559 q0 17 -9.5 31.5 q-9.5 14.5 -24.5 24.5 q-15 10 -33 15.5 q-18 5.5 -35 5.5 q-28 0 -47.5 -7 q-19.5 -7 -31.5 -23 q-12 -16 -17.5 -42.5 q-5.5 -26.5 -5.5 -65.5 l0 -498 l-80 0 l0 430 l-78 0 l0 70 l78 0 l0 23 q0 97 47.5 140 q47.5 43 131.5 43 q41 0 75 -10.5 q34 -10.5 58.5 -30 q24.5 -19.5 38 -46 q13.5 -26.5 13.5 -59.5 q0 -38 -19 -61 q-19 -23 -41.5 -41 q-22.5 -18 -41.5 -35 q-19 -17 -19 -42 q0 -22 15 -35 q15 -13 38 -23 q23 -10 49 -20.5 q26 -10.5 49 -27.5 q23 -17 38 -44.5 q15 -27.5 15 -71.5 q0 -32 -12 -62.5 q-12 -30.5 -34.5 -54.5 q-22.5 -24 -56.5 -39 q-34 -15 -77 -15 q-23 0 -40.5 1.5 q-17.5 1.5 -32 5 q-14.5 3.5 -27.5 8.5 q-13 5 -26 13 l23 65 q12 -6 21 -11 q9 -5 19.5 -8 q10.5 -3 23.5 -4.5 q13 -1.5 32 -1.5 q21 0 40.5 7.5 q19.5 7.5 34.5 20.5 q15 13 23.5 31.5 q8.5 18.5 8.5 40.5 q0 30 -15 47.5 q-15 17.5 -38 29.5 q-23 12 -49 21.5 q-26 9.5 -49 24 q-23 14.5 -38 37 q-15 22.5 -15 60.5 q0 39 19 62.5 q19 23.5 41.5 42 q22.5 18.5 41.5 35.5 q19 17 19 43 Z" /><glyph glyph-name="ae" unicode="æ" d="M175 59 q32 0 55.5 17.5 q23.5 17.5 30.5 43.5 l0 105 q-3 0 -11 0.5 q-8 0.5 -16.5 1 q-8.5 0.5 -16.5 0.5 q-8 0 -11 0 q-20 0 -39 -2.5 q-19 -2.5 -33 -11 q-14 -8.5 -22.5 -25 q-8.5 -16.5 -8.5 -43.5 q0 -35 17 -60.5 q17 -25.5 55 -25.5 ZM283 65 q-17 -35 -49 -54 q-32 -19 -83 -19 q-54 0 -88 40 q-34 40 -34 106 q0 43 12 72.5 q12 29.5 34 47.5 q22 18 51.5 25.5 q29.5 7.5 65.5 7.5 q4 0 13.5 0 q9.5 0 20 -0.5 q10.5 -0.5 20 -1 q9.5 -0.5 14.5 -0.5 q1 14 1.5 27 q0.5 13 0.5 24 q0 29 -8 48.5 q-8 19.5 -20.5 31 q-12.5 11.5 -29 16.5 q-16.5 5 -34.5 5 q-23 0 -50 -9.5 q-27 -9.5 -46 -24.5 l-19 58 q25 22 59.5 32.5 q34.5 10.5 71.5 10.5 q17 0 35.5 -4 q18.5 -4 35.5 -12 q17 -8 30 -19.5 q13 -11.5 18 -27.5 q9 18 23.5 30.5 q14.5 12.5 31.5 21 q17 8.5 35 12 q18 3.5 33 3.5 q23 0 48.5 -7.5 q25.5 -7.5 46.5 -28.5 q21 -21 34.5 -57 q13.5 -36 13.5 -93 q0 -20 -1 -47 q-1 -27 -4 -50 l-241 0 q1 -96 33 -135 q32 -39 85 -39 q12 0 25 2.5 q13 2.5 25.5 6 q12.5 3.5 22.5 8.5 q10 5 15 10 l24 -56 q-20 -17 -55.5 -27.5 q-35.5 -10.5 -73.5 -10.5 q-20 0 -41.5 5 q-21.5 5 -40.5 14.5 q-19 9.5 -34 24 q-15 14.5 -23 33.5 l-4 0 ZM428 445 q-18 0 -35.5 -9 q-17.5 -9 -31.5 -28 q-14 -19 -23.5 -47 q-9.5 -28 -10.5 -67 l175 0 l0 18 q0 67 -22.5 100 q-22.5 33 -51.5 33 Z" /><glyph glyph-name="ccedilla" unicode="ç" d="M439 423 q-23 8 -49.5 13.5 q-26.5 5.5 -52.5 5.5 q-98 0 -146 -46 q-48 -46 -48 -146 q0 -44 14 -78.5 q14 -34.5 40 -58.5 q26 -24 62.5 -37 q36.5 -13 80.5 -13 q47 0 91.5 16 q44.5 16 74.5 42 l35 -58 q-26 -23 -76 -46.5 q-50 -23.5 -119 -27.5 l-17 -32 q42 -8 60.5 -26 q18.5 -18 18.5 -49 q0 -39 -32 -64.5 q-32 -25.5 -90 -25.5 q-11 0 -22 1 q-11 1 -23 3 l9 39 q6 -1 11 -1 q5 0 10 0 q22 0 34.5 4 q12.5 4 19 9.5 q6.5 5.5 8 12.5 q1.5 7 1.5 13 q0 28 -86 37 l42 80 q-114 9 -172 79 q-58 70 -58 181 q0 63 17.5 112 q17.5 49 50.5 82 q33 33 80 50.5 q47 17.5 105 17.5 q74 0 120.5 -13 q46.5 -13 78.5 -29 l-1 -3 l0 -139 l-72 0 l0 95 Z" /><glyph glyph-name="eth" unicode="ð" d="M239 596 l57 31 q-38 23 -76 32 l35 54 q18 -7 46 -19 q28 -12 58 -33 l68 37 l26 -45 l-50 -27 q24 -23 50.5 -53.5 q26.5 -30.5 49 -71 q22.5 -40.5 37.5 -91.5 q15 -51 15 -115 q0 -81 -21 -139 q-21 -58 -56.5 -95.5 q-35.5 -37.5 -81.5 -55 q-46 -17.5 -95 -17.5 q-65 0 -111.5 21 q-46.5 21 -76.5 57 q-30 36 -44 83.5 q-14 47.5 -14 101.5 q0 52 15.5 99 q15.5 47 46 82.5 q30.5 35.5 76.5 56.5 q46 21 106 21 q45 0 83 -13 q38 -13 64 -33 q-17 35 -46 69 q-29 34 -58 60 l-76 -41 l-27 44 ZM138 250 q0 -49 13 -85 q13 -36 35.5 -60 q22.5 -24 53 -35.5 q30.5 -11.5 65.5 -11.5 q32 0 62.5 13 q30.5 13 54.5 41 q24 28 38.5 72 q14.5 44 14.5 106 q0 10 -0.5 22.5 q-0.5 12.5 -1 25 q-0.5 12.5 -2 24 q-1.5 11.5 -3.5 19.5 q-14 15 -34 26 q-20 11 -41.5 18.5 q-21.5 7.5 -44 11 q-22.5 3.5 -41.5 3.5 q-44 0 -75.5 -15 q-31.5 -15 -52.5 -40.5 q-21 -25.5 -31 -60 q-10 -34.5 -10 -74.5 Z" /><glyph glyph-name="oslash" unicode="ø" d="M57 250 q0 121 63 191.5 q63 70.5 180 70.5 q63 0 108 -21 q8 -3 15 -7 l23 31 l54 -37 l-24 -33 l8 -9 q30 -35 44.5 -83 q14.5 -48 14.5 -103 q0 -60 -16 -108.5 q-16 -48.5 -47 -82.5 q-31 -34 -76.5 -52.5 q-45.5 -18.5 -103.5 -18.5 q-62 0 -108 20 q-11 5 -22 11 l-24 -34 l-52 37 l26 37 q-2 2 -4 5 q-30 35 -44.5 83 q-14.5 48 -14.5 103 ZM225 72 q31 -17 75 -17 q80 0 120.5 49.5 q40.5 49.5 40.5 145.5 q0 36 -9 70 q-7 32 -24 58 l-215 -299 l12 -7 ZM140 250 q0 -35 8 -70 q7 -29 21 -53 l212 297 q-3 2 -7 4 q-30 17 -74 17 q-80 0 -120 -49 q-40 -49 -40 -146 Z" /><glyph glyph-name="thorn" unicode="þ" d="M96 635 l-75 0 l0 65 l152 0 l0 -270 q23 32 64.5 57 q41.5 25 101.5 25 q107 0 161 -59 q54 -59 54 -193 q0 -63 -18.5 -113.5 q-18.5 -50.5 -52.5 -85.5 q-34 -35 -82 -54 q-48 -19 -106 -19 q-21 0 -37.5 1.5 q-16.5 1.5 -30 4 q-13.5 2.5 -26.5 6.5 q-13 4 -28 10 l0 -210 l-77 0 l0 835 ZM326 439 q-30 0 -56.5 -11 q-26.5 -11 -47 -29 q-20.5 -18 -33.5 -40 q-13 -22 -16 -44 l0 -228 q22 -15 49.5 -23.5 q27.5 -8.5 72.5 -8.5 q80 0 128 52.5 q48 52.5 48 153.5 q0 85 -33.5 131.5 q-33.5 46.5 -111.5 46.5 Z" /><glyph glyph-name="Aogonek" unicode="&#x104;" d="M431 194 l-269 0 l-64 -194 l-82 0 l234 700 l98 0 l236 -700 l-29 0 q-21 -13 -35 -30 q-20 -25 -20 -57 q0 -20 13 -35.5 q13 -15.5 38 -15.5 q19 0 40 10 l11 -43 q-15 -12 -40 -18 q-25 -6 -46 -6 q-45 0 -72 24 q-27 24 -27 65 q0 41 27 70 q21 22 52 37 l-65 193 ZM188 266 l220 0 l-103 329 l-12 0 l-105 -329 Z" /><glyph glyph-name="aogonek" unicode="&#x105;" d="M108 461 q43 25 97 36 q54 11 106 11 q51 0 83.5 -16 q32.5 -16 51 -41.5 q18.5 -25.5 25 -58 q6.5 -32.5 6.5 -65.5 q0 -38 -2 -81 q-2 -43 -3 -86 q0 -50 6 -95 l67 0 l0 -65 l-21 0 q-21 -13 -35 -30 q-20 -25 -20 -57 q0 -20 13 -35.5 q13 -15.5 38 -15.5 q19 0 40 10 l11 -43 q-15 -12 -40 -18 q-25 -6 -46 -6 q-45 0 -72 24 q-27 24 -27 65 q0 41 27 70 q20 21 51 36 l-52 0 l-9 75 l-5 0 q-6 -9 -18 -23 q-12 -14 -31.5 -27.5 q-19.5 -13.5 -47.5 -23.5 q-28 -10 -66 -10 q-74 0 -117 38 q-43 38 -43 104 q0 51 22.5 85 q22.5 34 64.5 52 q42 18 101.5 21 q59.5 3 133.5 -8 q5 46 1.5 76.5 q-3.5 30.5 -16 48.5 q-12.5 18 -35 25.5 q-22.5 7.5 -55.5 7.5 q-45 0 -86 -12.5 q-41 -12.5 -73 -25.5 l-25 58 ZM255 58 q28 0 52 9 q24 9 42 23 q18 14 30 30.5 q12 16.5 18 31.5 l0 70 q-52 9 -96 9 q-44 0 -76 -9.5 q-32 -9.5 -50 -29.5 q-18 -20 -18 -52 q0 -33 22.5 -57.5 q22.5 -24.5 75.5 -24.5 Z" /><glyph glyph-name="dcroat" unicode="&#x111;" d="M589 65 l0 -65 l-133 0 l-10 77 l-4 0 q-22 -38 -65.5 -63.5 q-43.5 -25.5 -100.5 -25.5 q-113 0 -166.5 63.5 q-53.5 63.5 -53.5 197.5 q0 63 18 111.5 q18 48.5 51.5 81 q33.5 32.5 80.5 49.5 q47 17 105 17 q21 0 37.5 -1 q16.5 -1 30.5 -3 q14 -2 26.5 -5.5 q12.5 -3.5 27.5 -7.5 l0 81 l-165 0 l0 60 l165 0 l0 68 l78 0 l0 -68 l75 0 l0 -60 l-75 0 l0 -401 q0 -9 1 -22.5 q1 -13.5 2.5 -28.5 q1.5 -15 3.5 -29.5 q2 -14.5 4 -25.5 l67 0 ZM289 55 q61 0 96 31.5 q35 31.5 48 94.5 l0 232 q-22 15 -49.5 22 q-27.5 7 -72.5 7 q-80 0 -126 -46.5 q-46 -46.5 -46 -146.5 q0 -41 7.5 -76.5 q7.5 -35.5 25 -61.5 q17.5 -26 46.5 -41 q29 -15 71 -15 Z" /><glyph glyph-name="Eogonek" unicode="&#x118;" d="M107 700 l411 0 l0 -74 l-328 0 l0 -229 l303 0 l0 -74 l-303 0 l0 -249 l333 0 l0 -74 l-20 0 q-21 -13 -35 -30 q-20 -25 -20 -57 q0 -20 13 -35.5 q13 -15.5 38 -15.5 q19 0 40 10 l11 -43 q-15 -12 -40 -18 q-25 -6 -46 -6 q-45 0 -72 24 q-27 24 -27 65 q0 41 27 70 q20 21 51 36 l-336 0 l0 700 Z" /><glyph glyph-name="eogonek" unicode="&#x119;" d="M529 63 q-18 -16 -42.5 -30 q-24.5 -14 -53.5 -24 q-8 -3 -15 -5 q-26 -14 -42 -34 q-20 -25 -20 -57 q0 -20 13 -35.5 q13 -15.5 38 -15.5 q19 0 40 10 l11 -43 q-15 -12 -40 -18 q-25 -6 -46 -6 q-45 0 -72 24 q-27 24 -27 65 q0 41 27 70 q13 14 30 25 q-11 -1 -21 -1 q-60 0 -106 18.5 q-46 18.5 -77 53 q-31 34.5 -47 82.5 q-16 48 -16 108 q0 63 17.5 112 q17.5 49 50.5 82 q33 33 80 50.5 q47 17.5 105 17.5 q42 0 83 -11 q41 -11 72.5 -41.5 q31.5 -30.5 48.5 -84 q17 -53.5 12 -138.5 l-387 0 q0 -90 48.5 -134.5 q48.5 -44.5 129.5 -44.5 q27 0 53.5 6.5 q26.5 6.5 50.5 15.5 q24 9 42.5 20 q18.5 11 28.5 20 l31 -57 ZM318 446 q-33 0 -62.5 -7 q-29.5 -7 -52 -23.5 q-22.5 -16.5 -37 -43 q-14.5 -26.5 -18.5 -65.5 l311 0 q-5 66 -42.5 102.5 q-37.5 36.5 -98.5 36.5 Z" /><glyph glyph-name="Hbar" unicode="&#x126;" d="M10 587 l79 0 l0 113 l83 0 l0 -113 l256 0 l0 113 l83 0 l0 -113 l79 0 l0 -64 l-79 0 l0 -523 l-83 0 l0 321 l-256 0 l0 -321 l-83 0 l0 523 l-79 0 l0 64 ZM428 395 l0 128 l-256 0 l0 -128 l256 0 Z" /><glyph glyph-name="hbar" unicode="&#x127;" d="M3 632 l80 0 l0 68 l77 0 l0 -68 l163 0 l0 -60 l-163 0 l0 -134 l5 0 q31 35 72 54.5 q41 19.5 102 19.5 q48 0 83.5 -10 q35.5 -10 58 -35 q22.5 -25 33.5 -68.5 q11 -43.5 11 -110.5 l0 -288 l-78 0 l0 273 q0 43 -5 75 q-5 32 -19.5 53.5 q-14.5 21.5 -39.5 32.5 q-25 11 -64 11 q-27 0 -53 -9.5 q-26 -9.5 -47.5 -26 q-21.5 -16.5 -37 -40 q-15.5 -23.5 -21.5 -51.5 l0 -318 l-77 0 l0 572 l-80 0 l0 60 Z" /><glyph glyph-name="Iogonek" unicode="&#x12e;" d="M60 700 l480 0 l0 -74 l-199 0 l0 -552 l199 0 l0 -74 l-75 0 q-21 -13 -35 -30 q-20 -25 -20 -57 q0 -20 13 -35.5 q13 -15.5 38 -15.5 q19 0 40 10 l11 -43 q-15 -12 -40 -18 q-25 -6 -46 -6 q-45 0 -72 24 q-27 24 -27 65 q0 41 27 70 q20 21 51 36 l-345 0 l0 74 l198 0 l0 552 l-198 0 l0 74 Z" /><glyph glyph-name="iogonek" unicode="&#x12f;" d="M105 0 l0 67 l174 0 l0 366 l-174 0 l0 67 l254 0 l0 -433 l170 0 l0 -67 l-74 0 q-21 -13 -35 -30 q-20 -25 -20 -57 q0 -20 13 -35.5 q13 -15.5 38 -15.5 q19 0 40 10 l11 -43 q-15 -12 -40 -18 q-25 -6 -46 -6 q-45 0 -72 24 q-27 24 -27 65 q0 41 27 70 q20 21 51 36 l-290 0 ZM252 642 q0 27 18 46.5 q18 19.5 46 19.5 q29 0 48.5 -19.5 q19.5 -19.5 19.5 -46.5 q0 -26 -19.5 -44 q-19.5 -18 -48.5 -18 q-28 0 -46 18 q-18 18 -18 44 Z" /><glyph glyph-name="dotlessi" unicode="&#x131;" d="M105 0 l0 67 l174 0 l0 366 l-174 0 l0 67 l254 0 l0 -433 l170 0 l0 -67 l-424 0 Z" /><glyph glyph-name="Lslash" unicode="&#x141;" d="M18 287 l72 56 l0 357 l83 0 l0 -292 l105 83 l0 -80 l-105 -81 l0 -256 l283 0 l0 174 l74 0 l0 -248 l-440 0 l0 266 l-72 -55 l0 76 Z" /><glyph glyph-name="lslash" unicode="&#x142;" d="M119 700 l166 0 l0 -308 l147 117 l0 -80 l-147 -115 l0 -146 q0 -61 20.5 -86 q20.5 -25 60.5 -25 q28 0 53.5 10 q25.5 10 56.5 34 l36 -55 q-16 -14 -35 -25 q-19 -11 -39 -18.5 q-20 -7.5 -40 -11.5 q-20 -4 -37 -4 q-37 0 -66 9.5 q-29 9.5 -48.5 30.5 q-19.5 21 -29.5 55.5 q-10 34.5 -10 85.5 l0 86 l-99 -77 l0 76 l99 78 l0 302 l-88 0 l0 67 Z" /><glyph glyph-name="OE" unicode="&#x152;" d="M314 618 q-17 11 -39 16 q-22 5 -47 5 q-58 0 -88 -70 q-30 -70 -30 -219 q0 -59 6.5 -111.5 q6.5 -52.5 21 -92 q14.5 -39.5 38 -62.5 q23.5 -23 57.5 -23 q19 0 38 2.5 q19 2.5 43 13.5 l0 541 ZM314 0 q-16 -5 -38.5 -8.5 q-22.5 -3.5 -48.5 -3.5 q-51 0 -88 25.5 q-37 25.5 -62 72.5 q-25 47 -37 114 q-12 67 -12 150 q0 177 52 269.5 q52 92.5 147 92.5 q29 0 48.5 -3.5 q19.5 -3.5 38.5 -8.5 l260 0 l0 -75 l-180 0 l0 -228 l163 0 l0 -75 l-163 0 l0 -247 l183 0 l0 -75 l-263 0 Z" /><glyph glyph-name="oe" unicode="&#x153;" d="M116 250 q0 -39 4.5 -74.5 q4.5 -35.5 14 -62 q9.5 -26.5 25 -42.5 q15.5 -16 37.5 -16 q40 0 57.5 48 q17.5 48 17.5 147 q0 39 -3.5 74.5 q-3.5 35.5 -12 62.5 q-8.5 27 -23 42.5 q-14.5 15.5 -36.5 15.5 q-39 0 -60 -47.5 q-21 -47.5 -21 -147.5 ZM310 70 q-18 -44 -46.5 -63 q-28.5 -19 -67.5 -19 q-75 0 -114 65 q-39 65 -39 197 q0 128 41 195 q41 67 113 67 q42 0 69.5 -20.5 q27.5 -20.5 43.5 -60.5 q16 35 44 58 q28 23 69 23 q24 0 47.5 -7 q23.5 -7 42.5 -27.5 q19 -20.5 31 -56 q12 -35.5 12 -92.5 q0 -18 -1 -43.5 q-1 -25.5 -4 -48.5 l-207 0 q1 -88 23 -135.5 q22 -47.5 76 -47.5 q22 0 44.5 9.5 q22.5 9.5 34.5 23.5 l24 -55 q-20 -22 -54 -33 q-34 -11 -67 -11 q-42 0 -71.5 23 q-29.5 23 -43.5 59 ZM423 446 q-71 0 -78 -148 l143 0 q0 148 -65 148 Z" /><glyph glyph-name="Scedilla" unicode="&#x15e;" d="M150 99 q30 -16 67.5 -26.5 q37.5 -10.5 75.5 -10.5 q33 0 62 6.5 q29 6.5 50.5 21 q21.5 14.5 34 36.5 q12.5 22 12.5 52 q0 41 -27.5 67 q-27.5 26 -68.5 46 q-41 20 -89 39 q-48 19 -89 45 q-41 26 -68.5 63.5 q-27.5 37.5 -27.5 95.5 q0 41 16.5 74 q16.5 33 46.5 56 q30 23 72.5 35.5 q42.5 12.5 94.5 12.5 q60 0 109 -8.5 q49 -8.5 78 -22.5 l2 1 l0 -2 l1 0 l-1 -3 l0 -160 l-74 0 l0 107 q-25 6 -55 10 q-30 4 -64 4 q-33 0 -59.5 -8 q-26.5 -8 -45 -21.5 q-18.5 -13.5 -28.5 -31.5 q-10 -18 -10 -38 q0 -39 27.5 -65 q27.5 -26 68.5 -46.5 q41 -20.5 89 -40.5 q48 -20 89 -46.5 q41 -26.5 68.5 -63.5 q27.5 -37 27.5 -92 q0 -45 -16.5 -81 q-16.5 -36 -47 -62 q-30.5 -26 -75.5 -40 q-29 -9 -64 -12 l-18 -33 q42 -8 60.5 -26 q18.5 -18 18.5 -49 q0 -39 -32 -64.5 q-32 -25.5 -90 -25.5 q-11 0 -22 1 q-11 1 -23 3 l9 39 q6 -1 11 -1 l10 0 q22 0 34.5 4 q12.5 4 19 9.5 q6.5 5.5 8 12.5 q1.5 7 1.5 13 q0 28 -86 37 l42 79 q-27 1 -51 5 q-34 6 -62.5 15 q-28.5 9 -51 19 q-22.5 10 -35.5 17 l1 3 l0 162 l74 0 l0 -111 Z" /><glyph glyph-name="scedilla" unicode="&#x15f;" d="M438 135 q0 32 -25 49.5 q-25 17.5 -62 28 q-37 10.5 -80.5 19.5 q-43.5 9 -80.5 24 q-37 15 -62 40.5 q-25 25.5 -25 71.5 q0 38 16.5 65 q16.5 27 43.5 44.5 q27 17.5 63 26 q36 8.5 75 8.5 q70 0 120.5 -17.5 q50.5 -17.5 80.5 -36.5 l-32 -63 q-33 18 -71.5 34.5 q-38.5 16.5 -96.5 16.5 q-22 0 -43.5 -4.5 q-21.5 -4.5 -39 -13.5 q-17.5 -9 -28 -23.5 q-10.5 -14.5 -10.5 -35.5 q0 -26 25 -40 q25 -14 62 -23.5 q37 -9.5 80.5 -18 q43.5 -8.5 80.5 -24.5 q37 -16 62 -43 q25 -27 25 -73 q0 -69 -55 -114 q-45 -37 -129 -44 l-18 -32 q42 -8 60.5 -26 q18.5 -18 18.5 -49 q0 -39 -32 -64.5 q-32 -25.5 -90 -25.5 q-11 0 -22 1 q-11 1 -23 3 l9 39 q6 -1 11 -1 l10 0 q22 0 34.5 4 q12.5 4 19 9.5 q6.5 5.5 8 12.5 q1.5 7 1.5 13 q0 28 -86 37 l42 79 q-21 1 -42 5 q-32 6 -60 16 q-28 10 -51 22.5 q-23 12.5 -38 25.5 l40 65 q12 -12 32 -24.5 q20 -12.5 44 -22.5 q24 -10 51.5 -16 q27.5 -6 55.5 -6 q27 0 50.5 4.5 q23.5 4.5 41.5 14 q18 9.5 28.5 25 q10.5 15.5 10.5 37.5 Z" /><glyph glyph-name="Tcedilla" unicode="&#x162;" d="M328 0 l-24 -43 q42 -8 60.5 -26 q18.5 -18 18.5 -49 q0 -39 -32 -64.5 q-32 -25.5 -90 -25.5 q-11 0 -22 1 q-11 1 -23 3 l9 39 q6 -1 11 -1 l10 0 q22 0 34.5 4 q12.5 4 19 9.5 q6.5 5.5 8 12.5 q1.5 7 1.5 13 q0 28 -86 37 l48 90 l-123 0 l0 74 l110 0 l0 552 l-144 0 l0 -109 l-74 0 l0 183 l520 0 l0 -183 l-74 0 l0 109 l-145 0 l0 -552 l110 0 l0 -74 l-123 0 Z" /><glyph glyph-name="tcedilla" unicode="&#x163;" d="M31 500 l119 0 l0 99 l78 22 l0 -121 l267 0 l0 -67 l-267 0 l0 -236 q0 -73 35.5 -108 q35.5 -35 101.5 -35 q45 0 78.5 17 q33.5 17 60.5 37 l26 -59 q-35 -28 -83.5 -45 q-48.5 -17 -99.5 -17 l-7 0 l-16 -30 q42 -8 60.5 -26 q18.5 -18 18.5 -49 q0 -39 -32 -64.5 q-32 -25.5 -90 -25.5 q-11 0 -22 1 q-11 1 -23 3 l9 39 q6 -1 11 -1 l10 0 q22 0 34.5 4 q12.5 4 19 9.5 q6.5 5.5 8 12.5 q1.5 7 1.5 13 q0 28 -86 37 l45 84 q-9 2 -17 5 q-35 11 -62 35 q-27 24 -43 61.5 q-16 37.5 -16 89.5 l0 248 l-119 0 l0 67 Z" /><glyph glyph-name="Uogonek" unicode="&#x172;" d="M460 700 l80 0 l0 -467 q0 -63 -16.5 -109 q-16.5 -46 -46.5 -75.5 q-30 -29.5 -73 -43.5 q-27 -15 -44 -35 q-20 -25 -20 -57 q0 -20 13 -35.5 q13 -15.5 38 -15.5 q19 0 40 10 l11 -43 q-15 -12 -40 -18 q-25 -6 -46 -6 q-45 0 -72 24 q-27 24 -27 65 q0 41 27 70 q14 15 34 27 l-9 0 q-124 0 -186.5 56 q-62.5 56 -62.5 170 l0 483 l83 0 l0 -444 q0 -53 10.5 -89.5 q10.5 -36.5 31 -59 q20.5 -22.5 52 -32.5 q31.5 -10 73.5 -10 q81 0 115.5 44.5 q34.5 44.5 34.5 146.5 l0 444 Z" /><glyph glyph-name="uogonek" unicode="&#x173;" d="M363 500 l142 0 l0 -341 q0 -49 6 -94 l67 0 l0 -65 l-21 0 q-21 -13 -35 -30 q-20 -25 -20 -57 q0 -20 13 -35.5 q13 -15.5 38 -15.5 q19 0 40 10 l11 -43 q-15 -12 -40 -18 q-25 -6 -46 -6 q-45 0 -72 24 q-27 24 -27 65 q0 41 27 70 q20 21 51 36 l-52 0 l-3 85 l-4 0 q-26 -43 -69 -70 q-43 -27 -104 -27 q-46 0 -78.5 10.5 q-32.5 10.5 -53.5 36.5 q-21 26 -31 69.5 q-10 43.5 -10 108.5 l0 220 l-67 0 l0 67 l145 0 l0 -271 q0 -41 3.5 -73.5 q3.5 -32.5 14.5 -55 q11 -22.5 32.5 -34 q21.5 -11.5 57.5 -11.5 q52 0 90.5 34 q38.5 34 58.5 85 l0 259 l-64 0 l0 67 Z" /><glyph glyph-name="longs" unicode="&#x17f;" d="M95 500 l118 0 l0 28 q0 94 48 136 q48 42 136 42 q45 0 86.5 -10.5 q41.5 -10.5 71.5 -28.5 l-29 -66 q-26 12 -56 23.5 q-30 11.5 -76 11.5 q-49 0 -75 -27 q-26 -27 -26 -80 l0 -529 l-80 0 l0 430 l-118 0 l0 70 Z" /><glyph glyph-name="florin" unicode="&#x192;" d="M371 430 l-79 -464 q-6 -37 -17 -68.5 q-11 -31.5 -29.5 -55 q-18.5 -23.5 -45.5 -37 q-27 -13.5 -64 -13.5 q-29 0 -60 7 q-31 7 -55 17 l21 65 q23 -10 43.5 -14.5 q20.5 -4.5 44.5 -4.5 q38 0 57.5 33.5 q19.5 33.5 32.5 112.5 l68 422 l-85 0 l0 70 l96 0 l11 67 q12 74 43.5 109.5 q31.5 35.5 103.5 35.5 q33 0 64.5 -7 q31.5 -7 56.5 -18 l-23 -64 q-45 19 -92 19 q-19 0 -31 -5.5 q-12 -5.5 -20 -17.5 q-8 -12 -13.5 -31 q-5.5 -19 -9.5 -47 l-7 -41 l120 0 l0 -70 l-131 0 Z" /><glyph glyph-name="uni0237" unicode="&#x237;" d="M336 433 l-242 0 l0 67 l322 0 l0 -512 q0 -101 -51.5 -150.5 q-51.5 -49.5 -142.5 -49.5 q-27 0 -52.5 7 q-25.5 7 -47.5 16.5 q-22 9.5 -38.5 19.5 q-16.5 10 -24.5 16 l33 65 q27 -20 61.5 -35 q34.5 -15 71.5 -15 q60 0 85.5 37.5 q25.5 37.5 25.5 103.5 l0 430 Z" /><glyph glyph-name="circumflex" unicode="&#x2c6;" d="M287 732 l37 0 l135 -182 l-78 0 l-81 109 l-86 -109 l-70 0 l143 182 Z" /><glyph glyph-name="caron" unicode="&#x2c7;" d="M314 550 l-37 0 l-135 182 l78 0 l81 -109 l86 109 l70 0 l-143 -182 Z" /><glyph glyph-name="breve" unicode="&#x2d8;" d="M192 720 q18 -36 48 -56.5 q30 -20.5 64 -20.5 q34 0 61.5 20 q27.5 20 44.5 57 l42 -18 q-3 -24 -15.5 -47.5 q-12.5 -23.5 -32 -41.5 q-19.5 -18 -45.5 -29 q-26 -11 -56 -11 q-28 0 -53 8.5 q-25 8.5 -45.5 25 q-20.5 16.5 -35.5 39 q-15 22.5 -22 51.5 l45 23 Z" /><glyph glyph-name="dotaccent" unicode="&#x2d9;" d="M234 642 q0 27 18 46.5 q18 19.5 46 19.5 q29 0 48.5 -19.5 q19.5 -19.5 19.5 -46.5 q0 -26 -19.5 -44 q-19.5 -18 -48.5 -18 q-28 0 -46 18 q-18 18 -18 44 Z" /><glyph glyph-name="ring" unicode="&#x2da;" d="M202 643 q0 42 26.5 66.5 q26.5 24.5 70.5 24.5 q42 0 70 -22 q28 -22 28 -69 q0 -39 -28 -64.5 q-28 -25.5 -70 -25.5 q-42 0 -69.5 23.5 q-27.5 23.5 -27.5 66.5 ZM256 643 q0 -20 13 -31 q13 -11 30 -11 q19 0 31.5 10 q12.5 10 12.5 32 q0 22 -13.5 32.5 q-13.5 10.5 -30.5 10.5 q-17 0 -30 -10 q-13 -10 -13 -33 Z" /><glyph glyph-name="ogonek" unicode="&#x2db;" d="M365 10 q-35 -16 -55 -40.5 q-20 -24.5 -20 -56.5 q0 -20 13 -35.5 q13 -15.5 38 -15.5 q19 0 40 10 l11 -43 q-15 -12 -40 -18 q-25 -6 -46 -6 q-45 0 -72 24 q-27 24 -27 65 q0 41 27.5 70 q27.5 29 75.5 46 l55 0 Z" /><glyph glyph-name="tilde" unicode="&#x2dc;" d="M146 654 q29 33 60 46.5 q31 13.5 51 13.5 q17 0 31.5 -6.5 q14.5 -6.5 28 -14 q13.5 -7.5 26 -13.5 q12.5 -6 26.5 -6 q22 0 46 24 l35 -44 q-26 -29 -48.5 -39.5 q-22.5 -10.5 -49.5 -9.5 q-16 0 -30 6.5 q-14 6.5 -27.5 14 q-13.5 7.5 -27 13.5 q-13.5 6 -27.5 6 q-13 0 -26.5 -7 q-13.5 -7 -30.5 -24 l-37 40 Z" /><glyph glyph-name="hungarumlaut" unicode="&#x2dd;" d="M201 720 l86 0 l-79 -149 l-42 0 l35 149 ZM347 720 l103 0 l-131 -149 l-45 0 l73 149 Z" /><glyph glyph-name="uni0394" unicode="&#x2206;&#x394;" d="M28 0 l0 37 l254 674 l34 0 l256 -674 l0 -37 l-544 0 ZM120 72 l355 0 l-180 471 l-1 0 l-174 -471 Z" /><glyph glyph-name="uni03A9" unicode="&#x2126;&#x3a9;" d="M25 70 l160 0 l0 16 q-43 10 -73 37.5 q-30 27.5 -49.5 66.5 q-19.5 39 -28.5 86.5 q-9 47.5 -9 99.5 q0 78 15 140 q15 62 48 105.5 q33 43.5 85 67 q52 23.5 126 23.5 q78 0 131 -25 q53 -25 85 -70 q32 -45 46 -107.5 q14 -62.5 14 -137.5 q0 -54 -11 -100.5 q-11 -46.5 -32 -83 q-21 -36.5 -51 -63 q-30 -26.5 -68 -39.5 l0 -16 l162 0 l0 -70 l-237 0 l0 125 q30 6 57 22 q27 16 47.5 45.5 q20.5 29.5 32.5 75 q12 45.5 12 109.5 q0 48 -6 94.5 q-6 46.5 -25.5 83.5 q-19.5 37 -57 60 q-37.5 23 -100.5 23 q-56 0 -92 -17 q-36 -17 -56.5 -50 q-20.5 -33 -28.5 -82.5 q-8 -49.5 -8 -114.5 q0 -63 10.5 -107.5 q10.5 -44.5 30 -74.5 q19.5 -30 47 -46 q27.5 -16 60.5 -21 l0 -125 l-236 0 l0 70 Z" /><glyph glyph-name="pi" unicode="&#x3c0;" d="M491 116 q0 -28 9 -39 q9 -11 23 -11 q10 0 22.5 2 q12.5 2 21.5 4 l19 -54 q-16 -7 -39.5 -14.5 q-23.5 -7.5 -53.5 -7.5 q-50 0 -66 29 q-16 29 -16 81 l0 324 l-190 0 l0 -430 l-80 0 l0 430 l-14 0 q-21 0 -34 -11.5 q-13 -11.5 -27 -33.5 l-53 32 q19 38 47 60.5 q28 22.5 81 22.5 l433 0 l0 -70 l-83 0 l0 -314 Z" /><glyph glyph-name="afii10051" unicode="&#x402;" d="M274 0 l-83 0 l0 626 l-168 0 l0 74 l449 0 l0 -74 l-198 0 l0 -211 q12 4 42.5 12.5 q30.5 8.5 86.5 8.5 q32 0 65 -9.5 q33 -9.5 59.5 -33.5 q26.5 -24 43 -64.5 q16.5 -40.5 16.5 -102.5 q0 -121 -48 -177.5 q-48 -56.5 -145 -56.5 q-33 0 -47.5 0.5 q-14.5 0.5 -22.5 2.5 l0 72 q13 -2 28.5 -2.5 q15.5 -0.5 44.5 -0.5 q55 0 78.5 39 q23.5 39 23.5 117 q0 42 -10 70 q-10 28 -26.5 44.5 q-16.5 16.5 -39 23 q-22.5 6.5 -46.5 6.5 q-35 0 -63.5 -8.5 q-28.5 -8.5 -39.5 -13.5 l0 -342 Z" /><glyph glyph-name="afii10053" unicode="&#x404;" d="M458 624 q-17 7 -37.5 10.5 q-20.5 3.5 -49.5 3.5 q-38 0 -76 -12.5 q-38 -12.5 -69.5 -41 q-31.5 -28.5 -53 -74.5 q-21.5 -46 -27.5 -112 l306 0 l0 -74 l-308 0 q3 -66 22.5 -115 q19.5 -49 50.5 -81.5 q31 -32.5 73 -49 q42 -16.5 90 -16.5 q26 0 48.5 4.5 q22.5 4.5 41.5 12.5 l0 100 l74 0 l0 -135 l1 -2 q-30 -23 -76 -38.5 q-46 -15.5 -112 -15.5 q-63 0 -118 21.5 q-55 21.5 -95.5 65.5 q-40.5 44 -64 112.5 q-23.5 68.5 -23.5 162.5 q0 98 25.5 166.5 q25.5 68.5 68 112 q42.5 43.5 99 63.5 q56.5 20 118.5 20 q34 0 59 -2.5 q25 -2.5 44 -7 q19 -4.5 33.5 -11.5 q14.5 -7 28.5 -16 l1 0 l0 -158 l-74 0 l0 107 Z" /><glyph glyph-name="afii10058" unicode="&#x409;" d="M297 626 l-109 0 q-6 -200 -16 -333.5 q-10 -133.5 -33 -205.5 q-14 -48 -40 -70 q-26 -22 -55 -22 q-23 0 -43 10 l9 74 q7 -3 14 -3 q13 0 23 7 q10 7 19 36 q9 27 16.5 73.5 q7.5 46.5 13.5 116.5 q6 70 9.5 166.5 q3.5 96.5 5.5 224.5 l266 0 l0 -272 q12 4 27 6.5 q15 2.5 30 2.5 q34 0 64 -9.5 q30 -9.5 52 -33.5 q22 -24 35 -64.5 q13 -40.5 13 -102.5 q0 -122 -45.5 -178.5 q-45.5 -56.5 -138.5 -56.5 q-9 0 -23 0.5 q-14 0.5 -30 2 q-16 1.5 -33 4 q-17 2.5 -31 6.5 l0 621 ZM420 66 q53 0 74.5 35.5 q21.5 35.5 21.5 118.5 q0 43 -6 71 q-6 28 -18 44 q-12 16 -30 22 q-18 6 -42 6 q-11 0 -24 -3 q-13 -3 -19 -6 l0 -282 q18 -6 43 -6 Z" /><glyph glyph-name="afii10059" unicode="&#x40a;" d="M273 331 l-177 0 l0 -331 l-80 0 l0 700 l80 0 l0 -295 l177 0 l0 295 l80 0 l0 -295 q3 1 11.5 2.5 q8.5 1.5 18 3 q9.5 1.5 18.5 2.5 q9 1 14 1 q35 0 66 -8 q31 -8 54 -30 q23 -22 36 -60.5 q13 -38.5 13 -99.5 q0 -121 -47 -172.5 q-47 -51.5 -135 -51.5 q-9 0 -25 0.5 q-16 0.5 -34.5 2 q-18.5 1.5 -37 4.5 q-18.5 3 -32.5 7 l0 325 ZM409 66 q50 0 71.5 32.5 q21.5 32.5 21.5 110.5 q0 42 -6 68 q-6 26 -18 40 q-12 14 -29.5 18.5 q-17.5 4.5 -39.5 4.5 q-6 0 -14 -1 q-8 -1 -16.5 -2 q-8.5 -1 -15.5 -3 q-7 -2 -10 -3 l0 -259 q9 -4 25.5 -5 q16.5 -1 30.5 -1 Z" /><glyph glyph-name="afii10060" unicode="&#x40b;" d="M269 0 l-83 0 l0 626 l-168 0 l0 74 l449 0 l0 -74 l-198 0 l0 -231 q13 7 28.5 15 q15.5 8 33.5 15 q18 7 40 11 q22 4 50 4 q42 0 72.5 -9.5 q30.5 -9.5 50 -32 q19.5 -22.5 29 -60.5 q9.5 -38 9.5 -94 l0 -244 l-83 0 l0 229 q0 35 -3 60.5 q-3 25.5 -13 42.5 q-10 17 -28.5 25.5 q-18.5 8.5 -49.5 8.5 q-48 0 -79 -12.5 q-31 -12.5 -57 -33.5 l0 -320 Z" /><glyph glyph-name="afii10145" unicode="&#x40f;" d="M75 0 l0 700 l83 0 l0 -626 l283 0 l0 626 l83 0 l0 -700 l-188 0 l0 -181 l-70 0 l0 181 l-191 0 Z" /><glyph glyph-name="afii10018" unicode="&#x411;" d="M108 700 l380 0 l0 -74 l-297 0 l0 -210 q17 3 42 6 q25 3 48 3 q51 0 97 -9.5 q46 -9.5 81 -32.5 q35 -23 55.5 -62.5 q20.5 -39.5 20.5 -99.5 q0 -60 -21 -103.5 q-21 -43.5 -56 -71 q-35 -27.5 -81.5 -41 q-46.5 -13.5 -97.5 -13.5 q-17 0 -38.5 0.5 q-21.5 0.5 -45 2.5 q-23.5 2 -46 4.5 q-22.5 2.5 -41.5 7.5 l0 693 ZM289 64 q32 0 61 8.5 q29 8.5 50.5 26.5 q21.5 18 34 45 q12.5 27 12.5 63 q0 46 -14.5 75 q-14.5 29 -38.5 44.5 q-24 15.5 -55.5 21 q-31.5 5.5 -65.5 5.5 q-9 0 -21 -1 q-12 -1 -24 -2 q-12 -1 -22 -2.5 q-10 -1.5 -15 -2.5 l0 -275 q7 -2 18.5 -3 q11.5 -1 25 -2 q13.5 -1 27.5 -1 q14 0 27 0 Z" /><glyph glyph-name="afii10020" unicode="&#x413;" d="M70 700 l480 0 l0 -183 l-74 0 l0 109 l-227 0 l0 -552 l157 0 l0 -74 l-336 0 l0 74 l96 0 l0 552 l-96 0 l0 74 Z" /><glyph glyph-name="afii10021" unicode="&#x414;" d="M584 -141 l-70 0 l0 141 l-436 0 l0 -141 l-70 0 l0 215 l67 0 q4 12 18.5 53 q14.5 41 30 116 q15.5 75 28.5 188 q13 113 13 269 l344 0 l0 -626 l75 0 l0 -215 ZM426 74 l0 552 l-183 0 q-3 -110 -12.5 -198 q-9.5 -88 -21.5 -156 q-12 -68 -24.5 -117 q-12.5 -49 -21.5 -81 l263 0 Z" /><glyph glyph-name="afii10024" unicode="&#x416;" d="M259 700 l80 0 l0 -314 l50 0 l110 314 l82 0 l-121 -342 l140 -358 l-92 0 l-117 324 l-52 0 l0 -324 l-80 0 l0 324 l-55 0 l-118 -324 l-86 0 l131 353 l-113 347 l87 0 l95 -314 l59 0 l0 314 Z" /><glyph glyph-name="afii10025" unicode="&#x417;" d="M80 183 l74 0 l0 -105 q24 -8 54 -14 q30 -6 65 -6 q76 0 122.5 36 q46.5 36 46.5 108 q0 63 -43 93.5 q-43 30.5 -114 35.5 l-60 0 l0 70 l69 0 q26 3 49 13.5 q23 10.5 40.5 26.5 q17.5 16 27.5 37 q10 21 10 45 q0 33 -11.5 55.5 q-11.5 22.5 -31.5 36.5 q-20 14 -48 20.5 q-28 6.5 -62 6.5 q-29 0 -57 -4 q-28 -4 -51 -10 l0 -99 l-74 0 l0 148 l0 1 q10 6 29 12 q19 6 45 11 q26 5 57 8 q31 3 65 3 q45 0 86 -8.5 q41 -8.5 72.5 -28 q31.5 -19.5 50 -53 q18.5 -33.5 18.5 -82.5 q0 -50 -32.5 -95.5 q-32.5 -45.5 -98.5 -65.5 l0 -4 q71 -10 111.5 -53 q40.5 -43 40.5 -115 q0 -57 -22 -98.5 q-22 -41.5 -58.5 -68.5 q-36.5 -27 -82.5 -39.5 q-46 -12.5 -94 -12.5 q-69 0 -117 12.5 q-48 12.5 -76 23.5 l0 1 l0 158 Z" /><glyph glyph-name="afii10026" unicode="&#x418;" d="M457 464 l6 100 l-6 0 l-58 -112 l-260 -452 l-79 0 l0 700 l83 0 l0 -470 l-5 -99 l6 0 l57 112 l260 457 l79 0 l0 -700 l-83 0 l0 464 Z" /><glyph glyph-name="afii10029" unicode="&#x41b;" d="M441 626 l-189 0 q-10 -200 -26.5 -332.5 q-16.5 -132.5 -49.5 -206.5 q-22 -48 -52 -70 q-30 -22 -65 -22 q-18 0 -31 2.5 q-13 2.5 -25 7.5 l11 72 q10 -3 21 -3 q17 0 33.5 11 q16.5 11 32.5 41 q14 27 26.5 72 q12.5 45 22 114 q9.5 69 15.5 164.5 q6 95.5 9 223.5 l350 0 l0 -700 l-83 0 l0 626 Z" /><glyph glyph-name="afii10033" unicode="&#x41f;" d="M447 626 l-294 0 l0 -626 l-83 0 l0 700 l460 0 l0 -700 l-83 0 l0 626 Z" /><glyph glyph-name="afii10037" unicode="&#x423;" d="M299 284 l64 0 l122 416 l85 0 l-142 -455 q-20 -69 -39.5 -117 q-19.5 -48 -42 -77.5 q-22.5 -29.5 -49.5 -42.5 q-27 -13 -62 -13 q-33 0 -52.5 5.5 q-19.5 5.5 -36.5 16.5 l25 69 q20 -11 37 -14 q17 -3 31 -3 q28 0 54 33 q26 33 43 108 l-90 1 l-216 489 l96 0 l173 -416 Z" /><glyph glyph-name="afii10038" unicode="&#x424;" d="M258 65 q-44 0 -86.5 11 q-42.5 11 -75.5 41.5 q-33 30.5 -53.5 86.5 q-20.5 56 -20.5 146 q0 81 19 138 q19 57 51 92.5 q32 35.5 75 51.5 q43 16 91 16 l0 72 l83 0 l0 -72 q43 0 85 -12.5 q42 -12.5 76 -45 q34 -32.5 55 -88 q21 -55.5 21 -142.5 q0 -85 -20.5 -142 q-20.5 -57 -54 -91 q-33.5 -34 -76 -48 q-42.5 -14 -86.5 -14 l0 -85 l-83 0 l0 85 ZM495 360 q0 58 -11 99.5 q-11 41.5 -31.5 67.5 q-20.5 26 -49.5 38.5 q-29 12.5 -65 12.5 l0 -444 q36 0 65.5 10.5 q29.5 10.5 49.5 36.5 q20 26 31 69.5 q11 43.5 11 109.5 ZM105 350 q0 -60 9.5 -101 q9.5 -41 28.5 -66.5 q19 -25.5 48.5 -37 q29.5 -11.5 68.5 -11.5 l0 444 q-34 0 -62.5 -10.5 q-28.5 -10.5 -49 -37 q-20.5 -26.5 -32 -70.5 q-11.5 -44 -11.5 -110 Z" /><glyph glyph-name="afii10040" unicode="&#x426;" d="M594 -141 l-70 0 l0 141 l-454 0 l0 700 l83 0 l0 -626 l275 0 l0 626 l83 0 l0 -626 l83 0 l0 -215 Z" /><glyph glyph-name="afii10041" unicode="&#x427;" d="M165 700 l0 -232 q0 -137 124 -137 q47 0 88 12.5 q41 12.5 67 33.5 l0 323 l83 0 l0 -700 l-83 0 l0 302 q-27 -15 -71 -30 q-44 -15 -101 -15 q-42 0 -77 9.5 q-35 9.5 -60 32 q-25 22.5 -39 60.5 q-14 38 -14 94 l0 247 l83 0 Z" /><glyph glyph-name="afii10042" unicode="&#x428;" d="M51 0 l0 700 l78 0 l0 -626 l132 0 l0 626 l78 0 l0 -626 l132 0 l0 626 l78 0 l0 -700 l-498 0 Z" /><glyph glyph-name="afii10043" unicode="&#x429;" d="M42 0 l0 700 l78 0 l0 -626 l131 0 l0 626 l78 0 l0 -626 l132 0 l0 626 l78 0 l0 -626 l61 0 l0 -215 l-70 0 l0 141 l-488 0 Z" /><glyph glyph-name="afii10044" unicode="&#x42a;" d="M161 626 l-140 0 l0 74 l223 0 l0 -272 q11 2 34 5 q23 3 46 3 q55 0 100 -12.5 q45 -12.5 77 -38 q32 -25.5 49.5 -65.5 q17.5 -40 17.5 -94 q0 -53 -16.5 -96 q-16.5 -43 -49 -73.5 q-32.5 -30.5 -80 -47.5 q-47.5 -17 -110.5 -17 q-9 0 -26.5 0.5 q-17.5 0.5 -38.5 2 q-21 1.5 -44 4.5 q-23 3 -42 8 l0 619 ZM322 64 q82 0 120 42 q38 42 38 114 q0 70 -41.5 107 q-41.5 37 -120.5 37 q-23 0 -43.5 -3 q-20.5 -3 -30.5 -6 l0 -285 q7 -2 17 -3 q10 -1 21 -1.5 q11 -0.5 21.5 -1 q10.5 -0.5 18.5 -0.5 Z" /><glyph glyph-name="afii10045" unicode="&#x42b;" d="M467 700 l83 0 l0 -700 l-83 0 l0 700 ZM50 700 l83 0 l0 -263 q7 2 25 5.5 q18 3.5 41 3.5 q37 0 73 -10 q36 -10 65 -35 q29 -25 47 -67.5 q18 -42.5 18 -106.5 q0 -62 -16 -106 q-16 -44 -45 -73 q-29 -29 -70 -42.5 q-41 -13.5 -90 -13.5 q-13 0 -30 0.5 q-17 0.5 -35 2 q-18 1.5 -35.5 4 q-17.5 2.5 -30.5 6.5 l0 695 ZM187 66 q29 0 53.5 8.5 q24.5 8.5 42 27 q17.5 18.5 27 47.5 q9.5 29 9.5 71 q0 45 -10.5 74.5 q-10.5 29.5 -28 47 q-17.5 17.5 -41 24 q-23.5 6.5 -49.5 6.5 q-17 0 -34 -2.5 q-17 -2.5 -23 -6.5 l0 -290 q8 -4 23 -5.5 q15 -1.5 31 -1.5 Z" /><glyph glyph-name="afii10046" unicode="&#x42c;" d="M118 700 l83 0 l0 -272 q5 1 17 2.5 q12 1.5 26 2.5 q14 1 29 2 q15 1 27 1 q48 0 93.5 -9.5 q45.5 -9.5 81 -33.5 q35.5 -24 57.5 -64.5 q22 -40.5 22 -102.5 q0 -60 -21 -104 q-21 -44 -58 -73 q-37 -29 -86.5 -43 q-49.5 -14 -107.5 -14 q-14 0 -34 0.5 q-20 0.5 -42.5 2 q-22.5 1.5 -45 4.5 q-22.5 3 -41.5 8 l0 693 ZM292 64 q36 0 67.5 9.5 q31.5 9.5 55.5 29 q24 19.5 37.5 49 q13.5 29.5 13.5 68.5 q0 42 -15 70 q-15 28 -39.5 44.5 q-24.5 16.5 -56.5 23 q-32 6.5 -66 6.5 q-9 0 -22 -1 q-13 -1 -26 -2 q-13 -1 -24 -3 q-11 -2 -16 -3 l0 -285 q14 -3 40 -4.5 q26 -1.5 51 -1.5 Z" /><glyph glyph-name="afii10047" unicode="&#x42d;" d="M76 670 l-1 3 q31 18 76.5 28.5 q45.5 10.5 97.5 10.5 q64 0 117.5 -20 q53.5 -20 92 -63.5 q38.5 -43.5 60 -112.5 q21.5 -69 21.5 -166 q0 -98 -24.5 -167 q-24.5 -69 -67 -112.5 q-42.5 -43.5 -99.5 -63 q-57 -19.5 -121 -19.5 q-25 0 -50.5 4.5 q-25.5 4.5 -48 11 q-22.5 6.5 -41 14 q-18.5 7.5 -28.5 13.5 l0 148 l74 0 l0 -100 q22 -8 49.5 -14.5 q27.5 -6.5 61.5 -6.5 q39 0 77 14 q38 14 68 45 q30 31 48.5 81 q18.5 50 18.5 123 l-248 0 l0 74 l247 0 q-2 65 -19 111.5 q-17 46.5 -46 76.5 q-29 30 -67.5 44.5 q-38.5 14.5 -84.5 14.5 q-26 0 -48 -3.5 q-22 -3.5 -41 -8.5 l0 -105 l-74 0 l0 145 Z" /><glyph glyph-name="afii10048" unicode="&#x42e;" d="M118 395 l83 0 q2 70 13.5 128 q11.5 58 34 100 q22.5 42 57.5 65.5 q35 23.5 83 23.5 q51 0 86.5 -25 q35.5 -25 58 -72 q22.5 -47 32.5 -114 q10 -67 10 -151 q0 -179 -47.5 -270.5 q-47.5 -91.5 -149.5 -91.5 q-47 0 -80 23 q-33 23 -55 66.5 q-22 43.5 -32.5 105 q-10.5 61.5 -11.5 139.5 l-82 0 l0 -322 l-83 0 l0 700 l83 0 l0 -305 ZM284 350 q0 -140 27 -214 q27 -74 75 -74 q59 0 83 68 q24 68 24 220 q0 60 -4.5 112.5 q-4.5 52.5 -16.5 91.5 q-12 39 -33.5 61.5 q-21.5 22.5 -55.5 22.5 q-28 0 -47 -20 q-19 -20 -30.5 -57 q-11.5 -37 -16.5 -90.5 q-5 -53.5 -5 -120.5 Z" /><glyph glyph-name="afii10049" unicode="&#x42f;" d="M500 0 l-83 0 l0 289 l-103 0 l-174 -289 l-98 0 l194 302 q-29 7 -55 22 q-26 15 -46 39 q-20 24 -31.5 56.5 q-11.5 32.5 -11.5 76.5 q0 61 20.5 101.5 q20.5 40.5 56 65 q35.5 24.5 83 35 q47.5 10.5 100.5 10.5 q34 0 72.5 -3 q38.5 -3 75.5 -12 l0 -693 ZM348 636 q-33 0 -63 -6.5 q-30 -6.5 -53.5 -22.5 q-23.5 -16 -37.5 -43 q-14 -27 -14 -68 q0 -38 13.5 -65 q13.5 -27 36.5 -44.5 q23 -17.5 53.5 -25.5 q30.5 -8 65.5 -8 l68 0 l0 277 q-14 3 -29 4.5 q-15 1.5 -40 1.5 Z" /><glyph glyph-name="afii10066" unicode="&#x431;" d="M133 409 q38 50 83.5 70 q45.5 20 113.5 20 q103 0 158 -62 q55 -62 55 -176 q0 -132 -64 -202.5 q-64 -70.5 -179 -70.5 q-243 0 -243 315 q0 86 9.5 147 q9.5 61 27.5 103 q18 42 44 67 q26 25 59 39.5 q33 14.5 72 20.5 q39 6 84 10 q58 4 89 11 q31 7 51 24 l12 -69 q-11 -9 -24 -15 q-13 -6 -32 -10 q-19 -4 -44.5 -7 q-25.5 -3 -60.5 -5 q-49 -3 -87 -10 q-38 -7 -64.5 -28.5 q-26.5 -21.5 -42 -62 q-15.5 -40.5 -20.5 -109.5 l3 0 ZM140 249 q0 -37 9.5 -72 q9.5 -35 29 -62 q19.5 -27 49.5 -43.5 q30 -16.5 72 -16.5 q80 0 120 52 q40 52 40 148 q0 37 -8.5 69 q-8.5 32 -25.5 56 q-17 24 -44.5 38 q-27.5 14 -64.5 14 q-93 0 -135 -46.5 q-42 -46.5 -42 -136.5 Z" /><glyph glyph-name="afii10067" unicode="&#x432;" d="M120 499 q19 1 38 2.5 q19 1.5 41 2.5 q22 1 47.5 2 q25.5 1 57.5 1 q108 0 156 -30.5 q48 -30.5 48 -91.5 q0 -35 -23 -69.5 q-23 -34.5 -75 -49.5 l0 -4 q66 -11 93 -40.5 q27 -29.5 27 -80.5 q0 -78 -63.5 -113 q-63.5 -35 -184.5 -35 q-48 0 -86 2.5 q-38 2.5 -76 5.5 l0 498 ZM197 63 q23 -2 46 -3 q23 -1 52 -1 q78 0 116.5 19.5 q38.5 19.5 38.5 67.5 q0 19 -7.5 34 q-7.5 15 -25 26 q-17.5 11 -45.5 17 q-28 6 -70 6 l-105 0 l0 -166 ZM316 289 q20 0 40 6.5 q20 6.5 36.5 17 q16.5 10.5 26.5 25 q10 14.5 10 30.5 q0 41 -29.5 57 q-29.5 16 -98.5 16 q-38 0 -60.5 -1 q-22.5 -1 -43.5 -2 l0 -149 l119 0 Z" /><glyph glyph-name="afii10068" unicode="&#x433;" d="M102 0 l0 67 l64 0 l0 365 l-64 0 l0 68 l404 0 l0 -187 l-68 0 l0 119 l-194 0 l0 -365 l152 0 l0 -67 l-294 0 Z" /><glyph glyph-name="afii10069" unicode="&#x434;" d="M566 -120 l-68 0 l0 120 l-402 0 l0 -120 l-68 0 l0 188 l56 0 q9 11 24 39.5 q15 28.5 29 80 q14 51.5 25 128 q11 76.5 13 184.5 l314 0 l0 -432 l77 0 l0 -188 ZM411 67 l0 366 l-165 0 q-2 -43 -7.5 -93 q-5.5 -50 -15.5 -99.5 q-10 -49.5 -24.5 -94.5 q-14.5 -45 -33.5 -79 l246 0 Z" /><glyph glyph-name="afii10072" unicode="&#x436;" d="M199 224 l-107 -224 l-86 0 l128 256 l-115 244 l87 0 l91 -216 l63 0 l0 216 l78 0 l0 -216 l54 0 l106 216 l82 0 l-118 -232 l132 -268 l-89 0 l-107 224 l-60 0 l0 -224 l-78 0 l0 224 l-61 0 Z" /><glyph glyph-name="afii10073" unicode="&#x437;" d="M107 453 l-1 3 q17 10 36.5 19.5 q19.5 9.5 44 17 q24.5 7.5 55.5 12.5 q31 5 71 5 q41 0 76 -8.5 q35 -8.5 61 -24.5 q26 -16 40.5 -39.5 q14.5 -23.5 14.5 -53.5 q0 -16 -6.5 -33.5 q-6.5 -17.5 -19.5 -33.5 q-13 -16 -31 -29 q-18 -13 -41 -20 l0 -4 q66 -11 92.5 -42 q26.5 -31 26.5 -82 q0 -32 -15 -59 q-15 -27 -44.5 -47 q-29.5 -20 -73 -31.5 q-43.5 -11.5 -101.5 -11.5 q-43 0 -78 8 q-35 8 -61.5 20 q-26.5 12 -45 26 q-18.5 14 -28.5 26 l40 63 q11 -12 27 -25.5 q16 -13.5 39.5 -24.5 q23.5 -11 54 -18.5 q30.5 -7.5 70.5 -7.5 q28 0 52.5 5.5 q24.5 5.5 43 16 q18.5 10.5 29.5 27 q11 16.5 11 38.5 q0 38 -34.5 58 q-34.5 20 -113.5 20 l-57 0 l0 65 l71 0 q20 0 40 6.5 q20 6.5 36 17 q16 10.5 26 25 q10 14.5 10 30.5 q0 20 -10 34.5 q-10 14.5 -27.5 23.5 q-17.5 9 -41 13.5 q-23.5 4.5 -49.5 4.5 q-40 0 -70 -7.5 q-30 -7.5 -51 -18.5 l0 -83 l-68 0 l0 119 Z" /><glyph glyph-name="afii10074" unicode="&#x438;" d="M437 314 l3 66 l-3 0 l-281 -380 l-71 0 l0 500 l78 0 l0 -323 l-3 -63 l4 0 l279 386 l72 0 l0 -500 l-78 0 l0 314 Z" /><glyph glyph-name="afii10076" unicode="&#x43a;" d="M241 226 l-55 0 l0 -226 l-77 0 l0 500 l77 0 l0 -214 l55 0 l197 214 l94 0 l-221 -237 l182 -196 l65 0 l0 -67 l-103 0 l-214 226 Z" /><glyph glyph-name="afii10077" unicode="&#x43b;" d="M426 432 l-173 0 q-4 -91 -10 -170.5 q-6 -79.5 -22.5 -138.5 q-16.5 -59 -47 -93 q-30.5 -34 -82.5 -34 q-20 0 -29 2 q-9 2 -22 7 l13 74 q19 -5 35.5 -5 q16.5 0 29.5 12 q13 12 23.5 38.5 q10.5 26.5 18 75 q7.5 48.5 12.5 122 q5 73.5 8 178.5 l324 0 l0 -500 l-78 0 l0 432 Z" /><glyph glyph-name="afii10078" unicode="&#x43c;" d="M458 297 l2 71 l-5 0 l-144 -229 l-28 0 l-146 229 l-4 0 l5 -70 l0 -298 l-74 0 l0 500 l79 0 l159 -251 l2 0 l152 251 l80 0 l0 -500 l-78 0 l0 297 Z" /><glyph glyph-name="afii10079" unicode="&#x43d;" d="M434 222 l-269 0 l0 -222 l-77 0 l0 500 l77 0 l0 -208 l269 0 l0 208 l78 0 l0 -500 l-78 0 l0 222 Z" /><glyph glyph-name="afii10081" unicode="&#x43f;" d="M430 432 l-261 0 l0 -432 l-77 0 l0 500 l416 0 l0 -500 l-78 0 l0 432 Z" /><glyph glyph-name="afii10084" unicode="&#x442;" d="M52 500 l496 0 l0 -187 l-68 0 l0 119 l-141 0 l0 -365 l121 0 l0 -67 l-324 0 l0 67 l125 0 l0 365 l-141 0 l0 -119 l-68 0 l0 187 Z" /><glyph glyph-name="afii10086" unicode="&#x444;" d="M184 700 l154 0 l0 -197 q18 3 32 4 q14 1 27 1 q91 0 135 -57.5 q44 -57.5 44 -190.5 q0 -126 -46.5 -199 q-46.5 -73 -136.5 -73 q-9 0 -26.5 1.5 q-17.5 1.5 -28.5 5.5 l0 -195 l-76 0 l0 196 q-17 -6 -35.5 -7 q-18.5 -1 -33.5 -1 q-84 0 -126.5 64 q-42.5 64 -42.5 198 q0 128 48 193 q48 65 142 65 q28 0 48 -4 l0 129 l-78 0 l0 67 ZM382 442 q-12 0 -21.5 -0.5 q-9.5 -0.5 -23.5 -4.5 l0 -380 q10 -2 22.5 -2.5 q12.5 -0.5 27.5 -0.5 q57 0 83 53 q26 53 26 153 q0 42 -5 76 q-5 34 -18 57.5 q-13 23.5 -35 36 q-22 12.5 -56 12.5 ZM213 54 q12 0 24 1 q12 1 26 4 l0 379 q-12 2 -22.5 3 q-10.5 1 -25.5 1 q-54 0 -82.5 -46.5 q-28.5 -46.5 -28.5 -145.5 q0 -42 6 -78 q6 -36 19 -62.5 q13 -26.5 33.5 -41 q20.5 -14.5 50.5 -14.5 Z" /><glyph glyph-name="afii10088" unicode="&#x446;" d="M585 -120 l-68 0 l0 120 l-427 0 l0 500 l77 0 l0 -432 l258 0 l0 432 l78 0 l0 -432 l82 0 l0 -188 Z" /><glyph glyph-name="afii10089" unicode="&#x447;" d="M167 500 l0 -133 q0 -27 3.5 -50 q3.5 -23 14.5 -39.5 q11 -16.5 31 -25.5 q20 -9 53 -9 q54 0 89 11.5 q35 11.5 52 24.5 l0 221 l78 0 l0 -500 l-78 0 l0 212 q-18 -11 -54.5 -23.5 q-36.5 -12.5 -99.5 -12.5 q-42 0 -73 8.5 q-31 8.5 -51.5 30 q-20.5 21.5 -31 57 q-10.5 35.5 -10.5 89.5 l0 139 l77 0 Z" /><glyph glyph-name="afii10090" unicode="&#x448;" d="M55 0 l0 500 l74 0 l0 -430 l134 0 l0 430 l74 0 l0 -430 l134 0 l0 430 l74 0 l0 -500 l-490 0 Z" /><glyph glyph-name="afii10091" unicode="&#x449;" d="M592 -120 l-68 0 l0 120 l-456 0 l0 500 l74 0 l0 -430 l120 0 l0 430 l74 0 l0 -430 l120 0 l0 430 l74 0 l0 -430 l62 0 l0 -190 Z" /><glyph glyph-name="afii10092" unicode="&#x44a;" d="M245 67 q46 -6 83 -6 q75 0 110 26.5 q35 26.5 35 69.5 q0 38 -34 65 q-34 27 -107 27 q-19 0 -42.5 -1 q-23.5 -1 -44.5 -6 l0 -175 ZM245 307 q27 4 51.5 5.5 q24.5 1.5 47.5 1.5 q58 0 98.5 -11.5 q40.5 -11.5 65.5 -31.5 q25 -20 36.5 -46.5 q11.5 -26.5 11.5 -57.5 q0 -91 -61.5 -132 q-61.5 -41 -186.5 -41 q-64 0 -140 6 l0 432 l-124 0 l0 68 l201 0 l0 -193 Z" /><glyph glyph-name="afii10093" unicode="&#x44b;" d="M127 70 q37 -6 71 -6 q63 0 88 24.5 q25 24.5 25 69.5 q0 40 -24.5 66 q-24.5 26 -85.5 26 q-17 0 -37 -1 q-20 -1 -37 -6 l0 -173 ZM127 309 q24 4 46 5.5 q22 1.5 42 1.5 q51 0 85.5 -11.5 q34.5 -11.5 55.5 -31.5 q21 -20 29.5 -47.5 q8.5 -27.5 8.5 -58.5 q0 -91 -50.5 -132 q-50.5 -41 -163.5 -41 q-64 0 -133 6 l0 500 l80 0 l0 -191 ZM473 500 l80 0 l0 -500 l-80 0 l0 500 Z" /><glyph glyph-name="afii10094" unicode="&#x44c;" d="M189 69 q11 -2 26.5 -3 q15.5 -1 31.5 -2.5 q16 -1.5 31 -2 q15 -0.5 24 -0.5 q75 0 110 26.5 q35 26.5 35 69.5 q0 38 -34 65 q-34 27 -107 27 q-33 0 -64.5 -1 q-31.5 -1 -52.5 -6 l0 -173 ZM189 307 q27 4 57.5 5.5 q30.5 1.5 70.5 1.5 q58 0 98.5 -11.5 q40.5 -11.5 66 -31.5 q25.5 -20 37 -46.5 q11.5 -26.5 11.5 -57.5 q0 -91 -61.5 -132 q-61.5 -41 -187.5 -41 q-16 0 -37.5 1 q-21.5 1 -44 2.5 q-22.5 1.5 -45.5 3 q-23 1.5 -42 3.5 l0 496 l77 0 l0 -193 Z" /><glyph glyph-name="afii10095" unicode="&#x44d;" d="M101 475 l2 0 q35 18 80 27.5 q45 9.5 107 9.5 q57 0 103 -18.5 q46 -18.5 79 -52.5 q33 -34 51 -82.5 q18 -48.5 18 -108.5 q0 -62 -20 -111 q-20 -49 -56 -82.5 q-36 -33.5 -84.5 -51 q-48.5 -17.5 -105.5 -17.5 q-26 0 -55 5 q-29 5 -56.5 13.5 q-27.5 8.5 -50.5 21 q-23 12.5 -38 27.5 l33 62 q29 -21 72 -40 q43 -19 97 -19 q32 0 65 9.5 q33 9.5 59.5 29.5 q26.5 20 43 50.5 q16.5 30.5 16.5 71.5 l-237 0 l0 66 l236 0 q-3 34 -17 63.5 q-14 29.5 -38.5 51 q-24.5 21.5 -59 33.5 q-34.5 12 -77.5 12 q-29 0 -54 -4.5 q-25 -4.5 -45 -12.5 l0 -75 l-68 0 l0 122 Z" /><glyph glyph-name="afii10096" unicode="&#x44e;" d="M387 -12 q-50 0 -83.5 16.5 q-33.5 16.5 -53.5 47 q-20 30.5 -29 73.5 q-9 43 -11 96 l-81 0 l0 -221 l-80 0 l0 500 l80 0 l0 -209 l82 0 q3 54 14 95 q11 41 32 69 q21 28 53.5 42.5 q32.5 14.5 78.5 14.5 q51 0 84.5 -18.5 q33.5 -18.5 53 -53 q19.5 -34.5 27.5 -83 q8 -48.5 8 -107.5 q0 -126 -39.5 -194 q-39.5 -68 -135.5 -68 ZM288 250 q0 -39 3 -74 q3 -35 13 -61 q10 -26 30 -41.5 q20 -15.5 55 -15.5 q28 0 46 11.5 q18 11.5 27.5 35 q9.5 23.5 13 59.5 q3.5 36 3.5 86 q0 39 -2.5 74 q-2.5 35 -11.5 61 q-9 26 -27.5 41.5 q-18.5 15.5 -49.5 15.5 q-31 0 -50.5 -11.5 q-19.5 -11.5 -30.5 -35 q-11 -23.5 -15 -60 q-4 -36.5 -4 -85.5 Z" /><glyph glyph-name="afii10097" unicode="&#x44f;" d="M410 195 l-120 0 l-126 -195 l-100 0 l0 67 l52 0 l91 136 q-19 5 -37 16.5 q-18 11.5 -32.5 29 q-14.5 17.5 -23 41 q-8.5 23.5 -8.5 52.5 q0 45 18 77.5 q18 32.5 50 53.5 q32 21 76 30.5 q44 9.5 97 9.5 q38 0 72 -5.5 q34 -5.5 69 -11.5 l0 -496 l-78 0 l0 195 ZM410 255 l0 178 q-14 5 -33 9 q-19 4 -33 4 q-76 0 -116 -23.5 q-40 -23.5 -40 -74.5 q0 -41 24 -63.5 q24 -22.5 58 -29.5 l140 0 Z" /><glyph glyph-name="afii10099" unicode="&#x452;" d="M59 500 l80 0 l0 200 l80 0 l0 -200 l160 0 l0 -60 l-160 0 l0 -148 l4 0 q26 31 62.5 49.5 q36.5 18.5 90.5 18.5 q42 0 73 -9.5 q31 -9.5 51.5 -33.5 q20.5 -24 30 -64.5 q9.5 -40.5 9.5 -102.5 l0 -177 q0 -93 -32 -139 q-32 -46 -102 -46 q-8 0 -15 0.5 q-7 0.5 -15 1.5 l0 68 q28 0 44.5 8.5 q16.5 8.5 25.5 26 q9 17.5 11.5 44.5 q2.5 27 2.5 63 l0 132 q0 39 -4.5 69 q-4.5 30 -16.5 49.5 q-12 19.5 -32.5 29.5 q-20.5 10 -53.5 10 q-47 0 -85 -30.5 q-38 -30.5 -49 -78.5 l0 -181 l-80 0 l0 440 l-80 0 l0 60 Z" /><glyph glyph-name="afii10101" unicode="&#x454;" d="M439 423 q-23 8 -49.5 13.5 q-26.5 5.5 -52.5 5.5 q-98 0 -146 -46 q-39 -38 -46 -110 l227 0 l0 -66 l-228 0 q4 -27 13 -49 q14 -34 40 -58 q26 -24 62.5 -37 q36.5 -13 80.5 -13 q47 0 91.5 16 q44.5 16 74.5 42 l35 -58 q-14 -12 -35 -25 q-21 -13 -48.5 -24.5 q-27.5 -11.5 -61 -18.5 q-33.5 -7 -72.5 -7 q-65 0 -114.5 18.5 q-49.5 18.5 -82.5 53 q-33 34.5 -50 83 q-17 48.5 -17 107.5 q0 63 17.5 112 q17.5 49 50.5 82 q33 33 80 50.5 q47 17.5 105 17.5 q74 0 120.5 -13 q46.5 -13 78.5 -29 l-1 -3 l0 -139 l-72 0 l0 95 Z" /><glyph glyph-name="afii10106" unicode="&#x459;" d="M372 309 q17 4 35 5.5 q18 1.5 38 1.5 q38 0 64.5 -11.5 q26.5 -11.5 43 -31.5 q16.5 -20 24 -47.5 q7.5 -27.5 7.5 -58.5 q0 -91 -46.5 -132 q-46.5 -41 -127.5 -41 q-33 0 -59.5 1.5 q-26.5 1.5 -53.5 4.5 l0 430 l-98 0 q-2 -39 -5 -86.5 q-3 -47.5 -8 -95.5 q-5 -48 -14 -93.5 q-9 -45.5 -24.5 -80.5 q-15.5 -35 -38 -56.5 q-22.5 -21.5 -55.5 -21.5 q-19 0 -28 2 q-9 2 -20 7 l12 67 q12 -4 23 -4 q18 0 32.5 17 q14.5 17 25.5 64.5 q11 47.5 19 131.5 q8 84 11 219 l243 0 l0 -191 ZM372 69 q22 -6 56 -6 q43 0 60.5 25 q17.5 25 17.5 70 q0 40 -15.5 66 q-15.5 26 -59.5 26 q-17 0 -33 -1 q-16 -1 -26 -6 l0 -174 Z" /><glyph glyph-name="afii10107" unicode="&#x45a;" d="M345 69 q9 -1 26.5 -3 q17.5 -2 34.5 -2 q56 0 79.5 24.5 q23.5 24.5 23.5 69.5 q0 40 -23 66 q-23 26 -77 26 q-17 0 -36 -2.5 q-19 -2.5 -28 -4.5 l0 -174 ZM345 309 q12 2 35 4.5 q23 2.5 43 2.5 q48 0 80.5 -11.5 q32.5 -11.5 52 -31.5 q19.5 -20 28 -47.5 q8.5 -27.5 8.5 -58.5 q0 -91 -48.5 -132 q-48.5 -41 -155.5 -41 q-33 0 -67 1.5 q-34 1.5 -56 4.5 l0 223 l-166 0 l0 -223 l-80 0 l0 500 l80 0 l0 -207 l166 0 l0 207 l80 0 l0 -191 Z" /><glyph glyph-name="afii10108" unicode="&#x45b;" d="M59 500 l80 0 l0 200 l80 0 l0 -200 l160 0 l0 -60 l-160 0 l0 -148 l4 0 q26 31 62.5 49.5 q36.5 18.5 90.5 18.5 q42 0 73 -9.5 q31 -9.5 51.5 -33.5 q20.5 -24 30 -64.5 q9.5 -40.5 9.5 -102.5 l0 -150 l-80 0 l0 132 q0 39 -4.5 69 q-4.5 30 -16.5 49.5 q-12 19.5 -32.5 29.5 q-20.5 10 -53.5 10 q-47 0 -85 -30.5 q-38 -30.5 -49 -78.5 l0 -181 l-80 0 l0 440 l-80 0 l0 60 Z" /><glyph glyph-name="afii10193" unicode="&#x45f;" d="M100 0 l0 500 l80 0 l0 -430 l240 0 l0 430 l80 0 l0 -500 l-163 0 l0 -160 l-68 0 l0 160 l-169 0 Z" /><glyph glyph-name="uni0460" unicode="&#x460;" d="M299 92 q-15 -60 -46 -83 q-31 -23 -74 -23 q-42 0 -69.5 31.5 q-27.5 31.5 -43.5 81.5 q-16 50 -22.5 112 q-6.5 62 -6.5 123 q0 87 11.5 157 q11.5 70 36 119.5 q24.5 49.5 62 76.5 q37.5 27 89.5 27 l0 -74 q-20 0 -40 -13 q-20 -13 -36 -46.5 q-16 -33.5 -25.5 -92 q-9.5 -58.5 -9.5 -148.5 q0 -86 5.5 -140.5 q5.5 -54.5 15 -85.5 q9.5 -31 21.5 -42.5 q12 -11.5 25 -11.5 q27 0 45.5 33.5 q18.5 33.5 18.5 92.5 l0 193 l88 0 l0 -193 q0 -62 17 -94 q17 -32 43 -32 q15 0 28 11 q13 11 22.5 42 q9.5 31 14.5 86 q5 55 5 142 q0 87 -10 144.5 q-10 57.5 -26 92 q-16 34.5 -35.5 48.5 q-19.5 14 -38.5 14 l0 74 q51 0 88 -26.5 q37 -26.5 61.5 -76 q24.5 -49.5 36.5 -120 q12 -70.5 12 -157.5 q0 -61 -6.5 -123 q-6.5 -62 -23 -112 q-16.5 -50 -43.5 -81.5 q-27 -31.5 -67 -31.5 q-20 0 -39 5.5 q-19 5.5 -35 17.5 q-16 12 -28 32.5 q-12 20.5 -18 50.5 l-3 0 Z" /><glyph glyph-name="uni0461" unicode="&#x461;" d="M299 71 q-13 -45 -42 -65 q-29 -20 -71 -20 q-44 0 -72.5 19.5 q-28.5 19.5 -45 53.5 q-16.5 34 -23 80.5 q-6.5 46.5 -6.5 100.5 q0 78 15 131 q15 53 41.5 85.5 q26.5 32.5 63.5 46.5 q37 14 81 14 l0 -70 q-23 0 -44.5 -8 q-21.5 -8 -38 -30.5 q-16.5 -22.5 -26 -62 q-9.5 -39.5 -9.5 -102.5 q0 -87 14.5 -137.5 q14.5 -50.5 50.5 -50.5 q35 0 54 24.5 q19 24.5 19 67.5 l0 149 l80 0 l0 -149 q0 -45 19 -68.5 q19 -23.5 52 -23.5 q36 0 51.5 51 q15.5 51 15.5 138 q0 64 -10 103.5 q-10 39.5 -26.5 61.5 q-16.5 22 -37.5 29.5 q-21 7.5 -43 7.5 l0 70 q44 0 80.5 -14.5 q36.5 -14.5 63 -47 q26.5 -32.5 41.5 -85.5 q15 -53 15 -130 q0 -54 -7 -100.5 q-7 -46.5 -24 -80.5 q-17 -34 -45 -53.5 q-28 -19.5 -69 -19.5 q-37 0 -67 20 q-30 20 -46 65 l-4 0 Z" /><glyph glyph-name="afii10146" unicode="&#x462;" d="M7 620 l149 0 l0 101 l83 0 l0 -101 l207 0 l0 -70 l-207 0 l0 -123 q5 1 17 2.5 q12 1.5 26 2.5 q14 1 29 2 q15 1 27 1 q48 0 93.5 -9.5 q45.5 -9.5 81 -33 q35.5 -23.5 57.5 -64 q22 -40.5 22 -102.5 q0 -60 -21 -104 q-21 -44 -58 -73 q-37 -29 -86.5 -43 q-49.5 -14 -107.5 -14 q-14 0 -34 0.5 q-20 0.5 -42.5 2 q-22.5 1.5 -45 4.5 q-22.5 3 -41.5 8 l0 543 l-149 0 l0 70 ZM330 64 q36 0 67.5 9.5 q31.5 9.5 55.5 29 q24 19.5 37.5 49 q13.5 29.5 13.5 68.5 q0 42 -15 70 q-15 28 -39.5 44 q-24.5 16 -56.5 22.5 q-32 6.5 -66 6.5 q-9 0 -22 -1 q-13 -1 -26 -2 q-13 -1 -24 -3 q-11 -2 -16 -3 l0 -284 q14 -3 40 -4.5 q26 -1.5 51 -1.5 Z" /><glyph glyph-name="afii10194" unicode="&#x463;" d="M37 500 l109 0 l0 200 l80 0 l0 -200 l190 0 l0 -66 l-190 0 l0 -125 q24 4 50 5.5 q26 1.5 68 1.5 q52 0 88 -11.5 q36 -11.5 58.5 -31.5 q22.5 -20 32.5 -47.5 q10 -27.5 10 -58.5 q0 -91 -54.5 -132 q-54.5 -41 -169.5 -41 q-17 0 -38 0.5 q-21 0.5 -43 1 q-22 0.5 -43.5 1.5 q-21.5 1 -38.5 3 l0 434 l-109 0 l0 66 ZM226 70 q20 -3 43 -4.5 q23 -1.5 43 -1.5 q75 0 106.5 24.5 q31.5 24.5 31.5 69.5 q0 40 -30.5 66 q-30.5 26 -99.5 26 q-24 0 -50 -1 q-26 -1 -44 -6 l0 -173 Z" /><glyph glyph-name="afii10147" unicode="&#x472;" d="M48 350 q0 174 61.5 268 q61.5 94 189.5 94 q70 0 118.5 -26 q48.5 -26 78.5 -73.5 q30 -47.5 43 -114 q13 -66.5 13 -148.5 q0 -174 -61.5 -268 q-61.5 -94 -191.5 -94 q-69 0 -117 26 q-48 26 -78 73.5 q-30 47.5 -43 114 q-13 66.5 -13 148.5 ZM299 62 q81 0 120.5 62.5 q39.5 62.5 43.5 193.5 l-327 0 q2 -53 11 -99.5 q9 -46.5 28 -81 q19 -34.5 49.5 -55 q30.5 -20.5 74.5 -20.5 ZM299 638 q-78 0 -117.5 -60.5 q-39.5 -60.5 -44.5 -185.5 l326 0 q-3 51 -12.5 95.5 q-9.5 44.5 -28.5 78 q-19 33.5 -49 53 q-30 19.5 -74 19.5 Z" /><glyph glyph-name="afii10195" unicode="&#x473;" d="M57 250 q0 121 63 191.5 q63 70.5 180 70.5 q63 0 108.5 -20.5 q45.5 -20.5 75.5 -55.5 q30 -35 44.5 -83 q14.5 -48 14.5 -103 q0 -60 -16 -108.5 q-16 -48.5 -47 -82.5 q-31 -34 -76.5 -52.5 q-45.5 -18.5 -103.5 -18.5 q-62 0 -108 20.5 q-46 20.5 -76 55.5 q-30 35 -44.5 83 q-14.5 48 -14.5 103 ZM300 445 q-147 0 -159 -164 l318 0 q-3 31 -14 61 q-11 30 -30 52.5 q-19 22.5 -47.5 36.5 q-28.5 14 -67.5 14 ZM300 55 q72 0 112 41 q40 41 47 121 l-318 0 q3 -31 14 -60.5 q11 -29.5 30 -52 q19 -22.5 47.5 -36 q28.5 -13.5 67.5 -13.5 Z" /><glyph glyph-name="afii10148" unicode="&#x474;" d="M295 0 l-78 0 l-246 700 l90 0 l196 -566 l7 0 l98 358 q23 78 43.5 121.5 q20.5 43.5 41.5 64 q21 20.5 43 25 q22 4.5 48 4.5 q35 0 55 -5.5 q20 -5.5 37 -16.5 l-24 -70 q-20 11 -37.5 14.5 q-17.5 3.5 -31.5 3.5 q-28 0 -47 -26 q-19 -26 -39 -87 l-156 -520 Z" /><glyph glyph-name="afii10196" unicode="&#x475;" d="M291 -11 l-34 0 l-217 511 l92 0 l147 -361 l1 0 l72 186 q16 43 30 76.5 q14 33.5 30.5 57 q16.5 23.5 38 36 q21.5 12.5 51.5 12.5 q18 0 32 -2 q14 -2 26 -7 l-12 -74 q-9 4 -17.5 6.5 q-8.5 2.5 -16.5 2.5 q-17 0 -34 -15 q-17 -15 -37 -62 l-152 -367 Z" /><glyph glyph-name="uni048A" unicode="&#x48a;" d="M421 464 l6 100 l-6 0 l-58 -112 l-260 -452 l-79 0 l0 700 l83 0 l0 -470 l-5 -99 l6 0 l57 112 l260 457 l79 0 l0 -630 l104 0 l-71 -200 l-74 0 l45 130 l-87 0 l0 464 ZM187 870 q4 -37 28 -57 q24 -20 64 -20 q40 0 63.5 20 q23.5 20 28.5 56 l71 -17 q-11 -54 -50.5 -85.5 q-39.5 -31.5 -113.5 -31.5 q-71 0 -116.5 27.5 q-45.5 27.5 -53.5 87.5 l79 20 Z" /><glyph glyph-name="uni048B" unicode="&#x48b;" d="M437 314 l3 66 l-3 0 l-281 -380 l-71 0 l0 500 l78 0 l0 -323 l-3 -63 l4 0 l279 386 l72 0 l0 -433 l106 0 l-71 -197 l-74 0 l45 130 l-84 0 l0 314 ZM215 702 q10 -46 34.5 -64 q24.5 -18 56.5 -18 q32 0 57 19 q25 19 34 62 l60 -19 q-9 -58 -51.5 -89 q-42.5 -31 -101.5 -31 q-27 0 -53.5 7 q-26.5 7 -47.5 21 q-21 14 -36 36 q-15 22 -20 52 l68 24 Z" /><glyph glyph-name="uni048E" unicode="&#x48e;" d="M81 693 q38 9 82 12 q44 3 87 3 q46 0 93.5 -9 q47.5 -9 86.5 -33 q39 -24 63.5 -66 q24.5 -42 24.5 -107 q0 -75 -31.5 -123 q-31.5 -48 -81.5 -74 l68 -98 l-46 -33 l-77 110 q-48 -13 -104 -13 q-5 0 -16.5 0 q-11.5 0 -24 0.5 q-12.5 0.5 -24.5 1.5 q-12 1 -17 2 l0 -266 l-83 0 l0 693 ZM287 462 l71 -103 q32 17 52 48.5 q20 31.5 20 85.5 q0 41 -15.5 68.5 q-15.5 27.5 -41 44 q-25.5 16.5 -57.5 23.5 q-32 7 -64 7 q-26 0 -50 -1 q-24 -1 -38 -5 l0 -290 q5 -2 16 -2.5 q11 -0.5 23 -1 q12 -0.5 23 -0.5 q11 0 16 0 q17 0 33 1 q16 1 33 5 l-64 93 l43 27 Z" /><glyph glyph-name="uni048F" unicode="&#x48f;" d="M96 325 q0 9 -0.5 23.5 q-0.5 14.5 -1.5 30 q-1 15.5 -2.5 30.5 q-1.5 15 -3.5 26 l-67 0 l0 65 l133 0 l10 -70 l5 0 q27 35 68.5 58.5 q41.5 23.5 101.5 23.5 q107 0 161 -59 q54 -59 54 -193 q0 -63 -18.5 -113.5 q-18.5 -50.5 -52.5 -85.5 q-9 -9 -18 -16 l59 -67 l-48 -41 l-64 74 q-6 -2 -11 -4 q-48 -19 -106 -19 q-21 0 -37.5 1.5 q-16.5 1.5 -30 4 q-13.5 2.5 -26.5 6.5 q-13 4 -28 10 l0 -210 l-77 0 l0 525 ZM326 439 q-30 0 -56.5 -11 q-26.5 -11 -47 -29 q-20.5 -18 -33.5 -40 q-13 -22 -16 -44 l0 -228 q22 -15 49.5 -23.5 q27.5 -8.5 72.5 -8.5 q38 0 69 12 l-61 71 l46 41 l67 -78 q4 3 7 6 q48 53 48 154 q0 85 -33.5 131.5 q-33.5 46.5 -111.5 46.5 Z" /><glyph glyph-name="afii10050" unicode="&#x490;" d="M70 700 l406 0 l0 120 l74 0 l0 -194 l-301 0 l0 -552 l167 0 l0 -74 l-346 0 l0 74 l96 0 l0 552 l-96 0 l0 74 Z" /><glyph glyph-name="afii10098" unicode="&#x491;" d="M102 0 l0 67 l64 0 l0 365 l-64 0 l0 68 l336 0 l0 120 l68 0 l0 -188 l-262 0 l0 -365 l152 0 l0 -67 l-294 0 Z" /><glyph glyph-name="uni0492" unicode="&#x492;" d="M535 626 l-292 0 l0 -241 l215 0 l0 -66 l-215 0 l0 -319 l-83 0 l0 319 l-96 0 l0 66 l96 0 l0 315 l375 0 l0 -74 Z" /><glyph glyph-name="uni0493" unicode="&#x493;" d="M511 430 l-292 0 l0 -151 l249 0 l0 -60 l-249 0 l0 -219 l-80 0 l0 219 l-90 0 l0 60 l90 0 l0 221 l372 0 l0 -70 Z" /><glyph glyph-name="uni0494" unicode="&#x494;" d="M165 0 l-83 0 l0 700 l375 0 l0 -74 l-292 0 l0 -271 q12 4 47.5 12.5 q35.5 8.5 90.5 8.5 q40 0 78.5 -11 q38.5 -11 69 -38 q30.5 -27 49 -73.5 q18.5 -46.5 18.5 -117.5 q0 -137 -60.5 -200.5 q-60.5 -63.5 -172.5 -63.5 q-33 0 -47.5 0.5 q-14.5 0.5 -22.5 2.5 l0 74 q13 -2 28.5 -2.5 q15.5 -0.5 44.5 -0.5 q142 0 142 183 q0 51 -12 84.5 q-12 33.5 -32.5 54 q-20.5 20.5 -48 28.5 q-27.5 8 -59.5 8 q-18 0 -35.5 -2.5 q-17.5 -2.5 -33 -6 q-15.5 -3.5 -27 -7.5 q-11.5 -4 -17.5 -6 l0 -282 Z" /><glyph glyph-name="uni0495" unicode="&#x495;" d="M178 0 l-80 0 l0 500 l381 0 l0 -70 l-301 0 l0 -178 q6 2 16.5 5.5 q10.5 3.5 28.5 7 q18 3.5 45 6 q27 2.5 65 2.5 q40 0 77.5 -11.5 q37.5 -11.5 66.5 -38 q29 -26.5 46.5 -70 q17.5 -43.5 17.5 -108.5 q0 -131 -52.5 -192.5 q-52.5 -61.5 -164.5 -61.5 q-33 0 -47.5 0.5 q-14.5 0.5 -22.5 2.5 l0 70 q13 -2 28.5 -2.5 q15.5 -0.5 44.5 -0.5 q70 0 102 45.5 q32 45.5 32 128.5 q0 45 -12 76.5 q-12 31.5 -32 52 q-20 20.5 -47.5 30 q-27.5 9.5 -58.5 9.5 q-58 0 -90 -8 q-32 -8 -43 -13 l0 -182 Z" /><glyph glyph-name="uni0496" unicode="&#x496;" d="M259 700 l80 0 l0 -314 l50 0 l110 314 l82 0 l-121 -342 l111 -284 l48 0 l0 -194 l-70 0 l0 120 l-41 0 l-117 324 l-52 0 l0 -324 l-80 0 l0 324 l-55 0 l-118 -324 l-86 0 l131 353 l-113 347 l87 0 l95 -314 l59 0 l0 314 Z" /><glyph glyph-name="uni0497" unicode="&#x497;" d="M199 224 l-107 -224 l-86 0 l128 256 l-115 244 l87 0 l91 -216 l63 0 l0 216 l78 0 l0 -216 l54 0 l106 216 l82 0 l-118 -232 l99 -201 l51 0 l0 -187 l-68 0 l0 120 l-39 0 l-107 224 l-60 0 l0 -224 l-78 0 l0 224 l-61 0 Z" /><glyph glyph-name="uni0498" unicode="&#x498;" d="M80 183 l74 0 l0 -105 q24 -8 54 -14 q30 -6 65 -6 q76 0 122.5 36 q46.5 36 46.5 108 q0 63 -43 93.5 q-43 30.5 -114 35.5 l-60 0 l0 70 l69 0 q26 3 49 13.5 q23 10.5 40.5 26.5 q17.5 16 27.5 37 q10 21 10 45 q0 33 -11.5 55.5 q-11.5 22.5 -31.5 36.5 q-20 14 -48 20.5 q-28 6.5 -62 6.5 q-29 0 -57 -4 q-28 -4 -51 -10 l0 -99 l-74 0 l0 149 q10 6 29 12 q19 6 45 11 q26 5 57 8 q31 3 65 3 q45 0 86 -8.5 q41 -8.5 72.5 -28 q31.5 -19.5 50 -53 q18.5 -33.5 18.5 -82.5 q0 -50 -32.5 -95.5 q-32.5 -45.5 -98.5 -65.5 l0 -4 q71 -10 111.5 -53 q40.5 -43 40.5 -115 q0 -57 -22 -98.5 q-22 -41.5 -58.5 -68.5 q-36.5 -27 -82.5 -40 q-25 -6 -51 -9 l0 -151 l-70 0 l0 149 q-52 2 -90 11 q-48 13 -76 24 l0 159 Z" /><glyph glyph-name="uni0499" unicode="&#x499;" d="M107 453 l-1 3 q17 10 36.5 19.5 q19.5 9.5 44 17 q24.5 7.5 55.5 12.5 q31 5 71 5 q41 0 76 -8.5 q35 -8.5 61 -24.5 q26 -16 40.5 -39.5 q14.5 -23.5 14.5 -53.5 q0 -16 -6.5 -33.5 q-6.5 -17.5 -19.5 -33.5 q-13 -16 -31 -29 q-18 -13 -41 -20 l0 -4 q66 -11 92.5 -42 q26.5 -31 26.5 -82 q0 -32 -15 -59 q-15 -27 -44.5 -47 q-29.5 -20 -73.5 -32 q-25 -6 -56 -9 l0 -153 l-68 0 l0 152 q-30 1 -55 7 q-35 8 -61.5 20 q-26.5 12 -45 26 q-18.5 14 -28.5 26 l40 63 q11 -12 27 -25.5 q16 -13.5 39.5 -24.5 q23.5 -11 54 -18.5 q30.5 -7.5 70.5 -7.5 q28 0 52.5 5.5 q24.5 5.5 43 16 q18.5 10.5 29.5 27 q11 16.5 11 38.5 q0 38 -34.5 58 q-34.5 20 -113.5 20 l-57 0 l0 65 l71 0 q20 0 40 6.5 q20 6.5 36 17 q16 10.5 26 25 q10 14.5 10 30.5 q0 20 -10 34.5 q-10 14.5 -27.5 23.5 q-17.5 9 -41 13.5 q-23.5 4.5 -49.5 4.5 q-40 0 -70 -7.5 q-30 -7.5 -51 -18.5 l0 -83 l-68 0 l0 119 Z" /><glyph glyph-name="uni049A" unicode="&#x49a;" d="M245 324 l-77 0 l0 -324 l-83 0 l0 700 l83 0 l0 -312 l75 0 l225 312 l96 0 l-247 -333 l222 -293 l61 0 l0 -194 l-70 0 l0 120 l-40 0 l-245 324 Z" /><glyph glyph-name="uni049B" unicode="&#x49b;" d="M221 226 l-55 0 l0 -226 l-77 0 l0 500 l77 0 l0 -214 l55 0 l197 214 l94 0 l-221 -237 l182 -196 l67 0 l0 -187 l-68 0 l0 120 l-37 0 l-214 226 Z" /><glyph glyph-name="uni049C" unicode="&#x49c;" d="M184 324 l-54 0 l0 -324 l-83 0 l0 700 l83 0 l0 -312 l54 0 l0 117 l66 0 l0 -117 l25 0 l195 312 l96 0 l-217 -333 l238 -367 l-105 0 l-205 324 l-27 0 l0 -129 l-66 0 l0 129 Z" /><glyph glyph-name="uni049D" unicode="&#x49d;" d="M465 0 l-164 226 l-36 0 l0 -128 l-63 0 l0 128 l-51 0 l0 -226 l-77 0 l0 500 l77 0 l0 -214 l51 0 l0 116 l63 0 l0 -116 l36 0 l147 214 l84 0 l-161 -237 l138 -196 l49 0 l0 -67 l-93 0 Z" /><glyph glyph-name="uni049E" unicode="&#x49e;" d="M0 636 l115 0 l0 64 l83 0 l0 -64 l119 0 l0 -66 l-119 0 l0 -182 l45 0 l225 312 l96 0 l-247 -333 l278 -367 l-105 0 l-245 324 l-47 0 l0 -324 l-83 0 l0 570 l-115 0 l0 66 Z" /><glyph glyph-name="uni049F" unicode="&#x49f;" d="M25 560 l84 0 l0 73 l-85 0 l0 67 l162 0 l0 -140 l159 0 l0 -60 l-159 0 l0 -214 l55 0 l197 214 l94 0 l-221 -237 l182 -196 l65 0 l0 -67 l-103 0 l-214 226 l-55 0 l0 -226 l-77 0 l0 500 l-84 0 l0 60 Z" /><glyph glyph-name="uni04A0" unicode="&#x4a0;" d="M246 324 l-27 0 l0 -324 l-83 0 l0 626 l-131 0 l0 74 l214 0 l0 -312 l25 0 l225 312 l96 0 l-247 -333 l278 -367 l-105 0 l-245 324 Z" /><glyph glyph-name="uni04A1" unicode="&#x4a1;" d="M261 226 l-55 0 l0 -226 l-77 0 l0 430 l-110 0 l0 70 l187 0 l0 -214 l55 0 l197 214 l94 0 l-221 -237 l182 -196 l65 0 l0 -67 l-103 0 l-214 226 Z" /><glyph glyph-name="uni04A3" unicode="&#x4a3;" d="M426 221 l-276 0 l0 -221 l-80 0 l0 500 l80 0 l0 -209 l276 0 l0 209 l80 0 l0 -433 l73 0 l0 -187 l-68 0 l-1 120 l-84 0 l0 221 Z" /><glyph glyph-name="uni04A4" unicode="&#x4a4;" d="M597 626 l-192 0 l0 -626 l-83 0 l0 321 l-236 0 l0 -321 l-83 0 l0 700 l83 0 l0 -305 l236 0 l0 305 l275 0 l0 -74 Z" /><glyph glyph-name="uni04A5" unicode="&#x4a5;" d="M579 430 l-172 0 l0 -430 l-80 0 l0 221 l-226 0 l0 -221 l-80 0 l0 500 l80 0 l0 -209 l226 0 l0 209 l252 0 l0 -70 Z" /><glyph glyph-name="uni04A6" unicode="&#x4a6;" d="M358 0 l-83 0 l0 626 l-173 0 l0 -626 l-83 0 l0 700 l339 0 l0 -335 q11 4 28.5 7.5 q17.5 3.5 49.5 3.5 q33 0 60.5 -11 q27.5 -11 47.5 -38 q20 -27 31 -73.5 q11 -46.5 11 -117.5 q0 -137 -49 -200.5 q-49 -63.5 -139 -63.5 q-35 0 -50 3 l0 74 q13 -2 26 -2.5 q13 -0.5 27 -0.5 q48 0 75.5 45.5 q27.5 45.5 27.5 137.5 q0 51 -5.5 84.5 q-5.5 33.5 -16.5 54 q-11 20.5 -28.5 28.5 q-17.5 8 -41.5 8 q-14 0 -28.5 -3.5 q-14.5 -3.5 -25.5 -8.5 l0 -292 Z" /><glyph glyph-name="uni04A7" unicode="&#x4a7;" d="M350 0 l-80 0 l0 430 l-161 0 l0 -430 l-80 0 l0 500 l321 0 l0 -240 q11 5 27.5 9 q16.5 4 46.5 4 q36 0 65 -11.5 q29 -11.5 50 -38 q21 -26.5 32 -70 q11 -43.5 11 -108.5 q0 -131 -48 -192.5 q-48 -61.5 -146 -61.5 q-37 0 -52 3 l0 70 q13 -2 26 -2.5 q13 -0.5 29 -0.5 q57 0 84 45.5 q27 45.5 27 128.5 q0 90 -24 129 q-24 39 -72 39 q-16 0 -30.5 -4 q-14.5 -4 -25.5 -9 l0 -190 Z" /><glyph glyph-name="uni04A8" unicode="&#x4a8;" d="M252 638 q-71 0 -110 -70.5 q-39 -70.5 -39 -216.5 q0 -145 46.5 -218.5 q46.5 -73.5 123.5 -74.5 q11 0 24.5 1 q13.5 1 23.5 5 q-32 19 -57 51 q-25 32 -42.5 71.5 q-17.5 39.5 -27 84.5 q-9.5 45 -9.5 91 q0 156 51.5 237.5 q51.5 81.5 149.5 80.5 q99 -1 147 -75 q48 -74 48 -207 q0 -124 -29 -207 q-29 -83 -80 -128 q5 -1 16.5 -2.5 q11.5 -1.5 16.5 -1.5 q14 1 32.5 2 q18.5 1 37.5 15 l25 -65 q-19 -15 -38 -18.5 q-19 -3.5 -45 -4.5 q-32 -1 -64 7.5 q-32 8.5 -54 22.5 q-26 -15 -58.5 -22.5 q-32.5 -7.5 -67.5 -7.5 q-67 0 -115.5 26 q-48.5 26 -80 73 q-31.5 47 -47 114 q-15.5 67 -15.5 149 q0 175 60 268.5 q60 93.5 177 93.5 l0 -74 ZM273 354 q0 -35 7.5 -73 q7.5 -38 23 -74 q15.5 -36 40 -66.5 q24.5 -30.5 58.5 -49.5 q45 42 68 113.5 q23 71.5 23 187.5 q0 45 -5.5 84 q-5.5 39 -17.5 68 q-12 29 -32 45.5 q-20 16.5 -48 16.5 q-57 0 -87 -59.5 q-30 -59.5 -30 -192.5 Z" /><glyph glyph-name="uni04A9" unicode="&#x4a9;" d="M229 442 q-69 -1 -103 -47.5 q-34 -46.5 -34 -143.5 q0 -39 9.5 -74 q9.5 -35 29.5 -61.5 q20 -26.5 49.5 -42 q29.5 -15.5 70.5 -15.5 q11 0 25.5 2 q14.5 2 24.5 8 q-36 22 -61 72 q-25 50 -25 113 q0 44 8.5 88 q8.5 44 29 79.5 q20.5 35.5 55.5 57.5 q35 22 88 22 q46 0 78.5 -17 q32.5 -17 53 -46 q20.5 -29 30 -68 q9.5 -39 9.5 -84 q0 -40 -10 -76 q-10 -36 -26.5 -65.5 q-16.5 -29.5 -38 -51 q-21.5 -21.5 -43.5 -31.5 q15 -7 38 -7 q20 0 41 7.5 q21 7.5 38 25.5 l25 -60 q-18 -17 -48.5 -28 q-30.5 -11 -66.5 -11 q-28 0 -56.5 9 q-28.5 9 -46.5 27 q-30 -21 -66 -28.5 q-36 -7.5 -68 -7.5 q-55 0 -98 18.5 q-43 18.5 -72 53 q-29 34.5 -44.5 83 q-15.5 48.5 -15.5 107.5 q0 125 55.5 193 q55.5 68 164.5 69 l0 -70 ZM298 256 q0 -57 22.5 -104.5 q22.5 -47.5 60.5 -73.5 q21 10 39.5 29.5 q18.5 19.5 32.5 46.5 q14 27 22.5 60 q8.5 33 8.5 71 q0 27 -5.5 53 q-5.5 26 -16.5 46.5 q-11 20.5 -27.5 33 q-16.5 12.5 -39.5 12.5 q-30 0 -49 -15 q-19 -15 -29.5 -40 q-10.5 -25 -14.5 -56 q-4 -31 -4 -63 Z" /><glyph glyph-name="uni04AA" unicode="&#x4aa;" d="M458 624 q-17 7 -37.5 10.5 q-20.5 3.5 -49.5 3.5 q-41 0 -80.5 -15 q-39.5 -15 -70 -49 q-30.5 -34 -49 -89 q-18.5 -55 -18.5 -135 q0 -72 16.5 -126 q16.5 -54 46 -90 q29.5 -36 71 -54 q41.5 -18 92.5 -18 q26 0 48.5 4.5 q22.5 4.5 41.5 12.5 l0 100 l74 0 l0 -135 l1 -2 q-30 -23 -76 -39 q-35 -11 -82 -14 l0 -149 l-70 0 l0 150 q-41 5 -77 19 q-53 22 -92 66 q-39 44 -60.5 112.5 q-21.5 68.5 -21.5 162.5 q0 98 24 166.5 q24 68.5 65 112 q41 43.5 95.5 63.5 q54.5 20 116.5 20 q34 0 59 -2.5 q25 -2.5 44 -7 q19 -4.5 33.5 -11.5 q14.5 -7 28.5 -16 l1 0 l0 -158 l-74 0 l0 107 Z" /><glyph glyph-name="uni04AB" unicode="&#x4ab;" d="M439 423 q-23 8 -49.5 13.5 q-26.5 5.5 -52.5 5.5 q-98 0 -146 -46 q-48 -46 -48 -146 q0 -44 14 -78.5 q14 -34.5 40 -58.5 q26 -24 62.5 -37 q36.5 -13 80.5 -13 q47 0 91.5 16 q44.5 16 74.5 42 l35 -58 q-14 -12 -35 -25 q-21 -13 -48.5 -24.5 q-27.5 -11.5 -61.5 -18.5 q-23 -5 -49 -6 l0 -149 l-68 0 l0 151 q-38 4 -70 15 q-49 19 -82 53.5 q-33 34.5 -50 83 q-17 48.5 -17 107.5 q0 63 17.5 112 q17.5 49 50.5 82 q33 33 80 50.5 q47 17.5 105 17.5 q74 0 120.5 -13 q46.5 -13 78.5 -29 l-1 -3 l0 -139 l-72 0 l0 95 Z" /><glyph glyph-name="uni04AC" unicode="&#x4ac;" d="M40 700 l520 0 l0 -183 l-74 0 l0 109 l-145 0 l0 -552 l92 0 l0 -194 l-70 0 l0 120 l-105 0 l0 626 l-144 0 l0 -109 l-74 0 l0 183 Z" /><glyph glyph-name="uni04AD" unicode="&#x4ad;" d="M52 500 l496 0 l0 -187 l-68 0 l0 119 l-141 0 l0 -365 l141 0 l0 -187 l-68 0 l0 120 l-276 0 l0 67 l125 0 l0 365 l-141 0 l0 -119 l-68 0 l0 187 Z" /><glyph glyph-name="uni04AF" unicode="&#x4af;" d="M302 97 l11 0 l157 403 l87 0 l-215 -507 l0 -193 l-80 0 l0 192 l-219 508 l92 0 l167 -403 Z" /><glyph glyph-name="uni04B0" unicode="&#x4b0;" d="M109 285 l140 0 l-240 415 l97 0 l200 -346 l1 0 l195 346 l89 0 l-240 -415 l141 0 l0 -62 l-150 0 l0 -223 l-83 0 l0 223 l-150 0 l0 62 Z" /><glyph glyph-name="uni04B1" unicode="&#x4b1;" d="M142 0 l116 0 l-215 500 l92 0 l167 -403 l11 0 l157 403 l87 0 l-212 -500 l117 0 l0 -60 l-120 0 l0 -140 l-80 0 l0 140 l-120 0 l0 60 Z" /><glyph glyph-name="uni04B2" unicode="&#x4b2;" d="M251 356 l-211 344 l100 0 l140 -237 l25 -47 l24 47 l149 237 l92 0 l-219 -337 l182 -289 l62 0 l0 -194 l-70 0 l0 120 l-42 0 l-157 251 l-27 50 l-26 -50 l-160 -251 l-93 0 l231 356 Z" /><glyph glyph-name="uni04B3" unicode="&#x4b3;" d="M253 256 l-193 244 l100 0 l144 -188 l148 188 l90 0 l-193 -240 l152 -193 l73 0 l0 -187 l-68 0 l0 120 l-48 0 l-159 205 l-162 -205 l-91 0 l207 256 Z" /><glyph glyph-name="uni04B4" unicode="&#x4b4;" d="M0 700 l378 0 l0 -74 l-146 0 l0 -552 l202 0 l0 626 l83 0 l0 -626 l83 0 l0 -215 l-70 0 l0 141 l-381 0 l0 626 l-149 0 l0 74 Z" /><glyph glyph-name="uni04B5" unicode="&#x4b5;" d="M593 -127 l-68 0 l0 127 l-371 0 l0 430 l-147 0 l0 70 l367 0 l0 -70 l-140 0 l0 -360 l207 0 l0 430 l80 0 l0 -430 l72 0 l0 -197 Z" /><glyph glyph-name="uni04B6" unicode="&#x4b6;" d="M115 700 l0 -232 q0 -137 124 -137 q47 0 88 12.5 q41 12.5 67 33.5 l0 323 l83 0 l0 -626 l91 0 l0 -194 l-70 0 l0 120 l-104 0 l0 302 q-27 -15 -71 -30 q-44 -15 -101 -15 q-42 0 -77 9.5 q-35 9.5 -60 32 q-25 22.5 -39 60.5 q-14 38 -14 94 l0 247 l83 0 Z" /><glyph glyph-name="uni04B7" unicode="&#x4b7;" d="M167 500 l0 -133 q0 -27 3.5 -50 q3.5 -23 14.5 -39.5 q11 -16.5 31 -25.5 q20 -9 53 -9 q54 0 89 11.5 q35 11.5 52 24.5 l0 221 l78 0 l0 -433 l81 0 l0 -187 l-68 0 l0 120 l-91 0 l0 212 q-18 -11 -54.5 -23.5 q-36.5 -12.5 -99.5 -12.5 q-42 0 -73 8.5 q-31 8.5 -51.5 30 q-20.5 21.5 -31 57 q-10.5 35.5 -10.5 89.5 l0 139 l77 0 Z" /><glyph glyph-name="uni04B8" unicode="&#x4b8;" d="M269 257 q-45 0 -81.5 9.5 q-36.5 9.5 -62 32 q-25.5 22.5 -39 60.5 q-13.5 38 -13.5 94 l0 247 l83 0 l0 -232 q0 -131 113 -137 l0 124 l66 0 l0 -120 q32 5 60 16 q28 11 48 26 l0 323 l83 0 l0 -700 l-83 0 l0 302 q-19 -11 -46.5 -21 q-27.5 -10 -61.5 -17 l0 -119 l-66 0 l0 112 Z" /><glyph glyph-name="uni04B9" unicode="&#x4b9;" d="M167 500 l0 -133 q0 -27 3.5 -50 q3.5 -23 14.5 -39.5 q11 -16.5 31 -25.5 q17 -8 44 -9 l0 130 l63 0 l0 -127 q19 3 35 8 q35 12 52 25 l0 221 l78 0 l0 -500 l-78 0 l0 212 q-18 -11 -55 -24 q-14 -5 -32 -8 l0 -112 l-63 0 l0 108 l-4 0 q-42 0 -73 8.5 q-31 8.5 -51.5 30 q-20.5 21.5 -31 57 q-10.5 35.5 -10.5 89.5 l0 139 l77 0 Z" /><glyph glyph-name="uni04BA" unicode="&#x4ba;" d="M440 0 l0 232 q0 137 -124 137 q-48 0 -89 -12.5 q-41 -12.5 -67 -33.5 l0 -323 l-83 0 l0 700 l83 0 l0 -302 q27 15 71.5 30 q44.5 15 100.5 15 q42 0 77.5 -9.5 q35.5 -9.5 60.5 -32 q25 -22.5 39 -60.5 q14 -38 14 -94 l0 -247 l-83 0 Z" /><glyph glyph-name="uni04BC" unicode="&#x4bc;" d="M237 318 q4 -65 14 -113.5 q10 -48.5 29.5 -80 q19.5 -31.5 50 -47 q30.5 -15.5 77.5 -15.5 q45 0 79.5 17 q34.5 17 57.5 39 l37 -57 q-28 -30 -73 -51.5 q-45 -21.5 -107 -21.5 q-117 0 -179.5 78.5 q-62.5 78.5 -69.5 251.5 l-17 0 q-67 0 -97.5 34.5 q-30.5 34.5 -30.5 88.5 q0 22 7.5 43 q7.5 21 20.5 34 l78 0 q-16 -13 -24.5 -33 q-8.5 -20 -8.5 -35 q0 -12 2.5 -23.5 q2.5 -11.5 9 -21 q6.5 -9.5 17.5 -15 q11 -5.5 28 -4.5 l15 1 q7 156 63.5 240.5 q56.5 84.5 161.5 84.5 q58 0 97.5 -19.5 q39.5 -19.5 62.5 -56 q23 -36.5 33 -90 q10 -53.5 10 -121.5 q0 -50 -9 -107 l-335 0 ZM494 388 q2 14 3 27 q1 13 1 26 q0 40 -3.5 76 q-3.5 36 -15.5 64 q-12 28 -36 44.5 q-24 16.5 -64 16.5 q-70 0 -104 -67 q-34 -67 -39 -187 l258 0 Z" /><glyph glyph-name="uni04BD" unicode="&#x4bd;" d="M560 40 q-30 -24 -75.5 -38 q-45.5 -14 -96.5 -14 q-56 0 -97.5 18 q-41.5 18 -68.5 51 q-27 33 -40.5 79.5 q-13.5 46.5 -14.5 104.5 l-12 0 q-36 0 -62 9.5 q-26 9.5 -43 25.5 q-17 16 -25 38 q-8 22 -8 47 q0 30 10 51 q10 21 31 42 l78 0 q-20 -14 -33.5 -35 q-13.5 -21 -13.5 -53 q0 -11 3.5 -21.5 q3.5 -10.5 11.5 -19 q8 -8.5 21.5 -14 q13.5 -5.5 33.5 -5.5 q7 0 11 1 q12 100 67.5 152.5 q55.5 52.5 149.5 52.5 q34 0 68 -7.5 q34 -7.5 61 -28.5 q27 -21 44 -59.5 q17 -38.5 17 -101.5 q0 -33 -6 -73 l-321 0 q0 -44 9 -78 q9 -34 28 -57.5 q19 -23.5 49.5 -36 q30.5 -12.5 74.5 -12.5 q34 0 68 11.5 q34 11.5 51 27.5 l30 -57 ZM388 442 q-59 0 -94.5 -31 q-35.5 -31 -42.5 -106 l248 0 q0 76 -29 106.5 q-29 30.5 -82 30.5 Z" /><glyph glyph-name="uni04BE" unicode="&#x4be;" d="M237 318 q4 -65 14 -113.5 q10 -48.5 29.5 -80 q19.5 -31.5 50 -47 q30.5 -15.5 77.5 -15.5 q45 0 79.5 17 q34.5 17 57.5 39 l37 -57 q-26 -27 -64.5 -47 q-38.5 -20 -91.5 -25 l0 -149 l-70 0 l0 151 q-96 14 -146.5 92.5 q-50.5 78.5 -56.5 234.5 l-17 0 q-67 0 -97.5 34.5 q-30.5 34.5 -30.5 88.5 q0 22 7.5 43 q7.5 21 20.5 34 l78 0 q-16 -13 -24.5 -33 q-8.5 -20 -8.5 -35 q0 -12 2.5 -23.5 q2.5 -11.5 9 -21 q6.5 -9.5 17.5 -15 q11 -5.5 28 -4.5 l15 1 q7 156 63.5 240.5 q56.5 84.5 161.5 84.5 q58 0 97.5 -19.5 q39.5 -19.5 62.5 -56 q23 -36.5 33 -90 q10 -53.5 10 -121.5 q0 -50 -9 -107 l-335 0 ZM494 388 q2 14 3 27 q1 13 1 26 q0 40 -3.5 76 q-3.5 36 -15.5 64 q-12 28 -36 44.5 q-24 16.5 -64 16.5 q-70 0 -104 -67 q-34 -67 -39 -187 l258 0 Z" /><glyph glyph-name="uni04BF" unicode="&#x4bf;" d="M560 40 q-26 -21 -63 -33.5 q-37 -12.5 -80 -16.5 l0 -150 l-68 0 l0 151 q-92 11 -136.5 78 q-44.5 67 -45.5 172 l-12 0 q-36 0 -62 9.5 q-26 9.5 -43 25.5 q-17 16 -25 38 q-8 22 -8 47 q0 30 10 51 q10 21 31 42 l78 0 q-20 -14 -33.5 -35 q-13.5 -21 -13.5 -53 q0 -11 3.5 -21.5 q3.5 -10.5 11.5 -19 q8 -8.5 21.5 -14 q13.5 -5.5 33.5 -5.5 q7 0 11 1 q12 100 67.5 152.5 q55.5 52.5 149.5 52.5 q34 0 68 -7.5 q34 -7.5 61 -28.5 q27 -21 44 -59.5 q17 -38.5 17 -101.5 q0 -33 -6 -73 l-321 0 q0 -44 9 -78 q9 -34 28 -57.5 q19 -23.5 49.5 -36 q30.5 -12.5 74.5 -12.5 q34 0 68 11.5 q34 11.5 51 27.5 l30 -57 ZM388 442 q-59 0 -94.5 -31 q-35.5 -31 -42.5 -106 l248 0 q0 76 -29 106.5 q-29 30.5 -82 30.5 Z" /><glyph glyph-name="uni04C3" unicode="&#x4c3;" d="M456 71 q0 136 -55.5 194.5 q-55.5 58.5 -170.5 58.5 l-62 0 l0 -324 l-83 0 l0 700 l83 0 l0 -312 l75 0 l225 312 l96 0 l-241 -325 q216 -21 216 -301 l0 -18 q0 -72 -13.5 -123 q-13.5 -51 -39 -83 q-25.5 -32 -61.5 -46.5 q-36 -14.5 -81 -14.5 q-7 0 -13.5 0 q-6.5 0 -14.5 1 l0 73 q40 0 66.5 11 q26.5 11 43 35.5 q16.5 24.5 23.5 64 q7 39.5 7 97.5 Z" /><glyph glyph-name="uni04C4" unicode="&#x4c4;" d="M448 16 q0 105 -56.5 153 q-56.5 48 -161.5 47 l-44 0 l0 -216 l-77 0 l0 500 l77 0 l0 -224 l55 0 l197 224 l94 0 l-211 -235 q67 -5 107.5 -29 q40.5 -24 62.5 -58.5 q22 -34.5 29.5 -75 q7.5 -40.5 7.5 -77.5 q0 -65 -16 -110 q-16 -45 -45 -74 q-29 -29 -68.5 -42 q-39.5 -13 -87.5 -13 q-8 0 -26.5 0 q-18.5 0 -27.5 2 l0 69 q5 -1 19 -1 q14 0 19 0 q38 0 66.5 8 q28.5 8 48 26.5 q19.5 18.5 29 49 q9.5 30.5 9.5 76.5 Z" /><glyph glyph-name="uni04C5" unicode="&#x4c5;" d="M441 626 l-189 0 q-10 -200 -26.5 -332.5 q-16.5 -132.5 -49.5 -206.5 q-22 -48 -52 -70 q-30 -22 -65 -22 q-18 0 -31 2.5 q-13 2.5 -25 7.5 l11 72 q10 -3 21 -3 q17 0 33.5 11 q16.5 11 32.5 41 q14 27 26.5 72 q12.5 45 22 114 q9.5 69 15.5 164.5 q6 95.5 9 223.5 l350 0 l0 -630 l93 0 l-71 -200 l-74 0 l45 130 l-76 0 l0 626 Z" /><glyph glyph-name="uni04C6" unicode="&#x4c6;" d="M406 432 l-173 0 q-4 -91 -10 -170.5 q-6 -79.5 -22.5 -138.5 q-16.5 -59 -47 -93 q-30.5 -34 -82.5 -34 q-20 0 -29 2 q-9 2 -22 7 l13 74 q19 -5 35.5 -5 q16.5 0 29.5 12 q13 12 23.5 38.5 q10.5 26.5 18 75 q7.5 48.5 12.5 122 q5 73.5 8 178.5 l324 0 l0 -433 l106 0 l-71 -197 l-74 0 l45 130 l-84 0 l0 432 Z" /><glyph glyph-name="uni04C7" unicode="&#x4c7;" d="M531 -27 q0 -93 -31.5 -139 q-31.5 -46 -101.5 -46 q-8 0 -15.5 0 q-7.5 0 -15.5 2 l0 70 q28 0 44.5 8 q16.5 8 24.5 25.5 q8 17.5 10 44 q2 26.5 2 62.5 l0 321 l-296 0 l0 -321 l-83 0 l0 700 l83 0 l0 -305 l296 0 l0 305 l83 0 l0 -727 Z" /><glyph glyph-name="uni04C8" unicode="&#x4c8;" d="M438 221 l-276 0 l0 -221 l-80 0 l0 500 l80 0 l0 -209 l276 0 l0 209 l80 0 l0 -527 q0 -93 -32 -139 q-32 -46 -102 -46 q-8 0 -15 0.5 q-7 0.5 -15 1.5 l0 68 q28 0 44.5 8.5 q16.5 8.5 25.5 26 q9 17.5 11.5 44.5 q2.5 27 2.5 63 l0 221 Z" /><glyph glyph-name="uni04C9" unicode="&#x4c9;" d="M416 321 l-276 0 l0 -321 l-83 0 l0 700 l83 0 l0 -305 l276 0 l0 305 l83 0 l0 -630 l104 0 l-71 -200 l-74 0 l45 130 l-87 0 l0 321 Z" /><glyph glyph-name="uni04CA" unicode="&#x4ca;" d="M414 222 l-269 0 l0 -222 l-77 0 l0 500 l77 0 l0 -208 l269 0 l0 208 l78 0 l0 -433 l105 0 l-71 -197 l-74 0 l45 130 l-83 0 l0 222 Z" /><glyph glyph-name="uni04CB" unicode="&#x4cb;" d="M160 700 l0 -232 q0 -137 124 -137 q47 0 88 12.5 q41 12.5 67 33.5 l0 323 l83 0 l0 -700 l-105 0 l0 -120 l-70 0 l0 194 l92 0 l0 228 q-27 -15 -71 -30 q-44 -15 -101 -15 q-42 0 -77 9.5 q-35 9.5 -60 32 q-25 22.5 -39 60.5 q-14 38 -14 94 l0 247 l83 0 Z" /><glyph glyph-name="uni04CC" unicode="&#x4cc;" d="M167 500 l0 -133 q0 -27 3.5 -50 q3.5 -23 14.5 -39.5 q11 -16.5 31 -25.5 q20 -9 53 -9 q54 0 89 11.5 q35 11.5 52 24.5 l0 221 l78 0 l0 -500 l-95 0 l0 -120 l-68 0 l0 184 l85 0 l0 148 q-18 -11 -54.5 -23.5 q-36.5 -12.5 -99.5 -12.5 q-42 0 -73 8.5 q-31 8.5 -51.5 30 q-20.5 21.5 -31 57 q-10.5 35.5 -10.5 89.5 l0 139 l77 0 Z" /><glyph glyph-name="uni04CD" unicode="&#x4cd;" d="M437 465 l10 95 l-5 0 l-48 -86 l-102 -171 l-25 0 l-107 172 l-46 85 l-5 0 l12 -94 l0 -466 l-81 0 l0 700 l77 0 l166 -266 l2 0 l160 266 l75 0 l0 -630 l104 0 l-71 -200 l-74 0 l45 130 l-87 0 l0 465 Z" /><glyph glyph-name="uni04CE" unicode="&#x4ce;" d="M458 297 l2 71 l-5 0 l-144 -229 l-28 0 l-146 229 l-4 0 l5 -70 l0 -298 l-74 0 l0 500 l79 0 l159 -251 l2 0 l152 251 l80 0 l0 -433 l105 0 l-71 -197 l-74 0 l45 130 l-83 0 l0 297 Z" /><glyph glyph-name="uni04CF" unicode="&#x4cf;" d="M120 700 l220 0 l0 -633 l138 0 l0 -67 l-218 0 l0 633 l-140 0 l0 67 Z" /><glyph glyph-name="uni04D8" unicode="&#x4d8;" d="M142 322 q-2 -14 -3 -26.5 q-1 -12.5 -1 -26.5 q0 -41 9 -79 q9 -38 27.5 -67 q18.5 -29 47 -47 q28.5 -18 67.5 -18 q83 0 122.5 66.5 q39.5 66.5 40.5 197.5 l-310 0 ZM452 392 q-9 127 -50.5 186.5 q-41.5 59.5 -134.5 59.5 q-23 0 -46 -4 q-23 -4 -43.5 -10 q-20.5 -6 -37.5 -13 q-17 -7 -28 -14 l-21 67 q30 18 80 33 q50 15 112 15 q60 0 106.5 -20.5 q46.5 -20.5 79 -64 q32.5 -43.5 49.5 -112.5 q17 -69 17 -165 q0 -174 -61.5 -268 q-61.5 -94 -185.5 -94 q-54 0 -97.5 20.5 q-43.5 20.5 -73.5 58 q-30 37.5 -46 91.5 q-16 54 -16 121 q0 26 2.5 54.5 q2.5 28.5 7.5 58.5 l387 0 Z" /><glyph glyph-name="afii10846" unicode="&#x4d9;" d="M78 442 q40 32 94.5 51 q54.5 19 118.5 19 q60 0 106 -18.5 q46 -18.5 77 -53 q31 -34.5 47 -82.5 q16 -48 16 -108 q0 -63 -17.5 -112 q-17.5 -49 -50.5 -82 q-33 -33 -80 -50.5 q-47 -17.5 -105 -17.5 q-42 0 -84.5 15 q-42.5 15 -75 50 q-32.5 35 -49.5 91 q-17 56 -7 139 l387 0 q-4 70 -50.5 114.5 q-46.5 44.5 -127.5 44.5 q-27 0 -52.5 -6.5 q-25.5 -6.5 -47 -15.5 q-21.5 -9 -39 -20 q-17.5 -11 -27.5 -20 l-33 62 ZM302 54 q26 0 52.5 9.5 q26.5 9.5 48 29 q21.5 19.5 35.5 49.5 q14 30 14 71 l-307 0 q0 -34 10.5 -63 q10.5 -29 30.5 -50.5 q20 -21.5 49 -33.5 q29 -12 67 -12 Z" /><glyph glyph-name="uni04E0" unicode="&#x4e0;" d="M67 700 l445 0 l0 -53 l-191 -240 l10 0 q50 0 92 -13.5 q42 -13.5 72 -38.5 q30 -25 46.5 -61 q16.5 -36 16.5 -81 q0 -54 -20.5 -95.5 q-20.5 -41.5 -56.5 -70.5 q-36 -29 -85 -44 q-49 -15 -107 -15 q-82 0 -139.5 21 q-57.5 21 -84.5 44 l0 158 l74 0 l0 -116 q28 -13 65.5 -23 q37.5 -10 85.5 -10 q39 0 73.5 10 q34.5 10 60 28.5 q25.5 18.5 40 45 q14.5 26.5 14.5 59.5 q0 70 -53.5 103 q-53.5 33 -147.5 33 l-58 0 l0 55 l182 230 l-260 0 l0 -109 l-74 0 l0 183 Z" /><glyph glyph-name="uni04E1" unicode="&#x4e1;" d="M98 500 l395 0 l0 -72 l-179 -231 l16 0 q46 0 84 -13 q38 -13 66 -37 q28 -24 43.5 -58 q15.5 -34 15.5 -77 q0 -54 -18 -96 q-18 -42 -50.5 -70.5 q-32.5 -28.5 -77.5 -43 q-45 -14.5 -100 -14.5 q-25 0 -52 5 q-27 5 -52.5 14 q-25.5 9 -48.5 21.5 q-23 12.5 -41 27.5 l1 2 l0 142 l68 0 l0 -103 q28 -17 61.5 -28.5 q33.5 -11.5 66.5 -11.5 q80 0 122.5 39.5 q42.5 39.5 42.5 106.5 q0 69 -48.5 98.5 q-48.5 29.5 -130.5 29.5 l-64 0 l0 48 l179 249 l-231 0 l0 -115 l-68 0 l0 187 Z" /><glyph glyph-name="uni04F6" unicode="&#x4f6;" d="M70 700 l480 0 l0 -183 l-74 0 l0 109 l-227 0 l0 -552 l157 0 l0 -194 l-70 0 l0 120 l-266 0 l0 74 l96 0 l0 552 l-96 0 l0 74 Z" /><glyph glyph-name="uni04F7" unicode="&#x4f7;" d="M72 0 l0 67 l124 0 l0 365 l-124 0 l0 68 l444 0 l0 -187 l-68 0 l0 119 l-174 0 l0 -365 l202 0 l0 -187 l-68 0 l0 120 l-336 0 Z" /><glyph glyph-name="uni04FC" unicode="&#x4fc;" d="M326 251 l-27 50 l-26 -50 l-160 -251 l-93 0 l231 356 l-211 344 l100 0 l140 -237 l25 -47 l24 47 l149 237 l92 0 l-219 -337 l140 -222 q31 -49 53 -99.5 q22 -50.5 22 -108.5 q0 -67 -33 -105 q-33 -38 -104 -38 q-8 0 -15.5 0 q-7.5 0 -15.5 2 l0 68 q50 0 69 18.5 q19 18.5 19 50.5 q0 28 -7 53 q-7 25 -17.5 47 q-10.5 22 -22 41 q-11.5 19 -21.5 34 l-92 147 Z" /><glyph glyph-name="uni04FD" unicode="&#x4fd;" d="M299 205 l-162 -205 l-91 0 l207 256 l-193 244 l100 0 l144 -188 l148 188 l90 0 l-193 -240 l97 -125 q15 -20 31 -43.5 q16 -23.5 29 -49 q13 -25.5 21 -51 q8 -25.5 8 -49.5 q0 -78 -42.5 -116 q-42.5 -38 -114.5 -38 q-8 0 -16 0.5 q-8 0.5 -15 1.5 l0 68 q57 0 82.5 17 q25.5 17 25.5 62 q0 20 -7.5 42.5 q-7.5 22.5 -18.5 44 q-11 21.5 -24 40.5 q-13 19 -23 33 l-83 108 Z" /><glyph glyph-name="uni0510" unicode="&#x510;" d="M445 613 q-29 11 -60 18 q-31 7 -60 7 q-31 0 -58 -5.5 q-27 -5.5 -47.5 -18 q-20.5 -12.5 -32.5 -33 q-12 -20.5 -12 -49.5 q0 -28 12 -49.5 q12 -21.5 32 -37.5 q20 -16 45 -26 q25 -10 51 -14 q17 -2 40 -3 q23 -1 41 -1 l16 0 l0 -70 l-55 0 q-12 0 -22.5 -0.5 q-10.5 -0.5 -21.5 -1.5 q-71 -5 -115 -35 q-44 -30 -44 -92 q0 -36 15.5 -62 q15.5 -26 40 -43.5 q24.5 -17.5 56 -26 q31.5 -8.5 63.5 -8.5 q38 0 72 7.5 q34 7.5 62 21.5 l0 88 l74 0 l0 -130 q-30 -23 -84 -42 q-54 -19 -135 -19 q-49 0 -94.5 12.5 q-45.5 12.5 -80.5 38.5 q-35 26 -56 65 q-21 39 -21 93 q0 68 39 116 q39 48 110 59 l0 4 q-33 10 -57 27.5 q-24 17.5 -39.5 39.5 q-15.5 22 -23.5 47 q-8 25 -8 50 q0 45 19.5 77.5 q19.5 32.5 52.5 53.5 q33 21 76.5 31 q43.5 10 90.5 10 q27 0 55.5 -4.5 q28.5 -4.5 55 -12.5 q26.5 -8 48 -18.5 q21.5 -10.5 34.5 -21.5 l0 -130 l-74 0 l0 88 Z" /><glyph glyph-name="uni0511" unicode="&#x511;" d="M423 421 q-24 7 -52 11.5 q-28 4.5 -51 4.5 q-69 0 -103.5 -16 q-34.5 -16 -34.5 -55 q0 -16 8.5 -31 q8.5 -15 22.5 -26.5 q14 -11.5 31.5 -18.5 q17.5 -7 35.5 -7 l80 0 l0 -65 l-68 0 q-69 0 -99 -18 q-30 -18 -30 -54 q0 -38 37 -61.5 q37 -23.5 99 -23.5 q25 0 53.5 5 q28.5 5 55.5 13.5 q27 8.5 50 19 q23 10.5 37 22.5 l28 -64 q-14 -12 -37.5 -23.5 q-23.5 -11.5 -53 -21 q-29.5 -9.5 -61.5 -15.5 q-32 -6 -62 -6 q-111 0 -168.5 40 q-57.5 40 -57.5 109 q0 51 24.5 77.5 q24.5 26.5 81.5 41.5 l0 4 q-42 14 -64.5 46.5 q-22.5 32.5 -22.5 73.5 q0 62 52.5 93 q52.5 31 143.5 31 q28 0 56.5 -3.5 q28.5 -3.5 55 -9.5 q26.5 -6 48.5 -13.5 q22 -7.5 37 -16.5 l0 -136 l-72 0 l0 93 Z" /><glyph glyph-name="uni0512" unicode="&#x512;" d="M521 -27 q0 -93 -32 -139 q-32 -46 -102 -46 q-8 0 -15 0.5 q-7 0.5 -15 1.5 l0 68 q28 0 44.5 7.5 q16.5 7.5 24.5 24.5 q8 17 10 44 q2 27 2 66 l0 626 l-179 0 q-10 -200 -26.5 -332.5 q-16.5 -132.5 -50.5 -206.5 q-22 -48 -51.5 -70 q-29.5 -22 -64.5 -22 q-35 0 -58 10 l13 72 q10 -3 21 -3 q17 0 34 11 q17 11 33 41 q14 27 26 72 q12 45 21.5 114 q9.5 69 15.5 164.5 q6 95.5 9 223.5 l340 0 l0 -727 Z" /><glyph glyph-name="uni0513" unicode="&#x513;" d="M425 430 l-185 0 q-3 -71 -8.5 -147.5 q-5.5 -76.5 -21 -140.5 q-15.5 -64 -43.5 -105 q-28 -41 -75 -41 q-19 0 -33 2 q-14 2 -25 7 l12 67 q12 -4 26 -4 q20 0 36 17 q16 17 28 64.5 q12 47.5 20 131.5 q8 84 11 219 l338 0 l0 -527 q0 -93 -32 -139 q-32 -46 -102 -46 q-8 0 -15 0.5 q-7 0.5 -15 1.5 l0 68 q28 0 44.5 8.5 q16.5 8.5 25.5 26 q9 17.5 11.5 44.5 q2.5 27 2.5 63 l0 430 Z" /><glyph glyph-name="uni0524" unicode="&#x524;" d="M417 626 l-264 0 l0 -626 l-83 0 l0 700 l430 0 l0 -626 l93 0 l0 -194 l-70 0 l0 120 l-106 0 l0 626 Z" /><glyph glyph-name="uni0525" unicode="&#x525;" d="M430 432 l-261 0 l0 -432 l-77 0 l0 500 l416 0 l0 -433 l79 0 l0 -187 l-68 0 l0 120 l-89 0 l0 432 Z" /><glyph glyph-name="uni0526" unicode="&#x526;" d="M414 0 l0 232 q0 137 -124 137 q-48 0 -89 -12.5 q-41 -12.5 -67 -33.5 l0 -323 l-83 0 l0 700 l83 0 l0 -302 q27 15 71.5 30 q44.5 15 100.5 15 q42 0 77.5 -9.5 q35.5 -9.5 60.5 -32 q25 -22.5 39 -60.5 q14 -38 14 -94 l0 -173 l92 0 l0 -203 l-70 0 l0 129 l-105 0 Z" /><glyph glyph-name="uni1E9E" unicode="&#x1e9e;" d="M395 603 q-9 8 -24 15 q-15 7 -34 12.5 q-19 5.5 -40.5 8.5 q-21.5 3 -43.5 3 q-44 0 -68.5 -16.5 q-24.5 -16.5 -35.5 -43.5 q-11 -27 -13 -62 q-2 -35 -2 -73 l0 -447 l-83 0 l0 478 q0 48 8.5 91 q8.5 43 31.5 74.5 q23 31.5 63 50 q40 18.5 104 18.5 q83 0 142.5 -24.5 q59.5 -24.5 103.5 -58.5 l-189 -222 l27 0 q99 0 152.5 -52.5 q53.5 -52.5 53.5 -141.5 q0 -108 -60 -166.5 q-60 -58.5 -169 -58.5 q-9 0 -25 1 q-16 1 -34 3 q-18 2 -35 5.5 q-17 3.5 -29 9.5 l13 73 q9 -6 23.5 -9.5 q14.5 -3.5 30.5 -6 q16 -2.5 31 -3.5 q15 -1 26 -1 q65 0 102.5 39 q37.5 39 37.5 105 q0 137 -172 137 l-62 0 l0 59 l169 203 Z" /><glyph glyph-name="endash" unicode="&#x2013;" d="M88 325 l424 0 l0 -74 l-424 0 l0 74 Z" /><glyph glyph-name="emdash" unicode="&#x2014;" d="M8 325 l584 0 l0 -74 l-584 0 l0 74 Z" /><glyph glyph-name="quoteleft" unicode="&#x2018;" d="M368 589 q0 -27 -18 -43 q-18 -16 -44 -16 q-35 0 -56 21 q-21 21 -21 63 q0 40 11.5 69.5 q11.5 29.5 28 49.5 q16.5 20 34.5 31.5 q18 11.5 32 16.5 l30 -41 q-28 -14 -48.5 -36 q-20.5 -22 -20.5 -56 q4 1 12 1 q23 0 41.5 -17 q18.5 -17 18.5 -43 Z" /><glyph glyph-name="quoteright" unicode="&#x2019;" d="M232 679 q0 27 18 43 q18 16 44 16 q35 0 56 -21 q21 -21 21 -63 q0 -40 -11.5 -69.5 q-11.5 -29.5 -28 -49.5 q-16.5 -20 -34.5 -31.5 q-18 -11.5 -32 -16.5 l-30 41 q28 14 48.5 36 q20.5 22 20.5 56 q-4 -1 -12 -1 q-23 0 -41.5 17 q-18.5 17 -18.5 43 Z" /><glyph glyph-name="quotesinglbase" unicode="&#x201a;" d="M232 39 q0 27 18 43 q18 16 44 16 q35 0 56 -21 q21 -21 21 -63 q0 -40 -11.5 -69.5 q-11.5 -29.5 -28 -49.5 q-16.5 -20 -34.5 -31.5 q-18 -11.5 -32 -16.5 l-30 41 q28 14 48.5 36 q20.5 22 20.5 56 q-4 -1 -12 -1 q-23 0 -41.5 17 q-18.5 17 -18.5 43 Z" /><glyph glyph-name="quotedblleft" unicode="&#x201c;" d="M268 589 q0 -27 -18 -43 q-18 -16 -44 -16 q-35 0 -56 21 q-21 21 -21 63 q0 40 11.5 69.5 q11.5 29.5 28 49.5 q16.5 20 34.5 31.5 q18 11.5 32 16.5 l30 -41 q-28 -14 -48.5 -36 q-20.5 -22 -20.5 -56 q4 1 12 1 q23 0 41.5 -17 q18.5 -17 18.5 -43 ZM468 589 q0 -27 -18 -43 q-18 -16 -44 -16 q-35 0 -56 21 q-21 21 -21 63 q0 40 11.5 69.5 q11.5 29.5 28 49.5 q16.5 20 34.5 31.5 q18 11.5 32 16.5 l30 -41 q-28 -14 -48.5 -36 q-20.5 -22 -20.5 -56 q4 1 12 1 q23 0 41.5 -17 q18.5 -17 18.5 -43 Z" /><glyph glyph-name="quotedblright" unicode="&#x201d;" d="M132 679 q0 27 18 43 q18 16 44 16 q35 0 56 -21 q21 -21 21 -63 q0 -40 -11.5 -69.5 q-11.5 -29.5 -28 -49.5 q-16.5 -20 -34.5 -31.5 q-18 -11.5 -32 -16.5 l-30 41 q28 14 48.5 36 q20.5 22 20.5 56 q-4 -1 -12 -1 q-23 0 -41.5 17 q-18.5 17 -18.5 43 ZM332 679 q0 27 18 43 q18 16 44 16 q35 0 56 -21 q21 -21 21 -63 q0 -40 -11.5 -69.5 q-11.5 -29.5 -28 -49.5 q-16.5 -20 -34.5 -31.5 q-18 -11.5 -32 -16.5 l-30 41 q28 14 48.5 36 q20.5 22 20.5 56 q-4 -1 -12 -1 q-23 0 -41.5 17 q-18.5 17 -18.5 43 Z" /><glyph glyph-name="quotedblbase" unicode="&#x201e;" d="M132 39 q0 27 18 43 q18 16 44 16 q35 0 56 -21 q21 -21 21 -63 q0 -40 -11.5 -69.5 q-11.5 -29.5 -28 -49.5 q-16.5 -20 -34.5 -31.5 q-18 -11.5 -32 -16.5 l-30 41 q28 14 48.5 36 q20.5 22 20.5 56 q-4 -1 -12 -1 q-23 0 -41.5 17 q-18.5 17 -18.5 43 ZM332 39 q0 27 18 43 q18 16 44 16 q35 0 56 -21 q21 -21 21 -63 q0 -40 -11.5 -69.5 q-11.5 -29.5 -28 -49.5 q-16.5 -20 -34.5 -31.5 q-18 -11.5 -32 -16.5 l-30 41 q28 14 48.5 36 q20.5 22 20.5 56 q-4 -1 -12 -1 q-23 0 -41.5 17 q-18.5 17 -18.5 43 Z" /><glyph glyph-name="dagger" unicode="&#x2020;" d="M97 502 l163 0 l0 198 l80 0 l0 -198 l163 0 l0 -72 l-163 0 l0 -430 l-15 -200 l-50 0 l-15 201 l0 429 l-163 0 l0 72 Z" /><glyph glyph-name="daggerdbl" unicode="&#x2021;" d="M260 430 l-163 0 l0 72 l163 0 l0 198 l80 0 l0 -198 l163 0 l0 -72 l-163 0 l0 -184 l163 0 l0 -72 l-163 0 l0 -174 l-16 -200 l-48 0 l-16 201 l0 173 l-163 0 l0 72 l163 0 l0 184 Z" /><glyph glyph-name="bullet" unicode="&#x2022;" d="M161 311 q0 31 11 56.5 q11 25.5 29.5 44 q18.5 18.5 44 28.5 q25.5 10 54.5 10 q29 0 54.5 -9.5 q25.5 -9.5 44 -27.5 q18.5 -18 29.5 -43.5 q11 -25.5 11 -58.5 q0 -33 -11 -58.5 q-11 -25.5 -29.5 -43.5 q-18.5 -18 -44 -27.5 q-25.5 -9.5 -54.5 -9.5 q-29 0 -54.5 9.5 q-25.5 9.5 -44 27.5 q-18.5 18 -29.5 43.5 q-11 25.5 -11 58.5 Z" /><glyph glyph-name="perthousand" unicode="&#x2030;" d="M20 562 q0 79 30.5 114.5 q30.5 35.5 77.5 35.5 q23 0 42.5 -7.5 q19.5 -7.5 34 -25 q14.5 -17.5 23 -46.5 q8.5 -29 8.5 -71 q0 -42 -8.5 -70.5 q-8.5 -28.5 -23 -46 q-14.5 -17.5 -34 -25 q-19.5 -7.5 -42.5 -7.5 q-47 0 -77.5 33 q-30.5 33 -30.5 116 ZM80 562 q0 -54 13.5 -75 q13.5 -21 34.5 -21 q22 0 35 19 q13 19 13 77 q0 56 -12.5 76.5 q-12.5 20.5 -35.5 20.5 q-23 0 -35.5 -20.5 q-12.5 -20.5 -12.5 -76.5 ZM115 149 q0 79 30.5 114.5 q30.5 35.5 77.5 35.5 q23 0 42.5 -7.5 q19.5 -7.5 34 -25 q14.5 -17.5 23 -46.5 q8.5 -29 8.5 -71 q0 -42 -8.5 -70.5 q-8.5 -28.5 -23 -46 q-14.5 -17.5 -34 -25 q-19.5 -7.5 -42.5 -7.5 q-47 0 -77.5 33 q-30.5 33 -30.5 116 ZM175 149 q0 -54 13.5 -75 q13.5 -21 34.5 -21 q22 0 35 19 q13 19 13 77 q0 56 -12.5 76.5 q-12.5 20.5 -35.5 20.5 q-23 0 -35.5 -20.5 q-12.5 -20.5 -12.5 -76.5 ZM365 149 q0 79 30.5 114.5 q30.5 35.5 77.5 35.5 q23 0 42.5 -7.5 q19.5 -7.5 34 -25 q14.5 -17.5 23 -46.5 q8.5 -29 8.5 -71 q0 -42 -8.5 -70.5 q-8.5 -28.5 -23 -46 q-14.5 -17.5 -34 -25 q-19.5 -7.5 -42.5 -7.5 q-47 0 -77.5 33 q-30.5 33 -30.5 116 ZM425 149 q0 -54 13.5 -75 q13.5 -21 34.5 -21 q22 0 35 19 q13 19 13 77 q0 56 -12.5 76.5 q-12.5 20.5 -35.5 20.5 q-23 0 -35.5 -20.5 q-12.5 -20.5 -12.5 -76.5 ZM510 529 l19 -47 l-480 -210 l-19 47 l480 210 Z" /><glyph glyph-name="guilsinglleft" unicode="&#x2039;" d="M170 264 l195 254 l58 -48 l-156 -202 l163 -199 l-57 -49 l-203 244 Z" /><glyph glyph-name="guilsinglright" unicode="&#x203a;" d="M227 20 l-57 49 l163 199 l-156 202 l58 48 l195 -254 l-203 -244 Z" /><glyph glyph-name="fraction" unicode="&#x2044;" d="M517 713 l52 -35 l-487 -690 l-52 36 l487 689 Z" /><glyph glyph-name="uni2081" unicode="&#x2081;" d="M134 -39 l146 0 l0 275 l-125 -70 l-27 55 l166 99 l56 0 l0 -359 l135 0 l0 -61 l-351 0 l0 61 Z" /><glyph glyph-name="uni2082" unicode="&#x2082;" d="M445 195 q0 -37 -20.5 -70.5 q-20.5 -33.5 -53.5 -63 q-33 -29.5 -73 -54.5 q-40 -25 -79 -44 l246 0 l0 -63 l-351 0 l0 53 q16 13 41 29 q25 16 54 34 q29 18 58.5 38.5 q29.5 20.5 53.5 42 q24 21.5 39 44 q15 22.5 15 45.5 q0 21 -8.5 35.5 q-8.5 14.5 -21.5 24 q-13 9.5 -28.5 13.5 q-15.5 4 -30.5 4 q-23 0 -42.5 -5.5 q-19.5 -5.5 -36 -13.5 q-16.5 -8 -29.5 -17.5 q-13 -9.5 -21 -16.5 l-32 49 q9 9 25 20.5 q16 11.5 38 22 q22 10.5 50 18 q28 7.5 60 7.5 q31 0 58 -8.5 q27 -8.5 46.5 -25 q19.5 -16.5 31 -41 q11.5 -24.5 11.5 -57.5 Z" /><glyph glyph-name="uni2083" unicode="&#x2083;" d="M262 -47 q48 0 76 19 q28 19 28 56 q0 32 -23.5 52 q-23.5 20 -74.5 20 l-65 0 l0 38 l130 122 l-228 0 l0 60 l316 0 l0 -53 l-129 -115 l0 -2 q67 -1 105.5 -34.5 q38.5 -33.5 38.5 -87.5 q0 -61 -47 -98 q-47 -37 -136 -37 q-24 0 -51 5.5 q-27 5.5 -52 15.5 q-25 10 -46 24 q-21 14 -33 31 l36 52 q7 -8 21 -19.5 q14 -11.5 33.5 -22.5 q19.5 -11 44.5 -18.5 q25 -7.5 56 -7.5 Z" /><glyph glyph-name="uni2084" unicode="&#x2084;" d="M477 -4 l-83 0 l0 -96 l-67 0 l0 96 l-234 0 l0 56 l236 268 l65 0 l0 -265 l83 0 l0 -59 ZM327 232 l-156 -177 l156 0 l0 177 Z" /><glyph glyph-name="Euro" unicode="&#x20ac;" d="M58 454 l63 0 q12 67 37.5 116 q25.5 49 62 80.5 q36.5 31.5 81.5 46.5 q45 15 96 15 q51 0 88 -6.5 q37 -6.5 64 -17.5 l-21 -73 q-23 11 -54 17 q-31 6 -75 6 q-33 0 -64 -10 q-31 -10 -56.5 -32.5 q-25.5 -22.5 -45 -57.5 q-19.5 -35 -29.5 -84 l282 0 l-17 -66 l-274 0 q-1 -11 -1 -19 q0 -8 0 -19 q0 -10 0 -16.5 q0 -6.5 1 -15.5 l254 0 l-17 -66 l-230 0 q18 -94 71.5 -142 q53.5 -48 138.5 -48 q39 0 71.5 9 q32.5 9 55.5 23 l20 -65 q-30 -23 -74.5 -32 q-44.5 -9 -89.5 -9 q-114 0 -185.5 65 q-71.5 65 -91.5 199 l-79 0 l18 66 l55 0 q-1 9 -1 15.5 q0 6.5 0 16.5 q0 11 0 19 q0 8 1 19 l-73 0 l18 66 Z" /><glyph glyph-name="uni20B4" unicode="&#x20b4;" d="M504 317 l0 -66 l-229 0 q-11 -11 -21.5 -25 q-10.5 -14 -19 -30 q-8.5 -16 -14 -32.5 q-5.5 -16.5 -5.5 -31.5 q0 -36 28 -55 q28 -19 94 -19 q47 0 78 9 q31 9 54 21 l24 -64 q-23 -14 -62.5 -25 q-39.5 -11 -108.5 -11 q-96 0 -143 35.5 q-47 35.5 -47 100.5 q0 18 6 37.5 q6 19.5 15 36.5 q9 17 18.5 31 q9.5 14 15.5 22 l-92 0 l0 66 l409 0 ZM95 388 l0 66 l236 0 q25 25 39 57.5 q14 32.5 14 63.5 q0 35 -23 51 q-23 16 -80 16 q-40 0 -67.5 -9 q-27.5 -9 -50.5 -20 l-25 67 q14 7 29 12.5 q15 5.5 33.5 10 q18.5 4.5 41.5 7 q23 2.5 54 2.5 q85 0 128 -31 q43 -31 43 -94 q0 -38 -15 -73 q-15 -35 -37 -60 l89 0 l0 -66 l-409 0 Z" /><glyph glyph-name="uni20B6" unicode="&#x20b6;" d="M57 336 l71 0 l0 357 q38 9 81.5 12 q43.5 3 86.5 3 q46 0 90.5 -9 q44.5 -9 79 -33 q34.5 -24 55.5 -65 q21 -41 21 -105 q0 -61 -20 -103.5 q-20 -42.5 -57 -69 q-37 -26.5 -88 -38.5 q-51 -12 -112 -12 l-54 0 l0 -71 l166 0 l0 -62 l-166 0 l0 -140 l-83 0 l0 140 l-71 0 l0 62 l71 0 l0 71 l-71 0 l0 63 ZM298 638 q-26 0 -49.5 -1.5 q-23.5 -1.5 -37.5 -4.5 l0 -289 l76 0 q29 0 59 6 q30 6 54 22.5 q24 16.5 39 46 q15 29.5 15 77.5 q0 41 -12.5 68.5 q-12.5 27.5 -33.5 44 q-21 16.5 -49.5 23.5 q-28.5 7 -60.5 7 Z" /><glyph glyph-name="afii61289" unicode="&#x2113;" d="M466 30 q-22 -14 -57.5 -28 q-35.5 -14 -70.5 -14 q-63 0 -91.5 30.5 q-28.5 30.5 -28.5 95.5 l0 104 l-50 -44 l-35 44 l85 74 l0 254 q0 44 10 75.5 q10 31.5 27.5 51.5 q17.5 20 41 29.5 q23.5 9.5 50.5 9.5 q48 0 79 -29.5 q31 -29.5 31 -89.5 q0 -74 -40 -157 q-40 -83 -131 -171 l0 -140 q0 -44 17 -60.5 q17 -16.5 41 -16.5 q25 0 55 10.5 q30 10.5 50 21.5 l17 -50 ZM393 588 q0 34 -14 49 q-14 15 -32 15 q-12 0 -23 -3.5 q-11 -3.5 -19.5 -14 q-8.5 -10.5 -13.5 -29 q-5 -18.5 -5 -48.5 l0 -212 q56 65 81.5 125.5 q25.5 60.5 25.5 117.5 Z" /><glyph glyph-name="afii61352" unicode="&#x2116;" d="M391 333 l195 0 l0 -72 l-195 0 l0 72 ZM78 475 l-4 0 l5 -108 l0 -367 l-75 0 l0 700 l56 0 l199 -470 l5 0 l-6 113 l0 357 l75 0 l0 -700 l-55 0 l-200 475 ZM369 542 q0 47 9.5 79.5 q9.5 32.5 26 52.5 q16.5 20 38 29 q21.5 9 44.5 9 q23 0 44 -8 q21 -8 37.5 -27.5 q16.5 -19.5 26.5 -52 q10 -32.5 10 -82.5 q0 -49 -10 -81.5 q-10 -32.5 -26.5 -52 q-16.5 -19.5 -37.5 -27.5 q-21 -8 -44 -8 q-23 0 -44.5 8 q-21.5 8 -38 27.5 q-16.5 19.5 -26 52 q-9.5 32.5 -9.5 81.5 ZM439 542 q0 -34 3.5 -55 q3.5 -21 10 -33 q6.5 -12 15 -16 q8.5 -4 19.5 -4 q11 0 20 3 q9 3 15 14.5 q6 11.5 9.5 33 q3.5 21.5 3.5 57.5 q0 35 -3.5 56.5 q-3.5 21.5 -9.5 33 q-6 11.5 -15 15.5 q-9 4 -20 4 q-11 0 -20 -3.5 q-9 -3.5 -15 -15 q-6 -11.5 -9.5 -33 q-3.5 -21.5 -3.5 -57.5 Z" /><glyph glyph-name="trademark" unicode="&#x2122;" d="M259 638 l-85 0 l0 -298 l-67 0 l0 298 l-84 0 l0 62 l236 0 l0 -62 ZM516 507 l4 103 l-4 0 l-81 -155 l-15 0 l-82 155 l-3 0 l7 -102 l0 -168 l-59 0 l0 360 l66 0 l82 -144 l79 144 l66 0 l0 -360 l-60 0 l0 167 Z" /><glyph glyph-name="estimated" unicode="&#x212e;" d="M154 259 l0 -181 q62 -59 145 -59 q124 0 193 120 l35 -21 q-43 -66 -99 -100.5 q-56 -34.5 -129 -34.5 q-59 0 -107 21.5 q-48 21.5 -81.5 58.5 q-33.5 37 -51.5 87.5 q-18 50.5 -18 108.5 q0 59 18.5 109.5 q18.5 50.5 52.5 87.5 q34 37 81.5 58 q47.5 21 105.5 21 q62 0 109.5 -22 q47.5 -22 80.5 -59.5 q33 -37.5 50 -87.5 q17 -50 19 -107 l-404 0 ZM445 295 l0 145 q-63 60 -147 60 q-86 0 -144 -60 l0 -145 l291 0 Z" /><glyph glyph-name="arrowleft" unicode="&#x2190;" d="M132 277 l24 0 q-19 -37 -28 -52 q-9 -15 -34 -45 l505 0 l0 -33 l-505 0 q33 -34 63 -97 l-25 0 q-40 45 -70 69 q-30 24 -61 38 l0 15 q57 24 131 105 Z" /><glyph glyph-name="arrowup" unicode="&#x2191;" d="M186 293 q81 75 106 131 l14 0 q15 -31 38.5 -61 q23.5 -30 69.5 -70 l0 -25 q-64 30 -98 63 l0 -467 l-32 0 l0 467 q-30 -24 -45 -33.5 q-15 -9.5 -53 -28.5 l0 24 Z" /><glyph glyph-name="arrowright" unicode="&#x2192;" d="M468 277 q74 -81 131 -105 l0 -15 q-32 -14 -61.5 -38 q-29.5 -24 -69.5 -69 l-25 0 q30 63 63 97 l-505 0 l0 33 l505 0 q-24 29 -33.5 44.5 q-9.5 15.5 -28.5 52.5 l24 0 Z" /><glyph glyph-name="arrowdown" unicode="&#x2193;" d="M186 -5 l0 24 q38 -19 53 -28.5 q15 -9.5 45 -33.5 l0 467 l32 0 l0 -466 q34 32 98 62 l0 -25 q-46 -40 -69.5 -69.5 q-23.5 -29.5 -38.5 -61.5 l-14 0 q-25 58 -106 131 Z" /><glyph glyph-name="arrowboth" unicode="&#x2194;" d="M599 171 l0 -14 q-29 -14 -58.5 -37 q-29.5 -23 -70.5 -70 l-25 0 q22 54 61 98 l-413 0 q40 -44 62 -98 l-26 0 q-41 47 -70 70 q-29 23 -58 37 l0 14 q30 14 58 36.5 q28 22.5 70 70.5 l26 0 q-22 -55 -62 -99 l413 0 q-39 44 -61 99 l25 0 q43 -48 71 -70.5 q28 -22.5 58 -36.5 Z" /><glyph glyph-name="arrowupdn" unicode="&#x2195;" d="M292 463 l15 0 q27 -60 107 -129 l0 -25 q-54 22 -99 62 l0 -413 q44 39 99 61 l0 -25 q-79 -69 -107 -129 l-15 0 q-13 30 -36.5 59 q-23.5 29 -69.5 70 l0 25 q55 -22 98 -61 l0 413 q-44 -40 -98 -62 l0 25 q47 41 70 70 q23 29 36 59 Z" /><glyph glyph-name="arrowupdnbse" unicode="&#x21a8;" d="M292 463 l15 0 q27 -60 107 -129 l0 -25 q-54 22 -99 62 l0 -413 q44 39 99 61 l0 -25 q-79 -69 -107 -129 l-15 0 q-13 30 -36.5 59 q-23.5 29 -69.5 70 l0 25 q55 -22 98 -61 l0 413 q-44 -40 -98 -62 l0 25 q47 41 70 70 q23 29 36 59 ZM187 -166 l227 0 l0 -30 l-227 0 l0 30 Z" /><glyph glyph-name="partialdiff" unicode="&#x2202;" d="M340 510 q42 0 62 -7.5 q20 -7.5 37 -21.5 l5 0 q-3 46 -22.5 77.5 q-19.5 31.5 -48.5 51 q-29 19.5 -64 28.5 q-35 9 -69 9 q-5 0 -10.5 0 q-5.5 0 -10.5 -1 l15 66 q68 0 122.5 -14.5 q54.5 -14.5 92.5 -49.5 q38 -35 58 -93 q20 -58 20 -145 q0 -108 -19.5 -187.5 q-19.5 -79.5 -54 -131.5 q-34.5 -52 -83 -77.5 q-48.5 -25.5 -105.5 -25.5 q-96 0 -144 50.5 q-48 50.5 -48 143.5 q0 60 17 118.5 q17 58.5 50.5 105 q33.5 46.5 83.5 75.5 q50 29 116 29 ZM334 440 q-36 0 -68.5 -19.5 q-32.5 -19.5 -57 -55 q-24.5 -35.5 -38.5 -83.5 q-14 -48 -14 -105 q0 -23 6 -44.5 q6 -21.5 20 -38 q14 -16.5 36 -26.5 q22 -10 54 -10 q50 0 83 31 q33 31 53 79.5 q20 48.5 28 108.5 q8 60 8 117 q-18 21 -43 33.5 q-25 12.5 -67 12.5 Z" /><glyph glyph-name="product" unicode="&#x220f;" d="M471 626 l-343 0 l0 -826 l-83 0 l0 900 l509 0 l0 -900 l-83 0 l0 826 Z" /><glyph glyph-name="summation" unicode="&#x2211;" d="M159 -126 l367 0 l0 -74 l-453 0 l0 74 l243 378 l-243 374 l0 74 l453 0 l0 -74 l-361 0 l241 -370 l-247 -382 Z" /><glyph glyph-name="minus" unicode="&#x2212;" d="M68 374 l464 0 l0 -72 l-464 0 l0 72 Z" /><glyph glyph-name="radical" unicode="&#x221a;" d="M208 446 l115 -291 l2 0 l167 545 l75 0 l-226 -711 l-31 0 l-157 385 l-121 0 l0 72 l176 0 Z" /><glyph glyph-name="infinity" unicode="&#x221e;" d="M296 286 q-24 -59 -58.5 -91 q-34.5 -32 -76.5 -32 q-50 0 -83.5 49 q-33.5 49 -33.5 134 q0 90 33.5 141.5 q33.5 51.5 88.5 51.5 q51 0 83.5 -32 q32.5 -32 53.5 -81 q29 60 63.5 86.5 q34.5 26.5 76.5 26.5 q51 0 81.5 -47 q30.5 -47 30.5 -135 q0 -94 -34 -144 q-34 -50 -91 -50 q-24 0 -44 10 q-20 10 -36.5 27 q-16.5 17 -30 39 q-13.5 22 -23.5 47 ZM430 225 q29 0 44.5 36.5 q15.5 36.5 15.5 93.5 q0 23 -3 45 q-3 22 -10 39 q-7 17 -19 27.5 q-12 10.5 -29 10.5 q-27 0 -52 -29 q-25 -29 -48 -77 q7 -27 17.5 -53.5 q10.5 -26.5 23.5 -47 q13 -20.5 28 -33 q15 -12.5 32 -12.5 ZM169 477 q-14 0 -25.5 -10.5 q-11.5 -10.5 -19 -28 q-7.5 -17.5 -11.5 -40.5 q-4 -23 -4 -49 q0 -51 16.5 -87.5 q16.5 -36.5 48.5 -36.5 q15 0 28.5 10 q13.5 10 25.5 26.5 q12 16.5 23 37 q11 20.5 20 41.5 q-8 28 -18.5 52.5 q-10.5 24.5 -23 43.5 q-12.5 19 -27.5 30 q-15 11 -33 11 Z" /><glyph glyph-name="orthogonal" unicode="&#x221f;" d="M1 597 l46 0 l0 -551 l552 0 l0 -46 l-598 0 l0 597 Z" /><glyph glyph-name="intersection" unicode="&#x2229;" d="M85 485 q0 86 60.5 151.5 q60.5 65.5 154.5 65.5 q93 0 154 -64.5 q61 -64.5 61 -152.5 l0 -485 l-64 0 l0 467 q0 76 -42.5 123.5 q-42.5 47.5 -108.5 47.5 q-67 0 -109 -47.5 q-42 -47.5 -42 -124.5 l0 -466 l-64 0 l0 485 Z" /><glyph glyph-name="integral" unicode="&#x222b;" d="M340 -58 q0 -78 -33 -114 q-33 -36 -104 -36 q-35 0 -66 7 q-31 7 -55 17 l22 64 q46 -18 91 -18 q38 0 51.5 24 q13.5 24 13.5 83 l0 593 q0 78 33 114 q33 36 105 36 q34 0 65 -7 q31 -7 55 -17 l-21 -64 q-23 9 -45.5 13.5 q-22.5 4.5 -46.5 4.5 q-38 0 -51.5 -23 q-13.5 -23 -13.5 -82 l0 -595 Z" /><glyph glyph-name="notequal" unicode="&#x2260;" d="M88 457 l228 0 l61 137 l72 0 l-61 -137 l124 0 l0 -72 l-155 0 l-42 -94 l197 0 l0 -72 l-228 0 l-67 -153 l-72 0 l67 153 l-124 0 l0 72 l155 0 l42 94 l-197 0 l0 72 Z" /><glyph glyph-name="equivalence" unicode="&#x2261;" d="M531 499 l-462 0 l0 64 l462 0 l0 -64 ZM531 303 l-462 0 l0 64 l462 0 l0 -64 ZM531 107 l-462 0 l0 64 l462 0 l0 -64 Z" /><glyph glyph-name="lessequal" unicode="&#x2264;" d="M511 82 l-35 -63 l-368 210 l35 64 l368 -211 ZM88 426 l0 29 l378 231 l38 -62 l-298 -178 l303 -181 l-38 -60 l-383 221 Z" /><glyph glyph-name="greaterequal" unicode="&#x2265;" d="M509 234 l-366 -215 l-38 62 l367 215 l37 -62 ZM510 465 l0 -29 l-378 -231 l-38 62 l301 182 l-306 177 l38 60 l383 -221 Z" /><glyph glyph-name="house" unicode="&#x2302;" d="M521 0 l-442 0 l0 328 l220 190 l222 -190 l0 -328 ZM143 64 l314 0 l0 234 l-158 135 l-156 -135 l0 -234 Z" /><glyph glyph-name="revlogicalnot" unicode="&#x2310;" d="M531 419 l-398 0 l0 -176 l-64 0 l0 240 l462 0 l0 -64 Z" /><glyph glyph-name="integraltp" unicode="&#x2320;" d="M336 -235 l-72 0 l0 904 q0 96 40.5 156 q40.5 60 103.5 60 q30 0 48.5 -15.5 q18.5 -15.5 18.5 -38.5 q0 -19 -12.5 -32 q-12.5 -13 -30.5 -13 q-15 0 -28 8 l-19 21 q-17 19 -24 19 q-18 0 -22 -19 q-3 -16 -3 -68 l0 -982 Z" /><glyph glyph-name="SF100000" unicode="&#x2500;" d="M0 304 l0 76 l600 0 l0 -76 l-600 0 Z" /><glyph glyph-name="SF110000" unicode="&#x2502;" d="M262 -235 l0 1120 l76 0 l0 -1120 l-76 0 Z" /><glyph glyph-name="SF010000" unicode="&#x250c;" d="M262 -235 l0 615 l338 0 l0 -76 l-262 0 l0 -539 l-76 0 Z" /><glyph glyph-name="SF030000" unicode="&#x2510;" d="M262 -235 l0 539 l-262 0 l0 76 l338 0 l0 -615 l-76 0 Z" /><glyph glyph-name="SF020000" unicode="&#x2514;" d="M262 305 l0 580 l76 0 l0 -504 l262 0 l0 -76 l-338 0 Z" /><glyph glyph-name="SF040000" unicode="&#x2518;" d="M0 305 l0 76 l262 0 l0 504 l76 0 l0 -580 l-338 0 Z" /><glyph glyph-name="SF080000" unicode="&#x251c;" d="M262 -235 l0 1120 l76 0 l0 -505 l262 0 l0 -76 l-262 0 l0 -539 l-76 0 Z" /><glyph glyph-name="SF090000" unicode="&#x2524;" d="M262 -235 l0 539 l-262 0 l0 76 l262 0 l0 505 l76 0 l0 -1120 l-76 0 Z" /><glyph glyph-name="SF060000" unicode="&#x252c;" d="M262 -235 l0 539 l-262 0 l0 76 l600 0 l0 -76 l-262 0 l0 -539 l-76 0 Z" /><glyph glyph-name="SF070000" unicode="&#x2534;" d="M0 304 l0 76 l262 0 l0 505 l76 0 l0 -505 l262 0 l0 -76 l-600 0 Z" /><glyph glyph-name="SF050000" unicode="&#x253c;" d="M262 -235 l0 539 l-262 0 l0 76 l262 0 l0 505 l76 0 l0 -505 l262 0 l0 -76 l-262 0 l0 -539 l-76 0 Z" /><glyph glyph-name="SF430000" unicode="&#x2550;" d="M0 304 l600 0 l0 -76 l-600 0 l0 76 ZM0 380 l0 76 l600 0 l0 -76 l-600 0 Z" /><glyph glyph-name="SF240000" unicode="&#x2551;" d="M262 -235 l-76 0 l0 1120 l76 0 l0 -1120 ZM338 885 l76 0 l0 -1120 l-76 0 l0 1120 Z" /><glyph glyph-name="SF510000" unicode="&#x2552;" d="M262 -235 l0 691 l338 0 l0 -76 l-262 0 l0 -76 l262 0 l0 -76 l-262 0 l0 -463 l-76 0 Z" /><glyph glyph-name="SF520000" unicode="&#x2553;" d="M262 -235 l-76 0 l0 615 l414 0 l0 -76 l-186 0 l0 -539 l-76 0 l0 539 l-76 0 l0 -539 Z" /><glyph glyph-name="SF390000" unicode="&#x2554;" d="M262 -235 l-76 0 l0 691 l414 0 l0 -76 l-338 0 l0 -615 ZM338 -235 l0 539 l262 0 l0 -76 l-186 0 l0 -463 l-76 0 Z" /><glyph glyph-name="SF220000" unicode="&#x2555;" d="M262 -235 l0 463 l-262 0 l0 76 l262 0 l0 76 l-262 0 l0 76 l338 0 l0 -691 l-76 0 Z" /><glyph glyph-name="SF210000" unicode="&#x2556;" d="M262 -235 l-76 0 l0 539 l-186 0 l0 76 l414 0 l0 -615 l-76 0 l0 539 l-76 0 l0 -539 Z" /><glyph glyph-name="SF250000" unicode="&#x2557;" d="M262 -235 l-76 0 l0 463 l-186 0 l0 76 l262 0 l0 -539 ZM338 -235 l0 615 l-338 0 l0 76 l414 0 l0 -691 l-76 0 Z" /><glyph glyph-name="SF500000" unicode="&#x2558;" d="M262 228 l0 657 l76 0 l0 -429 l262 0 l0 -76 l-262 0 l0 -76 l262 0 l0 -76 l-338 0 Z" /><glyph glyph-name="SF490000" unicode="&#x2559;" d="M186 304 l0 581 l76 0 l0 -505 l76 0 l0 505 l76 0 l0 -505 l186 0 l0 -76 l-414 0 Z" /><glyph glyph-name="SF380000" unicode="&#x255a;" d="M186 228 l0 657 l76 0 l0 -581 l338 0 l0 -76 l-414 0 ZM600 380 l-262 0 l0 505 l76 0 l0 -429 l186 0 l0 -76 Z" /><glyph glyph-name="SF280000" unicode="&#x255b;" d="M0 304 l262 0 l0 76 l-262 0 l0 76 l262 0 l0 429 l76 0 l0 -657 l-338 0 l0 76 Z" /><glyph glyph-name="SF270000" unicode="&#x255c;" d="M0 304 l0 76 l186 0 l0 505 l76 0 l0 -505 l76 0 l0 505 l76 0 l0 -581 l-414 0 Z" /><glyph glyph-name="SF260000" unicode="&#x255d;" d="M0 304 l338 0 l0 581 l76 0 l0 -657 l-414 0 l0 76 ZM0 380 l0 76 l186 0 l0 429 l76 0 l0 -505 l-262 0 Z" /><glyph glyph-name="SF360000" unicode="&#x255e;" d="M262 -235 l0 1120 l76 0 l0 -428 l262 0 l0 -76 l-262 0 l0 -76 l262 0 l0 -76 l-262 0 l0 -464 l-76 0 Z" /><glyph glyph-name="SF370000" unicode="&#x255f;" d="M186 -235 l0 1120 l76 0 l0 -1120 l-76 0 ZM338 -235 l0 1120 l76 0 l0 -505 l186 0 l0 -76 l-186 0 l0 -539 l-76 0 Z" /><glyph glyph-name="SF420000" unicode="&#x2560;" d="M186 -235 l0 1120 l76 0 l0 -1120 l-76 0 ZM338 -235 l0 539 l262 0 l0 -76 l-186 0 l0 -463 l-76 0 ZM338 380 l0 505 l76 0 l0 -429 l186 0 l0 -76 l-262 0 Z" /><glyph glyph-name="SF190000" unicode="&#x2561;" d="M262 -235 l0 463 l-262 0 l0 76 l262 0 l0 76 l-262 0 l0 76 l262 0 l0 429 l76 0 l0 -1120 l-76 0 Z" /><glyph glyph-name="SF200000" unicode="&#x2562;" d="M186 -235 l0 539 l-186 0 l0 76 l186 0 l0 505 l76 0 l0 -1120 l-76 0 ZM338 -235 l0 1120 l76 0 l0 -1120 l-76 0 Z" /><glyph glyph-name="SF230000" unicode="&#x2563;" d="M186 -235 l0 463 l-186 0 l0 76 l262 0 l0 -539 l-76 0 ZM338 -235 l0 1120 l76 0 l0 -1120 l-76 0 ZM0 380 l0 76 l186 0 l0 429 l76 0 l0 -504 l-262 -1 Z" /><glyph glyph-name="SF470000" unicode="&#x2564;" d="M0 304 l600 0 l0 -76 l-262 0 l0 -463 l-76 0 l0 463 l-262 0 l0 76 ZM0 380 l0 76 l600 0 l0 -76 l-600 0 Z" /><glyph glyph-name="SF480000" unicode="&#x2565;" d="M0 304 l0 76 l600 0 l0 -76 l-186 0 l0 -539 l-76 0 l0 539 l-76 0 l0 -539 l-76 0 l0 539 l-186 0 Z" /><glyph glyph-name="SF410000" unicode="&#x2566;" d="M0 304 l262 0 l0 -539 l-76 0 l0 463 l-186 0 l0 76 ZM0 380 l0 76 l600 0 l0 -76 l-600 0 ZM600 304 l0 -76 l-186 0 l0 -463 l-76 0 l0 539 l262 0 Z" /><glyph glyph-name="SF450000" unicode="&#x2567;" d="M0 304 l600 0 l0 -76 l-600 0 l0 76 ZM0 380 l0 76 l262 0 l0 429 l76 0 l0 -429 l262 0 l0 -76 l-600 0 Z" /><glyph glyph-name="SF460000" unicode="&#x2568;" d="M0 304 l0 76 l186 0 l0 505 l76 0 l0 -505 l76 0 l0 505 l76 0 l0 -505 l186 0 l0 -76 l-600 0 Z" /><glyph glyph-name="SF400000" unicode="&#x2569;" d="M0 304 l600 0 l0 -76 l-600 0 l0 76 ZM0 380 l0 76 l186 0 l0 429 l76 0 l0 -505 l-262 0 ZM338 380 l0 505 l76 0 l0 -429 l186 0 l0 -76 l-262 0 Z" /><glyph glyph-name="SF540000" unicode="&#x256a;" d="M0 304 l262 0 l0 76 l-262 0 l0 76 l262 0 l0 429 l76 0 l0 -429 l262 0 l0 -76 l-262 0 l0 -76 l262 0 l0 -76 l-262 0 l0 -463 l-76 0 l0 463 l-262 0 l0 76 Z" /><glyph glyph-name="SF530000" unicode="&#x256b;" d="M0 304 l0 76 l186 0 l0 505 l76 0 l0 -505 l76 0 l0 505 l76 0 l0 -505 l186 0 l0 -76 l-186 0 l0 -539 l-76 0 l0 539 l-76 0 l0 -539 l-76 0 l0 539 l-186 0 Z" /><glyph glyph-name="SF440000" unicode="&#x256c;" d="M0 304 l262 0 l0 -539 l-76 0 l0 463 l-186 0 l0 76 ZM0 380 l0 76 l186 0 l0 429 l76 0 l0 -505 l-262 0 ZM338 380 l0 505 l76 0 l0 -429 l186 0 l0 -76 l-262 0 ZM600 304 l0 -76 l-186 0 l0 -463 l-76 0 l0 539 l262 0 Z" /><glyph glyph-name="upblock" unicode="&#x2580;" d="M0 343 l0 542 l600 0 l0 -542 l-600 0 Z" /><glyph glyph-name="dnblock" unicode="&#x2584;" d="M0 -235 l0 578 l600 0 l0 -578 l-600 0 Z" /><glyph glyph-name="block" unicode="&#x2588;" d="M0 -235 l0 1120 l600 0 l0 -1120 l-600 0 Z" /><glyph glyph-name="lfblock" unicode="&#x258c;" d="M0 -235 l0 1120 l300 0 l0 -1120 l-300 0 Z" /><glyph glyph-name="rtblock" unicode="&#x2590;" d="M600 -235 l-300 0 l0 1120 l300 0 l0 -1120 Z" /><glyph glyph-name="ltshade" unicode="&#x2591;" d="M50 701 l50 0 l0 -47 l-50 0 l0 47 ZM250 701 l50 0 l0 -47 l-50 0 l0 47 ZM450 701 l50 0 l0 -47 l-50 0 l0 47 ZM150 608 l50 0 l0 -47 l-50 0 l0 47 ZM350 608 l50 0 l0 -47 l-50 0 l0 47 ZM550 608 l50 0 l0 -47 l-50 0 l0 47 ZM450 516 l50 0 l0 -47 l-50 0 l0 47 ZM250 516 l50 0 l0 -47 l-50 0 l0 47 ZM50 516 l50 0 l0 -47 l-50 0 l0 47 ZM550 424 l50 0 l0 -48 l-50 0 l0 48 ZM350 424 l50 0 l0 -48 l-50 0 l0 48 ZM150 424 l50 0 l0 -48 l-50 0 l0 48 ZM50 331 l50 0 l0 -47 l-50 0 l0 47 ZM250 331 l50 0 l0 -47 l-50 0 l0 47 ZM450 331 l50 0 l0 -47 l-50 0 l0 47 ZM550 239 l50 0 l0 -47 l-50 0 l0 47 ZM350 239 l50 0 l0 -47 l-50 0 l0 47 ZM150 239 l50 0 l0 -47 l-50 0 l0 47 ZM50 147 l50 0 l0 -48 l-50 0 l0 48 ZM250 147 l50 0 l0 -48 l-50 0 l0 48 ZM450 147 l50 0 l0 -48 l-50 0 l0 48 ZM150 54 l50 0 l0 -47 l-50 0 l0 47 ZM350 54 l50 0 l0 -47 l-50 0 l0 47 ZM550 54 l50 0 l0 -47 l-50 0 l0 47 ZM450 -38 l50 0 l0 -48 l-50 0 l0 48 ZM250 -38 l50 0 l0 -48 l-50 0 l0 48 ZM50 -38 l50 0 l0 -48 l-50 0 l0 48 ZM150 -131 l50 0 l0 -47 l-50 0 l0 47 ZM350 -131 l50 0 l0 -47 l-50 0 l0 47 ZM550 -131 l50 0 l0 -47 l-50 0 l0 47 ZM150 793 l50 0 l0 -47 l-50 0 l0 47 ZM350 793 l50 0 l0 -47 l-50 0 l0 47 ZM550 793 l50 0 l0 -47 l-50 0 l0 47 ZM50 885 l50 0 l0 -46 l-50 0 l0 46 ZM250 885 l50 0 l0 -46 l-50 0 l0 46 ZM450 885 l50 0 l0 -46 l-50 0 l0 46 Z" /><glyph glyph-name="shade" unicode="&#x2592;" d="M50 701 l50 0 l0 -47 l-50 0 l0 47 ZM150 701 l50 0 l0 -47 l-50 0 l0 47 ZM250 701 l50 0 l0 -47 l-50 0 l0 47 ZM350 701 l50 0 l0 -47 l-50 0 l0 47 ZM450 701 l50 0 l0 -47 l-50 0 l0 47 ZM550 701 l50 0 l0 -47 l-50 0 l0 47 ZM0 608 l50 0 l0 -47 l-50 0 l0 47 ZM100 608 l50 0 l0 -47 l-50 0 l0 47 ZM200 608 l50 0 l0 -47 l-50 0 l0 47 ZM300 608 l50 0 l0 -47 l-50 0 l0 47 ZM400 608 l50 0 l0 -47 l-50 0 l0 47 ZM500 608 l50 0 l0 -47 l-50 0 l0 47 ZM50 516 l50 0 l0 -47 l-50 0 l0 47 ZM150 516 l50 0 l0 -47 l-50 0 l0 47 ZM250 516 l50 0 l0 -47 l-50 0 l0 47 ZM350 516 l50 0 l0 -47 l-50 0 l0 47 ZM450 516 l50 0 l0 -47 l-50 0 l0 47 ZM550 516 l50 0 l0 -47 l-50 0 l0 47 ZM0 424 l50 0 l0 -48 l-50 0 l0 48 ZM100 424 l50 0 l0 -48 l-50 0 l0 48 ZM200 424 l50 0 l0 -48 l-50 0 l0 48 ZM300 424 l50 0 l0 -48 l-50 0 l0 48 ZM400 424 l50 0 l0 -48 l-50 0 l0 48 ZM500 424 l50 0 l0 -48 l-50 0 l0 48 ZM50 331 l50 0 l0 -47 l-50 0 l0 47 ZM150 331 l50 0 l0 -47 l-50 0 l0 47 ZM250 331 l50 0 l0 -47 l-50 0 l0 47 ZM350 331 l50 0 l0 -47 l-50 0 l0 47 ZM450 331 l50 0 l0 -47 l-50 0 l0 47 ZM550 331 l50 0 l0 -47 l-50 0 l0 47 ZM0 239 l50 0 l0 -47 l-50 0 l0 47 ZM200 239 l50 0 l0 -47 l-50 0 l0 47 ZM300 239 l50 0 l0 -47 l-50 0 l0 47 ZM400 239 l50 0 l0 -47 l-50 0 l0 47 ZM500 239 l50 0 l0 -47 l-50 0 l0 47 ZM100 239 l50 0 l0 -47 l-50 0 l0 47 ZM550 147 l50 0 l0 -48 l-50 0 l0 48 ZM450 147 l50 0 l0 -48 l-50 0 l0 48 ZM350 147 l50 0 l0 -48 l-50 0 l0 48 ZM250 147 l50 0 l0 -48 l-50 0 l0 48 ZM150 147 l50 0 l0 -48 l-50 0 l0 48 ZM50 147 l50 0 l0 -48 l-50 0 l0 48 ZM0 54 l50 0 l0 -47 l-50 0 l0 47 ZM100 54 l50 0 l0 -47 l-50 0 l0 47 ZM200 54 l50 0 l0 -47 l-50 0 l0 47 ZM300 54 l50 0 l0 -47 l-50 0 l0 47 ZM400 54 l50 0 l0 -47 l-50 0 l0 47 ZM500 54 l50 0 l0 -47 l-50 0 l0 47 ZM550 -38 l50 0 l0 -48 l-50 0 l0 48 ZM450 -38 l50 0 l0 -48 l-50 0 l0 48 ZM350 -38 l50 0 l0 -48 l-50 0 l0 48 ZM250 -38 l50 0 l0 -48 l-50 0 l0 48 ZM150 -38 l50 0 l0 -48 l-50 0 l0 48 ZM50 -38 l50 0 l0 -48 l-50 0 l0 48 ZM0 -131 l50 0 l0 -47 l-50 0 l0 47 ZM100 -131 l50 0 l0 -47 l-50 0 l0 47 ZM200 -131 l50 0 l0 -47 l-50 0 l0 47 ZM300 -131 l50 0 l0 -47 l-50 0 l0 47 ZM400 -131 l50 0 l0 -47 l-50 0 l0 47 ZM500 -131 l50 0 l0 -47 l-50 0 l0 47 ZM0 793 l50 0 l0 -47 l-50 0 l0 47 ZM100 793 l50 0 l0 -47 l-50 0 l0 47 ZM200 793 l50 0 l0 -47 l-50 0 l0 47 ZM300 793 l50 0 l0 -47 l-50 0 l0 47 ZM400 793 l50 0 l0 -47 l-50 0 l0 47 ZM500 793 l50 0 l0 -47 l-50 0 l0 47 ZM50 885 l50 0 l0 -46 l-50 0 l0 46 ZM150 885 l50 0 l0 -46 l-50 0 l0 46 ZM250 885 l50 0 l0 -46 l-50 0 l0 46 ZM350 885 l50 0 l0 -46 l-50 0 l0 46 ZM450 885 l50 0 l0 -46 l-50 0 l0 46 ZM550 885 l50 0 l0 -46 l-50 0 l0 46 Z" /><glyph glyph-name="dkshade" unicode="&#x2593;" d="M550 793 l50 0 l0 -138 l-50 0 l0 -47 l50 0 l0 -138 l-50 0 l0 -47 l50 0 l0 -138 l-50 0 l0 -47 l50 0 l0 -137 l-50 0 l0 -48 l50 0 l0 -137 l-50 0 l0 -48 l50 0 l0 -103 l-600 0 l0 11 l50 0 l0 47 l-50 0 l0 138 l50 0 l0 47 l-50 0 l0 138 l50 0 l0 47 l-50 0 l0 137 l50 0 l0 48 l-50 0 l0 137 l50 0 l0 47 l-50 0 l0 138 l50 0 l0 47 l-50 0 l0 138 l600 0 l0 -46 l-50 0 l0 -46 ZM100 330 l50 0 l0 48 l-50 0 l0 -48 ZM200 330 l50 0 l0 48 l-50 0 l0 -48 ZM450 53 l50 0 l0 48 l-50 0 l0 -48 ZM350 53 l50 0 l0 48 l-50 0 l0 -48 ZM250 53 l50 0 l0 48 l-50 0 l0 -48 ZM150 53 l50 0 l0 48 l-50 0 l0 -48 ZM300 330 l50 0 l0 48 l-50 0 l0 -48 ZM50 53 l50 0 l0 48 l-50 0 l0 -48 ZM400 330 l50 0 l0 48 l-50 0 l0 -48 ZM500 330 l50 0 l0 48 l-50 0 l0 -48 ZM450 -132 l50 0 l0 48 l-50 0 l0 -48 ZM350 -132 l50 0 l0 48 l-50 0 l0 -48 ZM250 -132 l50 0 l0 48 l-50 0 l0 -48 ZM150 -132 l50 0 l0 48 l-50 0 l0 -48 ZM50 -132 l50 0 l0 48 l-50 0 l0 -48 ZM500 -224 l50 0 l0 47 l-50 0 l0 -47 ZM400 -224 l50 0 l0 47 l-50 0 l0 -47 ZM300 -224 l50 0 l0 47 l-50 0 l0 -47 ZM200 -224 l50 0 l0 47 l-50 0 l0 -47 ZM100 -224 l50 0 l0 47 l-50 0 l0 -47 ZM300 700 l50 0 l0 47 l-50 0 l0 -47 ZM500 515 l50 0 l0 47 l-50 0 l0 -47 ZM100 146 l50 0 l0 47 l-50 0 l0 -47 ZM500 -39 l50 0 l0 47 l-50 0 l0 -47 ZM300 -39 l50 0 l0 47 l-50 0 l0 -47 ZM200 -39 l50 0 l0 47 l-50 0 l0 -47 ZM100 -39 l50 0 l0 47 l-50 0 l0 -47 ZM300 515 l50 0 l0 47 l-50 0 l0 -47 ZM350 608 l50 0 l0 47 l-50 0 l0 -47 ZM200 515 l50 0 l0 47 l-50 0 l0 -47 ZM100 515 l50 0 l0 47 l-50 0 l0 -47 ZM500 146 l50 0 l0 47 l-50 0 l0 -47 ZM400 146 l50 0 l0 47 l-50 0 l0 -47 ZM300 146 l50 0 l0 47 l-50 0 l0 -47 ZM200 146 l50 0 l0 47 l-50 0 l0 -47 ZM450 238 l50 0 l0 47 l-50 0 l0 -47 ZM350 238 l50 0 l0 47 l-50 0 l0 -47 ZM250 238 l50 0 l0 47 l-50 0 l0 -47 ZM150 238 l50 0 l0 47 l-50 0 l0 -47 ZM50 238 l50 0 l0 47 l-50 0 l0 -47 ZM450 608 l50 0 l0 47 l-50 0 l0 -47 ZM400 -39 l50 0 l0 47 l-50 0 l0 -47 ZM350 423 l50 0 l0 47 l-50 0 l0 -47 ZM450 423 l50 0 l0 47 l-50 0 l0 -47 ZM150 608 l50 0 l0 47 l-50 0 l0 -47 ZM400 700 l50 0 l0 47 l-50 0 l0 -47 ZM50 608 l50 0 l0 47 l-50 0 l0 -47 ZM250 423 l50 0 l0 47 l-50 0 l0 -47 ZM150 423 l50 0 l0 47 l-50 0 l0 -47 ZM50 423 l50 0 l0 47 l-50 0 l0 -47 ZM400 515 l50 0 l0 47 l-50 0 l0 -47 ZM500 700 l50 0 l0 47 l-50 0 l0 -47 ZM100 700 l50 0 l0 47 l-50 0 l0 -47 ZM250 608 l50 0 l0 47 l-50 0 l0 -47 ZM200 700 l50 0 l0 47 l-50 0 l0 -47 ZM50 793 l50 0 l0 46 l-50 0 l0 -46 ZM450 793 l50 0 l0 46 l-50 0 l0 -46 ZM150 793 l50 0 l0 46 l-50 0 l0 -46 ZM350 793 l50 0 l0 46 l-50 0 l0 -46 ZM250 793 l50 0 l0 46 l-50 0 l0 -46 Z" /><glyph glyph-name="filledbox" unicode="&#x25a0;" d="M1 598 l598 0 l0 -598 l-598 0 l0 598 Z" /><glyph glyph-name="H22073" unicode="&#x25a1;" d="M1 598 l598 0 l0 -598 l-598 0 l0 598 ZM38 561 l0 -524 l524 0 l0 524 l-524 0 Z" /><glyph glyph-name="H18543" unicode="&#x25aa;" d="M424 187 l-248 0 l0 248 l248 0 l0 -248 Z" /><glyph glyph-name="H18551" unicode="&#x25ab;" d="M424 187 l-248 0 l0 248 l248 0 l0 -248 ZM387 224 l0 174 l-174 0 l0 -174 l174 0 Z" /><glyph glyph-name="filledrect" unicode="&#x25ac;" d="M1 306 l598 0 l0 -113 l-598 0 l0 113 Z" /><glyph glyph-name="triagup" unicode="&#x25b2;" d="M7 0 l293 585 l292 -585 l-585 0 Z" /><glyph glyph-name="triagrt" unicode="&#x25ba;" d="M1 584 l598 -298 l-598 -299 l0 597 Z" /><glyph glyph-name="triagdn" unicode="&#x25bc;" d="M592 572 l-292 -585 l-293 585 l585 0 Z" /><glyph glyph-name="triaglf" unicode="&#x25c4;" d="M599 584 l0 -597 l-598 299 l598 298 Z" /><glyph glyph-name="lozenge" unicode="&#x25ca;" d="M315 -11 l-33 0 l-200 353 l200 369 l33 0 l203 -364 l-203 -358 ZM435 337 l-137 252 l-2 0 l-130 -236 l138 -252 l1 0 l130 236 Z" /><glyph glyph-name="circle" unicode="&#x25cb;" d="M300 497 q54 0 106 -28 q52 -28 80.5 -79.5 q28.5 -51.5 28.5 -107.5 q0 -89 -63 -152 q-63 -63 -152 -63 q-89 0 -152 63 q-63 63 -63 152 q0 56 29 107.5 q29 51.5 80.5 79.5 q51.5 28 105.5 28 ZM300 460 q-45 0 -87.5 -23 q-42.5 -23 -66.5 -66 q-24 -43 -24 -89 q0 -74 52.5 -126 q52.5 -52 125.5 -52 q74 0 126 52 q52 52 52 126 q0 46 -24 89 q-24 43 -66.5 66 q-42.5 23 -87.5 23 Z" /><glyph glyph-name="H18533" unicode="&#x25cf;" d="M300 497 q54 0 106 -28 q52 -28 80.5 -79.5 q28.5 -51.5 28.5 -107.5 q0 -89 -63 -152 q-63 -63 -152 -63 q-89 0 -152 63 q-63 63 -63 152 q0 56 29 107.5 q29 51.5 80.5 79.5 q51.5 28 105.5 28 Z" /><glyph glyph-name="invbullet" unicode="&#x25d8;" d="M61 0 l0 479 l478 0 l0 -479 l-478 0 ZM300 338 q-41 0 -70 -29 q-29 -29 -29 -70 q0 -40 29 -69 q29 -29 70 -29 q41 0 69.5 29 q28.5 29 28.5 69 q0 41 -28.5 70 q-28.5 29 -69.5 29 Z" /><glyph glyph-name="invcircle" unicode="&#x25d9;" d="M19 0 l0 564 l564 0 l0 -564 l-564 0 ZM300 497 q-54 0 -105.5 -28 q-51.5 -28 -80.5 -79.5 q-29 -51.5 -29 -107.5 q0 -89 63 -152 q63 -63 152 -63 q90 0 153 63 q63 63 63 152 q0 56 -29 107.5 q-29 51.5 -80.5 79.5 q-51.5 28 -106.5 28 ZM301 460 q44 0 87 -23 q43 -23 67 -65.5 q24 -42.5 24 -89.5 q0 -74 -52 -126 q-52 -52 -126 -52 q-74 0 -126 52 q-52 52 -52 126 q0 47 23.5 89.5 q23.5 42.5 66.5 65.5 q43 23 88 23 Z" /><glyph glyph-name="openbullet" unicode="&#x25e6;" d="M421 311 q0 -50 -35.5 -85.5 q-35.5 -35.5 -85.5 -35.5 q-50 0 -85.5 35.5 q-35.5 35.5 -35.5 85.5 q0 50 35.5 85.5 q35.5 35.5 85.5 35.5 q50 0 85.5 -35.5 q35.5 -35.5 35.5 -85.5 ZM384 311 q0 35 -25 59.5 q-25 24.5 -59 24.5 q-35 0 -59.5 -25 q-24.5 -25 -24.5 -59 q0 -35 24.5 -59.5 q24.5 -24.5 59.5 -24.5 q34 0 59 24.5 q25 24.5 25 59.5 Z" /><glyph glyph-name="smileface" unicode="&#x263a;" d="M599 285 q0 -123 -87.5 -210.5 q-87.5 -87.5 -211.5 -87.5 q-124 0 -211.5 87.5 q-87.5 87.5 -87.5 210.5 q0 124 87.5 211.5 q87.5 87.5 211.5 87.5 q124 0 211.5 -87.5 q87.5 -87.5 87.5 -211.5 ZM555 285 q0 106 -74.5 181 q-74.5 75 -180.5 75 q-106 0 -180.5 -75 q-74.5 -75 -74.5 -181 q0 -105 74.5 -180 q74.5 -75 180.5 -75 q106 0 180.5 75 q74.5 75 74.5 180 ZM224 347 q0 -15 -11.5 -26.5 q-11.5 -11.5 -26.5 -11.5 q-16 0 -27 11.5 q-11 11.5 -11 26.5 q0 16 11 27 q11 11 27 11 q15 0 26.5 -11 q11.5 -11 11.5 -27 ZM452 347 q0 -15 -11 -26.5 q-11 -11.5 -26 -11.5 q-16 0 -27.5 11.5 q-11.5 11.5 -11.5 26.5 q0 16 11.5 27 q11.5 11 27.5 11 q15 0 26 -11 q11 -11 11 -27 ZM162 189 l29 17 q38 -67 109 -67 q71 0 108 67 l29 -17 q-47 -91 -137 -91 q-46 0 -80 23.5 q-34 23.5 -58 67.5 Z" /><glyph glyph-name="invsmileface" unicode="&#x263b;" d="M599 285 q0 -123 -87.5 -210.5 q-87.5 -87.5 -211.5 -87.5 q-124 0 -211.5 87.5 q-87.5 87.5 -87.5 210.5 q0 124 87.5 211.5 q87.5 87.5 211.5 87.5 q124 0 211.5 -87.5 q87.5 -87.5 87.5 -211.5 ZM224 347 q0 16 -11.5 27 q-11.5 11 -26.5 11 q-16 0 -27 -11 q-11 -11 -11 -27 q0 -15 11 -26.5 q11 -11.5 27 -11.5 q15 0 26.5 11.5 q11.5 11.5 11.5 26.5 ZM452 347 q0 16 -11 27 q-11 11 -26 11 q-16 0 -27.5 -11 q-11.5 -11 -11.5 -27 q0 -15 11.5 -26.5 q11.5 -11.5 27.5 -11.5 q15 0 26 11.5 q11 11.5 11 26.5 ZM162 189 q24 -44 58 -67.5 q34 -23.5 80 -23.5 q45 0 79.5 23 q34.5 23 57.5 68 l-29 17 q-37 -67 -108 -67 q-71 0 -109 67 l-29 -17 Z" /><glyph glyph-name="sun" unicode="&#x263c;" d="M284 529 l32 0 l0 -106 q32 -3 57 -13 q25 -10 53 -31 l91 89 l22 -22 l-90 -90 q43 -57 45 -112 l105 0 l0 -30 l-105 0 q-7 -59 -45 -108 l90 -92 l-24 -21 l-89 89 q-30 -22 -53.5 -31.5 q-23.5 -9.5 -56.5 -13.5 l0 -106 l-32 0 l0 106 q-61 9 -108 44 l-92 -88 l-22 22 l90 90 q-39 49 -46 110 l-105 0 l0 30 l105 0 q6 62 45 109 l-89 90 l21 24 l92 -89 q56 38 109 44 l0 106 ZM299 393 q-67 0 -114.5 -48 q-47.5 -48 -47.5 -115 q0 -67 47.5 -114.5 q47.5 -47.5 114.5 -47.5 q68 0 115.5 47.5 q47.5 47.5 47.5 114.5 q0 67 -47.5 115 q-47.5 48 -115.5 48 Z" /><glyph glyph-name="female" unicode="&#x2640;" d="M283 282 q-54 7 -88.5 47 q-34.5 40 -34.5 92 q0 59 41.5 100.5 q41.5 41.5 99.5 41.5 q57 0 98.5 -41.5 q41.5 -41.5 41.5 -100.5 q0 -53 -34.5 -92.5 q-34.5 -39.5 -87.5 -46.5 l0 -81 l125 0 l0 -34 l-125 0 l0 -128 l-36 0 l0 128 l-126 0 l0 34 l126 0 l0 81 ZM300 522 q-41 0 -70.5 -29.5 q-29.5 -29.5 -29.5 -70.5 q0 -42 29.5 -71.5 q29.5 -29.5 70.5 -29.5 q42 0 71.5 29.5 q29.5 29.5 29.5 71.5 q0 41 -29.5 70.5 q-29.5 29.5 -71.5 29.5 Z" /><glyph glyph-name="male" unicode="&#x2642;" d="M307 382 l118 118 q-17 4 -53 18 q-27 10 -40 24 q-4 4 -4 9 q0 4 3 8 q2 2 7 2 q5 0 16 -2 q31 -8 62 -8 q45 0 63 6 q18 6 24 6 q4 0 6 -1.5 q2 -1.5 2 -5.5 q0 -4 -3 -13 q-8 -33 -8 -77 q0 -30 6 -63 q2 -11 2 -16 q0 -4 -2 -7 q-4 -3 -7 -3 q-9 0 -20 19 q-21 41 -31 81 l-116 -116 q41 -39 41 -93 q0 -61 -41.5 -103.5 q-41.5 -42.5 -100.5 -42.5 q-59 0 -100 41 q-41 41 -41 98 q0 59 41.5 100.5 q41.5 41.5 100.5 41.5 q35 0 75 -21 ZM232 366 q-44 0 -74 -30 q-30 -30 -30 -73 q0 -43 30.5 -73.5 q30.5 -30.5 73.5 -30.5 q43 0 73 30 q30 30 30 74 q0 43 -30 73 q-30 30 -73 30 Z" /><glyph glyph-name="spade" unicode="&#x2660;" d="M300 601 q13 -53 39.5 -94.5 q26.5 -41.5 94 -102.5 q67.5 -61 85.5 -94 q18 -33 18 -67 q0 -46 -31 -77.5 q-31 -31.5 -75 -31.5 q-77 0 -125 93 q1 -72 19 -114 q18 -42 58 -66.5 q40 -24.5 107 -28.5 l4 -18 l-387 0 l3 18 q61 0 103 24.5 q42 24.5 64 68 q22 43.5 20 116.5 q-22 -46 -54.5 -69.5 q-32.5 -23.5 -72.5 -23.5 q-44 0 -76 32 q-32 32 -32 75 q0 36 16 65 q22 41 77 85 q68 56 106 112 q27 40 39 98 Z" /><glyph glyph-name="club" unicode="&#x2663;" d="M506 0 l-411 0 l4 17 q81 17 107 33 q39 25 64 73.5 q25 48.5 25 101.5 q0 7 -1 23 q-29 -60 -71.5 -88 q-42.5 -28 -86.5 -28 q-57 0 -96 39.5 q-39 39.5 -39 96.5 q0 56 36 95 q36 39 81 39 q29 0 79 -25 q-20 33 -26 50.5 q-6 17.5 -6 37.5 q0 56 38 94 q38 38 96 38 q57 0 96 -38.5 q39 -38.5 39 -91.5 q0 -43 -34 -90 q41 19 49 21 q13 4 30 4 q49 0 84.5 -38 q35.5 -38 35.5 -94 q0 -58 -39 -97.5 q-39 -39.5 -94 -39.5 q-30 0 -62.5 14.5 q-32.5 14.5 -56.5 39.5 q-17 18 -42 61 q2 -78 23.5 -122.5 q21.5 -44.5 66.5 -74.5 q30 -19 107 -34 l4 -17 Z" /><glyph glyph-name="heart" unicode="&#x2665;" d="M301 -11 q-14 53 -40.5 100.5 q-26.5 47.5 -100.5 145.5 q-55 73 -68 93 q-21 31 -30 57.5 q-9 26.5 -9 53.5 q0 51 33.5 85 q33.5 34 83.5 34 q49 0 86 -35 q28 -27 45 -79 q16 58 51 86.5 q35 28.5 78 28.5 q49 0 83 -34 q34 -34 34 -80 q0 -41 -19.5 -85 q-19.5 -44 -77.5 -117 q-74 -94 -104.5 -147.5 q-30.5 -53.5 -44.5 -106.5 Z" /><glyph glyph-name="diamond" unicode="&#x2666;" d="M299 597 q44 -74 111.5 -164 q67.5 -90 112.5 -140 q-37 -39 -118 -147 q-67 -89 -105 -158 q-13 25 -34 56 q-37 55 -96 133 q-14 20 -92 116 q49 56 126 159 q57 76 95 145 Z" /><glyph glyph-name="musicalnote" unicode="&#x266a;" d="M275 148 l0 415 l37 0 l0 -49 l75 -94 q25 -34 39 -74 q14 -40 14 -81 q0 -75 -46 -132 l-23 0 q28 63 28 121 q0 58 -28 97 q-28 39 -59 44 l0 -247 q0 -61 -35.5 -97.5 q-35.5 -36.5 -88.5 -36.5 q-27 0 -41.5 13.5 q-14.5 13.5 -14.5 34.5 q0 38 29 66.5 q29 28.5 70 28.5 q11 0 22 -2.5 q11 -2.5 22 -6.5 Z" /><glyph glyph-name="musicalnotedbl" unicode="&#x266b;" d="M528 158 q0 -61 -36 -97.5 q-36 -36.5 -86 -36.5 q-28 0 -42 13.5 q-14 13.5 -14 35.5 q0 37 29 65.5 q29 28.5 69 28.5 q11 0 22 -2.5 q11 -2.5 22 -6.5 l0 219 l-269 -73 l0 -192 q0 -60 -35.5 -96.5 q-35.5 -36.5 -87.5 -36.5 q-28 0 -42 13 q-14 13 -14 35 q0 37 29 65.5 q29 28.5 70 28.5 q11 0 22 -2 q11 -2 22 -7 l0 367 l341 87 l0 -408 ZM223 366 l269 73 l0 57 l-269 -74 l0 -56 Z" /><glyph glyph-name="uni2C67" unicode="&#x2c67;" d="M412 321 l-266 0 l0 -321 l-83 0 l0 700 l83 0 l0 -305 l266 0 l0 305 l83 0 l0 -626 l92 0 l0 -194 l-70 0 l0 120 l-105 0 l0 321 Z" /><glyph glyph-name="uni2C68" unicode="&#x2c68;" d="M4 700 l156 0 l0 -262 l5 0 q31 35 72 54.5 q41 19.5 102 19.5 q48 0 83.5 -10 q35.5 -10 58 -35 q22.5 -25 33.5 -68.5 q11 -43.5 11 -110.5 l0 -221 l79 0 l0 -187 l-68 0 l0 120 l-89 0 l0 273 q0 43 -5 75 q-5 32 -19.5 53.5 q-14.5 21.5 -39.5 32.5 q-25 11 -64 11 q-27 0 -53 -9.5 q-26 -9.5 -47.5 -26 q-21.5 -16.5 -37 -40 q-15.5 -23.5 -21.5 -51.5 l0 -318 l-77 0 l0 633 l-79 0 l0 67 Z" /><glyph glyph-name="uniF406" unicode="&#xf406;" d="M170 871 q17 -34 52 -52.5 q35 -18.5 82 -18.5 q48 0 81 21 q33 21 47 50 l47 -26 q-22 -57 -70.5 -86 q-48.5 -29 -105.5 -29 q-27 0 -54 6 q-27 6 -52 19 q-25 13 -45 34 q-20 21 -33 51 l51 31 Z" /><glyph glyph-name="uniF408" unicode="&#xf408;" d="M273 871 l60 0 l145 -123 l-99 0 l-77 65 l-83 -65 l-101 0 l155 123 Z" /><glyph glyph-name="uniF40B" unicode="&#xf40b;" d="M231 795 q0 23 18 40 q18 17 50 17 q32 0 51 -17 q19 -17 19 -40 q0 -25 -19 -42 q-19 -17 -51 -17 q-32 0 -50 17 q-18 17 -18 42 Z" /><glyph glyph-name="uniF40C" unicode="&#xf40c;" d="M194 768 q0 37 25 61 q25 24 80 24 q50 0 78 -21.5 q28 -21.5 28 -63.5 q0 -36 -26.5 -59.5 q-26.5 -23.5 -79.5 -23.5 q-51 0 -78 22.5 q-27 22.5 -27 60.5 ZM255 768 q0 -17 10.5 -28.5 q10.5 -11.5 33.5 -11.5 q22 0 33.5 11 q11.5 11 11.5 29 q0 19 -11 30.5 q-11 11.5 -34 11.5 q-22 0 -33 -11.5 q-11 -11.5 -11 -30.5 Z" /><glyph glyph-name="uniF40D" unicode="&#xf40d;" d="M129 789 q31 32 63.5 41.5 q32.5 9.5 56.5 9.5 q19 0 37 -5 q18 -5 34.5 -11.5 q16.5 -6.5 32.5 -11.5 q16 -5 31 -5 q26 0 50 21 l29 -49 q-27 -25 -53 -31.5 q-26 -6.5 -47 -6.5 q-19 0 -36 5 q-17 5 -33.5 11.5 q-16.5 6.5 -32.5 11.5 q-16 5 -32 5 q-16 0 -31.5 -6.5 q-15.5 -6.5 -32.5 -23.5 l-36 45 Z" /><glyph glyph-name="uniF49E" unicode="&#xf49e;" d="M13 589 l88 0 l0 111 l83 0 l0 -111 l219 0 l0 -66 l-219 0 l0 -125 q27 15 71.5 30 q44.5 15 100.5 15 q42 0 77.5 -9.5 q35.5 -9.5 60.5 -32 q25 -22.5 39 -60.5 q14 -38 14 -94 l0 -247 l-83 0 l0 232 q0 137 -124 137 q-48 0 -89 -12.5 q-41 -12.5 -67 -33.5 l0 -323 l-83 0 l0 523 l-88 0 l0 66 Z" /><glyph glyph-name="uniF4C6" unicode="&#xf4c6;" d="M160 700 l0 -232 q0 -137 124 -137 q47 0 88 12.5 q41 12.5 67 33.5 l0 323 l83 0 l0 -727 q0 -93 -33.5 -139 q-33.5 -46 -104.5 -46 q-8 0 -17 0.5 q-9 0.5 -14 1.5 l0 68 q28 0 45 8.5 q17 8.5 26 26 q9 17.5 12 44.5 q3 27 3 63 l0 302 q-27 -15 -71 -30 q-44 -15 -101 -15 q-42 0 -77 9.5 q-35 9.5 -60 32 q-25 22.5 -39 60.5 q-14 38 -14 94 l0 247 l83 0 Z" /><glyph glyph-name="uniF4C7" unicode="&#xf4c7;" d="M167 500 l0 -133 q0 -27 3.5 -50 q3.5 -23 14.5 -39.5 q11 -16.5 31 -25.5 q20 -9 53 -9 q54 0 89 11.5 q35 11.5 52 24.5 l0 221 l78 0 l0 -500 l0 0 q1 -120 -30.5 -166 q-31.5 -46 -101.5 -46 q-8 0 -15 0.5 q-7 0.5 -15 1.5 l0 68 q28 0 44.5 8.5 q16.5 8.5 25.5 26 q9 17.5 11.5 44.5 q2.5 27 2.5 63 l0 212 q-18 -11 -54.5 -23.5 q-36.5 -12.5 -99.5 -12.5 q-42 0 -73 8.5 q-31 8.5 -51.5 30 q-20.5 21.5 -31 57 q-10.5 35.5 -10.5 89.5 l0 139 l77 0 Z" /><glyph glyph-name="uniF512" unicode="&#xf512;" d="M107 700 l411 0 l0 -74 l-328 0 l0 -229 l303 0 l0 -74 l-303 0 l0 -249 l333 0 l0 -74 l-416 0 l0 700 ZM152 895 l316 0 l0 -62 l-316 0 l0 62 ZM136 765 q0 21 16.5 30 q16.5 9 45.5 9 q28 0 44.5 -8.5 q16.5 -8.5 16.5 -30.5 q0 -20 -16.5 -29 q-16.5 -9 -44.5 -9 q-29 0 -45.5 8.5 q-16.5 8.5 -16.5 29.5 ZM358 765 q0 21 16.5 30 q16.5 9 45.5 9 q28 0 44.5 -8.5 q16.5 -8.5 16.5 -30.5 q0 -20 -16.5 -29 q-16.5 -9 -44.5 -9 q-29 0 -45.5 8.5 q-16.5 8.5 -16.5 29.5 Z" /><glyph glyph-name="uniF514" unicode="&#xf514;" d="M107 700 l411 0 l0 -74 l-328 0 l0 -229 l303 0 l0 -74 l-303 0 l0 -249 l333 0 l0 -74 l-416 0 l0 700 ZM136 765 q0 21 16.5 30 q16.5 9 45.5 9 q28 0 44.5 -8.5 q16.5 -8.5 16.5 -30.5 q0 -20 -16.5 -29 q-16.5 -9 -44.5 -9 q-29 0 -45.5 8.5 q-16.5 8.5 -16.5 29.5 ZM358 765 q0 21 16.5 30 q16.5 9 45.5 9 q28 0 44.5 -8.5 q16.5 -8.5 16.5 -30.5 q0 -20 -16.5 -29 q-16.5 -9 -44.5 -9 q-29 0 -45.5 8.5 q-16.5 8.5 -16.5 29.5 ZM220 915 q5 -25 28.5 -36.5 q23.5 -11.5 62.5 -11.5 q40 0 62.5 11 q22.5 11 28.5 37 l70 -13 q-10 -42 -49.5 -65.5 q-39.5 -23.5 -112.5 -23.5 q-70 0 -115 21 q-45 21 -53 66 l78 15 Z" /><glyph glyph-name="uniF51E" unicode="&#xf51e;" d="M48 350 q0 174 61.5 268 q61.5 94 189.5 94 q70 0 118.5 -26 q48.5 -26 78.5 -73.5 q30 -47.5 43 -114 q13 -66.5 13 -148.5 q0 -174 -61.5 -268 q-61.5 -94 -191.5 -94 q-69 0 -117 26 q-48 26 -78 73.5 q-30 47.5 -43 114 q-13 66.5 -13 148.5 ZM299 62 q81 0 120.5 62.5 q39.5 62.5 43.5 193.5 l-327 0 q2 -53 11 -99.5 q9 -46.5 28 -81 q19 -34.5 49.5 -55 q30.5 -20.5 74.5 -20.5 ZM299 638 q-78 0 -117.5 -60.5 q-39.5 -60.5 -44.5 -185.5 l326 0 q-3 51 -12.5 95.5 q-9.5 44.5 -28.5 78 q-19 33.5 -49 53 q-30 19.5 -74 19.5 ZM126 765 q0 21 16.5 30 q16.5 9 45.5 9 q28 0 44.5 -8.5 q16.5 -8.5 16.5 -30.5 q0 -20 -16.5 -29 q-16.5 -9 -44.5 -9 q-29 0 -45.5 8.5 q-16.5 8.5 -16.5 29.5 ZM348 765 q0 21 16.5 30 q16.5 9 45.5 9 q28 0 44.5 -8.5 q16.5 -8.5 16.5 -30.5 q0 -20 -16.5 -29 q-16.5 -9 -44.5 -9 q-29 0 -45.5 8.5 q-16.5 8.5 -16.5 29.5 ZM210 915 q5 -25 28.5 -36.5 q23.5 -11.5 62.5 -11.5 q40 0 62.5 11 q22.5 11 28.5 37 l70 -13 q-10 -42 -49.5 -65.5 q-39.5 -23.5 -112.5 -23.5 q-70 0 -115 21 q-45 21 -53 66 l78 15 Z" /><glyph glyph-name="uniF530" unicode="&#xf530;" d="M441 626 l-189 0 q-10 -200 -26.5 -332.5 q-16.5 -132.5 -49.5 -206.5 q-22 -48 -52 -70 q-30 -22 -65 -22 q-18 0 -31 2.5 q-13 2.5 -25 7.5 l11 72 q10 -3 21 -3 q17 0 33.5 11 q16.5 11 32.5 41 q14 27 26.5 72 q12.5 45 22 114 q9.5 69 15.5 164.5 q6 95.5 9 223.5 l350 0 l0 -626 l93 0 l0 -194 l-70 0 l0 120 l-106 0 l0 626 Z" /><glyph glyph-name="uniF531" unicode="&#xf531;" d="M426 432 l-173 0 q-4 -91 -10 -170.5 q-6 -79.5 -22.5 -138.5 q-16.5 -59 -47 -93 q-30.5 -34 -82.5 -34 q-20 0 -29 2 q-9 2 -22 7 l13 74 q19 -5 35.5 -5 q16.5 0 29.5 12 q13 12 23.5 38.5 q10.5 26.5 18 75 q7.5 48.5 12.5 122 q5 73.5 8 178.5 l324 0 l0 -433 l80 0 l0 -187 l-68 0 l0 120 l-90 0 l0 432 Z" /><glyph glyph-name="uniF532" unicode="&#xf532;" d="M457 464 l6 100 l-6 0 l-58 -112 l-260 -452 l-79 0 l0 700 l83 0 l0 -470 l-5 -99 l6 0 l57 112 l260 457 l79 0 l0 -727 q0 -93 -32.5 -139 q-32.5 -46 -104.5 -46 q-8 0 -16.5 0.5 q-8.5 0.5 -14.5 1.5 l0 68 q28 0 45 8.5 q17 8.5 26 26 q9 17.5 11.5 44.5 q2.5 27 2.5 67 l0 460 ZM223 870 q4 -37 28 -57 q24 -20 64 -20 q40 0 63.5 20 q23.5 20 28.5 56 l71 -17 q-11 -54 -50.5 -85.5 q-39.5 -31.5 -113.5 -31.5 q-71 0 -116.5 27.5 q-45.5 27.5 -53.5 87.5 l79 20 Z" /><glyph glyph-name="uniF533" unicode="&#xf533;" d="M437 314 l3 66 l-3 0 l-281 -380 l-71 0 l0 500 l78 0 l0 -323 l-3 -63 l4 0 l279 386 l72 0 l0 -527 q1 -93 -31 -139 q-32 -46 -102 -46 q-8 0 -15 0.5 q-7 0.5 -15 1.5 l0 68 q28 0 45 8.5 q17 8.5 26 26 q9 17.5 11.5 44.5 q2.5 27 2.5 66 l0 311 ZM215 702 q10 -46 34.5 -64 q24.5 -18 56.5 -18 q32 0 57 19 q25 19 34 62 l60 -19 q-9 -58 -51.5 -89 q-42.5 -31 -101.5 -31 q-27 0 -53.5 7 q-26.5 7 -47.5 21 q-21 14 -36 36 q-15 22 -20 52 l68 24 Z" /><glyph glyph-name="uni0493.alt" unicode="&#xf53d;" d="M516 430 l-312 0 l0 -153 l287 0 l0 -70 l-287 0 l0 -207 l-80 0 l0 500 l392 0 l0 -70 Z" /><glyph glyph-name="uniF54B" unicode="&#xf54b;" d="M81 453 l1 0 l-1 2 q30 17 84.5 34.5 q54.5 17.5 135.5 17.5 q42 0 77.5 -10 q35.5 -10 61 -29.5 q25.5 -19.5 40 -48 q14.5 -28.5 14.5 -65.5 q0 -30 -9.5 -55 q-9.5 -25 -26 -45 q-16.5 -20 -38.5 -34 q-22 -14 -46 -22 l0 -4 q30 -7 57 -20 q27 -13 47.5 -35 q20.5 -22 32.5 -54 q12 -32 12 -75 q0 -51 -19.5 -91.5 q-19.5 -40.5 -54 -69 q-34.5 -28.5 -81 -43.5 q-46.5 -15 -100.5 -15 q-35 0 -65.5 5 q-30.5 5 -55 13 q-24.5 8 -42.5 16.5 q-18 8.5 -28 16.5 l1 3 l0 155 l68 0 l0 -115 q23 -10 52.5 -17 q29.5 -7 65.5 -7 q32 0 64 9 q32 9 57.5 28 q25.5 19 41.5 48 q16 29 16 68 q0 35 -16 61 q-16 26 -42 43 q-26 17 -59.5 25.5 q-33.5 8.5 -67.5 8.5 l-54 0 l0 65 l80 0 q22 0 45.5 9.5 q23.5 9.5 42 25.5 q18.5 16 30.5 37 q12 21 12 44 q0 28 -10.5 47.5 q-10.5 19.5 -29.5 32 q-19 12.5 -44 18.5 q-25 6 -55 6 q-32 0 -66 -8 q-34 -8 -60 -18 l0 -98 l-68 0 l0 140 Z" /><glyph glyph-name="one.numerator" unicode="&#xf662;" d="M327 615 l-98 -59 l-27 49 l154 102 l41 0 l0 -427 l-70 0 l0 335 Z" /><glyph glyph-name="uniF6C3" unicode="&#xf6c3;" d="M242 -92 q0 21 15.5 34 q15.5 13 35.5 13 q25 0 44.5 -17.5 q19.5 -17.5 19.5 -57.5 q0 -26 -9 -45.5 q-9 -19.5 -21.5 -34 q-12.5 -14.5 -26 -23 q-13.5 -8.5 -23.5 -12.5 l-28 32 q20 11 32 28 q12 17 12 41 q-4 -1 -10 -1 q-18 0 -29.5 12 q-11.5 12 -11.5 31 Z" /><glyph glyph-name="uniF6C9" unicode="&#xf6c9;" d="M302 870 l114 0 l0 -21 l-163 -97 l-69 0 l118 118 Z" /><glyph glyph-name="uniF6CA" unicode="&#xf6ca;" d="M326 746 l-58 0 l-149 124 l104 0 l77 -67 l81 67 l93 0 l-148 -124 Z" /><glyph glyph-name="uniF6CB" unicode="&#xf6cb;" d="M126 800 q0 23 17.5 37.5 q17.5 14.5 45.5 14.5 q26 0 43.5 -14.5 q17.5 -14.5 17.5 -37.5 q0 -23 -17.5 -37 q-17.5 -14 -43.5 -14 q-28 0 -45.5 14 q-17.5 14 -17.5 37 ZM351 800 q0 23 17 37.5 q17 14.5 43 14.5 q29 0 46 -14.5 q17 -14.5 17 -37.5 q0 -23 -17 -37 q-17 -14 -46 -14 q-26 0 -43 14 q-17 14 -17 37 Z" /><glyph glyph-name="uniF6CE" unicode="&#xf6ce;" d="M416 752 l-74 0 l-158 97 l0 21 l114 0 l118 -118 Z" /><glyph glyph-name="uniF6CF" unicode="&#xf6cf;" d="M201 850 l93 0 l0 -16 l-100 -93 l-57 0 l64 109 ZM363 850 l99 0 l0 -16 l-143 -93 l-58 0 l102 109 Z" /><glyph glyph-name="uniF6D0" unicode="&#xf6d0;" d="M142 843 l316 0 l0 -62 l-316 0 l0 62 Z" /><glyph glyph-name="uniF6D1" unicode="&#xf6d1;" d="M212 870 q4 -37 28 -57 q24 -20 64 -20 q40 0 63.5 20 q23.5 20 28.5 56 l71 -17 q-11 -54 -50.5 -85.5 q-39.5 -31.5 -113.5 -31.5 q-71 0 -116.5 27.5 q-45.5 27.5 -53.5 87.5 l79 20 Z" /><glyph glyph-name="uniF6D4" unicode="&#xf6d4;" d="M213 702 q10 -46 34.5 -64 q24.5 -18 56.5 -18 q32 0 57 19 q25 19 34 62 l60 -19 q-9 -58 -51.5 -89 q-42.5 -31 -101.5 -31 q-27 0 -53.5 7 q-26.5 7 -47.5 21 q-21 14 -36 36 q-15 22 -20 52 l68 24 Z" /><glyph glyph-name="fi" unicode="&#xfb01;" d="M520 500 l0 -500 l-80 0 l0 430 l-252 0 l0 -430 l-80 0 l0 430 l-78 0 l0 70 l78 0 l0 28 q0 46 15 80 q15 34 42 56 q27 22 64 32.5 q37 10.5 82 10.5 q29 0 60 -3 q31 -3 59.5 -8.5 q28.5 -5.5 51.5 -12.5 q23 -7 36 -15 l-27 -64 q-14 9 -34.5 15 q-20.5 6 -44.5 10 q-24 4 -48.5 6 q-24.5 2 -45.5 2 q-37 0 -62 -9 q-25 -9 -40 -26 q-15 -17 -21.5 -43 q-6.5 -26 -6.5 -59 l332 0 Z" /><glyph glyph-name="fl" unicode="&#xfb02;" d="M398 634 q-15 3 -43 5.5 q-28 2.5 -55 2.5 q-68 0 -93 -37.5 q-25 -37.5 -25 -104.5 l103 0 l0 -70 l-103 0 l0 -430 l-80 0 l0 430 l-78 0 l0 70 l78 0 l0 28 q0 94 50.5 139 q50.5 45 145.5 45 q20 0 45 -1.5 q25 -1.5 50.5 -4 q25.5 -2.5 48 -5.5 q22.5 -3 36.5 -7 l0 -571 q0 -35 12.5 -50 q12.5 -15 33.5 -15 q14 0 29 2 q15 2 34 9 l8 -63 q-8 -4 -19.5 -7.5 q-11.5 -3.5 -24.5 -5.5 q-13 -2 -26 -3.5 q-13 -1.5 -23 -1.5 q-45 0 -74.5 25.5 q-29.5 25.5 -29.5 86.5 l0 534 Z" /></font>
</defs>
</svg>
