<?xml version="1.0" standalone="no"?><!DOCTYPE svg PUBLIC "-//W3C//DTD SVG 1.1//EN" "http://www.w3.org/Graphics/SVG/1.1/DTD/svg11.dtd" ><svg xmlns="http://www.w3.org/2000/svg"><metadata></metadata><defs><font id="ParaTypeLtd: PT Mono: 2012" horiz-adv-x="600"><font-face font-family="PT-Mono" font-weight="400" font-stretch="normal" units-per-em="1000" panose-1="2 6 5 9 2 2 5 2 2 4" ascent="885" descent="-235" x-height="4" bbox="-36 -235 728 915" underline-thickness="50" underline-position="-75" unicode-range="U+0020-fb02" /><missing-glyph horiz-adv-x="600" d="M10 700 l580 0 l0 -700 l-580 0 l0 700 ZM495 630 l-195 -217 l-195 217 l-50 -50 l197 -220 l-197 -220 l50 -50 l195 217 l195 -217 l50 50 l-198 220 l198 220 l-50 50 Z" /><glyph glyph-name="space" unicode=" " d="" /><glyph glyph-name="exclam" unicode="!" d="M259 335 l17 176 l49 0 l17 -176 l0 -347 l-83 0 l0 347 ZM242 642 q0 26 15.5 42 q15.5 16 41.5 16 q27 0 43 -16 q16 -16 16 -42 q0 -27 -16 -42.5 q-16 -15.5 -43 -15.5 q-26 0 -41.5 15.5 q-15.5 15.5 -15.5 42.5 Z" /><glyph glyph-name="quotedbl" unicode="&quot;" d="M359 700 l57 0 l31 -303 l-88 0 l0 303 ZM152 700 l57 0 l31 -303 l-88 0 l0 303 Z" /><glyph glyph-name="numbersign" unicode="#" d="M303 642 l69 0 l39 -167 l92 0 l16 -64 l-93 0 l31 -131 l96 0 l16 -64 l-97 0 l38 -158 l-69 0 l-38 158 l-145 0 l38 -158 l-69 0 l-38 158 l-95 0 l-14 64 l94 0 l-31 131 l-99 0 l-14 64 l98 0 l-39 167 l69 0 l39 -167 l145 0 l-39 167 ZM243 280 l145 0 l-31 131 l-145 0 l31 -131 Z" /><glyph glyph-name="dollar" unicode="$" d="M263 800 l68 0 l0 -92 q85 -14 128.5 -64.5 q43.5 -50.5 43.5 -128.5 q0 -43 -15 -75 q-15 -32 -39.5 -56 q-24.5 -24 -55.5 -42.5 q-31 -18.5 -62 -34.5 l0 -247 q42 2 70 9.5 q28 7.5 48 17.5 l24 -70 q-26 -12 -58.5 -19.5 q-32.5 -7.5 -83.5 -9.5 l0 -88 l-68 0 l0 91 q-82 11 -122.5 57 q-40.5 46 -40.5 118 q0 44 14 76 q14 32 37 55.5 q23 23.5 52.5 40.5 q29.5 17 59.5 32 l0 270 q-50 -2 -84.5 -11.5 q-34.5 -9.5 -54.5 -21.5 l-27 73 q26 14 68.5 22.5 q42.5 8.5 97.5 9.5 l0 88 ZM420 522 q0 52 -29.5 80 q-29.5 28 -75.5 36 l0 -243 q22 11 41 23 q19 12 33 27 q14 15 22.5 34 q8.5 19 8.5 43 ZM183 161 q0 -36 21.5 -65 q21.5 -29 74.5 -35 l0 219 q-41 -22 -68.5 -49 q-27.5 -27 -27.5 -70 Z" /><glyph glyph-name="percent" unicode="%" d="M28 162 q0 49 11.5 81.5 q11.5 32.5 29.5 52 q18 19.5 41 27.5 q23 8 46 8 q23 0 46 -8 q23 -8 41 -27.5 q18 -19.5 29.5 -52 q11.5 -32.5 11.5 -81.5 q0 -50 -11.5 -82.5 q-11.5 -32.5 -29.5 -52 q-18 -19.5 -41 -27.5 q-23 -8 -46 -8 q-23 0 -46 9 q-23 9 -41 29 q-18 20 -29.5 52.5 q-11.5 32.5 -11.5 79.5 ZM98 162 q0 -60 17.5 -83.5 q17.5 -23.5 40.5 -23.5 q11 0 21.5 5 q10.5 5 18.5 17.5 q8 12.5 13 33 q5 20.5 5 51.5 q0 32 -5 52.5 q-5 20.5 -13 32.5 q-8 12 -18.5 16.5 q-10.5 4.5 -21.5 4.5 q-21 0 -39.5 -23.5 q-18.5 -23.5 -18.5 -82.5 ZM315 535 q0 49 11.5 81.5 q11.5 32.5 29.5 52 q18 19.5 41 27.5 q23 8 46 8 q23 0 46 -8 q23 -8 41 -27.5 q18 -19.5 29.5 -52 q11.5 -32.5 11.5 -81.5 q0 -50 -11.5 -82.5 q-11.5 -32.5 -29.5 -52 q-18 -19.5 -41 -27.5 q-23 -8 -46 -8 q-23 0 -46 9 q-23 9 -41 29 q-18 20 -29.5 52.5 q-11.5 32.5 -11.5 79.5 ZM385 535 q0 -32 5 -52.5 q5 -20.5 13 -32.5 q8 -12 18.5 -17 q10.5 -5 21.5 -5 q11 0 21.5 5 q10.5 5 18.5 17.5 q8 12.5 13 33 q5 20.5 5 51.5 q0 33 -5 54 q-5 21 -13 32.5 q-8 11.5 -18.5 15.5 q-10.5 4 -21.5 4 q-21 0 -39.5 -23.5 q-18.5 -23.5 -18.5 -82.5 ZM94 692 l57 26 l348 -703 l-57 -29 l-348 706 Z" /><glyph glyph-name="ampersand" unicode="&amp;" d="M30 493 q0 56 19 97 q19 41 50 68 q31 27 70 40.5 q39 13.5 80 13.5 q39 0 68.5 -8 q29.5 -8 52.5 -21 q23 -13 41.5 -29.5 q18.5 -16.5 36.5 -34.5 q68 67 121 93 l0 -85 q-25 -16 -43 -32.5 q-18 -16.5 -32 -33.5 q33 -43 50 -105.5 q17 -62.5 20 -125.5 l-71 0 q0 21 -2.5 46 q-2.5 25 -8 50 q-5.5 25 -14 48 q-8.5 23 -19.5 39 q-25 -25 -50 -54.5 q-25 -29.5 -49 -59.5 q-24 -30 -45.5 -60.5 q-21.5 -30.5 -37.5 -59.5 q70 -41 102.5 -85.5 q32.5 -44.5 32.5 -86.5 q0 -22 -7.5 -43 q-7.5 -21 -24.5 -38 q-17 -17 -45 -27.5 q-28 -10.5 -69 -10.5 q-39 0 -66.5 11 q-27.5 11 -45 29 q-17.5 18 -25.5 41 q-8 23 -8 47 q0 42 17.5 78 q17.5 36 41.5 72 q-66 41 -103 101 q-37 60 -37 126 ZM401 569 q-23 28 -56.5 50.5 q-33.5 22.5 -83.5 22.5 q-25 0 -51.5 -9 q-26.5 -9 -48.5 -28 q-22 -19 -36.5 -47.5 q-14.5 -28.5 -14.5 -67.5 q0 -48 21.5 -90 q21.5 -42 75.5 -83 q15 24 36.5 55.5 q21.5 31.5 47 65.5 q25.5 34 53.5 68 q28 34 57 63 ZM189 116 q0 -29 17 -47 q17 -18 53 -18 q38 0 53.5 20 q15.5 20 15.5 52 q0 21 -20.5 49 q-20.5 28 -73.5 62 q-20 -29 -32.5 -58.5 q-12.5 -29.5 -12.5 -59.5 Z" /><glyph glyph-name="quotesingle" unicode="&#39;" d="M261 700 l57 0 l31 -303 l-88 0 l0 303 Z" /><glyph glyph-name="parenleft" unicode="(" d="M457 631 q-48 -10 -95.5 -35.5 q-47.5 -25.5 -86 -71 q-38.5 -45.5 -62 -114 q-23.5 -68.5 -23.5 -165.5 q0 -96 19.5 -163.5 q19.5 -67.5 55 -113 q35.5 -45.5 84.5 -73 q49 -27.5 108 -44.5 l-25 -63 q-65 14 -123.5 47.5 q-58.5 33.5 -102.5 89 q-44 55.5 -70 135 q-26 79.5 -26 185.5 q0 107 25.5 185 q25.5 78 69 132 q43.5 54 102 87.5 q58.5 33.5 125.5 50.5 l25 -69 Z" /><glyph glyph-name="parenright" unicode=")" d="M168 700 q67 -17 125.5 -50.5 q58.5 -33.5 102 -87.5 q43.5 -54 69 -132 q25.5 -78 25.5 -185 q0 -106 -26 -185.5 q-26 -79.5 -70 -135 q-44 -55.5 -102.5 -89 q-58.5 -33.5 -123.5 -47.5 l-25 63 q59 17 108 44.5 q49 27.5 84.5 73 q35.5 45.5 55 113 q19.5 67.5 19.5 163.5 q0 97 -23.5 165.5 q-23.5 68.5 -62 114 q-38.5 45.5 -86 71 q-47.5 25.5 -95.5 35.5 l25 69 Z" /><glyph glyph-name="asterisk" unicode="*" d="M144 299 l115 168 l-198 -17 l0 81 l198 -16 l-121 161 l72 39 l88 -179 l93 179 l67 -39 l-116 -161 l197 16 l0 -81 l-203 15 l121 -169 l-69 -37 l-86 176 l-89 -175 l-69 39 Z" /><glyph glyph-name="plus" unicode="+" d="M48 374 l216 0 l0 221 l72 0 l0 -221 l216 0 l0 -72 l-216 0 l0 -221 l-72 0 l0 221 l-216 0 l0 72 Z" /><glyph glyph-name="comma" unicode="," d="M229 -82 q0 32 16.5 48.5 q16.5 16.5 45.5 16.5 q8 0 22 -3 q0 37 -26 63 q-26 26 -62 40 l25 39 q19 -6 41.5 -18.5 q22.5 -12.5 42 -33 q19.5 -20.5 32.5 -50 q13 -29.5 13 -68.5 q0 -48 -21 -74.5 q-21 -26.5 -59 -26.5 q-31 0 -50.5 18.5 q-19.5 18.5 -19.5 48.5 Z" /><glyph glyph-name="hyphen" unicode="-" d="M129 325 l342 0 l0 -74 l-342 0 l0 74 Z" /><glyph glyph-name="period" unicode="." d="M233 55 q0 29 18 48 q18 19 48 19 q32 0 50 -19 q18 -19 18 -48 q0 -32 -18 -49.5 q-18 -17.5 -50 -17.5 q-30 0 -48 17.5 q-18 17.5 -18 49.5 Z" /><glyph glyph-name="slash" unicode="/" d="M86 684 l63 28 l365 -824 l-63 -28 l-365 824 Z" /><glyph glyph-name="zero" unicode="0" d="M55 350 q0 80 13 146.5 q13 66.5 42.5 114.5 q29.5 48 76 74.5 q46.5 26.5 112.5 26.5 q63 0 109 -24.5 q46 -24.5 76 -71 q30 -46.5 45 -114 q15 -67.5 15 -152.5 q0 -87 -13 -154.5 q-13 -67.5 -42 -113.5 q-29 -46 -75.5 -70 q-46.5 -24 -113.5 -24 q-63 0 -109 24.5 q-46 24.5 -76 71 q-30 46.5 -45 114 q-15 67.5 -15 152.5 ZM462 350 q0 149 -37.5 222 q-37.5 73 -125.5 73 q-55 0 -89 -34 q-34 -34 -51 -91 l297 -271 q6 48 6 101 ZM138 350 q0 -148 36.5 -221.5 q36.5 -73.5 125.5 -73.5 q57 0 90.5 32 q33.5 32 50.5 86 l-298 270 q-2 -22 -3.5 -45 q-1.5 -23 -1.5 -48 Z" /><glyph glyph-name="one" unicode="1" d="M127 700 l388 0 l0 -72 l-154 0 l0 -628 l-56 0 l-220 157 l39 57 l160 -112 l0 526 l-157 0 l0 72 Z" /><glyph glyph-name="two" unicode="2" d="M500 189 q0 -87 -48 -138 q-48 -51 -142 -51 q-60 0 -110.5 15 q-50.5 15 -95.5 47 l34 55 q30 -23 67 -35 q37 -12 91 -12 q63 0 94.5 34.5 q31.5 34.5 31.5 94.5 q0 40 -20 83 q-20 43 -52 86 q-32 43 -71.5 84 q-39.5 41 -77.5 76.5 q-38 35.5 -71 64.5 q-33 29 -52 47 l0 72 l444 0 l0 -72 l-352 0 q156 -133 243 -246 q87 -113 87 -205 Z" /><glyph glyph-name="three" unicode="3" d="M248 631 q-44 0 -79 -7.5 q-35 -7.5 -61 -19.5 l-20 70 q31 11 68.5 18.5 q37.5 7.5 88.5 7.5 q55 0 103.5 -14.5 q48.5 -14.5 84.5 -43 q36 -28.5 57 -70.5 q21 -42 21 -96 q0 -43 -15.5 -77 q-15.5 -34 -43.5 -58 q-28 -24 -66 -37 q-38 -13 -84 -13 l-16 0 l197 -231 l0 -72 l-395 0 l0 72 l299 0 l-197 249 l0 48 l64 0 q82 0 130.5 29.5 q48.5 29.5 48.5 98.5 q0 33 -14 60 q-14 27 -39 46 q-25 19 -58.5 29.5 q-33.5 10.5 -73.5 10.5 Z" /><glyph glyph-name="four" unicode="4" d="M580 416 l-135 0 l0 -416 l-66 0 l-335 424 l0 58 l323 0 l0 218 l78 0 l0 -218 l135 0 l0 -66 ZM367 416 l-231 0 l231 -291 l0 291 Z" /><glyph glyph-name="five" unicode="5" d="M256 630 q-54 0 -89 -14 q-35 -14 -52 -24 l-32 65 q7 6 23.5 13.5 q16.5 7.5 38.5 14 q22 6.5 49 11 q27 4.5 57 4.5 q55 0 101.5 -15 q46.5 -15 80.5 -44.5 q34 -29.5 53.5 -72.5 q19.5 -43 19.5 -99 q0 -100 -64 -154 q-64 -54 -175 -54 l-50 2 l0 -203 l268 0 l0 -72 l-343 0 l0 345 l94 -5 q89 0 140.5 37.5 q51.5 37.5 51.5 109.5 q0 39 -12.5 68 q-12.5 29 -35 48.5 q-22.5 19.5 -54.5 29 q-32 9.5 -70 9.5 Z" /><glyph glyph-name="six" unicode="6" d="M539 489 q0 -46 -15.5 -83.5 q-15.5 -37.5 -45 -64 q-29.5 -26.5 -71.5 -41 q-42 -14.5 -95 -14.5 q-31 0 -57.5 7 q-26.5 7 -48 17.5 q-21.5 10.5 -37 24.5 q-15.5 14 -23.5 27 q7 -54 31.5 -106 q24.5 -52 63.5 -95 q39 -43 91.5 -72 q52.5 -29 115.5 -37 l-14 -64 q-82 8 -150.5 48 q-68.5 40 -118 104 q-49.5 64 -77 148 q-27.5 84 -27.5 178 q0 57 17.5 103 q17.5 46 49.5 77.5 q32 31.5 76 48.5 q44 17 98 17 q58 0 102 -19 q44 -19 74 -50 q30 -31 45.5 -71 q15.5 -40 15.5 -83 ZM457 497 q0 30 -11 57 q-11 27 -31.5 47 q-20.5 20 -48.5 32 q-28 12 -62 12 q-42 0 -73 -15 q-31 -15 -51.5 -39 q-20.5 -24 -30.5 -54.5 q-10 -30.5 -10 -60.5 q0 -11 0 -19 q0 -8 2 -22 q8 -15 23 -30 q15 -15 35 -26.5 q20 -11.5 45 -18.5 q25 -7 54 -7 q81 0 120 37 q39 37 39 107 Z" /><glyph glyph-name="seven" unicode="7" d="M206 700 l305 -635 l0 -65 l-442 0 l0 72 l361 0 l-306 628 l82 0 Z" /><glyph glyph-name="eight" unicode="8" d="M75 530 q0 36 14 69 q14 33 41.5 58 q27.5 25 68.5 40 q41 15 94 15 q57 0 100 -15 q43 -15 72.5 -41 q29.5 -26 44.5 -62.5 q15 -36.5 15 -78.5 q0 -34 -10.5 -60.5 q-10.5 -26.5 -29 -47.5 q-18.5 -21 -43.5 -38 q-25 -17 -54 -32 q63 -39 91.5 -86.5 q28.5 -47.5 28.5 -104.5 q0 -33 -14 -62 q-14 -29 -40.5 -50.5 q-26.5 -21.5 -64 -33.5 q-37.5 -12 -83.5 -12 q-49 0 -89 13.5 q-40 13.5 -68 36.5 q-28 23 -43 55 q-15 32 -15 69 q0 34 10 60 q10 26 27.5 46 q17.5 20 41.5 36 q24 16 52 31 q-147 74 -147 195 ZM446 520 q0 31 -12 54.5 q-12 23.5 -32.5 39 q-20.5 15.5 -47 23.5 q-26.5 8 -55.5 8 q-36 0 -63.5 -10 q-27.5 -10 -46 -27 q-18.5 -17 -28 -39.5 q-9.5 -22.5 -9.5 -47.5 q0 -37 30.5 -79 q30.5 -42 102.5 -77 q31 15 60 30 q29 15 51.5 33 q22.5 18 36 40.5 q13.5 22.5 13.5 51.5 ZM169 159 q0 -19 9.5 -37.5 q9.5 -18.5 26.5 -33.5 q17 -15 42 -24 q25 -9 57 -9 q25 0 48 7.5 q23 7.5 40.5 21.5 q17.5 14 28 33.5 q10.5 19.5 10.5 44.5 q0 42 -26.5 77 q-26.5 35 -79.5 70 q-31 -14 -59 -28.5 q-28 -14.5 -49.5 -32 q-21.5 -17.5 -34.5 -39.5 q-13 -22 -13 -50 Z" /><glyph glyph-name="nine" unicode="9" d="M61 211 q0 47 18 84.5 q18 37.5 48.5 64 q30.5 26.5 71.5 40.5 q41 14 87 14 q31 0 55 -3 q24 -3 44 -10 q20 -7 36.5 -18.5 q16.5 -11.5 32.5 -28.5 q-9 58 -33 109 q-24 51 -62 90 q-38 39 -90 64 q-52 25 -118 32 l15 63 q80 -7 148.5 -40 q68.5 -33 118.5 -92 q50 -59 78 -144 q28 -85 28 -197 q0 -57 -16 -103.5 q-16 -46.5 -46.5 -79 q-30.5 -32.5 -74.5 -50.5 q-44 -18 -100 -18 q-60 0 -105 17.5 q-45 17.5 -75.5 48 q-30.5 30.5 -45.5 71 q-15 40.5 -15 86.5 ZM143 203 q0 -71 40 -110 q40 -39 112 -39 q44 0 75.5 16.5 q31.5 16.5 51.5 43.5 q20 27 29.5 61 q9.5 34 9.5 69 q0 11 0 19.5 q0 8.5 -2 22.5 q-17 26 -58.5 43.5 q-41.5 17.5 -98.5 17.5 q-72 0 -115.5 -36 q-43.5 -36 -43.5 -108 Z" /><glyph glyph-name="less" unicode="&lt;" d="M517 621 l38 -60 l-398 -231 l397 -235 l-38 -62 l-471 287 l0 29 l472 272 Z" /><glyph glyph-name="greater" unicode="&gt;" d="M555 349 l0 -29 l-471 -287 l-38 62 l397 235 l-398 231 l38 60 l472 -272 Z" /><glyph glyph-name="question" unicode="?" d="M298 523 q0 -42 16.5 -71 q16.5 -29 41.5 -52.5 q25 -23.5 53.5 -44 q28.5 -20.5 53.5 -46 q25 -25.5 41.5 -58 q16.5 -32.5 16.5 -80.5 q0 -31 -12.5 -63.5 q-12.5 -32.5 -38 -59 q-25.5 -26.5 -64.5 -43.5 q-39 -17 -91 -17 q-86 0 -152.5 26.5 q-66.5 26.5 -108.5 79.5 l51 46 q14 -13 31.5 -27.5 q17.5 -14.5 39 -26.5 q21.5 -12 48 -20 q26.5 -8 59.5 -8 q41 0 70.5 12 q29.5 12 48 31 q18.5 19 27.5 41 q9 22 9 41 q0 36 -15.5 62 q-15.5 26 -38.5 47.5 q-23 21.5 -49.5 40.5 q-26.5 19 -49.5 42.5 q-23 23.5 -38.5 53.5 q-15.5 30 -15.5 72 q0 5 0 11 q0 6 1 11 l66 0 ZM212 654 q0 26 15.5 42 q15.5 16 41.5 16 q27 0 43 -16 q16 -16 16 -42 q0 -27 -16 -42.5 q-16 -15.5 -43 -15.5 q-26 0 -41.5 15.5 q-15.5 15.5 -15.5 42.5 Z" /><glyph glyph-name="at" unicode="@" d="M527 3 q0 -56 -9.5 -96.5 q-9.5 -40.5 -31.5 -67 q-22 -26.5 -58 -39.5 q-36 -13 -88 -13 q-58 0 -115 23.5 q-57 23.5 -102 71.5 q-45 48 -73 120.5 q-28 72.5 -28 171.5 q0 102 29.5 172.5 q29.5 70.5 76.5 114 q47 43.5 105 63 q58 19.5 116 19.5 q69 0 128.5 -23.5 q59.5 -23.5 101.5 -68.5 l-41 -53 q-16 18 -37.5 32.5 q-21.5 14.5 -46 24.5 q-24.5 10 -50 15.5 q-25.5 5.5 -47.5 5.5 q-53 0 -100.5 -18.5 q-47.5 -18.5 -83.5 -56.5 q-36 -38 -57.5 -96 q-21.5 -58 -21.5 -137 q0 -74 20 -132.5 q20 -58.5 52 -99 q32 -40.5 73.5 -61.5 q41.5 -21 83.5 -21 q40 0 65.5 11.5 q25.5 11.5 39.5 35 q14 23.5 18 60 q4 36.5 1 86.5 q-63 -11 -116.5 -8 q-53.5 3 -92.5 21 q-39 18 -61 52 q-22 34 -22 85 q0 33 11.5 59 q11.5 26 31.5 44.5 q20 18.5 47.5 28.5 q27.5 10 59.5 10 q38 0 63 -10 q25 -10 40.5 -23.5 q15.5 -13.5 24.5 -27.5 q9 -14 15 -23 l5 0 l9 75 l133 0 l0 -65 l-67 0 q-6 -45 -6 -95 q1 -43 3 -86 q2 -43 2 -81 ZM325 272 q-45 0 -66.5 -24.5 q-21.5 -24.5 -21.5 -57.5 q0 -32 15 -52 q15 -20 43 -29.5 q28 -9.5 66.5 -9.5 q38.5 0 85.5 9 l0 70 q-6 15 -15 31.5 q-9 16.5 -23 30.5 q-14 14 -35 23 q-21 9 -49 9 Z" /><glyph glyph-name="A" unicode="A" d="M497 700 l87 0 l-236 -700 l-98 0 l-234 700 l82 0 l64 -194 l269 0 l66 194 ZM293 105 l12 0 l103 329 l-220 0 l105 -329 Z" /><glyph glyph-name="B" unicode="B" d="M522 160 q0 -52 -21.5 -85 q-21.5 -33 -54.5 -51.5 q-33 -18.5 -73.5 -25 q-40.5 -6.5 -79.5 -6.5 q-58 0 -107 4 q-49 4 -86 10 l0 689 q19 5 44 7.5 q25 2.5 50 4 q25 1.5 48 1.5 q23 0 40 0 q49 0 96 -12 q47 -12 83.5 -37 q36.5 -25 59 -64.5 q22.5 -39.5 22.5 -93.5 q0 -41 -13 -71 q-13 -30 -34 -51 q-21 -21 -48.5 -33 q-27.5 -12 -57.5 -17 l0 -4 q34 -9 59 -26 q25 -17 41 -39.5 q16 -22.5 24 -48.5 q8 -26 8 -51 ZM290 636 q-12 0 -28 -0.5 q-16 -0.5 -31 -1.5 q-15 -1 -28 -2 q-13 -1 -20 -3 l0 -251 l87 0 q33 0 66 5 q33 5 59.5 19 q26.5 14 43 39 q16.5 25 16.5 66 q0 33 -13.5 57 q-13.5 24 -36.5 40 q-23 16 -53 24 q-30 8 -62 8 ZM183 308 l0 -238 q14 -3 41.5 -4.5 q27.5 -1.5 60.5 -1.5 q28 0 55 5 q27 5 48 18 q21 13 33.5 35 q12.5 22 12.5 55 q0 24 -9.5 44 q-9.5 20 -26 36 q-16.5 16 -37.5 27.5 q-21 11.5 -45 19.5 q-16 2 -40 3 q-24 1 -41 1 l-52 0 Z" /><glyph glyph-name="C" unicode="C" d="M458 183 l74 0 l0 -158 l-1 0 q-14 -9 -28.5 -16 q-14.5 -7 -33.5 -11.5 q-19 -4.5 -44 -7 q-25 -2.5 -59 -2.5 q-62 0 -116.5 20 q-54.5 20 -95.5 63.5 q-41 43.5 -65 112 q-24 68.5 -24 166.5 q0 94 21.5 162.5 q21.5 68.5 60.5 112.5 q39 44 92.5 65.5 q53.5 21.5 116.5 21.5 q66 0 112 -15.5 q46 -15.5 76 -38.5 l-1 -2 l0 -135 l-74 0 l0 100 q-19 8 -41.5 12.5 q-22.5 4.5 -48.5 4.5 q-51 0 -92.5 -18 q-41.5 -18 -71 -54 q-29.5 -36 -46 -90 q-16.5 -54 -16.5 -126 q0 -80 18.5 -135 q18.5 -55 49 -89 q30.5 -34 70 -49 q39.5 -15 80.5 -15 q29 0 49.5 3.5 q20.5 3.5 37.5 10.5 l0 107 Z" /><glyph glyph-name="D" unicode="D" d="M80 700 q10 2 30 3 q20 1 42 2.5 q22 1.5 43 2 q21 0.5 34 0.5 q94 0 156.5 -30.5 q62.5 -30.5 99.5 -81 q37 -50.5 52 -116 q15 -65.5 15 -136.5 q0 -78 -16.5 -143 q-16.5 -65 -54 -111.5 q-37.5 -46.5 -99 -72.5 q-61.5 -26 -152.5 -26 q-29 0 -70.5 1.5 q-41.5 1.5 -79.5 6.5 l0 701 ZM234 65 q74 0 119.5 25.5 q45.5 25.5 70 65.5 q24.5 40 32.5 89.5 q8 49.5 8 98.5 q0 56 -9 108.5 q-9 52.5 -34 93 q-25 40.5 -70.5 64.5 q-45.5 24 -118.5 24 q-6 0 -15.5 -0.5 q-9.5 -0.5 -19.5 -1 q-10 -0.5 -19.5 -1 q-9.5 -0.5 -14.5 -1.5 l0 -560 q14 -3 35.5 -4 q21.5 -1 35.5 -1 Z" /><glyph glyph-name="E" unicode="E" d="M107 700 l416 0 l0 -74 l-333 0 l0 -249 l303 0 l0 -74 l-303 0 l0 -229 l328 0 l0 -74 l-411 0 l0 700 Z" /><glyph glyph-name="F" unicode="F" d="M117 700 l83 0 l0 -313 l298 0 l0 -74 l-298 0 l0 -239 l318 0 l0 -74 l-401 0 l0 700 Z" /><glyph glyph-name="G" unicode="G" d="M437 183 l74 0 l0 -167 l1 -4 q-27 -11 -66 -17.5 q-39 -6.5 -99 -6.5 q-56 0 -109 20 q-53 20 -94 63.5 q-41 43.5 -66 112.5 q-25 69 -25 166 q0 93 20 161.5 q20 68.5 57 113 q37 44.5 90 66 q53 21.5 120 21.5 q26 0 53.5 -3.5 q27.5 -3.5 53 -10.5 q25.5 -7 48 -17 q22.5 -10 38.5 -22 l0 -308 l-215 0 l0 67 l144 0 l0 195 q-45 25 -109 25 q-103 0 -157.5 -70 q-54.5 -70 -54.5 -218 q0 -81 17.5 -136 q17.5 -55 47 -89 q29.5 -34 68 -48.5 q38.5 -14.5 80.5 -14.5 q49 0 83 7 l0 114 Z" /><glyph glyph-name="H" unicode="H" d="M457 700 l83 0 l0 -700 l-83 0 l0 305 l-314 0 l0 -305 l-83 0 l0 700 l83 0 l0 -321 l314 0 l0 321 Z" /><glyph glyph-name="I" unicode="I" d="M60 74 l198 0 l0 552 l-198 0 l0 74 l480 0 l0 -74 l-199 0 l0 -552 l199 0 l0 -74 l-480 0 l0 74 Z" /><glyph glyph-name="J" unicode="J" d="M97 64 l313 0 l0 363 q0 105 -38.5 152 q-38.5 47 -113.5 47 q-26 0 -46.5 -5 q-20.5 -5 -37 -12.5 q-16.5 -7.5 -30 -15.5 q-13.5 -8 -24.5 -15 l-36 66 q8 9 25.5 19 q17.5 10 41.5 18.5 q24 8.5 52 13.5 q28 5 57 5 q113 0 173 -66 q60 -66 60 -192 l0 -452 l-396 0 l0 74 Z" /><glyph glyph-name="K" unicode="K" d="M490 700 l105 0 l-278 -367 l247 -333 l-96 0 l-225 312 l-75 0 l0 -312 l-83 0 l0 700 l83 0 l0 -324 l77 0 l245 324 Z" /><glyph glyph-name="L" unicode="L" d="M90 700 l440 0 l0 -248 l-74 0 l0 174 l-283 0 l0 -626 l-83 0 l0 700 Z" /><glyph glyph-name="M" unicode="M" d="M457 700 l83 0 l0 -700 l-75 0 l-160 266 l-2 0 l-166 -266 l-77 0 l0 700 l81 0 l0 -466 l-12 -94 l5 0 l46 85 l107 172 l25 0 l102 -171 l48 -86 l5 0 l-10 95 l0 465 Z" /><glyph glyph-name="N" unicode="N" d="M476 700 l54 0 l0 -700 l-78 0 l0 436 l11 96 l-5 0 l-52 -96 l-282 -436 l-54 0 l0 700 l78 0 l0 -438 l-10 -101 l4 0 l54 101 l280 438 Z" /><glyph glyph-name="O" unicode="O" d="M48 350 q0 82 13 148.5 q13 66.5 43 114 q30 47.5 78 73.5 q48 26 117 26 q130 0 191.5 -94 q61.5 -94 61.5 -268 q0 -82 -13 -148.5 q-13 -66.5 -43 -114 q-30 -47.5 -78.5 -73.5 q-48.5 -26 -118.5 -26 q-128 0 -189.5 94 q-61.5 94 -61.5 268 ZM136 350 q0 -147 39 -217.5 q39 -70.5 124 -70.5 q48 0 80 23.5 q32 23.5 51 63 q19 39.5 26.5 92 q7.5 52.5 7.5 109.5 q0 148 -39.5 218 q-39.5 70 -125.5 70 q-48 0 -79 -23.5 q-31 -23.5 -50 -63 q-19 -39.5 -26.5 -91.5 q-7.5 -52 -7.5 -110 Z" /><glyph glyph-name="P" unicode="P" d="M100 708 l83 0 l0 -266 q5 1 17 2 q12 1 24.5 1.5 q12.5 0.5 24 0.5 q11.5 0 16.5 0 q52 0 101 -12 q49 -12 87 -39.5 q38 -27.5 61 -71.5 q23 -44 23 -108 q0 -65 -24.5 -107 q-24.5 -42 -63.5 -66 q-39 -24 -86.5 -33 q-47.5 -9 -93.5 -9 q-43 0 -87 3 q-44 3 -82 12 l0 693 ZM271 72 q32 0 64 7 q32 7 57.5 23.5 q25.5 16.5 41 44 q15.5 27.5 15.5 68.5 q0 48 -16.5 79 q-16.5 31 -43.5 48 q-27 17 -60.5 23.5 q-33.5 6.5 -67.5 6.5 q-5 0 -16 0 q-11 0 -23 -0.5 q-12 -0.5 -23 -1 q-11 -0.5 -16 -2.5 l0 -290 q14 -4 38 -5 q24 -1 50 -1 Z" /><glyph glyph-name="Q" unicode="Q" d="M48 209 q0 75 11 137.5 q11 62.5 35.5 109 q24.5 46.5 63.5 75 q39 28.5 96 36.5 q6 41 24.5 68.5 q18.5 27.5 43.5 44.5 q25 17 53.5 24.5 q28.5 7.5 55.5 7.5 q32 0 61.5 -9.5 q29.5 -9.5 43.5 -25.5 l-22 -61 q-34 22 -77 22 q-38 0 -62.5 -17.5 q-24.5 -17.5 -33.5 -52.5 q109 -15 160 -106.5 q51 -91.5 51 -252.5 q0 -82 -13 -148.5 q-13 -66.5 -43 -114 q-30 -47.5 -78.5 -73.5 q-48.5 -26 -118.5 -26 q-128 0 -189.5 94 q-61.5 94 -61.5 268 ZM136 209 q0 -147 39 -217.5 q39 -70.5 124 -70.5 q48 0 80 23.5 q32 23.5 51 63 q19 39.5 26.5 92 q7.5 52.5 7.5 109.5 q0 148 -39.5 218 q-39.5 70 -125.5 70 q-48 0 -79 -23.5 q-31 -23.5 -50 -63 q-19 -39.5 -26.5 -91.5 q-7.5 -52 -7.5 -110 Z" /><glyph glyph-name="R" unicode="R" d="M100 708 l83 0 l0 -308 l125 0 l165 308 l97 0 l-185 -332 q15 -6 36 -20 q21 -14 40.5 -36.5 q19.5 -22.5 33 -54 q13.5 -31.5 13.5 -72.5 q0 -53 -19 -90 q-19 -37 -50.5 -60 q-31.5 -23 -73 -33 q-41.5 -10 -87.5 -10 q-41 0 -90.5 4 q-49.5 4 -87.5 11 l0 693 ZM280 72 q66 0 103 35 q37 35 37 89 q0 72 -45 106 q-45 34 -114 34 l-78 0 l0 -258 q7 -2 18.5 -3 q11.5 -1 24.5 -2 q13 -1 27 -1 q14 0 27 0 Z" /><glyph glyph-name="S" unicode="S" d="M150 490 l-74 0 l0 162 l-1 3 q13 7 35.5 17 q22.5 10 51 19 q28.5 9 62.5 15 q34 6 72 6 q56 0 100.5 -14 q44.5 -14 75 -40 q30.5 -26 47 -62 q16.5 -36 16.5 -81 q0 -55 -27.5 -92 q-27.5 -37 -68.5 -63.5 q-41 -26.5 -89 -46.5 q-48 -20 -89 -40.5 q-41 -20.5 -68.5 -46.5 q-27.5 -26 -27.5 -65 q0 -20 10 -38 q10 -18 28.5 -31.5 q18.5 -13.5 45 -21.5 q26.5 -8 59.5 -8 q34 0 64 4 q30 4 55 10 l0 107 l74 0 l0 -160 l1 -3 l-1 0 l0 -2 l-2 1 q-29 -14 -78 -22.5 q-49 -8.5 -109 -8.5 q-52 0 -94.5 12.5 q-42.5 12.5 -72.5 35.5 q-30 23 -46.5 56 q-16.5 33 -16.5 74 q0 58 27.5 95.5 q27.5 37.5 68.5 63.5 q41 26 89 45 q48 19 89 39 q41 20 68.5 46 q27.5 26 27.5 67 q0 30 -12.5 52 q-12.5 22 -34 36.5 q-21.5 14.5 -50.5 21 q-29 6.5 -62 6.5 q-38 0 -75.5 -10.5 q-37.5 -10.5 -67.5 -26.5 l0 -111 Z" /><glyph glyph-name="T" unicode="T" d="M40 183 l74 0 l0 -109 l144 0 l0 552 l-110 0 l0 74 l303 0 l0 -74 l-110 0 l0 -552 l145 0 l0 109 l74 0 l0 -183 l-520 0 l0 183 Z" /><glyph glyph-name="U" unicode="U" d="M460 435 q0 102 -34.5 146.5 q-34.5 44.5 -115.5 44.5 q-42 0 -73.5 -10 q-31.5 -10 -52 -32.5 q-20.5 -22.5 -31 -59 q-10.5 -36.5 -10.5 -89.5 l0 -444 l-83 0 l0 483 q0 114 62.5 170 q62.5 56 186.5 56 q52 0 95 -14 q43 -14 73 -43.5 q30 -29.5 46.5 -75.5 q16.5 -46 16.5 -109 l0 -467 l-80 0 l0 444 Z" /><glyph glyph-name="V" unicode="V" d="M105 0 l-91 0 l240 700 l97 0 l235 -700 l-83 0 l-190 597 l-11 0 l-197 -597 Z" /><glyph glyph-name="W" unicode="W" d="M94 0 l-79 0 l109 700 l84 0 l81 -283 l11 -69 l3 0 l10 68 l81 284 l83 0 l108 -700 l-74 0 l-74 497 l-6 68 l-5 0 l-18 -74 l-69 -271 l-66 0 l-74 273 l-14 71 l-7 0 l-5 -65 l-79 -499 Z" /><glyph glyph-name="X" unicode="X" d="M20 700 l93 0 l160 -251 l26 -50 l27 50 l157 251 l97 0 l-229 -363 l219 -337 l-92 0 l-149 237 l-24 47 l-25 -47 l-140 -237 l-100 0 l211 344 l-231 356 Z" /><glyph glyph-name="Y" unicode="Y" d="M259 700 l83 0 l0 -269 l249 -431 l-89 0 l-195 346 l-1 0 l-200 -346 l-97 0 l250 432 l0 268 Z" /><glyph glyph-name="Z" unicode="Z" d="M55 700 l490 0 l0 -74 l-397 0 l397 -551 l0 -75 l-490 0 l0 74 l395 0 l-395 551 l0 75 Z" /><glyph glyph-name="bracketleft" unicode="[" d="M149 700 l341 0 l0 -70 l-263 0 l0 -790 l263 0 l0 -70 l-341 0 l0 930 Z" /><glyph glyph-name="backslash" unicode="\" d="M149 -140 l-67 28 l370 824 l66 -29 l-369 -823 Z" /><glyph glyph-name="bracketright" unicode="]" d="M451 -230 l-342 0 l0 70 l264 0 l0 790 l-264 0 l0 70 l342 0 l0 -930 Z" /><glyph glyph-name="asciicircum" unicode="^" d="M35 711 l83 0 l187 -308 l180 308 l82 0 l-244 -410 l-29 0 l-259 410 Z" /><glyph glyph-name="underscore" unicode="_" d="M56 -135 l488 0 l0 -70 l-488 0 l0 70 Z" /><glyph glyph-name="grave" unicode="`" d="M305 571 l-109 0 l119 149 l55 0 l-65 -149 Z" /><glyph glyph-name="a" unicode="a" d="M133 96 q32 -13 73 -25.5 q41 -12.5 86 -12.5 q33 0 55.5 7.5 q22.5 7.5 35 25.5 q12.5 18 16 48.5 q3.5 30.5 -1.5 76.5 q-74 -11 -133.5 -8 q-59.5 3 -101.5 21 q-42 18 -64.5 52 q-22.5 34 -22.5 85 q0 66 43 104 q43 38 117 38 q38 0 66 -10 q28 -10 47.5 -23.5 q19.5 -13.5 31.5 -27.5 q12 -14 18 -23 l5 0 l9 75 l133 0 l0 -65 l-67 0 q-6 -45 -6 -95 q1 -43 3 -86 q2 -43 2 -81 q0 -33 -6.5 -65.5 q-6.5 -32.5 -25 -58 q-18.5 -25.5 -51 -41.5 q-32.5 -16 -83.5 -16 q-52 0 -106 11 q-54 11 -97 36 l25 58 ZM255 441 q-53 0 -75.5 -24.5 q-22.5 -24.5 -22.5 -57.5 q0 -32 18 -52 q18 -20 50 -29.5 q32 -9.5 76 -9.5 q44 0 96 9 l0 70 q-6 15 -18 31.5 q-12 16.5 -30 30.5 q-18 14 -42 23 q-24 9 -52 9 Z" /><glyph glyph-name="b" unicode="b" d="M2 59 l83 0 l0 601 q23 16 73 28 q50 12 112 12 q131 0 202 -68.5 q71 -68.5 71 -197.5 q0 -254 -220 -254 q-48 0 -89 18 q-41 18 -67 51 l-5 0 l0 -257 l-160 0 l0 67 ZM313 247 q40 0 68 14.5 q28 14.5 45.5 40 q17.5 25.5 25.5 59.5 q8 34 8 72 q0 52 -12.5 90 q-12.5 38 -35.5 62.5 q-23 24.5 -55.5 36 q-32.5 11.5 -72.5 11.5 q-35 0 -67 -7 q-32 -7 -55 -19 l0 -230 q17 -62 54 -96 q37 -34 97 -34 Z" /><glyph glyph-name="c" unicode="c" d="M439 172 l72 0 l0 -139 l1 -3 q-32 -16 -78.5 -29 q-46.5 -13 -120.5 -13 q-58 0 -105 17.5 q-47 17.5 -80 50.5 q-33 33 -50.5 82 q-17.5 49 -17.5 112 q0 59 17 107.5 q17 48.5 50 83 q33 34.5 82.5 53 q49.5 18.5 114.5 18.5 q39 0 72.5 -7 q33.5 -7 61 -18.5 q27.5 -11.5 48.5 -24.5 q21 -13 35 -25 l-35 -58 q-30 26 -74.5 42 q-44.5 16 -91.5 16 q-44 0 -80.5 -13 q-36.5 -13 -62.5 -37 q-26 -24 -40 -58.5 q-14 -34.5 -14 -78.5 q0 -100 48 -146 q48 -46 146 -46 q26 0 52.5 5.5 q26.5 5.5 49.5 13.5 l0 95 Z" /><glyph glyph-name="d" unicode="d" d="M349 55 l84 0 l0 142 q-15 -4 -27.5 -7.5 q-12.5 -3.5 -26.5 -5.5 q-14 -2 -30.5 -3 q-16.5 -1 -37.5 -1 q-58 0 -105 17 q-47 17 -80.5 49.5 q-33.5 32.5 -51.5 81 q-18 48.5 -18 111.5 q0 134 53.5 197.5 q53.5 63.5 166.5 63.5 q57 0 100.5 -25.5 q43.5 -25.5 65.5 -63.5 l4 0 l10 77 l133 0 l0 -65 l-67 0 q-2 -11 -4 -25.5 q-2 -14.5 -3.5 -29.5 q-1.5 -15 -2.5 -28.5 q-1 -13.5 -1 -22.5 l0 -529 l-162 0 l0 67 ZM289 633 q-42 0 -71 -15 q-29 -15 -46.5 -41 q-17.5 -26 -25 -61.5 q-7.5 -35.5 -7.5 -76.5 q0 -100 46 -146.5 q46 -46.5 126 -46.5 q45 0 72.5 7 q27.5 7 49.5 22 l0 232 q-13 63 -48 94.5 q-35 31.5 -96 31.5 Z" /><glyph glyph-name="e" unicode="e" d="M498 380 q-10 9 -28.5 20 q-18.5 11 -42.5 20 q-24 9 -50.5 15.5 q-26.5 6.5 -53.5 6.5 q-81 0 -129.5 -44.5 q-48.5 -44.5 -48.5 -134.5 l387 0 q5 -85 -12 -138.5 q-17 -53.5 -48.5 -84 q-31.5 -30.5 -72.5 -41.5 q-41 -11 -83 -11 q-58 0 -105 17.5 q-47 17.5 -80 50.5 q-33 33 -50.5 82 q-17.5 49 -17.5 112 q0 60 16 108 q16 48 47 82.5 q31 34.5 77 53 q46 18.5 106 18.5 q32 0 63.5 -5.5 q31.5 -5.5 60.5 -15.5 q29 -10 53.5 -24 q24.5 -14 42.5 -30 l-31 -57 ZM318 54 q61 0 98.5 36.5 q37.5 36.5 42.5 102.5 l-311 0 q4 -39 18.5 -65.5 q14.5 -26.5 37 -43 q22.5 -16.5 52 -23.5 q29.5 -7 62.5 -7 Z" /><glyph glyph-name="f" unicode="f" d="M492 706 l0 -67 l-207 0 l0 -366 l207 0 l0 -67 l-207 0 q0 -74 24 -106.5 q24 -32.5 90 -32.5 q20 0 44 3.5 q24 3.5 50 14.5 l18 -65 q-30 -12 -56 -16 q-26 -4 -59 -4 q-91 0 -140 42 q-49 42 -49 136 l0 28 l-119 0 l0 67 l119 0 l0 366 l-119 0 l0 67 l404 0 Z" /><glyph glyph-name="g" unicode="g" d="M524 -182 q-36 -13 -79.5 -21.5 q-43.5 -8.5 -105.5 -8.5 q-134 0 -202 65.5 q-68 65.5 -68 193.5 q0 134 53.5 197.5 q53.5 63.5 167.5 63.5 q57 0 93 -18 q36 -18 59 -51 l4 0 l0 56 q0 39 -8 66 q-8 27 -26 44 q-18 17 -47.5 25 q-29.5 8 -73.5 8 q-21 0 -42.5 -4 q-21.5 -4 -40.5 -10.5 q-19 -6.5 -33.5 -14 q-14.5 -7.5 -23.5 -15.5 l-38 71 q32 19 76 31 q44 12 103 12 q49 0 91 -11.5 q42 -11.5 73.5 -34.5 q31.5 -23 49.5 -58.5 q18 -35.5 18 -82.5 l0 -503 ZM301 241 q-42 0 -70.5 -14.5 q-28.5 -14.5 -46 -40.5 q-17.5 -26 -25.5 -61.5 q-8 -35.5 -8 -78.5 q0 -97 46 -144 q46 -47 126 -47 q79 0 123 21 l0 237 q-14 65 -49 96.5 q-35 31.5 -96 31.5 Z" /><glyph glyph-name="h" unicode="h" d="M4 67 l79 0 l0 633 l77 0 l0 -318 q6 -28 21.5 -51.5 q15.5 -23.5 37 -40 q21.5 -16.5 47.5 -26 q26 -9.5 53 -9.5 q39 0 64 11 q25 11 39.5 32.5 q14.5 21.5 19.5 53.5 q5 32 5 75 l0 273 l78 0 l0 -288 q0 -67 -11 -110.5 q-11 -43.5 -33.5 -68.5 q-22.5 -25 -58 -35 q-35.5 -10 -83.5 -10 q-61 0 -102 19.5 q-41 19.5 -72 54.5 l-5 0 l0 -262 l-156 0 l0 67 Z" /><glyph glyph-name="i" unicode="i" d="M529 708 l0 -67 l-170 0 l0 -433 l-254 0 l0 67 l174 0 l0 366 l-174 0 l0 67 l424 0 ZM252 66 q0 26 18 44 q18 18 46 18 q29 0 48.5 -18 q19.5 -18 19.5 -44 q0 -27 -19.5 -46.5 q-19.5 -19.5 -48.5 -19.5 q-28 0 -46 19.5 q-18 19.5 -18 46.5 Z" /><glyph glyph-name="j" unicode="j" d="M336 493 q0 66 -25.5 103.5 q-25.5 37.5 -85.5 37.5 q-37 0 -71.5 -15 q-34.5 -15 -61.5 -35 l-33 65 q8 6 24.5 16 q16.5 10 38.5 19.5 q22 9.5 47.5 16.5 q25.5 7 52.5 7 q91 0 142.5 -49.5 q51.5 -49.5 51.5 -150.5 l0 -512 l-322 0 l0 67 l242 0 l0 430 ZM294 -146 q0 26 18 44 q18 18 46 18 q29 0 48.5 -18 q19.5 -18 19.5 -44 q0 -27 -19.5 -46.5 q-19.5 -19.5 -48.5 -19.5 q-28 0 -46 19.5 q-18 19.5 -18 46.5 Z" /><glyph glyph-name="k" unicode="k" d="M24 67 l85 0 l0 633 l77 0 l0 -226 l55 0 l214 226 l103 0 l0 -67 l-65 0 l-182 -196 l221 -237 l-94 0 l-197 214 l-55 0 l0 -414 l-162 0 l0 67 Z" /><glyph glyph-name="l" unicode="l" d="M119 54 l88 0 l0 465 q0 51 10 85.5 q10 34.5 29.5 55.5 q19.5 21 48.5 30.5 q29 9.5 66 9.5 q17 0 37 -4 q20 -4 40 -11.5 q20 -7.5 39 -18.5 q19 -11 35 -25 l-36 -55 q-31 24 -56.5 34 q-25.5 10 -53.5 10 q-40 0 -60.5 -25 q-20.5 -25 -20.5 -86 l0 -532 l-166 0 l0 67 Z" /><glyph glyph-name="m" unicode="m" d="M338 512 l0 -334 q12 -52 36 -80 q24 -28 59 -28 q16 0 25.5 8 q9.5 8 15 22 q5.5 14 7.5 32.5 q2 18.5 2 39.5 l0 340 l76 0 l0 -357 q0 -35 -4.5 -63.5 q-4.5 -28.5 -16 -49 q-11.5 -20.5 -32 -31.5 q-20.5 -11 -53.5 -11 q-50 0 -78.5 22 q-28.5 22 -51.5 61 q-3 -23 -13 -39 q-10 -16 -23.5 -25.5 q-13.5 -9.5 -29.5 -14 q-16 -4.5 -31 -4.5 q-26 0 -43 5.5 q-17 5.5 -29.5 15.5 q-12.5 10 -22 23.5 q-9.5 13.5 -19.5 28.5 l-4 0 l-15 -61 l-52 0 l0 500 l76 0 l0 -344 q12 -42 35.5 -70 q23.5 -28 57.5 -28 q17 0 27.5 9 q10.5 9 16 24.5 q5.5 15.5 7 35 q1.5 19.5 1.5 40.5 l0 333 l76 0 Z" /><glyph glyph-name="n" unicode="n" d="M93 512 l77 0 l0 -314 q7 -25 22 -47.5 q15 -22.5 35 -39.5 q20 -17 44.5 -27.5 q24.5 -10.5 50.5 -10.5 q71 0 98 42 q27 42 27 125 l0 272 l78 0 l0 -287 q0 -67 -12 -110.5 q-12 -43.5 -35.5 -69 q-23.5 -25.5 -59 -35.5 q-35.5 -10 -81.5 -10 q-30 0 -57 8 q-27 8 -49 21.5 q-22 13.5 -38.5 30 q-16.5 16.5 -26.5 33.5 l-5 0 l-9 -81 l-134 0 l0 65 l67 0 q2 11 3.5 26 q1.5 15 2.5 30.5 q1 15.5 1.5 30 q0.5 14.5 0.5 23.5 l0 325 Z" /><glyph glyph-name="o" unicode="o" d="M57 250 q0 55 14.5 103 q14.5 48 44.5 83 q30 35 76 55.5 q46 20.5 108 20.5 q58 0 103.5 -18.5 q45.5 -18.5 76.5 -52.5 q31 -34 47 -82.5 q16 -48.5 16 -108.5 q0 -55 -14.5 -103 q-14.5 -48 -44.5 -83 q-30 -35 -75.5 -55.5 q-45.5 -20.5 -108.5 -20.5 q-117 0 -180 70.5 q-63 70.5 -63 191.5 ZM140 250 q0 -97 40 -146 q40 -49 120 -49 q44 0 74.5 17 q30.5 17 50 45 q19.5 28 28 62.5 q8.5 34.5 8.5 70.5 q0 96 -40.5 145.5 q-40.5 49.5 -120.5 49.5 q-44 0 -74.5 -17 q-30.5 -17 -49.5 -45 q-19 -28 -27.5 -63 q-8.5 -35 -8.5 -70 Z" /><glyph glyph-name="p" unicode="p" d="M96 512 l77 0 l0 -210 q15 6 28 10 q13 4 26.5 6.5 q13.5 2.5 30 4 q16.5 1.5 37.5 1.5 q58 0 106 -19 q48 -19 82 -54 q34 -35 52.5 -85.5 q18.5 -50.5 18.5 -113.5 q0 -134 -54 -193 q-54 -59 -161 -59 q-60 0 -101.5 23.5 q-41.5 23.5 -68.5 58.5 l-5 0 l-10 -70 l-133 0 l0 65 l67 0 q2 11 3.5 26 q1.5 15 2.5 30.5 q1 15.5 1.5 30 q0.5 14.5 0.5 23.5 l0 525 ZM326 -127 q78 0 111.5 46.5 q33.5 46.5 33.5 131.5 q0 101 -48 153.5 q-48 52.5 -128 52.5 q-45 0 -72.5 -8.5 q-27.5 -8.5 -49.5 -23.5 l0 -228 q3 -22 16 -44 q13 -22 33.5 -40 q20.5 -18 47 -29 q26.5 -11 56.5 -11 Z" /><glyph glyph-name="q" unicode="q" d="M515 -169 q-24 -11 -75 -21 q-51 -10 -110 -10 q-134 0 -202 65.5 q-68 65.5 -68 193.5 q0 134 53.5 197.5 q53.5 63.5 167.5 63.5 q57 0 93 -17.5 q36 -17.5 59 -50.5 l4 0 l0 256 l78 0 l0 -677 ZM293 253 q-42 0 -70.5 -14.5 q-28.5 -14.5 -46.5 -40.5 q-18 -26 -25.5 -61.5 q-7.5 -35.5 -7.5 -78.5 q0 -99 46 -145 q46 -46 126 -46 q39 0 69.5 4.5 q30.5 4.5 52.5 15.5 l0 241 q-25 125 -144 125 Z" /><glyph glyph-name="r" unicode="r" d="M470 510 l0 -67 l-192 0 l0 -295 q6 -9 19 -22 q13 -13 31.5 -26 q18.5 -13 43.5 -22 q25 -9 56 -9 q33 0 45.5 30 q12.5 30 12.5 94 l70 -1 q0 -45 -4 -80.5 q-4 -35.5 -15.5 -60.5 q-11.5 -25 -32 -38 q-20.5 -13 -54.5 -13 q-58 0 -100 22 q-42 22 -76 53 l-5 0 l-16 -65 l-187 0 l0 67 l135 0 l0 366 l-135 0 l0 67 l404 0 Z" /><glyph glyph-name="s" unicode="s" d="M438 365 q0 22 -10.5 37.5 q-10.5 15.5 -28.5 25 q-18 9.5 -41.5 14 q-23.5 4.5 -50.5 4.5 q-28 0 -55.5 -6 q-27.5 -6 -51.5 -16 q-24 -10 -44 -22.5 q-20 -12.5 -32 -24.5 l-40 65 q15 13 38 25.5 q23 12.5 51 22.5 q28 10 60 16 q32 6 65 6 q109 0 163.5 -45 q54.5 -45 54.5 -114 q0 -46 -25 -73 q-25 -27 -62 -43 q-37 -16 -80.5 -24.5 q-43.5 -8.5 -80.5 -18 q-37 -9.5 -62 -23.5 q-25 -14 -25 -40 q0 -21 10.5 -35.5 q10.5 -14.5 28 -23.5 q17.5 -9 39 -13.5 q21.5 -4.5 43.5 -4.5 q58 0 96.5 16.5 q38.5 16.5 71.5 34.5 l32 -63 q-30 -19 -80.5 -36.5 q-50.5 -17.5 -120.5 -17.5 q-39 0 -75 8.5 q-36 8.5 -63 26 q-27 17.5 -43.5 44.5 q-16.5 27 -16.5 65 q0 46 25 71.5 q25 25.5 62 40.5 q37 15 80.5 24 q43.5 9 80.5 19.5 q37 10.5 62 28 q25 17.5 25 49.5 Z" /><glyph glyph-name="t" unicode="t" d="M31 175 l119 0 l0 248 q0 52 16 89.5 q16 37.5 43 61.5 q27 24 62.5 35.5 q35.5 11.5 75.5 11.5 q51 0 99.5 -17 q48.5 -17 83.5 -45 l-26 -59 q-27 20 -60.5 37 q-33.5 17 -78.5 17 q-66 0 -101.5 -35 q-35.5 -35 -35.5 -108 l0 -236 l267 0 l0 -67 l-267 0 l0 -121 l-78 22 l0 99 l-119 0 l0 67 Z" /><glyph glyph-name="u" unicode="u" d="M363 55 l64 0 l0 259 q-20 51 -58.5 85 q-38.5 34 -90.5 34 q-36 0 -57.5 -11.5 q-21.5 -11.5 -32.5 -34 q-11 -22.5 -14.5 -55 q-3.5 -32.5 -3.5 -73.5 l0 -271 l-145 0 l0 67 l67 0 l0 220 q0 65 10 108.5 q10 43.5 31 69.5 q21 26 53.5 36.5 q32.5 10.5 78.5 10.5 q61 0 104 -27 q43 -27 69 -70 l4 0 l3 85 l133 0 l0 -65 l-67 0 q-6 -45 -6 -94 l0 -341 l-142 0 l0 67 Z" /><glyph glyph-name="v" unicode="v" d="M135 0 l-92 0 l215 500 l88 0 l211 -500 l-87 0 l-157 403 l-11 0 l-167 -403 Z" /><glyph glyph-name="w" unicode="w" d="M271 110 l-97 280 l-6 0 l-81 -390 l-77 0 l105 500 l89 0 l100 -276 l3 0 l96 276 l89 0 l98 -500 l-73 0 l-71 388 l-7 0 l-100 -278 l-68 0 Z" /><glyph glyph-name="x" unicode="x" d="M46 500 l91 0 l162 -205 l159 205 l96 0 l-205 -260 l193 -240 l-90 0 l-148 188 l-144 -188 l-100 0 l193 244 l-207 256 Z" /><glyph glyph-name="y" unicode="y" d="M136 -205 l-90 0 l210 500 l67 0 q-27 127 -102 127 q-8 0 -20 -2.5 q-12 -2.5 -24.5 -6 q-12.5 -3.5 -23 -8.5 q-10.5 -5 -16.5 -10 l-28 72 q6 6 18 12 q12 6 26 10.5 q14 4.5 28.5 7.5 q14.5 3 27.5 3 q58 0 94 -27 q36 -27 57 -66 q21 -39 32.5 -83.5 q11.5 -44.5 22.5 -79.5 l139 -449 l-81 0 l-124 423 l-38 0 l-175 -423 Z" /><glyph glyph-name="z" unicode="z" d="M84 500 l432 0 l0 -67 l-342 0 l342 -366 l0 -67 l-432 0 l0 67 l339 0 l-339 366 l0 67 Z" /><glyph glyph-name="braceleft" unicode="{" d="M220 537 q0 81 42.5 122.5 q42.5 41.5 112.5 41.5 l145 0 l0 -70 l-109 0 q-61 0 -87 -29 q-26 -29 -26 -90 l0 -96 q0 -39 -15.5 -71 q-15.5 -32 -36.5 -55.5 q-21 -23.5 -43 -37 q-22 -13.5 -35 -15.5 l0 -6 q14 -2 36 -14.5 q22 -12.5 43 -34 q21 -21.5 36 -53.5 q15 -32 15 -73 l0 -97 q0 -59 24.5 -89 q24.5 -30 87.5 -30 l110 0 l0 -70 l-145 0 q-34 0 -62.5 12.5 q-28.5 12.5 -49 34.5 q-20.5 22 -32 52 q-11.5 30 -11.5 66 l0 102 q0 46 -14.5 77 q-14.5 31 -36 50.5 q-21.5 19.5 -46 28 q-24.5 8.5 -43.5 8.5 l0 70 q19 0 43.5 10 q24.5 10 46 31 q21.5 21 36 52.5 q14.5 31.5 14.5 74.5 l0 98 Z" /><glyph glyph-name="bar" unicode="|" d="M266 700 l68 0 l0 -830 l-68 0 l0 830 Z" /><glyph glyph-name="braceright" unicode="}" d="M380 439 q0 -43 14.5 -74.5 q14.5 -31.5 36 -52.5 q21.5 -21 46 -31 q24.5 -10 43.5 -10 l0 -70 q-19 0 -43.5 -8.5 q-24.5 -8.5 -46 -28 q-21.5 -19.5 -36 -50.5 q-14.5 -31 -14.5 -77 l0 -102 q0 -36 -11.5 -66 q-11.5 -30 -32 -52 q-20.5 -22 -49 -34.5 q-28.5 -12.5 -62.5 -12.5 l-145 0 l0 70 l110 0 q63 0 87.5 30 q24.5 30 24.5 89 l0 97 q0 41 15 73 q15 32 36 53.5 q21 21.5 43 34 q22 12.5 36 14.5 l0 6 q-14 2 -36 15.5 q-22 13.5 -43 37 q-21 23.5 -36 55.5 q-15 32 -15 71 l0 96 q0 61 -26 90 q-26 29 -87 29 l-109 0 l0 70 l145 0 q70 0 112.5 -41.5 q42.5 -41.5 42.5 -122.5 l0 -98 Z" /><glyph glyph-name="asciitilde" unicode="~" d="M112 412 q32 -26 58 -36.5 q26 -10.5 49 -10.5 q24 0 44.5 8.5 q20.5 8.5 41 19 q20.5 10.5 43 19 q22.5 8.5 49.5 8.5 q25 0 55.5 -10.5 q30.5 -10.5 68.5 -36.5 l-34 -61 q-23 20 -43 28 q-20 8 -39 8 q-23 0 -44 -8.5 q-21 -8.5 -43 -19 q-22 -10.5 -46 -19 q-24 -8.5 -52 -8.5 q-29 0 -64 13 q-35 13 -78 46 l34 60 Z" /><glyph glyph-name="uni00A0" unicode=" " d="" /><glyph glyph-name="exclamdown" unicode="¡" d="M341 164 l-17 -176 l-49 0 l-17 176 l0 347 l83 0 l0 -347 ZM242 -142 q0 26 15.5 42 q15.5 16 41.5 16 q27 0 43 -16 q16 -16 16 -42 q0 -27 -16 -42.5 q-16 -15.5 -43 -15.5 q-26 0 -41.5 15.5 q-15.5 15.5 -15.5 42.5 Z" /><glyph glyph-name="cent" unicode="¢" d="M491 410 q-8 6 -23.5 12 q-15.5 6 -34.5 10.5 q-19 4.5 -38 7 q-19 2.5 -35 2.5 l0 -383 q16 0 34 3 q18 3 35 8 q17 5 31.5 10.5 q14.5 5.5 24.5 10.5 l23 -68 q-22 -11 -59.5 -22.5 q-37.5 -11.5 -81.5 -11.5 l0 -89 l-71 0 l0 91 q-44 6 -82.5 25.5 q-38.5 19.5 -67.5 52.5 q-29 33 -46 78.5 q-17 45.5 -17 102.5 q0 111 56.5 180.5 q56.5 69.5 156.5 79.5 l0 90 l71 0 l0 -91 q19 0 40.5 -2.5 q21.5 -2.5 41.5 -7.5 q20 -5 38 -12 q18 -7 30 -16 l-26 -61 ZM166 250 q0 -85 39 -133 q39 -48 101 -56 l0 377 q-36 -4 -62 -21.5 q-26 -17.5 -43.5 -43.5 q-17.5 -26 -26 -58 q-8.5 -32 -8.5 -65 Z" /><glyph glyph-name="sterling" unicode="£" d="M77 399 l97 0 q10 24 16.5 50.5 q6.5 26.5 6.5 59.5 q0 24 -7 47.5 q-7 23.5 -21.5 42 q-14.5 18.5 -37 30 q-22.5 11.5 -54.5 11.5 l0 72 l446 0 l0 -74 l-303 0 q20 -18 32 -36 q12 -18 18 -35.5 q6 -17.5 8 -33.5 q2 -16 2 -31 q0 -30 -5 -55 q-5 -25 -13 -48 l131 0 l0 -70 l-161 0 q-14 -30 -24 -61.5 q-10 -31.5 -10 -73.5 q0 -55 32.5 -87.5 q32.5 -32.5 92.5 -32.5 q55 0 93.5 9 q38.5 9 61.5 20 l26 -71 q-29 -14 -74 -23 q-45 -9 -106 -9 q-97 0 -153 50.5 q-56 50.5 -56 148.5 q0 42 8 72.5 q8 30.5 20 57.5 l-66 0 l0 70 Z" /><glyph glyph-name="currency" unicode="¤" d="M48 144 l106 107 q-12 21 -19 45 q-7 24 -7 50 q0 54 25 95 l-105 107 l49 48 l105 -106 q40 27 97 27 q56 0 97 -26 l106 105 l49 -48 l-106 -108 q26 -41 26 -94 q0 -53 -26 -94 l106 -108 l-49 -49 l-108 107 q-42 -28 -95 -28 q-56 0 -95 27 l-107 -106 l-49 49 ZM197 346 q0 -45 28.5 -75.5 q28.5 -30.5 73.5 -30.5 q45 0 74 30.5 q29 30.5 29 75.5 q0 45 -29 75 q-29 30 -74 30 q-45 0 -73.5 -30 q-28.5 -30 -28.5 -75 Z" /><glyph glyph-name="yen" unicode="¥" d="M137 432 l122 0 l0 71 l-122 0 l0 60 l122 0 l0 137 l83 0 l0 -137 l122 0 l0 -60 l-122 0 l0 -71 l122 0 l0 -60 l-96 0 l203 -372 l-89 0 l-173 340 l-5 0 l-179 -340 l-97 0 l203 372 l-94 0 l0 60 Z" /><glyph glyph-name="brokenbar" unicode="¦" d="M266 700 l68 0 l0 -336 l-68 0 l0 336 ZM334 -130 l-68 0 l0 336 l68 0 l0 -336 Z" /><glyph glyph-name="section" unicode="§" d="M108 347 q0 45 19.5 73 q19.5 28 49.5 45.5 q30 17.5 64 28.5 q34 11 64 22 q30 11 49.5 26 q19.5 15 19.5 41 q0 32 -23 45.5 q-23 13.5 -65 13.5 q-38 0 -70.5 -8.5 q-32.5 -8.5 -55.5 -19.5 l-20 65 q28 14 64 23.5 q36 9.5 92 9.5 q33 0 62 -8 q29 -8 50.5 -24 q21.5 -16 33.5 -39.5 q12 -23.5 12 -54.5 q0 -41 -13 -62 q-13 -21 -40 -37 q54 -30 72 -66.5 q18 -36.5 18 -67.5 q0 -45 -19.5 -73.5 q-19.5 -28.5 -49.5 -46 q-30 -17.5 -64 -28.5 q-34 -11 -64 -22 q-30 -11 -49.5 -25.5 q-19.5 -14.5 -19.5 -40.5 q0 -27 21.5 -43 q21.5 -16 66.5 -16 q36 0 69 8.5 q33 8.5 57 19.5 l19 -67 q-27 -13 -64.5 -22 q-37.5 -9 -91.5 -9 q-74 0 -115.5 35 q-41.5 35 -41.5 91 q0 41 16.5 63 q16.5 22 36.5 36 q-26 13 -43 30 q-17 17 -27.5 35 q-10.5 18 -15 36 q-4.5 18 -4.5 33 ZM411 355 q0 16 -6.5 30.5 q-6.5 14.5 -17.5 27 q-11 12.5 -24.5 22.5 q-13.5 10 -27.5 16 q-27 -10 -53.5 -18 q-26.5 -8 -47 -19.5 q-20.5 -11.5 -33.5 -27.5 q-13 -16 -13 -41 q0 -36 22 -60 q22 -24 51 -37 q27 10 54 18.5 q27 8.5 48.5 20 q21.5 11.5 34.5 27.5 q13 16 13 41 Z" /><glyph glyph-name="dieresis" unicode="¨" d="M131 647 q0 24 15.5 40.5 q15.5 16.5 41.5 16.5 q25 0 41 -16.5 q16 -16.5 16 -40.5 q0 -26 -16 -42.5 q-16 -16.5 -41 -16.5 q-26 0 -41.5 16.5 q-15.5 16.5 -15.5 42.5 ZM354 647 q0 24 15.5 40.5 q15.5 16.5 40.5 16.5 q26 0 42.5 -16.5 q16.5 -16.5 16.5 -40.5 q0 -26 -16.5 -42.5 q-16.5 -16.5 -42.5 -16.5 q-25 0 -40.5 16.5 q-15.5 16.5 -15.5 42.5 Z" /><glyph glyph-name="copyright" unicode="©" d="M43 295 q0 60 18 107.5 q18 47.5 52 80.5 q34 33 81 50.5 q47 17.5 106 17.5 q52 0 99 -17.5 q47 -17.5 81.5 -50.5 q34.5 -33 55 -80.5 q20.5 -47.5 20.5 -107.5 q0 -60 -20.5 -107.5 q-20.5 -47.5 -55 -80.5 q-34.5 -33 -81.5 -50.5 q-47 -17.5 -99 -17.5 q-53 0 -99.5 17.5 q-46.5 17.5 -81.5 50.5 q-35 33 -55.5 80.5 q-20.5 47.5 -20.5 107.5 ZM96 295 q0 -50 15.5 -88.5 q15.5 -38.5 43 -65 q27.5 -26.5 65 -40.5 q37.5 -14 80.5 -14 q43 0 80 14 q37 14 64.5 40.5 q27.5 26.5 43 65 q15.5 38.5 15.5 88.5 q0 50 -15.5 89 q-15.5 39 -43 65.5 q-27.5 26.5 -64.5 40 q-37 13.5 -80 13.5 q-43 0 -80.5 -13.5 q-37.5 -13.5 -65 -40 q-27.5 -26.5 -43 -65.5 q-15.5 -39 -15.5 -89 ZM371 363 q-12 7 -26 10.5 q-14 3.5 -32 3.5 q-32 0 -50.5 -20 q-18.5 -20 -18.5 -62 q0 -82 63 -82 q22 0 55 15 l19 -51 q-22 -10 -38.5 -15 q-16.5 -5 -42.5 -5 q-55 0 -88 36 q-33 36 -33 102 q0 64 31 101 q31 37 90 37 q52 0 86 -20 l-15 -50 Z" /><glyph glyph-name="ordfeminine" unicode="ª" d="M190 457 q19 -10 52 -17.5 q33 -7.5 73 -7.5 q34 0 46 11 q12 11 12 38 q0 5 0 10.5 q0 5.5 -1 11.5 q-7 0 -13.5 -0.5 q-6.5 -0.5 -13.5 -0.5 q-40 0 -74.5 6 q-34.5 6 -60 19 q-25.5 13 -40.5 34 q-15 21 -15 52 q0 44 31 69.5 q31 25.5 83 25.5 q43 0 67 -16.5 q24 -16.5 37 -33.5 l4 0 l13 46 l55 0 q-5 -19 -6.5 -41 q-1.5 -22 -1.5 -46 q0 -32 1.5 -67 q1.5 -35 1.5 -73 q0 -49 -23 -75 q-23 -26 -85 -26 q-50 0 -91 9 q-41 9 -66 22 l15 50 ZM280 652 q-26 0 -40.5 -12 q-14.5 -12 -14.5 -32 q0 -17 8.5 -27.5 q8.5 -10.5 23 -16.5 q14.5 -6 33.5 -8 q19 -2 40 -2 q11 0 21 0 q10 0 21 1 l0 42 q-4 9 -11 18.5 q-7 9.5 -18 18 q-11 8.5 -26.5 13.5 q-15.5 5 -36.5 5 Z" /><glyph glyph-name="guillemotleft" unicode="«" d="M253 518 l57 -49 l-163 -199 l156 -202 l-58 -48 l-195 254 l203 244 ZM493 518 l57 -49 l-163 -199 l156 -202 l-58 -48 l-195 254 l203 244 Z" /><glyph glyph-name="logicalnot" unicode="¬" d="M88 272 l352 0 l0 120 l72 0 l0 -192 l-424 0 l0 72 Z" /><glyph glyph-name="registered" unicode="®" d="M35 451 q0 64 20.5 113.5 q20.5 49.5 56.5 83 q36 33.5 84 51 q48 17.5 104 17.5 q54 0 102 -17.5 q48 -17.5 84.5 -51 q36.5 -33.5 57.5 -83 q21 -49.5 21 -113.5 q0 -64 -20.5 -113.5 q-20.5 -49.5 -56.5 -83 q-36 -33.5 -84.5 -51 q-48.5 -17.5 -103.5 -17.5 q-54 0 -102 17.5 q-48 17.5 -84.5 51 q-36.5 33.5 -57.5 83 q-21 49.5 -21 113.5 ZM98 451 q0 -52 15 -90.5 q15 -38.5 42 -64 q27 -25.5 64 -38.5 q37 -13 81 -13 q42 0 78.5 13 q36.5 13 64 38.5 q27.5 25.5 43.5 64 q16 38.5 16 90.5 q0 53 -15.5 91.5 q-15.5 38.5 -42.5 64 q-27 25.5 -64 38 q-37 12.5 -80 12.5 q-41 0 -78 -13 q-37 -13 -64.5 -38.5 q-27.5 -25.5 -43.5 -64 q-16 -38.5 -16 -90.5 ZM197 580 l52 0 l0 -104 l42 0 l78 104 l61 0 l-86 -123 q9 -2 18.5 -7 q9.5 -5 17.5 -13.5 q8 -8.5 13.5 -20 q5.5 -11.5 5.5 -27.5 q0 -43 -30 -60.5 q-30 -17.5 -72 -17.5 q-26 0 -55 2.5 q-29 2.5 -45 7.5 l0 259 ZM286 356 q58 0 58 35 q0 43 -61 43 l-34 0 l0 -74 q6 -3 16 -3.5 q10 -0.5 21 -0.5 Z" /><glyph glyph-name="macron" unicode="¯" d="M152 643 l296 0 l0 -62 l-296 0 l0 62 Z" /><glyph glyph-name="degree" unicode="°" d="M159 571 q0 33 11 59 q11 26 30 44.5 q19 18.5 45 28 q26 9.5 55 9.5 q29 0 55 -9.5 q26 -9.5 45 -28 q19 -18.5 30 -44.5 q11 -26 11 -59 q0 -33 -11 -59 q-11 -26 -30 -44.5 q-19 -18.5 -45 -28 q-26 -9.5 -55 -9.5 q-29 0 -55 10.5 q-26 10.5 -45 29 q-19 18.5 -30 44.5 q-11 26 -11 57 ZM222 571 q0 -38 23.5 -59.5 q23.5 -21.5 54.5 -21.5 q31 0 54.5 21.5 q23.5 21.5 23.5 59.5 q0 38 -23.5 59.5 q-23.5 21.5 -54.5 21.5 q-31 0 -54.5 -21.5 q-23.5 -21.5 -23.5 -59.5 Z" /><glyph glyph-name="plusminus" unicode="±" d="M88 431 l176 0 l0 120 l72 0 l0 -120 l176 0 l0 -72 l-176 0 l0 -181 l-72 0 l0 181 l-176 0 l0 72 ZM88 674 l424 0 l0 -72 l-424 0 l0 72 Z" /><glyph glyph-name="acute" unicode="´" d="M196 720 l55 0 l119 -149 l-109 0 l-65 149 Z" /><glyph glyph-name="mu" unicode="µ&#x3bc;" d="M443 300 l128 0 l0 -65 l-64 0 q-2 -16 -4.5 -37.5 q-2.5 -21.5 -2.5 -60.5 l0 -337 l-80 0 l0 324 q-15 53 -53 85.5 q-38 32.5 -93 32.5 q-61 0 -85.5 -40 q-24.5 -40 -24.5 -119 l0 -283 l-80 0 l0 700 l80 0 l0 -133 l-5 -93 l5 0 q18 22 44 30 q26 8 57 8 q60 0 101.5 -25.5 q41.5 -25.5 61.5 -60.5 l4 0 l11 74 Z" /><glyph glyph-name="paragraph" unicode="¶" d="M418 700 l68 0 l0 -830 l-68 0 l0 830 ZM262 700 l68 0 l0 -830 l-45 0 q-40 0 -72 16.5 q-32 16.5 -54 43.5 q-22 27 -33.5 62 q-11.5 35 -11.5 72 q0 37 11.5 72.5 q11.5 35.5 31 63 q19.5 27.5 46.5 44 q27 16.5 59 16.5 l0 440 Z" /><glyph glyph-name="cedilla" unicode="¸" d="M271 -208 l-48 90 q86 9 86 37 q0 6 -1.5 13 q-1.5 7 -8 12.5 q-6.5 5.5 -19 9.5 q-12.5 4 -34.5 4 q-5 0 -10 0 q-5 0 -11 -1 l-9 39 q12 2 23 3 q11 1 22 1 q58 0 90 -25.5 q32 -25.5 32 -64.5 q0 -31 -18.5 -49 q-18.5 -18 -60.5 -26 l24 -43 l-57 0 Z" /><glyph glyph-name="ordmasculine" unicode="º" d="M145 542 q0 47 12 79.5 q12 32.5 32.5 52.5 q20.5 20 49 29 q28.5 9 61.5 9 q33 0 61.5 -9 q28.5 -9 49 -29 q20.5 -20 32.5 -52.5 q12 -32.5 12 -79.5 q0 -47 -12 -79.5 q-12 -32.5 -32.5 -52.5 q-20.5 -20 -49 -29 q-28.5 -9 -61.5 -9 q-33 0 -61.5 9.5 q-28.5 9.5 -49 30.5 q-20.5 21 -32.5 53 q-12 32 -12 77 ZM219 542 q0 -65 21.5 -88.5 q21.5 -23.5 59.5 -23.5 q19 0 34 5.5 q15 5.5 25.5 18 q10.5 12.5 16 34 q5.5 21.5 5.5 54.5 q0 33 -5.5 54.5 q-5.5 21.5 -16 34 q-10.5 12.5 -25.5 18 q-15 5.5 -34 5.5 q-38 0 -59.5 -26 q-21.5 -26 -21.5 -86 Z" /><glyph glyph-name="guillemotright" unicode="»" d="M550 274 l-195 -254 l-58 48 l156 202 l-163 199 l57 49 l203 -244 ZM310 274 l-195 -254 l-58 48 l156 202 l-163 199 l57 49 l203 -244 Z" /><glyph glyph-name="onequarter" unicode="¼" d="M123 691 l48 22 l308 -705 l-47 -20 l-309 703 ZM549 551 l-51 0 l0 -276 l-49 0 l-144 288 l0 41 l135 0 l0 97 l58 0 l0 -97 l51 0 l0 -53 ZM440 551 l-72 0 l72 -157 l0 157 ZM135 421 l58 0 l0 -420 l-40 0 l-118 105 l32 37 l68 -59 l0 337 Z" /><glyph glyph-name="onehalf" unicode="½" d="M111 691 l48 22 l308 -705 l-47 -20 l-309 703 ZM548 383 q0 -109 -97 -109 q-18 0 -42.5 7 q-24.5 7 -41.5 21 l18 48 q11 -9 28 -14.5 q17 -5.5 35 -5.5 q18 0 29.5 16.5 q11.5 16.5 11.5 45.5 q0 36 -13 73 q-13 37 -32 71.5 q-19 34.5 -41 64.5 q-22 30 -41 52 l0 48 l198 0 l0 -56 l-129 0 q51 -68 84 -131.5 q33 -63.5 33 -130.5 ZM135 421 l58 0 l0 -420 l-40 0 l-118 105 l32 37 l68 -59 l0 337 Z" /><glyph glyph-name="threequarters" unicode="¾" d="M131 691 l48 22 l308 -705 l-47 -20 l-309 703 ZM115 372 q-34 0 -58 -15 l-13 53 q15 8 34.5 13 q19.5 5 42.5 5 q49 0 81 -37 q32 -37 32 -98 q0 -54 -22 -85.5 q-22 -31.5 -67 -30.5 l0 -3 l77 -131 l0 -42 l-175 0 l0 56 l107 0 l-75 131 l0 33 l35 0 q33 0 47 20 q14 20 14 52 q0 37 -14.5 58 q-14.5 21 -45.5 21 ZM549 551 l-51 0 l0 -276 l-49 0 l-144 288 l0 41 l135 0 l0 97 l58 0 l0 -97 l51 0 l0 -53 ZM440 551 l-72 0 l72 -157 l0 157 Z" /><glyph glyph-name="questiondown" unicode="¿" d="M273 -154 q0 26 15.5 42 q15.5 16 41.5 16 q27 0 43 -16 q16 -16 16 -42 q0 -27 -16 -42.5 q-16 -15.5 -43 -15.5 q-26 0 -41.5 15.5 q-15.5 15.5 -15.5 42.5 ZM302 -23 q0 42 -16.5 71 q-16.5 29 -41.5 52.5 q-25 23.5 -53.5 44 q-28.5 20.5 -53.5 46 q-25 25.5 -41.5 58.5 q-16.5 33 -16.5 80 q0 31 13 63.5 q13 32.5 40 59 q27 26.5 69.5 43.5 q42.5 17 102.5 17 q88 0 144 -26.5 q56 -26.5 98 -79.5 l-51 -46 q-14 14 -31.5 28.5 q-17.5 14.5 -39 26.5 q-21.5 12 -48 19.5 q-26.5 7.5 -59.5 7.5 q-41 0 -70.5 -12 q-29.5 -12 -48.5 -31 q-19 -19 -27.5 -40.5 q-8.5 -21.5 -8.5 -41.5 q0 -36 15.5 -62 q15.5 -26 38.5 -47.5 q23 -21.5 49.5 -40.5 q26.5 -19 49.5 -42.5 q23 -23.5 38.5 -53.5 q15.5 -30 15.5 -72 q0 -5 0 -11 q0 -6 -1 -11 l-66 0 Z" /><glyph glyph-name="Aring" unicode="Å" d="M195 85 q0 32 19 53.5 q19 21.5 57 27.5 l-256 687 l82 0 l70 -194 l258 0 l72 194 l87 0 l-257 -687 q39 -6 59 -27.5 q20 -21.5 20 -53.5 q0 -42 -28 -63.5 q-28 -21.5 -78 -21.5 q-55 0 -80 24 q-25 24 -25 61 ZM296 299 l1 0 l103 288 l-206 0 l102 -288 ZM256 85 q0 -19 11 -30.5 q11 -11.5 33 -11.5 q23 0 34 11.5 q11 11.5 11 30.5 q0 18 -11.5 29 q-11.5 11 -33.5 11 q-23 0 -33.5 -11.5 q-10.5 -11.5 -10.5 -28.5 Z" /><glyph glyph-name="AE" unicode="Æ" d="M306 148 l0 289 l-105 0 l82 -223 l21 -66 l2 0 ZM306 700 l263 0 l0 -75 l-183 0 l0 -247 l163 0 l0 -75 l-163 0 l0 -228 l180 0 l0 -75 l-272 0 l-274 700 l83 0 l73 -191 l130 0 l0 191 Z" /><glyph glyph-name="Ccedilla" unicode="Ç" d="M458 -13 l74 0 l0 -158 l-1 0 q-14 -9 -28.5 -16 q-14.5 -7 -33.5 -11.5 q-19 -4.5 -44 -7 q-25 -2.5 -59 -2.5 q-62 0 -116.5 20 q-54.5 20 -95.5 63.5 q-41 43.5 -65 112 q-24 68.5 -24 166.5 q0 94 21.5 162.5 q21.5 68.5 60.5 112.5 q39 44 92 66 q45 17 95 20 l-41 79 q86 9 86 37 q0 6 -1.5 13 q-1.5 7 -8 12.5 q-6.5 5.5 -19 9.5 q-12.5 4 -34.5 4 l-10 0 q-5 0 -11 -1 l-9 39 q12 2 23 3 q11 1 22 1 q58 0 90 -25.5 q32 -25.5 32 -64.5 q0 -31 -18.5 -49 q-18.5 -18 -60.5 -26 l18 -32 q43 -4 76 -14 q46 -16 76 -39 l-1 -2 l0 -135 l-74 0 l0 100 q-19 8 -41.5 12.5 q-22.5 4.5 -48.5 4.5 q-51 0 -92.5 -18 q-41.5 -18 -71 -54 q-29.5 -36 -46 -90 q-16.5 -54 -16.5 -126 q0 -80 18.5 -135 q18.5 -55 49 -89 q30.5 -34 70 -49 q39.5 -15 80.5 -15 q29 0 49.5 3.5 q20.5 3.5 37.5 10.5 l0 107 Z" /><glyph glyph-name="Eth" unicode="Ð" d="M9 367 l90 0 l0 333 q10 2 31.5 3 q21.5 1 46.5 2.5 q25 1.5 49 2 q24 0.5 40 0.5 q91 0 152 -30.5 q61 -30.5 97.5 -81 q36.5 -50.5 51.5 -116 q15 -65.5 15 -136.5 q0 -78 -16 -143 q-16 -65 -52.5 -111.5 q-36.5 -46.5 -95 -72.5 q-58.5 -26 -142.5 -26 q-42 0 -90.5 1.5 q-48.5 1.5 -86.5 6.5 l0 308 l-90 0 l0 60 ZM278 65 q69 0 111 25.5 q42 25.5 65.5 65.5 q23.5 40 31.5 89.5 q8 49.5 8 98.5 q0 56 -9 108.5 q-9 52.5 -33.5 93 q-24.5 40.5 -69 64.5 q-44.5 24 -114.5 24 q-5 0 -17.5 -0.5 q-12.5 -0.5 -26 -1 q-13.5 -0.5 -25.5 -1 q-12 -0.5 -17 -1.5 l0 -263 l137 0 l0 -60 l-137 0 l0 -237 q14 -3 42 -4 q28 -1 54 -1 Z" /><glyph glyph-name="multiply" unicode="×" d="M123 212 l126 125 l-128 129 l52 51 l127 -128 l127 128 l51 -52 l-126 -127 l126 -126 l-51 -53 l-127 127 l-126 -127 l-51 53 Z" /><glyph glyph-name="Oslash" unicode="Ø" d="M33 677 l52 36 l39 -56 q68 56 175 56 q138 0 212.5 -93.5 q74.5 -93.5 74.5 -268.5 q0 -79 -16 -143.5 q-16 -64.5 -49 -112.5 l51 -72 l-52 -35 l-42 60 q-34 -29 -78 -44 q-44 -15 -101 -15 q-137 0 -211 93.5 q-74 93.5 -74 268.5 q0 81 16 146 q16 65 50 113 l-47 67 ZM102 351 q0 -147 52.5 -217.5 q52.5 -70.5 144.5 -70.5 q42 0 73.5 15 q31.5 15 54.5 41 l-290 411 q-18 -38 -26.5 -83 q-8.5 -45 -8.5 -96 ZM498 351 q0 147 -53 217.5 q-53 70.5 -146 70.5 q-40 0 -71 -13.5 q-31 -13.5 -54 -38.5 l290 -411 q17 37 25.5 82 q8.5 45 8.5 93 Z" /><glyph glyph-name="Thorn" unicode="Þ" d="M91 700 l83 0 l0 -185 q5 1 20 2 q15 1 31.5 1.5 q16.5 0.5 31 0.5 q14.5 0 19.5 0 q52 0 101 -12.5 q49 -12.5 87 -40 q38 -27.5 61 -71.5 q23 -44 23 -108 q0 -65 -24.5 -107 q-24.5 -42 -63.5 -66 q-39 -24 -86.5 -33 q-47.5 -9 -93.5 -9 q-11 0 -24.5 0 q-13.5 0 -28.5 0.5 q-15 0.5 -29 1 q-14 0.5 -24 1.5 l0 -75 l-83 0 l0 700 ZM282 144 q32 0 64 7 q32 7 57.5 23.5 q25.5 16.5 41 44 q15.5 27.5 15.5 68.5 q0 48 -16.5 79 q-16.5 31 -43.5 48.5 q-27 17.5 -60.5 24 q-33.5 6.5 -67.5 6.5 q-5 0 -19 0 q-14 0 -30 -1 q-16 -1 -30 -1.5 q-14 -0.5 -19 -2.5 l0 -290 q7 -2 20 -3 q13 -1 28.5 -2 q15.5 -1 31 -1 q15.5 0 28.5 0 Z" /><glyph glyph-name="germandbls" unicode="ß" d="M399 135 q0 26 -19 43 q-19 17 -41.5 35.5 q-22.5 18.5 -41.5 42 q-19 23.5 -19 62.5 q0 38 15 60.5 q15 22.5 38 37 q23 14.5 49 24 q26 9.5 49 21.5 q23 12 38 29.5 q15 17.5 15 47.5 q0 22 -8.5 40.5 q-8.5 18.5 -23.5 31.5 q-15 13 -34.5 20.5 q-19.5 7.5 -40.5 7.5 q-19 0 -32 -1.5 q-13 -1.5 -23.5 -4.5 q-10.5 -3 -19.5 -8 q-9 -5 -21 -11 l-23 65 q13 8 26 13 q13 5 27.5 8.5 q14.5 3.5 32 5 q17.5 1.5 40.5 1.5 q43 0 77 -15 q34 -15 56.5 -39 q22.5 -24 34.5 -54.5 q12 -30.5 12 -62.5 q0 -44 -15 -71.5 q-15 -27.5 -38 -44.5 q-23 -17 -49 -27.5 q-26 -10.5 -49 -20.5 q-23 -10 -38 -23 q-15 -13 -15 -35 q0 -25 19 -42 q19 -17 41.5 -35 q22.5 -18 41.5 -41 q19 -23 19 -61 q0 -33 -13.5 -59.5 q-13.5 -26.5 -38 -46 q-24.5 -19.5 -58.5 -30 q-34 -10.5 -75 -10.5 q-84 0 -131.5 43 q-47.5 43 -47.5 140 l0 23 l-78 0 l0 70 l78 0 l0 430 l80 0 l0 -498 q0 -39 5.5 -65.5 q5.5 -26.5 17.5 -42.5 q12 -16 31.5 -23 q19.5 -7 47.5 -7 q17 0 35 5.5 q18 5.5 33 15.5 q15 10 24.5 24.5 q9.5 14.5 9.5 31.5 Z" /><glyph glyph-name="ae" unicode="æ" d="M175 441 q-38 0 -55 -25.5 q-17 -25.5 -17 -60.5 q0 -27 8.5 -43.5 q8.5 -16.5 22.5 -25 q14 -8.5 33 -11 q19 -2.5 39 -2.5 q3 0 11 0 q8 0 16.5 0.5 q8.5 0.5 16.5 1 q8 0.5 11 0.5 l0 105 q-7 26 -30.5 43.5 q-23.5 17.5 -55.5 17.5 ZM287 435 q8 19 23 33.5 q15 14.5 34 24 q19 9.5 40.5 14.5 q21.5 5 41.5 5 q38 0 73.5 -10.5 q35.5 -10.5 55.5 -27.5 l-24 -56 q-5 5 -15 10 q-10 5 -22.5 8.5 q-12.5 3.5 -25.5 6 q-13 2.5 -25 2.5 q-53 0 -85 -39 q-32 -39 -33 -135 l241 0 q3 -23 4 -50 q1 -27 1 -47 q0 -57 -13.5 -93 q-13.5 -36 -34.5 -57 q-21 -21 -46.5 -28.5 q-25.5 -7.5 -48.5 -7.5 q-15 0 -33 3.5 q-18 3.5 -35 12 q-17 8.5 -31.5 21 q-14.5 12.5 -23.5 30.5 q-5 -16 -18 -27.5 q-13 -11.5 -30 -19.5 q-17 -8 -35.5 -12 q-18.5 -4 -35.5 -4 q-37 0 -71.5 10.5 q-34.5 10.5 -59.5 32.5 l19 58 q19 -15 46 -24.5 q27 -9.5 50 -9.5 q18 0 34.5 5 q16.5 5 29 16.5 q12.5 11.5 20.5 31 q8 19.5 8 48.5 q0 11 -0.5 24 q-0.5 13 -1.5 27 q-5 0 -14.5 -0.5 q-9.5 -0.5 -20 -1 q-10.5 -0.5 -20 -0.5 q-9.5 0 -13.5 0 q-36 0 -65.5 7.5 q-29.5 7.5 -51.5 25.5 q-22 18 -34 47.5 q-12 29.5 -12 72.5 q0 66 34 106 q34 40 88 40 q51 0 83 -19 q32 -19 49 -54 l4 0 ZM428 55 q29 0 51.5 33 q22.5 33 22.5 100 l0 18 l-175 0 q1 -39 10.5 -67 q9.5 -28 23.5 -47 q14 -19 31.5 -28 q17.5 -9 35.5 -9 Z" /><glyph glyph-name="ccedilla" unicode="ç" d="M439 -24 l72 0 l0 -139 l1 -3 q-32 -16 -78.5 -29 q-46.5 -13 -120.5 -13 q-58 0 -105 17.5 q-47 17.5 -80 50.5 q-33 33 -50.5 82 q-17.5 49 -17.5 112 q0 111 58 181 q58 70 172 79 l-42 80 q86 9 86 37 q0 6 -1.5 13 q-1.5 7 -8 12.5 q-6.5 5.5 -19 9.5 q-12.5 4 -34.5 4 q-5 0 -10 0 q-5 0 -11 -1 l-9 39 q12 2 23 3 q11 1 22 1 q58 0 90 -25.5 q32 -25.5 32 -64.5 q0 -31 -18.5 -49 q-18.5 -18 -60.5 -26 l17 -32 q69 -4 119 -27.5 q50 -23.5 76 -46.5 l-35 -58 q-30 26 -74.5 42 q-44.5 16 -91.5 16 q-44 0 -80.5 -13 q-36.5 -13 -62.5 -37 q-26 -24 -40 -58.5 q-14 -34.5 -14 -78.5 q0 -100 48 -146 q48 -46 146 -46 q26 0 52.5 5.5 q26.5 5.5 49.5 13.5 l0 95 Z" /><glyph glyph-name="eth" unicode="ð" d="M266 149 l76 -41 q29 26 58 60 q29 34 46 69 q-26 -20 -64 -33 q-38 -13 -83 -13 q-60 0 -106 21 q-46 21 -76.5 56.5 q-30.5 35.5 -46 82.5 q-15.5 47 -15.5 99 q0 54 14 101.5 q14 47.5 44 83.5 q30 36 76.5 57 q46.5 21 111.5 21 q49 0 95 -17.5 q46 -17.5 81.5 -55 q35.5 -37.5 56.5 -95.5 q21 -58 21 -139 q0 -64 -15 -115 q-15 -51 -37.5 -91.5 q-22.5 -40.5 -49 -71 q-26.5 -30.5 -50.5 -53.5 l50 -27 l-26 -45 l-68 37 q-30 -21 -58 -33 q-28 -12 -46 -19 l-35 54 q38 9 76 32 l-57 31 l27 44 ZM138 451 q0 -40 10 -74.5 q10 -34.5 31 -60 q21 -25.5 52.5 -40.5 q31.5 -15 75.5 -15 q19 0 41.5 3.5 q22.5 3.5 44 11 q21.5 7.5 41.5 18.5 q20 11 34 26 q2 8 3.5 19.5 q1.5 11.5 2 24 q0.5 12.5 1 25 q0.5 12.5 0.5 22.5 q0 62 -14.5 106 q-14.5 44 -38.5 72 q-24 28 -54.5 41 q-30.5 13 -62.5 13 q-35 0 -65.5 -11.5 q-30.5 -11.5 -53 -35.5 q-22.5 -24 -35.5 -60 q-13 -36 -13 -85 Z" /><glyph glyph-name="oslash" unicode="ø" d="M57 250 q0 55 14.5 103 q14.5 48 44.5 83 q2 3 4 5 l-26 37 l52 37 l24 -34 q11 6 22 11 q46 20 108 20 q58 0 103.5 -18.5 q45.5 -18.5 76.5 -52.5 q31 -34 47 -82.5 q16 -48.5 16 -108.5 q0 -55 -14.5 -103 q-14.5 -48 -44.5 -83 l-8 -9 l24 -33 l-54 -37 l-23 31 q-7 -4 -15 -7 q-45 -21 -108 -21 q-117 0 -180 70.5 q-63 70.5 -63 191.5 ZM213 421 l215 -299 q17 26 24 58 q9 34 9 70 q0 96 -40.5 145.5 q-40.5 49.5 -120.5 49.5 q-44 0 -75 -17 l-12 -7 ZM140 250 q0 -97 40 -146 q40 -49 120 -49 q44 0 74 17 q4 2 7 4 l-212 297 q-14 -24 -21 -53 q-8 -35 -8 -70 Z" /><glyph glyph-name="thorn" unicode="þ" d="M96 700 l77 0 l0 -210 q15 6 28 10 q13 4 26.5 6.5 q13.5 2.5 30 4 q16.5 1.5 37.5 1.5 q58 0 106 -19 q48 -19 82 -54 q34 -35 52.5 -85.5 q18.5 -50.5 18.5 -113.5 q0 -134 -54 -193 q-54 -59 -161 -59 q-60 0 -101.5 25 q-41.5 25 -64.5 57 l0 -270 l-152 0 l0 65 l75 0 l0 835 ZM326 61 q78 0 111.5 46.5 q33.5 46.5 33.5 131.5 q0 101 -48 153.5 q-48 52.5 -128 52.5 q-45 0 -72.5 -8.5 q-27.5 -8.5 -49.5 -23.5 l0 -228 q3 -22 16 -44 q13 -22 33.5 -40 q20.5 -18 47 -29 q26.5 -11 56.5 -11 Z" /><glyph glyph-name="Aogonek" unicode="&#x104;" d="M496 504 q-31 15 -52 37 q-27 29 -27 70 q0 41 27 65 q27 24 72 24 q21 0 46 -6 q25 -6 40 -18 l-11 -43 q-21 10 -40 10 q-25 0 -38 -15.5 q-13 -15.5 -13 -35.5 q0 -32 20 -57 q14 -17 35 -30 l29 0 l-236 -700 l-98 0 l-234 700 l82 0 l64 -194 l269 0 l65 193 ZM293 -90 l12 0 l103 329 l-220 0 l105 -329 Z" /><glyph glyph-name="aogonek" unicode="&#x105;" d="M133 -90 q32 -13 73 -25.5 q41 -12.5 86 -12.5 q33 0 55.5 7.5 q22.5 7.5 35 25.5 q12.5 18 16 48.5 q3.5 30.5 -1.5 76.5 q-74 -11 -133.5 -8 q-59.5 3 -101.5 21 q-42 18 -64.5 52 q-22.5 34 -22.5 85 q0 66 43 104 q43 38 117 38 q38 0 66 -10 q28 -10 47.5 -23.5 q19.5 -13.5 31.5 -27.5 q12 -14 18 -23 l5 0 l9 75 l52 0 q-31 15 -51 36 q-27 29 -27 70 q0 41 27 65 q27 24 72 24 q21 0 46 -6 q25 -6 40 -18 l-11 -43 q-21 10 -40 10 q-25 0 -38 -15.5 q-13 -15.5 -13 -35.5 q0 -32 20 -57 q14 -17 35 -30 l21 0 l0 -65 l-67 0 q-6 -45 -6 -95 q1 -43 3 -86 q2 -43 2 -81 q0 -33 -6.5 -65.5 q-6.5 -32.5 -25 -58 q-18.5 -25.5 -51 -41.5 q-32.5 -16 -83.5 -16 q-52 0 -106 11 q-54 11 -97 36 l25 58 ZM255 255 q-53 0 -75.5 -24.5 q-22.5 -24.5 -22.5 -57.5 q0 -32 18 -52 q18 -20 50 -29.5 q32 -9.5 76 -9.5 q44 0 96 9 l0 70 q-6 15 -18 31.5 q-12 16.5 -30 30.5 q-18 14 -42 23 q-24 9 -52 9 Z" /><glyph glyph-name="dcroat" unicode="&#x111;" d="M522 623 q-2 -11 -4 -25.5 q-2 -14.5 -3.5 -29.5 q-1.5 -15 -2.5 -28.5 q-1 -13.5 -1 -22.5 l0 -401 l75 0 l0 -60 l-75 0 l0 -68 l-78 0 l0 68 l-165 0 l0 60 l165 0 l0 81 q-15 -4 -27.5 -7.5 q-12.5 -3.5 -26.5 -5.5 q-14 -2 -30.5 -3 q-16.5 -1 -37.5 -1 q-58 0 -105 17 q-47 17 -80.5 49.5 q-33.5 32.5 -51.5 81 q-18 48.5 -18 111.5 q0 134 53.5 197.5 q53.5 63.5 166.5 63.5 q57 0 100.5 -25.5 q43.5 -25.5 65.5 -63.5 l4 0 l10 77 l133 0 l0 -65 l-67 0 ZM289 633 q-42 0 -71 -15 q-29 -15 -46.5 -41 q-17.5 -26 -25 -61.5 q-7.5 -35.5 -7.5 -76.5 q0 -100 46 -146.5 q46 -46.5 126 -46.5 q45 0 72.5 7 q27.5 7 49.5 22 l0 232 q-13 63 -48 94.5 q-35 31.5 -96 31.5 Z" /><glyph glyph-name="Eogonek" unicode="&#x118;" d="M107 505 l336 0 q-31 15 -51 36 q-27 29 -27 70 q0 41 27 65 q27 24 72 24 q21 0 46 -6 q25 -6 40 -18 l-11 -43 q-21 10 -40 10 q-25 0 -38 -15.5 q-13 -15.5 -13 -35.5 q0 -32 20 -57 q14 -17 35 -30 l20 0 l0 -74 l-333 0 l0 -249 l303 0 l0 -74 l-303 0 l0 -229 l328 0 l0 -74 l-411 0 l0 700 Z" /><glyph glyph-name="eogonek" unicode="&#x119;" d="M498 197 q-10 9 -28.5 20 q-18.5 11 -42.5 20 q-24 9 -50.5 15.5 q-26.5 6.5 -53.5 6.5 q-81 0 -129.5 -44.5 q-48.5 -44.5 -48.5 -134.5 l387 0 q5 -85 -12 -138.5 q-17 -53.5 -48.5 -84 q-31.5 -30.5 -72.5 -41.5 q-41 -11 -83 -11 q-58 0 -105 17.5 q-47 17.5 -80 50.5 q-33 33 -50.5 82 q-17.5 49 -17.5 112 q0 60 16 108 q16 48 47 82.5 q31 34.5 77 53 q46 18.5 106 18.5 q10 0 21 -1 q-17 11 -30 25 q-27 29 -27 70 q0 41 27 65 q27 24 72 24 q21 0 46 -6 q25 -6 40 -18 l-11 -43 q-21 10 -40 10 q-25 0 -38 -15.5 q-13 -15.5 -13 -35.5 q0 -32 20 -57 q16 -20 42 -34 q7 -2 15 -5 q29 -10 53.5 -24 q24.5 -14 42.5 -30 l-31 -57 ZM318 -129 q61 0 98.5 36.5 q37.5 36.5 42.5 102.5 l-311 0 q4 -39 18.5 -65.5 q14.5 -26.5 37 -43 q22.5 -16.5 52 -23.5 q29.5 -7 62.5 -7 Z" /><glyph glyph-name="Hbar" unicode="&#x126;" d="M10 177 l79 0 l0 523 l83 0 l0 -321 l256 0 l0 321 l83 0 l0 -523 l79 0 l0 -64 l-79 0 l0 -113 l-83 0 l0 113 l-256 0 l0 -113 l-83 0 l0 113 l-79 0 l0 64 ZM172 305 l0 -128 l256 0 l0 128 l-256 0 Z" /><glyph glyph-name="hbar" unicode="&#x127;" d="M3 128 l80 0 l0 572 l77 0 l0 -318 q6 -28 21.5 -51.5 q15.5 -23.5 37 -40 q21.5 -16.5 47.5 -26 q26 -9.5 53 -9.5 q39 0 64 11 q25 11 39.5 32.5 q14.5 21.5 19.5 53.5 q5 32 5 75 l0 273 l78 0 l0 -288 q0 -67 -11 -110.5 q-11 -43.5 -33.5 -68.5 q-22.5 -25 -58 -35 q-35.5 -10 -83.5 -10 q-61 0 -102 19.5 q-41 19.5 -72 54.5 l-5 0 l0 -134 l163 0 l0 -60 l-163 0 l0 -68 l-77 0 l0 68 l-80 0 l0 60 Z" /><glyph glyph-name="Iogonek" unicode="&#x12e;" d="M60 -121 l198 0 l0 552 l-198 0 l0 74 l345 0 q-31 15 -51 36 q-27 29 -27 70 q0 41 27 65 q27 24 72 24 q21 0 46 -6 q25 -6 40 -18 l-11 -43 q-21 10 -40 10 q-25 0 -38 -15.5 q-13 -15.5 -13 -35.5 q0 -32 20 -57 q14 -17 35 -30 l75 0 l0 -74 l-199 0 l0 -552 l199 0 l0 -74 l-480 0 l0 74 Z" /><glyph glyph-name="iogonek" unicode="&#x12f;" d="M395 513 q-31 15 -51 36 q-27 29 -27 70 q0 41 27 65 q27 24 72 24 q21 0 46 -6 q25 -6 40 -18 l-11 -43 q-21 10 -40 10 q-25 0 -38 -15.5 q-13 -15.5 -13 -35.5 q0 -32 20 -57 q14 -17 35 -30 l74 0 l0 -67 l-170 0 l0 -433 l-254 0 l0 67 l174 0 l0 366 l-174 0 l0 67 l290 0 ZM252 -129 q0 26 18 44 q18 18 46 18 q29 0 48.5 -18 q19.5 -18 19.5 -44 q0 -27 -19.5 -46.5 q-19.5 -19.5 -48.5 -19.5 q-28 0 -46 19.5 q-18 19.5 -18 46.5 Z" /><glyph glyph-name="dotlessi" unicode="&#x131;" d="M529 500 l0 -67 l-170 0 l0 -433 l-254 0 l0 67 l174 0 l0 366 l-174 0 l0 67 l424 0 Z" /><glyph glyph-name="Lslash" unicode="&#x141;" d="M18 489 l72 -55 l0 266 l440 0 l0 -248 l-74 0 l0 174 l-283 0 l0 -256 l105 -81 l0 -80 l-105 83 l0 -292 l-83 0 l0 357 l-72 56 l0 76 Z" /><glyph glyph-name="lslash" unicode="&#x142;" d="M119 54 l88 0 l0 302 l-99 78 l0 76 l99 -77 l0 86 q0 51 10 85.5 q10 34.5 29.5 55.5 q19.5 21 48.5 30.5 q29 9.5 66 9.5 q17 0 37 -4 q20 -4 40 -11.5 q20 -7.5 39 -18.5 q19 -11 35 -25 l-36 -55 q-31 24 -56.5 34 q-25.5 10 -53.5 10 q-40 0 -60.5 -25 q-20.5 -25 -20.5 -86 l0 -146 l147 -115 l0 -80 l-147 117 l0 -308 l-166 0 l0 67 Z" /><glyph glyph-name="OE" unicode="&#x152;" d="M314 623 q-24 11 -43 13.5 q-19 2.5 -38 2.5 q-34 0 -57.5 -23 q-23.5 -23 -38 -62.5 q-14.5 -39.5 -21 -92 q-6.5 -52.5 -6.5 -111.5 q0 -149 30 -219 q30 -70 88 -70 q25 0 47 5 q22 5 39 16 l0 541 ZM577 700 l0 -75 l-183 0 l0 -247 l163 0 l0 -75 l-163 0 l0 -228 l180 0 l0 -75 l-260 0 q-19 -5 -38.5 -8.5 q-19.5 -3.5 -48.5 -3.5 q-95 0 -147 92.5 q-52 92.5 -52 269.5 q0 83 12 150 q12 67 37 114 q25 47 62 72.5 q37 25.5 88 25.5 q26 0 48.5 -3.5 q22.5 -3.5 38.5 -8.5 l263 0 Z" /><glyph glyph-name="oe" unicode="&#x153;" d="M116 250 q0 -100 21 -147.5 q21 -47.5 60 -47.5 q22 0 36.5 15.5 q14.5 15.5 23 42.5 q8.5 27 12 62.5 q3.5 35.5 3.5 74.5 q0 99 -17.5 147 q-17.5 48 -57.5 48 q-22 0 -37.5 -16 q-15.5 -16 -25 -42.5 q-9.5 -26.5 -14 -62 q-4.5 -35.5 -4.5 -74.5 ZM310 430 q14 36 43.5 59 q29.5 23 71.5 23 q33 0 67 -11 q34 -11 54 -33 l-24 -55 q-12 14 -34.5 23.5 q-22.5 9.5 -44.5 9.5 q-54 0 -76 -47.5 q-22 -47.5 -23 -135.5 l207 0 q3 -23 4 -48.5 q1 -25.5 1 -43.5 q0 -57 -12 -92.5 q-12 -35.5 -31 -56 q-19 -20.5 -42.5 -27.5 q-23.5 -7 -47.5 -7 q-41 0 -69 23 q-28 23 -44 58 q-16 -40 -43.5 -60.5 q-27.5 -20.5 -69.5 -20.5 q-72 0 -113 67 q-41 67 -41 195 q0 132 39 197 q39 65 114 65 q39 0 67.5 -19 q28.5 -19 46.5 -63 ZM423 54 q65 0 65 148 l-143 0 q7 -148 78 -148 Z" /><glyph glyph-name="Scedilla" unicode="&#x15e;" d="M150 294 l-74 0 l0 162 l-1 3 q13 7 35.5 17 q22.5 10 51 19 q28.5 9 62.5 15 q24 4 51 5 l-42 79 q86 9 86 37 q0 6 -1.5 13 q-1.5 7 -8 12.5 q-6.5 5.5 -19 9.5 q-12.5 4 -34.5 4 l-10 0 q-5 0 -11 -1 l-9 39 q12 2 23 3 q11 1 22 1 q58 0 90 -25.5 q32 -25.5 32 -64.5 q0 -31 -18.5 -49 q-18.5 -18 -60.5 -26 l18 -33 q35 -3 64 -12 q45 -14 75.5 -40 q30.5 -26 47 -62 q16.5 -36 16.5 -81 q0 -55 -27.5 -92 q-27.5 -37 -68.5 -63.5 q-41 -26.5 -89 -46.5 q-48 -20 -89 -40.5 q-41 -20.5 -68.5 -46.5 q-27.5 -26 -27.5 -65 q0 -20 10 -38 q10 -18 28.5 -31.5 q18.5 -13.5 45 -21.5 q26.5 -8 59.5 -8 q34 0 64 4 q30 4 55 10 l0 107 l74 0 l0 -160 l1 -3 l-1 0 l0 -2 l-2 1 q-29 -14 -78 -22.5 q-49 -8.5 -109 -8.5 q-52 0 -94.5 12.5 q-42.5 12.5 -72.5 35.5 q-30 23 -46.5 56 q-16.5 33 -16.5 74 q0 58 27.5 95.5 q27.5 37.5 68.5 63.5 q41 26 89 45 q48 19 89 39 q41 20 68.5 46 q27.5 26 27.5 67 q0 30 -12.5 52 q-12.5 22 -34 36.5 q-21.5 14.5 -50.5 21 q-29 6.5 -62 6.5 q-38 0 -75.5 -10.5 q-37.5 -10.5 -67.5 -26.5 l0 -111 Z" /><glyph glyph-name="scedilla" unicode="&#x15f;" d="M438 169 q0 22 -10.5 37.5 q-10.5 15.5 -28.5 25 q-18 9.5 -41.5 14 q-23.5 4.5 -50.5 4.5 q-28 0 -55.5 -6 q-27.5 -6 -51.5 -16 q-24 -10 -44 -22.5 q-20 -12.5 -32 -24.5 l-40 65 q15 13 38 25.5 q23 12.5 51 22.5 q28 10 60 16 q21 4 42 5 l-42 79 q86 9 86 37 q0 6 -1.5 13 q-1.5 7 -8 12.5 q-6.5 5.5 -19 9.5 q-12.5 4 -34.5 4 l-10 0 q-5 0 -11 -1 l-9 39 q12 2 23 3 q11 1 22 1 q58 0 90 -25.5 q32 -25.5 32 -64.5 q0 -31 -18.5 -49 q-18.5 -18 -60.5 -26 l18 -32 q84 -7 129 -44 q55 -45 55 -114 q0 -46 -25 -73 q-25 -27 -62 -43 q-37 -16 -80.5 -24.5 q-43.5 -8.5 -80.5 -18 q-37 -9.5 -62 -23.5 q-25 -14 -25 -40 q0 -21 10.5 -35.5 q10.5 -14.5 28 -23.5 q17.5 -9 39 -13.5 q21.5 -4.5 43.5 -4.5 q58 0 96.5 16.5 q38.5 16.5 71.5 34.5 l32 -63 q-30 -19 -80.5 -36.5 q-50.5 -17.5 -120.5 -17.5 q-39 0 -75 8.5 q-36 8.5 -63 26 q-27 17.5 -43.5 44.5 q-16.5 27 -16.5 65 q0 46 25 71.5 q25 25.5 62 40.5 q37 15 80.5 24 q43.5 9 80.5 19.5 q37 10.5 62 28 q25 17.5 25 49.5 Z" /><glyph glyph-name="Tcedilla" unicode="&#x162;" d="M451 492 l0 -74 l-110 0 l0 -552 l145 0 l0 109 l74 0 l0 -183 l-520 0 l0 183 l74 0 l0 -109 l144 0 l0 552 l-110 0 l0 74 l123 0 l-48 90 q86 9 86 37 q0 6 -1.5 13 q-1.5 7 -8 12.5 q-6.5 5.5 -19 9.5 q-12.5 4 -34.5 4 l-10 0 q-5 0 -11 -1 l-9 39 q12 2 23 3 q11 1 22 1 q58 0 90 -25.5 q32 -25.5 32 -64.5 q0 -31 -18.5 -49 q-18.5 -18 -60.5 -26 l24 -43 l123 0 Z" /><glyph glyph-name="tcedilla" unicode="&#x163;" d="M31 -20 l119 0 l0 248 q0 52 16 89.5 q16 37.5 43 61.5 q27 24 62 35 q8 3 17 5 l-45 84 q86 9 86 37 q0 6 -1.5 13 q-1.5 7 -8 12.5 q-6.5 5.5 -19 9.5 q-12.5 4 -34.5 4 l-10 0 q-5 0 -11 -1 l-9 39 q12 2 23 3 q11 1 22 1 q58 0 90 -25.5 q32 -25.5 32 -64.5 q0 -31 -18.5 -49 q-18.5 -18 -60.5 -26 l16 -30 l7 0 q51 0 99.5 -17 q48.5 -17 83.5 -45 l-26 -59 q-27 20 -60.5 37 q-33.5 17 -78.5 17 q-66 0 -101.5 -35 q-35.5 -35 -35.5 -108 l0 -236 l267 0 l0 -67 l-267 0 l0 -121 l-78 22 l0 99 l-119 0 l0 67 Z" /><glyph glyph-name="Uogonek" unicode="&#x172;" d="M460 249 q0 102 -34.5 146.5 q-34.5 44.5 -115.5 44.5 q-42 0 -73.5 -10 q-31.5 -10 -52 -32.5 q-20.5 -22.5 -31 -59 q-10.5 -36.5 -10.5 -89.5 l0 -444 l-83 0 l0 483 q0 114 62.5 170 q62.5 56 186.5 56 l9 0 q-20 12 -34 27 q-27 29 -27 70 q0 41 27 65 q27 24 72 24 q21 0 46 -6 q25 -6 40 -18 l-11 -43 q-21 10 -40 10 q-25 0 -38 -15.5 q-13 -15.5 -13 -35.5 q0 -32 20 -57 q17 -20 44 -35 q43 -14 73 -43.5 q30 -29.5 46.5 -75.5 q16.5 -46 16.5 -109 l0 -467 l-80 0 l0 444 Z" /><glyph glyph-name="uogonek" unicode="&#x173;" d="M363 -128 l64 0 l0 259 q-20 51 -58.5 85 q-38.5 34 -90.5 34 q-36 0 -57.5 -11.5 q-21.5 -11.5 -32.5 -34 q-11 -22.5 -14.5 -55 q-3.5 -32.5 -3.5 -73.5 l0 -271 l-145 0 l0 67 l67 0 l0 220 q0 65 10 108.5 q10 43.5 31 69.5 q21 26 53.5 36.5 q32.5 10.5 78.5 10.5 q61 0 104 -27 q43 -27 69 -70 l4 0 l3 85 l52 0 q-31 15 -51 36 q-27 29 -27 70 q0 41 27 65 q27 24 72 24 q21 0 46 -6 q25 -6 40 -18 l-11 -43 q-21 10 -40 10 q-25 0 -38 -15.5 q-13 -15.5 -13 -35.5 q0 -32 20 -57 q14 -17 35 -30 l21 0 l0 -65 l-67 0 q-6 -45 -6 -94 l0 -341 l-142 0 l0 67 Z" /><glyph glyph-name="longs" unicode="&#x17f;" d="M95 276 l118 0 l0 430 l80 0 l0 -529 q0 -53 26 -80 q26 -27 75 -27 q46 0 76 11.5 q30 11.5 56 23.5 l29 -66 q-30 -18 -71.5 -28.5 q-41.5 -10.5 -86.5 -10.5 q-88 0 -136 42 q-48 42 -48 136 l0 28 l-118 0 l0 70 Z" /><glyph glyph-name="florin" unicode="&#x192;" d="M502 74 l0 -70 l-120 0 l7 -41 q4 -28 9.5 -47 q5.5 -19 13.5 -31 q8 -12 20 -17.5 q12 -5.5 31 -5.5 q47 0 92 19 l23 -64 q-25 -11 -56.5 -18 q-31.5 -7 -64.5 -7 q-72 0 -103.5 35.5 q-31.5 35.5 -43.5 109.5 l-11 67 l-96 0 l0 70 l85 0 l-68 422 q-13 79 -32.5 112.5 q-19.5 33.5 -57.5 33.5 q-24 0 -44.5 -4.5 q-20.5 -4.5 -43.5 -14.5 l-21 65 q24 10 55 17 q31 7 60 7 q37 0 64 -13.5 q27 -13.5 45.5 -37 q18.5 -23.5 29.5 -55 q11 -31.5 17 -68.5 l79 -464 l131 0 Z" /><glyph glyph-name="uni0237" unicode="&#x237;" d="M336 285 q0 66 -25.5 103.5 q-25.5 37.5 -85.5 37.5 q-37 0 -71.5 -15 q-34.5 -15 -61.5 -35 l-33 65 q8 6 24.5 16 q16.5 10 38.5 19.5 q22 9.5 47.5 16.5 q25.5 7 52.5 7 q91 0 142.5 -49.5 q51.5 -49.5 51.5 -150.5 l0 -512 l-322 0 l0 67 l242 0 l0 430 Z" /><glyph glyph-name="circumflex" unicode="&#x2c6;" d="M144 732 l70 0 l86 -109 l81 109 l78 0 l-135 -182 l-37 0 l-143 182 Z" /><glyph glyph-name="caron" unicode="&#x2c7;" d="M457 550 l-70 0 l-86 109 l-81 -109 l-78 0 l135 182 l37 0 l143 -182 Z" /><glyph glyph-name="breve" unicode="&#x2d8;" d="M147 596 q7 29 22 51.5 q15 22.5 35.5 39 q20.5 16.5 45.5 25 q25 8.5 53 8.5 q30 0 56 -11 q26 -11 45.5 -29 q19.5 -18 32 -41.5 q12.5 -23.5 15.5 -47.5 l-42 -18 q-17 37 -44.5 57 q-27.5 20 -61.5 20 q-34 0 -64 -20.5 q-30 -20.5 -48 -56.5 l-45 23 Z" /><glyph glyph-name="dotaccent" unicode="&#x2d9;" d="M234 646 q0 26 18 44 q18 18 46 18 q29 0 48.5 -18 q19.5 -18 19.5 -44 q0 -27 -19.5 -46.5 q-19.5 -19.5 -48.5 -19.5 q-28 0 -46 19.5 q-18 19.5 -18 46.5 Z" /><glyph glyph-name="ring" unicode="&#x2da;" d="M202 644 q0 43 27.5 66.5 q27.5 23.5 69.5 23.5 q42 0 70 -25.5 q28 -25.5 28 -64.5 q0 -47 -28 -69 q-28 -22 -70 -22 q-44 0 -70.5 24.5 q-26.5 24.5 -26.5 66.5 ZM256 644 q0 -23 13 -33 q13 -10 30 -10 q17 0 30.5 10.5 q13.5 10.5 13.5 32.5 q0 22 -12.5 32 q-12.5 10 -31.5 10 q-17 0 -30 -11 q-13 -11 -13 -31 Z" /><glyph glyph-name="ogonek" unicode="&#x2db;" d="M310 -195 q-48 17 -75.5 46 q-27.5 29 -27.5 70 q0 41 27 65 q27 24 72 24 q21 0 46 -6 q25 -6 40 -18 l-11 -43 q-21 10 -40 10 q-25 0 -38 -15.5 q-13 -15.5 -13 -35.5 q0 -32 20 -56.5 q20 -24.5 55 -40.5 l-55 0 Z" /><glyph glyph-name="tilde" unicode="&#x2dc;" d="M183 704.91 q17 -17 30.5 -24 q13.5 -7 26.5 -7 q14 0 27.5 6 q13.5 6 27 13.5 q13.5 7.5 27.5 14 q14 6.5 30 6.5 q27 1 49.5 -9.5 q22.5 -10.5 48.5 -39.5 l-35 -44 q-24 24 -46 24 q-14 0 -26.5 -6 q-12.5 -6 -26 -13.5 q-13.5 -7.5 -28 -14 q-14.5 -6.5 -31.5 -6.5 q-20 0 -51 13.5 q-31 13.5 -60 46.5 l37 40 Z" /><glyph glyph-name="hungarumlaut" unicode="&#x2dd;" d="M166 720 l42 0 l79 -149 l-86 0 l-35 149 ZM274 720 l45 0 l131 -149 l-103 0 l-73 149 Z" /><glyph glyph-name="uni0394" unicode="&#x2206;&#x394;" d="M572 711 l0 -37 l-256 -674 l-34 0 l-254 674 l0 37 l544 0 ZM294 168 l1 0 l180 471 l-355 0 l174 -471 Z" /><glyph glyph-name="uni03A9" unicode="&#x2126;&#x3a9;" d="M25 712 l236 0 l0 -125 q-33 -5 -60.5 -21 q-27.5 -16 -47 -46 q-19.5 -30 -30 -74.5 q-10.5 -44.5 -10.5 -107.5 q0 -65 8 -114.5 q8 -49.5 28.5 -82.5 q20.5 -33 56.5 -50 q36 -17 92 -17 q63 0 100.5 23 q37.5 23 57 60 q19.5 37 25.5 83.5 q6 46.5 6 94.5 q0 64 -12 109.5 q-12 45.5 -32.5 75 q-20.5 29.5 -47.5 45.5 q-27 16 -57 22 l0 125 l237 0 l0 -70 l-162 0 l0 -16 q38 -13 68 -39.5 q30 -26.5 51 -63 q21 -36.5 32 -83 q11 -46.5 11 -100.5 q0 -75 -14 -137.5 q-14 -62.5 -46 -107.5 q-32 -45 -85 -70 q-53 -25 -131 -25 q-74 0 -126 23.5 q-52 23.5 -85 67 q-33 43.5 -48 105.5 q-15 62 -15 140 q0 52 9 99.5 q9 47.5 28.5 86.5 q19.5 39 49.5 66.5 q30 27.5 73 37.5 l0 16 l-160 0 l0 70 Z" /><glyph glyph-name="pi" unicode="&#x3c0;" d="M491 66 l83 0 l0 -70 l-433 0 q-53 0 -81 22.5 q-28 22.5 -47 60.5 l53 32 q14 -22 27 -33.5 q13 -11.5 34 -11.5 l14 0 l0 430 l80 0 l0 -430 l190 0 l0 324 q0 52 16 81 q16 29 66 29 q30 0 53.5 -7.5 q23.5 -7.5 39.5 -14.5 l-19 -54 q-9 2 -21.5 4 q-12.5 2 -22.5 2 q-14 0 -23 -11 q-9 -11 -9 -39 l0 -314 Z" /><glyph glyph-name="afii10051" unicode="&#x402;" d="M274 350 q11 -5 39.5 -13.5 q28.5 -8.5 63.5 -8.5 q24 0 46.5 6.5 q22.5 6.5 39 23 q16.5 16.5 26.5 44.5 q10 28 10 70 q0 78 -23.5 117 q-23.5 39 -78.5 39 q-29 0 -44.5 -0.5 q-15.5 -0.5 -28.5 -2.5 l0 72 q8 2 22.5 2.5 q14.5 0.5 47.5 0.5 q97 0 145 -56.5 q48 -56.5 48 -177.5 q0 -62 -16.5 -102.5 q-16.5 -40.5 -43 -64.5 q-26.5 -24 -59.5 -33.5 q-33 -9.5 -65 -9.5 q-56 0 -86.5 8.5 q-30.5 8.5 -42.5 12.5 l0 -211 l198 0 l0 -74 l-449 0 l0 74 l168 0 l0 626 l83 0 l0 -342 Z" /><glyph glyph-name="afii10053" unicode="&#x404;" d="M458 183 l74 0 l0 -158 l-1 0 q-14 -9 -28.5 -16 q-14.5 -7 -33.5 -11.5 q-19 -4.5 -44 -7 q-25 -2.5 -59 -2.5 q-62 0 -118.5 20 q-56.5 20 -99 63.5 q-42.5 43.5 -68 112 q-25.5 68.5 -25.5 166.5 q0 94 23.5 162.5 q23.5 68.5 64 112.5 q40.5 44 95.5 65.5 q55 21.5 118 21.5 q66 0 112 -15.5 q46 -15.5 76 -38.5 l-1 -2 l0 -135 l-74 0 l0 100 q-19 8 -41.5 12.5 q-22.5 4.5 -48.5 4.5 q-48 0 -90 -16.5 q-42 -16.5 -73 -49 q-31 -32.5 -50.5 -81.5 q-19.5 -49 -22.5 -115 l308 0 l0 -74 l-306 0 q6 -66 27.5 -112 q21.5 -46 53 -74.5 q31.5 -28.5 69.5 -41 q38 -12.5 76 -12.5 q29 0 49.5 3.5 q20.5 3.5 37.5 10.5 l0 107 Z" /><glyph glyph-name="afii10058" unicode="&#x409;" d="M297 687 q14 4 31 6.5 q17 2.5 33 4 q16 1.5 30 2 q14 0.5 23 0.5 q93 0 138.5 -56.5 q45.5 -56.5 45.5 -178.5 q0 -62 -13 -102.5 q-13 -40.5 -35 -64.5 q-22 -24 -52 -33.5 q-30 -9.5 -64 -9.5 q-15 0 -30 2.5 q-15 2.5 -27 6.5 l0 -272 l-266 0 q-2 128 -5.5 224.5 q-3.5 96.5 -9.5 166.5 q-6 70 -13.5 116.5 q-7.5 46.5 -16.5 73.5 q-9 29 -19 36 q-10 7 -23 7 q-7 0 -14 -3 l-9 74 q20 10 43 10 q29 0 55 -22 q26 -22 40 -70 q23 -72 33 -205.5 q10 -133.5 16 -333.5 l109 0 l0 621 ZM420 626 q-25 0 -43 -6 l0 -282 q6 -3 19 -6 q13 -3 24 -3 q24 0 42 6 q18 6 30 22 q12 16 18 44 q6 28 6 71 q0 83 -21.5 118.5 q-21.5 35.5 -74.5 35.5 Z" /><glyph glyph-name="afii10059" unicode="&#x40a;" d="M273 686 q14 4 32.5 7 q18.5 3 37 4.5 q18.5 1.5 34.5 2 q16 0.5 25 0.5 q88 0 135 -51.5 q47 -51.5 47 -172.5 q0 -61 -13 -99.5 q-13 -38.5 -36 -60.5 q-23 -22 -54 -30 q-31 -8 -66 -8 q-5 0 -14 1 q-9 1 -18.5 2.5 q-9.5 1.5 -18 3 q-8.5 1.5 -11.5 2.5 l0 -295 l-80 0 l0 295 l-177 0 l0 -295 l-80 0 l0 700 l80 0 l0 -331 l177 0 l0 325 ZM409 626 q-14 0 -30.5 -1 q-16.5 -1 -25.5 -5 l0 -259 q3 -1 10 -3 q7 -2 15.5 -3 q8.5 -1 16.5 -2 q8 -1 14 -1 q22 0 39.5 4.5 q17.5 4.5 29.5 18.5 q12 14 18 40 q6 26 6 68 q0 78 -21.5 110.5 q-21.5 32.5 -71.5 32.5 Z" /><glyph glyph-name="afii10060" unicode="&#x40b;" d="M269 380 q26 -21 57 -33.5 q31 -12.5 79 -12.5 q31 0 49.5 8.5 q18.5 8.5 28.5 25.5 q10 17 13 42.5 q3 25.5 3 60.5 l0 229 l83 0 l0 -244 q0 -56 -9.5 -94 q-9.5 -38 -29 -60.5 q-19.5 -22.5 -50 -32 q-30.5 -9.5 -72.5 -9.5 q-28 0 -50 4 q-22 4 -40 11 q-18 7 -33.5 15 q-15.5 8 -28.5 15 l0 -231 l198 0 l0 -74 l-449 0 l0 74 l168 0 l0 626 l83 0 l0 -320 Z" /><glyph glyph-name="afii10145" unicode="&#x40f;" d="M266 519 l0 181 l70 0 l0 -181 l188 0 l0 -700 l-83 0 l0 626 l-283 0 l0 -626 l-83 0 l0 700 l191 0 Z" /><glyph glyph-name="afii10018" unicode="&#x411;" d="M108 685 q19 5 41.5 7.5 q22.5 2.5 46 4.5 q23.5 2 45 2.5 q21.5 0.5 38.5 0.5 q51 0 97.5 -13.5 q46.5 -13.5 81.5 -41 q35 -27.5 56 -71 q21 -43.5 21 -103.5 q0 -60 -20.5 -99.5 q-20.5 -39.5 -55.5 -62.5 q-35 -23 -81 -32.5 q-46 -9.5 -97 -9.5 q-23 0 -48 3 q-25 3 -42 6 l0 -210 l297 0 l0 -74 l-380 0 l0 693 ZM289 628 q-13 0 -27 0 q-14 0 -27.5 -1 q-13.5 -1 -25 -2 q-11.5 -1 -18.5 -3 l0 -275 q5 -1 15 -2.5 q10 -1.5 22 -2.5 q12 -1 24 -2 q12 -1 21 -1 q34 0 65.5 5.5 q31.5 5.5 55.5 21 q24 15.5 38.5 44.5 q14.5 29 14.5 75 q0 36 -12.5 63 q-12.5 27 -34 45 q-21.5 18 -50.5 26.5 q-29 8.5 -61 8.5 Z" /><glyph glyph-name="afii10020" unicode="&#x413;" d="M70 74 l96 0 l0 552 l-96 0 l0 74 l336 0 l0 -74 l-157 0 l0 -552 l227 0 l0 109 l74 0 l0 -183 l-480 0 l0 74 Z" /><glyph glyph-name="afii10021" unicode="&#x414;" d="M584 485 l-75 0 l0 -626 l-344 0 q0 156 -13 269 q-13 113 -28.5 188 q-15.5 75 -30 116 q-14.5 41 -18.5 53 l-67 0 l0 215 l70 0 l0 -141 l436 0 l0 141 l70 0 l0 -215 ZM163 485 q9 -32 21.5 -81 q12.5 -49 24.5 -117 q12 -68 21.5 -156 q9.5 -88 12.5 -198 l183 0 l0 552 l-263 0 Z" /><glyph glyph-name="afii10024" unicode="&#x416;" d="M259 314 l-59 0 l-95 -314 l-87 0 l113 347 l-131 353 l86 0 l118 -324 l55 0 l0 324 l80 0 l0 -324 l52 0 l117 324 l92 0 l-140 -358 l121 -342 l-82 0 l-110 314 l-50 0 l0 -314 l-80 0 l0 314 Z" /><glyph glyph-name="afii10025" unicode="&#x417;" d="M80 675 l0 1 q28 11 76 23.5 q48 12.5 117 12.5 q48 0 94 -12.5 q46 -12.5 82.5 -39.5 q36.5 -27 58.5 -68.5 q22 -41.5 22 -98.5 q0 -72 -40.5 -115 q-40.5 -43 -111.5 -53 l0 -4 q66 -20 98.5 -65.5 q32.5 -45.5 32.5 -95.5 q0 -49 -18.5 -82.5 q-18.5 -33.5 -50 -53 q-31.5 -19.5 -72.5 -28 q-41 -8.5 -86 -8.5 q-34 0 -65 3 q-31 3 -57 8 q-26 5 -45 11 q-19 6 -29 12 l0 1 l0 148 l74 0 l0 -99 q23 -6 51 -10 q28 -4 57 -4 q34 0 62 6.5 q28 6.5 48 20.5 q20 14 31.5 36.5 q11.5 22.5 11.5 55.5 q0 24 -10 45 q-10 21 -27.5 37 q-17.5 16 -40.5 26.5 q-23 10.5 -49 13.5 l-69 0 l0 70 l60 0 q71 5 114 35.5 q43 30.5 43 93.5 q0 72 -46.5 108 q-46.5 36 -122.5 36 q-35 0 -65 -6 q-30 -6 -54 -14 l0 -105 l-74 0 l0 158 Z" /><glyph glyph-name="afii10026" unicode="&#x418;" d="M457 700 l83 0 l0 -700 l-79 0 l-260 457 l-57 112 l-6 0 l5 -99 l0 -470 l-83 0 l0 700 l79 0 l260 -452 l58 -112 l6 0 l-6 100 l0 464 Z" /><glyph glyph-name="afii10029" unicode="&#x41b;" d="M441 695 l83 0 l0 -700 l-350 0 q-3 128 -9 223.5 q-6 95.5 -15.5 164.5 q-9.5 69 -22 114 q-12.5 45 -26.5 72 q-16 30 -32.5 41 q-16.5 11 -33.5 11 q-11 0 -21 -3 l-11 72 q12 5 25 7.5 q13 2.5 31 2.5 q35 0 65 -22 q30 -22 52 -70 q33 -74 49.5 -206.5 q16.5 -132.5 26.5 -332.5 l189 0 l0 626 Z" /><glyph glyph-name="afii10033" unicode="&#x41f;" d="M447 700 l83 0 l0 -700 l-460 0 l0 700 l83 0 l0 -626 l294 0 l0 626 Z" /><glyph glyph-name="afii10037" unicode="&#x423;" d="M126 -5 l-96 0 l216 489 l90 1 q-17 75 -43 108 q-26 33 -54 33 q-14 0 -31 -3 q-17 -3 -37 -14 l-25 69 q17 11 36.5 16.5 q19.5 5.5 52.5 5.5 q35 0 62 -13 q27 -13 49.5 -42.5 q22.5 -29.5 42 -77.5 q19.5 -48 39.5 -117 l142 -455 l-85 0 l-122 416 l-64 0 l-173 -416 Z" /><glyph glyph-name="afii10038" unicode="&#x424;" d="M258 720 l83 0 l0 -85 q44 0 86.5 -14 q42.5 -14 76 -48 q33.5 -34 54 -91 q20.5 -57 20.5 -142 q0 -87 -21 -142.5 q-21 -55.5 -55 -88 q-34 -32.5 -76 -45 q-42 -12.5 -85 -12.5 l0 -72 l-83 0 l0 72 q-48 0 -91 16 q-43 16 -75 51.5 q-32 35.5 -51 92.5 q-19 57 -19 138 q0 90 20.5 146 q20.5 56 53.5 86.5 q33 30.5 75.5 41.5 q42.5 11 86.5 11 l0 85 ZM495 340 q0 66 -11 109.5 q-11 43.5 -31 69.5 q-20 26 -49.5 36.5 q-29.5 10.5 -65.5 10.5 l0 -444 q36 0 65 12.5 q29 12.5 49.5 38.5 q20.5 26 31.5 67.5 q11 41.5 11 99.5 ZM105 350 q0 -66 11.5 -110 q11.5 -44 32 -70.5 q20.5 -26.5 49 -37 q28.5 -10.5 62.5 -10.5 l0 444 q-39 0 -68.5 -11.5 q-29.5 -11.5 -48.5 -37 q-19 -25.5 -28.5 -66.5 q-9.5 -41 -9.5 -101 Z" /><glyph glyph-name="afii10040" unicode="&#x426;" d="M594 485 l-83 0 l0 -626 l-83 0 l0 626 l-275 0 l0 -626 l-83 0 l0 700 l454 0 l0 141 l70 0 l0 -215 Z" /><glyph glyph-name="afii10041" unicode="&#x427;" d="M82 0 l0 247 q0 56 14 94 q14 38 39 60.5 q25 22.5 60 32 q35 9.5 77 9.5 q57 0 101 -15 q44 -15 71 -30 l0 302 l83 0 l0 -700 l-83 0 l0 323 q-26 21 -67 33.5 q-41 12.5 -88 12.5 q-124 0 -124 -137 l0 -232 l-83 0 Z" /><glyph glyph-name="afii10042" unicode="&#x428;" d="M549 700 l0 -700 l-78 0 l0 626 l-132 0 l0 -626 l-78 0 l0 626 l-132 0 l0 -626 l-78 0 l0 700 l498 0 Z" /><glyph glyph-name="afii10043" unicode="&#x429;" d="M530 559 l0 141 l70 0 l0 -215 l-61 0 l0 -626 l-78 0 l0 626 l-132 0 l0 -626 l-78 0 l0 626 l-131 0 l0 -626 l-78 0 l0 700 l488 0 Z" /><glyph glyph-name="afii10044" unicode="&#x42a;" d="M161 685 q19 5 42 8 q23 3 44 4.5 q21 1.5 38.5 2 q17.5 0.5 26.5 0.5 q63 0 110.5 -17 q47.5 -17 80 -47.5 q32.5 -30.5 49 -73.5 q16.5 -43 16.5 -96 q0 -54 -17.5 -94 q-17.5 -40 -49.5 -65.5 q-32 -25.5 -77 -38 q-45 -12.5 -100 -12.5 q-23 0 -46 3 q-23 3 -34 5 l0 -272 l-223 0 l0 74 l140 0 l0 619 ZM322 628 q-8 0 -18.5 -0.5 q-10.5 -0.5 -21.5 -1 q-11 -0.5 -21 -1.5 q-10 -1 -17 -3 l0 -285 q10 -3 30.5 -6 q20.5 -3 43.5 -3 q79 0 120.5 37 q41.5 37 41.5 107 q0 72 -38 114 q-38 42 -120 42 Z" /><glyph glyph-name="afii10045" unicode="&#x42b;" d="M467 692 l83 0 l0 -700 l-83 0 l0 700 ZM50 687 q13 4 30.5 6.5 q17.5 2.5 35.5 4 q18 1.5 35 2 q17 0.5 30 0.5 q49 0 90 -13.5 q41 -13.5 70 -42.5 q29 -29 45 -73 q16 -44 16 -106 q0 -64 -18 -106.5 q-18 -42.5 -47 -67.5 q-29 -25 -65 -35 q-36 -10 -73 -10 q-23 0 -41 3.5 q-18 3.5 -25 5.5 l0 -263 l-83 0 l0 695 ZM187 626 q-16 0 -31 -1.5 q-15 -1.5 -23 -5.5 l0 -290 q6 -4 23 -6.5 q17 -2.5 34 -2.5 q26 0 49.5 6.5 q23.5 6.5 41 24 q17.5 17.5 28 47 q10.5 29.5 10.5 74.5 q0 42 -9.5 71 q-9.5 29 -27 47.5 q-17.5 18.5 -42 27 q-24.5 8.5 -53.5 8.5 Z" /><glyph glyph-name="afii10046" unicode="&#x42c;" d="M118 685 q19 5 41.5 8 q22.5 3 45 4.5 q22.5 1.5 42.5 2 q20 0.5 34 0.5 q58 0 107.5 -14 q49.5 -14 86.5 -43 q37 -29 58 -73 q21 -44 21 -104 q0 -62 -22 -102.5 q-22 -40.5 -57.5 -64.5 q-35.5 -24 -81 -33.5 q-45.5 -9.5 -93.5 -9.5 q-12 0 -27 1 q-15 1 -29 2 q-14 1 -26 2.5 q-12 1.5 -17 2.5 l0 -272 l-83 0 l0 693 ZM292 628 q-25 0 -51 -1.5 q-26 -1.5 -40 -4.5 l0 -285 q5 -1 16 -3 q11 -2 24 -3 q13 -1 26 -2 q13 -1 22 -1 q34 0 66 6.5 q32 6.5 56.5 23 q24.5 16.5 39.5 44.5 q15 28 15 70 q0 39 -13.5 68.5 q-13.5 29.5 -37.5 49 q-24 19.5 -55.5 29 q-31.5 9.5 -67.5 9.5 Z" /><glyph glyph-name="afii10047" unicode="&#x42d;" d="M76 175 l74 0 l0 -105 q19 -5 41 -8.5 q22 -3.5 48 -3.5 q46 0 84.5 14.5 q38.5 14.5 67.5 44.5 q29 30 46 76.5 q17 46.5 19 111.5 l-247 0 l0 74 l248 0 q0 73 -18.5 123 q-18.5 50 -48.5 81 q-30 31 -68 45 q-38 14 -77 14 q-34 0 -61.5 -6.5 q-27.5 -6.5 -49.5 -14.5 l0 -100 l-74 0 l0 148 q10 6 28.5 13.5 q18.5 7.5 41 14 q22.5 6.5 48 11 q25.5 4.5 50.5 4.5 q64 0 121 -19.5 q57 -19.5 99.5 -63 q42.5 -43.5 67 -112.5 q24.5 -69 24.5 -167 q0 -97 -21.5 -166 q-21.5 -69 -60 -112.5 q-38.5 -43.5 -92 -63.5 q-53.5 -20 -117.5 -20 q-52 0 -97.5 10.5 q-45.5 10.5 -76.5 28.5 l1 3 l0 145 Z" /><glyph glyph-name="afii10048" unicode="&#x42e;" d="M118 0 l-83 0 l0 700 l83 0 l0 -322 l82 0 q1 78 11.5 139.5 q10.5 61.5 32.5 105 q22 43.5 55 66.5 q33 23 80 23 q102 0 149.5 -91.5 q47.5 -91.5 47.5 -270.5 q0 -84 -10 -151 q-10 -67 -32.5 -114 q-22.5 -47 -58 -72 q-35.5 -25 -86.5 -25 q-48 0 -83 23.5 q-35 23.5 -57.5 65.5 q-22.5 42 -34 100 q-11.5 58 -13.5 128 l-83 0 l0 -305 ZM284 350 q0 -67 5 -120.5 q5 -53.5 16.5 -90.5 q11.5 -37 30.5 -57 q19 -20 47 -20 q34 0 55.5 22.5 q21.5 22.5 33.5 61.5 q12 39 16.5 91.5 q4.5 52.5 4.5 112.5 q0 152 -24 220 q-24 68 -83 68 q-48 0 -75 -74 q-27 -74 -27 -214 Z" /><glyph glyph-name="afii10049" unicode="&#x42f;" d="M500 15 q-37 -9 -75.5 -12 q-38.5 -3 -72.5 -3 q-53 0 -100.5 10.5 q-47.5 10.5 -83 35 q-35.5 24.5 -56 65 q-20.5 40.5 -20.5 101.5 q0 44 11.5 76.5 q11.5 32.5 31.5 56.5 q20 24 46 39 q26 15 55 22 l-194 302 l98 0 l174 -289 l103 0 l0 289 l83 0 l0 -693 ZM348 72 q25 0 40 1.5 q15 1.5 29 4.5 l0 277 l-68 0 q-35 0 -65.5 -8 q-30.5 -8 -53.5 -25.5 q-23 -17.5 -36.5 -44.5 q-13.5 -27 -13.5 -65 q0 -41 14 -68 q14 -27 37.5 -43 q23.5 -16 53.5 -22.5 q30 -6.5 63 -6.5 Z" /><glyph glyph-name="afii10066" unicode="&#x431;" d="M130 304 q5 -69 20.5 -109.5 q15.5 -40.5 42 -62 q26.5 -21.5 64.5 -28.5 q38 -7 87 -10 q35 -2 60.5 -5 q25.5 -3 44.5 -7 q19 -4 32 -10 q13 -6 24 -15 l-12 -69 q-20 17 -51 24 q-31 7 -89 11 q-45 4 -84 10 q-39 6 -72 20.5 q-33 14.5 -59 39.5 q-26 25 -44 67 q-18 42 -27.5 103 q-9.5 61 -9.5 147 q0 315 243 315 q115 0 179 -70.5 q64 -70.5 64 -202.5 q0 -114 -55 -176 q-55 -62 -158 -62 q-68 0 -113.5 20 q-45.5 20 -83.5 70 l-3 0 ZM140 464 q0 -90 42 -136.5 q42 -46.5 135 -46.5 q37 0 64.5 14 q27.5 14 44.5 38 q17 24 25.5 56 q8.5 32 8.5 69 q0 96 -40 148 q-40 52 -120 52 q-42 0 -72 -16.5 q-30 -16.5 -49.5 -43.5 q-19.5 -27 -29 -62 q-9.5 -35 -9.5 -72 Z" /><glyph glyph-name="afii10067" unicode="&#x432;" d="M120 499 q38 3 76 5.5 q38 2.5 86 2.5 q121 0 184.5 -35 q63.5 -35 63.5 -113 q0 -51 -27 -80.5 q-27 -29.5 -93 -40.5 l0 -4 q52 -15 75 -49.5 q23 -34.5 23 -69.5 q0 -61 -48 -91.5 q-48 -30.5 -156 -30.5 q-32 0 -57.5 1 q-25.5 1 -47.5 2 q-22 1 -41 2.5 q-19 1.5 -38 2.5 l0 498 ZM197 271 l105 0 q42 0 70 6 q28 6 45.5 17 q17.5 11 25 26 q7.5 15 7.5 34 q0 48 -38.5 67.5 q-38.5 19.5 -116.5 19.5 q-29 0 -52 -1 q-23 -1 -46 -3 l0 -166 ZM197 211 l0 -149 q21 -1 43.5 -2 q22.5 -1 60.5 -1 q69 0 98.5 16 q29.5 16 29.5 57 q0 16 -10 30.5 q-10 14.5 -26.5 25 q-16.5 10.5 -36.5 17 q-20 6.5 -40 6.5 l-119 0 Z" /><glyph glyph-name="afii10068" unicode="&#x433;" d="M396 500 l0 -67 l-152 0 l0 -365 l194 0 l0 119 l68 0 l0 -187 l-404 0 l0 68 l64 0 l0 365 l-64 0 l0 67 l294 0 Z" /><glyph glyph-name="afii10069" unicode="&#x434;" d="M566 312 l-77 0 l0 -432 l-314 0 q-2 108 -13 184.5 q-11 76.5 -25 128 q-14 51.5 -29 80 q-15 28.5 -24 39.5 l-56 0 l0 188 l68 0 l0 -120 l402 0 l0 120 l68 0 l0 -188 ZM165 313 q19 -34 33.5 -79 q14.5 -45 24.5 -94.5 q10 -49.5 15.5 -99.5 q5.5 -50 7.5 -93 l165 0 l0 366 l-246 0 Z" /><glyph glyph-name="afii10072" unicode="&#x436;" d="M260 276 l0 224 l78 0 l0 -224 l60 0 l107 224 l89 0 l-132 -268 l118 -232 l-82 0 l-106 216 l-54 0 l0 -216 l-78 0 l0 216 l-63 0 l-91 -216 l-87 0 l115 244 l-128 256 l86 0 l107 -224 l61 0 Z" /><glyph glyph-name="afii10073" unicode="&#x437;" d="M107 167 l68 0 l0 -83 q21 -11 51 -18.5 q30 -7.5 70 -7.5 q26 0 49.5 4.5 q23.5 4.5 41 13.5 q17.5 9 27.5 23.5 q10 14.5 10 34.5 q0 16 -10 30.5 q-10 14.5 -26 25 q-16 10.5 -36 17 q-20 6.5 -40 6.5 l-71 0 l0 65 l57 0 q79 0 113.5 20 q34.5 20 34.5 58 q0 22 -11 38.5 q-11 16.5 -29.5 27 q-18.5 10.5 -43 16 q-24.5 5.5 -52.5 5.5 q-40 0 -70.5 -7.5 q-30.5 -7.5 -54 -18.5 q-23.5 -11 -39.5 -24.5 q-16 -13.5 -27 -25.5 l-40 63 q10 12 28.5 26 q18.5 14 45 26 q26.5 12 61.5 20 q35 8 78 8 q58 0 101.5 -11.5 q43.5 -11.5 73 -31.5 q29.5 -20 44.5 -47 q15 -27 15 -59 q0 -51 -26.5 -82 q-26.5 -31 -92.5 -42 l0 -4 q23 -7 41 -20 q18 -13 31 -29 q13 -16 19.5 -33.5 q6.5 -17.5 6.5 -33.5 q0 -30 -14.5 -53.5 q-14.5 -23.5 -40.5 -39.5 q-26 -16 -61 -24.5 q-35 -8.5 -76 -8.5 q-40 0 -71 5 q-31 5 -55.5 12.5 q-24.5 7.5 -44 17 q-19.5 9.5 -36.5 19.5 l1 3 l0 119 Z" /><glyph glyph-name="afii10074" unicode="&#x438;" d="M437 500 l78 0 l0 -500 l-72 0 l-279 386 l-4 0 l3 -63 l0 -323 l-78 0 l0 500 l71 0 l281 -380 l3 0 l-3 66 l0 314 Z" /><glyph glyph-name="afii10076" unicode="&#x43a;" d="M455 500 l103 0 l0 -67 l-65 0 l-182 -196 l221 -237 l-94 0 l-197 214 l-55 0 l0 -214 l-77 0 l0 500 l77 0 l0 -226 l55 0 l214 226 Z" /><glyph glyph-name="afii10077" unicode="&#x43b;" d="M426 496 l78 0 l0 -500 l-324 0 q-3 105 -8 178.5 q-5 73.5 -12.5 122 q-7.5 48.5 -18 75 q-10.5 26.5 -23.5 38.5 q-13 12 -29.5 12 q-16.5 0 -35.5 -5 l-13 74 q13 5 22 7 q9 2 29 2 q52 0 82.5 -34 q30.5 -34 47 -93 q16.5 -59 22.5 -138.5 q6 -79.5 10 -170.5 l173 0 l0 432 Z" /><glyph glyph-name="afii10078" unicode="&#x43c;" d="M458 500 l78 0 l0 -500 l-80 0 l-152 251 l-2 0 l-159 -251 l-79 0 l0 500 l74 0 l0 -298 l-5 -70 l4 0 l146 229 l28 0 l144 -229 l5 0 l-2 71 l0 297 Z" /><glyph glyph-name="afii10079" unicode="&#x43d;" d="M434 500 l78 0 l0 -500 l-78 0 l0 208 l-269 0 l0 -208 l-77 0 l0 500 l77 0 l0 -222 l269 0 l0 222 Z" /><glyph glyph-name="afii10081" unicode="&#x43f;" d="M430 500 l78 0 l0 -500 l-416 0 l0 500 l77 0 l0 -432 l261 0 l0 432 Z" /><glyph glyph-name="afii10084" unicode="&#x442;" d="M52 187 l68 0 l0 -119 l141 0 l0 365 l-125 0 l0 67 l324 0 l0 -67 l-121 0 l0 -365 l141 0 l0 119 l68 0 l0 -187 l-496 0 l0 187 Z" /><glyph glyph-name="afii10086" unicode="&#x444;" d="M184 -133 l78 0 l0 129 q-20 -4 -48 -4 q-94 0 -142 65 q-48 65 -48 193 q0 134 42.5 198 q42.5 64 126.5 64 q15 0 33.5 -1 q18.5 -1 35.5 -7 l0 196 l76 0 l0 -195 q11 4 28.5 5.5 q17.5 1.5 26.5 1.5 q90 0 136.5 -73 q46.5 -73 46.5 -199 q0 -133 -44 -190.5 q-44 -57.5 -135 -57.5 q-13 0 -27 1 q-14 1 -32 4 l0 -197 l-154 0 l0 67 ZM382 58 q34 0 56 12.5 q22 12.5 35 36 q13 23.5 18 57.5 q5 34 5 76 q0 100 -26 153 q-26 53 -83 53 q-15 0 -27.5 -0.5 q-12.5 -0.5 -22.5 -2.5 l0 -380 q14 -4 23.5 -4.5 q9.5 -0.5 21.5 -0.5 ZM213 446 q-30 0 -50.5 -14.5 q-20.5 -14.5 -33.5 -41 q-13 -26.5 -19 -62.5 q-6 -36 -6 -78 q0 -99 28.5 -145.5 q28.5 -46.5 82.5 -46.5 q15 0 25.5 1 q10.5 1 22.5 3 l0 379 q-14 3 -26 4 q-12 1 -24 1 Z" /><glyph glyph-name="afii10088" unicode="&#x446;" d="M585 312 l-82 0 l0 -432 l-78 0 l0 432 l-258 0 l0 -432 l-77 0 l0 500 l427 0 l0 120 l68 0 l0 -188 Z" /><glyph glyph-name="afii10089" unicode="&#x447;" d="M90 0 l0 139 q0 54 10.5 89.5 q10.5 35.5 31 57 q20.5 21.5 51.5 30 q31 8.5 73 8.5 q63 0 99.5 -12.5 q36.5 -12.5 54.5 -23.5 l0 212 l78 0 l0 -500 l-78 0 l0 221 q-17 13 -52 24.5 q-35 11.5 -89 11.5 q-33 0 -53 -9 q-20 -9 -31 -25.5 q-11 -16.5 -14.5 -39.5 q-3.5 -23 -3.5 -50 l0 -133 l-77 0 Z" /><glyph glyph-name="afii10090" unicode="&#x448;" d="M545 500 l0 -500 l-74 0 l0 430 l-134 0 l0 -430 l-74 0 l0 430 l-134 0 l0 -430 l-74 0 l0 500 l490 0 Z" /><glyph glyph-name="afii10091" unicode="&#x449;" d="M592 310 l-62 0 l0 -430 l-74 0 l0 430 l-120 0 l0 -430 l-74 0 l0 430 l-120 0 l0 -430 l-74 0 l0 500 l456 0 l0 120 l68 0 l0 -190 Z" /><glyph glyph-name="afii10092" unicode="&#x44a;" d="M245 252 q21 -5 44.5 -6 q23.5 -1 42.5 -1 q73 0 107 27 q34 27 34 65 q0 43 -35 69.5 q-35 26.5 -110 26.5 q-37 0 -83 -6 l0 -175 ZM245 -6 l-201 0 l0 68 l124 0 l0 432 q76 6 140 6 q125 0 186.5 -41 q61.5 -41 61.5 -132 q0 -31 -11.5 -57.5 q-11.5 -26.5 -36.5 -46.5 q-25 -20 -65.5 -31.5 q-40.5 -11.5 -98.5 -11.5 q-23 0 -47.5 1.5 q-24.5 1.5 -51.5 5.5 l0 -193 Z" /><glyph glyph-name="afii10093" unicode="&#x44b;" d="M127 251 q17 -5 37 -6 q20 -1 37 -1 q61 0 85.5 26 q24.5 26 24.5 66 q0 45 -25 69.5 q-25 24.5 -88 24.5 q-34 0 -71 -6 l0 -173 ZM127 -6 l-80 0 l0 500 q69 6 133 6 q113 0 163.5 -41 q50.5 -41 50.5 -132 q0 -31 -8.5 -58.5 q-8.5 -27.5 -29.5 -47.5 q-21 -20 -55.5 -31.5 q-34.5 -11.5 -85.5 -11.5 q-20 0 -42 1.5 q-22 1.5 -46 5.5 l0 -191 ZM473 494 l80 0 l0 -500 l-80 0 l0 500 Z" /><glyph glyph-name="afii10094" unicode="&#x44c;" d="M189 252 q21 -5 52.5 -6 q31.5 -1 64.5 -1 q73 0 107 27 q34 27 34 65 q0 43 -35 69.5 q-35 26.5 -110 26.5 q-9 0 -24 -0.5 q-15 -0.5 -31 -2 q-16 -1.5 -31.5 -2.5 q-15.5 -1 -26.5 -3 l0 -173 ZM189 -6 l-77 0 l0 496 q19 2 42 3.5 q23 1.5 45.5 3 q22.5 1.5 44 2.5 q21.5 1 37.5 1 q126 0 187.5 -41 q61.5 -41 61.5 -132 q0 -31 -11.5 -57.5 q-11.5 -26.5 -37 -46.5 q-25.5 -20 -66 -31.5 q-40.5 -11.5 -98.5 -11.5 q-40 0 -70.5 1.5 q-30.5 1.5 -57.5 5.5 l0 -193 Z" /><glyph glyph-name="afii10095" unicode="&#x44d;" d="M101 147 l68 0 l0 -75 q20 -8 45 -12.5 q25 -4.5 54 -4.5 q43 0 77.5 12 q34.5 12 59 33.5 q24.5 21.5 38.5 51 q14 29.5 17 63.5 l-236 0 l0 66 l237 0 q0 41 -16.5 71.5 q-16.5 30.5 -43 50.5 q-26.5 20 -59.5 29.5 q-33 9.5 -65 9.5 q-54 0 -97 -19 q-43 -19 -72 -40 l-33 62 q15 15 38 27.5 q23 12.5 50.5 21 q27.5 8.5 56.5 13.5 q29 5 55 5 q57 0 105.5 -17.5 q48.5 -17.5 84.5 -51 q36 -33.5 56 -82.5 q20 -49 20 -111 q0 -60 -18 -108.5 q-18 -48.5 -51 -82.5 q-33 -34 -79 -52.5 q-46 -18.5 -103 -18.5 q-62 0 -107 9.5 q-45 9.5 -80 27.5 l-2 0 l0 122 Z" /><glyph glyph-name="afii10096" unicode="&#x44e;" d="M387 512 q96 0 135.5 -68 q39.5 -68 39.5 -194 q0 -59 -8 -107.5 q-8 -48.5 -27.5 -83 q-19.5 -34.5 -53 -53 q-33.5 -18.5 -84.5 -18.5 q-46 0 -78.5 14.5 q-32.5 14.5 -53.5 42.5 q-21 28 -32 69 q-11 41 -14 95 l-82 0 l0 -209 l-80 0 l0 500 l80 0 l0 -221 l81 0 q2 53 11 96 q9 43 29 73.5 q20 30.5 53.5 47 q33.5 16.5 83.5 16.5 ZM288 250 q0 -49 4 -85.5 q4 -36.5 15 -60 q11 -23.5 30.5 -35 q19.5 -11.5 50.5 -11.5 q31 0 49.5 15.5 q18.5 15.5 27.5 41.5 q9 26 11.5 61 q2.5 35 2.5 74 q0 50 -3.5 86 q-3.5 36 -13 59.5 q-9.5 23.5 -27.5 35 q-18 11.5 -46 11.5 q-35 0 -55 -15.5 q-20 -15.5 -30 -41.5 q-10 -26 -13 -61 q-3 -35 -3 -74 Z" /><glyph glyph-name="afii10097" unicode="&#x44f;" d="M410 513 l78 0 l0 -496 q-35 -6 -69 -11.5 q-34 -5.5 -72 -5.5 q-53 0 -97 9.5 q-44 9.5 -76 30.5 q-32 21 -50 53.5 q-18 32.5 -18 77.5 q0 29 8.5 52.5 q8.5 23.5 23 41 q14.5 17.5 32.5 29 q18 11.5 37 16.5 l-91 136 l-52 0 l0 67 l100 0 l126 -195 l120 0 l0 195 ZM270 258 q-34 -7 -58 -29.5 q-24 -22.5 -24 -63.5 q0 -51 40 -74.5 q40 -23.5 116 -23.5 q14 0 33 4 q19 4 33 9 l0 178 l-140 0 Z" /><glyph glyph-name="afii10099" unicode="&#x452;" d="M59 48 l80 0 l0 440 l80 0 l0 -181 q11 -48 49 -78.5 q38 -30.5 85 -30.5 q33 0 53.5 10 q20.5 10 32.5 29.5 q12 19.5 16.5 49.5 q4.5 30 4.5 69 l0 132 q0 36 -2.5 63 q-2.5 27 -11.5 44.5 q-9 17.5 -25.5 26 q-16.5 8.5 -44.5 8.5 l0 68 q8 1 15 1.5 q7 0.5 15 0.5 q70 0 102 -46 q32 -46 32 -139 l0 -177 q0 -62 -9.5 -102.5 q-9.5 -40.5 -30 -64.5 q-20.5 -24 -51.5 -33.5 q-31 -9.5 -73 -9.5 q-54 0 -90.5 18.5 q-36.5 18.5 -62.5 49.5 l-4 0 l0 -148 l160 0 l0 -60 l-160 0 l0 -200 l-80 0 l0 200 l-80 0 l0 60 Z" /><glyph glyph-name="afii10101" unicode="&#x454;" d="M439 172 l72 0 l0 -139 l1 -3 q-32 -16 -78.5 -29 q-46.5 -13 -120.5 -13 q-58 0 -105 17.5 q-47 17.5 -80 50.5 q-33 33 -50.5 82 q-17.5 49 -17.5 112 q0 59 17 107.5 q17 48.5 50 83 q33 34.5 82.5 53 q49.5 18.5 114.5 18.5 q39 0 72.5 -7 q33.5 -7 61 -18.5 q27.5 -11.5 48.5 -24.5 q21 -13 35 -25 l-35 -58 q-30 26 -74.5 42 q-44.5 16 -91.5 16 q-44 0 -80.5 -13 q-36.5 -13 -62.5 -37 q-26 -24 -40 -58 q-9 -22 -13 -49 l228 0 l0 -66 l-227 0 q7 -72 46 -110 q48 -46 146 -46 q26 0 52.5 5.5 q26.5 5.5 49.5 13.5 l0 95 Z" /><glyph glyph-name="afii10106" unicode="&#x459;" d="M372 -6 l-243 0 q-3 135 -11 219 q-8 84 -19 131.5 q-11 47.5 -25.5 64.5 q-14.5 17 -32.5 17 q-11 0 -23 -4 l-12 67 q11 5 20 7 q9 2 28 2 q33 0 55.5 -21.5 q22.5 -21.5 38 -56.5 q15.5 -35 24.5 -80.5 q9 -45.5 14 -93.5 q5 -48 8 -95.5 q3 -47.5 5 -86.5 l98 0 l0 430 q27 3 53.5 4.5 q26.5 1.5 59.5 1.5 q81 0 127.5 -41 q46.5 -41 46.5 -132 q0 -31 -7.5 -58.5 q-7.5 -27.5 -24 -47.5 q-16.5 -20 -43 -31.5 q-26.5 -11.5 -64.5 -11.5 q-20 0 -38 1.5 q-18 1.5 -35 5.5 l0 -191 ZM372 251 q10 -5 26 -6 q16 -1 33 -1 q44 0 59.5 26 q15.5 26 15.5 66 q0 45 -17.5 70 q-17.5 25 -60.5 25 q-34 0 -56 -6 l0 -174 Z" /><glyph glyph-name="afii10107" unicode="&#x45a;" d="M345 251 q9 -2 28 -4.5 q19 -2.5 36 -2.5 q54 0 77 26 q23 26 23 66 q0 45 -23.5 69.5 q-23.5 24.5 -79.5 24.5 q-17 0 -34.5 -2 q-17.5 -2 -26.5 -3 l0 -174 ZM345 -6 l-80 0 l0 207 l-166 0 l0 -207 l-80 0 l0 500 l80 0 l0 -223 l166 0 l0 223 q22 3 56 4.5 q34 1.5 67 1.5 q107 0 155.5 -41 q48.5 -41 48.5 -132 q0 -31 -8.5 -58.5 q-8.5 -27.5 -28 -47.5 q-19.5 -20 -52 -31.5 q-32.5 -11.5 -80.5 -11.5 q-20 0 -43 2.5 q-23 2.5 -35 4.5 l0 -191 Z" /><glyph glyph-name="afii10108" unicode="&#x45b;" d="M59 260 l80 0 l0 440 l80 0 l0 -181 q11 -48 49 -78.5 q38 -30.5 85 -30.5 q33 0 53.5 10 q20.5 10 32.5 29.5 q12 19.5 16.5 49.5 q4.5 30 4.5 69 l0 132 l80 0 l0 -150 q0 -62 -9.5 -102.5 q-9.5 -40.5 -30 -64.5 q-20.5 -24 -51.5 -33.5 q-31 -9.5 -73 -9.5 q-54 0 -90.5 18.5 q-36.5 18.5 -62.5 49.5 l-4 0 l0 -148 l160 0 l0 -60 l-160 0 l0 -200 l-80 0 l0 200 l-80 0 l0 60 Z" /><glyph glyph-name="afii10193" unicode="&#x45f;" d="M269 340 l0 160 l68 0 l0 -160 l163 0 l0 -500 l-80 0 l0 430 l-240 0 l0 -430 l-80 0 l0 500 l169 0 Z" /><glyph glyph-name="uni0460" unicode="&#x460;" d="M302 608 q6 30 18 50.5 q12 20.5 28 32.5 q16 12 35 17.5 q19 5.5 39 5.5 q40 0 67 -31.5 q27 -31.5 43.5 -81.5 q16.5 -50 23 -112 q6.5 -62 6.5 -123 q0 -87 -12 -157.5 q-12 -70.5 -36.5 -120 q-24.5 -49.5 -61.5 -76 q-37 -26.5 -88 -26.5 l0 74 q19 0 38.5 14 q19.5 14 35.5 48.5 q16 34.5 26 92 q10 57.5 10 144.5 q0 87 -5 142 q-5 55 -14.5 86 q-9.5 31 -22.5 42 q-13 11 -28 11 q-26 0 -43 -32 q-17 -32 -17 -94 l0 -193 l-88 0 l0 193 q0 59 -18.5 92.5 q-18.5 33.5 -45.5 33.5 q-13 0 -25 -11.5 q-12 -11.5 -21.5 -42.5 q-9.5 -31 -15 -85.5 q-5.5 -54.5 -5.5 -140.5 q0 -90 9.5 -148.5 q9.5 -58.5 25.5 -92 q16 -33.5 36 -46.5 q20 -13 40 -13 l0 -74 q-52 0 -89.5 27 q-37.5 27 -62 76.5 q-24.5 49.5 -36 119.5 q-11.5 70 -11.5 157 q0 61 6.5 123 q6.5 62 22.5 112 q16 50 43.5 81.5 q27.5 31.5 69.5 31.5 q43 0 74 -23 q31 -23 46 -83 l3 0 Z" /><glyph glyph-name="uni0461" unicode="&#x461;" d="M303 432 q16 45 46 65 q30 20 67 20 q41 0 69 -19.5 q28 -19.5 45 -53.5 q17 -34 24 -80.5 q7 -46.5 7 -100.5 q0 -77 -15 -130 q-15 -53 -41.5 -85.5 q-26.5 -32.5 -63 -47 q-36.5 -14.5 -80.5 -14.5 l0 70 q22 0 43 7.5 q21 7.5 37.5 29.5 q16.5 22 26.5 61.5 q10 39.5 10 103.5 q0 87 -15.5 138 q-15.5 51 -51.5 51 q-33 0 -52 -23.5 q-19 -23.5 -19 -68.5 l0 -149 l-80 0 l0 149 q0 43 -19 67.5 q-19 24.5 -54 24.5 q-36 0 -50.5 -50.5 q-14.5 -50.5 -14.5 -137.5 q0 -63 9.5 -102.5 q9.5 -39.5 26 -62 q16.5 -22.5 38 -30.5 q21.5 -8 44.5 -8 l0 -70 q-44 0 -81 14 q-37 14 -63.5 46.5 q-26.5 32.5 -41.5 85.5 q-15 53 -15 131 q0 54 6.5 100.5 q6.5 46.5 23 80.5 q16.5 34 45 53.5 q28.5 19.5 72.5 19.5 q42 0 71 -20 q29 -20 42 -65 l4 0 Z" /><glyph glyph-name="afii10146" unicode="&#x462;" d="M7 163 l149 0 l0 543 q19 5 41.5 8 q22.5 3 45 4.5 q22.5 1.5 42.5 2 q20 0.5 34 0.5 q58 0 107.5 -14 q49.5 -14 86.5 -43 q37 -29 58 -73 q21 -44 21 -104 q0 -62 -22 -102.5 q-22 -40.5 -57.5 -64 q-35.5 -23.5 -81 -33 q-45.5 -9.5 -93.5 -9.5 q-12 0 -27 1 q-15 1 -29 2 q-14 1 -26 2.5 q-12 1.5 -17 2.5 l0 -123 l207 0 l0 -70 l-207 0 l0 -101 l-83 0 l0 101 l-149 0 l0 70 ZM330 649 q-25 0 -51 -1.5 q-26 -1.5 -40 -4.5 l0 -284 q5 -1 16 -3 q11 -2 24 -3 q13 -1 26 -2 q13 -1 22 -1 q34 0 66 6.5 q32 6.5 56.5 22.5 q24.5 16 39.5 44 q15 28 15 70 q0 39 -13.5 68.5 q-13.5 29.5 -37.5 49 q-24 19.5 -55.5 29 q-31.5 9.5 -67.5 9.5 Z" /><glyph glyph-name="afii10194" unicode="&#x463;" d="M37 260 l109 0 l0 434 q17 2 38.5 3 q21.5 1 43.5 1.5 q22 0.5 43 1 q21 0.5 38 0.5 q115 0 169.5 -41 q54.5 -41 54.5 -132 q0 -31 -10 -58.5 q-10 -27.5 -32.5 -47.5 q-22.5 -20 -58.5 -31.5 q-36 -11.5 -88 -11.5 q-42 0 -68 1.5 q-26 1.5 -50 5.5 l0 -125 l190 0 l0 -66 l-190 0 l0 -200 l-80 0 l0 200 l-109 0 l0 66 ZM226 451 q18 -5 44 -6 q26 -1 50 -1 q69 0 99.5 26 q30.5 26 30.5 66 q0 45 -31.5 69.5 q-31.5 24.5 -106.5 24.5 q-20 0 -43 -1.5 q-23 -1.5 -43 -4.5 l0 -173 Z" /><glyph glyph-name="afii10147" unicode="&#x472;" d="M48 350 q0 82 13 148.5 q13 66.5 43 114 q30 47.5 78 73.5 q48 26 117 26 q130 0 191.5 -94 q61.5 -94 61.5 -268 q0 -82 -13 -148.5 q-13 -66.5 -43 -114 q-30 -47.5 -78.5 -73.5 q-48.5 -26 -118.5 -26 q-128 0 -189.5 94 q-61.5 94 -61.5 268 ZM299 638 q-44 0 -74.5 -20.5 q-30.5 -20.5 -49.5 -55 q-19 -34.5 -28 -81 q-9 -46.5 -11 -99.5 l327 0 q-4 131 -43.5 193.5 q-39.5 62.5 -120.5 62.5 ZM299 62 q44 0 74 19.5 q30 19.5 49 53 q19 33.5 28.5 78 q9.5 44.5 12.5 95.5 l-326 0 q5 -125 44.5 -185.5 q39.5 -60.5 117.5 -60.5 Z" /><glyph glyph-name="afii10195" unicode="&#x473;" d="M57 250 q0 55 14.5 103 q14.5 48 44.5 83 q30 35 76 55.5 q46 20.5 108 20.5 q58 0 103.5 -18.5 q45.5 -18.5 76.5 -52.5 q31 -34 47 -82.5 q16 -48.5 16 -108.5 q0 -55 -14.5 -103 q-14.5 -48 -44.5 -83 q-30 -35 -75.5 -55.5 q-45.5 -20.5 -108.5 -20.5 q-117 0 -180 70.5 q-63 70.5 -63 191.5 ZM300 55 q39 0 67.5 14 q28.5 14 47.5 36.5 q19 22.5 30 52.5 q11 30 14 61 l-318 0 q12 -164 159 -164 ZM300 445 q-39 0 -67.5 -13.5 q-28.5 -13.5 -47.5 -36 q-19 -22.5 -30 -52 q-11 -29.5 -14 -60.5 l318 0 q-7 80 -47 121 q-40 41 -112 41 Z" /><glyph glyph-name="afii10148" unicode="&#x474;" d="M451 187 q20 -61 39 -87 q19 -26 47 -26 q14 0 31.5 3.5 q17.5 3.5 37.5 14.5 l24 -70 q-17 -11 -37 -16.5 q-20 -5.5 -55 -5.5 q-26 0 -48 4.5 q-22 4.5 -43 25 q-21 20.5 -41.5 64 q-20.5 43.5 -43.5 121.5 l-98 358 l-7 0 l-196 -566 l-90 0 l246 700 l78 0 l156 -520 Z" /><glyph glyph-name="afii10196" unicode="&#x475;" d="M443 140 q20 -47 37 -62 q17 -15 34 -15 q8 0 16.5 2.5 q8.5 2.5 17.5 6.5 l12 -74 q-12 -5 -26 -7 q-14 -2 -32 -2 q-30 0 -51.5 12.5 q-21.5 12.5 -38 36 q-16.5 23.5 -30.5 57 q-14 33.5 -30 76.5 l-72 186 l-1 0 l-147 -361 l-92 0 l217 511 l34 0 l152 -367 Z" /><glyph glyph-name="uni048A" unicode="&#x48a;" d="M421 740 l87 0 l-45 130 l74 0 l71 -200 l-104 0 l0 -630 l-79 0 l-260 457 l-57 112 l-6 0 l5 -99 l0 -470 l-83 0 l0 700 l79 0 l260 -452 l58 -112 l6 0 l-6 100 l0 464 ZM108 -110 q8 60 53.5 87.5 q45.5 27.5 116.5 27.5 q74 0 113.5 -31.5 q39.5 -31.5 50.5 -85.5 l-71 -17 q-5 36 -28.5 56 q-23.5 20 -63.5 20 q-40 0 -64 -20 q-24 -20 -28 -57 l-79 20 Z" /><glyph glyph-name="uni048B" unicode="&#x48b;" d="M437 572 l84 0 l-45 130 l74 0 l71 -197 l-106 0 l0 -433 l-72 0 l-279 386 l-4 0 l3 -63 l0 -323 l-78 0 l0 500 l71 0 l281 -380 l3 0 l-3 66 l0 314 ZM147 -106 q5 30 20 52 q15 22 36 36 q21 14 47.5 21 q26.5 7 53.5 7 q59 0 101.5 -31 q42.5 -31 51.5 -89 l-60 -19 q-9 43 -34 62 q-25 19 -57 19 q-32 0 -56.5 -18 q-24.5 -18 -34.5 -64 l-68 24 Z" /><glyph glyph-name="uni048E" unicode="&#x48e;" d="M81 708 l83 0 l0 -266 q5 1 17 2 q12 1 24.5 1.5 q12.5 0.5 24 0.5 q11.5 0 16.5 0 q56 0 104 -13 l77 110 l46 -33 l-68 -98 q50 -26 81.5 -74 q31.5 -48 31.5 -123 q0 -65 -24.5 -107 q-24.5 -42 -63.5 -66 q-39 -24 -86.5 -33 q-47.5 -9 -93.5 -9 q-43 0 -87 3 q-44 3 -82 12 l0 693 ZM244 273 l64 93 q-17 4 -33 5 q-16 1 -33 1 q-5 0 -16 0 q-11 0 -23 -0.5 q-12 -0.5 -23 -1 q-11 -0.5 -16 -2.5 l0 -290 q14 -4 38 -5 q24 -1 50 -1 q32 0 64 7 q32 7 57.5 23.5 q25.5 16.5 41 44 q15.5 27.5 15.5 68.5 q0 54 -20 85.5 q-20 31.5 -52 48.5 l-71 -103 l-43 27 Z" /><glyph glyph-name="uni048F" unicode="&#x48f;" d="M96 512 l77 0 l0 -210 q15 6 28 10 q13 4 26.5 6.5 q13.5 2.5 30 4 q16.5 1.5 37.5 1.5 q58 0 106 -19 q5 -2 11 -4 l64 74 l48 -41 l-59 -67 q9 -7 18 -16 q34 -35 52.5 -85.5 q18.5 -50.5 18.5 -113.5 q0 -134 -54 -193 q-54 -59 -161 -59 q-60 0 -101.5 23.5 q-41.5 23.5 -68.5 58.5 l-5 0 l-10 -70 l-133 0 l0 65 l67 0 q2 11 3.5 26 q1.5 15 2.5 30.5 q1 15.5 1.5 30 q0.5 14.5 0.5 23.5 l0 525 ZM326 -127 q78 0 111.5 46.5 q33.5 46.5 33.5 131.5 q0 101 -48 154 q-3 3 -7 6 l-67 -78 l-46 41 l61 71 q-31 12 -69 12 q-45 0 -72.5 -8.5 q-27.5 -8.5 -49.5 -23.5 l0 -228 q3 -22 16 -44 q13 -22 33.5 -40 q20.5 -18 47 -29 q26.5 -11 56.5 -11 Z" /><glyph glyph-name="afii10050" unicode="&#x490;" d="M70 194 l96 0 l0 552 l-96 0 l0 74 l346 0 l0 -74 l-167 0 l0 -552 l301 0 l0 -194 l-74 0 l0 120 l-406 0 l0 74 Z" /><glyph glyph-name="afii10098" unicode="&#x491;" d="M396 620 l0 -67 l-152 0 l0 -365 l262 0 l0 -188 l-68 0 l0 120 l-336 0 l0 68 l64 0 l0 365 l-64 0 l0 67 l294 0 Z" /><glyph glyph-name="uni0492" unicode="&#x492;" d="M535 0 l-375 0 l0 315 l-96 0 l0 66 l96 0 l0 319 l83 0 l0 -319 l215 0 l0 -66 l-215 0 l0 -241 l292 0 l0 -74 Z" /><glyph glyph-name="uni0493" unicode="&#x493;" d="M511 0 l-372 0 l0 221 l-90 0 l0 60 l90 0 l0 219 l80 0 l0 -219 l249 0 l0 -60 l-249 0 l0 -151 l292 0 l0 -70 Z" /><glyph glyph-name="uni0494" unicode="&#x494;" d="M165 290 q6 -2 17.5 -6 q11.5 -4 27 -7.5 q15.5 -3.5 33 -6 q17.5 -2.5 35.5 -2.5 q32 0 59.5 8 q27.5 8 48 28.5 q20.5 20.5 32.5 54 q12 33.5 12 84.5 q0 183 -142 183 q-29 0 -44.5 -0.5 q-15.5 -0.5 -28.5 -2.5 l0 74 q8 2 22.5 2.5 q14.5 0.5 47.5 0.5 q112 0 172.5 -63.5 q60.5 -63.5 60.5 -200.5 q0 -71 -18.5 -117.5 q-18.5 -46.5 -49 -73.5 q-30.5 -27 -69 -38 q-38.5 -11 -78.5 -11 q-55 0 -90.5 8.5 q-35.5 8.5 -47.5 12.5 l0 -271 l292 0 l0 -74 l-375 0 l0 700 l83 0 l0 -282 Z" /><glyph glyph-name="uni0495" unicode="&#x495;" d="M178 109 q11 -5 43 -13 q32 -8 90 -8 q31 0 58.5 9.5 q27.5 9.5 47.5 30 q20 20.5 32 52 q12 31.5 12 76.5 q0 83 -32 128.5 q-32 45.5 -102 45.5 q-29 0 -44.5 -0.5 q-15.5 -0.5 -28.5 -2.5 l0 70 q8 2 22.5 2.5 q14.5 0.5 47.5 0.5 q112 0 164.5 -61.5 q52.5 -61.5 52.5 -192.5 q0 -65 -17.5 -108.5 q-17.5 -43.5 -46.5 -70 q-29 -26.5 -66.5 -38 q-37.5 -11.5 -77.5 -11.5 q-38 0 -65 2.5 q-27 2.5 -45 6 q-18 3.5 -28.5 7 q-10.5 3.5 -16.5 5.5 l0 -178 l301 0 l0 -70 l-381 0 l0 500 l80 0 l0 -182 Z" /><glyph glyph-name="uni0496" unicode="&#x496;" d="M259 194 l-59 0 l-95 -314 l-87 0 l113 347 l-131 353 l86 0 l118 -324 l55 0 l0 324 l80 0 l0 -324 l52 0 l117 324 l41 0 l0 120 l70 0 l0 -194 l-48 0 l-111 -284 l121 -342 l-82 0 l-110 314 l-50 0 l0 -314 l-80 0 l0 314 Z" /><glyph glyph-name="uni0497" unicode="&#x497;" d="M260 156 l0 224 l78 0 l0 -224 l60 0 l107 224 l39 0 l0 120 l68 0 l0 -187 l-51 0 l-99 -201 l118 -232 l-82 0 l-106 216 l-54 0 l0 -216 l-78 0 l0 216 l-63 0 l-91 -216 l-87 0 l115 244 l-128 256 l86 0 l107 -224 l61 0 Z" /><glyph glyph-name="uni0498" unicode="&#x498;" d="M80 528 q28 11 76 24 q38 9 90 11 l0 149 l70 0 l0 -151 q26 -3 51 -9 q46 -13 82.5 -40 q36.5 -27 58.5 -68.5 q22 -41.5 22 -98.5 q0 -72 -40.5 -115 q-40.5 -43 -111.5 -53 l0 -4 q66 -20 98.5 -65.5 q32.5 -45.5 32.5 -95.5 q0 -49 -18.5 -82.5 q-18.5 -33.5 -50 -53 q-31.5 -19.5 -72.5 -28 q-41 -8.5 -86 -8.5 q-34 0 -65 3 q-31 3 -57 8 q-26 5 -45 11 q-19 6 -29 12 l0 149 l74 0 l0 -99 q23 -6 51 -10 q28 -4 57 -4 q34 0 62 6.5 q28 6.5 48 20.5 q20 14 31.5 36.5 q11.5 22.5 11.5 55.5 q0 24 -10 45 q-10 21 -27.5 37 q-17.5 16 -40.5 26.5 q-23 10.5 -49 13.5 l-69 0 l0 70 l60 0 q71 5 114 35.5 q43 30.5 43 93.5 q0 72 -46.5 108 q-46.5 36 -122.5 36 q-35 0 -65 -6 q-30 -6 -54 -14 l0 -105 l-74 0 l0 159 Z" /><glyph glyph-name="uni0499" unicode="&#x499;" d="M107 16 l68 0 l0 -83 q21 -11 51 -18.5 q30 -7.5 70 -7.5 q26 0 49.5 4.5 q23.5 4.5 41 13.5 q17.5 9 27.5 23.5 q10 14.5 10 34.5 q0 16 -10 30.5 q-10 14.5 -26 25 q-16 10.5 -36 17 q-20 6.5 -40 6.5 l-71 0 l0 65 l57 0 q79 0 113.5 20 q34.5 20 34.5 58 q0 22 -11 38.5 q-11 16.5 -29.5 27 q-18.5 10.5 -43 16 q-24.5 5.5 -52.5 5.5 q-40 0 -70.5 -7.5 q-30.5 -7.5 -54 -18.5 q-23.5 -11 -39.5 -24.5 q-16 -13.5 -27 -25.5 l-40 63 q10 12 28.5 26 q18.5 14 45 26 q26.5 12 61.5 20 q25 6 55 7 l0 152 l68 0 l0 -153 q31 -3 56 -9 q44 -12 73.5 -32 q29.5 -20 44.5 -47 q15 -27 15 -59 q0 -51 -26.5 -82 q-26.5 -31 -92.5 -42 l0 -4 q23 -7 41 -20 q18 -13 31 -29 q13 -16 19.5 -33.5 q6.5 -17.5 6.5 -33.5 q0 -30 -14.5 -53.5 q-14.5 -23.5 -40.5 -39.5 q-26 -16 -61 -24.5 q-35 -8.5 -76 -8.5 q-40 0 -71 5 q-31 5 -55.5 12.5 q-24.5 7.5 -44 17 q-19.5 9.5 -36.5 19.5 l1 3 l0 119 Z" /><glyph glyph-name="uni049A" unicode="&#x49a;" d="M490 580 l40 0 l0 120 l70 0 l0 -194 l-61 0 l-222 -293 l247 -333 l-96 0 l-225 312 l-75 0 l0 -312 l-83 0 l0 700 l83 0 l0 -324 l77 0 l245 324 Z" /><glyph glyph-name="uni049B" unicode="&#x49b;" d="M435 380 l37 0 l0 120 l68 0 l0 -187 l-67 0 l-182 -196 l221 -237 l-94 0 l-197 214 l-55 0 l0 -214 l-77 0 l0 500 l77 0 l0 -226 l55 0 l214 226 Z" /><glyph glyph-name="uni049C" unicode="&#x49c;" d="M184 505 l66 0 l0 -129 l27 0 l205 324 l105 0 l-238 -367 l217 -333 l-96 0 l-195 312 l-25 0 l0 -117 l-66 0 l0 117 l-54 0 l0 -312 l-83 0 l0 700 l83 0 l0 -324 l54 0 l0 129 Z" /><glyph glyph-name="uni049D" unicode="&#x49d;" d="M558 500 l0 -67 l-49 0 l-138 -196 l161 -237 l-84 0 l-147 214 l-36 0 l0 -116 l-63 0 l0 116 l-51 0 l0 -214 l-77 0 l0 500 l77 0 l0 -226 l51 0 l0 128 l63 0 l0 -128 l36 0 l164 226 l93 0 Z" /><glyph glyph-name="uni049E" unicode="&#x49e;" d="M0 130 l115 0 l0 570 l83 0 l0 -324 l47 0 l245 324 l105 0 l-278 -367 l247 -333 l-96 0 l-225 312 l-45 0 l0 -182 l119 0 l0 -66 l-119 0 l0 -64 l-83 0 l0 64 l-115 0 l0 66 Z" /><glyph glyph-name="uni049F" unicode="&#x49f;" d="M25 200 l84 0 l0 500 l77 0 l0 -226 l55 0 l214 226 l103 0 l0 -67 l-65 0 l-182 -196 l221 -237 l-94 0 l-197 214 l-55 0 l0 -214 l159 0 l0 -60 l-159 0 l0 -140 l-162 0 l0 67 l85 0 l0 73 l-84 0 l0 60 Z" /><glyph glyph-name="uni04A0" unicode="&#x4a0;" d="M491 700 l105 0 l-278 -367 l247 -333 l-96 0 l-225 312 l-25 0 l0 -312 l-214 0 l0 74 l131 0 l0 626 l83 0 l0 -324 l27 0 l245 324 Z" /><glyph glyph-name="uni04A1" unicode="&#x4a1;" d="M475 500 l103 0 l0 -67 l-65 0 l-182 -196 l221 -237 l-94 0 l-197 214 l-55 0 l0 -214 l-187 0 l0 70 l110 0 l0 430 l77 0 l0 -226 l55 0 l214 226 Z" /><glyph glyph-name="uni04A3" unicode="&#x4a3;" d="M426 380 l84 0 l1 120 l68 0 l0 -187 l-73 0 l0 -433 l-80 0 l0 209 l-276 0 l0 -209 l-80 0 l0 500 l80 0 l0 -221 l276 0 l0 221 Z" /><glyph glyph-name="uni04A4" unicode="&#x4a4;" d="M597 0 l-275 0 l0 305 l-236 0 l0 -305 l-83 0 l0 700 l83 0 l0 -321 l236 0 l0 321 l83 0 l0 -626 l192 0 l0 -74 Z" /><glyph glyph-name="uni04A5" unicode="&#x4a5;" d="M579 0 l-252 0 l0 209 l-226 0 l0 -209 l-80 0 l0 500 l80 0 l0 -221 l226 0 l0 221 l80 0 l0 -430 l172 0 l0 -70 Z" /><glyph glyph-name="uni04A6" unicode="&#x4a6;" d="M358 280 q11 -5 25.5 -8.5 q14.5 -3.5 28.5 -3.5 q24 0 41.5 8 q17.5 8 28.5 28.5 q11 20.5 16.5 54 q5.5 33.5 5.5 84.5 q0 92 -27.5 137.5 q-27.5 45.5 -75.5 45.5 q-14 0 -27 -0.5 q-13 -0.5 -26 -2.5 l0 74 q15 3 50 3 q90 0 139 -63.5 q49 -63.5 49 -200.5 q0 -71 -11 -117.5 q-11 -46.5 -31 -73.5 q-20 -27 -47.5 -38 q-27.5 -11 -60.5 -11 q-32 0 -49.5 3.5 q-17.5 3.5 -28.5 7.5 l0 -335 l-339 0 l0 700 l83 0 l0 -626 l173 0 l0 626 l83 0 l0 -292 Z" /><glyph glyph-name="uni04A7" unicode="&#x4a7;" d="M350 101 q11 -5 25.5 -9 q14.5 -4 30.5 -4 q48 0 72 39 q24 39 24 129 q0 83 -27 128.5 q-27 45.5 -84 45.5 q-16 0 -29 -0.5 q-13 -0.5 -26 -2.5 l0 70 q15 3 52 3 q98 0 146 -61.5 q48 -61.5 48 -192.5 q0 -65 -11 -108.5 q-11 -43.5 -32 -70 q-21 -26.5 -50 -38 q-29 -11.5 -65 -11.5 q-30 0 -46.5 4 q-16.5 4 -27.5 9 l0 -240 l-321 0 l0 500 l80 0 l0 -430 l161 0 l0 430 l80 0 l0 -190 Z" /><glyph glyph-name="uni04A8" unicode="&#x4a8;" d="M252 -12.11 q-117 0 -177 93.5 q-60 93.5 -60 268.5 q0 82 15.5 149 q15.5 67 47 114 q31.5 47 80 73 q48.5 26 115.5 26 q35 0 67.5 -7.5 q32.5 -7.5 58.5 -22.5 q22 14 54 22.5 q32 8.5 64 7.5 q26 -1 45 -4.5 q19 -3.5 38 -18.5 l-25 -65 q-19 14 -37.5 15 q-18.5 1 -32.5 2 q-5 0 -16.5 -1.5 q-11.5 -1.5 -16.5 -2.5 q51 -45 80 -128 q29 -83 29 -207 q0 -133 -48 -207 q-48 -74 -147 -75 q-98 -1 -149.5 80.5 q-51.5 81.5 -51.5 237.5 q0 46 9.5 91 q9.5 45 27 84.5 q17.5 39.5 42.5 71.5 q25 32 57 51 q-10 4 -23.5 5 q-13.5 1 -24.5 1 q-77 -1 -123.5 -74.5 q-46.5 -73.5 -46.5 -218.5 q0 -146 39 -216.5 q39 -70.5 110 -70.5 l0 -74 ZM273 345.89 q0 -133 30 -192.5 q30 -59.5 87 -59.5 q28 0 48 16.5 q20 16.5 32 45.5 q12 29 17.5 68 q5.5 39 5.5 84 q0 116 -23 187.5 q-23 71.5 -68 113.5 q-34 -19 -58.5 -49.5 q-24.5 -30.5 -40 -66.5 q-15.5 -36 -23 -74 q-7.5 -38 -7.5 -73 Z" /><glyph glyph-name="uni04A9" unicode="&#x4a9;" d="M229 -12 q-109 1 -164.5 69 q-55.5 68 -55.5 193 q0 59 15.5 107.5 q15.5 48.5 44.5 83 q29 34.5 72 53 q43 18.5 98 18.5 q32 0 68 -7.5 q36 -7.5 66 -28.5 q18 18 46.5 27 q28.5 9 56.5 9 q36 0 66.5 -11 q30.5 -11 48.5 -28 l-25 -60 q-17 18 -38 25.5 q-21 7.5 -41 7.5 q-23 0 -38 -7 q22 -10 43.5 -31.5 q21.5 -21.5 38 -51 q16.5 -29.5 26.5 -65.5 q10 -36 10 -76 q0 -45 -9.5 -84 q-9.5 -39 -30 -68 q-20.5 -29 -53 -46 q-32.5 -17 -78.5 -17 q-53 0 -88 22 q-35 22 -55.5 57.5 q-20.5 35.5 -29 79.5 q-8.5 44 -8.5 88 q0 63 25 113 q25 50 61 72 q-10 6 -24.5 8 q-14.5 2 -25.5 2 q-41 0 -70.5 -15.5 q-29.5 -15.5 -49.5 -42 q-20 -26.5 -29.5 -61.5 q-9.5 -35 -9.5 -74 q0 -97 34 -143.5 q34 -46.5 103 -47.5 l0 -70 ZM298 244 q0 -32 4 -63 q4 -31 14.5 -56 q10.5 -25 29.5 -40 q19 -15 49 -15 q23 0 39.5 12.5 q16.5 12.5 27.5 33 q11 20.5 16.5 46.5 q5.5 26 5.5 53 q0 38 -8.5 71 q-8.5 33 -22.5 60 q-14 27 -32.5 46.5 q-18.5 19.5 -39.5 29.5 q-38 -26 -60.5 -73.5 q-22.5 -47.5 -22.5 -104.5 Z" /><glyph glyph-name="uni04AA" unicode="&#x4aa;" d="M458 35 l74 0 l0 -158 l-1 0 q-14 -9 -28.5 -16 q-14.5 -7 -33.5 -11.5 q-19 -4.5 -44 -7 q-25 -2.5 -59 -2.5 q-62 0 -116.5 20 q-54.5 20 -95.5 63.5 q-41 43.5 -65 112 q-24 68.5 -24 166.5 q0 94 21.5 162.5 q21.5 68.5 60.5 112.5 q39 44 92 66 q36 14 77 19 l0 150 l70 0 l0 -149 q47 -3 82 -14 q46 -16 76 -39 l-1 -2 l0 -135 l-74 0 l0 100 q-19 8 -41.5 12.5 q-22.5 4.5 -48.5 4.5 q-51 0 -92.5 -18 q-41.5 -18 -71 -54 q-29.5 -36 -46 -90 q-16.5 -54 -16.5 -126 q0 -80 18.5 -135 q18.5 -55 49 -89 q30.5 -34 70 -49 q39.5 -15 80.5 -15 q29 0 49.5 3.5 q20.5 3.5 37.5 10.5 l0 107 Z" /><glyph glyph-name="uni04AB" unicode="&#x4ab;" d="M439 24 l72 0 l0 -139 l1 -3 q-32 -16 -78.5 -29 q-46.5 -13 -120.5 -13 q-58 0 -105 17.5 q-47 17.5 -80 50.5 q-33 33 -50.5 82 q-17.5 49 -17.5 112 q0 59 17 107.5 q17 48.5 50 83 q33 34.5 82 53.5 q32 11 70 15 l0 151 l68 0 l0 -149 q26 -1 49 -6 q34 -7 61.5 -18.5 q27.5 -11.5 48.5 -24.5 q21 -13 35 -25 l-35 -58 q-30 26 -74.5 42 q-44.5 16 -91.5 16 q-44 0 -80.5 -13 q-36.5 -13 -62.5 -37 q-26 -24 -40 -58.5 q-14 -34.5 -14 -78.5 q0 -100 48 -146 q48 -46 146 -46 q26 0 52.5 5.5 q26.5 5.5 49.5 13.5 l0 95 Z" /><glyph glyph-name="uni04AC" unicode="&#x4ac;" d="M40 63 l74 0 l0 -109 l144 0 l0 626 l105 0 l0 120 l70 0 l0 -194 l-92 0 l0 -552 l145 0 l0 109 l74 0 l0 -183 l-520 0 l0 183 Z" /><glyph glyph-name="uni04AD" unicode="&#x4ad;" d="M52 67 l68 0 l0 -119 l141 0 l0 365 l-125 0 l0 67 l276 0 l0 120 l68 0 l0 -187 l-141 0 l0 -365 l141 0 l0 119 l68 0 l0 -187 l-496 0 l0 187 Z" /><glyph glyph-name="uni04AF" unicode="&#x4af;" d="M135 -200 l-92 0 l219 508 l0 192 l80 0 l0 -193 l215 -507 l-87 0 l-157 403 l-11 0 l-167 -403 Z" /><glyph glyph-name="uni04B0" unicode="&#x4b0;" d="M109 477 l150 0 l0 223 l83 0 l0 -223 l150 0 l0 -62 l-141 0 l240 -415 l-89 0 l-195 346 l-1 0 l-200 -346 l-97 0 l240 415 l-140 0 l0 62 Z" /><glyph glyph-name="uni04B1" unicode="&#x4b1;" d="M142 360 l120 0 l0 140 l80 0 l0 -140 l120 0 l0 -60 l-117 0 l212 -500 l-87 0 l-157 403 l-11 0 l-167 -403 l-92 0 l215 500 l-116 0 l0 60 Z" /><glyph glyph-name="uni04B2" unicode="&#x4b2;" d="M20 580 l93 0 l160 -251 l26 -50 l27 50 l157 251 l42 0 l0 120 l70 0 l0 -194 l-62 0 l-182 -289 l219 -337 l-92 0 l-149 237 l-24 47 l-25 -47 l-140 -237 l-100 0 l211 344 l-231 356 Z" /><glyph glyph-name="uni04B3" unicode="&#x4b3;" d="M46 380 l91 0 l162 -205 l159 205 l48 0 l0 120 l68 0 l0 -187 l-73 0 l-152 -193 l193 -240 l-90 0 l-148 188 l-144 -188 l-100 0 l193 244 l-207 256 Z" /><glyph glyph-name="uni04B4" unicode="&#x4b4;" d="M0 -67 l149 0 l0 626 l381 0 l0 141 l70 0 l0 -215 l-83 0 l0 -626 l-83 0 l0 626 l-202 0 l0 -552 l146 0 l0 -74 l-378 0 l0 74 Z" /><glyph glyph-name="uni04B5" unicode="&#x4b5;" d="M593 303 l-72 0 l0 -430 l-80 0 l0 430 l-207 0 l0 -360 l140 0 l0 -70 l-367 0 l0 70 l147 0 l0 430 l371 0 l0 127 l68 0 l0 -197 Z" /><glyph glyph-name="uni04B6" unicode="&#x4b6;" d="M32 -120 l0 247 q0 56 14 94 q14 38 39 60.5 q25 22.5 60 32 q35 9.5 77 9.5 q57 0 101 -15 q44 -15 71 -30 l0 302 l104 0 l0 120 l70 0 l0 -194 l-91 0 l0 -626 l-83 0 l0 323 q-26 21 -67 33.5 q-41 12.5 -88 12.5 q-124 0 -124 -137 l0 -232 l-83 0 Z" /><glyph glyph-name="uni04B7" unicode="&#x4b7;" d="M90 -120 l0 139 q0 54 10.5 89.5 q10.5 35.5 31 57 q20.5 21.5 51.5 30 q31 8.5 73 8.5 q63 0 99.5 -12.5 q36.5 -12.5 54.5 -23.5 l0 212 l91 0 l0 120 l68 0 l0 -187 l-81 0 l0 -433 l-78 0 l0 221 q-17 13 -52 24.5 q-35 11.5 -89 11.5 q-33 0 -53 -9 q-20 -9 -31 -25.5 q-11 -16.5 -14.5 -39.5 q-3.5 -23 -3.5 -50 l0 -133 l-77 0 Z" /><glyph glyph-name="uni04B8" unicode="&#x4b8;" d="M269 555 l66 0 l0 -119 q34 -7 61.5 -17 q27.5 -10 46.5 -21 l0 302 l83 0 l0 -700 l-83 0 l0 323 q-20 15 -48 26 q-28 11 -60 16 l0 -120 l-66 0 l0 124 q-113 -6 -113 -137 l0 -232 l-83 0 l0 247 q0 56 13.5 94 q13.5 38 39 60.5 q25.5 22.5 62 32 q36.5 9.5 81.5 9.5 l0 112 Z" /><glyph glyph-name="uni04B9" unicode="&#x4b9;" d="M90 0 l0 139 q0 54 10.5 89.5 q10.5 35.5 31 57 q20.5 21.5 51.5 30 q31 8.5 73 8.5 l4 0 l0 108 l63 0 l0 -112 q18 -3 32 -8 q37 -13 55 -24 l0 212 l78 0 l0 -500 l-78 0 l0 221 q-17 13 -52 25 q-16 5 -35 8 l0 -127 l-63 0 l0 130 q-27 -1 -44 -9 q-20 -9 -31 -25.5 q-11 -16.5 -14.5 -39.5 q-3.5 -23 -3.5 -50 l0 -133 l-77 0 Z" /><glyph glyph-name="uni04BA" unicode="&#x4ba;" d="M523 700 l0 -247 q0 -56 -14 -94 q-14 -38 -39 -60.5 q-25 -22.5 -60.5 -32 q-35.5 -9.5 -77.5 -9.5 q-56 0 -100.5 15 q-44.5 15 -71.5 30 l0 -302 l-83 0 l0 700 l83 0 l0 -323 q26 -21 67 -33.5 q41 -12.5 89 -12.5 q124 0 124 137 l0 232 l83 0 Z" /><glyph glyph-name="uni04BC" unicode="&#x4bc;" d="M572 382 q9 -57 9 -107 q0 -68 -10 -121.5 q-10 -53.5 -33 -90 q-23 -36.5 -62.5 -56 q-39.5 -19.5 -97.5 -19.5 q-105 0 -161.5 84.5 q-56.5 84.5 -63.5 240.5 l-15 1 q-17 1 -28 -4.5 q-11 -5.5 -17.5 -15 q-6.5 -9.5 -9 -21 q-2.5 -11.5 -2.5 -23.5 q0 -15 8.5 -35 q8.5 -20 24.5 -33 l-78 0 q-13 13 -20.5 34 q-7.5 21 -7.5 43 q0 54 30.5 88.5 q30.5 34.5 97.5 34.5 l17 0 q7 173 69.5 251.5 q62.5 78.5 179.5 78.5 q62 0 107 -21.5 q45 -21.5 73 -51.5 l-37 -57 q-23 22 -57.5 39 q-34.5 17 -79.5 17 q-47 0 -77.5 -15.5 q-30.5 -15.5 -50 -47 q-19.5 -31.5 -29.5 -80 q-10 -48.5 -14 -113.5 l335 0 ZM236 312 q5 -120 39 -187 q34 -67 104 -67 q40 0 64 16.5 q24 16.5 36 44.5 q12 28 15.5 64 q3.5 36 3.5 76 q0 13 -1 26 q-1 13 -3 27 l-258 0 Z" /><glyph glyph-name="uni04BD" unicode="&#x4bd;" d="M530 403 q-17 16 -51 27.5 q-34 11.5 -68 11.5 q-44 0 -74.5 -12.5 q-30.5 -12.5 -49.5 -36 q-19 -23.5 -28 -57.5 q-9 -34 -9 -78 l321 0 q6 -40 6 -73 q0 -63 -17 -101.5 q-17 -38.5 -44 -59.5 q-27 -21 -61 -28.5 q-34 -7.5 -68 -7.5 q-94 0 -149.5 52.5 q-55.5 52.5 -67.5 152.5 q-4 1 -11 1 q-20 0 -33.5 -5.5 q-13.5 -5.5 -21.5 -14 q-8 -8.5 -11.5 -19 q-3.5 -10.5 -3.5 -21.5 q0 -32 13.5 -53 q13.5 -21 33.5 -35 l-78 0 q-21 21 -31 42 q-10 21 -10 51 q0 25 8 47 q8 22 25 38 q17 16 43 25.5 q26 9.5 62 9.5 l12 0 q1 58 14.5 104.5 q13.5 46.5 40.5 79.5 q27 33 68.5 51 q41.5 18 97.5 18 q51 0 96.5 -14 q45.5 -14 75.5 -38 l-30 -57 ZM388 58 q53 0 82 30.5 q29 30.5 29 106.5 l-248 0 q7 -75 42.5 -106 q35.5 -31 94.5 -31 Z" /><glyph glyph-name="uni04BE" unicode="&#x4be;" d="M572 234 q9 -57 9 -107 q0 -68 -10 -121.5 q-10 -53.5 -33 -90 q-23 -36.5 -62.5 -56 q-39.5 -19.5 -97.5 -19.5 q-105 0 -161.5 84.5 q-56.5 84.5 -63.5 240.5 l-15 1 q-17 1 -28 -4.5 q-11 -5.5 -17.5 -15 q-6.5 -9.5 -9 -21 q-2.5 -11.5 -2.5 -23.5 q0 -15 8.5 -35 q8.5 -20 24.5 -33 l-78 0 q-13 13 -20.5 34 q-7.5 21 -7.5 43 q0 54 30.5 88.5 q30.5 34.5 97.5 34.5 l17 0 q6 156 56.5 234.5 q50.5 78.5 146.5 92.5 l0 151 l70 0 l0 -149 q53 -5 91.5 -25 q38.5 -20 64.5 -47 l-37 -57 q-23 22 -57.5 39 q-34.5 17 -79.5 17 q-47 0 -77.5 -15.5 q-30.5 -15.5 -50 -47 q-19.5 -31.5 -29.5 -80 q-10 -48.5 -14 -113.5 l335 0 ZM236 164 q5 -120 39 -187 q34 -67 104 -67 q40 0 64 16.5 q24 16.5 36 44.5 q12 28 15.5 64 q3.5 36 3.5 76 q0 13 -1 26 q-1 13 -3 27 l-258 0 Z" /><glyph glyph-name="uni04BF" unicode="&#x4bf;" d="M530 255 q-17 16 -51 27.5 q-34 11.5 -68 11.5 q-44 0 -74.5 -12.5 q-30.5 -12.5 -49.5 -36 q-19 -23.5 -28 -57.5 q-9 -34 -9 -78 l321 0 q6 -40 6 -73 q0 -63 -17 -101.5 q-17 -38.5 -44 -59.5 q-27 -21 -61 -28.5 q-34 -7.5 -68 -7.5 q-94 0 -149.5 52.5 q-55.5 52.5 -67.5 152.5 q-4 1 -11 1 q-20 0 -33.5 -5.5 q-13.5 -5.5 -21.5 -14 q-8 -8.5 -11.5 -19 q-3.5 -10.5 -3.5 -21.5 q0 -32 13.5 -53 q13.5 -21 33.5 -35 l-78 0 q-21 21 -31 42 q-10 21 -10 51 q0 25 8 47 q8 22 25 38 q17 16 43 25.5 q26 9.5 62 9.5 l12 0 q1 105 45.5 172 q44.5 67 136.5 78 l0 151 l68 0 l0 -150 q43 -4 80 -16.5 q37 -12.5 63 -33.5 l-30 -57 ZM388 -90 q53 0 82 30.5 q29 30.5 29 106.5 l-248 0 q7 -75 42.5 -106 q35.5 -31 94.5 -31 Z" /><glyph glyph-name="uni04C3" unicode="&#x4c3;" d="M456 418 q0 58 -7 97.5 q-7 39.5 -23.5 64 q-16.5 24.5 -43 35.5 q-26.5 11 -66.5 11 l0 73 q8 1 14.5 1 q6.5 0 13.5 0 q45 0 81 -14.5 q36 -14.5 61.5 -46.5 q25.5 -32 39 -83 q13.5 -51 13.5 -123 l0 -18 q0 -280 -216 -301 l241 -325 l-96 0 l-225 312 l-75 0 l0 -312 l-83 0 l0 700 l83 0 l0 -324 l62 0 q115 0 170.5 58.5 q55.5 58.5 55.5 194.5 Z" /><glyph glyph-name="uni04C4" unicode="&#x4c4;" d="M448 270 q0 46 -9.5 76.5 q-9.5 30.5 -29 49 q-19.5 18.5 -48 26.5 q-28.5 8 -66.5 8 q-5 0 -19 0 q-14 0 -19 -1 l0 69 q9 2 27.5 2 q18.5 0 26.5 0 q48 0 87.5 -13 q39.5 -13 68.5 -42 q29 -29 45 -74 q16 -45 16 -110 q0 -37 -7.5 -77.5 q-7.5 -40.5 -29.5 -75 q-22 -34.5 -62.5 -58.5 q-40.5 -24 -107.5 -29 l211 -235 l-94 0 l-197 224 l-55 0 l0 -224 l-77 0 l0 500 l77 0 l0 -216 l44 0 q105 -1 161.5 47 q56.5 48 56.5 153 Z" /><glyph glyph-name="uni04C5" unicode="&#x4c5;" d="M441 570 l76 0 l-45 130 l74 0 l71 -200 l-93 0 l0 -630 l-350 0 q-3 128 -9 223.5 q-6 95.5 -15.5 164.5 q-9.5 69 -22 114 q-12.5 45 -26.5 72 q-16 30 -32.5 41 q-16.5 11 -33.5 11 q-11 0 -21 -3 l-11 72 q12 5 25 7.5 q13 2.5 31 2.5 q35 0 65 -22 q30 -22 52 -70 q33 -74 49.5 -206.5 q16.5 -132.5 26.5 -332.5 l189 0 l0 626 Z" /><glyph glyph-name="uni04C6" unicode="&#x4c6;" d="M406 370 l84 0 l-45 130 l74 0 l71 -197 l-106 0 l0 -433 l-324 0 q-3 105 -8 178.5 q-5 73.5 -12.5 122 q-7.5 48.5 -18 75 q-10.5 26.5 -23.5 38.5 q-13 12 -29.5 12 q-16.5 0 -35.5 -5 l-13 74 q13 5 22 7 q9 2 29 2 q52 0 82.5 -34 q30.5 -34 47 -93 q16.5 -59 22.5 -138.5 q6 -79.5 10 -170.5 l173 0 l0 432 Z" /><glyph glyph-name="uni04C7" unicode="&#x4c7;" d="M531 -212 l-83 0 l0 305 l-296 0 l0 -305 l-83 0 l0 700 l83 0 l0 -321 l296 0 l0 321 q0 36 -2 62.5 q-2 26.5 -10 44 q-8 17.5 -24.5 25.5 q-16.5 8 -44.5 8 l0 70 q8 2 15.5 2 q7.5 0 15.5 0 q70 0 101.5 -46 q31.5 -46 31.5 -139 l0 -727 Z" /><glyph glyph-name="uni04C8" unicode="&#x4c8;" d="M438 288 q0 36 -2.5 63 q-2.5 27 -11.5 44.5 q-9 17.5 -25.5 26 q-16.5 8.5 -44.5 8.5 l0 68 q8 1 15 1.5 q7 0.5 15 0.5 q70 0 102 -46 q32 -46 32 -139 l0 -527 l-80 0 l0 209 l-276 0 l0 -209 l-80 0 l0 500 l80 0 l0 -221 l276 0 l0 221 Z" /><glyph glyph-name="uni04C9" unicode="&#x4c9;" d="M416 570 l87 0 l-45 130 l74 0 l71 -200 l-104 0 l0 -630 l-83 0 l0 305 l-276 0 l0 -305 l-83 0 l0 700 l83 0 l0 -321 l276 0 l0 321 Z" /><glyph glyph-name="uni04CA" unicode="&#x4ca;" d="M414 370 l83 0 l-45 130 l74 0 l71 -197 l-105 0 l0 -433 l-78 0 l0 208 l-269 0 l0 -208 l-77 0 l0 500 l77 0 l0 -222 l269 0 l0 222 Z" /><glyph glyph-name="uni04CB" unicode="&#x4cb;" d="M77 -120 l0 247 q0 56 14 94 q14 38 39 60.5 q25 22.5 60 32 q35 9.5 77 9.5 q57 0 101 -15 q44 -15 71 -30 l0 228 l-92 0 l0 194 l70 0 l0 -120 l105 0 l0 -700 l-83 0 l0 323 q-26 21 -67 33.5 q-41 12.5 -88 12.5 q-124 0 -124 -137 l0 -232 l-83 0 Z" /><glyph glyph-name="uni04CC" unicode="&#x4cc;" d="M90 -120 l0 139 q0 54 10.5 89.5 q10.5 35.5 31 57 q20.5 21.5 51.5 30 q31 8.5 73 8.5 q63 0 99.5 -12.5 q36.5 -12.5 54.5 -23.5 l0 148 l-85 0 l0 184 l68 0 l0 -120 l95 0 l0 -500 l-78 0 l0 221 q-17 13 -52 24.5 q-35 11.5 -89 11.5 q-33 0 -53 -9 q-20 -9 -31 -25.5 q-11 -16.5 -14.5 -39.5 q-3.5 -23 -3.5 -50 l0 -133 l-77 0 Z" /><glyph glyph-name="uni04CD" unicode="&#x4cd;" d="M437 570 l87 0 l-45 130 l74 0 l71 -200 l-104 0 l0 -630 l-75 0 l-160 266 l-2 0 l-166 -266 l-77 0 l0 700 l81 0 l0 -466 l-12 -94 l5 0 l46 85 l107 172 l25 0 l102 -171 l48 -86 l5 0 l-10 95 l0 465 Z" /><glyph glyph-name="uni04CE" unicode="&#x4ce;" d="M458 370 l83 0 l-45 130 l74 0 l71 -197 l-105 0 l0 -433 l-80 0 l-152 251 l-2 0 l-159 -251 l-79 0 l0 500 l74 0 l0 -298 l-5 -70 l4 0 l146 229 l28 0 l144 -229 l5 0 l-2 71 l0 297 Z" /><glyph glyph-name="uni04CF" unicode="&#x4cf;" d="M120 67 l140 0 l0 633 l218 0 l0 -67 l-138 0 l0 -633 l-220 0 l0 67 Z" /><glyph glyph-name="uni04D8" unicode="&#x4d8;" d="M452 378 q-1 131 -40.5 197.5 q-39.5 66.5 -122.5 66.5 q-39 0 -67.5 -18 q-28.5 -18 -47 -47 q-18.5 -29 -27.5 -67 q-9 -38 -9 -79 q0 -14 1 -26.5 q1 -12.5 3 -26.5 l310 0 ZM65 308 q-5 30 -7.5 58.5 q-2.5 28.5 -2.5 54.5 q0 67 16 121 q16 54 46 91.5 q30 37.5 73.5 58 q43.5 20.5 97.5 20.5 q124 0 185.5 -94 q61.5 -94 61.5 -268 q0 -96 -17 -165 q-17 -69 -49.5 -112.5 q-32.5 -43.5 -79 -64 q-46.5 -20.5 -106.5 -20.5 q-62 0 -112 15 q-50 15 -80 33 l21 67 q11 -7 28 -14 q17 -7 37.5 -13 q20.5 -6 43.5 -10 q23 -4 46 -4 q93 0 134.5 59.5 q41.5 59.5 50.5 186.5 l-387 0 Z" /><glyph glyph-name="afii10846" unicode="&#x4d9;" d="M111 120 q10 -9 27.5 -20 q17.5 -11 39 -20 q21.5 -9 47 -15.5 q25.5 -6.5 52.5 -6.5 q81 0 127.5 44.5 q46.5 44.5 50.5 114.5 l-387 0 q-10 83 7 139 q17 56 49.5 91 q32.5 35 75 50 q42.5 15 84.5 15 q58 0 105 -17.5 q47 -17.5 80 -50.5 q33 -33 50.5 -82 q17.5 -49 17.5 -112 q0 -60 -16 -108 q-16 -48 -47 -82.5 q-31 -34.5 -77 -53 q-46 -18.5 -106 -18.5 q-64 0 -118.5 19 q-54.5 19 -94.5 51 l33 62 ZM302 446 q-38 0 -67 -12 q-29 -12 -49 -33.5 q-20 -21.5 -30.5 -50.5 q-10.5 -29 -10.5 -63 l307 0 q0 41 -14 71 q-14 30 -35.5 49.5 q-21.5 19.5 -48 29 q-26.5 9.5 -52.5 9.5 Z" /><glyph glyph-name="uni04E0" unicode="&#x4e0;" d="M67 171 l74 0 l0 -109 l260 0 l-182 230 l0 55 l58 0 q94 0 147.5 33 q53.5 33 53.5 103 q0 33 -14.5 59.5 q-14.5 26.5 -40 45 q-25.5 18.5 -60 28.5 q-34.5 10 -73.5 10 q-48 0 -85.5 -10 q-37.5 -10 -65.5 -23 l0 -116 l-74 0 l0 158 q27 23 84.5 44 q57.5 21 139.5 21 q58 0 107 -15 q49 -15 85 -44 q36 -29 56.5 -70.5 q20.5 -41.5 20.5 -95.5 q0 -45 -16.5 -81 q-16.5 -36 -46.5 -61 q-30 -25 -72 -38.5 q-42 -13.5 -92 -13.5 l-10 0 l191 -240 l0 -53 l-445 0 l0 183 Z" /><glyph glyph-name="uni04E1" unicode="&#x4e1;" d="M98 -25 l68 0 l0 -115 l231 0 l-179 249 l0 48 l64 0 q82 0 130.5 29.5 q48.5 29.5 48.5 98.5 q0 67 -42.5 106.5 q-42.5 39.5 -122.5 39.5 q-33 0 -66.5 -11.5 q-33.5 -11.5 -61.5 -28.5 l0 -103 l-68 0 l0 142 l-1 2 q18 15 41 27.5 q23 12.5 48.5 21.5 q25.5 9 52.5 14 q27 5 52 5 q55 0 100 -14.5 q45 -14.5 77.5 -43 q32.5 -28.5 50.5 -70.5 q18 -42 18 -96 q0 -43 -15.5 -77 q-15.5 -34 -43.5 -58 q-28 -24 -66 -37 q-38 -13 -84 -13 l-16 0 l179 -231 l0 -72 l-395 0 l0 187 Z" /><glyph glyph-name="uni04F6" unicode="&#x4f6;" d="M70 -46 l96 0 l0 552 l-96 0 l0 74 l266 0 l0 120 l70 0 l0 -194 l-157 0 l0 -552 l227 0 l0 109 l74 0 l0 -183 l-480 0 l0 74 Z" /><glyph glyph-name="uni04F7" unicode="&#x4f7;" d="M408 380 l0 120 l68 0 l0 -187 l-202 0 l0 -365 l174 0 l0 119 l68 0 l0 -187 l-444 0 l0 68 l124 0 l0 365 l-124 0 l0 67 l336 0 Z" /><glyph glyph-name="uni04FC" unicode="&#x4fc;" d="M418 386 q10 15 21.5 34 q11.5 19 22 41 q10.5 22 17.5 47 q7 25 7 53 q0 32 -19 50.5 q-19 18.5 -69 18.5 l0 68 q8 2 15.5 2 q7.5 0 15.5 0 q71 0 104 -38 q33 -38 33 -105 q0 -58 -22 -108.5 q-22 -50.5 -53 -99.5 l-140 -222 l219 -337 l-92 0 l-149 237 l-24 47 l-25 -47 l-140 -237 l-100 0 l211 344 l-231 356 l93 0 l160 -251 l26 -50 l27 50 l92 147 Z" /><glyph glyph-name="uni04FD" unicode="&#x4fd;" d="M382 191 q10 14 23 33 q13 19 24 40.5 q11 21.5 18.5 44 q7.5 22.5 7.5 42.5 q0 45 -25.5 62 q-25.5 17 -82.5 17 l0 68 q7 1 15 1.5 q8 0.5 16 0.5 q72 0 114.5 -38 q42.5 -38 42.5 -116 q0 -24 -8 -49.5 q-8 -25.5 -21 -51 q-13 -25.5 -29 -49 q-16 -23.5 -31 -43.5 l-97 -125 l193 -240 l-90 0 l-148 188 l-144 -188 l-100 0 l193 244 l-207 256 l91 0 l162 -205 l83 108 Z" /><glyph glyph-name="uni0510" unicode="&#x510;" d="M445 175 l74 0 l0 -130 q-13 -11 -34.5 -21.5 q-21.5 -10.5 -48 -18.5 q-26.5 -8 -55 -12.5 q-28.5 -4.5 -55.5 -4.5 q-47 0 -90.5 10 q-43.5 10 -76.5 31 q-33 21 -52.5 53.5 q-19.5 32.5 -19.5 77.5 q0 25 8 50 q8 25 23.5 47 q15.5 22 39.5 39.5 q24 17.5 57 27.5 l0 4 q-71 11 -110 59 q-39 48 -39 116 q0 54 21 93 q21 39 56 65 q35 26 80.5 38.5 q45.5 12.5 94.5 12.5 q81 0 135 -19 q54 -19 84 -42 l0 -130 l-74 0 l0 88 q-28 14 -62 21.5 q-34 7.5 -72 7.5 q-32 0 -63.5 -8.5 q-31.5 -8.5 -56 -26 q-24.5 -17.5 -40 -43.5 q-15.5 -26 -15.5 -62 q0 -62 44 -92 q44 -30 115 -35 q11 -1 21.5 -1.5 q10.5 -0.5 22.5 -0.5 l55 0 l0 -70 l-16 0 q-18 0 -41 -1 q-23 -1 -40 -3 q-26 -4 -51 -14 q-25 -10 -45 -26 q-20 -16 -32 -37.5 q-12 -21.5 -12 -49.5 q0 -29 12 -49.5 q12 -20.5 32.5 -33 q20.5 -12.5 47.5 -18 q27 -5.5 58 -5.5 q29 0 60 7 q31 7 60 18 l0 88 Z" /><glyph glyph-name="uni0511" unicode="&#x511;" d="M423 170 l72 0 l0 -136 q-15 -9 -37 -16.5 q-22 -7.5 -48.5 -13.5 q-26.5 -6 -55 -9.5 q-28.5 -3.5 -56.5 -3.5 q-91 0 -143.5 31 q-52.5 31 -52.5 93 q0 41 22.5 73.5 q22.5 32.5 64.5 46.5 l0 4 q-57 15 -81.5 41.5 q-24.5 26.5 -24.5 77.5 q0 69 57.5 109 q57.5 40 168.5 40 q30 0 62 -6 q32 -6 61.5 -15.5 q29.5 -9.5 53 -21 q23.5 -11.5 37.5 -23.5 l-28 -64 q-14 12 -37 22.5 q-23 10.5 -50 19 q-27 8.5 -55.5 13.5 q-28.5 5 -53.5 5 q-62 0 -99 -23.5 q-37 -23.5 -37 -61.5 q0 -36 30 -54 q30 -18 99 -18 l68 0 l0 -65 l-80 0 q-18 0 -35.5 -7 q-17.5 -7 -31.5 -18.5 q-14 -11.5 -22.5 -26.5 q-8.5 -15 -8.5 -31 q0 -39 34.5 -55 q34.5 -16 103.5 -16 q23 0 51 4.5 q28 4.5 52 11.5 l0 93 Z" /><glyph glyph-name="uni0512" unicode="&#x512;" d="M521 -212 l-340 0 q-3 128 -9 223.5 q-6 95.5 -15.5 164.5 q-9.5 69 -21.5 114 q-12 45 -26 72 q-16 30 -33 41 q-17 11 -34 11 q-11 0 -21 -3 l-13 72 q23 10 58 10 q35 0 64.5 -22 q29.5 -22 51.5 -70 q34 -74 50.5 -206.5 q16.5 -132.5 26.5 -332.5 l179 0 l0 626 q0 39 -2 66 q-2 27 -10 44 q-8 17 -24.5 24.5 q-16.5 7.5 -44.5 7.5 l0 68 q8 1 15 1.5 q7 0.5 15 0.5 q70 0 102 -46 q32 -46 32 -139 l0 -727 Z" /><glyph glyph-name="uni0513" unicode="&#x513;" d="M425 288 q0 36 -2.5 63 q-2.5 27 -11.5 44.5 q-9 17.5 -25.5 26 q-16.5 8.5 -44.5 8.5 l0 68 q8 1 15 1.5 q7 0.5 15 0.5 q70 0 102 -46 q32 -46 32 -139 l0 -527 l-338 0 q-3 135 -11 219 q-8 84 -20 131.5 q-12 47.5 -28 64.5 q-16 17 -36 17 q-14 0 -26 -4 l-12 67 q11 5 25 7 q14 2 33 2 q47 0 75 -41 q28 -41 43.5 -105 q15.5 -64 21 -140.5 q5.5 -76.5 8.5 -147.5 l185 0 l0 430 Z" /><glyph glyph-name="uni0524" unicode="&#x524;" d="M417 580 l106 0 l0 120 l70 0 l0 -194 l-93 0 l0 -626 l-430 0 l0 700 l83 0 l0 -626 l264 0 l0 626 Z" /><glyph glyph-name="uni0525" unicode="&#x525;" d="M430 380 l89 0 l0 120 l68 0 l0 -187 l-79 0 l0 -433 l-416 0 l0 500 l77 0 l0 -432 l261 0 l0 432 Z" /><glyph glyph-name="uni0526" unicode="&#x526;" d="M519 571 l0 129 l70 0 l0 -203 l-92 0 l0 -173 q0 -56 -14 -94 q-14 -38 -39 -60.5 q-25 -22.5 -60.5 -32 q-35.5 -9.5 -77.5 -9.5 q-56 0 -100.5 15 q-44.5 15 -71.5 30 l0 -302 l-83 0 l0 700 l83 0 l0 -323 q26 -21 67 -33.5 q41 -12.5 89 -12.5 q124 0 124 137 l0 232 l105 0 Z" /><glyph glyph-name="uni1E9E" unicode="&#x1e9e;" d="M226 300 l0 59 l62 0 q172 0 172 137 q0 66 -37.5 105 q-37.5 39 -102.5 39 q-11 0 -26 -1 q-15 -1 -31 -3.5 q-16 -2.5 -30.5 -6 q-14.5 -3.5 -23.5 -9.5 l-13 73 q12 6 29 9.5 q17 3.5 35 5.5 q18 2 34 3 q16 1 25 1 q109 0 169 -58.5 q60 -58.5 60 -166.5 q0 -89 -53.5 -141.5 q-53.5 -52.5 -152.5 -52.5 l-27 0 l189 -222 q-44 -34 -103.5 -58.5 q-59.5 -24.5 -142.5 -24.5 q-64 0 -104 18.5 q-40 18.5 -63 50 q-23 31.5 -31.5 74.5 q-8.5 43 -8.5 91 l0 478 l83 0 l0 -447 q0 -38 2 -73 q2 -35 13 -62 q11 -27 35.5 -43.5 q24.5 -16.5 68.5 -16.5 q22 0 43.5 3 q21.5 3 40.5 8.5 q19 5.5 34 12.5 q15 7 24 15 l-169 203 Z" /><glyph glyph-name="endash" unicode="&#x2013;" d="M88 325 l424 0 l0 -74 l-424 0 l0 74 Z" /><glyph glyph-name="emdash" unicode="&#x2014;" d="M8 325 l584 0 l0 -74 l-584 0 l0 74 Z" /><glyph glyph-name="quoteleft" unicode="&#x2018;" d="M368 722 q0 -26 -18.5 -43 q-18.5 -17 -41.5 -17 q-8 0 -12 1 q0 -34 20.5 -56 q20.5 -22 48.5 -36 l-30 -41 q-14 5 -32 16.5 q-18 11.5 -34.5 31.5 q-16.5 20 -28 49.5 q-11.5 29.5 -11.5 69.5 q0 42 21 63 q21 21 56 21 q26 0 44 -16 q18 -16 18 -43 Z" /><glyph glyph-name="quoteright" unicode="&#x2019;" d="M232 546 q0 26 18.5 43 q18.5 17 41.5 17 q8 0 12 -1 q0 34 -20.5 56 q-20.5 22 -48.5 36 l30 41 q14 -5 32 -16.5 q18 -11.5 34.5 -31.5 q16.5 -20 28 -49.5 q11.5 -29.5 11.5 -69.5 q0 -42 -21 -63 q-21 -21 -56 -21 q-26 0 -44 16 q-18 16 -18 43 Z" /><glyph glyph-name="quotesinglbase" unicode="&#x201a;" d="M232 -94 q0 26 18.5 43 q18.5 17 41.5 17 q8 0 12 -1 q0 34 -20.5 56 q-20.5 22 -48.5 36 l30 41 q14 -5 32 -16.5 q18 -11.5 34.5 -31.5 q16.5 -20 28 -49.5 q11.5 -29.5 11.5 -69.5 q0 -42 -21 -63 q-21 -21 -56 -21 q-26 0 -44 16 q-18 16 -18 43 Z" /><glyph glyph-name="quotedblleft" unicode="&#x201c;" d="M268 722 q0 -26 -18.5 -43 q-18.5 -17 -41.5 -17 q-8 0 -12 1 q0 -34 20.5 -56 q20.5 -22 48.5 -36 l-30 -41 q-14 5 -32 16.5 q-18 11.5 -34.5 31.5 q-16.5 20 -28 49.5 q-11.5 29.5 -11.5 69.5 q0 42 21 63 q21 21 56 21 q26 0 44 -16 q18 -16 18 -43 ZM468 722 q0 -26 -18.5 -43 q-18.5 -17 -41.5 -17 q-8 0 -12 1 q0 -34 20.5 -56 q20.5 -22 48.5 -36 l-30 -41 q-14 5 -32 16.5 q-18 11.5 -34.5 31.5 q-16.5 20 -28 49.5 q-11.5 29.5 -11.5 69.5 q0 42 21 63 q21 21 56 21 q26 0 44 -16 q18 -16 18 -43 Z" /><glyph glyph-name="quotedblright" unicode="&#x201d;" d="M132 546 q0 26 18.5 43 q18.5 17 41.5 17 q8 0 12 -1 q0 34 -20.5 56 q-20.5 22 -48.5 36 l30 41 q14 -5 32 -16.5 q18 -11.5 34.5 -31.5 q16.5 -20 28 -49.5 q11.5 -29.5 11.5 -69.5 q0 -42 -21 -63 q-21 -21 -56 -21 q-26 0 -44 16 q-18 16 -18 43 ZM332 546 q0 26 18.5 43 q18.5 17 41.5 17 q8 0 12 -1 q0 34 -20.5 56 q-20.5 22 -48.5 36 l30 41 q14 -5 32 -16.5 q18 -11.5 34.5 -31.5 q16.5 -20 28 -49.5 q11.5 -29.5 11.5 -69.5 q0 -42 -21 -63 q-21 -21 -56 -21 q-26 0 -44 16 q-18 16 -18 43 Z" /><glyph glyph-name="quotedblbase" unicode="&#x201e;" d="M132 -94 q0 26 18.5 43 q18.5 17 41.5 17 q8 0 12 -1 q0 34 -20.5 56 q-20.5 22 -48.5 36 l30 41 q14 -5 32 -16.5 q18 -11.5 34.5 -31.5 q16.5 -20 28 -49.5 q11.5 -29.5 11.5 -69.5 q0 -42 -21 -63 q-21 -21 -56 -21 q-26 0 -44 16 q-18 16 -18 43 ZM332 -94 q0 26 18.5 43 q18.5 17 41.5 17 q8 0 12 -1 q0 34 -20.5 56 q-20.5 22 -48.5 36 l30 41 q14 -5 32 -16.5 q18 -11.5 34.5 -31.5 q16.5 -20 28 -49.5 q11.5 -29.5 11.5 -69.5 q0 -42 -21 -63 q-21 -21 -56 -21 q-26 0 -44 16 q-18 16 -18 43 Z" /><glyph glyph-name="dagger" unicode="&#x2020;" d="M97 70 l163 0 l0 429 l15 201 l50 0 l15 -200 l0 -430 l163 0 l0 -72 l-163 0 l0 -198 l-80 0 l0 198 l-163 0 l0 72 Z" /><glyph glyph-name="daggerdbl" unicode="&#x2021;" d="M260 254 l-163 0 l0 72 l163 0 l0 173 l16 201 l48 0 l16 -200 l0 -174 l163 0 l0 -72 l-163 0 l0 -184 l163 0 l0 -72 l-163 0 l0 -198 l-80 0 l0 198 l-163 0 l0 72 l163 0 l0 184 Z" /><glyph glyph-name="bullet" unicode="&#x2022;" d="M161 311 q0 33 11 58.5 q11 25.5 29.5 43.5 q18.5 18 44 27.5 q25.5 9.5 54.5 9.5 q29 0 54.5 -9.5 q25.5 -9.5 44 -27.5 q18.5 -18 29.5 -43.5 q11 -25.5 11 -58.5 q0 -33 -11 -58.5 q-11 -25.5 -29.5 -43.5 q-18.5 -18 -44 -27.5 q-25.5 -9.5 -54.5 -9.5 q-29 0 -54.5 10 q-25.5 10 -44 28.5 q-18.5 18.5 -29.5 44 q-11 25.5 -11 56.5 Z" /><glyph glyph-name="perthousand" unicode="&#x2030;" d="M20 150 q0 83 30.5 116 q30.5 33 77.5 33 q23 0 42.5 -7.5 q19.5 -7.5 34 -25 q14.5 -17.5 23 -46 q8.5 -28.5 8.5 -70.5 q0 -42 -8.5 -71 q-8.5 -29 -23 -46.5 q-14.5 -17.5 -34 -25 q-19.5 -7.5 -42.5 -7.5 q-47 0 -77.5 35.5 q-30.5 35.5 -30.5 114.5 ZM80 150 q0 -56 12.5 -76.5 q12.5 -20.5 35.5 -20.5 q23 0 35.5 20.5 q12.5 20.5 12.5 76.5 q0 58 -13 77 q-13 19 -35 19 q-21 0 -34.5 -21 q-13.5 -21 -13.5 -75 ZM115 563 q0 83 30.5 116 q30.5 33 77.5 33 q23 0 42.5 -7.5 q19.5 -7.5 34 -25 q14.5 -17.5 23 -46 q8.5 -28.5 8.5 -70.5 q0 -42 -8.5 -71 q-8.5 -29 -23 -46.5 q-14.5 -17.5 -34 -25 q-19.5 -7.5 -42.5 -7.5 q-47 0 -77.5 35.5 q-30.5 35.5 -30.5 114.5 ZM175 563 q0 -56 12.5 -76.5 q12.5 -20.5 35.5 -20.5 q23 0 35.5 20.5 q12.5 20.5 12.5 76.5 q0 58 -13 77 q-13 19 -35 19 q-21 0 -34.5 -21 q-13.5 -21 -13.5 -75 ZM365 563 q0 83 30.5 116 q30.5 33 77.5 33 q23 0 42.5 -7.5 q19.5 -7.5 34 -25 q14.5 -17.5 23 -46 q8.5 -28.5 8.5 -70.5 q0 -42 -8.5 -71 q-8.5 -29 -23 -46.5 q-14.5 -17.5 -34 -25 q-19.5 -7.5 -42.5 -7.5 q-47 0 -77.5 35.5 q-30.5 35.5 -30.5 114.5 ZM425 563 q0 -56 12.5 -76.5 q12.5 -20.5 35.5 -20.5 q23 0 35.5 20.5 q12.5 20.5 12.5 76.5 q0 58 -13 77 q-13 19 -35 19 q-21 0 -34.5 -21 q-13.5 -21 -13.5 -75 ZM30 393 l19 47 l480 -210 l-19 -47 l-480 210 Z" /><glyph glyph-name="guilsinglleft" unicode="&#x2039;" d="M373 518 l57 -49 l-163 -199 l156 -202 l-58 -48 l-195 254 l203 244 Z" /><glyph glyph-name="guilsinglright" unicode="&#x203a;" d="M430 274 l-195 -254 l-58 48 l156 202 l-163 199 l57 49 l203 -244 Z" /><glyph glyph-name="fraction" unicode="&#x2044;" d="M30 677 l52 36 l487 -690 l-52 -35 l-487 689 Z" /><glyph glyph-name="uni2081" unicode="&#x2081;" d="M134 320 l351 0 l0 -61 l-135 0 l0 -359 l-56 0 l-166 99 l27 55 l125 -70 l0 275 l-146 0 l0 61 Z" /><glyph glyph-name="uni2082" unicode="&#x2082;" d="M445 32 q0 -33 -11.5 -57.5 q-11.5 -24.5 -31 -41 q-19.5 -16.5 -46.5 -25 q-27 -8.5 -58 -8.5 q-32 0 -60 7.5 q-28 7.5 -50 18 q-22 10.5 -38 22 q-16 11.5 -25 20.5 l32 49 q8 -7 21 -16.5 q13 -9.5 29.5 -17.5 q16.5 -8 36 -13.5 q19.5 -5.5 42.5 -5.5 q15 0 30.5 4 q15.5 4 28.5 13.5 q13 9.5 21.5 24 q8.5 14.5 8.5 35.5 q0 23 -15 45.5 q-15 22.5 -39 44 q-24 21.5 -53.5 42 q-29.5 20.5 -58.5 38.5 q-29 18 -54 34 q-25 16 -41 29 l0 53 l351 0 l0 -63 l-246 0 q39 -19 79 -44 q40 -25 73 -54.5 q33 -29.5 53.5 -63 q20.5 -33.5 20.5 -70.5 Z" /><glyph glyph-name="uni2083" unicode="&#x2083;" d="M262 260 q-31 0 -56 -7.5 q-25 -7.5 -44.5 -18.5 q-19.5 -11 -33.5 -22.5 q-14 -11.5 -21 -19.5 l-36 52 q12 17 33 31 q21 14 46 24 q25 10 52 15.5 q27 5.5 51 5.5 q89 0 136 -37 q47 -37 47 -98 q0 -54 -38.5 -87.5 q-38.5 -33.5 -105.5 -34.5 l0 -2 l129 -115 l0 -53 l-316 0 l0 60 l228 0 l-130 122 l0 38 l65 0 q51 0 74.5 20 q23.5 20 23.5 52 q0 37 -28 56 q-28 19 -76 19 Z" /><glyph glyph-name="uni2084" unicode="&#x2084;" d="M477 165 l-83 0 l0 -265 l-65 0 l-236 268 l0 56 l234 0 l0 96 l67 0 l0 -96 l83 0 l0 -59 ZM327 165 l-156 0 l156 -177 l0 177 Z" /><glyph glyph-name="Euro" unicode="&#x20ac;" d="M40 312 l73 0 q-1 11 -1 19 q0 8 0 19 q0 10 0 16.5 q0 6.5 1 15.5 l-55 0 l-18 66 l79 0 q20 134 91.5 199 q71.5 65 185.5 65 q45 0 89.5 -9 q44.5 -9 74.5 -32 l-20 -65 q-23 14 -55.5 23 q-32.5 9 -71.5 9 q-85 0 -138.5 -48 q-53.5 -48 -71.5 -142 l230 0 l17 -66 l-254 0 q-1 -9 -1 -15.5 q0 -6.5 0 -16.5 q0 -11 0 -19 q0 -8 1 -19 l274 0 l17 -66 l-282 0 q10 -49 29.5 -84 q19.5 -35 45 -57.5 q25.5 -22.5 56.5 -32.5 q31 -10 64 -10 q44 0 75 6 q31 6 54 17 l21 -73 q-27 -11 -64 -17.5 q-37 -6.5 -88 -6.5 q-51 0 -96 15 q-45 15 -81.5 46.5 q-36.5 31.5 -62 80.5 q-25.5 49 -37.5 116 l-63 0 l-18 66 Z" /><glyph glyph-name="uni20B4" unicode="&#x20b4;" d="M95 383 l0 66 l92 0 q-6 8 -15.5 22 q-9.5 14 -18.5 31 q-9 17 -15 36.5 q-6 19.5 -6 37.5 q0 65 47 100.5 q47 35.5 143 35.5 q69 0 108.5 -11 q39.5 -11 62.5 -25 l-24 -64 q-23 12 -54 21 q-31 9 -78 9 q-66 0 -94 -19 q-28 -19 -28 -55 q0 -15 5.5 -31.5 q5.5 -16.5 14 -32.5 q8.5 -16 19 -30 q10.5 -14 21.5 -25 l229 0 l0 -66 l-409 0 ZM504 312 l0 -66 l-89 0 q22 -25 37 -60 q15 -35 15 -73 q0 -63 -43 -94 q-43 -31 -128 -31 q-31 0 -54 2.5 q-23 2.5 -41.5 7 q-18.5 4.5 -33.5 10 q-15 5.5 -29 12.5 l25 67 q23 -11 50.5 -20 q27.5 -9 67.5 -9 q57 0 80 16 q23 16 23 51 q0 31 -14 63.5 q-14 32.5 -39 57.5 l-236 0 l0 66 l409 0 Z" /><glyph glyph-name="uni20B6" unicode="&#x20b6;" d="M57 435 l71 0 l0 71 l-71 0 l0 62 l71 0 l0 140 l83 0 l0 -140 l166 0 l0 -62 l-166 0 l0 -71 l54 0 q61 0 112 -12 q51 -12 88 -38.5 q37 -26.5 57 -69 q20 -42.5 20 -103.5 q0 -64 -21 -105 q-21 -41 -55.5 -65 q-34.5 -24 -79 -33 q-44.5 -9 -90.5 -9 q-43 0 -86.5 3 q-43.5 3 -81.5 12 l0 357 l-71 0 l0 63 ZM298 70 q32 0 60.5 7 q28.5 7 49.5 23.5 q21 16.5 33.5 44 q12.5 27.5 12.5 68.5 q0 48 -15 77.5 q-15 29.5 -39 46 q-24 16.5 -54 22.5 q-30 6 -59 6 l-76 0 l0 -289 q14 -3 37.5 -4.5 q23.5 -1.5 49.5 -1.5 Z" /><glyph glyph-name="afii61289" unicode="&#x2113;" d="M449 620 q-20 11 -50 21.5 q-30 10.5 -55 10.5 q-24 0 -41 -16.5 q-17 -16.5 -17 -60.5 l0 -140 q91 -88 131 -171 q40 -83 40 -157 q0 -60 -31 -89.5 q-31 -29.5 -79 -29.5 q-27 0 -50.5 9.5 q-23.5 9.5 -41 29.5 q-17.5 20 -27.5 51.5 q-10 31.5 -10 75.5 l0 254 l-85 74 l35 44 l50 -44 l0 104 q0 65 28.5 95.5 q28.5 30.5 91.5 30.5 q35 0 70.5 -14 q35.5 -14 57.5 -28 l-17 -50 ZM393 112 q0 57 -25.5 117.5 q-25.5 60.5 -81.5 125.5 l0 -212 q0 -30 5 -48.5 q5 -18.5 13.5 -29 q8.5 -10.5 19.5 -14 q11 -3.5 23 -3.5 q18 0 32 15 q14 15 14 49 Z" /><glyph glyph-name="afii61352" unicode="&#x2116;" d="M391 451 l195 0 l0 -72 l-195 0 l0 72 ZM278 712 l55 0 l0 -700 l-75 0 l0 357 l6 113 l-5 0 l-199 -470 l-56 0 l0 700 l75 0 l0 -367 l-5 -108 l4 0 l200 475 ZM369 170 q0 49 9.5 81.5 q9.5 32.5 26 52 q16.5 19.5 38 27.5 q21.5 8 44.5 8 q23 0 44 -8 q21 -8 37.5 -27.5 q16.5 -19.5 26.5 -52 q10 -32.5 10 -81.5 q0 -50 -10 -82.5 q-10 -32.5 -26.5 -52 q-16.5 -19.5 -37.5 -27.5 q-21 -8 -44 -8 q-23 0 -44.5 9 q-21.5 9 -38 29 q-16.5 20 -26 52.5 q-9.5 32.5 -9.5 79.5 ZM439 170 q0 -36 3.5 -57.5 q3.5 -21.5 9.5 -33 q6 -11.5 15 -15 q9 -3.5 20 -3.5 q11 0 20 4 q9 4 15 15.5 q6 11.5 9.5 33 q3.5 21.5 3.5 56.5 q0 36 -3.5 57.5 q-3.5 21.5 -9.5 33 q-6 11.5 -15 14.5 q-9 3 -20 3 q-11 0 -19.5 -4 q-8.5 -4 -15 -16 q-6.5 -12 -10 -33 q-3.5 -21 -3.5 -55 Z" /><glyph glyph-name="trademark" unicode="&#x2122;" d="M259 340 l-236 0 l0 62 l84 0 l0 298 l67 0 l0 -298 l85 0 l0 -62 ZM516 700 l60 0 l0 -360 l-66 0 l-79 144 l-82 -144 l-66 0 l0 360 l59 0 l0 -168 l-7 -102 l3 0 l82 155 l15 0 l81 -155 l4 0 l-4 103 l0 167 Z" /><glyph glyph-name="estimated" unicode="&#x212e;" d="M558 259 q-2 -57 -19 -107 q-17 -50 -50 -87.5 q-33 -37.5 -80.5 -59.5 q-47.5 -22 -109.5 -22 q-58 0 -105.5 21 q-47.5 21 -81.5 58 q-34 37 -52.5 87.5 q-18.5 50.5 -18.5 109.5 q0 58 18 108.5 q18 50.5 51.5 87.5 q33.5 37 81.5 58.5 q48 21.5 107 21.5 q73 0 129 -34.5 q56 -34.5 99 -100.5 l-35 -21 q-69 120 -193 120 q-83 0 -145 -59 l0 -181 l404 0 ZM154 223 l0 -145 q58 -60 144 -60 q84 0 147 60 l0 145 l-291 0 Z" /><glyph glyph-name="arrowleft" unicode="&#x2190;" d="M132 50 q-74 81 -131 105 l0 15 q31 14 61 38 q30 24 70 69 l25 0 q-30 -63 -63 -97 l505 0 l0 -33 l-505 0 q25 -30 34 -45 q9 -15 28 -52 l-24 0 Z" /><glyph glyph-name="arrowup" unicode="&#x2191;" d="M186 19 q38 -19 53 -28.5 q15 -9.5 45 -33.5 l0 467 l32 0 l0 -467 q34 33 98 63 l0 -25 q-46 -40 -69.5 -70 q-23.5 -30 -38.5 -61 l-14 0 q-25 56 -106 131 l0 24 Z" /><glyph glyph-name="arrowright" unicode="&#x2192;" d="M444 50 q19 37 28.5 52.5 q9.5 15.5 33.5 44.5 l-505 0 l0 33 l505 0 q-33 34 -63 97 l25 0 q40 -45 69.5 -69 q29.5 -24 61.5 -38 l0 -15 q-57 -24 -131 -105 l-24 0 Z" /><glyph glyph-name="arrowdown" unicode="&#x2193;" d="M186 293 q81 73 106 131 l14 0 q15 -32 38.5 -61.5 q23.5 -29.5 69.5 -69.5 l0 -25 q-64 30 -98 62 l0 -466 l-32 0 l0 467 q-30 -24 -45 -33.5 q-15 -9.5 -53 -28.5 l0 24 Z" /><glyph glyph-name="arrowboth" unicode="&#x2194;" d="M599 157 q-30 -14 -58 -36.5 q-28 -22.5 -71 -70.5 l-25 0 q22 55 61 99 l-413 0 q40 -44 62 -99 l-26 0 q-42 48 -70 70.5 q-28 22.5 -58 36.5 l0 14 q29 14 58 37 q29 23 70 70 l26 0 q-22 -54 -62 -98 l413 0 q-39 44 -61 98 l25 0 q41 -47 70.5 -70 q29.5 -23 58.5 -37 l0 -14 Z" /><glyph glyph-name="arrowupdn" unicode="&#x2195;" d="M292 -135 q-13 30 -36 59 q-23 29 -70 70 l0 25 q54 -22 98 -62 l0 413 q-43 -39 -98 -61 l0 25 q46 41 69.5 70 q23.5 29 36.5 59 l15 0 q28 -60 107 -129 l0 -25 q-55 22 -99 61 l0 -413 q45 40 99 62 l0 -25 q-80 -69 -107 -129 l-15 0 Z" /><glyph glyph-name="arrowupdnbse" unicode="&#x21a8;" d="M292 -196 q-13 30 -36 59 q-23 29 -70 70 l0 25 q54 -22 98 -62 l0 413 q-43 -39 -98 -61 l0 25 q46 41 69.5 70 q23.5 29 36.5 59 l15 0 q28 -60 107 -129 l0 -25 q-55 22 -99 61 l0 -413 q45 40 99 62 l0 -25 q-80 -69 -107 -129 l-15 0 ZM187 463 l227 0 l0 -30 l-227 0 l0 30 Z" /><glyph glyph-name="partialdiff" unicode="&#x2202;" d="M340 190 q-66 0 -116 29 q-50 29 -83.5 75.5 q-33.5 46.5 -50.5 105 q-17 58.5 -17 118.5 q0 93 48 143.5 q48 50.5 144 50.5 q57 0 105.5 -25.5 q48.5 -25.5 83 -77.5 q34.5 -52 54 -131.5 q19.5 -79.5 19.5 -187.5 q0 -87 -20 -145 q-20 -58 -58 -93 q-38 -35 -92.5 -49.5 q-54.5 -14.5 -122.5 -14.5 l-15 66 q5 -1 10.5 -1 q5.5 0 10.5 0 q34 0 69 9 q35 9 64 28.5 q29 19.5 48.5 51 q19.5 31.5 22.5 77.5 l-5 0 q-17 -14 -37 -21.5 q-20 -7.5 -62 -7.5 ZM334 260 q42 0 67 12.5 q25 12.5 43 33.5 q0 57 -8 117 q-8 60 -28 108.5 q-20 48.5 -53 79.5 q-33 31 -83 31 q-32 0 -54 -10 q-22 -10 -36 -26.5 q-14 -16.5 -20 -38 q-6 -21.5 -6 -44.5 q0 -57 14 -105 q14 -48 38.5 -83.5 q24.5 -35.5 57 -55 q32.5 -19.5 68.5 -19.5 Z" /><glyph glyph-name="product" unicode="&#x220f;" d="M471 700 l83 0 l0 -900 l-509 0 l0 900 l83 0 l0 -826 l343 0 l0 826 Z" /><glyph glyph-name="summation" unicode="&#x2211;" d="M406 244 l-241 -370 l361 0 l0 -74 l-453 0 l0 74 l243 374 l-243 378 l0 74 l453 0 l0 -74 l-367 0 l247 -382 Z" /><glyph glyph-name="minus" unicode="&#x2212;" d="M68 374 l464 0 l0 -72 l-464 0 l0 72 Z" /><glyph glyph-name="radical" unicode="&#x221a;" d="M32 243 l0 72 l121 0 l157 385 l31 0 l226 -711 l-75 0 l-167 545 l-2 0 l-115 -291 l-176 0 Z" /><glyph glyph-name="infinity" unicode="&#x221e;" d="M296 416 q10 25 23.5 47 q13.5 22 30 39 q16.5 17 36.5 27 q20 10 44 10 q57 0 91 -50 q34 -50 34 -144 q0 -88 -30.5 -135 q-30.5 -47 -81.5 -47 q-42 0 -76.5 26.5 q-34.5 26.5 -63.5 86.5 q-21 -49 -53.5 -81 q-32.5 -32 -83.5 -32 q-55 0 -88.5 51.5 q-33.5 51.5 -33.5 141.5 q0 85 33.5 134 q33.5 49 83.5 49 q42 0 76.5 -32 q34.5 -32 58.5 -91 ZM430 477 q-17 0 -32 -12.5 q-15 -12.5 -28 -33 q-13 -20.5 -23.5 -47 q-10.5 -26.5 -17.5 -53.5 q23 -48 48 -77 q25 -29 52 -29 q17 0 29 10.5 q12 10.5 19 27.5 q7 17 10 39 q3 22 3 45 q0 57 -15.5 93.5 q-15.5 36.5 -44.5 36.5 ZM169 225 q18 0 33 11 q15 11 27.5 30 q12.5 19 23 43.5 q10.5 24.5 18.5 52.5 q-9 21 -20 41.5 q-11 20.5 -23 37 q-12 16.5 -25.5 26.5 q-13.5 10 -28.5 10 q-32 0 -48.5 -36.5 q-16.5 -36.5 -16.5 -87.5 q0 -26 4 -49 q4 -23 11.5 -40.5 q7.5 -17.5 19 -28 q11.5 -10.5 25.5 -10.5 Z" /><glyph glyph-name="orthogonal" unicode="&#x221f;" d="M1 597 l598 0 l0 -46 l-552 0 l0 -551 l-46 0 l0 597 Z" /><glyph glyph-name="intersection" unicode="&#x2229;" d="M85 702 l64 0 l0 -466 q0 -77 42 -124.5 q42 -47.5 109 -47.5 q66 0 108.5 47.5 q42.5 47.5 42.5 123.5 l0 467 l64 0 l0 -485 q0 -88 -61 -152.5 q-61 -64.5 -154 -64.5 q-94 0 -154.5 65.5 q-60.5 65.5 -60.5 151.5 l0 485 Z" /><glyph glyph-name="integral" unicode="&#x222b;" d="M340 -33 q0 -59 13.5 -82 q13.5 -23 51.5 -23 q24 0 46.5 4.5 q22.5 4.5 45.5 13.5 l21 -64 q-24 -10 -55 -17 q-31 -7 -65 -7 q-72 0 -105 36 q-33 36 -33 114 l0 593 q0 59 -13.5 83 q-13.5 24 -51.5 24 q-45 0 -91 -18 l-22 64 q24 10 55 17 q31 7 66 7 q71 0 104 -36 q33 -36 33 -114 l0 -595 Z" /><glyph glyph-name="notequal" unicode="&#x2260;" d="M88 275 l197 0 l-42 94 l-155 0 l0 72 l124 0 l-67 153 l72 0 l67 -153 l228 0 l0 -72 l-197 0 l42 -94 l155 0 l0 -72 l-124 0 l61 -137 l-72 0 l-61 137 l-228 0 l0 72 Z" /><glyph glyph-name="equivalence" unicode="&#x2261;" d="M531 107 l-462 0 l0 64 l462 0 l0 -64 ZM531 303 l-462 0 l0 64 l462 0 l0 -64 ZM531 499 l-462 0 l0 64 l462 0 l0 -64 Z" /><glyph glyph-name="lessequal" unicode="&#x2264;" d="M143 412 l-35 64 l368 210 l35 -63 l-368 -211 ZM471 500 l38 -60 l-303 -181 l298 -178 l-38 -62 l-378 231 l0 29 l383 221 Z" /><glyph glyph-name="greaterequal" unicode="&#x2265;" d="M472 409 l-367 215 l38 62 l366 -215 l-37 -62 ZM127 19 l-38 60 l306 177 l-301 182 l38 62 l378 -231 l0 -29 l-383 -221 Z" /><glyph glyph-name="house" unicode="&#x2302;" d="M521 190 l-222 -190 l-220 190 l0 328 l442 0 l0 -328 ZM143 220 l156 -135 l158 135 l0 234 l-314 0 l0 -234 Z" /><glyph glyph-name="revlogicalnot" unicode="&#x2310;" d="M531 243 l-462 0 l0 240 l64 0 l0 -176 l398 0 l0 -64 Z" /><glyph glyph-name="integraltp" unicode="&#x2320;" d="M336 -97 q0 -52 3 -68 q4 -19 22 -19 q7 0 24 19 l19 21 q13 8 28 8 q18 0 30.5 -13 q12.5 -13 12.5 -32 q0 -23 -18.5 -38.5 q-18.5 -15.5 -48.5 -15.5 q-63 0 -103.5 60 q-40.5 60 -40.5 156 l0 904 l72 0 l0 -982 Z" /><glyph glyph-name="SF100000" unicode="&#x2500;" d="M600 380 l0 -76 l-600 0 l0 76 l600 0 Z" /><glyph glyph-name="SF110000" unicode="&#x2502;" d="M338 885 l0 -1120 l-76 0 l0 1120 l76 0 Z" /><glyph glyph-name="SF010000" unicode="&#x250c;" d="M338 380 l0 -539 l262 0 l0 -76 l-338 0 l0 615 l76 0 Z" /><glyph glyph-name="SF030000" unicode="&#x2510;" d="M338 380 l0 -615 l-338 0 l0 76 l262 0 l0 539 l76 0 Z" /><glyph glyph-name="SF020000" unicode="&#x2514;" d="M600 885 l0 -76 l-262 0 l0 -504 l-76 0 l0 580 l338 0 Z" /><glyph glyph-name="SF040000" unicode="&#x2518;" d="M338 885 l0 -580 l-76 0 l0 504 l-262 0 l0 76 l338 0 Z" /><glyph glyph-name="SF080000" unicode="&#x251c;" d="M338 885 l0 -539 l262 0 l0 -76 l-262 0 l0 -505 l-76 0 l0 1120 l76 0 Z" /><glyph glyph-name="SF090000" unicode="&#x2524;" d="M338 885 l0 -1120 l-76 0 l0 505 l-262 0 l0 76 l262 0 l0 539 l76 0 Z" /><glyph glyph-name="SF060000" unicode="&#x252c;" d="M338 380 l0 -539 l262 0 l0 -76 l-600 0 l0 76 l262 0 l0 539 l76 0 Z" /><glyph glyph-name="SF070000" unicode="&#x2534;" d="M600 885 l0 -76 l-262 0 l0 -505 l-76 0 l0 505 l-262 0 l0 76 l600 0 Z" /><glyph glyph-name="SF050000" unicode="&#x253c;" d="M338 885 l0 -539 l262 0 l0 -76 l-262 0 l0 -505 l-76 0 l0 505 l-262 0 l0 76 l262 0 l0 539 l76 0 Z" /><glyph glyph-name="SF430000" unicode="&#x2550;" d="M0 456 l600 0 l0 -76 l-600 0 l0 76 ZM600 304 l0 -76 l-600 0 l0 76 l600 0 Z" /><glyph glyph-name="SF240000" unicode="&#x2551;" d="M262 -235 l-76 0 l0 1120 l76 0 l0 -1120 ZM338 885 l76 0 l0 -1120 l-76 0 l0 1120 Z" /><glyph glyph-name="SF510000" unicode="&#x2552;" d="M338 456 l0 -463 l262 0 l0 -76 l-262 0 l0 -76 l262 0 l0 -76 l-338 0 l0 691 l76 0 Z" /><glyph glyph-name="SF520000" unicode="&#x2553;" d="M262 -159 l76 0 l0 539 l76 0 l0 -539 l186 0 l0 -76 l-414 0 l0 615 l76 0 l0 -539 Z" /><glyph glyph-name="SF390000" unicode="&#x2554;" d="M262 -159 l338 0 l0 -76 l-414 0 l0 691 l76 0 l0 -615 ZM414 456 l0 -463 l186 0 l0 -76 l-262 0 l0 539 l76 0 Z" /><glyph glyph-name="SF220000" unicode="&#x2555;" d="M338 456 l0 -691 l-338 0 l0 76 l262 0 l0 76 l-262 0 l0 76 l262 0 l0 463 l76 0 Z" /><glyph glyph-name="SF210000" unicode="&#x2556;" d="M262 -159 l76 0 l0 539 l76 0 l0 -615 l-414 0 l0 76 l186 0 l0 539 l76 0 l0 -539 Z" /><glyph glyph-name="SF250000" unicode="&#x2557;" d="M262 -83 l-262 0 l0 76 l186 0 l0 463 l76 0 l0 -539 ZM414 456 l0 -691 l-414 0 l0 76 l338 0 l0 615 l76 0 Z" /><glyph glyph-name="SF500000" unicode="&#x2558;" d="M600 885 l0 -76 l-262 0 l0 -76 l262 0 l0 -76 l-262 0 l0 -429 l-76 0 l0 657 l338 0 Z" /><glyph glyph-name="SF490000" unicode="&#x2559;" d="M600 885 l0 -76 l-186 0 l0 -505 l-76 0 l0 505 l-76 0 l0 -505 l-76 0 l0 581 l414 0 Z" /><glyph glyph-name="SF380000" unicode="&#x255a;" d="M600 885 l0 -76 l-338 0 l0 -581 l-76 0 l0 657 l414 0 ZM600 657 l-186 0 l0 -429 l-76 0 l0 505 l262 0 l0 -76 Z" /><glyph glyph-name="SF280000" unicode="&#x255b;" d="M0 885 l338 0 l0 -657 l-76 0 l0 429 l-262 0 l0 76 l262 0 l0 76 l-262 0 l0 76 Z" /><glyph glyph-name="SF270000" unicode="&#x255c;" d="M414 885 l0 -581 l-76 0 l0 505 l-76 0 l0 -505 l-76 0 l0 505 l-186 0 l0 76 l414 0 Z" /><glyph glyph-name="SF260000" unicode="&#x255d;" d="M0 885 l414 0 l0 -657 l-76 0 l0 581 l-338 0 l0 76 ZM262 733 l0 -505 l-76 0 l0 429 l-186 0 l0 76 l262 0 Z" /><glyph glyph-name="SF360000" unicode="&#x255e;" d="M338 885 l0 -464 l262 0 l0 -76 l-262 0 l0 -76 l262 0 l0 -76 l-262 0 l0 -428 l-76 0 l0 1120 l76 0 Z" /><glyph glyph-name="SF370000" unicode="&#x255f;" d="M262 885 l0 -1120 l-76 0 l0 1120 l76 0 ZM414 885 l0 -539 l186 0 l0 -76 l-186 0 l0 -505 l-76 0 l0 1120 l76 0 Z" /><glyph glyph-name="SF420000" unicode="&#x2560;" d="M262 885 l0 -1120 l-76 0 l0 1120 l76 0 ZM414 885 l0 -463 l186 0 l0 -76 l-262 0 l0 539 l76 0 ZM600 270 l0 -76 l-186 0 l0 -429 l-76 0 l0 505 l262 0 Z" /><glyph glyph-name="SF190000" unicode="&#x2561;" d="M338 885 l0 -1120 l-76 0 l0 429 l-262 0 l0 76 l262 0 l0 76 l-262 0 l0 76 l262 0 l0 463 l76 0 Z" /><glyph glyph-name="SF200000" unicode="&#x2562;" d="M262 885 l0 -1120 l-76 0 l0 505 l-186 0 l0 76 l186 0 l0 539 l76 0 ZM414 885 l0 -1120 l-76 0 l0 1120 l76 0 Z" /><glyph glyph-name="SF230000" unicode="&#x2563;" d="M262 885 l0 -539 l-262 0 l0 76 l186 0 l0 463 l76 0 ZM414 885 l0 -1120 l-76 0 l0 1120 l76 0 ZM262 269 l0 -504 l-76 0 l0 429 l-186 0 l0 76 l262 -1 Z" /><glyph glyph-name="SF470000" unicode="&#x2564;" d="M0 -7 l262 0 l0 463 l76 0 l0 -463 l262 0 l0 -76 l-600 0 l0 76 ZM600 -159 l0 -76 l-600 0 l0 76 l600 0 Z" /><glyph glyph-name="SF480000" unicode="&#x2565;" d="M186 -159 l0 539 l76 0 l0 -539 l76 0 l0 539 l76 0 l0 -539 l186 0 l0 -76 l-600 0 l0 76 l186 0 Z" /><glyph glyph-name="SF410000" unicode="&#x2566;" d="M0 -7 l186 0 l0 463 l76 0 l0 -539 l-262 0 l0 76 ZM600 -159 l0 -76 l-600 0 l0 76 l600 0 ZM338 -83 l0 539 l76 0 l0 -463 l186 0 l0 -76 l-262 0 Z" /><glyph glyph-name="SF450000" unicode="&#x2567;" d="M0 885 l600 0 l0 -76 l-600 0 l0 76 ZM600 733 l0 -76 l-262 0 l0 -429 l-76 0 l0 429 l-262 0 l0 76 l600 0 Z" /><glyph glyph-name="SF460000" unicode="&#x2568;" d="M600 885 l0 -76 l-186 0 l0 -505 l-76 0 l0 505 l-76 0 l0 -505 l-76 0 l0 505 l-186 0 l0 76 l600 0 Z" /><glyph glyph-name="SF400000" unicode="&#x2569;" d="M0 885 l600 0 l0 -76 l-600 0 l0 76 ZM262 733 l0 -505 l-76 0 l0 429 l-186 0 l0 76 l262 0 ZM600 733 l0 -76 l-186 0 l0 -429 l-76 0 l0 505 l262 0 Z" /><glyph glyph-name="SF540000" unicode="&#x256a;" d="M0 422 l262 0 l0 463 l76 0 l0 -463 l262 0 l0 -76 l-262 0 l0 -76 l262 0 l0 -76 l-262 0 l0 -429 l-76 0 l0 429 l-262 0 l0 76 l262 0 l0 76 l-262 0 l0 76 Z" /><glyph glyph-name="SF530000" unicode="&#x256b;" d="M186 346 l0 539 l76 0 l0 -539 l76 0 l0 539 l76 0 l0 -539 l186 0 l0 -76 l-186 0 l0 -505 l-76 0 l0 505 l-76 0 l0 -505 l-76 0 l0 505 l-186 0 l0 76 l186 0 Z" /><glyph glyph-name="SF440000" unicode="&#x256c;" d="M0 422 l186 0 l0 463 l76 0 l0 -539 l-262 0 l0 76 ZM262 270 l0 -505 l-76 0 l0 429 l-186 0 l0 76 l262 0 ZM600 270 l0 -76 l-186 0 l0 -429 l-76 0 l0 505 l262 0 ZM338 346 l0 539 l76 0 l0 -463 l186 0 l0 -76 l-262 0 Z" /><glyph glyph-name="upblock" unicode="&#x2580;" d="M600 885 l0 -542 l-600 0 l0 542 l600 0 Z" /><glyph glyph-name="dnblock" unicode="&#x2584;" d="M600 343 l0 -578 l-600 0 l0 578 l600 0 Z" /><glyph glyph-name="block" unicode="&#x2588;" d="M600 885 l0 -1120 l-600 0 l0 1120 l600 0 Z" /><glyph glyph-name="lfblock" unicode="&#x258c;" d="M300 885 l0 -1120 l-300 0 l0 1120 l300 0 Z" /><glyph glyph-name="rtblock" unicode="&#x2590;" d="M600 -235 l-300 0 l0 1120 l300 0 l0 -1120 Z" /><glyph glyph-name="ltshade" unicode="&#x2591;" d="M50 53 l50 0 l0 -47 l-50 0 l0 47 ZM250 53 l50 0 l0 -47 l-50 0 l0 47 ZM450 53 l50 0 l0 -47 l-50 0 l0 47 ZM150 146 l50 0 l0 -47 l-50 0 l0 47 ZM350 146 l50 0 l0 -47 l-50 0 l0 47 ZM550 146 l50 0 l0 -47 l-50 0 l0 47 ZM450 238 l50 0 l0 -47 l-50 0 l0 47 ZM250 238 l50 0 l0 -47 l-50 0 l0 47 ZM50 238 l50 0 l0 -47 l-50 0 l0 47 ZM550 331 l50 0 l0 -48 l-50 0 l0 48 ZM350 331 l50 0 l0 -48 l-50 0 l0 48 ZM150 331 l50 0 l0 -48 l-50 0 l0 48 ZM50 423 l50 0 l0 -47 l-50 0 l0 47 ZM250 423 l50 0 l0 -47 l-50 0 l0 47 ZM450 423 l50 0 l0 -47 l-50 0 l0 47 ZM550 515 l50 0 l0 -47 l-50 0 l0 47 ZM350 515 l50 0 l0 -47 l-50 0 l0 47 ZM150 515 l50 0 l0 -47 l-50 0 l0 47 ZM50 608 l50 0 l0 -48 l-50 0 l0 48 ZM250 608 l50 0 l0 -48 l-50 0 l0 48 ZM450 608 l50 0 l0 -48 l-50 0 l0 48 ZM150 700 l50 0 l0 -47 l-50 0 l0 47 ZM350 700 l50 0 l0 -47 l-50 0 l0 47 ZM550 700 l50 0 l0 -47 l-50 0 l0 47 ZM450 793 l50 0 l0 -48 l-50 0 l0 48 ZM250 793 l50 0 l0 -48 l-50 0 l0 48 ZM50 793 l50 0 l0 -48 l-50 0 l0 48 ZM150 885 l50 0 l0 -47 l-50 0 l0 47 ZM350 885 l50 0 l0 -47 l-50 0 l0 47 ZM550 885 l50 0 l0 -47 l-50 0 l0 47 ZM150 -39 l50 0 l0 -47 l-50 0 l0 47 ZM350 -39 l50 0 l0 -47 l-50 0 l0 47 ZM550 -39 l50 0 l0 -47 l-50 0 l0 47 ZM50 -132 l50 0 l0 -46 l-50 0 l0 46 ZM250 -132 l50 0 l0 -46 l-50 0 l0 46 ZM450 -132 l50 0 l0 -46 l-50 0 l0 46 Z" /><glyph glyph-name="shade" unicode="&#x2592;" d="M50 53 l50 0 l0 -47 l-50 0 l0 47 ZM150 53 l50 0 l0 -47 l-50 0 l0 47 ZM250 53 l50 0 l0 -47 l-50 0 l0 47 ZM350 53 l50 0 l0 -47 l-50 0 l0 47 ZM450 53 l50 0 l0 -47 l-50 0 l0 47 ZM550 53 l50 0 l0 -47 l-50 0 l0 47 ZM0 146 l50 0 l0 -47 l-50 0 l0 47 ZM100 146 l50 0 l0 -47 l-50 0 l0 47 ZM200 146 l50 0 l0 -47 l-50 0 l0 47 ZM300 146 l50 0 l0 -47 l-50 0 l0 47 ZM400 146 l50 0 l0 -47 l-50 0 l0 47 ZM500 146 l50 0 l0 -47 l-50 0 l0 47 ZM50 238 l50 0 l0 -47 l-50 0 l0 47 ZM150 238 l50 0 l0 -47 l-50 0 l0 47 ZM250 238 l50 0 l0 -47 l-50 0 l0 47 ZM350 238 l50 0 l0 -47 l-50 0 l0 47 ZM450 238 l50 0 l0 -47 l-50 0 l0 47 ZM550 238 l50 0 l0 -47 l-50 0 l0 47 ZM0 331 l50 0 l0 -48 l-50 0 l0 48 ZM100 331 l50 0 l0 -48 l-50 0 l0 48 ZM200 331 l50 0 l0 -48 l-50 0 l0 48 ZM300 331 l50 0 l0 -48 l-50 0 l0 48 ZM400 331 l50 0 l0 -48 l-50 0 l0 48 ZM500 331 l50 0 l0 -48 l-50 0 l0 48 ZM50 423 l50 0 l0 -47 l-50 0 l0 47 ZM150 423 l50 0 l0 -47 l-50 0 l0 47 ZM250 423 l50 0 l0 -47 l-50 0 l0 47 ZM350 423 l50 0 l0 -47 l-50 0 l0 47 ZM450 423 l50 0 l0 -47 l-50 0 l0 47 ZM550 423 l50 0 l0 -47 l-50 0 l0 47 ZM0 515 l50 0 l0 -47 l-50 0 l0 47 ZM200 515 l50 0 l0 -47 l-50 0 l0 47 ZM300 515 l50 0 l0 -47 l-50 0 l0 47 ZM400 515 l50 0 l0 -47 l-50 0 l0 47 ZM500 515 l50 0 l0 -47 l-50 0 l0 47 ZM100 515 l50 0 l0 -47 l-50 0 l0 47 ZM550 608 l50 0 l0 -48 l-50 0 l0 48 ZM450 608 l50 0 l0 -48 l-50 0 l0 48 ZM350 608 l50 0 l0 -48 l-50 0 l0 48 ZM250 608 l50 0 l0 -48 l-50 0 l0 48 ZM150 608 l50 0 l0 -48 l-50 0 l0 48 ZM50 608 l50 0 l0 -48 l-50 0 l0 48 ZM0 700 l50 0 l0 -47 l-50 0 l0 47 ZM100 700 l50 0 l0 -47 l-50 0 l0 47 ZM200 700 l50 0 l0 -47 l-50 0 l0 47 ZM300 700 l50 0 l0 -47 l-50 0 l0 47 ZM400 700 l50 0 l0 -47 l-50 0 l0 47 ZM500 700 l50 0 l0 -47 l-50 0 l0 47 ZM550 793 l50 0 l0 -48 l-50 0 l0 48 ZM450 793 l50 0 l0 -48 l-50 0 l0 48 ZM350 793 l50 0 l0 -48 l-50 0 l0 48 ZM250 793 l50 0 l0 -48 l-50 0 l0 48 ZM150 793 l50 0 l0 -48 l-50 0 l0 48 ZM50 793 l50 0 l0 -48 l-50 0 l0 48 ZM0 885 l50 0 l0 -47 l-50 0 l0 47 ZM100 885 l50 0 l0 -47 l-50 0 l0 47 ZM200 885 l50 0 l0 -47 l-50 0 l0 47 ZM300 885 l50 0 l0 -47 l-50 0 l0 47 ZM400 885 l50 0 l0 -47 l-50 0 l0 47 ZM500 885 l50 0 l0 -47 l-50 0 l0 47 ZM0 -39 l50 0 l0 -47 l-50 0 l0 47 ZM100 -39 l50 0 l0 -47 l-50 0 l0 47 ZM200 -39 l50 0 l0 -47 l-50 0 l0 47 ZM300 -39 l50 0 l0 -47 l-50 0 l0 47 ZM400 -39 l50 0 l0 -47 l-50 0 l0 47 ZM500 -39 l50 0 l0 -47 l-50 0 l0 47 ZM50 -132 l50 0 l0 -46 l-50 0 l0 46 ZM150 -132 l50 0 l0 -46 l-50 0 l0 46 ZM250 -132 l50 0 l0 -46 l-50 0 l0 46 ZM350 -132 l50 0 l0 -46 l-50 0 l0 46 ZM450 -132 l50 0 l0 -46 l-50 0 l0 46 ZM550 -132 l50 0 l0 -46 l-50 0 l0 46 Z" /><glyph glyph-name="dkshade" unicode="&#x2593;" d="M550 -189 l50 0 l0 -46 l-600 0 l0 138 l50 0 l0 47 l-50 0 l0 138 l50 0 l0 47 l-50 0 l0 137 l50 0 l0 48 l-50 0 l0 137 l50 0 l0 47 l-50 0 l0 138 l50 0 l0 47 l-50 0 l0 138 l50 0 l0 47 l-50 0 l0 11 l600 0 l0 -103 l-50 0 l0 -48 l50 0 l0 -137 l-50 0 l0 -48 l50 0 l0 -137 l-50 0 l0 -47 l50 0 l0 -138 l-50 0 l0 -47 l50 0 l0 -138 l-50 0 l0 -47 l50 0 l0 -138 l-50 0 l0 -46 ZM100 272 l50 0 l0 48 l-50 0 l0 -48 ZM200 272 l50 0 l0 48 l-50 0 l0 -48 ZM450 549 l50 0 l0 48 l-50 0 l0 -48 ZM350 549 l50 0 l0 48 l-50 0 l0 -48 ZM250 549 l50 0 l0 48 l-50 0 l0 -48 ZM150 549 l50 0 l0 48 l-50 0 l0 -48 ZM300 272 l50 0 l0 48 l-50 0 l0 -48 ZM50 549 l50 0 l0 48 l-50 0 l0 -48 ZM400 272 l50 0 l0 48 l-50 0 l0 -48 ZM500 272 l50 0 l0 48 l-50 0 l0 -48 ZM450 734 l50 0 l0 48 l-50 0 l0 -48 ZM350 734 l50 0 l0 48 l-50 0 l0 -48 ZM250 734 l50 0 l0 48 l-50 0 l0 -48 ZM150 734 l50 0 l0 48 l-50 0 l0 -48 ZM50 734 l50 0 l0 48 l-50 0 l0 -48 ZM500 827 l50 0 l0 47 l-50 0 l0 -47 ZM400 827 l50 0 l0 47 l-50 0 l0 -47 ZM300 827 l50 0 l0 47 l-50 0 l0 -47 ZM200 827 l50 0 l0 47 l-50 0 l0 -47 ZM100 827 l50 0 l0 47 l-50 0 l0 -47 ZM300 -97 l50 0 l0 47 l-50 0 l0 -47 ZM500 88 l50 0 l0 47 l-50 0 l0 -47 ZM100 457 l50 0 l0 47 l-50 0 l0 -47 ZM500 642 l50 0 l0 47 l-50 0 l0 -47 ZM300 642 l50 0 l0 47 l-50 0 l0 -47 ZM200 642 l50 0 l0 47 l-50 0 l0 -47 ZM100 642 l50 0 l0 47 l-50 0 l0 -47 ZM300 88 l50 0 l0 47 l-50 0 l0 -47 ZM350 -5 l50 0 l0 47 l-50 0 l0 -47 ZM200 88 l50 0 l0 47 l-50 0 l0 -47 ZM100 88 l50 0 l0 47 l-50 0 l0 -47 ZM500 457 l50 0 l0 47 l-50 0 l0 -47 ZM400 457 l50 0 l0 47 l-50 0 l0 -47 ZM300 457 l50 0 l0 47 l-50 0 l0 -47 ZM200 457 l50 0 l0 47 l-50 0 l0 -47 ZM450 365 l50 0 l0 47 l-50 0 l0 -47 ZM350 365 l50 0 l0 47 l-50 0 l0 -47 ZM250 365 l50 0 l0 47 l-50 0 l0 -47 ZM150 365 l50 0 l0 47 l-50 0 l0 -47 ZM50 365 l50 0 l0 47 l-50 0 l0 -47 ZM450 -5 l50 0 l0 47 l-50 0 l0 -47 ZM400 642 l50 0 l0 47 l-50 0 l0 -47 ZM350 180 l50 0 l0 47 l-50 0 l0 -47 ZM450 180 l50 0 l0 47 l-50 0 l0 -47 ZM150 -5 l50 0 l0 47 l-50 0 l0 -47 ZM400 -97 l50 0 l0 47 l-50 0 l0 -47 ZM50 -5 l50 0 l0 47 l-50 0 l0 -47 ZM250 180 l50 0 l0 47 l-50 0 l0 -47 ZM150 180 l50 0 l0 47 l-50 0 l0 -47 ZM50 180 l50 0 l0 47 l-50 0 l0 -47 ZM400 88 l50 0 l0 47 l-50 0 l0 -47 ZM500 -97 l50 0 l0 47 l-50 0 l0 -47 ZM100 -97 l50 0 l0 47 l-50 0 l0 -47 ZM250 -5 l50 0 l0 47 l-50 0 l0 -47 ZM200 -97 l50 0 l0 47 l-50 0 l0 -47 ZM50 -189 l50 0 l0 46 l-50 0 l0 -46 ZM450 -189 l50 0 l0 46 l-50 0 l0 -46 ZM150 -189 l50 0 l0 46 l-50 0 l0 -46 ZM350 -189 l50 0 l0 46 l-50 0 l0 -46 ZM250 -189 l50 0 l0 46 l-50 0 l0 -46 Z" /><glyph glyph-name="filledbox" unicode="&#x25a0;" d="M1 598 l598 0 l0 -598 l-598 0 l0 598 Z" /><glyph glyph-name="H22073" unicode="&#x25a1;" d="M1 598 l598 0 l0 -598 l-598 0 l0 598 ZM562 37 l0 524 l-524 0 l0 -524 l524 0 Z" /><glyph glyph-name="H18543" unicode="&#x25aa;" d="M424 187 l-248 0 l0 248 l248 0 l0 -248 Z" /><glyph glyph-name="H18551" unicode="&#x25ab;" d="M424 187 l-248 0 l0 248 l248 0 l0 -248 ZM213 398 l0 -174 l174 0 l0 174 l-174 0 Z" /><glyph glyph-name="filledrect" unicode="&#x25ac;" d="M1 306 l598 0 l0 -113 l-598 0 l0 113 Z" /><glyph glyph-name="triagup" unicode="&#x25b2;" d="M592 585 l-292 -585 l-293 585 l585 0 Z" /><glyph glyph-name="triagrt" unicode="&#x25ba;" d="M1 584 l598 -299 l-598 -298 l0 597 Z" /><glyph glyph-name="triagdn" unicode="&#x25bc;" d="M7 -13 l293 585 l292 -585 l-585 0 Z" /><glyph glyph-name="triaglf" unicode="&#x25c4;" d="M1 285 l598 299 l0 -597 l-598 298 Z" /><glyph glyph-name="lozenge" unicode="&#x25ca;" d="M518 353 l-203 -364 l-33 0 l-200 369 l200 353 l33 0 l203 -358 ZM305 599 l-1 0 l-138 -252 l130 -236 l2 0 l137 252 l-130 236 Z" /><glyph glyph-name="circle" unicode="&#x25cb;" d="M300 67 q-54 0 -105.5 28 q-51.5 28 -80.5 79.5 q-29 51.5 -29 107.5 q0 89 63 152 q63 63 152 63 q89 0 152 -63 q63 -63 63 -152 q0 -56 -28.5 -107.5 q-28.5 -51.5 -80.5 -79.5 q-52 -28 -106 -28 ZM300 104 q45 0 87.5 23 q42.5 23 66.5 66 q24 43 24 89 q0 74 -52 126 q-52 52 -126 52 q-73 0 -125.5 -52 q-52.5 -52 -52.5 -126 q0 -46 24 -89 q24 -43 66.5 -66 q42.5 -23 87.5 -23 Z" /><glyph glyph-name="H18533" unicode="&#x25cf;" d="M300 67 q-54 0 -105.5 28 q-51.5 28 -80.5 79.5 q-29 51.5 -29 107.5 q0 89 63 152 q63 63 152 63 q89 0 152 -63 q63 -63 63 -152 q0 -56 -28.5 -107.5 q-28.5 -51.5 -80.5 -79.5 q-52 -28 -106 -28 Z" /><glyph glyph-name="invbullet" unicode="&#x25d8;" d="M539 479 l0 -479 l-478 0 l0 479 l478 0 ZM300 141 q41 0 69.5 29 q28.5 29 28.5 70 q0 40 -28.5 69 q-28.5 29 -69.5 29 q-41 0 -70 -29 q-29 -29 -29 -69 q0 -41 29 -70 q29 -29 70 -29 Z" /><glyph glyph-name="invcircle" unicode="&#x25d9;" d="M583 564 l0 -564 l-564 0 l0 564 l564 0 ZM300 67 q55 0 106.5 28 q51.5 28 80.5 79.5 q29 51.5 29 107.5 q0 89 -63 152 q-63 63 -153 63 q-89 0 -152 -63 q-63 -63 -63 -152 q0 -56 29 -107.5 q29 -51.5 80.5 -79.5 q51.5 -28 105.5 -28 ZM301 104 q-45 0 -88 23 q-43 23 -66.5 65.5 q-23.5 42.5 -23.5 89.5 q0 74 52 126 q52 52 126 52 q74 0 126 -52 q52 -52 52 -126 q0 -47 -24 -89.5 q-24 -42.5 -67 -65.5 q-43 -23 -87 -23 Z" /><glyph glyph-name="openbullet" unicode="&#x25e6;" d="M421 311 q0 -50 -35.5 -85.5 q-35.5 -35.5 -85.5 -35.5 q-50 0 -85.5 35.5 q-35.5 35.5 -35.5 85.5 q0 50 35.5 85.5 q35.5 35.5 85.5 35.5 q50 0 85.5 -35.5 q35.5 -35.5 35.5 -85.5 ZM384 311 q0 35 -25 59.5 q-25 24.5 -59 24.5 q-35 0 -59.5 -24.5 q-24.5 -24.5 -24.5 -59.5 q0 -34 24.5 -59 q24.5 -25 59.5 -25 q34 0 59 24.5 q25 24.5 25 59.5 Z" /><glyph glyph-name="smileface" unicode="&#x263a;" d="M599 286 q0 -124 -87.5 -211.5 q-87.5 -87.5 -211.5 -87.5 q-124 0 -211.5 87.5 q-87.5 87.5 -87.5 211.5 q0 123 87.5 210.5 q87.5 87.5 211.5 87.5 q124 0 211.5 -87.5 q87.5 -87.5 87.5 -210.5 ZM555 286 q0 105 -74.5 180 q-74.5 75 -180.5 75 q-106 0 -180.5 -75 q-74.5 -75 -74.5 -180 q0 -106 74.5 -181 q74.5 -75 180.5 -75 q106 0 180.5 75 q74.5 75 74.5 181 ZM224 224 q0 -16 -11.5 -27 q-11.5 -11 -26.5 -11 q-16 0 -27 11 q-11 11 -11 27 q0 15 11 26.5 q11 11.5 27 11.5 q15 0 26.5 -11.5 q11.5 -11.5 11.5 -26.5 ZM452 224 q0 -16 -11 -27 q-11 -11 -26 -11 q-16 0 -27.5 11 q-11.5 11 -11.5 27 q0 15 11.5 26.5 q11.5 11.5 27.5 11.5 q15 0 26 -11.5 q11 -11.5 11 -26.5 ZM162 382 q24 44 58 67.5 q34 23.5 80 23.5 q90 0 137 -91 l-29 -17 q-37 67 -108 67 q-71 0 -109 -67 l-29 17 Z" /><glyph glyph-name="invsmileface" unicode="&#x263b;" d="M599 286 q0 -124 -87.5 -211.5 q-87.5 -87.5 -211.5 -87.5 q-124 0 -211.5 87.5 q-87.5 87.5 -87.5 211.5 q0 123 87.5 210.5 q87.5 87.5 211.5 87.5 q124 0 211.5 -87.5 q87.5 -87.5 87.5 -210.5 ZM224 224 q0 15 -11.5 26.5 q-11.5 11.5 -26.5 11.5 q-16 0 -27 -11.5 q-11 -11.5 -11 -26.5 q0 -16 11 -27 q11 -11 27 -11 q15 0 26.5 11 q11.5 11 11.5 27 ZM452 224 q0 15 -11 26.5 q-11 11.5 -26 11.5 q-16 0 -27.5 -11.5 q-11.5 -11.5 -11.5 -26.5 q0 -16 11.5 -27 q11.5 -11 27.5 -11 q15 0 26 11 q11 11 11 27 ZM191 365 q38 67 109 67 q71 0 108 -67 l29 17 q-23 45 -57.5 68 q-34.5 23 -79.5 23 q-46 0 -80 -23.5 q-34 -23.5 -58 -67.5 l29 -17 Z" /><glyph glyph-name="sun" unicode="&#x263c;" d="M284 37 q-53 6 -109 44 l-92 -89 l-21 24 l89 90 q-39 47 -45 109 l-105 0 l0 30 l105 0 q7 61 46 110 l-90 90 l22 22 l92 -88 q47 35 108 44 l0 106 l32 0 l0 -106 q33 -4 56.5 -13.5 q23.5 -9.5 53.5 -31.5 l89 89 l24 -21 l-90 -92 q38 -49 45 -108 l105 0 l0 -30 l-105 0 q-2 -55 -45 -112 l90 -90 l-22 -22 l-91 89 q-28 -21 -53 -31 q-25 -10 -57 -13 l0 -106 l-32 0 l0 106 ZM299 67 q68 0 115.5 48 q47.5 48 47.5 115 q0 67 -47.5 114.5 q-47.5 47.5 -115.5 47.5 q-67 0 -114.5 -47.5 q-47.5 -47.5 -47.5 -114.5 q0 -67 47.5 -115 q47.5 -48 114.5 -48 Z" /><glyph glyph-name="female" unicode="&#x2640;" d="M283 401 l-126 0 l0 34 l126 0 l0 128 l36 0 l0 -128 l125 0 l0 -34 l-125 0 l0 -81 q53 -7 87.5 -46.5 q34.5 -39.5 34.5 -92.5 q0 -59 -41.5 -100.5 q-41.5 -41.5 -98.5 -41.5 q-58 0 -99.5 41.5 q-41.5 41.5 -41.5 100.5 q0 52 34.5 92 q34.5 40 88.5 47 l0 81 ZM300 80 q42 0 71.5 29.5 q29.5 29.5 29.5 70.5 q0 42 -29.5 71.5 q-29.5 29.5 -71.5 29.5 q-41 0 -70.5 -29.5 q-29.5 -29.5 -29.5 -71.5 q0 -41 29.5 -70.5 q29.5 -29.5 70.5 -29.5 Z" /><glyph glyph-name="male" unicode="&#x2642;" d="M307 303 q-40 -21 -75 -21 q-59 0 -100.5 41.5 q-41.5 41.5 -41.5 100.5 q0 57 41 98 q41 41 100 41 q59 0 100.5 -42.5 q41.5 -42.5 41.5 -103.5 q0 -54 -41 -93 l116 -116 q10 40 31 81 q11 19 20 19 q3 0 7 -3 q2 -3 2 -7 q0 -5 -2 -16 q-6 -33 -6 -63 q0 -44 8 -77 q3 -9 3 -13 q0 -4 -2 -5.5 q-2 -1.5 -6 -1.5 q-6 0 -24 6 q-18 6 -63 6 q-31 0 -62 -8 q-11 -2 -16 -2 q-5 0 -7 2 q-3 4 -3 8 q0 5 4 9 q13 14 40 24 q36 14 53 18 l-118 118 ZM232 319 q43 0 73 30 q30 30 30 73 q0 44 -30 74 q-30 30 -73 30 q-43 0 -73.5 -30.5 q-30.5 -30.5 -30.5 -73.5 q0 -43 30 -73 q30 -30 74 -30 Z" /><glyph glyph-name="spade" unicode="&#x2660;" d="M300 0 q-12 58 -39 98 q-38 56 -106 112 q-55 44 -77 85 q-16 29 -16 65 q0 43 32 75 q32 32 76 32 q40 0 72.5 -23.5 q32.5 -23.5 54.5 -69.5 q2 73 -20 116.5 q-22 43.5 -64 68 q-42 24.5 -103 24.5 l-3 18 l387 0 l-4 -18 q-67 -4 -107 -28.5 q-40 -24.5 -58 -66.5 q-18 -42 -19 -114 q48 93 125 93 q44 0 75 -31.5 q31 -31.5 31 -77.5 q0 -34 -18 -67 q-18 -33 -85.5 -94 q-67.5 -61 -94 -102.5 q-26.5 -41.5 -39.5 -94.5 Z" /><glyph glyph-name="club" unicode="&#x2663;" d="M502 580 q-77 -15 -107 -34 q-45 -30 -66.5 -74.5 q-21.5 -44.5 -23.5 -122.5 q25 43 42 61 q24 25 56.5 39.5 q32.5 14.5 62.5 14.5 q55 0 94 -39.5 q39 -39.5 39 -97.5 q0 -56 -35.5 -94 q-35.5 -38 -84.5 -38 q-17 0 -30 4 q-8 2 -49 21 q34 -47 34 -90 q0 -53 -39 -91.5 q-39 -38.5 -96 -38.5 q-58 0 -96 38 q-38 38 -38 94 q0 20 6 37.5 q6 17.5 26 50.5 q-50 -25 -79 -25 q-45 0 -81 39 q-36 39 -36 95 q0 57 39 96.5 q39 39.5 96 39.5 q44 0 86.5 -28 q42.5 -28 71.5 -88 q1 16 1 23 q0 53 -25 101.5 q-25 48.5 -64 73.5 q-26 16 -107 33 l-4 17 l411 0 l-4 -17 Z" /><glyph glyph-name="heart" unicode="&#x2665;" d="M301 559 q14 -53 44.5 -106.5 q30.5 -53.5 104.5 -147.5 q58 -73 77.5 -117 q19.5 -44 19.5 -85 q0 -46 -34 -80 q-34 -34 -83 -34 q-43 0 -78 28.5 q-35 28.5 -51 86.5 q-17 -52 -45 -79 q-37 -35 -86 -35 q-50 0 -83.5 34 q-33.5 34 -33.5 85 q0 27 9 53.5 q9 26.5 30 57.5 q13 20 68 93 q74 98 100.5 145.5 q26.5 47.5 40.5 100.5 Z" /><glyph glyph-name="diamond" unicode="&#x2666;" d="M299 -12 q-38 69 -95 145 q-77 103 -126 159 q78 96 92 116 q59 78 96 133 q21 31 34 56 q38 -69 105 -158 q81 -108 118 -147 q-45 -50 -112.5 -140 q-67.5 -90 -111.5 -164 Z" /><glyph glyph-name="musicalnote" unicode="&#x266a;" d="M275 429 q-11 -4 -22 -6.5 q-11 -2.5 -22 -2.5 q-41 0 -70 28.5 q-29 28.5 -29 66.5 q0 21 14.5 34.5 q14.5 13.5 41.5 13.5 q53 0 88.5 -36.5 q35.5 -36.5 35.5 -97.5 l0 -247 q31 5 59 44 q28 39 28 97 q0 58 -28 121 l23 0 q46 -57 46 -132 q0 -41 -14 -81 q-14 -40 -39 -74 l-75 -94 l0 -49 l-37 0 l0 415 Z" /><glyph glyph-name="musicalnotedbl" unicode="&#x266b;" d="M528 -21 l-341 87 l0 367 q-11 -5 -22 -7 q-11 -2 -22 -2 q-41 0 -70 28.5 q-29 28.5 -29 65.5 q0 22 14 35 q14 13 42 13 q52 0 87.5 -36.5 q35.5 -36.5 35.5 -96.5 l0 -192 l269 -73 l0 219 q-11 -4 -22 -6.5 q-11 -2.5 -22 -2.5 q-40 0 -69 28.5 q-29 28.5 -29 65.5 q0 22 14 35.5 q14 13.5 42 13.5 q50 0 86 -36.5 q36 -36.5 36 -97.5 l0 -408 ZM223 123 l269 -74 l0 57 l-269 73 l0 -56 Z" /><glyph glyph-name="uni2C67" unicode="&#x2c67;" d="M412 580 l105 0 l0 120 l70 0 l0 -194 l-92 0 l0 -626 l-83 0 l0 305 l-266 0 l0 -305 l-83 0 l0 700 l83 0 l0 -321 l266 0 l0 321 Z" /><glyph glyph-name="uni2C68" unicode="&#x2c68;" d="M4 -53 l79 0 l0 633 l77 0 l0 -318 q6 -28 21.5 -51.5 q15.5 -23.5 37 -40 q21.5 -16.5 47.5 -26 q26 -9.5 53 -9.5 q39 0 64 11 q25 11 39.5 32.5 q14.5 21.5 19.5 53.5 q5 32 5 75 l0 273 l89 0 l0 120 l68 0 l0 -187 l-79 0 l0 -221 q0 -67 -11 -110.5 q-11 -43.5 -33.5 -68.5 q-22.5 -25 -58 -35 q-35.5 -10 -83.5 -10 q-61 0 -102 19.5 q-41 19.5 -72 54.5 l-5 0 l0 -262 l-156 0 l0 67 Z" /><glyph glyph-name="uniF406" unicode="&#xf406;" d="M119 761 q13 30 33 51 q20 21 45 34 q25 13 52 19 q27 6 54 6 q57 0 105.5 -29 q48.5 -29 70.5 -86 l-47 -26 q-14 29 -47 50 q-33 21 -81 21 q-47 0 -82 -18.5 q-35 -18.5 -52 -52.5 l-51 31 Z" /><glyph glyph-name="uniF408" unicode="&#xf408;" d="M118 871 l101 0 l83 -65 l77 65 l99 0 l-145 -123 l-60 0 l-155 123 Z" /><glyph glyph-name="uniF40B" unicode="&#xf40b;" d="M231 793 q0 25 18 42 q18 17 50 17 q32 0 51 -17 q19 -17 19 -42 q0 -23 -19 -40 q-19 -17 -51 -17 q-32 0 -50 17 q-18 17 -18 40 Z" /><glyph glyph-name="uniF40C" unicode="&#xf40c;" d="M194 770 q0 38 27 60.5 q27 22.5 78 22.5 q53 0 79.5 -23.5 q26.5 -23.5 26.5 -59.5 q0 -42 -28 -63.5 q-28 -21.5 -78 -21.5 q-55 0 -80 24 q-25 24 -25 61 ZM255 770 q0 -19 11 -30.5 q11 -11.5 33 -11.5 q23 0 34 11.5 q11 11.5 11 30.5 q0 18 -11.5 29 q-11.5 11 -33.5 11 q-23 0 -33.5 -11.5 q-10.5 -11.5 -10.5 -28.5 Z" /><glyph glyph-name="uniF40D" unicode="&#xf40d;" d="M165 837 q17 -17 32.5 -23.5 q15.5 -6.5 31.5 -6.5 q16 0 32 5 q16 5 32.5 11.5 q16.5 6.5 33.5 11.5 q17 5 36 5 q21 0 47 -6.5 q26 -6.5 53 -31.5 l-29 -49 q-24 21 -50 21 q-15 0 -31 -5 q-16 -5 -32.5 -11.5 q-16.5 -6.5 -34.5 -11.5 q-18 -5 -37 -5 q-24 0 -56.5 9.5 q-32.5 9.5 -63.5 41.5 l36 45 Z" /><glyph glyph-name="uniF49E" unicode="&#xf49e;" d="M13 177 l88 0 l0 523 l83 0 l0 -323 q26 -21 67 -33.5 q41 -12.5 89 -12.5 q124 0 124 137 l0 232 l83 0 l0 -247 q0 -56 -14 -94 q-14 -38 -39 -60.5 q-25 -22.5 -60.5 -32 q-35.5 -9.5 -77.5 -9.5 q-56 0 -100.5 15 q-44.5 15 -71.5 30 l0 -125 l219 0 l0 -66 l-219 0 l0 -111 l-83 0 l0 111 l-88 0 l0 66 Z" /><glyph glyph-name="uniF4C6" unicode="&#xf4c6;" d="M77 -212 l0 247 q0 56 14 94 q14 38 39 60.5 q25 22.5 60 32 q35 9.5 77 9.5 q57 0 101 -15 q44 -15 71 -30 l0 302 q0 36 -3 63 q-3 27 -12 44.5 q-9 17.5 -26 26 q-17 8.5 -45 8.5 l0 68 q5 1 14 1.5 q9 0.5 17 0.5 q71 0 104.5 -46 q33.5 -46 33.5 -139 l0 -727 l-83 0 l0 323 q-26 21 -67 33.5 q-41 12.5 -88 12.5 q-124 0 -124 -137 l0 -232 l-83 0 Z" /><glyph glyph-name="uniF4C7" unicode="&#xf4c7;" d="M90 -212 l0 139 q0 54 10.5 89.5 q10.5 35.5 31 57 q20.5 21.5 51.5 30 q31 8.5 73 8.5 q63 0 99.5 -12.5 q36.5 -12.5 54.5 -23.5 l0 212 q0 36 -2.5 63 q-2.5 27 -11.5 44.5 q-9 17.5 -25.5 26 q-16.5 8.5 -44.5 8.5 l0 68 q8 1 15 1.5 q7 0.5 15 0.5 q70 0 101.5 -46 q31.5 -46 30.5 -166 l0 0 l0 -500 l-78 0 l0 221 q-17 13 -52 24.5 q-35 11.5 -89 11.5 q-33 0 -53 -9 q-20 -9 -31 -25.5 q-11 -16.5 -14.5 -39.5 q-3.5 -23 -3.5 -50 l0 -133 l-77 0 Z" /><glyph glyph-name="uniF512" unicode="&#xf512;" d="M107 895 l416 0 l0 -74 l-333 0 l0 -249 l303 0 l0 -74 l-303 0 l0 -229 l328 0 l0 -74 l-411 0 l0 700 ZM152 62 l316 0 l0 -62 l-316 0 l0 62 ZM136 130 q0 21 16.5 29.5 q16.5 8.5 45.5 8.5 q28 0 44.5 -9 q16.5 -9 16.5 -29 q0 -22 -16.5 -30.5 q-16.5 -8.5 -44.5 -8.5 q-29 0 -45.5 9 q-16.5 9 -16.5 30 ZM358 130 q0 21 16.5 29.5 q16.5 8.5 45.5 8.5 q28 0 44.5 -9 q16.5 -9 16.5 -29 q0 -22 -16.5 -30.5 q-16.5 -8.5 -44.5 -8.5 q-29 0 -45.5 9 q-16.5 9 -16.5 30 Z" /><glyph glyph-name="uniF514" unicode="&#xf514;" d="M107 915 l416 0 l0 -74 l-333 0 l0 -249 l303 0 l0 -74 l-303 0 l0 -229 l328 0 l0 -74 l-411 0 l0 700 ZM136 150 q0 21 16.5 29.5 q16.5 8.5 45.5 8.5 q28 0 44.5 -9 q16.5 -9 16.5 -29 q0 -22 -16.5 -30.5 q-16.5 -8.5 -44.5 -8.5 q-29 0 -45.5 9 q-16.5 9 -16.5 30 ZM358 150 q0 21 16.5 29.5 q16.5 8.5 45.5 8.5 q28 0 44.5 -9 q16.5 -9 16.5 -29 q0 -22 -16.5 -30.5 q-16.5 -8.5 -44.5 -8.5 q-29 0 -45.5 9 q-16.5 9 -16.5 30 ZM142 15 q8 45 53 66 q45 21 115 21 q73 0 112.5 -23.5 q39.5 -23.5 49.5 -65.5 l-70 -13 q-6 26 -28.5 37 q-22.5 11 -62.5 11 q-39 0 -62.5 -11.5 q-23.5 -11.5 -28.5 -36.5 l-78 15 Z" /><glyph glyph-name="uniF51E" unicode="&#xf51e;" d="M48 553 q0 82 13 148.5 q13 66.5 43 114 q30 47.5 78 73.5 q48 26 117 26 q130 0 191.5 -94 q61.5 -94 61.5 -268 q0 -82 -13 -148.5 q-13 -66.5 -43 -114 q-30 -47.5 -78.5 -73.5 q-48.5 -26 -118.5 -26 q-128 0 -189.5 94 q-61.5 94 -61.5 268 ZM299 841 q-44 0 -74.5 -20.5 q-30.5 -20.5 -49.5 -55 q-19 -34.5 -28 -81 q-9 -46.5 -11 -99.5 l327 0 q-4 131 -43.5 193.5 q-39.5 62.5 -120.5 62.5 ZM299 265 q44 0 74 19.5 q30 19.5 49 53 q19 33.5 28.5 78 q9.5 44.5 12.5 95.5 l-326 0 q5 -125 44.5 -185.5 q39.5 -60.5 117.5 -60.5 ZM126 138 q0 21 16.5 29.5 q16.5 8.5 45.5 8.5 q28 0 44.5 -9 q16.5 -9 16.5 -29 q0 -22 -16.5 -30.5 q-16.5 -8.5 -44.5 -8.5 q-29 0 -45.5 9 q-16.5 9 -16.5 30 ZM348 138 q0 21 16.5 29.5 q16.5 8.5 45.5 8.5 q28 0 44.5 -9 q16.5 -9 16.5 -29 q0 -22 -16.5 -30.5 q-16.5 -8.5 -44.5 -8.5 q-29 0 -45.5 9 q-16.5 9 -16.5 30 ZM132 3 q8 45 53 66 q45 21 115 21 q73 0 112.5 -23.5 q39.5 -23.5 49.5 -65.5 l-70 -13 q-6 26 -28.5 37 q-22.5 11 -62.5 11 q-39 0 -62.5 -11.5 q-23.5 -11.5 -28.5 -36.5 l-78 15 Z" /><glyph glyph-name="uniF530" unicode="&#xf530;" d="M441 580 l106 0 l0 120 l70 0 l0 -194 l-93 0 l0 -626 l-350 0 q-3 128 -9 223.5 q-6 95.5 -15.5 164.5 q-9.5 69 -22 114 q-12.5 45 -26.5 72 q-16 30 -32.5 41 q-16.5 11 -33.5 11 q-11 0 -21 -3 l-11 72 q12 5 25 7.5 q13 2.5 31 2.5 q35 0 65 -22 q30 -22 52 -70 q33 -74 49.5 -206.5 q16.5 -132.5 26.5 -332.5 l189 0 l0 626 Z" /><glyph glyph-name="uniF531" unicode="&#xf531;" d="M426 380 l90 0 l0 120 l68 0 l0 -187 l-80 0 l0 -433 l-324 0 q-3 105 -8 178.5 q-5 73.5 -12.5 122 q-7.5 48.5 -18 75 q-10.5 26.5 -23.5 38.5 q-13 12 -29.5 12 q-16.5 0 -35.5 -5 l-13 74 q13 5 22 7 q9 2 29 2 q52 0 82.5 -34 q30.5 -34 47 -93 q16.5 -59 22.5 -138.5 q6 -79.5 10 -170.5 l173 0 l0 432 Z" /><glyph glyph-name="uniF532" unicode="&#xf532;" d="M457 654 q0 40 -2.5 67 q-2.5 27 -11.5 44.5 q-9 17.5 -26 26 q-17 8.5 -45 8.5 l0 68 q6 1 14.5 1.5 q8.5 0.5 16.5 0.5 q72 0 104.5 -46 q32.5 -46 32.5 -139 l0 -727 l-79 0 l-260 457 l-57 112 l-6 0 l5 -99 l0 -470 l-83 0 l0 700 l79 0 l260 -452 l58 -112 l6 0 l-6 100 l0 460 ZM144 -192 q8 60 53.5 87.5 q45.5 27.5 116.5 27.5 q74 0 113.5 -31.5 q39.5 -31.5 50.5 -85.5 l-71 -17 q-5 36 -28.5 56 q-23.5 20 -63.5 20 q-40 0 -64 -20 q-24 -20 -28 -57 l-79 20 Z" /><glyph glyph-name="uniF533" unicode="&#xf533;" d="M437 487 q0 39 -2.5 66 q-2.5 27 -11.5 44.5 q-9 17.5 -26 26 q-17 8.5 -45 8.5 l0 68 q8 1 15 1.5 q7 0.5 15 0.5 q70 0 102 -46 q32 -46 31 -139 l0 -527 l-72 0 l-279 386 l-4 0 l3 -63 l0 -323 l-78 0 l0 500 l71 0 l281 -380 l3 0 l-3 66 l0 311 ZM147 -188 q5 30 20 52 q15 22 36 36 q21 14 47.5 21 q26.5 7 53.5 7 q59 0 101.5 -31 q42.5 -31 51.5 -89 l-60 -19 q-9 43 -34 62 q-25 19 -57 19 q-32 0 -56.5 -18 q-24.5 -18 -34.5 -64 l-68 24 Z" /><glyph glyph-name="uni0493.alt" unicode="&#xf53d;" d="M516 0 l-392 0 l0 500 l80 0 l0 -207 l287 0 l0 -70 l-287 0 l0 -153 l312 0 l0 -70 Z" /><glyph glyph-name="uniF54B" unicode="&#xf54b;" d="M81 -15 l68 0 l0 -98 q26 -10 60 -18 q34 -8 66 -8 q30 0 55 6 q25 6 44 18.5 q19 12.5 29.5 32 q10.5 19.5 10.5 47.5 q0 23 -12 44 q-12 21 -30.5 37 q-18.5 16 -42 25.5 q-23.5 9.5 -45.5 9.5 l-80 0 l0 65 l54 0 q34 0 67.5 8.5 q33.5 8.5 59.5 25.5 q26 17 42 43 q16 26 16 61 q0 39 -16 68 q-16 29 -41.5 48 q-25.5 19 -57.5 28 q-32 9 -64 9 q-36 0 -65.5 -7 q-29.5 -7 -52.5 -17 l0 -115 l-68 0 l0 155 l-1 3 q10 8 28 16.5 q18 8.5 42.5 16.5 q24.5 8 55 13 q30.5 5 65.5 5 q54 0 100.5 -15 q46.5 -15 81 -43.5 q34.5 -28.5 54 -69 q19.5 -40.5 19.5 -91.5 q0 -43 -12 -75 q-12 -32 -32.5 -54 q-20.5 -22 -47.5 -35 q-27 -13 -57 -20 l0 -4 q24 -8 46 -22 q22 -14 38.5 -34 q16.5 -20 26 -45 q9.5 -25 9.5 -55 q0 -37 -14.5 -65.5 q-14.5 -28.5 -40 -48 q-25.5 -19.5 -61 -29.5 q-35.5 -10 -77.5 -10 q-81 0 -135.5 17.5 q-54.5 17.5 -84.5 34.5 l1 2 l-1 0 l0 140 Z" /><glyph glyph-name="one.numerator" unicode="&#xf662;" d="M327 707 l70 0 l0 -427 l-41 0 l-154 102 l27 49 l98 -59 l0 335 Z" /><glyph glyph-name="uniF6C3" unicode="&#xf6c3;" d="M242 -188 q0 19 11.5 31 q11.5 12 29.5 12 q6 0 10 -1 q0 24 -12 41 q-12 17 -32 28 l28 32 q10 -4 23.5 -12.5 q13.5 -8.5 26 -23 q12.5 -14.5 21.5 -34 q9 -19.5 9 -45.5 q0 -40 -19.5 -57.5 q-19.5 -17.5 -44.5 -17.5 q-20 0 -35.5 13 q-15.5 13 -15.5 34 Z" /><glyph glyph-name="uniF6C9" unicode="&#xf6c9;" d="M184 870 l69 0 l163 -97 l0 -21 l-114 0 l-118 118 Z" /><glyph glyph-name="uniF6CA" unicode="&#xf6ca;" d="M474 746 l-93 0 l-81 67 l-77 -67 l-104 0 l149 124 l58 0 l148 -124 Z" /><glyph glyph-name="uniF6CB" unicode="&#xf6cb;" d="M126 801 q0 23 17.5 37 q17.5 14 45.5 14 q26 0 43.5 -14 q17.5 -14 17.5 -37 q0 -23 -17.5 -37.5 q-17.5 -14.5 -43.5 -14.5 q-28 0 -45.5 14.5 q-17.5 14.5 -17.5 37.5 ZM351 801 q0 23 17 37 q17 14 43 14 q29 0 46 -14 q17 -14 17 -37 q0 -23 -17 -37.5 q-17 -14.5 -46 -14.5 q-26 0 -43 14.5 q-17 14.5 -17 37.5 Z" /><glyph glyph-name="uniF6CE" unicode="&#xf6ce;" d="M298 752 l-114 0 l0 21 l158 97 l74 0 l-118 -118 Z" /><glyph glyph-name="uniF6CF" unicode="&#xf6cf;" d="M137 850 l57 0 l100 -93 l0 -16 l-93 0 l-64 109 ZM261 850 l58 0 l143 -93 l0 -16 l-99 0 l-102 109 Z" /><glyph glyph-name="uniF6D0" unicode="&#xf6d0;" d="M142 843 l316 0 l0 -62 l-316 0 l0 62 Z" /><glyph glyph-name="uniF6D1" unicode="&#xf6d1;" d="M133 755 q8 60 53.5 87.5 q45.5 27.5 116.5 27.5 q74 0 113.5 -31.5 q39.5 -31.5 50.5 -85.5 l-71 -17 q-5 36 -28.5 56 q-23.5 20 -63.5 20 q-40 0 -64 -20 q-24 -20 -28 -57 l-79 20 Z" /><glyph glyph-name="uniF6D4" unicode="&#xf6d4;" d="M145 586 q5 30 20 52 q15 22 36 36 q21 14 47.5 21 q26.5 7 53.5 7 q59 0 101.5 -31 q42.5 -31 51.5 -89 l-60 -19 q-9 43 -34 62 q-25 19 -57 19 q-32 0 -56.5 -18 q-24.5 -18 -34.5 -64 l-68 24 Z" /><glyph glyph-name="fi" unicode="&#xfb01;" d="M188 207 q0 -33 6.5 -59 q6.5 -26 21.5 -43 q15 -17 40 -26 q25 -9 62 -9 q21 0 45.5 2 q24.5 2 48.5 6 q24 4 44.5 10 q20.5 6 34.5 15 l27 -64 q-13 -8 -36 -15 q-23 -7 -51.5 -12.5 q-28.5 -5.5 -59.5 -8.5 q-31 -3 -60 -3 q-45 0 -82 10.5 q-37 10.5 -64 32.5 q-27 22 -42 56 q-15 34 -15 80 l0 28 l-78 0 l0 70 l78 0 l0 430 l80 0 l0 -430 l252 0 l0 430 l80 0 l0 -500 l-332 0 Z" /><glyph glyph-name="fl" unicode="&#xfb02;" d="M398 600 q0 61 29.5 86.5 q29.5 25.5 74.5 25.5 q10 0 23 -1.5 q13 -1.5 26 -3.5 q13 -2 24.5 -5.5 q11.5 -3.5 19.5 -7.5 l-8 -63 q-19 7 -34 9 q-15 2 -29 2 q-21 0 -33.5 -15 q-12.5 -15 -12.5 -50 l0 -571 q-14 -4 -36.5 -7 q-22.5 -3 -48 -5.5 q-25.5 -2.5 -50.5 -4 q-25 -1.5 -45 -1.5 q-95 0 -145.5 45 q-50.5 45 -50.5 139 l0 28 l-78 0 l0 70 l78 0 l0 430 l80 0 l0 -430 l103 0 l0 -70 l-103 0 q0 -67 25 -104.5 q25 -37.5 93 -37.5 q27 0 55 2.5 q28 2.5 43 5.5 l0 534 Z" /></font>
</defs>
</svg>
